<svg id="icons" xmlns="http://www.w3.org/2000/svg" viewBox="0 0 89.19 122.79"><defs><style>.cls-1{fill:#009957;}.cls-2{fill:#007341;}.cls-3{fill:#fff;}</style></defs><path class="cls-1" d="M1297.72,962.91v65.47a28.7,28.7,0,0,1-28.66,28.66h-31.87a28.69,28.69,0,0,1-28.66-28.66V962.91a28.68,28.68,0,0,1,28.66-28.66h31.87A28.69,28.69,0,0,1,1297.72,962.91Z" transform="translate(-1208.53 -934.25)"/><path class="cls-2" d="M1297.72,962.91v65.47a28.7,28.7,0,0,1-28.66,28.66h-15.93l-.3-122.79h16.23A28.69,28.69,0,0,1,1297.72,962.91Z" transform="translate(-1208.53 -934.25)"/><circle class="cls-3" cx="15.47" cy="80.26" r="8.35"/><circle class="cls-3" cx="44.23" cy="80.26" r="8.35"/><circle class="cls-3" cx="72.21" cy="80.26" r="8.35"/></svg>