<svg id="icons" xmlns="http://www.w3.org/2000/svg" viewBox="0 0 163.47 156.83"><defs><style>.cls-1{fill:#55379b;}.cls-2{fill:#402974;}</style></defs><path class="cls-1" d="M1269.06,744.93H1162.91a28.69,28.69,0,0,0-28.66,28.66v65.47a28.7,28.7,0,0,0,25.05,28.43V896a5.73,5.73,0,0,0,3.54,5.3,5.8,5.8,0,0,0,2.18.43,5.68,5.68,0,0,0,4.05-1.68l14.29-14.28h0l18.08-18.07h67.61a28.7,28.7,0,0,0,28.66-28.66V773.6A28.69,28.69,0,0,0,1269.06,744.93Z" transform="translate(-1134.25 -744.93)"/><path class="cls-2" d="M1269.06,744.93h-85.69V885.8l18.08-18.07h67.61a28.7,28.7,0,0,0,28.66-28.66V773.6A28.69,28.69,0,0,0,1269.06,744.93Z" transform="translate(-1134.25 -744.93)"/></svg>