<svg id="icons" xmlns="http://www.w3.org/2000/svg" viewBox="0 0 163.47 156.83"><defs><style>.cls-1{fill:#bf2974;}.cls-2{fill:#ff379b;}</style></defs><path class="cls-1" d="M1387.5,744.93h106.15a28.69,28.69,0,0,1,28.66,28.66v65.47a28.7,28.7,0,0,1-25.05,28.43V896a5.73,5.73,0,0,1-3.54,5.3,5.8,5.8,0,0,1-2.18.43,5.68,5.68,0,0,1-4.05-1.68L1473.2,885.8h0l-18.08-18.07H1387.5a28.7,28.7,0,0,1-28.66-28.66V773.6A28.69,28.69,0,0,1,1387.5,744.93Z" transform="translate(-1358.84 -744.93)"/><path class="cls-2" d="M1387.5,744.93h85.69V885.8l-18.08-18.07H1387.5a28.7,28.7,0,0,1-28.66-28.66V773.6A28.69,28.69,0,0,1,1387.5,744.93Z" transform="translate(-1358.84 -744.93)"/></svg>