<svg id="icons" xmlns="http://www.w3.org/2000/svg" viewBox="0 0 66.68 9.8"><defs><style>.cls-1{fill:#f90;}.cls-2{fill:#ef8903;}</style></defs><rect class="cls-1" y="5.32" width="6.05" height="4.42"/><rect class="cls-1" x="8.62" y="4.3" width="6.05" height="5.45"/><rect class="cls-1" x="17.35" y="3.69" width="6.05" height="6.05"/><rect class="cls-1" x="26" y="2.49" width="6.05" height="7.25"/><rect class="cls-1" x="34.66" y="1.44" width="6.05" height="8.3"/><rect class="cls-1" x="43.28" y="0.78" width="6.05" height="8.96"/><rect class="cls-1" x="51.9" y="0.09" width="6.05" height="9.62"/><rect class="cls-1" x="60.63" width="6.05" height="9.8"/><rect class="cls-2" x="3.03" y="5.32" width="2.93" height="4.42"/><rect class="cls-2" x="11.55" y="4.3" width="3.03" height="5.45"/><rect class="cls-2" x="20.38" y="3.69" width="2.93" height="6.05"/><rect class="cls-2" x="28.93" y="2.49" width="3.03" height="7.25"/><rect class="cls-2" x="37.58" y="1.44" width="3.03" height="8.3"/><rect class="cls-2" x="46.21" y="0.78" width="3.03" height="8.96"/><rect class="cls-2" x="54.83" y="0.09" width="3.03" height="9.62"/><rect class="cls-2" x="63.52" width="3.03" height="9.8"/></svg>