<svg id="icons" xmlns="http://www.w3.org/2000/svg" viewBox="0 0 88.4 73.75"><defs><style>.cls-1{fill:#484443;}.cls-2{fill:#2a2522;}.cls-3{fill:#fff;}</style></defs><path id="_Path_" data-name="&lt;Path&gt;" class="cls-1" d="M1370.28,598.84H1287.2c-1.67,0-2.7.57-2.68,2.25,0,.8,0,56.1,0,56.9,0,1.67,1,2.25,2.68,2.25h83.08c1.67,0,2.61-.91,2.61-2.1V600.94c0-1.19-.93-2.1-2.61-2.1" transform="translate(-1284.52 -598.84)"/><path id="_Path_2" data-name="&lt;Path&gt;" class="cls-2" d="M1370.32,598.84h-34.19l-26.51,61.4h60.71c1.67,0,2.61-.91,2.61-2.1V600.94c0-1.19-.93-2.1-2.61-2.1" transform="translate(-1284.52 -598.84)"/><rect id="_Path_3" data-name="&lt;Path&gt;" class="cls-3" x="3.08" y="4.21" width="82.25" height="49.35"/><path id="_Path_4" data-name="&lt;Path&gt;" class="cls-3" d="M1331.31,600.93a1.08,1.08,0,1,1-1.08-1.08,1.08,1.08,0,0,1,1.08,1.08" transform="translate(-1284.52 -598.84)"/><rect id="_Rectangle_" data-name="&lt;Rectangle&gt;" class="cls-2" x="39.71" y="59.26" width="8.98" height="13.73"/><rect id="_Rectangle_2" data-name="&lt;Rectangle&gt;" class="cls-2" x="13.81" y="71.79" width="60.51" height="1.96" rx="0.98" ry="0.98"/></svg>