<svg id="icons" xmlns="http://www.w3.org/2000/svg" viewBox="0 0 185.85 185.85"><defs><style>.cls-1{fill:#fff;}.cls-2{fill:#009957;}.cls-3{fill:#00a162;}.cls-3,.cls-4{stroke:#414042;stroke-width:0.12px;}.cls-10,.cls-3,.cls-4{stroke-miterlimit:10;}.cls-4{fill:#00894e;}.cls-5{fill:#5b3922;}.cls-6{fill:#1b1b1b;}.cls-7{fill:#fda68b;}.cls-8{fill:#fbc5a1;}.cls-9{fill:#fbba94;}.cls-10{fill:none;stroke:#e09d70;stroke-width:0.61px;}</style></defs><circle id="_Path_" data-name="&lt;Path&gt;" class="cls-1" cx="92.92" cy="92.92" r="92.92"/><path id="_Compound_Path_" data-name="&lt;Compound Path&gt;" class="cls-2" d="M-618.62,849.37a87.45,87.45,0,0,1,62.25,25.78,87.45,87.45,0,0,1,25.78,62.25,87.45,87.45,0,0,1-25.78,62.25,87.45,87.45,0,0,1-62.25,25.78,87.45,87.45,0,0,1-62.25-25.78,87.45,87.45,0,0,1-25.78-62.25,87.45,87.45,0,0,1,25.78-62.25,87.45,87.45,0,0,1,62.25-25.78m0-4.89a92.92,92.92,0,0,0-92.92,92.92,92.92,92.92,0,0,0,92.92,92.92A92.92,92.92,0,0,0-525.7,937.4a92.92,92.92,0,0,0-92.92-92.92Z" transform="translate(711.55 -844.47)"/><path id="_Path_2" data-name="&lt;Path&gt;" class="cls-3" d="M-557.41,1001.36c-8.28-14.5-32.55-25-61.21-25s-52.94,10.5-61.21,25Z" transform="translate(711.55 -844.47)"/><path id="_Path_3" data-name="&lt;Path&gt;" class="cls-4" d="M-619.42,976.37v25h62c-8.28-14.5-32.55-25-61.21-25Z" transform="translate(711.55 -844.47)"/><path id="_Path_4" data-name="&lt;Path&gt;" class="cls-5" d="M-582.13,911.65s2.31-6.64,1.86-10.3-4.3-13.27-9.56-14.1c1.17-2.94,10.06-2.43,6.89-13.94-12.53,9.55-25.11,8.15-31.51,5.8s-16.15-1.76-21.08.59-4.87,4.27-8.46,8.69A89.68,89.68,0,0,0-653.84,903c-3.1,5.76-6.06,12.77-.78,18.22s4.92,15.46,4.92,15.46l5.55,14.59,50.76-3.38,5.25-10.42s-1.2-11.56.09-13.2S-582.13,911.65-582.13,911.65Z" transform="translate(711.55 -844.47)"/><path id="_Path_5" data-name="&lt;Path&gt;" class="cls-6" d="M-614.43,989-619,981l-4.6,7.94a53.26,53.26,0,0,1,.7,7,45.31,45.31,0,0,1-.7,5.27c2.58.45,6.16.11,9.19.12a49.1,49.1,0,0,1-.7-5.39A53.26,53.26,0,0,1-614.43,989Z" transform="translate(711.55 -844.47)"/><polygon id="_Path_6" data-name="&lt;Path&gt;" class="cls-7" points="80.51 125.54 80.51 129.39 92.52 138.56 104.73 129.28 103.14 125.54 80.51 125.54"/><polygon id="_Path_7" data-name="&lt;Path&gt;" class="cls-3" points="80.51 129.39 77.31 133.31 88.7 145.31 92.52 138.56 80.51 129.39"/><polygon id="_Path_8" data-name="&lt;Path&gt;" class="cls-4" points="104.53 129.39 107.73 133.31 96.34 145.31 92.52 138.56 104.53 129.39"/><path id="_Path_9" data-name="&lt;Path&gt;" class="cls-8" d="M-618.57,978.62c-3.81.08-20-12.22-22.73-17.43s-2.6-7.58-2.6-7.58-4,.68-5.88,0-4.19-3.73-5.43-6-1.27-6.68-.7-8.71,4.44-3.51,5.79-3.51a4.1,4.1,0,0,1,2.9,1.47c.67.89.63,5,3.24,12.37.72-3.78-.94-10.95-1.36-14.46s1.1-20.65,3.77-23,9.59,0,11.76,1.42,7.37.74,11.24,1.85Z" transform="translate(711.55 -844.47)"/><path id="_Path_10" data-name="&lt;Path&gt;" class="cls-9" d="M-619,978.62c3.81.08,19.56-12.22,22.28-17.43s2.6-7.58,2.6-7.58,4,.68,5.88,0,4.19-3.73,5.43-6,.57-6.68,0-8.71-3.73-3.51-5.09-3.51a6.38,6.38,0,0,0-3.41,1.16c-.91.77-1.71,3.81-3.22,9.74-.3-5.4.57-12.28.55-13.24-.13-10.92,1.11-19.29-.45-22.09-1.7-3.06-9.78,2.23-13.1,3.41a25.9,25.9,0,0,1-11.47.58Z" transform="translate(711.55 -844.47)"/><path id="_Path_11" data-name="&lt;Path&gt;" class="cls-10" d="M-648.12,949s-3.56-1.58-4.3-2.72-1.24-4.64.79-5.66,2.26,1.53,2.26,1.53" transform="translate(711.55 -844.47)"/><path id="_Path_12" data-name="&lt;Path&gt;" class="cls-10" d="M-589.82,949.87a15.42,15.42,0,0,0,3.49-2.82c.74-1.13,2.78-4.86.74-5.88a2.14,2.14,0,0,0-3,.95" transform="translate(711.55 -844.47)"/><path id="_Compound_Path_2" data-name="&lt;Compound Path&gt;" class="cls-5" d="M-594.41,938.47c-.15,2,1.44,17.39-7.62,21-1.22-6.63-8.61-9.59-10.49-9.59s-5.09,1-6.1,2.55a8.9,8.9,0,0,0-6.44-2.35c-2.9.2-9.18,3.21-10,9.4-1.57-.78-4.78-4.7-6.42-8.24a43.4,43.4,0,0,1-2.58-8l-1.32,1.51s1.24,13.05,1.87,14.93,18.4,19.89,25,19.89,23.2-18.48,24.37-21,1.23-18.17,1.23-18.17S-594.27,936.51-594.41,938.47Zm-24,30c-3.8,0-11.12-3.6-13.51-7,2.51-3.52,10.81-5.4,13.38-4.78,3.54-.55,8.63,0,13.64,4.78C-606.5,963.46-614.64,968.47-618.44,968.47Z" transform="translate(711.55 -844.47)"/></svg>