<svg id="icons" xmlns="http://www.w3.org/2000/svg" viewBox="0 0 95.86 95.86"><defs><style>.cls-1{fill:#fff;}.cls-2{fill:#addec9;}</style></defs><circle class="cls-1" cx="47.72" cy="48.57" r="44"/><path id="_Compound_Path_" data-name="&lt;Compound Path&gt;" class="cls-2" d="M-773.78,892.12a43.09,43.09,0,0,1,43,43,43.09,43.09,0,0,1-43,43,43.09,43.09,0,0,1-43-43,43.09,43.09,0,0,1,43-43m0-4.89a47.93,47.93,0,0,0-47.93,47.93,47.93,47.93,0,0,0,47.93,47.93,47.93,47.93,0,0,0,47.93-47.93,47.93,47.93,0,0,0-47.93-47.93Z" transform="translate(821.72 -887.22)"/></svg>