<svg id="icons" xmlns="http://www.w3.org/2000/svg" viewBox="0 0 40.81 5.58"><defs><style>.cls-1{fill:#5b3922;}</style></defs><path class="cls-1" d="M-627.54,932.22a2,2,0,0,1-.92-.15,9.27,9.27,0,0,0-3.76-.46,11.36,11.36,0,0,0-4.17,1.09,2,2,0,0,1-2.71-.79,2,2,0,0,1,.77-2.71,14.88,14.88,0,0,1,5.82-1.58,12.87,12.87,0,0,1,5.61.77,2,2,0,0,1,1.07,2.62A2,2,0,0,1-627.54,932.22Z" transform="translate(639.36 -927.56)"/><path class="cls-1" d="M-600.77,933.13a2,2,0,0,1-.88-.32,9.27,9.27,0,0,0-3.6-1.16,11.36,11.36,0,0,0-4.31.29,2,2,0,0,1-2.52-1.28,2,2,0,0,1,1.26-2.52,14.88,14.88,0,0,1,6-.46,12.87,12.87,0,0,1,5.36,1.81,2,2,0,0,1,.56,2.77A2,2,0,0,1-600.77,933.13Z" transform="translate(639.36 -927.56)"/></svg>