<svg xmlns="http://www.w3.org/2000/svg" viewBox="0 0 70.44 43.79"><defs><style>.cls-1{isolation:isolate;}.cls-2{fill:#283a4d;}.cls-3{fill:#5d6d7e;}.cls-4{fill:#414042;}.cls-5{fill:#adadad;}.cls-6{fill:#53585b;}.cls-7{fill:#33a171;}.cls-8{fill:#fff;}.cls-10,.cls-9{fill:#00894e;}.cls-10{opacity:0.2;mix-blend-mode:multiply;}</style></defs><title>Icons build file</title><g class="cls-1"><g id="icons"><ellipse id="_Path_" data-name="&lt;Path&gt;" class="cls-2" cx="35.22" cy="1.59" rx="0.65" ry="0.69"/><ellipse id="_Path_2" data-name="&lt;Path&gt;" class="cls-3" cx="35.22" cy="1.59" rx="0.26" ry="0.28"/><path id="_Path_3" data-name="&lt;Path&gt;" class="cls-4" d="M70.44,41.73a5.45,5.45,0,0,1-4.22,2.06h-62A5.44,5.44,0,0,1,0,41.73Z"/><path id="_Path_4" data-name="&lt;Path&gt;" class="cls-5" d="M70.44,41.74H0v-.85a.35.35,0,0,1,.1-.24.31.31,0,0,1,.22-.1h69.8a.32.32,0,0,1,.23.1.36.36,0,0,1,.09.24Z"/><path id="_Path_5" data-name="&lt;Path&gt;" class="cls-6" d="M41.76,40.75a.41.41,0,0,1-.11.28.37.37,0,0,1-.27.12H29.06a.36.36,0,0,1-.27-.12.42.42,0,0,1-.11-.28v-.2H41.76Z"/><rect id="_Path_6" data-name="&lt;Path&gt;" class="cls-7" x="11.3" y="30.67" width="47.85" height="1.5"/><rect id="_Path_7" data-name="&lt;Path&gt;" class="cls-7" x="11.3" y="33.95" width="47.85" height="1.5"/><path id="_Path_8" data-name="&lt;Path&gt;" d="M63.93,38.52A2.08,2.08,0,0,1,63.38,40a1.82,1.82,0,0,1-1.35.59H8.41A1.82,1.82,0,0,1,7.07,40a2.09,2.09,0,0,1-.55-1.43V2A2.1,2.1,0,0,1,7.07.59,1.86,1.86,0,0,1,8.41,0H62a1.85,1.85,0,0,1,1.35.59A2.09,2.09,0,0,1,63.93,2Z"/><rect id="_Path_9" data-name="&lt;Path&gt;" class="cls-8" x="9.5" y="3.12" width="51.44" height="34.25"/><rect id="_Path_10" data-name="&lt;Path&gt;" class="cls-9" x="10.64" y="4.16" width="49.23" height="32.42"/><rect id="_Path_11" data-name="&lt;Path&gt;" class="cls-10" x="10.64" y="20.32" width="49.23" height="16.26"/><path class="cls-8" d="M35.26,9.32a11,11,0,1,1-11,11,11.06,11.06,0,0,1,11-11m0-1.39A12.44,12.44,0,1,0,47.69,20.37,12.44,12.44,0,0,0,35.26,7.93Zm1.76,6a1.79,1.79,0,0,1-1.92,1.78,1.8,1.8,0,1,1,0-3.59A1.79,1.79,0,0,1,37,13.94ZM33.34,28.6V17.13H36.9V28.6Z"/></g></g></svg>