<svg xmlns="http://www.w3.org/2000/svg" viewBox="0 0 33.03 66.12"><defs><style>.cls-1{isolation:isolate;}.cls-2{fill:#fff;}.cls-3,.cls-4{fill:#00894e;}.cls-4{opacity:0.2;mix-blend-mode:multiply;}</style></defs><title>Icons build file</title><g class="cls-1"><g id="icons"><path d="M31.38,0H30.06L2.32,0C.8,0,0,1,0,2.86L0,64.1a1.82,1.82,0,0,0,1.65,2H3l27.74,0c1.52,0,2.28-1,2.28-2.86L33,2A1.82,1.82,0,0,0,31.38,0Z"/><rect id="_Path_" data-name="&lt;Path&gt;" class="cls-2" x="2.74" y="7.57" width="27.53" height="47.64"/><rect id="_Path_2" data-name="&lt;Path&gt;" class="cls-2" x="12.26" y="3.22" width="8.52" height="1.44"/><path id="_Path_3" data-name="&lt;Path&gt;" class="cls-2" d="M19.26,60.83a2.87,2.87,0,0,1-2.77,3,3,3,0,0,1,0-5.91,2.87,2.87,0,0,1,2.77,3"/><rect id="_Path_4" data-name="&lt;Path&gt;" class="cls-3" x="3.66" y="8.41" width="25.57" height="45.63"/><rect id="_Path_5" data-name="&lt;Path&gt;" class="cls-4" x="3.66" y="30.58" width="25.57" height="23.47"/><path class="cls-2" d="M16.44,21.92a7.94,7.94,0,1,1-7.94,7.94,7.95,7.95,0,0,1,7.94-7.94m0-1a8.94,8.94,0,1,0,8.94,8.94,8.94,8.94,0,0,0-8.94-8.94Zm1.27,4.32a1.29,1.29,0,0,1-1.38,1.28,1.29,1.29,0,1,1,0-2.58A1.28,1.28,0,0,1,17.71,25.23ZM15.06,35.77V27.53h2.56v8.24Z"/></g></g></svg>