<svg xmlns="http://www.w3.org/2000/svg" viewBox="0 0 37.71 58.82"><defs><style>.cls-1{isolation:isolate;}.cls-2{fill:#fff;}.cls-3{fill:#3c3c3b;}.cls-4,.cls-5{fill:#00894e;}.cls-5{opacity:0.2;mix-blend-mode:multiply;}</style></defs><title>Icons build file</title><g class="cls-1"><g id="icons"><path id="_Path_" data-name="&lt;Path&gt;" class="cls-2" d="M20.77,29.41a1.92,1.92,0,1,1-1.92-2,2,2,0,0,1,1.92,2"/><path id="_Path_2" data-name="&lt;Path&gt;" class="cls-3" d="M3.5,58.82,34.32,0,2.59.07A2.3,2.3,0,0,0,0,2.62L.1,57A1.81,1.81,0,0,0,2,58.82H3.5"/><path id="_Path_3" data-name="&lt;Path&gt;" d="M34.21,0,3.39,58.82l31.72-.07a2.3,2.3,0,0,0,2.59-2.55L37.6,1.77A1.81,1.81,0,0,0,35.71,0h-1.5"/><rect id="_Path_4" data-name="&lt;Path&gt;" class="cls-2" x="3.15" y="6.75" width="31.37" height="42.35" transform="translate(-0.06 0.04) rotate(-0.12)"/><rect class="cls-4" x="4.07" y="8.07" width="29.33" height="40"/><rect class="cls-5" x="4.07" y="28.55" width="29.33" height="19.53"/><path class="cls-2" d="M19,18.13a9.71,9.71,0,1,1-9.71,9.71A9.72,9.72,0,0,1,19,18.13m0-1.22A10.94,10.94,0,1,0,30,27.84,10.94,10.94,0,0,0,19,16.9Zm1.55,5.28a1.57,1.57,0,0,1-1.69,1.57,1.58,1.58,0,1,1,0-3.16A1.57,1.57,0,0,1,20.6,22.19ZM17.36,35.08V25h3.14V35.08Z"/></g></g></svg>