<svg xmlns="http://www.w3.org/2000/svg" viewBox="0 0 56.02 53.61"><defs><style>.cls-1{isolation:isolate;}.cls-2{fill:#3c3c3b;}.cls-3{fill:#3e3e3e;}.cls-4{fill:#fafafa;}.cls-5,.cls-7{fill:#00894e;}.cls-6{fill:#7b7b7b;}.cls-7{opacity:0.2;mix-blend-mode:multiply;}.cls-8{fill:#fff;}</style></defs><title>Icons build file</title><g class="cls-1"><g id="icons"><rect id="_Path_" data-name="&lt;Path&gt;" class="cls-2" x="20.74" y="42.22" width="14.48" height="11.03"/><path id="_Path_2" data-name="&lt;Path&gt;" class="cls-2" d="M56,.75A.71.71,0,0,0,55.36,0H.66A.71.71,0,0,0,0,.75V38.07H56Z"/><path id="_Path_3" data-name="&lt;Path&gt;" class="cls-2" d="M0,38.07v5.8a.7.7,0,0,0,.66.74h54.7a.71.71,0,0,0,.66-.74v-5.8Z"/><path id="_Path_4" data-name="&lt;Path&gt;" class="cls-3" d="M29.32,41H26.64c-.16,0-.29.33-.34.79a3.8,3.8,0,0,1,0-.42c0-.67.16-1.21.36-1.21h2.68c.2,0,.36.54.36,1.21a3.82,3.82,0,0,1,0,.42C29.61,41.3,29.48,41,29.32,41Z"/><rect id="_Path_5" data-name="&lt;Path&gt;" class="cls-2" x="2.71" y="1.99" width="50.55" height="34.65"/><rect id="_Path_6" data-name="&lt;Path&gt;" class="cls-4" x="3.16" y="2.49" width="49.69" height="33.8"/><rect id="_Path_7" data-name="&lt;Path&gt;" class="cls-2" x="17.19" y="51.36" width="21.59" height="2.24"/><rect id="_Path_8" data-name="&lt;Path&gt;" class="cls-5" x="4.13" y="3.53" width="47.82" height="31.97"/><path d="M55.36,0H28V2.49H52.86v33.8H28V53.61h10.8V51.36H35.22V44.61H55.36a.7.7,0,0,0,.66-.74V.75A.71.71,0,0,0,55.36,0Z"/><path id="_Path_9" data-name="&lt;Path&gt;" class="cls-6" d="M29.32,42.55H26.64c-.16,0-.29-.33-.34-.79s.18-.79.34-.79h2.68c.15,0,.29.33.34.79S29.48,42.55,29.32,42.55Z"/><rect id="_Path_10" data-name="&lt;Path&gt;" class="cls-7" x="4.13" y="19.49" width="47.82" height="16"/><path class="cls-8" d="M28,9.21A10.31,10.31,0,1,1,17.74,19.51,10.32,10.32,0,0,1,28,9.21m0-1.3a11.6,11.6,0,1,0,11.6,11.6A11.6,11.6,0,0,0,28,7.91Zm1.64,5.61a1.67,1.67,0,0,1-1.79,1.66,1.68,1.68,0,1,1,0-3.35A1.67,1.67,0,0,1,29.69,13.52ZM26.25,27.19V16.49h3.33v10.7Z"/></g></g></svg>