<svg id="icons" xmlns="http://www.w3.org/2000/svg" viewBox="0 0 70.44 43.79"><defs><style>.cls-1{fill:#283a4d;}.cls-2{fill:#5d6d7e;}.cls-3{fill:#414042;}.cls-4{fill:#adadad;}.cls-5{fill:#53585b;}.cls-6{fill:#33a171;}.cls-7{fill:#fff;}.cls-8{fill:#00894e;}</style></defs><ellipse id="_Path_" data-name="&lt;Path&gt;" class="cls-1" cx="35.22" cy="1.59" rx="0.65" ry="0.69"/><ellipse id="_Path_2" data-name="&lt;Path&gt;" class="cls-2" cx="35.22" cy="1.59" rx="0.26" ry="0.28"/><path id="_Path_3" data-name="&lt;Path&gt;" class="cls-3" d="M-491,832.62a5.45,5.45,0,0,1-4.22,2.06h-62a5.44,5.44,0,0,1-4.22-2.06Z" transform="translate(561.42 -790.89)"/><path id="_Path_4" data-name="&lt;Path&gt;" class="cls-4" d="M-491,832.62h-70.44v-.85a.35.35,0,0,1,.1-.24.31.31,0,0,1,.22-.1h69.8a.32.32,0,0,1,.23.1.36.36,0,0,1,.09.24Z" transform="translate(561.42 -790.89)"/><path id="_Path_5" data-name="&lt;Path&gt;" class="cls-5" d="M-519.65,831.63a.41.41,0,0,1-.11.28.37.37,0,0,1-.27.12h-12.33a.36.36,0,0,1-.27-.12.42.42,0,0,1-.11-.28v-.2h13.08Z" transform="translate(561.42 -790.89)"/><rect id="_Path_6" data-name="&lt;Path&gt;" class="cls-6" x="11.3" y="30.67" width="47.85" height="1.5"/><rect id="_Path_7" data-name="&lt;Path&gt;" class="cls-6" x="11.3" y="33.95" width="47.85" height="1.5"/><path id="_Path_8" data-name="&lt;Path&gt;" class="cls-3" d="M-497.49,829.41a2.08,2.08,0,0,1-.55,1.43,1.82,1.82,0,0,1-1.35.59H-553a1.82,1.82,0,0,1-1.35-.59,2.09,2.09,0,0,1-.55-1.43v-36.5a2.1,2.1,0,0,1,.55-1.43,1.86,1.86,0,0,1,1.35-.59h53.62a1.85,1.85,0,0,1,1.35.59,2.09,2.09,0,0,1,.55,1.43Z" transform="translate(561.42 -790.89)"/><rect id="_Path_9" data-name="&lt;Path&gt;" class="cls-7" x="9.5" y="3.12" width="51.44" height="34.25"/><rect id="_Path_10" data-name="&lt;Path&gt;" class="cls-8" x="11.64" y="5.03" width="14.23" height="4.55"/><rect id="_Path_11" data-name="&lt;Path&gt;" class="cls-6" x="28.11" y="5.03" width="31.04" height="4.55"/><rect id="_Path_12" data-name="&lt;Path&gt;" class="cls-8" x="11.3" y="20.25" width="14.23" height="8.65"/><rect id="_Path_13" data-name="&lt;Path&gt;" class="cls-8" x="28.1" y="20.25" width="14.23" height="8.65"/><rect id="_Path_14" data-name="&lt;Path&gt;" class="cls-8" x="44.91" y="20.25" width="14.23" height="8.65"/><rect id="_Path_15" data-name="&lt;Path&gt;" class="cls-6" x="11.3" y="11.36" width="47.85" height="7.12"/></svg>