<svg id="icons" xmlns="http://www.w3.org/2000/svg" viewBox="0 0 56.02 53.61"><defs><style>.cls-1{fill:#515151;}.cls-2{fill:#3c3c3b;}.cls-3{fill:#3e3e3e;}.cls-4{fill:#7b7b7b;}.cls-5{fill:#fafafa;}.cls-6{fill:#009957;}.cls-7{fill:#008957;}.cls-8{fill:#006741;}.cls-9{opacity:0.28;}</style></defs><rect id="_Path_" data-name="&lt;Path&gt;" class="cls-1" x="20.74" y="42.22" width="14.48" height="11.03"/><path id="_Path_2" data-name="&lt;Path&gt;" class="cls-2" d="M-681.72,787.77a.71.71,0,0,0-.66-.75h-54.7a.71.71,0,0,0-.66.75v37.32h56Z" transform="translate(737.74 -787.02)"/><path id="_Path_3" data-name="&lt;Path&gt;" class="cls-1" d="M-737.74,825.09v5.8a.7.7,0,0,0,.66.74h54.7a.71.71,0,0,0,.66-.74v-5.8Z" transform="translate(737.74 -787.02)"/><path id="_Path_4" data-name="&lt;Path&gt;" class="cls-3" d="M-708.42,828h-2.68c-.16,0-.29.33-.34.79a3.8,3.8,0,0,1,0-.42c0-.67.16-1.21.36-1.21h2.68c.2,0,.36.54.36,1.21a3.82,3.82,0,0,1,0,.42C-708.13,828.33-708.26,828-708.42,828Z" transform="translate(737.74 -787.02)"/><path id="_Path_5" data-name="&lt;Path&gt;" class="cls-4" d="M-708.42,829.57h-2.68c-.16,0-.29-.33-.34-.79s.18-.79.34-.79h2.68c.15,0,.29.33.34.79S-708.26,829.57-708.42,829.57Z" transform="translate(737.74 -787.02)"/><rect id="_Path_6" data-name="&lt;Path&gt;" class="cls-4" x="2.71" y="1.99" width="50.55" height="34.65"/><rect id="_Path_7" data-name="&lt;Path&gt;" class="cls-5" x="3.16" y="2.49" width="49.69" height="33.8"/><rect id="_Path_8" data-name="&lt;Path&gt;" class="cls-1" x="17.19" y="51.36" width="21.59" height="2.24"/><rect id="_Path_9" data-name="&lt;Path&gt;" class="cls-6" x="6.9" y="28.31" width="41.81" height="1.31"/><rect id="_Path_10" data-name="&lt;Path&gt;" class="cls-7" x="20.85" y="18.44" width="12.44" height="7.55"/><rect id="_Path_11" data-name="&lt;Path&gt;" class="cls-8" x="7.13" y="10.03" width="20.57" height="6.22"/><rect id="_Path_12" data-name="&lt;Path&gt;" class="cls-6" x="6.9" y="30.59" width="41.81" height="1.31"/><rect id="_Path_13" data-name="&lt;Path&gt;" class="cls-6" x="6.82" y="32.83" width="41.81" height="1.31"/><rect id="_Path_14" data-name="&lt;Path&gt;" class="cls-8" x="28.18" y="10.03" width="20.57" height="6.22"/><path class="cls-9" d="M-682.38,787h-27.38v2.49h24.87v33.8h-24.87v17.32H-699v-2.24h-3.56v-6.75h20.14a.7.7,0,0,0,.66-.74V787.77A.71.71,0,0,0-682.38,787Z" transform="translate(737.74 -787.02)"/></svg>