<svg id="icons" xmlns="http://www.w3.org/2000/svg" viewBox="0 0 33.03 66.12"><defs><style>.cls-1{fill:#3c3c3b;}.cls-2{fill:#fff;}.cls-3{fill:#00894e;}.cls-4{fill:#33a171;}</style></defs><path id="_Path_" data-name="&lt;Path&gt;" class="cls-1" d="M-787.33,968.2l27.18-66.08-27.84,0c-1.52,0-2.28,1-2.28,2.86l0,61.24a1.82,1.82,0,0,0,1.65,2h1.32" transform="translate(790.3 -902.1)"/><path id="_Path_2" data-name="&lt;Path&gt;" d="M-760.24,902.11l-27.18,66.08,27.84,0c1.52,0,2.28-1,2.28-2.86l0-61.24a1.82,1.82,0,0,0-1.65-2h-1.32" transform="translate(790.3 -902.1)"/><rect id="_Path_3" data-name="&lt;Path&gt;" class="cls-2" x="2.74" y="7.57" width="27.53" height="47.64"/><rect id="_Path_4" data-name="&lt;Path&gt;" class="cls-2" x="12.26" y="3.22" width="8.52" height="1.44"/><path id="_Path_5" data-name="&lt;Path&gt;" class="cls-2" d="M-771,962.93a2.87,2.87,0,0,1-2.77,3,2.87,2.87,0,0,1-2.77-3,2.87,2.87,0,0,1,2.77-3,2.87,2.87,0,0,1,2.77,3" transform="translate(790.3 -902.1)"/><rect id="_Path_6" data-name="&lt;Path&gt;" class="cls-3" x="5.07" y="13.33" width="22.74" height="10.68"/><rect id="_Path_7" data-name="&lt;Path&gt;" class="cls-4" x="5.07" y="26.02" width="22.74" height="1.85"/><rect id="_Path_8" data-name="&lt;Path&gt;" class="cls-4" x="5.07" y="30.06" width="22.74" height="1.85"/><rect id="_Path_9" data-name="&lt;Path&gt;" class="cls-4" x="5.07" y="33.98" width="22.74" height="1.85"/><rect id="_Path_10" data-name="&lt;Path&gt;" class="cls-4" x="5.07" y="38.02" width="22.74" height="1.85"/><rect id="_Path_11" data-name="&lt;Path&gt;" class="cls-3" x="5.15" y="41.54" width="10" height="10.68"/><rect id="_Path_12" data-name="&lt;Path&gt;" class="cls-3" x="17.96" y="41.54" width="10" height="10.68"/></svg>