<svg id="icons" xmlns="http://www.w3.org/2000/svg" viewBox="0 0 22.46 5.09"><defs><style>.cls-1{fill:#823c61;}</style></defs><path class="cls-1" d="M-627.42,956.83s.26.2.71.5a20,20,0,0,0,1.89,1.16,14.09,14.09,0,0,0,2.83,1.18,12.78,12.78,0,0,0,3.46.5,13.86,13.86,0,0,0,1.77-.15,11.79,11.79,0,0,0,1.68-.38,15.15,15.15,0,0,0,2.85-1.17,19,19,0,0,0,1.9-1.14c.45-.3.7-.5.7-.5a1.45,1.45,0,0,1,2,.27,1.45,1.45,0,0,1-.27,2,1.45,1.45,0,0,1-.45.23h0l-.85.26-2.24.72c-.94.29-2,.6-3.24.85-.6.13-1.23.21-1.87.3a15.54,15.54,0,0,1-2,.11,17.29,17.29,0,0,1-2-.09c-.64-.08-1.28-.15-1.88-.28a29.93,29.93,0,0,1-3.25-.86l-2.23-.74-.84-.26h0a1.45,1.45,0,0,1-1-1.82,1.45,1.45,0,0,1,1.82-1A1.49,1.49,0,0,1-627.42,956.83Z" transform="translate(629.75 -956.54)"/></svg>