<svg id="icons" xmlns="http://www.w3.org/2000/svg" viewBox="0 0 37.71 58.82"><defs><style>.cls-1{fill:#fff;}.cls-2{fill:#3c3c3b;}.cls-3{fill:#00a162;}</style></defs><path id="_Path_" data-name="&lt;Path&gt;" class="cls-1" d="M-461.13,935.18a2,2,0,0,1-1.92,2.05,2,2,0,0,1-1.92-2,2,2,0,0,1,1.92-2,2,2,0,0,1,1.92,2" transform="translate(481.9 -905.78)"/><path id="_Path_2" data-name="&lt;Path&gt;" class="cls-2" d="M-478.41,964.59l30.82-58.81-31.72.07a2.3,2.3,0,0,0-2.59,2.55l.1,54.43a1.81,1.81,0,0,0,1.89,1.77h1.5" transform="translate(481.9 -905.78)"/><path id="_Path_3" data-name="&lt;Path&gt;" d="M-447.69,905.78l-30.82,58.81,31.72-.07A2.3,2.3,0,0,0-444.2,962l-.1-54.43a1.81,1.81,0,0,0-1.89-1.77h-1.5" transform="translate(481.9 -905.78)"/><rect id="_Path_4" data-name="&lt;Path&gt;" class="cls-1" x="-478.75" y="912.53" width="31.37" height="42.35" transform="translate(479.89 -906.77) rotate(-0.12)"/><path id="_Compound_Path_" data-name="&lt;Compound Path&gt;" class="cls-3" d="M-463.5,914.37c-3.44,0-6.24,2.2-6.26,5a4.74,4.74,0,0,0,2.33,3.95c-.15,1-.45,3.14-.46,3.22h.05l0,0,0,0,0,0,0,0,0,0,0,0,.06-.06h0l.07-.08h0c.48-.51,1.32-1.45,1.85-2a7.56,7.56,0,0,0,2.12.31c3.44,0,6.24-2.2,6.26-5S-460.06,914.4-463.5,914.37Zm2.95,7.19-5.81,0a.45.45,0,0,1-.43-.47.45.45,0,0,1,.44-.46l5.81,0a.45.45,0,0,1,.43.47A.45.45,0,0,1-460.56,921.56Zm0-1.62-5.81,0a.45.45,0,0,1-.43-.47.45.45,0,0,1,.44-.46l5.81,0a.45.45,0,0,1,.43.47A.45.45,0,0,1-460.55,919.95Zm0-1.62-5.81,0a.45.45,0,0,1-.43-.47.45.45,0,0,1,.44-.46l5.81,0a.45.45,0,0,1,.43.47A.45.45,0,0,1-460.53,918.33Z" transform="translate(481.9 -905.78)"/><path id="_Compound_Path_2" data-name="&lt;Compound Path&gt;" class="cls-3" d="M-467,948l1.1-.4-.34-1.08-1.1.4a3.09,3.09,0,0,0-.82-1l.51-1.11-1-.51-.51,1.11a2.77,2.77,0,0,0-1.24-.09l-.37-1.18-1,.37.37,1.18a3,3,0,0,0-.93.87l-1-.55-.48,1,1,.55a3.37,3.37,0,0,0-.08,1.32l-1.1.4.34,1.09,1.1-.4a3.1,3.1,0,0,0,.82,1l-.52,1.11,1,.51.51-1.11a2.75,2.75,0,0,0,1.23.09l.37,1.18,1-.37-.37-1.18a3,3,0,0,0,.93-.87l1,.55.48-1-1-.55A3.35,3.35,0,0,0-467,948Zm-2.33,2.36a1.87,1.87,0,0,1-2.39-1.27,2,2,0,0,1,1.18-2.55,1.87,1.87,0,0,1,2.39,1.27A2,2,0,0,1-469.31,950.34Z" transform="translate(481.9 -905.78)"/><path id="_Compound_Path_3" data-name="&lt;Compound Path&gt;" class="cls-3" d="M-470.27,947.31a1.2,1.2,0,0,0-.69,1.5,1.09,1.09,0,0,0,1.4.74,1.2,1.2,0,0,0,.69-1.49A1.09,1.09,0,0,0-470.27,947.31Zm.47,1.48a.35.35,0,0,1-.45-.24.38.38,0,0,1,.22-.48.35.35,0,0,1,.45.24A.38.38,0,0,1-469.81,948.79Z" transform="translate(481.9 -905.78)"/><path id="_Compound_Path_4" data-name="&lt;Compound Path&gt;" class="cls-3" d="M-454.59,942l1-.71-.6-1-1,.71a6.08,6.08,0,0,0-1.53-1.44l.53-1.14-1-.51-.53,1.15a5.61,5.61,0,0,0-2-.43l-.08-1.27-1.07.07.08,1.28a5.72,5.72,0,0,0-1.93.7l-.67-1.06-.89.63.66,1.06a6.17,6.17,0,0,0-1.35,1.63l-1.07-.57-.48,1,1.07.57a6.74,6.74,0,0,0-.4,2.13l-1.19.08.07,1.14,1.19-.08a6.72,6.72,0,0,0,.65,2.06l-1,.71.6,1,1-.71a6.07,6.07,0,0,0,1.53,1.44l-.53,1.14,1,.51.53-1.14a5.61,5.61,0,0,0,2,.43l.08,1.27,1.07-.07-.08-1.28a5.74,5.74,0,0,0,1.93-.69l.66,1.06.89-.63-.66-1.06a6.22,6.22,0,0,0,1.34-1.63l1.07.57.48-1-1.07-.57a6.73,6.73,0,0,0,.4-2.13l1.19-.08-.07-1.14-1.19.08A6.68,6.68,0,0,0-454.59,942Zm-1.34,5.1a4.23,4.23,0,0,1-5.84,2.1,4.8,4.8,0,0,1-2-6.23,4.23,4.23,0,0,1,5.84-2.1A4.8,4.8,0,0,1-455.92,947.07Z" transform="translate(481.9 -905.78)"/><path id="_Compound_Path_5" data-name="&lt;Compound Path&gt;" class="cls-3" d="M-460.74,942.13a3.08,3.08,0,0,0-1.78,3.84,2.81,2.81,0,0,0,3.6,1.9,3.08,3.08,0,0,0,1.78-3.84A2.8,2.8,0,0,0-460.74,942.13Zm1,3.23a.35.35,0,0,1-.45-.24.38.38,0,0,1,.22-.48.35.35,0,0,1,.45.24A.39.39,0,0,1-459.71,945.36Z" transform="translate(481.9 -905.78)"/><rect id="_Path_5" data-name="&lt;Path&gt;" class="cls-3" x="-464.01" y="917.7" width="1.01" height="23.11" transform="translate(-907.37 -446.95) rotate(-89.57)"/><rect id="_Path_6" data-name="&lt;Path&gt;" class="cls-3" x="-464.03" y="920.5" width="1.01" height="23.11" transform="translate(-910.21 -444.16) rotate(-89.57)"/><rect id="_Path_7" data-name="&lt;Path&gt;" class="cls-3" x="-464.05" y="923.3" width="1.01" height="23.11" transform="translate(-913 -441.45) rotate(-89.57)"/></svg>