<!-- Generator: Adobe Illustrator 19.2.1, SVG Export Plug-In  -->
<svg version="1.1"
	 xmlns="http://www.w3.org/2000/svg" xmlns:xlink="http://www.w3.org/1999/xlink" xmlns:a="http://ns.adobe.com/AdobeSVGViewerExtensions/3.0/"
	 x="0px" y="0px" width="1060.8px" height="600.1px" viewBox="0 0 1060.8 600.1" style="enable-background:new 0 0 1060.8 600.1;"
	 xml:space="preserve">
<style type="text/css">
	.st0{fill:#FFFFFF;}
	.st1{fill:#004796;}
	.st2{fill:none;stroke:#000000;stroke-width:10;stroke-linecap:round;stroke-miterlimit:10;}
	.st3{fill:#99B5D5;}
</style>
<defs>
</defs>
<path class="st0" d="M1033.8,600.1H27c-14.9,0-27-12.1-27-27V27C0,12.1,12.1,0,27,0h1006.8c14.9,0,27,12.1,27,27v546.1
	C1060.8,588,1048.8,600.1,1033.8,600.1z"/>
<g>
	<path class="st1" d="M1033.8,19c4.4,0,8,3.6,8,8v546.1c0,4.4-3.6,8-8,8H27c-4.4,0-8-3.6-8-8V27c0-4.4,3.6-8,8-8H1033.8 M1033.8,0
		H27C12.1,0,0,12.1,0,27v546.1c0,14.9,12.1,27,27,27h1006.8c14.9,0,27-12.1,27-27V27C1060.8,12.1,1048.8,0,1033.8,0L1033.8,0z"/>
</g>
<g>
	<path d="M231.2,185.6c-11.1,11.5-24.6,17.3-40.3,17.3c-11.3,0-20.5-3.5-27.8-10.6c-7.2-7.1-10.8-16.2-10.8-27.3
		c0-11.1,2.6-21.6,7.8-31.5c5.2-10,12-17.9,20.5-23.9c8.4-6,16.7-9,24.9-9c6.8,0,12.4,2,16.7,6.1c4.3,4.1,6.5,9.4,6.5,15.9
		c0,8.5-2.6,15.9-7.8,22.1c-5.2,6.2-11.3,9.3-18.2,9.3c-3.7,0-6.7-0.9-9-2.8c-2.4-1.9-3.5-4.3-3.5-7.3c0-2.5,1-4.9,3-7.1
		c1.5,2.8,3.6,4.2,6.2,4.2c3.8,0,7.3-2.4,10.5-7.1c3.2-4.7,4.8-9.9,4.8-15.4c0-3.9-0.9-7-2.7-9.3c-1.8-2.3-4.2-3.5-7.2-3.5
		c-4.4,0-9,2.7-14,8.2c-5,5.5-9.1,12.5-12.4,21c-3.3,8.6-5,16.7-5,24.4c0,9.8,2.8,17.9,8.4,24.2c5.6,6.3,12.7,9.5,21.3,9.5
		c5.5,0,10.4-1.3,14.7-3.8c4.4-2.5,8.9-6.5,13.6-11.9V185.6z"/>
	<path d="M294.5,185.6c-2.4,2.1-4.7,3.6-7,4.5c-2.3,0.9-4,1.3-5.4,1.3c-3.4,0-6.7-1.3-10.1-4c-6.8,10.3-14.5,15.4-23.3,15.4
		c-5.5,0-9.9-2-13.3-6.1c-3.4-4.1-5.1-9.5-5.1-16.3c0-10.7,3.8-19.9,11.4-27.6c7.6-7.7,16.7-11.5,27.3-11.5c4,0,6.9,0.4,8.8,1.3
		c1.9,0.9,3,1.9,3.4,3.1c0.4,1.2,0.6,2.7,0.6,4.4c0,8.8-2.4,19.6-7.2,32.4c2.4,2.2,4.9,3.3,7.5,3.3c3.2,0,7.2-2.8,12.1-8.3V185.6z
		 M271.2,146.1c-0.7-0.3-1.7-0.4-3-0.4c-6.1,0-10.9,3.2-14.4,9.6c-3.5,6.4-5.2,13.9-5.2,22.4c0,4.8,0.8,8.4,2.3,11.1
		c1.5,2.6,3.6,4,6.3,4c3.3,0,7-3.1,10.9-9.2c-4.4-5.5-6.6-11.5-6.6-17.9C261.4,158.1,264.6,151.6,271.2,146.1z"/>
	<path d="M398.3,185.6c-5.9,5.7-10.9,10-15.1,12.9c-4.2,2.9-8.3,4.3-12.2,4.3c-3.1,0-5.6-1.1-7.4-3.2c-1.8-2.1-2.7-5-2.7-8.6
		c0-5.1,1.3-11.5,3.8-19.3c2.5-7.8,3.8-12.6,3.8-14.2c0-1.5-0.8-2.3-2.3-2.3c-0.5,0-1,0.2-1.7,0.5c-0.7,0.3-1.5,0.8-2.4,1.4
		c-0.9,0.7-1.9,1.5-2.9,2.4c-1,0.9-2.1,2-3.2,3.2c-1.2,1.2-2.4,2.6-3.7,4c-2.1,2.4-3.3,4.5-3.7,6.1l-2.3,10.1l-4.3,16.7l-17.9,3.2
		l6.8-29.1c0.5-2.1,1.1-5.2,1.8-9.3s1.1-6.5,1.1-7.3c0-1.6-0.5-2.4-1.6-2.4c-0.3,0-0.8,0.2-1.4,0.5c-0.7,0.3-1.5,0.8-2.4,1.5
		c-1,0.8-2.1,1.6-3.3,2.7c-1.3,1.1-2.6,2.4-4.1,3.9c-1.6,1.6-3.2,3.3-4.8,5.1c-2.3,2.5-3.7,5.5-4.2,8.9c-0.8,4-1.3,7.7-1.6,10.9
		c-0.3,3.2-0.5,6.8-0.6,10.7l-15.7,3.7c-0.4-5.4-0.6-9.9-0.6-13.5c0-8.6,0.9-16.1,2.7-22.5c1.8-6.4,4.7-13.8,8.7-22.3l17.1-3.3
		c-3.1,7.7-5.4,15.1-7.1,22.2c12.6-14.7,22.3-22.1,29.1-22.1c2.4,0,4.4,1,6,3c1.5,2,2.3,4.6,2.3,7.9c0,1.5-0.2,4.3-0.7,8.3
		c8-7.9,13.7-13.1,17.1-15.6c3.5-2.4,6.6-3.6,9.6-3.6c2.6,0,4.7,1,6.4,3.1c1.6,2.1,2.5,4.7,2.5,7.9c0,5-1.4,11.5-4.2,19.4
		c-2.8,7.9-4.2,13.1-4.2,15.7c0,2.6,1,3.9,2.9,3.9c1.2,0,2.9-0.8,5.1-2.4c2.2-1.6,6-5.3,11.4-11.2V185.6z"/>
	<path d="M451.1,185.6c-6,5.9-11.3,10.2-16.1,13c-4.8,2.8-10,4.2-15.7,4.2c-6.4,0-11.6-2-15.5-6.1c-3.9-4.1-5.9-9.5-5.9-16.2
		c0-10,3.5-19,10.4-27.1c6.9-8.1,14.6-12.1,23-12.1c4.4,0,7.9,1.1,10.5,3.4c2.6,2.3,4,5.2,4,8.9c0,9.7-10.3,17.6-31,23.7
		c1.9,9.2,6.8,13.8,14.7,13.8c3.1,0,6.1-0.8,8.9-2.5c2.8-1.7,7.1-5.4,12.8-11.1V185.6z M414.1,172.5c12-3.4,18.1-9.6,18.1-18.8
		c0-4.5-1.6-6.8-4.9-6.8c-3.1,0-6.1,2.4-8.9,7.1C415.5,158.8,414.1,164.9,414.1,172.5z"/>
	<path d="M521.9,185.6c-11,11.6-19.2,17.4-24.7,17.4c-3,0-5.5-1.5-7.6-4.6c-2.1-3.1-3.1-6.9-3.1-11.6c0-10,3.4-23.9,10.2-41.6
		l17.9-3.7h0.8l-7.1,22.1c-2.9,9.1-4.4,15.6-4.4,19.5c0,1.6,0.3,2.8,1,3.8c0.7,1,1.5,1.4,2.6,1.4c1.8,0,3.7-0.7,5.5-2
		c1.9-1.3,4.8-4.2,8.8-8.7V185.6z M520.5,113.8c0,11.3-4.2,16.9-12.5,16.9c-4,0-7.5-1.2-10.4-3.7c2.7-4.1,4.8-8.8,6.3-14
		c3.7,2.3,6.7,3.5,9,3.5C515.5,116.5,518,115.6,520.5,113.8z"/>
	<path d="M591.2,185.6c-10.9,11.5-20.2,17.2-27.9,17.2c-3.2,0-5.7-1.1-7.6-3.3c-1.9-2.2-2.9-5.2-2.9-8.9c0-5,2.1-12.7,6.2-23.1
		c2.2-5.5,3.3-9.1,3.3-10.6c0-1.5-0.6-2.3-1.8-2.3c-0.7,0-1.5,0.3-2.6,1c-1,0.7-2.1,1.6-3.5,2.8c-1.2,1.1-2.5,2.4-4,4
		c-1.3,1.3-2.6,2.8-4.1,4.5l-4,4.6c-1.7,2.1-2.8,4.4-3.2,6.7c-0.7,4-1.2,7.7-1.4,11c-0.1,2.5-0.2,5.9-0.2,10.1l-15.6,3.7
		c-0.5-6.3-0.8-11.1-0.8-14.2c0-7.6,0.9-14.7,2.6-21.5c1.8-6.8,4.6-14.4,8.5-22.9l17.2-3.3c-3.6,9.7-6,17.4-7.1,23
		c7.7-8.6,13.8-14.6,18.4-17.9c4.5-3.3,8.6-5,12.1-5c2.4,0,4.4,0.9,6,2.7c1.6,1.8,2.4,4.1,2.4,6.8c0,4.5-2,11.9-6.1,22.3
		c-2.8,7.1-4.2,11.7-4.2,13.8c0,2.8,1.2,4.2,3.5,4.2c3.4,0,9-4.5,16.7-13.6V185.6z"/>
	<path d="M725,185.6c-2.3,1.9-4.5,3.2-6.8,4c-2.3,0.8-4,1.2-5.2,1.2c-3.4,0-6.8-1.3-10.1-4c-8.6,10.6-17.4,15.9-26.5,15.9
		c-6.7,0-11.5-3.7-14.3-11c-6.3,7.3-13.1,11-20.4,11c-4.8,0-8.5-1.6-11.2-4.7c-2.7-3.1-4.1-7.4-4.1-12.9c0-5.9,0.8-11.9,2.5-18.1
		c1.7-6.1,4.2-13.6,7.7-22.4l18.6-3.5l-5.2,15.7c-4.4,13.6-6.6,23-6.6,28.2c0,2.4,0.6,4.4,1.8,6c1.2,1.6,2.7,2.3,4.4,2.3
		c3.8,0,7.5-2.9,11.3-8.7c0-7.4,1.3-15,4-23l5.8-17.1l18.9-3.5l-7.9,24.4c-2.5,7.9-3.8,14.1-3.8,18.6c0,2.8,0.6,5,1.8,6.6
		c1.2,1.6,2.8,2.5,4.9,2.5c2.5,0,4.8-0.9,7.1-2.8c2.2-1.8,4.7-4.6,7.5-8.3c-2.5-4.6-3.7-9.3-3.7-14.2c0-7.1,1.8-13.3,5.3-18.7
		c3.5-5.4,7.5-8.1,11.9-8.1c3.1,0,4.6,2.3,4.6,6.9c0,9.9-3.8,21.2-11.5,33.7c2.4,2.2,4.8,3.3,7.5,3.3c3.2,0,7.1-2.6,11.9-7.7V185.6z
		"/>
	<path d="M777.7,185.6c-6,5.9-11.3,10.2-16.1,13c-4.8,2.8-10,4.2-15.7,4.2c-6.4,0-11.6-2-15.5-6.1c-3.9-4.1-5.9-9.5-5.9-16.2
		c0-10,3.5-19,10.4-27.1c6.9-8.1,14.6-12.1,23-12.1c4.4,0,7.9,1.1,10.5,3.4c2.6,2.3,4,5.2,4,8.9c0,9.7-10.3,17.6-31,23.7
		c1.9,9.2,6.8,13.8,14.7,13.8c3.1,0,6.1-0.8,8.9-2.5c2.8-1.7,7.1-5.4,12.8-11.1V185.6z M740.8,172.5c12-3.4,18.1-9.6,18.1-18.8
		c0-4.5-1.6-6.8-4.9-6.8c-3.1,0-6.1,2.4-8.9,7.1C742.2,158.8,740.8,164.9,740.8,172.5z"/>
	<path d="M797.6,100.3c7.5,4,11.3,9.5,11.3,16.6c0,5.9-2.4,11.3-7.2,16.2c-4.8,4.8-11.8,8.9-21.1,12.1l-1-4.3
		c5.4-2.9,9.3-5.6,12-7.9c2.6-2.4,3.9-5.2,3.9-8.5c0-4.2-2.4-7.1-7.2-8.8c-1.5-0.5-2.2-1-2.2-1.5c0-0.4,0.8-1.5,2.5-3.3
		C792.7,106.4,795.7,102.9,797.6,100.3z"/>
	<path d="M855.8,185.6c-11.8,11.6-20.9,17.4-27.3,17.4c-2.9,0-5.3-1.2-7.3-3.6c-2-2.4-3-5.4-3-9c0-6.6,3.6-15.5,10.7-26.7
		c-3.5,1.8-7.3,3-11.4,3.7c-3.1,5.6-7.9,11.7-14.4,18.2h-1.6v-6.3c3.7-3.8,7-7.9,9.9-12.3c-4-1.8-6.1-4.4-6.1-8
		c0-3.6,1.2-7.5,3.7-11.6c2.5-4.1,5.9-6.2,10.2-6.2c3.7,0,5.5,1.9,5.5,5.6c0,3-1.1,7.2-3.2,12.7c7.8-0.8,14.6-6.8,20.5-17.9l6.4-0.3
		l-6.6,18.1c-2.7,7.6-4.5,12.8-5.3,15.6c-0.8,2.8-1.2,5.2-1.2,7.3c0,2,0.5,3.6,1.4,4.7c0.9,1.2,2.2,1.8,3.7,1.8
		c1.7,0,3.3-0.6,4.9-1.7c1.6-1.2,5-4.3,10.4-9.6V185.6z"/>
	<path d="M908.6,185.6c-6,5.9-11.3,10.2-16.1,13c-4.8,2.8-10,4.2-15.7,4.2c-6.4,0-11.6-2-15.5-6.1c-3.9-4.1-5.9-9.5-5.9-16.2
		c0-10,3.5-19,10.4-27.1c6.9-8.1,14.6-12.1,23-12.1c4.4,0,7.9,1.1,10.5,3.4c2.6,2.3,4,5.2,4,8.9c0,9.7-10.3,17.6-31,23.7
		c1.9,9.2,6.8,13.8,14.7,13.8c3.1,0,6.1-0.8,8.9-2.5c2.8-1.7,7.1-5.4,12.8-11.1V185.6z M871.6,172.5c12-3.4,18.1-9.6,18.1-18.8
		c0-4.5-1.6-6.8-4.9-6.8c-3.1,0-6.1,2.4-8.9,7.1C873,158.8,871.6,164.9,871.6,172.5z"/>
</g>
<line class="st2" x1="100.5" y1="492" x2="960.3" y2="492"/>
<g>
	<path d="M257.4,437.6c-14,0-27-2.5-38.9-7.4c-11.9-4.9-22.2-11.6-30.9-20.1c-8.7-8.5-15.4-18.4-20.4-29.9
		c-4.9-11.4-7.4-23.6-7.4-36.6v-0.5c0-13,2.5-25.2,7.4-36.7c4.9-11.5,11.8-21.5,20.6-30.1c8.8-8.6,19.2-15.3,31.1-20.2
		c11.9-4.9,24.9-7.4,38.9-7.4c14,0,27,2.5,38.9,7.4c11.9,4.9,22.2,11.6,30.9,20.1c8.7,8.5,15.4,18.4,20.4,29.9
		c4.9,11.4,7.4,23.6,7.4,36.6v0.5c0,13-2.5,25.2-7.4,36.7c-4.9,11.5-11.8,21.5-20.6,30.1c-8.8,8.6-19.2,15.3-31.1,20.2
		C284.4,435.2,271.4,437.6,257.4,437.6z M257.7,392.2c6.9,0,13.3-1.3,19-3.9c5.7-2.6,10.6-6.1,14.6-10.5s7.1-9.6,9.4-15.4
		c2.3-5.9,3.4-12.1,3.4-18.7v-0.5c0-6.6-1.1-12.8-3.4-18.7c-2.3-5.9-5.5-11.1-9.6-15.6c-4.2-4.5-9.1-8.1-14.8-10.8
		c-5.7-2.7-12.1-4-19-4c-6.9,0-13.2,1.3-18.9,3.9c-5.6,2.6-10.5,6.1-14.6,10.5c-4.1,4.4-7.2,9.6-9.4,15.4
		c-2.2,5.9-3.3,12.1-3.3,18.7v0.5c0,6.6,1.1,12.8,3.4,18.7c2.3,5.9,5.4,11.1,9.5,15.6c4.1,4.5,9,8.1,14.7,10.8
		C244.5,390.9,250.8,392.2,257.7,392.2z"/>
	<path d="M381.7,252.3h77.9c11.4,0,21.8,1.4,31.1,4.3c9.3,2.9,17.3,7,23.9,12.5c6.6,5.5,11.6,12.2,15.2,20.1c3.5,8,5.3,17,5.3,27
		v0.5c0,10.7-1.9,20.2-5.8,28.3c-3.9,8.1-9.3,15-16.2,20.5c-6.9,5.5-15.2,9.7-24.8,12.5c-9.6,2.8-20,4.2-31.3,4.2H432V434h-50.4
		V252.3z M455.9,342.6c9,0,16-2.1,21.2-6.4c5.1-4.3,7.7-10,7.7-17.4v-0.5c0-7.8-2.6-13.8-7.7-17.9c-5.1-4.1-12.2-6.1-21.4-6.1H432
		v48.3H455.9z"/>
	<path d="M556.4,252.3h145.9v42.8H606v27.5h87.2v39.7H606v28.8h97.6V434H556.4V252.3z"/>
	<path d="M729.5,252.3h47.1l74.9,96v-96h49.6V434h-44.2l-77.8-99.7V434h-49.6V252.3z"/>
</g>
<circle class="st3" cx="90.1" cy="84.2" r="30.8"/>
<circle class="st3" cx="980.1" cy="84.2" r="30.8"/>
</svg>
