<svg xmlns="http://www.w3.org/2000/svg" viewBox="0 0 1061.6 603.64"><defs><style>.a{fill:#00244b;}.b{fill:#6691c0;}.c{fill:#004796;}.d{fill:#ebf0f7;}.e{fill:none;stroke:#fff;stroke-linecap:round;stroke-miterlimit:10;stroke-width:18px;}.f{fill:#fff;}.g{fill:#99b5d5;}</style></defs><title>shop sign</title><rect class="a" x="0.37" y="2.89" width="1060.84" height="600.06" rx="27" ry="27" transform="translate(0.42 -0.73) rotate(0.08)"/><path class="b" d="M1061.41,237.53l0.19-209.1a27,27,0,0,0-27-27L27.79,0a27,27,0,0,0-27,27l1.8,210.58Z"/><path class="b" d="M1060.93,512.06L0.08,514.95,0,573a27,27,0,0,0,27,27l1006.84,1.38a27,27,0,0,0,27-27Z"/><path class="c" d="M27.77,19L1034.6,20.38a8,8,0,0,1,8,8l-0.75,546.05a8,8,0,0,1-8,8L27,581.06a8,8,0,0,1-8-8L19.75,27a8,8,0,0,1,8-8h0m0-19a27,27,0,0,0-27,27L0,573a27,27,0,0,0,27,27l1006.84,1.38h0a27,27,0,0,0,27-27l0.75-546.05a27,27,0,0,0-27-27L27.79,0h0Z"/><path class="d" d="M231.73,185.92Q215,203.18,191.35,203.14q-16.93,0-27.74-10.65t-10.79-27.28a69.4,69.4,0,0,1,28.4-55.41q12.67-8.94,24.88-8.92,10.23,0,16.67,6.16t6.43,16a33.44,33.44,0,0,1-7.82,22.1q-7.81,9.34-18.25,9.32a14,14,0,0,1-9-2.83,8.88,8.88,0,0,1-3.52-7.27,10.15,10.15,0,0,1,3-7q2.25,4.17,6.2,4.17,5.64,0,10.48-7a26.77,26.77,0,0,0,4.85-15.44q0-5.85-2.7-9.32a8.73,8.73,0,0,0-7.23-3.47q-6.56,0-14,8.16t-12.44,21a67.58,67.58,0,0,0-5,24.4q0,14.74,8.33,24.21a27.13,27.13,0,0,0,21.25,9.48,28.92,28.92,0,0,0,14.75-3.77q6.57-3.78,13.63-11.85v8.11Z"/><path class="d" d="M295,185.93a23.64,23.64,0,0,1-7,4.47,16,16,0,0,1-5.36,1.3q-5.08,0-10.08-4-10.18,15.36-23.3,15.35A16.39,16.39,0,0,1,236,196.93q-5.07-6.14-5.06-16.3A37.85,37.85,0,0,1,242.42,153a37.09,37.09,0,0,1,27.31-11.5q6,0,8.78,1.32t3.42,3.07a13.28,13.28,0,0,1,.63,4.44q0,13.19-7.24,32.37a11.05,11.05,0,0,0,7.54,3.33q4.73,0,12.14-8.24v8.11Zm-23.22-39.46a8.5,8.5,0,0,0-3-.43q-9.17,0-14.37,9.57T249.16,178q0,7.13,2.24,11.08t6.27,4q5,0,10.88-9.23a28.21,28.21,0,0,1-6.61-17.93Q262,154.64,271.78,146.47Z"/><path class="d" d="M398.84,186.07A120.22,120.22,0,0,1,383.72,199q-6.29,4.29-12.21,4.29a9.15,9.15,0,0,1-7.37-3.22q-2.71-3.21-2.7-8.64,0-7.62,3.84-19.32t3.83-14.24a2,2,0,0,0-2.32-2.26,3.93,3.93,0,0,0-1.69.49,17.43,17.43,0,0,0-2.4,1.41,37,37,0,0,0-2.9,2.39q-1.55,1.41-3.25,3.24t-3.67,4q-3.11,3.66-3.68,6.13l-2.36,10.09L342.55,200l-17.88,3.21,6.88-29.05q0.78-3.17,1.85-9.31a71,71,0,0,0,1.07-7.33q0-2.4-1.62-2.4a3.35,3.35,0,0,0-1.41.49,14.56,14.56,0,0,0-2.4,1.48q-1.55,1.13-3.32,2.68t-4.1,3.87q-2.33,2.32-4.8,5.14a17.42,17.42,0,0,0-4.24,8.88q-1.14,6.07-1.57,10.86t-0.58,10.72l-15.67,3.72q-0.55-8.11-.55-13.54a83.69,83.69,0,0,1,2.71-22.46,144.14,144.14,0,0,1,8.78-22.31l17.08-3.29a159.12,159.12,0,0,0-7.16,22.21q19-22.05,29.09-22a7.17,7.17,0,0,1,6,3,12.61,12.61,0,0,1,2.28,7.87q0,2.26-.72,8.32,11.94-11.9,17.13-15.53t9.57-3.62a7.76,7.76,0,0,1,6.35,3.11,12.3,12.3,0,0,1,2.46,7.9q0,7.55-4.18,19.4T379.4,187.6q0,3.94,2.88,3.95,1.83,0,5.11-2.43T398.85,178v8.11Z"/><path class="d" d="M451.6,186.15q-9,8.81-16.1,13a30.43,30.43,0,0,1-15.74,4.18q-9.59,0-15.48-6.16T398.42,181q0-15,10.41-27t23-12.07q6.56,0,10.51,3.4a11.14,11.14,0,0,1,3.94,8.89q0,14.6-31.07,23.66,2.8,13.76,14.72,13.78a17.18,17.18,0,0,0,8.89-2.49q4.24-2.5,12.78-11.09v8.11ZM414.65,173q18.06-5.05,18.08-18.74,0-6.77-4.93-6.78-4.66,0-8.9,7.08T414.65,173Z"/><path class="d" d="M522.42,186.24q-16.53,17.33-24.71,17.32-4.52,0-7.61-4.63A20.36,20.36,0,0,1,487,187.32q0-15,10.21-41.6L515.15,142H516l-7.08,22.07q-4.39,13.68-4.4,19.53a6.38,6.38,0,0,0,1,3.77,3,3,0,0,0,2.57,1.45,9.44,9.44,0,0,0,5.54-2q2.79-2,8.79-8.7v8.11Zm-1.31-71.81q0,16.93-12.51,16.91a15.45,15.45,0,0,1-10.36-3.68,51.2,51.2,0,0,0,6.37-14q5.57,3.46,9,3.47A12.66,12.66,0,0,0,521.11,114.43Z"/><path class="d" d="M591.69,186.34q-16.32,17.19-28,17.17a9.62,9.62,0,0,1-7.61-3.33q-2.89-3.32-2.88-8.89,0-7.55,6.24-23.06,3.33-8.32,3.33-10.58T561,155.4a5.5,5.5,0,0,0-2.61,1,32.4,32.4,0,0,0-3.46,2.75q-1.77,1.62-4,3.94-1.91,2-4.1,4.51l-4,4.58a14.57,14.57,0,0,0-3.25,6.7,107,107,0,0,0-1.43,11q-0.22,3.74-.23,10.09l-15.59,3.65q-0.76-9.52-.76-14.18a85.12,85.12,0,0,1,2.67-21.51,139.62,139.62,0,0,1,8.53-22.84l17.22-3.29q-5.45,14.59-7.16,23,11.58-12.89,18.38-17.86t12.08-5a7.66,7.66,0,0,1,6,2.72,9.9,9.9,0,0,1,2.38,6.8q0,6.76-6.09,22.28-4.18,10.65-4.18,13.83,0,4.25,3.46,4.25,5.16,0,16.71-13.59v8.11Z"/><path class="d" d="M725.58,186.52a22.33,22.33,0,0,1-6.78,4,17.07,17.07,0,0,1-5.22,1.19,16,16,0,0,1-10.08-4Q690.64,203.69,677,203.67q-10,0-14.3-11-9.47,11-20.4,11-7.13,0-11.21-4.71T627,186a68.33,68.33,0,0,1,2.53-18.05,235.2,235.2,0,0,1,7.68-22.42l18.6-3.43-5.24,15.72Q643.95,178.22,644,186a9.66,9.66,0,0,0,1.76,6,5.36,5.36,0,0,0,4.44,2.33q5.64,0,11.3-8.73a71.84,71.84,0,0,1,4.05-23l5.81-17.06,18.9-3.43-7.94,24.39q-3.83,11.77-3.84,18.62a10.87,10.87,0,0,0,1.83,6.64,5.78,5.78,0,0,0,4.87,2.48,10.89,10.89,0,0,0,7.07-2.74,49.32,49.32,0,0,0,7.5-8.31A29.19,29.19,0,0,1,696,169a33.62,33.62,0,0,1,5.32-18.72q5.3-8.14,11.93-8.13,4.58,0,4.58,6.92,0,14.88-11.54,33.7a10.81,10.81,0,0,0,7.47,3.33q4.73,0,11.86-7.67v8.11Z"/><path class="d" d="M778.27,186.6q-9,8.81-16.1,13a30.43,30.43,0,0,1-15.74,4.18q-9.59,0-15.48-6.16t-5.87-16.16q0-15,10.41-27t23-12.07q6.56,0,10.51,3.4a11.14,11.14,0,0,1,3.94,8.89q0,14.6-31.07,23.66,2.8,13.76,14.72,13.78a17.18,17.18,0,0,0,8.89-2.49q4.24-2.5,12.78-11.09v8.11Zm-36.95-13.1q18.06-5.05,18.08-18.74,0-6.77-4.93-6.78-4.66,0-8.9,7.08T741.33,173.5Z"/><path class="d" d="M798.21,101.34q11.28,5.94,11.26,16.66,0,8.89-7.18,16.14t-21.07,12.1l-1-4.3a63.1,63.1,0,0,0,12-7.92,11.11,11.11,0,0,0,3.93-8.49q0-6.28-7.18-8.83-2.19-.71-2.18-1.48t2.47-3.31A103.62,103.62,0,0,0,798.21,101.34Z"/><path class="d" d="M856.36,186.7Q838.63,204,829,204a9,9,0,0,1-7.26-3.64,13.76,13.76,0,0,1-3-9q0-9.95,10.69-26.65a39.3,39.3,0,0,1-11.43,3.72q-4.6,8.46-14.42,18.18H802v-6.35A92.26,92.26,0,0,0,812,168q-6.06-2.69-6.06-8t3.72-11.6q3.71-6.17,10.2-6.16,5.5,0,5.49,5.65,0,4.44-3.19,12.69,11.71-1.25,20.48-17.89l6.42-.27-6.59,18q-4.11,11.42-5.31,15.55a26.54,26.54,0,0,0-1.21,7.3,7.47,7.47,0,0,0,1.37,4.73,4.45,4.45,0,0,0,3.7,1.77,8,8,0,0,0,4.87-1.72q2.33-1.72,10.45-9.54v8.11Z"/><path class="d" d="M909.12,186.78q-9,8.81-16.1,13a30.43,30.43,0,0,1-15.74,4.18q-9.59,0-15.48-6.16t-5.87-16.16q0-15,10.41-27t23-12.07q6.56,0,10.51,3.4a11.14,11.14,0,0,1,3.94,8.89q0,14.6-31.07,23.66,2.8,13.76,14.72,13.78a17.18,17.18,0,0,0,8.89-2.49q4.24-2.5,12.78-11.09v8.11Zm-36.95-13.1q18.06-5.05,18.08-18.74,0-6.77-4.93-6.78-4.66,0-8.9,7.08T872.18,173.67Z"/><line class="e" x1="98.56" y1="511.53" x2="958.38" y2="512.72"/><path class="f" d="M245.92,462.27A101,101,0,0,1,207,454.82a95.87,95.87,0,0,1-30.86-20.16,92.86,92.86,0,0,1-20.34-29.88,91.33,91.33,0,0,1-7.35-36.61v-0.52a92.6,92.6,0,0,1,28.13-66.8,97.83,97.83,0,0,1,31.18-20.2,106.14,106.14,0,0,1,77.87.11,95.94,95.94,0,0,1,30.86,20.16,92.93,92.93,0,0,1,20.34,29.88,91.34,91.34,0,0,1,7.35,36.61v0.52A92.6,92.6,0,0,1,316,434.72a97.84,97.84,0,0,1-31.18,20.2A101,101,0,0,1,245.92,462.27Zm0.45-45.42a45.5,45.5,0,0,0,19-3.87A43.71,43.71,0,0,0,280,402.48a48.82,48.82,0,0,0,9.39-15.43,51.75,51.75,0,0,0,3.41-18.69v-0.52a51.78,51.78,0,0,0-3.36-18.69,48.08,48.08,0,0,0-9.61-15.59A47.43,47.43,0,0,0,265,322.77a47.28,47.28,0,0,0-37.87-.18,45.25,45.25,0,0,0-24,25.92,53.57,53.57,0,0,0-3.28,18.69v0.52a51.73,51.73,0,0,0,3.36,18.69A49.08,49.08,0,0,0,212.69,402a45.78,45.78,0,0,0,14.69,10.79A44.2,44.2,0,0,0,246.37,416.84Z"/><path class="f" d="M370.51,277.1l77.87,0.11a106.34,106.34,0,0,1,31.14,4.33A68.12,68.12,0,0,1,503.39,294a54.68,54.68,0,0,1,15.16,20.14,65.7,65.7,0,0,1,5.28,27v0.52q0,16.1-5.88,28.28a58,58,0,0,1-16.25,20.48,70.31,70.31,0,0,1-24.81,12.43A112.5,112.5,0,0,1,445.61,407l-24.92,0-0.07,51.92-50.36-.07Zm74.11,90.43q13.49,0,21.16-6.36t7.68-17.35v-0.52q0-11.74-7.63-17.89t-21.41-6.16l-23.62,0-0.07,48.28Z"/><path class="f" d="M545.2,277.34l145.88,0.2L691,320.37l-96.3-.13,0,27.51,87.22,0.12-0.05,39.72-87.22-.12,0,28.81,97.6,0.13-0.06,42.83L544.95,459Z"/><path class="f" d="M718.33,277.58l47.08,0.06,74.78,96.15,0.13-96,49.58,0.07-0.25,181.7-44.22-.06L767.8,359.67l-0.14,99.68-49.58-.07Z"/><circle class="g" cx="90.77" cy="84.32" r="30.82" transform="translate(6.33 174.97) rotate(-89.92)"/><circle class="g" cx="980.77" cy="85.54" r="30.82" transform="translate(893.88 1066.19) rotate(-89.92)"/></svg>