<!-- Generator: Adobe Illustrator 19.2.1, SVG Export Plug-In  -->
<svg version="1.1"
	 xmlns="http://www.w3.org/2000/svg" xmlns:xlink="http://www.w3.org/1999/xlink" xmlns:a="http://ns.adobe.com/AdobeSVGViewerExtensions/3.0/"
	 x="0px" y="0px" width="1060.8px" height="600.1px" viewBox="0 0 1060.8 600.1" style="enable-background:new 0 0 1060.8 600.1;"
	 xml:space="preserve">
<style type="text/css">
	.st0{fill:#FFFFFF;}
	.st1{fill:#004796;}
	.st2{fill:none;stroke:#000000;stroke-width:10;stroke-linecap:round;stroke-miterlimit:10;}
	.st3{fill:#99B5D5;}
</style>
<defs>
</defs>
<path class="st0" d="M1033.8,600.1H27c-14.9,0-27-12.1-27-27V27C0,12.1,12.1,0,27,0h1006.8c14.9,0,27,12.1,27,27v546.1
	C1060.8,588,1048.8,600.1,1033.8,600.1z"/>
<g>
	<path class="st1" d="M1033.8,19c4.4,0,8,3.6,8,8v546.1c0,4.4-3.6,8-8,8H27c-4.4,0-8-3.6-8-8V27c0-4.4,3.6-8,8-8H1033.8 M1033.8,0
		H27C12.1,0,0,12.1,0,27v546.1c0,14.9,12.1,27,27,27h1006.8c14.9,0,27-12.1,27-27V27C1060.8,12.1,1048.8,0,1033.8,0L1033.8,0z"/>
</g>
<line class="st2" x1="100.5" y1="492" x2="960.3" y2="492"/>
<g>
	<path d="M281.5,112.3c0,1.7-2.9,6-8.6,12.8h-1.2c-0.9-0.4-1.5-1.7-1.7-3.9c-0.5-4.6-2.1-8.4-4.8-11.3s-5.9-4.4-9.6-4.4
		c-3.5,0-6.6,1.3-9.1,3.8c-2.5,2.6-3.8,5.6-3.8,9.2c0,2.6,0.8,5.4,2.4,8.3s5.8,7.7,12.5,14.1c6.7,6.4,11.1,11.6,13,15.4
		c1.9,3.8,2.9,7.4,2.9,10.9c0,7.9-3.4,14.9-10.3,21c-6.9,6-15,9.1-24.2,9.1c-7.6,0-13.9-1.8-18.9-5.3c-5-3.5-7.4-6.4-7.4-8.7
		c0-1.2,1.4-4.1,4.1-8.7c2.7-4.5,4.3-6.8,4.7-6.8c1.4,0,2.4,0.4,3,1.2c0.6,0.8,1,2.4,1.2,4.6c0.7,7,2.4,11.8,5.1,14.4
		c2.7,2.6,6.2,3.9,10.5,3.9c4.7,0,8.9-1.6,12.4-4.9c3.5-3.3,5.3-7.1,5.3-11.4c0-2.2-0.7-4.6-2.1-7.1c-1.4-2.5-5.2-6.8-11.6-12.9
		c-6.3-6.1-10.5-11.2-12.5-15.4c-2-4.2-2.9-8.3-2.9-12.2c0-6.9,2.6-13.3,7.8-19.1c5.2-5.8,12.2-8.7,20.8-8.7c6.6,0,12,1.5,16.4,4.5
		C279.4,107.7,281.5,110.2,281.5,112.3z"/>
	<path d="M342.7,180.8c-2.3,2-4.5,3.4-6.6,4.2c-2.1,0.8-3.8,1.2-5.1,1.2c-3.2,0-6.4-1.2-9.6-3.7c-6.4,9.7-13.8,14.6-22.1,14.6
		c-5.2,0-9.4-1.9-12.6-5.8s-4.8-9-4.8-15.5c0-10.2,3.6-18.9,10.8-26.2c7.2-7.3,15.9-10.9,25.9-10.9c3.8,0,6.6,0.4,8.3,1.2
		c1.8,0.8,2.8,1.8,3.2,2.9c0.4,1.1,0.6,2.5,0.6,4.2c0,8.3-2.3,18.6-6.8,30.7c2.3,2.1,4.7,3.1,7.2,3.1c3,0,6.8-2.6,11.5-7.8V180.8z
		 M320.6,143.4c-0.7-0.3-1.6-0.4-2.9-0.4c-5.8,0-10.3,3-13.6,9.1c-3.3,6.1-4.9,13.2-4.9,21.3c0,4.5,0.7,8,2.1,10.5
		c1.4,2.5,3.4,3.7,6,3.7c3.2,0,6.6-2.9,10.3-8.8c-4.2-5.3-6.3-10.9-6.3-17C311.3,154.7,314.4,148.5,320.6,143.4z"/>
	<path d="M392.7,180.8c-11.2,11-19.8,16.5-25.9,16.5c-2.7,0-5-1.1-6.9-3.4c-1.9-2.3-2.8-5.1-2.8-8.5c0-6.3,3.4-14.7,10.1-25.3
		c-3.3,1.7-6.9,2.9-10.8,3.5c-2.9,5.4-7.4,11.1-13.6,17.3h-1.5v-6c3.5-3.6,6.6-7.5,9.4-11.6c-3.8-1.7-5.8-4.2-5.8-7.6
		c0-3.4,1.2-7.1,3.5-11c2.3-3.9,5.6-5.9,9.7-5.9c3.5,0,5.2,1.8,5.2,5.4c0,2.8-1,6.8-3,12c7.4-0.8,13.9-6.5,19.4-17l6.1-0.3
		l-6.2,17.1c-2.6,7.2-4.3,12.1-5,14.8c-0.8,2.6-1.1,4.9-1.1,6.9c0,1.9,0.4,3.4,1.3,4.5c0.9,1.1,2,1.7,3.5,1.7c1.6,0,3.1-0.5,4.6-1.6
		s4.8-4.1,9.9-9.1V180.8z"/>
	<path d="M442.7,180.8c-11.2,11-19.8,16.5-25.9,16.5c-2.7,0-5-1.1-6.9-3.4c-1.9-2.3-2.8-5.1-2.8-8.5c0-6.3,3.4-14.7,10.1-25.3
		c-3.3,1.7-6.9,2.9-10.8,3.5c-2.9,5.4-7.4,11.1-13.6,17.3h-1.5v-6c3.5-3.6,6.6-7.5,9.4-11.6c-3.8-1.7-5.8-4.2-5.8-7.6
		c0-3.4,1.2-7.1,3.5-11c2.3-3.9,5.6-5.9,9.7-5.9c3.5,0,5.2,1.8,5.2,5.4c0,2.8-1,6.8-3,12c7.4-0.8,13.9-6.5,19.4-17l6.1-0.3
		l-6.2,17.1c-2.6,7.2-4.3,12.1-5,14.8c-0.8,2.6-1.1,4.9-1.1,6.9c0,1.9,0.4,3.4,1.3,4.5c0.9,1.1,2,1.7,3.5,1.7c1.6,0,3.1-0.5,4.6-1.6
		s4.8-4.1,9.9-9.1V180.8z"/>
	<path d="M514.1,180.8c-5.7,5.5-14.7,11.1-27.1,16.8c-4.1,11.8-8.8,20.1-14,25c-5.2,4.9-10.6,7.3-16.2,7.3c-2.9,0-5.1-0.9-6.9-2.6
		c-1.7-1.7-2.6-4.1-2.6-7c0-8.8,8-16.7,24.1-23.9l4.1-14.4c-8.4,9.4-15.8,14.1-22.2,14.1c-3.4,0-6.2-1.4-8.3-4.2
		c-2.1-2.8-3.2-6.6-3.2-11.2c0-6.7,1.5-14,4.4-21.7l6.4-17l19.4-3.4l-8.3,19.9c-3.8,9.6-5.7,16.8-5.7,21.7c0,4,1.4,6,4.1,6
		c2.8,0,5.9-2.2,9.5-6.7c3.5-4.5,6.5-9.9,8.9-16.5l7.6-21l18.2-3.4L489,191c10.2-4.7,18.6-10.7,25.1-17.9V180.8z M469.6,203.1
		c-5.5,2.5-9.7,5.2-12.7,8.3s-4.4,6.1-4.4,9c0,3,1.3,4.5,3.8,4.5C461.2,224.8,465.7,217.6,469.6,203.1z"/>
	<path d="M532.5,176.1c3.7,2.3,6.5,4.6,8.2,7.1c1.7,2.4,2.6,5.3,2.6,8.7c0,5.5-2.2,10.5-6.7,15.1c-4.5,4.6-11,8.5-19.6,11.6
		l-1.4-4.1c5-2.7,8.7-5.1,11.2-7.4c2.5-2.3,3.8-4.9,3.8-8c0-3.9-2.2-6.7-6.7-8.5c-1.6-0.5-2.3-1.1-2.3-1.6c0-0.4,0.9-1.5,2.8-3.2
		C526.3,184.1,529,180.8,532.5,176.1z"/>
	<path d="M674,180.8c-2.1,1.8-4.3,3.1-6.4,3.8c-2.1,0.8-3.8,1.1-4.9,1.1c-3.3,0-6.4-1.2-9.6-3.7c-8.1,10.1-16.5,15.1-25.1,15.1
		c-6.3,0-10.9-3.5-13.6-10.4c-6,7-12.4,10.4-19.3,10.4c-4.5,0-8-1.5-10.6-4.4c-2.6-3-3.9-7.1-3.9-12.3c0-5.6,0.8-11.3,2.4-17.1
		c1.6-5.8,4-12.9,7.3-21.3l17.6-3.3l-5,14.9c-4.2,12.9-6.3,21.8-6.3,26.8c0,2.3,0.6,4.2,1.7,5.7c1.1,1.5,2.5,2.2,4.2,2.2
		c3.6,0,7.1-2.8,10.7-8.3c0-7,1.3-14.3,3.8-21.8l5.5-16.2l17.9-3.3l-7.5,23.1c-2.4,7.4-3.6,13.3-3.6,17.7c0,2.6,0.6,4.7,1.7,6.3
		s2.7,2.3,4.6,2.3c2.4,0,4.6-0.9,6.7-2.6c2.1-1.7,4.5-4.4,7.1-7.9c-2.4-4.3-3.5-8.8-3.5-13.4c0-6.7,1.7-12.6,5-17.8
		c3.3-5.2,7.1-7.7,11.3-7.7c2.9,0,4.3,2.2,4.3,6.6c0,9.4-3.6,20.1-10.9,32c2.2,2.1,4.6,3.1,7.1,3.1c3,0,6.7-2.4,11.2-7.3V180.8z"/>
	<path d="M724,180.8c-5.7,5.6-10.7,9.7-15.3,12.3c-4.5,2.7-9.5,4-14.9,4c-6.1,0-11-1.9-14.7-5.8c-3.7-3.9-5.6-9-5.6-15.3
		c0-9.5,3.3-18,9.8-25.7c6.6-7.6,13.8-11.5,21.8-11.5c4.1,0,7.5,1.1,10,3.2c2.5,2.1,3.7,5,3.7,8.4c0,9.2-9.8,16.7-29.4,22.5
		c1.8,8.7,6.4,13,14,13c2.9,0,5.8-0.8,8.4-2.4s6.7-5.1,12.1-10.5V180.8z M688.9,168.4c11.4-3.2,17.1-9.1,17.1-17.8
		c0-4.3-1.6-6.4-4.7-6.4c-2.9,0-5.8,2.2-8.4,6.7C690.3,155.4,688.9,161.2,688.9,168.4z"/>
	<path d="M742.8,99.9c7.1,3.7,10.7,9,10.7,15.8c0,5.6-2.3,10.7-6.8,15.3c-4.5,4.6-11.2,8.4-20,11.5l-0.9-4.1
		c5.1-2.8,8.9-5.3,11.3-7.5c2.5-2.3,3.7-4.9,3.7-8.1c0-4-2.3-6.8-6.8-8.4c-1.4-0.4-2.1-0.9-2.1-1.4c0-0.4,0.8-1.4,2.3-3.1
		C738.2,105.7,741,102.4,742.8,99.9z"/>
	<path d="M798,180.8c-11.2,11-19.8,16.5-25.9,16.5c-2.7,0-5-1.1-6.9-3.4c-1.9-2.3-2.8-5.1-2.8-8.5c0-6.3,3.4-14.7,10.1-25.3
		c-3.3,1.7-6.9,2.9-10.8,3.5c-2.9,5.4-7.4,11.1-13.6,17.3h-1.5v-6c3.5-3.6,6.6-7.5,9.4-11.6c-3.8-1.7-5.8-4.2-5.8-7.6
		c0-3.4,1.2-7.1,3.5-11c2.3-3.9,5.6-5.9,9.7-5.9c3.5,0,5.2,1.8,5.2,5.4c0,2.8-1,6.8-3,12c7.4-0.8,13.9-6.5,19.4-17l6.1-0.3
		l-6.2,17.1c-2.6,7.2-4.3,12.1-5,14.8c-0.8,2.6-1.1,4.9-1.1,6.9c0,1.9,0.4,3.4,1.3,4.5c0.9,1.1,2,1.7,3.5,1.7c1.6,0,3.1-0.5,4.6-1.6
		s4.8-4.1,9.9-9.1V180.8z"/>
	<path d="M848.1,180.8c-5.7,5.6-10.7,9.7-15.3,12.3c-4.5,2.7-9.5,4-14.9,4c-6.1,0-11-1.9-14.7-5.8c-3.7-3.9-5.6-9-5.6-15.3
		c0-9.5,3.3-18,9.8-25.7c6.6-7.6,13.8-11.5,21.8-11.5c4.1,0,7.5,1.1,10,3.2c2.5,2.1,3.7,5,3.7,8.4c0,9.2-9.8,16.7-29.4,22.5
		c1.8,8.7,6.4,13,14,13c2.9,0,5.8-0.8,8.4-2.4s6.7-5.1,12.1-10.5V180.8z M813,168.4c11.4-3.2,17.1-9.1,17.1-17.8
		c0-4.3-1.6-6.4-4.7-6.4c-2.9,0-5.8,2.2-8.4,6.7C814.4,155.4,813,161.2,813,168.4z"/>
</g>
<g>
	<path d="M219.1,427.8c-9,0-17.4-1.6-25.4-4.9c-7.9-3.2-14.8-7.8-20.6-13.6c-5.8-5.8-10.4-12.7-13.8-20.7c-3.4-8-5.1-16.6-5.1-26
		v-0.4c0-9.1,1.7-17.6,5-25.6c3.4-8,8-14.9,13.8-20.9c5.9-5.9,12.9-10.6,20.9-13.9c8.1-3.4,16.9-5,26.5-5c6.5,0,12.3,0.6,17.6,1.9
		c5.3,1.3,10.1,3.1,14.5,5.4c4.4,2.3,8.3,5.1,11.9,8.4c3.5,3.2,6.7,6.8,9.4,10.6l-26.3,20.3c-3.6-4.6-7.6-8.1-11.9-10.8
		c-4.3-2.6-9.5-4-15.6-4c-4.4,0-8.5,0.9-12.1,2.6c-3.7,1.7-6.8,4.1-9.4,7.1c-2.6,3-4.7,6.5-6.2,10.6c-1.5,4.1-2.2,8.4-2.2,12.9v0.4
		c0,4.7,0.7,9.1,2.2,13.2c1.5,4.1,3.6,7.7,6.2,10.7c2.6,3,5.8,5.4,9.4,7.1c3.7,1.7,7.7,2.6,12.1,2.6c3.2,0,6.2-0.4,8.9-1.1
		c2.7-0.7,5.2-1.8,7.4-3.1c2.2-1.4,4.3-3,6.3-4.9c2-1.9,3.9-3.9,5.8-6.2l26.3,18.7c-3,4.1-6.3,7.9-9.8,11.3c-3.5,3.5-7.6,6.5-12,9
		c-4.5,2.5-9.5,4.5-15.1,5.9C232.3,427.1,226.1,427.8,219.1,427.8z"/>
	<path d="M289.8,299.4h34.9v95.3h60.9v30.6h-95.8V299.4z"/>
	<path d="M463.8,427.8c-9.7,0-18.7-1.7-27-5.1c-8.3-3.4-15.4-8.1-21.4-13.9c-6-5.9-10.7-12.8-14.1-20.7c-3.4-7.9-5.1-16.4-5.1-25.4
		v-0.4c0-9,1.7-17.5,5.1-25.4c3.4-8,8.2-14.9,14.3-20.9c6.1-5.9,13.3-10.6,21.6-14c8.3-3.4,17.3-5.1,27-5.1c9.7,0,18.7,1.7,27,5.1
		c8.3,3.4,15.4,8.1,21.4,13.9c6,5.9,10.7,12.8,14.1,20.7c3.4,7.9,5.1,16.4,5.1,25.4v0.4c0,9-1.7,17.5-5.1,25.4
		c-3.4,8-8.2,14.9-14.3,20.9c-6.1,5.9-13.3,10.6-21.6,14C482.5,426.1,473.5,427.8,463.8,427.8z M464.1,396.4c4.8,0,9.2-0.9,13.2-2.7
		c4-1.8,7.3-4.2,10.1-7.3c2.8-3.1,4.9-6.6,6.5-10.7c1.6-4.1,2.3-8.4,2.3-12.9v-0.4c0-4.6-0.8-8.9-2.3-12.9
		c-1.6-4.1-3.8-7.7-6.7-10.8c-2.9-3.1-6.3-5.6-10.3-7.5c-4-1.9-8.4-2.8-13.2-2.8c-4.8,0-9.2,0.9-13.1,2.7c-3.9,1.8-7.3,4.2-10.1,7.3
		c-2.8,3.1-5,6.6-6.5,10.7c-1.5,4.1-2.3,8.4-2.3,12.9v0.4c0,4.6,0.8,8.9,2.3,12.9c1.6,4.1,3.8,7.7,6.6,10.8
		c2.8,3.1,6.2,5.6,10.2,7.5C454.9,395.4,459.3,396.4,464.1,396.4z"/>
	<path d="M599.4,427.5c-11.3,0-22-1.7-32.1-5.2c-10.1-3.5-19.1-8.7-26.9-15.7l19.4-23.2c12.6,10.1,26.2,15.1,40.8,15.1
		c4.7,0,8.2-0.7,10.7-2.2c2.5-1.5,3.7-3.6,3.7-6.4v-0.4c0-1.3-0.3-2.5-0.9-3.5c-0.6-1-1.7-2-3.3-3c-1.6-1-3.8-1.9-6.5-2.8
		c-2.7-0.9-6.2-1.8-10.5-2.8c-6.7-1.6-12.9-3.3-18.7-5.1c-5.8-1.9-10.8-4.2-15-7.2c-4.3-2.9-7.6-6.6-10.1-10.9
		c-2.5-4.4-3.7-9.8-3.7-16.2v-0.4c0-5.9,1.1-11.2,3.3-16.2c2.2-4.9,5.5-9.2,9.7-12.7c4.3-3.6,9.4-6.4,15.4-8.3c6-2,12.8-3,20.3-3
		c10.8,0,20.4,1.4,28.9,4.3c8.5,2.8,16.1,7,22.9,12.6l-17.4,24.7c-5.8-4.1-11.7-7.2-17.7-9.3c-6.1-2.1-11.9-3.1-17.5-3.1
		c-4.2,0-7.3,0.8-9.4,2.3c-2.1,1.6-3.1,3.5-3.1,5.7v0.4c0,1.4,0.3,2.7,1,3.8c0.7,1.1,1.8,2.1,3.4,3c1.6,0.9,3.8,1.8,6.7,2.7
		c2.8,0.9,6.4,1.8,10.7,2.8c7.2,1.6,13.7,3.4,19.5,5.5c5.8,2.1,10.8,4.6,14.8,7.6c4.1,3,7.2,6.6,9.3,10.9c2.2,4.2,3.2,9.3,3.2,15.2
		v0.4c0,6.5-1.2,12.2-3.7,17.2c-2.5,5-5.9,9.3-10.3,12.8c-4.4,3.5-9.8,6.2-16,8.1C614,426.5,607,427.5,599.4,427.5z"/>
	<path d="M667.2,299.4h101v29.7h-66.7v19.1h60.4v27.5h-60.4v20h67.6v29.7H667.2V299.4z"/>
	<path d="M787.1,299.4h48.5c11.3,0,21.3,1.5,30.1,4.6c8.8,3.1,16.2,7.3,22.3,12.9c6.1,5.5,10.7,12.1,13.8,19.7
		c3.2,7.6,4.8,16,4.8,25.1v0.4c0,9.1-1.6,17.5-4.9,25.3c-3.2,7.7-7.9,14.4-14,20c-6.1,5.6-13.6,10-22.6,13.2
		c-8.9,3.2-19,4.8-30.3,4.8h-47.8V299.4z M836.2,394.4c10.5,0,18.9-2.8,25.3-8.3c6.4-5.5,9.6-13.4,9.6-23.6v-0.4
		c0-10.1-3.2-17.9-9.6-23.5c-6.4-5.6-14.8-8.4-25.3-8.4H822v64H836.2z"/>
</g>
<circle class="st3" cx="87.2" cy="84.2" r="30.8"/>
<circle class="st3" cx="977.2" cy="84.2" r="30.8"/>
</svg>
