<svg xmlns="http://www.w3.org/2000/svg" viewBox="0 0 1060.84 600.06"><defs><style>.cls-1{fill:#e2e1e1;}.cls-2{fill:#b2b2b2;}.cls-3{fill:#003571;}.cls-4{fill:none;stroke:#4d4545;stroke-linecap:round;stroke-miterlimit:10;stroke-width:10px;}.cls-5{fill:#393434;}.cls-6{fill:#4d4b45;}.cls-7{fill:#7388a0;}</style></defs><title>Sign</title><g id="CLOSED"><rect class="cls-1" width="1060.84" height="600.06" rx="36.82" ry="36.82"/><path class="cls-2" d="M1024,0H952.46c35.71,48.09,55.6,101.49,55.6,157.72,0,211.27-280.67,382.54-626.89,382.54-143.4,0-275.55-29.38-381.17-78.81V563.24a36.82,36.82,0,0,0,36.82,36.82H1024a36.82,36.82,0,0,0,36.82-36.82V36.82A36.82,36.82,0,0,0,1024,0Z"/><path class="cls-3" d="M1033.84,19a8,8,0,0,1,8,8V573.06a8,8,0,0,1-8,8H27a8,8,0,0,1-8-8V27a8,8,0,0,1,8-8H1033.84m0-19H27A27,27,0,0,0,0,27V573.06a27,27,0,0,0,27,27H1033.84a27,27,0,0,0,27-27V27a27,27,0,0,0-27-27Z"/><line class="cls-4" x1="100.51" y1="492.05" x2="960.33" y2="492.05"/><path class="cls-5" d="M281.54,112.25q0,2.61-8.63,12.84h-1.2q-1.34-.53-1.67-3.95a19.2,19.2,0,0,0-4.75-11.27,12.61,12.61,0,0,0-9.63-4.38,12.38,12.38,0,0,0-9.1,3.84,12.59,12.59,0,0,0-3.81,9.19,17.51,17.51,0,0,0,2.42,8.32q2.42,4.44,12.54,14.09t13,15.37a24.25,24.25,0,0,1,2.88,10.87q0,11.91-10.33,21a35.52,35.52,0,0,1-24.18,9.06q-11.44,0-18.86-5.32t-7.42-8.66q0-1.87,4.08-8.7t4.68-6.82a3.52,3.52,0,0,1,3,1.24,10,10,0,0,1,1.24,4.58q1,10.44,5.05,14.38a14.45,14.45,0,0,0,10.54,3.95,17.6,17.6,0,0,0,12.38-4.91A14.33,14.33,0,0,0,257,168.43q-2.05-3.78-11.57-12.85T233,140.21A28.76,28.76,0,0,1,230,128q0-10.37,7.83-19.07t20.8-8.7q9.83,0,16.36,4.51T281.54,112.25Z"/><path class="cls-5" d="M342.68,180.75a22.43,22.43,0,0,1-6.62,4.25,15.18,15.18,0,0,1-5.08,1.24,15.39,15.39,0,0,1-9.57-3.75q-9.63,14.59-22.08,14.58a15.54,15.54,0,0,1-12.58-5.82q-4.82-5.82-4.82-15.45a35.89,35.89,0,0,1,10.84-26.19,35.17,35.17,0,0,1,25.89-10.94q5.69,0,8.33,1.24t3.24,2.91a12.59,12.59,0,0,1,.6,4.21q0,12.51-6.82,30.7a10.48,10.48,0,0,0,7.16,3.14q4.48,0,11.51-7.83Zm-22.08-37.39a8.06,8.06,0,0,0-2.88-.4q-8.7,0-13.61,9.1t-4.92,21.27q0,6.76,2.14,10.5a6.59,6.59,0,0,0,6,3.75q4.75,0,10.3-8.76a26.75,26.75,0,0,1-6.29-17Q311.31,151.12,320.61,143.36Z"/><path class="cls-5" d="M392.65,180.75q-16.79,16.46-25.89,16.46a8.58,8.58,0,0,1-6.89-3.44,13.05,13.05,0,0,1-2.81-8.53q0-9.43,10.1-25.29a37.25,37.25,0,0,1-10.84,3.54q-4.35,8-13.65,17.26h-1.54v-6a87.41,87.41,0,0,0,9.43-11.64q-5.75-2.54-5.75-7.56a21.57,21.57,0,0,1,3.51-11q3.51-5.85,9.67-5.85,5.22,0,5.22,5.35,0,4.21-3,12,11.1-1.2,19.4-17l6.09-.27-6.22,17.13q-3.88,10.84-5,14.75a25.18,25.18,0,0,0-1.14,6.92,7.1,7.1,0,0,0,1.3,4.48,4.22,4.22,0,0,0,3.51,1.67,7.64,7.64,0,0,0,4.62-1.64q2.21-1.64,9.9-9.06Z"/><path class="cls-5" d="M442.69,180.75q-16.79,16.46-25.89,16.46a8.58,8.58,0,0,1-6.89-3.44,13.05,13.05,0,0,1-2.81-8.53q0-9.43,10.1-25.29a37.25,37.25,0,0,1-10.84,3.54q-4.35,8-13.65,17.26h-1.54v-6a87.41,87.41,0,0,0,9.43-11.64q-5.75-2.54-5.75-7.56a21.57,21.57,0,0,1,3.51-11q3.51-5.85,9.67-5.85,5.22,0,5.22,5.35,0,4.21-3,12,11.1-1.2,19.4-17l6.09-.27-6.22,17.13q-3.88,10.84-5,14.75a25.18,25.18,0,0,0-1.14,6.92,7.1,7.1,0,0,0,1.3,4.48,4.22,4.22,0,0,0,3.51,1.67,7.64,7.64,0,0,0,4.62-1.64q2.21-1.64,9.9-9.06Z"/><path class="cls-5" d="M514.13,180.75Q505.64,189,487,197.6q-6.22,17.66-14,25t-16.19,7.33a9.21,9.21,0,0,1-6.86-2.61,9.47,9.47,0,0,1-2.58-7q0-13.18,24.15-23.88l4.08-14.38Q463,196.2,453.39,196.2a10,10,0,0,1-8.33-4.21q-3.18-4.22-3.18-11.24a61.13,61.13,0,0,1,4.4-21.67l6.41-17,19.42-3.4-8.33,19.86q-5.73,14.37-5.71,21.67,0,6,4.08,6t9.47-6.69a59.25,59.25,0,0,0,8.93-16.46l7.63-21,18.24-3.41L489,191a75.37,75.37,0,0,0,25.11-17.93Zm-44.55,22.34q-8.23,3.68-12.68,8.26t-4.45,9q0,4.48,3.81,4.48Q463.7,224.83,469.58,203.09Z"/><path class="cls-5" d="M532.46,176.07a27.52,27.52,0,0,1,8.23,7.06,14.61,14.61,0,0,1,2.61,8.73q0,8.23-6.69,15.12T517,218.55l-1.41-4.08a61.37,61.37,0,0,0,11.24-7.39,10.35,10.35,0,0,0,3.81-8q0-5.82-6.69-8.5-2.34-.8-2.34-1.61t2.81-3.21A69.94,69.94,0,0,0,532.46,176.07Z"/><path class="cls-5" d="M674,180.75a21.17,21.17,0,0,1-6.42,3.81,16.19,16.19,0,0,1-4.95,1.14,15.2,15.2,0,0,1-9.57-3.75Q640.9,197.07,628,197.07q-9.5,0-13.58-10.44-9,10.44-19.33,10.44-6.76,0-10.64-4.45t-3.88-12.28a64.79,64.79,0,0,1,2.38-17.12A223,223,0,0,1,590.19,142l17.64-3.27-5,14.91q-6.29,19.39-6.26,26.75a9.16,9.16,0,0,0,1.67,5.69,5.09,5.09,0,0,0,4.21,2.21q5.35,0,10.7-8.29A68.16,68.16,0,0,1,617,158.14L622.5,142l17.92-3.28-7.5,23.14q-3.62,11.17-3.61,17.66a10.31,10.31,0,0,0,1.74,6.29,5.48,5.48,0,0,0,4.62,2.34,10.33,10.33,0,0,0,6.7-2.61,46.77,46.77,0,0,0,7.1-7.89,27.68,27.68,0,0,1-3.55-13.45,31.88,31.88,0,0,1,5-17.76q5-7.73,11.3-7.73,4.35,0,4.35,6.56,0,14.12-10.9,32a10.24,10.24,0,0,0,7.09,3.14q4.48,0,11.24-7.29Z"/><path class="cls-5" d="M724,180.75a82.62,82.62,0,0,1-15.25,12.34,28.86,28.86,0,0,1-14.92,4q-9.1,0-14.68-5.82t-5.59-15.32q0-14.18,9.83-25.65t21.81-11.47q6.22,0,10,3.21a10.56,10.56,0,0,1,3.75,8.43q0,13.85-29.43,22.48,2.67,13,14,13a16.3,16.3,0,0,0,8.43-2.37q4-2.37,12.11-10.54Zm-35.05-12.38q17.12-4.82,17.13-17.79,0-6.42-4.68-6.42-4.42,0-8.43,6.72T688.93,168.37Z"/><path class="cls-5" d="M742.78,99.87q10.7,5.62,10.7,15.79,0,8.43-6.79,15.32t-20,11.51l-.94-4.08a59.86,59.86,0,0,0,11.34-7.53,10.54,10.54,0,0,0,3.71-8.06q0-6-6.82-8.36-2.07-.67-2.07-1.4t2.34-3.14A98.42,98.42,0,0,0,742.78,99.87Z"/><path class="cls-5" d="M798,180.75q-16.79,16.46-25.89,16.46a8.58,8.58,0,0,1-6.89-3.44,13.05,13.05,0,0,1-2.81-8.53q0-9.43,10.1-25.29a37.25,37.25,0,0,1-10.84,3.54q-4.35,8-13.65,17.26h-1.54v-6A87.41,87.41,0,0,0,756,163.09q-5.75-2.54-5.75-7.56a21.57,21.57,0,0,1,3.51-11q3.51-5.85,9.67-5.85,5.22,0,5.22,5.35,0,4.21-3,12,11.1-1.2,19.4-17l6.09-.27-6.22,17.13q-3.88,10.84-5,14.75a25.18,25.18,0,0,0-1.14,6.92,7.1,7.1,0,0,0,1.3,4.48,4.22,4.22,0,0,0,3.51,1.67,7.64,7.64,0,0,0,4.62-1.64q2.21-1.64,9.9-9.06Z"/><path class="cls-5" d="M848.07,180.75a82.62,82.62,0,0,1-15.25,12.34,28.86,28.86,0,0,1-14.92,4q-9.1,0-14.68-5.82t-5.59-15.32q0-14.18,9.83-25.65t21.81-11.47q6.22,0,10,3.21a10.56,10.56,0,0,1,3.75,8.43q0,13.85-29.43,22.48,2.67,13,14,13a16.3,16.3,0,0,0,8.43-2.37q4-2.37,12.11-10.54ZM813,168.37q17.12-4.82,17.13-17.79,0-6.42-4.68-6.42-4.42,0-8.43,6.72T813,168.37Z"/><path class="cls-6" d="M219.11,427.82A66.31,66.31,0,0,1,193.76,423a61.9,61.9,0,0,1-20.59-13.57,65.4,65.4,0,0,1-19-46.66v-.36a65.65,65.65,0,0,1,18.88-46.48A63.15,63.15,0,0,1,194,302a68.57,68.57,0,0,1,26.52-5,76,76,0,0,1,17.62,1.89,60.29,60.29,0,0,1,14.47,5.39,58,58,0,0,1,11.87,8.36,69.09,69.09,0,0,1,9.44,10.61L247.7,343.5a45.39,45.39,0,0,0-11.87-10.79,29.46,29.46,0,0,0-15.64-4,27.92,27.92,0,0,0-12.14,2.61,29,29,0,0,0-9.44,7.1,33.21,33.21,0,0,0-6.2,10.61A37.19,37.19,0,0,0,190.16,362v.36a38.46,38.46,0,0,0,2.25,13.21,33,33,0,0,0,6.2,10.7,29,29,0,0,0,9.44,7.1A27.88,27.88,0,0,0,220.19,396a34.5,34.5,0,0,0,8.9-1.08,27.07,27.07,0,0,0,7.37-3.15,40,40,0,0,0,6.29-4.85,73.12,73.12,0,0,0,5.84-6.2l26.25,18.7a93.79,93.79,0,0,1-9.8,11.33,56.33,56.33,0,0,1-12,9,63,63,0,0,1-15.1,5.93A75.32,75.32,0,0,1,219.11,427.82Z"/><path class="cls-6" d="M289.77,299.45h34.88v95.29H385.6V425.3H289.77Z"/><path class="cls-6" d="M463.81,427.82a70,70,0,0,1-27-5.12,66.4,66.4,0,0,1-21.4-13.93,64.32,64.32,0,0,1-14.11-20.68,63.26,63.26,0,0,1-5.12-25.35v-.36a64.14,64.14,0,0,1,19.42-46.3,67.76,67.76,0,0,1,21.58-14,73.52,73.52,0,0,1,53.94,0A66.45,66.45,0,0,1,512.53,316a64.37,64.37,0,0,1,14.11,20.68A63.27,63.27,0,0,1,531.77,362v.36a64.14,64.14,0,0,1-19.42,46.3,67.77,67.77,0,0,1-21.58,14A70,70,0,0,1,463.81,427.82Zm.27-31.46a31.51,31.51,0,0,0,13.16-2.7,30.28,30.28,0,0,0,10.1-7.28,33.82,33.82,0,0,0,6.49-10.7,35.85,35.85,0,0,0,2.35-12.95v-.36a35.87,35.87,0,0,0-2.35-12.95,33.3,33.3,0,0,0-6.67-10.79,32.85,32.85,0,0,0-10.28-7.46,32.75,32.75,0,0,0-26.23-.09,31.34,31.34,0,0,0-16.59,18A37.11,37.11,0,0,0,431.81,362v.36a35.83,35.83,0,0,0,2.34,12.95,34,34,0,0,0,6.58,10.79,31.71,31.71,0,0,0,10.19,7.46A30.62,30.62,0,0,0,464.08,396.36Z"/><path class="cls-6" d="M599.37,427.46a97.68,97.68,0,0,1-32.09-5.24,77.77,77.77,0,0,1-26.88-15.74l19.42-23.24q18.88,15.1,40.81,15.1,7,0,10.7-2.24a7.08,7.08,0,0,0,3.69-6.37v-.36a6.78,6.78,0,0,0-.9-3.5,9.18,9.18,0,0,0-3.33-3,34.34,34.34,0,0,0-6.47-2.78q-4-1.35-10.52-2.78-10.07-2.33-18.7-5.11a57.18,57.18,0,0,1-15-7.18A32.5,32.5,0,0,1,550,354.09q-3.69-6.55-3.69-16.24v-.36a38.74,38.74,0,0,1,3.33-16.15,35.81,35.81,0,0,1,9.71-12.74,45.68,45.68,0,0,1,15.37-8.35,64.86,64.86,0,0,1,20.32-3,90.54,90.54,0,0,1,28.86,4.25,72.78,72.78,0,0,1,22.92,12.57L629.4,338.82a70.82,70.82,0,0,0-17.71-9.26,53.47,53.47,0,0,0-17.53-3.15q-6.3,0-9.44,2.33a6.94,6.94,0,0,0-3.15,5.74v.36a7.06,7.06,0,0,0,1,3.77,9,9,0,0,0,3.42,3,37.42,37.42,0,0,0,6.65,2.69q4.22,1.35,10.7,2.78a154.05,154.05,0,0,1,19.51,5.47,58.4,58.4,0,0,1,14.83,7.63A30.52,30.52,0,0,1,647,371a33.11,33.11,0,0,1,3.24,15.16v.36a38.76,38.76,0,0,1-3.69,17.23,37,37,0,0,1-10.34,12.83,46.78,46.78,0,0,1-16,8.08A73,73,0,0,1,599.37,427.46Z"/><path class="cls-6" d="M667.16,299.45h101v29.67H701.5v19.06h60.41v27.51H701.5v20h67.6V425.3H667.16Z"/><path class="cls-6" d="M787.08,299.45h48.55A91.63,91.63,0,0,1,865.74,304,63.62,63.62,0,0,1,888,316.89a55,55,0,0,1,13.84,19.69,64.54,64.54,0,0,1,4.76,25.08V362a64.76,64.76,0,0,1-4.85,25.26,56.73,56.73,0,0,1-14,20,64.87,64.87,0,0,1-22.56,13.21,90,90,0,0,1-30.3,4.77H787.08Zm49.14,94.93q15.7,0,25.26-8.27T871,362.55v-.36q0-15.1-9.56-23.46t-25.26-8.36H822v64Z"/><circle class="cls-7" cx="87.24" cy="84.23" r="30.82"/><circle class="cls-7" cx="977.24" cy="84.23" r="30.82"/></g></svg>