<svg xmlns="http://www.w3.org/2000/svg" viewBox="0 0 905.36 421.26"><defs><style>.cls-1{fill:#a57d56;}.cls-2{fill:#c9b19a;}</style></defs><title>Sign</title><g id="STRING"><path class="cls-1" d="M903.06,405.58a9.49,9.49,0,0,1-14.57,2.91L433.6,23.94,14.94,316a9.5,9.5,0,0,1-12.65-1.61,9.5,9.5,0,0,0,13.88,12.14L434.83,34.47,889.73,419a9.49,9.49,0,0,0,13.34-13.43Z"/><path class="cls-2" d="M894.62,410.73a9.46,9.46,0,0,1-6.13-2.25L433.6,23.94,14.94,316A9.5,9.5,0,0,1,4.07,300.41L434.71,0l466,394a9.5,9.5,0,0,1-6.14,16.75Z"/></g></svg>