<svg id="icons" xmlns="http://www.w3.org/2000/svg" viewBox="0 0 62.29 62.36"><defs><style>.cls-1,.cls-8{fill:#f90;}.cls-2,.cls-5{fill:#fc0;}.cls-3,.cls-7{fill:#009957;}.cls-4,.cls-6{fill:#46c4db;}.cls-5{stroke:#fc0;}.cls-5,.cls-6,.cls-7,.cls-8{stroke-miterlimit:10;stroke-width:0.37px;}.cls-6{stroke:#46c4db;}.cls-7{stroke:#009957;}.cls-8{stroke:#f90;}.cls-9{fill:#fff;}</style></defs><rect class="cls-1" x="19.36" y="45.31" width="13.58" height="13.58"/><rect class="cls-2" x="4" y="19.39" width="13.58" height="13.58"/><rect class="cls-3" x="29.89" y="3.84" width="13.58" height="13.58"/><rect class="cls-4" x="44.88" y="31.51" width="13.16" height="11.2"/><path class="cls-4" d="M1138.61,631v31.15A31.15,31.15,0,0,0,1169.76,631Zm18.48,10a3.6,3.6,0,0,1-2.24-6.42c.57-.9,1-2.17,0-3a4.19,4.19,0,0,0-2.49-.51h9.49a4.2,4.2,0,0,0-2.5.51c-1.06.84-.58,2.11,0,3a3.6,3.6,0,0,1-2.23,6.42Z" transform="translate(-1107.46 -599.84)"/><path class="cls-3" d="M1138.61,631h31.15a31.15,31.15,0,0,0-31.15-31.15Zm10-18.48a3.6,3.6,0,0,1-6.42,2.24c-.9-.57-2.17-1-3,0a4.19,4.19,0,0,0-.51,2.49v-9.49a4.2,4.2,0,0,0,.51,2.5c.84,1.06,2.11.58,3,0a3.6,3.6,0,0,1,6.42,2.23Z" transform="translate(-1107.46 -599.84)"/><path class="cls-5" d="M1145,604a3.6,3.6,0,1,1,0,7.2,4.27,4.27,0,0,1-2.82-1.37,2,2,0,0,0-3,0,4.19,4.19,0,0,0-.51,2.49v-9.49a4.2,4.2,0,0,0,.51,2.5,2,2,0,0,0,3,0A4.27,4.27,0,0,1,1145,604Z" transform="translate(-1107.46 -599.84)"/><path class="cls-2" d="M1138.61,631V599.87A31.15,31.15,0,0,0,1107.46,631Zm-18.48-10a3.6,3.6,0,0,1,2.24,6.42c-.57.9-1,2.17,0,3a4.19,4.19,0,0,0,2.49.51h-9.49a4.2,4.2,0,0,0,2.5-.51c1.06-.84.58-2.11,0-3a3.6,3.6,0,0,1,2.23-6.42Z" transform="translate(-1107.46 -599.84)"/><path class="cls-1" d="M1138.61,631h-31.15a31.15,31.15,0,0,0,31.15,31.15Zm-10,18.48a3.6,3.6,0,0,1,6.42-2.24c.9.57,2.17,1,3,0a4.19,4.19,0,0,0,.51-2.49v9.49a4.2,4.2,0,0,0-.51-2.5c-.84-1.06-2.11-.58-3,0a3.6,3.6,0,0,1-6.42-2.23Z" transform="translate(-1107.46 -599.84)"/><path class="cls-6" d="M1132.24,658a3.6,3.6,0,1,1,0-7.2,4.27,4.27,0,0,1,2.82,1.37,2,2,0,0,0,3,0,4.19,4.19,0,0,0,.51-2.49v9.49a4.2,4.2,0,0,0-.51-2.5,2,2,0,0,0-3,0A4.27,4.27,0,0,1,1132.24,658Z" transform="translate(-1107.46 -599.84)"/><path class="cls-7" d="M1164.2,634.53a3.6,3.6,0,1,1-4.47,0c.57-.9,1-2.17,0-3a4.19,4.19,0,0,0-2.49-.51h9.49a4.2,4.2,0,0,0-2.5.51C1163.16,632.36,1163.64,633.63,1164.2,634.53Z" transform="translate(-1107.46 -599.84)"/><path class="cls-8" d="M1112.25,624.64a3.6,3.6,0,1,1,7.2,0,4.27,4.27,0,0,1-1.37,2.82,2,2,0,0,0,0,3,4.19,4.19,0,0,0,2.49.51h-9.49a4.2,4.2,0,0,0,2.5-.51,2,2,0,0,0,0-3A4.27,4.27,0,0,1,1112.25,624.64Z" transform="translate(-1107.46 -599.84)"/><rect class="cls-1" y="30.98" width="31.12" height="1.06"/><rect class="cls-4" x="30.87" y="30.98" width="0.72" height="31.38"/><rect class="cls-2" x="30.87" width="0.72" height="30.98"/><rect class="cls-3" x="31.59" y="30.02" width="30.69" height="1.49"/><circle class="cls-9" cx="31.15" cy="31.18" r="15.25"/></svg>