<svg id="icons" xmlns="http://www.w3.org/2000/svg" viewBox="0 0 15.37 11.89"><defs><style>.cls-1{opacity:0.52;}.cls-2{fill:#666;}</style></defs><g id="_Group_" data-name="&lt;Group&gt;" class="cls-1"><g id="_Group_2" data-name="&lt;Group&gt;"><g id="_Group_3" data-name="&lt;Group&gt;"><path id="_Path_" data-name="&lt;Path&gt;" class="cls-2" d="M1105.65,651.63s-.24.08-.66.19l-.76.16c-.29.05-.62.11-1,.16s-.75.09-1.16.13-.85.06-1.3.06-.92,0-1.39-.06l-1.43-.09c-1,0-1.92-.08-2.82-.13l-2.46-.15c-1.44-.09-2.4-.16-2.4-.16v-.14s1-.09,2.4-.2l2.46-.18c.9-.07,1.86-.11,2.82-.17l1.43-.11c.47,0,.94-.07,1.39-.08s.89,0,1.3,0,.8.06,1.16.11.69.1,1,.15l.76.15c.42.1.66.18.66.18Z" transform="translate(-1090.28 -645.53)"/></g></g></g><g id="_Group_4" data-name="&lt;Group&gt;" class="cls-1"><g id="_Group_5" data-name="&lt;Group&gt;"><g id="_Group_6" data-name="&lt;Group&gt;"><path id="_Path_2" data-name="&lt;Path&gt;" class="cls-2" d="M1105.65,646.3s-.24.08-.66.19l-.76.16c-.29.05-.62.11-1,.16s-.75.09-1.16.13-.85.06-1.3.06-.92,0-1.39-.06l-1.43-.09c-1,0-1.92-.08-2.82-.13l-2.46-.15c-1.44-.09-2.4-.16-2.4-.16v-.14s1-.09,2.4-.2l2.46-.18c.9-.07,1.86-.11,2.82-.17l1.43-.11c.47,0,.94-.07,1.39-.08s.89,0,1.3,0,.8.06,1.16.11.69.1,1,.15l.76.15c.42.1.66.18.66.18Z" transform="translate(-1090.28 -645.53)"/></g></g></g><g id="_Group_7" data-name="&lt;Group&gt;" class="cls-1"><g id="_Group_8" data-name="&lt;Group&gt;"><g id="_Group_9" data-name="&lt;Group&gt;"><path id="_Path_3" data-name="&lt;Path&gt;" class="cls-2" d="M1103.68,656.86s-.21.08-.58.17l-.67.14c-.26,0-.55.09-.86.13a14.42,14.42,0,0,1-2.15.11c-.78,0-1.62-.17-2.46-.23s-1.67-.13-2.46-.21l-2.14-.22c-1.25-.13-2.09-.23-2.09-.23v-.14s.84-.06,2.1-.13l2.15-.11c.79,0,1.63-.06,2.46-.09s1.68-.12,2.46-.11a14.42,14.42,0,0,1,2.14.22c.31.05.6.12.85.17l.66.17c.36.11.57.2.57.2Z" transform="translate(-1090.28 -645.53)"/></g></g></g></svg>