<svg id="icons" xmlns="http://www.w3.org/2000/svg" viewBox="0 0 88.03 48.69"><defs><style>.cls-1{fill:#666;}.cls-2{fill:#775faf;}.cls-3{fill:#55379b;}.cls-4{fill:#3f2c7a;}.cls-5{fill:#fff;}</style></defs><path class="cls-1" d="M1193.68,662.56a3,3,0,0,1-3,3h-82.1a3,3,0,0,1-3-3V662h88Z" transform="translate(-1105.65 -616.83)"/><path class="cls-1" d="M7.55,0h51a5.74,5.74,0,0,1,5.74,5.74V46a0,0,0,0,1,0,0H1.81a0,0,0,0,1,0,0V5.74A5.74,5.74,0,0,1,7.55,0Z"/><path id="_Path_" data-name="&lt;Path&gt;" class="cls-2" d="M1170.74,640.32v4.25h3.64c.73,0,1.37,0,2,.07C1174.13,641.57,1172.77,640.32,1170.74,640.32Z" transform="translate(-1105.65 -616.83)"/><path id="_Path_2" data-name="&lt;Path&gt;" class="cls-3" d="M1174.38,646.2h-3.64v15.88h9.4a5.06,5.06,0,0,1,6.3-.2l1.7-1h4.27c0-1.79-.27-3.18-2.09-4.25l-4.19-2.46s-4.16-4.44-4.85-5.14C1178.9,646.57,1177.82,646.2,1174.38,646.2Z" transform="translate(-1105.65 -616.83)"/><path class="cls-4" d="M1190.32,656.6l-4.19-2.46s-4.16-4.44-4.85-5.14c-.41-.42-.78-.77-1.13-1.07v14.16c1.18,0,4.82,0,6.13,0l1.86-1.24h4.27C1192.39,659.05,1192.14,657.67,1190.32,656.6Z" transform="translate(-1105.65 -616.83)"/><path id="_Path_3" data-name="&lt;Path&gt;" class="cls-3" d="M1188.55,657.19l.85.5c1,.59,1.19.92,1.31,1.75h-2.78A4.48,4.48,0,0,1,1188.55,657.19Z" transform="translate(-1105.65 -616.83)"/><path id="_Path_4" data-name="&lt;Path&gt;" class="cls-5" d="M1172.87,648.35h2.49a4.74,4.74,0,0,1,4,1.75c.58.55,1.45,1.47,4.1,4.3a.83.83,0,0,1-.65,1.44h-2.91c-2.13,0-2.81-1.34-7-1.34Z" transform="translate(-1105.65 -616.83)"/></svg>