<svg id="Isolation_Mode" data-name="Isolation Mode" xmlns="http://www.w3.org/2000/svg" xmlns:xlink="http://www.w3.org/1999/xlink" viewBox="0 0 103.39 73.64"><defs><style>.cls-1{fill:none;}.cls-2{fill:#666;}.cls-10,.cls-3{fill:#f90;}.cls-4,.cls-7{fill:#fc0;}.cls-5,.cls-9{fill:#009957;}.cls-6,.cls-8{fill:#46c4db;}.cls-7{stroke:#fc0;}.cls-10,.cls-15,.cls-7,.cls-8,.cls-9{stroke-miterlimit:10;stroke-width:0.37px;}.cls-8{stroke:#46c4db;}.cls-9{stroke:#009957;}.cls-10{stroke:#f90;}.cls-11{fill:#775faf;}.cls-12{fill:#55379b;}.cls-13,.cls-15{fill:#414042;}.cls-14{opacity:0.52;}.cls-15{stroke:#fff;}.cls-16{opacity:0.2;}.cls-17{fill:#fff;}.cls-18{fill:#3f2c7a;}.cls-19{clip-path:url(#clip-path);}.cls-20{fill:#858499;opacity:0.37;}</style><clipPath id="clip-path" transform="translate(-482.4 -599.84)"><path class="cls-1" d="M561.85,631h0c0-.28,0-.55,0-.82v-.31h0a31.14,31.14,0,0,0-30.68-30h-.72v0a31.14,31.14,0,0,0-30.86,30.94h0v1.06h0a31.14,31.14,0,0,0,30.85,30.28v0h.72v0A31.14,31.14,0,0,0,561.87,631h0Z"/></clipPath></defs><path class="cls-2" d="M22.92,17H74a5.74,5.74,0,0,1,5.74,5.74V63a0,0,0,0,1,0,0H17.18a0,0,0,0,1,0,0V22.74A5.74,5.74,0,0,1,22.92,17Z"/><rect class="cls-3" x="36.54" y="45.31" width="13.58" height="13.58"/><rect class="cls-4" x="21.18" y="19.39" width="13.58" height="13.58"/><rect class="cls-5" x="47.06" y="3.84" width="13.58" height="13.58"/><rect class="cls-6" x="62.05" y="31.51" width="13.16" height="11.2"/><path class="cls-6" d="M530.73,631v31.15A31.15,31.15,0,0,0,561.87,631Zm18.48,10a3.6,3.6,0,0,1-2.24-6.42c.57-.9,1-2.17,0-3a4.19,4.19,0,0,0-2.49-.51h9.49a4.2,4.2,0,0,0-2.5.51c-1.06.84-.58,2.11,0,3A3.6,3.6,0,0,1,549.2,641Z" transform="translate(-482.4 -599.84)"/><path class="cls-5" d="M530.73,631h31.15a31.15,31.15,0,0,0-31.15-31.15Zm10-18.48a3.6,3.6,0,0,1-6.42,2.24c-.9-.57-2.17-1-3,0a4.19,4.19,0,0,0-.51,2.49v-9.49a4.2,4.2,0,0,0,.51,2.5c.84,1.06,2.11.58,3,0a3.6,3.6,0,0,1,6.42,2.23Z" transform="translate(-482.4 -599.84)"/><path class="cls-7" d="M537.1,604a3.6,3.6,0,1,1,0,7.2,4.27,4.27,0,0,1-2.82-1.37,2,2,0,0,0-3,0,4.19,4.19,0,0,0-.51,2.49v-9.49a4.2,4.2,0,0,0,.51,2.5,2,2,0,0,0,3,0A4.27,4.27,0,0,1,537.1,604Z" transform="translate(-482.4 -599.84)"/><path class="cls-4" d="M530.73,631V599.87A31.15,31.15,0,0,0,499.58,631Zm-18.48-10a3.6,3.6,0,0,1,2.24,6.42c-.57.9-1,2.17,0,3A4.19,4.19,0,0,0,517,631h-9.49a4.2,4.2,0,0,0,2.5-.51c1.06-.84.58-2.11,0-3a3.6,3.6,0,0,1,2.23-6.42Z" transform="translate(-482.4 -599.84)"/><path class="cls-3" d="M530.73,631H499.58a31.15,31.15,0,0,0,31.15,31.15Zm-10,18.48a3.6,3.6,0,0,1,6.42-2.24c.9.57,2.17,1,3,0a4.19,4.19,0,0,0,.51-2.49v9.49a4.2,4.2,0,0,0-.51-2.5c-.84-1.06-2.11-.58-3,0a3.6,3.6,0,0,1-6.42-2.23Z" transform="translate(-482.4 -599.84)"/><path class="cls-8" d="M524.36,658a3.6,3.6,0,1,1,0-7.2,4.27,4.27,0,0,1,2.82,1.37,2,2,0,0,0,3,0,4.19,4.19,0,0,0,.51-2.49v9.49a4.2,4.2,0,0,0-.51-2.5,2,2,0,0,0-3,0A4.27,4.27,0,0,1,524.36,658Z" transform="translate(-482.4 -599.84)"/><path class="cls-9" d="M556.32,634.53a3.6,3.6,0,1,1-4.47,0c.57-.9,1-2.17,0-3a4.19,4.19,0,0,0-2.49-.51h9.49a4.2,4.2,0,0,0-2.5.51C555.28,632.36,555.76,633.63,556.32,634.53Z" transform="translate(-482.4 -599.84)"/><path class="cls-10" d="M504.37,624.64a3.6,3.6,0,1,1,7.2,0,4.27,4.27,0,0,1-1.37,2.82,2,2,0,0,0,0,3,4.19,4.19,0,0,0,2.49.51h-9.49a4.2,4.2,0,0,0,2.5-.51,2,2,0,0,0,0-3A4.27,4.27,0,0,1,504.37,624.64Z" transform="translate(-482.4 -599.84)"/><rect class="cls-3" x="17.18" y="30.98" width="31.12" height="1.06"/><rect class="cls-6" x="48.05" y="30.98" width="0.72" height="31.38"/><rect class="cls-4" x="48.05" width="0.72" height="30.98"/><rect class="cls-5" x="48.76" y="30.02" width="30.69" height="1.49"/><path id="_Path_" data-name="&lt;Path&gt;" class="cls-11" d="M562.86,639.82v4.25h3.64c.73,0,1.37,0,2,.07C566.25,641.07,564.89,639.82,562.86,639.82Z" transform="translate(-482.4 -599.84)"/><path id="_Path_2" data-name="&lt;Path&gt;" class="cls-12" d="M566.5,645.7h-3.64v15.88h9.4a5.06,5.06,0,0,1,6.3-.2l1.7-1h4.27c0-1.79-.27-3.18-2.09-4.25l-4.19-2.46s-4.16-4.44-4.85-5.14C571,646.07,569.94,645.7,566.5,645.7Z" transform="translate(-482.4 -599.84)"/><g id="_Group_" data-name="&lt;Group&gt;"><path id="_Path_3" data-name="&lt;Path&gt;" class="cls-13" d="M507.65,672.35A5.36,5.36,0,1,1,513,667a5.34,5.34,0,0,1-5.32,5.36Z" transform="translate(-482.4 -599.84)"/></g><g id="_Group_2" data-name="&lt;Group&gt;"><path id="_Path_4" data-name="&lt;Path&gt;" class="cls-4" d="M507.65,669.3A2.31,2.31,0,1,0,505.3,667a2.36,2.36,0,0,0,2.35,2.31Z" transform="translate(-482.4 -599.84)"/></g><g id="_Group_3" data-name="&lt;Group&gt;" class="cls-14"><g id="_Group_4" data-name="&lt;Group&gt;"><g id="_Group_5" data-name="&lt;Group&gt;"><path id="_Path_5" data-name="&lt;Path&gt;" class="cls-2" d="M500.7,652.09s-.24.08-.66.19l-.76.16c-.29.05-.62.11-1,.16s-.75.09-1.16.13-.85.06-1.3.06-.92,0-1.39-.06l-1.43-.09c-1,0-1.92-.08-2.82-.13l-2.46-.15c-1.44-.09-2.4-.16-2.4-.16v-.14s1-.09,2.4-.2l2.46-.18c.9-.07,1.86-.11,2.82-.17l1.43-.11c.47,0,.94-.07,1.39-.08s.89,0,1.3,0,.8.06,1.16.11.69.1,1,.15l.76.15c.42.1.66.18.66.18Z" transform="translate(-482.4 -599.84)"/></g></g></g><g id="_Group_6" data-name="&lt;Group&gt;" class="cls-14"><g id="_Group_7" data-name="&lt;Group&gt;"><g id="_Group_8" data-name="&lt;Group&gt;"><path id="_Path_6" data-name="&lt;Path&gt;" class="cls-2" d="M497.77,646.3s-.24.08-.66.19l-.76.16c-.29.05-.62.11-1,.16s-.75.09-1.16.13-.85.06-1.3.06-.92,0-1.39-.06l-1.43-.09c-1,0-1.92-.08-2.82-.13l-2.46-.15c-1.44-.09-2.4-.16-2.4-.16v-.14s1-.09,2.4-.2l2.46-.18c.9-.07,1.86-.11,2.82-.17l1.43-.11c.47,0,.94-.07,1.39-.08s.89,0,1.3,0,.8.06,1.16.11.69.1,1,.15l.76.15c.42.1.66.18.66.18Z" transform="translate(-482.4 -599.84)"/></g></g></g><g id="_Group_9" data-name="&lt;Group&gt;" class="cls-14"><g id="_Group_10" data-name="&lt;Group&gt;"><g id="_Group_11" data-name="&lt;Group&gt;"><path id="_Path_7" data-name="&lt;Path&gt;" class="cls-2" d="M499.71,656.86s-.21.08-.58.17l-.67.14c-.26,0-.55.09-.86.13a14.42,14.42,0,0,1-2.15.11c-.78,0-1.62-.17-2.46-.23s-1.67-.13-2.46-.21l-2.14-.22c-1.25-.13-2.09-.23-2.09-.23v-.14s.84-.06,2.1-.13l2.15-.11c.79,0,1.63-.06,2.46-.09s1.68-.12,2.46-.11a14.42,14.42,0,0,1,2.14.22c.31.05.6.12.85.17l.66.17c.36.11.57.2.57.2Z" transform="translate(-482.4 -599.84)"/></g></g></g><g id="_Group_12" data-name="&lt;Group&gt;"><path id="_Path_8" data-name="&lt;Path&gt;" class="cls-15" d="M575.75,671.37a5.36,5.36,0,1,1,5.32-5.36,5.34,5.34,0,0,1-5.32,5.36Z" transform="translate(-482.4 -599.84)"/></g><g id="_Group_13" data-name="&lt;Group&gt;"><path id="_Path_9" data-name="&lt;Path&gt;" class="cls-4" d="M575.75,668.31A2.31,2.31,0,1,0,573.4,666a2.36,2.36,0,0,0,2.35,2.31Z" transform="translate(-482.4 -599.84)"/></g><g id="_Group_14" data-name="&lt;Group&gt;" class="cls-16"><path class="cls-17" d="M502.24,667a5.34,5.34,0,0,0,5.33,5.36h0V661.62A5.37,5.37,0,0,0,502.24,667Z" transform="translate(-482.4 -599.84)"/></g><g id="_Group_15" data-name="&lt;Group&gt;" class="cls-16"><path class="cls-17" d="M570.72,666a5.34,5.34,0,0,0,5.33,5.36h0V660.64A5.37,5.37,0,0,0,570.72,666Z" transform="translate(-482.4 -599.84)"/></g><path class="cls-2" d="M581.44,666a4.76,4.76,0,0,0-.85-2.71l.93-.57h4.27c0,.08,0,.16,0,.25v1.36a1.89,1.89,0,0,1-2,2.18h-2.38A4.63,4.63,0,0,0,581.44,666Zm-78.63-2.78h-5a3,3,0,0,0,3.16,2.78h.93A16.19,16.19,0,0,1,502.8,663.22Zm67.65,3.22a9.07,9.07,0,0,1,.53-3.07h-58.5a24.32,24.32,0,0,1,.78,2.56,4,4,0,0,1-.06,1.25h57.29Q570.46,666.81,570.46,666.44Z" transform="translate(-482.4 -599.84)"/><path class="cls-18" d="M582.44,656.1l-4.19-2.46s-4.16-4.44-4.85-5.14c-.41-.42-.78-.77-1.13-1.07v14.16a5.06,5.06,0,0,1,6.29-.2l1.7-1h4.27C584.51,658.55,584.26,657.17,582.44,656.1Z" transform="translate(-482.4 -599.84)"/><path id="_Path_10" data-name="&lt;Path&gt;" class="cls-12" d="M580.67,656.69l.85.5c1,.59,1.19.92,1.31,1.75h-2.78A4.48,4.48,0,0,1,580.67,656.69Z" transform="translate(-482.4 -599.84)"/><g class="cls-19"><rect class="cls-20" x="525.48" y="604.7" width="37.46" height="63.97" transform="translate(-184.43 -763.71) rotate(23.43)"/></g><circle class="cls-17" cx="48.32" cy="31.18" r="15.25"/><path id="_Path_11" data-name="&lt;Path&gt;" class="cls-17" d="M565,647.85h2.49a4.74,4.74,0,0,1,4,1.75c.58.55,1.45,1.47,4.1,4.3a.83.83,0,0,1-.65,1.44H572c-2.13,0-2.81-1.34-7-1.34Z" transform="translate(-482.4 -599.84)"/></svg>