<svg id="icons" xmlns="http://www.w3.org/2000/svg" xmlns:xlink="http://www.w3.org/1999/xlink" viewBox="0 0 74.85 148.83"><defs><style>.cls-1{fill:none;}.cls-2{fill:#edc298;}.cls-3{fill:#fff;}.cls-4{fill:#243e54;}.cls-5{fill:#666;}.cls-6{clip-path:url(#clip-path);}.cls-7{fill:#7c7c7c;}.cls-8{fill:#6691c0;}.cls-9{fill:#f9deb2;}</style><clipPath id="clip-path" transform="translate(-31.14 -255.93)"><path id="_Clipping_Path_" data-name="&lt;Clipping Path&gt;" class="cls-1" d="M47,371.52,98.25,254.71l-52.43-.06c-2.86,0-4.3,1.81-4.3,5.05L41.4,368a3.29,3.29,0,0,0,3.11,3.54H47"/></clipPath></defs><g id="_Group_" data-name="&lt;Group&gt;"><g id="_Group_2" data-name="&lt;Group&gt;"><path id="_Path_" data-name="&lt;Path&gt;" class="cls-2" d="M95.39,340.93c0,4.37,8.66,5.36,8.66,12.23,0,0-14.84,18.66-65,18.66a8,8,0,0,1-7.91-7.91V333a7.91,7.91,0,0,1,7.91-7.91H77.31A7.91,7.91,0,0,1,85.22,333Z" transform="translate(-31.14 -255.93)"/><path id="_Path_2" data-name="&lt;Path&gt;" class="cls-2" d="M43.91,325.56,31.14,322.7v29.73a9.68,9.68,0,0,0,9.68,9.68h18a29.58,29.58,0,0,0-14.9-36.56Z" transform="translate(-31.14 -255.93)"/><path id="_Path_3" data-name="&lt;Path&gt;" class="cls-2" d="M39,386.9c7.7,1.25,12.82,4.79,20.87,4.79,4.63,0,12-.33,16.51-.74V363.85H39Z" transform="translate(-31.14 -255.93)"/></g><rect id="_Path_4" data-name="&lt;Path&gt;" class="cls-3" x="4.9" y="124.17" width="44.31" height="6.98"/><rect id="_Path_5" data-name="&lt;Path&gt;" class="cls-4" x="3.79" y="129.77" width="46.54" height="19.06"/></g><g id="_Group_3" data-name="&lt;Group&gt;"><path id="_Path_6" data-name="&lt;Path&gt;" class="cls-5" d="M96.74,348.86c0,15.77-22.88,15.74-26.9,15.74S43,364,42.81,348.8l.09-81.46a11.42,11.42,0,0,1,11.44-11.41l31.08,0a11.42,11.42,0,0,1,11.41,11.44Z" transform="translate(-31.14 -255.93)"/><rect id="_Path_7" data-name="&lt;Path&gt;" class="cls-3" x="31.76" y="281.64" width="76.13" height="46.01" transform="translate(-266.04 118.2) rotate(-89.94)"/><circle id="_Path_8" data-name="&lt;Path&gt;" class="cls-3" cx="38.63" cy="94.94" r="4.04"/></g><g id="_Group_4" data-name="&lt;Group&gt;"><g id="_Clip_Group_" data-name="&lt;Clip Group&gt;"><g class="cls-6"><path id="_Path_9" data-name="&lt;Path&gt;" class="cls-7" d="M96.74,348.9c0,15.77-22.88,15.74-26.9,15.74s-26.79-.56-27-15.8l.09-81.46A11.42,11.42,0,0,1,54.34,256l31.08,0a11.42,11.42,0,0,1,11.41,11.44Z" transform="translate(-31.14 -255.93)"/></g></g><rect id="_Path_10" data-name="&lt;Path&gt;" class="cls-3" x="31.76" y="281.68" width="76.13" height="46.01" transform="translate(-266.08 118.24) rotate(-89.94)"/><circle id="_Path_11" data-name="&lt;Path&gt;" class="cls-3" cx="38.63" cy="94.98" r="4.04"/></g><path class="cls-8" d="M89.91,270H50.24v67.64H89.91Z" transform="translate(-31.14 -255.93)"/><g id="_Group_5" data-name="&lt;Group&gt;"><path id="_Path_12" data-name="&lt;Path&gt;" class="cls-2" d="M91.19,342a6,6,0,0,1-6-6h0a6,6,0,0,1,6-6H100a6,6,0,0,1,6,6h0a6,6,0,0,1-6,6Z" transform="translate(-31.14 -255.93)"/><path id="_Path_13" data-name="&lt;Path&gt;" class="cls-2" d="M91.19,328.62a6,6,0,0,1-6-6h0a6,6,0,0,1,6-6H100a6,6,0,0,1,6,6h0a6,6,0,0,1-6,6Z" transform="translate(-31.14 -255.93)"/><path id="_Path_14" data-name="&lt;Path&gt;" class="cls-9" d="M93.53,318.63h-3.6a2.59,2.59,0,0,0-2.59,2.59v3.11a2.59,2.59,0,0,0,2.59,2.59h3.6Z" transform="translate(-31.14 -255.93)"/><path id="_Path_15" data-name="&lt;Path&gt;" class="cls-9" d="M93.53,331.89h-3.6a2.59,2.59,0,0,0-2.59,2.59v3.11a2.59,2.59,0,0,0,2.59,2.59h3.6Z" transform="translate(-31.14 -255.93)"/><path id="_Path_16" data-name="&lt;Path&gt;" class="cls-2" d="M91.19,315.29a6,6,0,0,1-6-6h0a6,6,0,0,1,6-6H100a6,6,0,0,1,6,6h0a6,6,0,0,1-6,6Z" transform="translate(-31.14 -255.93)"/><path id="_Path_17" data-name="&lt;Path&gt;" class="cls-9" d="M93.53,305.08h-3.6a2.59,2.59,0,0,0-2.59,2.59v3.11a2.59,2.59,0,0,0,2.59,2.59h3.6Z" transform="translate(-31.14 -255.93)"/><g id="_Group_6" data-name="&lt;Group&gt;"><path id="_Path_18" data-name="&lt;Path&gt;" class="cls-2" d="M91.19,355.3a6,6,0,0,1-6-6h0a6,6,0,0,1,6-6H100a6,6,0,0,1,6,6h0a6,6,0,0,1-6,6Z" transform="translate(-31.14 -255.93)"/><path id="_Path_19" data-name="&lt;Path&gt;" class="cls-9" d="M93.53,345.14h-3.6a2.59,2.59,0,0,0-2.59,2.59v3.11a2.59,2.59,0,0,0,2.59,2.59h3.6Z" transform="translate(-31.14 -255.93)"/></g></g><g id="_Group_7" data-name="&lt;Group&gt;"><path id="_Path_20" data-name="&lt;Path&gt;" class="cls-2" d="M37.55,329a6.4,6.4,0,0,1-6.4-6.4h0a6.4,6.4,0,0,1,6.4-6.4H55.69a6.4,6.4,0,0,1,6.4,6.4h0a6.4,6.4,0,0,1-6.4,6.4Z" transform="translate(-31.14 -255.93)"/><path id="_Path_21" data-name="&lt;Path&gt;" class="cls-9" d="M52.56,327.07h4a2.88,2.88,0,0,0,2.88-2.88v-3.45a2.87,2.87,0,0,0-2.88-2.87h-4Z" transform="translate(-31.14 -255.93)"/></g><path class="cls-3" d="M70.07,289.37a14.45,14.45,0,1,1-14.45,14.45,14.47,14.47,0,0,1,14.45-14.45m0-1.82a16.27,16.27,0,1,0,16.27,16.27,16.27,16.27,0,0,0-16.27-16.27Zm2.31,7.86a2.34,2.34,0,0,1-2.52,2.33,2.35,2.35,0,1,1,0-4.69A2.34,2.34,0,0,1,72.38,295.41Zm-4.82,19.18v-15h4.66v15Z" transform="translate(-31.14 -255.93)"/></svg>