<svg id="icons" xmlns="http://www.w3.org/2000/svg" xmlns:xlink="http://www.w3.org/1999/xlink" viewBox="0 0 72 143.16"><defs><style>.cls-1{fill:none;}.cls-2{fill:#edc298;}.cls-3{fill:#fff;}.cls-4{fill:#243e54;}.cls-5{fill:#666;}.cls-6{clip-path:url(#clip-path);}.cls-7{fill:#7c7c7c;}.cls-8{fill:#6691c0;}.cls-9{fill:#f9deb2;}</style><clipPath id="clip-path" transform="translate(-160.58 -261.6)"><path id="_Clipping_Path_" data-name="&lt;Clipping Path&gt;" class="cls-1" d="M217.33,372.79,168,260.42l50.44-.06c2.75,0,4.13,1.74,4.14,4.86l.12,104.16a3.16,3.16,0,0,1-3,3.4h-2.39"/></clipPath></defs><g id="_Group_" data-name="&lt;Group&gt;"><g id="_Group_2" data-name="&lt;Group&gt;"><path id="_Path_" data-name="&lt;Path&gt;" class="cls-2" d="M170.78,343.36c0,4.2-8.33,5.16-8.33,11.76,0,0,14.27,17.95,62.48,17.95a7.74,7.74,0,0,0,7.61-7.61V335.73a7.61,7.61,0,0,0-7.61-7.61H188.17a7.61,7.61,0,0,0-7.61,7.61Z" transform="translate(-160.58 -261.6)"/><path id="_Path_2" data-name="&lt;Path&gt;" class="cls-2" d="M220.29,328.57l12.28-2.75v28.6a9.31,9.31,0,0,1-9.31,9.31H206a28.45,28.45,0,0,1,14.33-35.16Z" transform="translate(-160.58 -261.6)"/><path id="_Path_3" data-name="&lt;Path&gt;" class="cls-2" d="M225,387.58c-7.41,1.2-12.33,4.6-20.08,4.61-4.45,0-11.53-.31-15.88-.71V365.4h36Z" transform="translate(-160.58 -261.6)"/></g><rect id="_Path_4" data-name="&lt;Path&gt;" class="cls-3" x="24.66" y="119.44" width="42.63" height="6.71"/><rect id="_Path_5" data-name="&lt;Path&gt;" class="cls-4" x="23.59" y="124.83" width="44.77" height="18.33"/></g><g id="_Group_3" data-name="&lt;Group&gt;"><path id="_Path_6" data-name="&lt;Path&gt;" class="cls-5" d="M169.48,351c0,15.17,22,15.14,25.87,15.14s25.77-.54,26-15.2l-.09-78.36a11,11,0,0,0-11-11l-29.9,0a11,11,0,0,0-11,11Z" transform="translate(-160.58 -261.6)"/><rect id="_Path_7" data-name="&lt;Path&gt;" class="cls-3" x="173.24" y="271.84" width="44.26" height="73.24" transform="translate(-160.92 -261.38) rotate(-0.06)"/><circle id="_Path_8" data-name="&lt;Path&gt;" class="cls-3" cx="34.84" cy="91.32" r="3.88"/></g><g id="_Group_4" data-name="&lt;Group&gt;"><g id="_Clip_Group_" data-name="&lt;Clip Group&gt;"><g class="cls-6"><path id="_Path_9" data-name="&lt;Path&gt;" class="cls-7" d="M169.48,351c0,15.17,22,15.14,25.87,15.14s25.77-.54,26-15.2l-.09-78.36a11,11,0,0,0-11-11l-29.9,0a11,11,0,0,0-11,11Z" transform="translate(-160.58 -261.6)"/></g></g><rect id="_Path_10" data-name="&lt;Path&gt;" class="cls-3" x="173.24" y="271.88" width="44.26" height="73.24" transform="translate(-160.92 -261.38) rotate(-0.06)"/><circle id="_Path_11" data-name="&lt;Path&gt;" class="cls-3" cx="34.84" cy="91.36" r="3.88"/></g><path class="cls-8" d="M215.21,275H175.54v67.64h39.67Z" transform="translate(-160.58 -261.6)"/><path class="cls-3" d="M195.37,294.37a14.45,14.45,0,1,1-14.45,14.45,14.47,14.47,0,0,1,14.45-14.45m0-1.82a16.27,16.27,0,1,0,16.27,16.27,16.27,16.27,0,0,0-16.27-16.27Zm2.31,7.86a2.34,2.34,0,0,1-2.52,2.33,2.35,2.35,0,1,1,0-4.69A2.34,2.34,0,0,1,197.68,300.41Zm-4.82,19.18v-15h4.66v15Z" transform="translate(-160.58 -261.6)"/><g id="_Group_5" data-name="&lt;Group&gt;"><path id="_Path_12" data-name="&lt;Path&gt;" class="cls-2" d="M174.82,344.35a5.79,5.79,0,0,0,5.79-5.79h0a5.79,5.79,0,0,0-5.79-5.79h-8.45a5.79,5.79,0,0,0-5.79,5.79h0a5.79,5.79,0,0,0,5.79,5.79Z" transform="translate(-160.58 -261.6)"/><path id="_Path_13" data-name="&lt;Path&gt;" class="cls-2" d="M174.82,331.52a5.79,5.79,0,0,0,5.79-5.79h0a5.79,5.79,0,0,0-5.79-5.79h-8.45a5.79,5.79,0,0,0-5.79,5.79h0a5.79,5.79,0,0,0,5.79,5.79Z" transform="translate(-160.58 -261.6)"/><path id="_Path_14" data-name="&lt;Path&gt;" class="cls-9" d="M172.57,321.91H176a2.49,2.49,0,0,1,2.49,2.49v3a2.49,2.49,0,0,1-2.49,2.49h-3.46Z" transform="translate(-160.58 -261.6)"/><path id="_Path_15" data-name="&lt;Path&gt;" class="cls-9" d="M172.57,334.66H176a2.49,2.49,0,0,1,2.49,2.49v3a2.49,2.49,0,0,1-2.49,2.49h-3.46Z" transform="translate(-160.58 -261.6)"/><path id="_Path_16" data-name="&lt;Path&gt;" class="cls-2" d="M174.82,318.69a5.79,5.79,0,0,0,5.79-5.79h0a5.79,5.79,0,0,0-5.79-5.79h-8.45a5.79,5.79,0,0,0-5.79,5.79h0a5.79,5.79,0,0,0,5.79,5.79Z" transform="translate(-160.58 -261.6)"/><path id="_Path_17" data-name="&lt;Path&gt;" class="cls-9" d="M172.57,308.88H176a2.49,2.49,0,0,1,2.49,2.49v3a2.49,2.49,0,0,1-2.49,2.49h-3.46Z" transform="translate(-160.58 -261.6)"/><g id="_Group_6" data-name="&lt;Group&gt;"><path id="_Path_18" data-name="&lt;Path&gt;" class="cls-2" d="M174.82,357.18a5.79,5.79,0,0,0,5.79-5.79h0a5.79,5.79,0,0,0-5.79-5.79h-8.45a5.79,5.79,0,0,0-5.79,5.79h0a5.79,5.79,0,0,0,5.79,5.79Z" transform="translate(-160.58 -261.6)"/><path id="_Path_19" data-name="&lt;Path&gt;" class="cls-9" d="M172.57,347.41H176a2.49,2.49,0,0,1,2.49,2.49v3a2.49,2.49,0,0,1-2.49,2.49h-3.46Z" transform="translate(-160.58 -261.6)"/></g></g><g id="_Group_7" data-name="&lt;Group&gt;"><path id="_Path_20" data-name="&lt;Path&gt;" class="cls-2" d="M226.41,331.92a6.15,6.15,0,0,0,6.15-6.15h0a6.15,6.15,0,0,0-6.15-6.15H209a6.15,6.15,0,0,0-6.15,6.15h0a6.15,6.15,0,0,0,6.15,6.15Z" transform="translate(-160.58 -261.6)"/><path id="_Path_21" data-name="&lt;Path&gt;" class="cls-9" d="M212,330h-3.85a2.77,2.77,0,0,1-2.77-2.77v-3.32a2.77,2.77,0,0,1,2.77-2.76H212Z" transform="translate(-160.58 -261.6)"/></g></svg>