<svg id="icons" xmlns="http://www.w3.org/2000/svg" viewBox="0 0 126.51 102.38"><defs><style>.cls-1{fill:#004796;}.cls-2{fill:#fff;}</style></defs><path class="cls-1" d="M198.08,253.21a25.07,25.07,0,0,1-24.86,25.28,24.48,24.48,0,0,1-4.71-.45,19.9,19.9,0,0,1-16.67,9.53,18.59,18.59,0,0,1-7.18-1.44,21.64,21.64,0,0,1-19.16,12.24,21.18,21.18,0,0,1-16.7-8.37c-5.95,7.83-16.06,18.62-29.69,24.16.25-.24,16.81-16.44,15.43-30.64a19.2,19.2,0,0,1-2.61-34.7,22.58,22.58,0,0,1,38.24-23.26,20.86,20.86,0,0,1,14.72-6.13,21.26,21.26,0,0,1,18.25,10.67,24.44,24.44,0,0,1,10.07-2.16A25.07,25.07,0,0,1,198.08,253.21Z" transform="translate(-72.97 -215.79)"/><path class="cls-1" d="M73,318.17l5.15-5c.16-.16,15.65-15.41,15.07-28.66a20.61,20.61,0,0,1-3-36.26,24,24,0,0,1,40.11-24.7A22.15,22.15,0,0,1,144.89,218a22.47,22.47,0,0,1,18.81,10.31,25.73,25.73,0,0,1,9.51-1.8,26.69,26.69,0,0,1,0,53.37,26.07,26.07,0,0,1-4.05-.32A21.26,21.26,0,0,1,151.83,289a19.92,19.92,0,0,1-6.53-1.09,22.93,22.93,0,0,1-19.81,11.9,22.43,22.43,0,0,1-16.65-7.54c-6.26,7.94-16.14,17.92-29.21,23.23Zm39.66-99.57a21.19,21.19,0,0,0-19.41,29.65l.51,1.16-1.11.62A17.79,17.79,0,0,0,95,282.2l.82.31.08.87c.94,9.77-6,20.23-11,26.39C95,304,102.71,295.68,107.67,289.15l1.1-1.45,1.12,1.44A19.78,19.78,0,0,0,125.49,297a20.24,20.24,0,0,0,17.9-11.47l.59-1.16,1.21.5a17.14,17.14,0,0,0,6.64,1.33,18.56,18.56,0,0,0,15.49-8.88l.52-.8.94.18a23.19,23.19,0,0,0,4.44.43,23.87,23.87,0,0,0,0-47.74,22.94,22.94,0,0,0-9.49,2l-1.15.52-.64-1.08a19.76,19.76,0,0,0-17-10,19.44,19.44,0,0,0-13.73,5.73l-1.1,1.09-1-1.21A21.09,21.09,0,0,0,112.63,218.61Z" transform="translate(-72.97 -215.79)"/><g id="_Group_" data-name="&lt;Group&gt;"><g id="_Group_2" data-name="&lt;Group&gt;"><rect class="cls-2" x="107.67" y="261.87" width="40.36" height="8.67" transform="translate(-74.21 -215.2) rotate(-0.27)"/></g><g id="_Group_3" data-name="&lt;Group&gt;"><g id="_Group_4" data-name="&lt;Group&gt;"><polygon class="cls-2" points="71.83 61.57 91.23 50.24 71.72 39.1 71.83 61.57"/></g></g></g><g id="_Group_5" data-name="&lt;Group&gt;"><g id="_Group_6" data-name="&lt;Group&gt;"><rect class="cls-2" x="124.44" y="238.75" width="39.63" height="8.51" transform="translate(-74.11 -215.12) rotate(-0.27)"/></g><g id="_Group_7" data-name="&lt;Group&gt;"><g id="_Group_8" data-name="&lt;Group&gt;"><polygon class="cls-2" points="54.64 16.26 35.59 27.38 54.74 38.32 54.64 16.26"/></g></g></g></svg>