<svg id="text" xmlns="http://www.w3.org/2000/svg" viewBox="0 0 354.38 47.95"><defs><style>.cls-1{fill:#282828;}.cls-2{fill:#004796;}</style></defs><path class="cls-1" d="M133,2210.71h10.42v1.77h-4.21v14.81h-2v-14.81H133Z" transform="translate(-119.68 -2210.41)"/><path class="cls-1" d="M144.9,2222.17a5.47,5.47,0,0,0,.18,1.43,3.47,3.47,0,0,0,.58,1.21,2.77,2.77,0,0,0,1.05.83,3.75,3.75,0,0,0,1.59.3,7.43,7.43,0,0,0,3.19-.78v1.66a6.5,6.5,0,0,1-1.69.55,9.83,9.83,0,0,1-1.85.18,5.41,5.41,0,0,1-2.27-.44,4.21,4.21,0,0,1-1.58-1.22,5,5,0,0,1-.91-1.87,9.54,9.54,0,0,1-.29-2.43,8.84,8.84,0,0,1,.29-2.28,5.65,5.65,0,0,1,.87-1.89,4.43,4.43,0,0,1,1.47-1.29,4.28,4.28,0,0,1,2.08-.48,4,4,0,0,1,2,.45,3.78,3.78,0,0,1,1.31,1.2,5,5,0,0,1,.72,1.74,9.46,9.46,0,0,1,.22,2v.62a4.51,4.51,0,0,1,0,.46Zm5-1.61a8.29,8.29,0,0,0-.09-1.22,2.89,2.89,0,0,0-.36-1.05,2,2,0,0,0-.75-.73,2.47,2.47,0,0,0-1.24-.28,2.1,2.1,0,0,0-1,.26,2.45,2.45,0,0,0-.78.69,3.43,3.43,0,0,0-.52,1,4.89,4.89,0,0,0-.21,1.3Z" transform="translate(-119.68 -2210.41)"/><path class="cls-1" d="M160.29,2227.29l-.21-.92a6.53,6.53,0,0,1-1.26.8,3.72,3.72,0,0,1-1.7.37,3.52,3.52,0,0,1-2.59-.93,3.48,3.48,0,0,1-.94-2.59,4.17,4.17,0,0,1,.33-1.72,3.33,3.33,0,0,1,.92-1.22,3.89,3.89,0,0,1,1.4-.72,6.18,6.18,0,0,1,1.78-.24h2v-.61a2.37,2.37,0,0,0-.52-1.74,2.41,2.41,0,0,0-1.71-.5,7.49,7.49,0,0,0-1.55.18,9.61,9.61,0,0,0-1.5.44v-1.75a10.52,10.52,0,0,1,1.53-.33,11.68,11.68,0,0,1,1.8-.15,4,4,0,0,1,2.93.93,3.93,3.93,0,0,1,.93,2.89v7.82Zm-.28-5.57h-1.87a3.17,3.17,0,0,0-1.9.49,1.92,1.92,0,0,0-.67,1.66,2.11,2.11,0,0,0,.51,1.53,2.05,2.05,0,0,0,1.54.53,3,3,0,0,0,1.33-.29A4.74,4.74,0,0,0,160,2225Z" transform="translate(-119.68 -2210.41)"/><path class="cls-1" d="M173.1,2227.29h-1.91v-7.69a3.48,3.48,0,0,0-.36-1.7,1.43,1.43,0,0,0-1.37-.64,2.33,2.33,0,0,0-1.39.49,10.64,10.64,0,0,0-1.25,1.07v8.46h-1.91v-11.36h1.63l.23,1.43a8.74,8.74,0,0,1,1.42-1.18,3.16,3.16,0,0,1,1.81-.52,2.72,2.72,0,0,1,2.74,1.73,8.62,8.62,0,0,1,1.66-1.23,3.68,3.68,0,0,1,1.84-.5,2.93,2.93,0,0,1,2.35.93,3.62,3.62,0,0,1,.8,2.45v8.26h-1.91v-7.69a5.94,5.94,0,0,0-.07-.94,2,2,0,0,0-.26-.74,1.34,1.34,0,0,0-.53-.49,1.87,1.87,0,0,0-.86-.17,2.8,2.8,0,0,0-1.39.41,6.53,6.53,0,0,0-1.3,1,3.21,3.21,0,0,1,0,.34c0,.13,0,.24,0,.34Z" transform="translate(-119.68 -2210.41)"/><path class="cls-1" d="M193.29,2224.14a3.57,3.57,0,0,1-.3,1.52,2.88,2.88,0,0,1-.82,1.06,3.57,3.57,0,0,1-1.2.62,5,5,0,0,1-1.46.21,8.71,8.71,0,0,1-1.64-.16,7.42,7.42,0,0,1-1.62-.51v-1.75a11.92,11.92,0,0,0,1.47.56,5.44,5.44,0,0,0,1.62.24,2.62,2.62,0,0,0,1.41-.35,1.29,1.29,0,0,0,.56-1.19,1.51,1.51,0,0,0-.36-1,3.87,3.87,0,0,0-.88-.73,12.56,12.56,0,0,0-1.14-.62,6.67,6.67,0,0,1-1.14-.7,3.51,3.51,0,0,1-.88-1,2.92,2.92,0,0,1-.36-1.52,3,3,0,0,1,.28-1.3,2.85,2.85,0,0,1,.76-1,3.44,3.44,0,0,1,1.15-.62,4.63,4.63,0,0,1,1.45-.22,7.45,7.45,0,0,1,2.78.55V2218a11.94,11.94,0,0,0-1.25-.53,4.12,4.12,0,0,0-1.41-.23,2.18,2.18,0,0,0-1.28.35,1.17,1.17,0,0,0-.5,1,1.39,1.39,0,0,0,.35,1,3.82,3.82,0,0,0,.88.7q.53.31,1.15.61a6.39,6.39,0,0,1,1.15.71,3.56,3.56,0,0,1,.88,1A2.93,2.93,0,0,1,193.29,2224.14Z" transform="translate(-119.68 -2210.41)"/><path class="cls-1" d="M195.34,2211.72a1.28,1.28,0,0,1,.38-.92,1.23,1.23,0,0,1,.92-.39,1.31,1.31,0,1,1,0,2.62,1.23,1.23,0,0,1-.92-.39A1.28,1.28,0,0,1,195.34,2211.72Zm2.28,15.57h-1.91v-11.36h1.91Z" transform="translate(-119.68 -2210.41)"/><path class="cls-1" d="M203.51,2215.93h3v1.61h-3v6.71a1.91,1.91,0,0,0,.36,1.28,1.61,1.61,0,0,0,1.25.41,4.3,4.3,0,0,0,.94-.09,4.81,4.81,0,0,0,.8-.25v1.61a4.84,4.84,0,0,1-1,.26,7.73,7.73,0,0,1-1.09.08,3.4,3.4,0,0,1-2.37-.7,3,3,0,0,1-.76-2.29v-7h-2.14v-1.61h2.14v-3.06h1.91Z" transform="translate(-119.68 -2210.41)"/><path class="cls-1" d="M209.79,2222.17a5.47,5.47,0,0,0,.18,1.43,3.47,3.47,0,0,0,.58,1.21,2.77,2.77,0,0,0,1.05.83,3.75,3.75,0,0,0,1.59.3,7.43,7.43,0,0,0,3.19-.78v1.66a6.5,6.5,0,0,1-1.69.55,9.83,9.83,0,0,1-1.85.18,5.41,5.41,0,0,1-2.27-.44,4.21,4.21,0,0,1-1.58-1.22,5,5,0,0,1-.91-1.87,9.54,9.54,0,0,1-.29-2.43,8.84,8.84,0,0,1,.29-2.28,5.65,5.65,0,0,1,.87-1.89,4.43,4.43,0,0,1,1.47-1.29,4.28,4.28,0,0,1,2.08-.48,4,4,0,0,1,2,.45,3.78,3.78,0,0,1,1.31,1.2,5,5,0,0,1,.72,1.74,9.46,9.46,0,0,1,.22,2v.62a4.51,4.51,0,0,1,0,.46Zm5-1.61a8.29,8.29,0,0,0-.09-1.22,2.89,2.89,0,0,0-.36-1.05,2,2,0,0,0-.75-.73,2.47,2.47,0,0,0-1.24-.28,2.1,2.1,0,0,0-1,.26,2.45,2.45,0,0,0-.78.69,3.43,3.43,0,0,0-.52,1,4.89,4.89,0,0,0-.21,1.3Z" transform="translate(-119.68 -2210.41)"/><path class="cls-1" d="M225.45,2224.14a3.57,3.57,0,0,1-.3,1.52,2.88,2.88,0,0,1-.82,1.06,3.57,3.57,0,0,1-1.2.62,5,5,0,0,1-1.46.21,8.71,8.71,0,0,1-1.64-.16,7.42,7.42,0,0,1-1.62-.51v-1.75a11.92,11.92,0,0,0,1.47.56,5.44,5.44,0,0,0,1.62.24,2.62,2.62,0,0,0,1.41-.35,1.29,1.29,0,0,0,.56-1.19,1.51,1.51,0,0,0-.36-1,3.87,3.87,0,0,0-.88-.73,12.56,12.56,0,0,0-1.14-.62,6.67,6.67,0,0,1-1.14-.7,3.51,3.51,0,0,1-.88-1,2.92,2.92,0,0,1-.36-1.52,3,3,0,0,1,.28-1.3,2.85,2.85,0,0,1,.76-1,3.44,3.44,0,0,1,1.15-.62,4.63,4.63,0,0,1,1.45-.22,7.45,7.45,0,0,1,2.78.55V2218a11.94,11.94,0,0,0-1.25-.53,4.12,4.12,0,0,0-1.41-.23,2.18,2.18,0,0,0-1.28.35,1.17,1.17,0,0,0-.5,1,1.39,1.39,0,0,0,.35,1,3.82,3.82,0,0,0,.88.7q.53.31,1.15.61a6.39,6.39,0,0,1,1.15.71,3.56,3.56,0,0,1,.88,1A2.93,2.93,0,0,1,225.45,2224.14Z" transform="translate(-119.68 -2210.41)"/><path class="cls-1" d="M238.35,2227.29l-.21-.92a6.53,6.53,0,0,1-1.26.8,3.72,3.72,0,0,1-1.7.37,3.52,3.52,0,0,1-2.59-.93,3.48,3.48,0,0,1-.94-2.59,4.17,4.17,0,0,1,.33-1.72,3.33,3.33,0,0,1,.92-1.22,3.89,3.89,0,0,1,1.4-.72,6.18,6.18,0,0,1,1.78-.24h2v-.61a2.37,2.37,0,0,0-.52-1.74,2.41,2.41,0,0,0-1.71-.5,7.49,7.49,0,0,0-1.55.18,9.61,9.61,0,0,0-1.5.44v-1.75a10.52,10.52,0,0,1,1.53-.33,11.68,11.68,0,0,1,1.8-.15,4,4,0,0,1,2.93.93,3.93,3.93,0,0,1,.93,2.89v7.82Zm-.28-5.57h-1.87a3.17,3.17,0,0,0-1.9.49,1.92,1.92,0,0,0-.67,1.66,2.11,2.11,0,0,0,.51,1.53,2.05,2.05,0,0,0,1.54.53,3,3,0,0,0,1.33-.29,4.74,4.74,0,0,0,1.06-.68Z" transform="translate(-119.68 -2210.41)"/><path class="cls-1" d="M251.6,2227.29h-1.91v-7.69a2.94,2.94,0,0,0-.44-1.73,1.77,1.77,0,0,0-1.54-.61,2.75,2.75,0,0,0-1.56.49,6.57,6.57,0,0,0-1.27,1.09v8.44H243v-11.36h1.63l.23,1.4a6.81,6.81,0,0,1,1.59-1.25,3.79,3.79,0,0,1,1.84-.43,3.28,3.28,0,0,1,2.46.9,3.41,3.41,0,0,1,.87,2.48Z" transform="translate(-119.68 -2210.41)"/><path class="cls-1" d="M263.31,2227.29H261.7l-.23-1a5.31,5.31,0,0,1-1.18.86,3.62,3.62,0,0,1-1.78.4,4.42,4.42,0,0,1-2-.44,3.82,3.82,0,0,1-1.4-1.22,5.31,5.31,0,0,1-.8-1.84,9.81,9.81,0,0,1-.25-2.28,10,10,0,0,1,.27-2.38,5.85,5.85,0,0,1,.85-1.94,4.17,4.17,0,0,1,1.47-1.31,4.42,4.42,0,0,1,2.13-.48,3.67,3.67,0,0,1,1.55.31,5.55,5.55,0,0,1,1.09.63v-5.89h1.93Zm-1.91-9.18a5.41,5.41,0,0,0-1.07-.61,3.18,3.18,0,0,0-1.27-.24,3,3,0,0,0-1.51.35,2.56,2.56,0,0,0-.94.94,4.14,4.14,0,0,0-.48,1.38,9.88,9.88,0,0,0-.14,1.7,8.68,8.68,0,0,0,.15,1.64,4.15,4.15,0,0,0,.5,1.37,2.72,2.72,0,0,0,.93.94,2.68,2.68,0,0,0,1.42.35,3.67,3.67,0,0,0,2.4-.94Z" transform="translate(-119.68 -2210.41)"/><path class="cls-1" d="M275.89,2225.94a5.3,5.3,0,0,0,1.38-.17,13.44,13.44,0,0,0,1.31-.43V2227a6.29,6.29,0,0,1-1.35.4,8,8,0,0,1-1.53.15,6.07,6.07,0,0,1-2.38-.43,4.28,4.28,0,0,1-1.64-1.2,5,5,0,0,1-1-1.89,9.31,9.31,0,0,1-.31-2.5,7.73,7.73,0,0,1,.31-2.18,5.62,5.62,0,0,1,1-1.89,4.72,4.72,0,0,1,1.62-1.32,5.06,5.06,0,0,1,2.31-.5,8.81,8.81,0,0,1,1.4.1,8.46,8.46,0,0,1,1.38.36v1.77a8.25,8.25,0,0,0-1.21-.44,5.33,5.33,0,0,0-1.44-.18,3.11,3.11,0,0,0-1.53.35,3.08,3.08,0,0,0-1,.95,4,4,0,0,0-.6,1.38,7.27,7.27,0,0,0-.18,1.67,7.52,7.52,0,0,0,.17,1.62,4,4,0,0,0,.58,1.38,3,3,0,0,0,1.07,1A3.48,3.48,0,0,0,275.89,2225.94Z" transform="translate(-119.68 -2210.41)"/><path class="cls-1" d="M289.69,2221.61a9.14,9.14,0,0,1-.28,2.29,5.49,5.49,0,0,1-.87,1.89,4.27,4.27,0,0,1-1.52,1.29,5.48,5.48,0,0,1-4.45,0,4.23,4.23,0,0,1-1.53-1.29,5.46,5.46,0,0,1-.87-1.89,9.47,9.47,0,0,1,0-4.54,5.7,5.7,0,0,1,.86-1.91,4.19,4.19,0,0,1,1.52-1.31,5.44,5.44,0,0,1,4.49,0,4.19,4.19,0,0,1,1.52,1.31,5.72,5.72,0,0,1,.86,1.91A9.1,9.1,0,0,1,289.69,2221.61Zm-2,0a11.87,11.87,0,0,0-.1-1.56,4,4,0,0,0-.43-1.38,2.51,2.51,0,0,0-2.39-1.36,2.65,2.65,0,0,0-1.51.38,2.72,2.72,0,0,0-.89,1A4,4,0,0,0,282,2220a11.87,11.87,0,0,0-.1,1.56,11.12,11.12,0,0,0,.12,1.62,4.34,4.34,0,0,0,.44,1.4,2.6,2.6,0,0,0,.88,1,2.67,2.67,0,0,0,1.48.37,2.72,2.72,0,0,0,1.49-.37,2.48,2.48,0,0,0,.89-1,4.54,4.54,0,0,0,.43-1.4A11.25,11.25,0,0,0,287.71,2221.57Z" transform="translate(-119.68 -2210.41)"/><path class="cls-1" d="M294.1,2227.29h-1.91v-16.58h1.91Z" transform="translate(-119.68 -2210.41)"/><path class="cls-1" d="M299.28,2227.29h-1.91v-16.58h1.91Z" transform="translate(-119.68 -2210.41)"/><path class="cls-1" d="M308.41,2227.29l-.21-.92a6.53,6.53,0,0,1-1.26.8,3.72,3.72,0,0,1-1.7.37,3.52,3.52,0,0,1-2.59-.93,3.48,3.48,0,0,1-.94-2.59,4.17,4.17,0,0,1,.33-1.72,3.33,3.33,0,0,1,.92-1.22,3.89,3.89,0,0,1,1.4-.72,6.18,6.18,0,0,1,1.78-.24h2v-.61a2.37,2.37,0,0,0-.52-1.74,2.41,2.41,0,0,0-1.71-.5,7.49,7.49,0,0,0-1.55.18,9.61,9.61,0,0,0-1.5.44v-1.75a10.52,10.52,0,0,1,1.53-.33,11.68,11.68,0,0,1,1.8-.15,4,4,0,0,1,2.93.93,3.93,3.93,0,0,1,.93,2.89v7.82Zm-.28-5.57h-1.87a3.17,3.17,0,0,0-1.9.49,1.92,1.92,0,0,0-.67,1.66,2.11,2.11,0,0,0,.51,1.53,2.05,2.05,0,0,0,1.54.53,3,3,0,0,0,1.33-.29,4.74,4.74,0,0,0,1.06-.68Z" transform="translate(-119.68 -2210.41)"/><path class="cls-1" d="M322.35,2221.36a10.9,10.9,0,0,1-.26,2.47,5.41,5.41,0,0,1-.86,2,4,4,0,0,1-1.58,1.29,5.63,5.63,0,0,1-2.4.46,9,9,0,0,1-1.09-.07q-.56-.07-1.13-.18a7.39,7.39,0,0,1-1.07-.3,6.93,6.93,0,0,1-.9-.39v-15.89H315v6.37a6.28,6.28,0,0,1,1.39-1,4.37,4.37,0,0,1,3.76.07,3.65,3.65,0,0,1,1.28,1.25,5.61,5.61,0,0,1,.71,1.83A10.46,10.46,0,0,1,322.35,2221.36Zm-2,.09a8.52,8.52,0,0,0-.14-1.54,4.47,4.47,0,0,0-.46-1.34,2.72,2.72,0,0,0-.84-.95,2.21,2.21,0,0,0-1.29-.36,3,3,0,0,0-1.42.36,5.07,5.07,0,0,0-1.26.93v6.83a6.14,6.14,0,0,0,1.1.4,4.89,4.89,0,0,0,1.24.15,2.78,2.78,0,0,0,1.48-.36,2.71,2.71,0,0,0,.94-1,4.38,4.38,0,0,0,.5-1.43A9.61,9.61,0,0,0,320.37,2221.45Z" transform="translate(-119.68 -2210.41)"/><path class="cls-1" d="M333.89,2221.61a9.14,9.14,0,0,1-.28,2.29,5.49,5.49,0,0,1-.87,1.89,4.27,4.27,0,0,1-1.52,1.29,5.48,5.48,0,0,1-4.45,0,4.23,4.23,0,0,1-1.53-1.29,5.46,5.46,0,0,1-.87-1.89,9.47,9.47,0,0,1,0-4.54,5.7,5.7,0,0,1,.86-1.91,4.19,4.19,0,0,1,1.52-1.31,5.44,5.44,0,0,1,4.49,0,4.19,4.19,0,0,1,1.52,1.31,5.72,5.72,0,0,1,.86,1.91A9.1,9.1,0,0,1,333.89,2221.61Zm-2,0a11.87,11.87,0,0,0-.1-1.56,4,4,0,0,0-.43-1.38,2.51,2.51,0,0,0-2.39-1.36,2.65,2.65,0,0,0-1.51.38,2.72,2.72,0,0,0-.89,1,4,4,0,0,0-.43,1.38,11.87,11.87,0,0,0-.1,1.56,11.12,11.12,0,0,0,.12,1.62,4.34,4.34,0,0,0,.44,1.4,2.6,2.6,0,0,0,.88,1,2.67,2.67,0,0,0,1.48.37,2.72,2.72,0,0,0,1.49-.37,2.48,2.48,0,0,0,.89-1,4.54,4.54,0,0,0,.43-1.4A11.25,11.25,0,0,0,331.91,2221.57Z" transform="translate(-119.68 -2210.41)"/><path class="cls-1" d="M338.26,2217.77a4.58,4.58,0,0,1,1.3-1.48,3,3,0,0,1,1.85-.63,5.41,5.41,0,0,1,.71.05v1.56l-.32,0h-.32a3.71,3.71,0,0,0-1.64.41,5.65,5.65,0,0,0-1.55,1.15v8.49h-1.91v-11.36H338Z" transform="translate(-119.68 -2210.41)"/><path class="cls-1" d="M349.4,2227.29l-.21-.92a6.53,6.53,0,0,1-1.26.8,3.72,3.72,0,0,1-1.7.37,3.52,3.52,0,0,1-2.59-.93,3.48,3.48,0,0,1-.94-2.59,4.17,4.17,0,0,1,.33-1.72,3.33,3.33,0,0,1,.92-1.22,3.89,3.89,0,0,1,1.4-.72,6.18,6.18,0,0,1,1.78-.24h2v-.61a2.37,2.37,0,0,0-.52-1.74,2.41,2.41,0,0,0-1.71-.5,7.49,7.49,0,0,0-1.55.18,9.61,9.61,0,0,0-1.5.44v-1.75a10.52,10.52,0,0,1,1.53-.33,11.68,11.68,0,0,1,1.8-.15,4,4,0,0,1,2.93.93,3.93,3.93,0,0,1,.93,2.89v7.82Zm-.28-5.57h-1.87a3.17,3.17,0,0,0-1.9.49,1.92,1.92,0,0,0-.67,1.66,2.11,2.11,0,0,0,.51,1.53,2.05,2.05,0,0,0,1.54.53,3,3,0,0,0,1.33-.29,4.74,4.74,0,0,0,1.06-.68Z" transform="translate(-119.68 -2210.41)"/><path class="cls-1" d="M356.62,2215.93h3v1.61h-3v6.71a1.91,1.91,0,0,0,.36,1.28,1.61,1.61,0,0,0,1.25.41,4.3,4.3,0,0,0,.94-.09,4.81,4.81,0,0,0,.8-.25v1.61a4.84,4.84,0,0,1-1,.26,7.73,7.73,0,0,1-1.09.08,3.4,3.4,0,0,1-2.37-.7,3,3,0,0,1-.76-2.29v-7h-2.14v-1.61h2.14v-3.06h1.91Z" transform="translate(-119.68 -2210.41)"/><path class="cls-1" d="M361.63,2211.72a1.28,1.28,0,0,1,.38-.92,1.23,1.23,0,0,1,.92-.39,1.31,1.31,0,1,1,0,2.62,1.23,1.23,0,0,1-.92-.39A1.28,1.28,0,0,1,361.63,2211.72Zm2.28,15.57H362v-11.36h1.91Z" transform="translate(-119.68 -2210.41)"/><path class="cls-1" d="M376.19,2221.61a9.14,9.14,0,0,1-.28,2.29,5.49,5.49,0,0,1-.87,1.89,4.27,4.27,0,0,1-1.52,1.29,5.48,5.48,0,0,1-4.45,0,4.23,4.23,0,0,1-1.53-1.29,5.46,5.46,0,0,1-.87-1.89,9.47,9.47,0,0,1,0-4.54,5.7,5.7,0,0,1,.86-1.91,4.19,4.19,0,0,1,1.52-1.31,5.44,5.44,0,0,1,4.49,0,4.19,4.19,0,0,1,1.52,1.31,5.72,5.72,0,0,1,.86,1.91A9.1,9.1,0,0,1,376.19,2221.61Zm-2,0a11.87,11.87,0,0,0-.1-1.56,4,4,0,0,0-.43-1.38,2.51,2.51,0,0,0-2.39-1.36,2.65,2.65,0,0,0-1.51.38,2.72,2.72,0,0,0-.89,1,4,4,0,0,0-.43,1.38,11.87,11.87,0,0,0-.1,1.56,11.12,11.12,0,0,0,.12,1.62,4.34,4.34,0,0,0,.44,1.4,2.6,2.6,0,0,0,.88,1,2.67,2.67,0,0,0,1.48.37,2.72,2.72,0,0,0,1.49-.37,2.48,2.48,0,0,0,.89-1,4.54,4.54,0,0,0,.43-1.4A11.25,11.25,0,0,0,374.21,2221.57Z" transform="translate(-119.68 -2210.41)"/><path class="cls-1" d="M387.3,2227.29h-1.91v-7.69a2.94,2.94,0,0,0-.44-1.73,1.77,1.77,0,0,0-1.54-.61,2.75,2.75,0,0,0-1.56.49,6.57,6.57,0,0,0-1.27,1.09v8.44h-1.91v-11.36h1.63l.23,1.4a6.81,6.81,0,0,1,1.59-1.25,3.79,3.79,0,0,1,1.84-.43,3.28,3.28,0,0,1,2.46.9,3.41,3.41,0,0,1,.87,2.48Z" transform="translate(-119.68 -2210.41)"/><path class="cls-1" d="M397.71,2215.93h3v1.61h-3v6.71a1.91,1.91,0,0,0,.36,1.28,1.61,1.61,0,0,0,1.25.41,4.3,4.3,0,0,0,.94-.09,4.81,4.81,0,0,0,.8-.25v1.61a4.84,4.84,0,0,1-1,.26,7.73,7.73,0,0,1-1.09.08,3.4,3.4,0,0,1-2.37-.7,3,3,0,0,1-.76-2.29v-7h-2.14v-1.61h2.14v-3.06h1.91Z" transform="translate(-119.68 -2210.41)"/><path class="cls-1" d="M411.81,2221.61a9.14,9.14,0,0,1-.28,2.29,5.49,5.49,0,0,1-.87,1.89,4.27,4.27,0,0,1-1.52,1.29,5.48,5.48,0,0,1-4.45,0,4.23,4.23,0,0,1-1.53-1.29,5.46,5.46,0,0,1-.87-1.89,9.47,9.47,0,0,1,0-4.54,5.7,5.7,0,0,1,.86-1.91,4.19,4.19,0,0,1,1.52-1.31,5.44,5.44,0,0,1,4.49,0,4.19,4.19,0,0,1,1.52,1.31,5.72,5.72,0,0,1,.86,1.91A9.1,9.1,0,0,1,411.81,2221.61Zm-2,0a11.87,11.87,0,0,0-.1-1.56,4,4,0,0,0-.43-1.38,2.51,2.51,0,0,0-2.39-1.36,2.65,2.65,0,0,0-1.51.38,2.72,2.72,0,0,0-.89,1,4,4,0,0,0-.43,1.38,11.87,11.87,0,0,0-.1,1.56,11.12,11.12,0,0,0,.12,1.62,4.34,4.34,0,0,0,.44,1.4,2.6,2.6,0,0,0,.88,1,2.67,2.67,0,0,0,1.48.37,2.72,2.72,0,0,0,1.49-.37,2.48,2.48,0,0,0,.89-1,4.54,4.54,0,0,0,.43-1.4A11.25,11.25,0,0,0,409.84,2221.57Z" transform="translate(-119.68 -2210.41)"/><path class="cls-1" d="M423.36,2221.61a9.14,9.14,0,0,1-.28,2.29,5.49,5.49,0,0,1-.87,1.89,4.27,4.27,0,0,1-1.52,1.29,5.48,5.48,0,0,1-4.45,0,4.23,4.23,0,0,1-1.53-1.29,5.46,5.46,0,0,1-.87-1.89,9.47,9.47,0,0,1,0-4.54,5.7,5.7,0,0,1,.86-1.91,4.19,4.19,0,0,1,1.52-1.31,5.44,5.44,0,0,1,4.49,0,4.19,4.19,0,0,1,1.52,1.31,5.72,5.72,0,0,1,.86,1.91A9.1,9.1,0,0,1,423.36,2221.61Zm-2,0a11.87,11.87,0,0,0-.1-1.56,4,4,0,0,0-.43-1.38,2.51,2.51,0,0,0-2.39-1.36,2.65,2.65,0,0,0-1.51.38,2.72,2.72,0,0,0-.89,1,4,4,0,0,0-.43,1.38,11.87,11.87,0,0,0-.1,1.56,11.12,11.12,0,0,0,.12,1.62,4.34,4.34,0,0,0,.44,1.4,2.6,2.6,0,0,0,.88,1,2.67,2.67,0,0,0,1.48.37,2.72,2.72,0,0,0,1.49-.37,2.48,2.48,0,0,0,.89-1,4.54,4.54,0,0,0,.43-1.4A11.25,11.25,0,0,0,421.38,2221.57Z" transform="translate(-119.68 -2210.41)"/><path class="cls-1" d="M427.78,2227.29h-1.91v-16.58h1.91Z" transform="translate(-119.68 -2210.41)"/><path class="cls-1" d="M437.18,2224.14a3.57,3.57,0,0,1-.3,1.52,2.88,2.88,0,0,1-.82,1.06,3.57,3.57,0,0,1-1.2.62,5,5,0,0,1-1.46.21,8.71,8.71,0,0,1-1.64-.16,7.42,7.42,0,0,1-1.62-.51v-1.75a11.92,11.92,0,0,0,1.47.56,5.44,5.44,0,0,0,1.62.24,2.62,2.62,0,0,0,1.41-.35,1.29,1.29,0,0,0,.56-1.19,1.51,1.51,0,0,0-.36-1,3.87,3.87,0,0,0-.88-.73,12.56,12.56,0,0,0-1.14-.62,6.67,6.67,0,0,1-1.14-.7,3.51,3.51,0,0,1-.88-1,2.92,2.92,0,0,1-.36-1.52,3,3,0,0,1,.28-1.3,2.85,2.85,0,0,1,.76-1,3.44,3.44,0,0,1,1.15-.62,4.63,4.63,0,0,1,1.45-.22,7.45,7.45,0,0,1,2.78.55V2218a11.94,11.94,0,0,0-1.25-.53,4.12,4.12,0,0,0-1.41-.23,2.18,2.18,0,0,0-1.28.35,1.17,1.17,0,0,0-.5,1,1.39,1.39,0,0,0,.35,1,3.82,3.82,0,0,0,.88.7q.53.31,1.15.61a6.39,6.39,0,0,1,1.15.71,3.56,3.56,0,0,1,.88,1A2.93,2.93,0,0,1,437.18,2224.14Z" transform="translate(-119.68 -2210.41)"/><path class="cls-1" d="M446.87,2215.93h3v1.61h-3v6.71a1.91,1.91,0,0,0,.36,1.28,1.61,1.61,0,0,0,1.25.41,4.3,4.3,0,0,0,.94-.09,4.81,4.81,0,0,0,.8-.25v1.61a4.84,4.84,0,0,1-1,.26,7.73,7.73,0,0,1-1.09.08,3.4,3.4,0,0,1-2.37-.7,3,3,0,0,1-.76-2.29v-7h-2.14v-1.61H445v-3.06h1.91Z" transform="translate(-119.68 -2210.41)"/><path class="cls-1" d="M461,2221.61a9.14,9.14,0,0,1-.28,2.29,5.49,5.49,0,0,1-.87,1.89,4.27,4.27,0,0,1-1.52,1.29,5.48,5.48,0,0,1-4.45,0,4.23,4.23,0,0,1-1.53-1.29,5.46,5.46,0,0,1-.87-1.89,9.47,9.47,0,0,1,0-4.54,5.7,5.7,0,0,1,.86-1.91,4.19,4.19,0,0,1,1.52-1.31,5.44,5.44,0,0,1,4.49,0,4.19,4.19,0,0,1,1.52,1.31,5.72,5.72,0,0,1,.86,1.91A9.1,9.1,0,0,1,461,2221.61Zm-2,0a11.87,11.87,0,0,0-.1-1.56,4,4,0,0,0-.43-1.38,2.51,2.51,0,0,0-2.39-1.36,2.65,2.65,0,0,0-1.51.38,2.72,2.72,0,0,0-.89,1,4,4,0,0,0-.43,1.38,11.87,11.87,0,0,0-.1,1.56,11.12,11.12,0,0,0,.12,1.62,4.34,4.34,0,0,0,.44,1.4,2.6,2.6,0,0,0,.88,1,2.67,2.67,0,0,0,1.48.37,2.72,2.72,0,0,0,1.49-.37,2.48,2.48,0,0,0,.89-1,4.54,4.54,0,0,0,.43-1.4A11.25,11.25,0,0,0,459,2221.57Z" transform="translate(-119.68 -2210.41)"/><path class="cls-2" d="M125.87,2242.82h2.83v3h-2.83v4a1.94,1.94,0,0,0,.26,1.16,1.2,1.2,0,0,0,1,.35,5.35,5.35,0,0,0,1-.08,5.94,5.94,0,0,0,.78-.2v3.13a6.18,6.18,0,0,1-1.35.29,13.24,13.24,0,0,1-1.4.08,6,6,0,0,1-1.67-.22,3.68,3.68,0,0,1-1.32-.67,3.07,3.07,0,0,1-.87-1.14,3.93,3.93,0,0,1-.31-1.63v-5.06h-2.28v-3H122v-2.94h3.91Z" transform="translate(-119.68 -2210.41)"/><path class="cls-2" d="M134.31,2245a5.76,5.76,0,0,1,.5-.9,4,4,0,0,1,.7-.78,3.35,3.35,0,0,1,.89-.55,2.76,2.76,0,0,1,1.09-.21,3,3,0,0,1,.78.09v3.66l-.56-.07-.47,0a4.35,4.35,0,0,0-1.51.29,3.36,3.36,0,0,0-1.23.75v7.08h-3.91v-11.48h3.33Z" transform="translate(-119.68 -2210.41)"/><path class="cls-2" d="M148.41,2254.29h-3.33l-.25-1a4.14,4.14,0,0,1-.32.33,3.28,3.28,0,0,1-.52.39,2.94,2.94,0,0,1-.74.32,3.54,3.54,0,0,1-1,.13,4,4,0,0,1-1.31-.22,2.92,2.92,0,0,1-1.08-.67,3.27,3.27,0,0,1-.74-1.13,4.3,4.3,0,0,1-.28-1.62,3.67,3.67,0,0,1,.38-1.76,3,3,0,0,1,1-1.13,4.44,4.44,0,0,1,1.54-.6,9.72,9.72,0,0,1,1.89-.17h.78v-.39a1.16,1.16,0,0,0-.16-.66,1.06,1.06,0,0,0-.41-.37,1.67,1.67,0,0,0-.55-.16,4.93,4.93,0,0,0-.58,0,7.92,7.92,0,0,0-1.29.12,9.54,9.54,0,0,0-1.5.39v-3l.84-.18,1-.16c.34,0,.67-.08,1-.1s.62,0,.9,0a7.69,7.69,0,0,1,2,.23,3.9,3.9,0,0,1,1.48.72,3.22,3.22,0,0,1,.94,1.3,5.12,5.12,0,0,1,.33,2Zm-3.91-4.81h-.67q-1.26,0-1.26,1a1.1,1.1,0,0,0,.23.7.84.84,0,0,0,.71.29,1.66,1.66,0,0,0,.53-.09,1.58,1.58,0,0,0,.46-.23Z" transform="translate(-119.68 -2210.41)"/><path class="cls-2" d="M160.25,2254.29h-3.91v-7.45q0-1.11-1.06-1.11a2.93,2.93,0,0,0-.49,0,1.78,1.78,0,0,0-.5.16v8.35h-3.91v-11.48h3.11l.32,1.38a4,4,0,0,1,1.5-1.25,3.87,3.87,0,0,1,1.68-.43,3.1,3.1,0,0,1,1.39.3,3,3,0,0,1,1,.8,3.59,3.59,0,0,1,.63,1.19,4.66,4.66,0,0,1,.22,1.44Z" transform="translate(-119.68 -2210.41)"/><path class="cls-2" d="M162.33,2250.68a10.43,10.43,0,0,0,1.91.66,6.9,6.9,0,0,0,1.49.2q1,0,1-.57a.67.67,0,0,0-.35-.59,4.92,4.92,0,0,0-.85-.42l-1.12-.44a4.42,4.42,0,0,1-1.12-.64,3.39,3.39,0,0,1-.86-1,3.28,3.28,0,0,1-.35-1.61,3.2,3.2,0,0,1,.36-1.51,3.55,3.55,0,0,1,1-1.15,4.36,4.36,0,0,1,1.4-.72,5.64,5.64,0,0,1,1.7-.25,13.11,13.11,0,0,1,1.91.13,8,8,0,0,1,1.5.36v3.11a9.11,9.11,0,0,0-1.67-.46,8,8,0,0,0-1.21-.11q-1.1,0-1.1.51a.55.55,0,0,0,.35.48,8.57,8.57,0,0,0,.86.39l1.12.46a4.52,4.52,0,0,1,1.12.68,3.54,3.54,0,0,1,.86,1.06,3.58,3.58,0,0,1,0,3.09,3.58,3.58,0,0,1-1,1.18,4.88,4.88,0,0,1-1.52.78,6.25,6.25,0,0,1-1.94.29,11.69,11.69,0,0,1-1.74-.13,7.46,7.46,0,0,1-1.69-.47Z" transform="translate(-119.68 -2210.41)"/><path class="cls-2" d="M177.4,2237.53a10.76,10.76,0,0,1,1.34.08,8.78,8.78,0,0,1,1.18.22V2241a3.74,3.74,0,0,0-.87-.24,5.46,5.46,0,0,0-.76-.06,1.74,1.74,0,0,0-1.1.29,1.23,1.23,0,0,0-.37,1v.76h2.85v3h-2.85v8.46H172.9v-8.46h-1.79v-3H173v-1.4a3.52,3.52,0,0,1,1.18-3A5.25,5.25,0,0,1,177.4,2237.53Z" transform="translate(-119.68 -2210.41)"/><path class="cls-2" d="M190.62,2248.52a8.72,8.72,0,0,1-.3,2.31,5.4,5.4,0,0,1-.94,1.92,4.54,4.54,0,0,1-1.64,1.31,5.49,5.49,0,0,1-2.4.48,5.55,5.55,0,0,1-2.43-.48,4.44,4.44,0,0,1-1.63-1.31,5.51,5.51,0,0,1-.93-1.92,8.72,8.72,0,0,1-.3-2.31,9.06,9.06,0,0,1,.29-2.3,5.48,5.48,0,0,1,.92-1.94,4.5,4.5,0,0,1,1.63-1.33,6.25,6.25,0,0,1,4.88,0,4.61,4.61,0,0,1,1.64,1.33,5.4,5.4,0,0,1,.93,1.94A9.1,9.1,0,0,1,190.62,2248.52Zm-3.84,0c0-.34,0-.68,0-1a3.24,3.24,0,0,0-.21-.9,1.66,1.66,0,0,0-.44-.64,1.24,1.24,0,0,0-1.49,0,1.66,1.66,0,0,0-.44.64,3.53,3.53,0,0,0-.22.9,8.46,8.46,0,0,0-.06,1,8.92,8.92,0,0,0,.06,1.06,3.69,3.69,0,0,0,.22.92,1.56,1.56,0,0,0,.44.64,1.29,1.29,0,0,0,1.49,0,1.56,1.56,0,0,0,.44-.64,3.39,3.39,0,0,0,.21-.92Q186.77,2249,186.77,2248.48Z" transform="translate(-119.68 -2210.41)"/><path class="cls-2" d="M195.91,2245a5.76,5.76,0,0,1,.5-.9,4,4,0,0,1,.7-.78,3.35,3.35,0,0,1,.89-.55,2.76,2.76,0,0,1,1.09-.21,3,3,0,0,1,.78.09v3.66l-.56-.07-.47,0a4.35,4.35,0,0,0-1.51.29,3.36,3.36,0,0,0-1.23.75v7.08h-3.91v-11.48h3.33Z" transform="translate(-119.68 -2210.41)"/><path class="cls-2" d="M216.47,2254.29h-3.91v-7.57a1.28,1.28,0,0,0-.19-.68.78.78,0,0,0-.72-.31,2.75,2.75,0,0,0-.43,0,1.4,1.4,0,0,0-.41.13v8.39h-3.93v-7.57a1.32,1.32,0,0,0-.18-.68.75.75,0,0,0-.7-.31,2.6,2.6,0,0,0-.42,0,1.33,1.33,0,0,0-.4.13v8.39h-3.91v-11.48h3.1l.32,1.38a4.14,4.14,0,0,1,1.47-1.25,3.7,3.7,0,0,1,1.67-.43,2.7,2.7,0,0,1,1.44.43,2.87,2.87,0,0,1,1.08,1.23,4.07,4.07,0,0,1,1.46-1.24,3.74,3.74,0,0,1,1.67-.41,2.6,2.6,0,0,1,1.12.25,2.84,2.84,0,0,1,1,.74,3.78,3.78,0,0,1,.67,1.17,4.52,4.52,0,0,1,.25,1.56Z" transform="translate(-119.68 -2210.41)"/><path class="cls-2" d="M228,2242.82h2.83v3H228v4a1.94,1.94,0,0,0,.26,1.16,1.2,1.2,0,0,0,1,.35,5.35,5.35,0,0,0,1-.08,5.94,5.94,0,0,0,.78-.2v3.13a6.18,6.18,0,0,1-1.35.29,13.24,13.24,0,0,1-1.4.08,6,6,0,0,1-1.67-.22,3.68,3.68,0,0,1-1.32-.67,3.06,3.06,0,0,1-.87-1.14,3.92,3.92,0,0,1-.31-1.63v-5.06h-2.28v-3h2.28v-2.94H228Z" transform="translate(-119.68 -2210.41)"/><path class="cls-2" d="M242.5,2254.29h-3.91v-7.57a1,1,0,0,0-.24-.73.93.93,0,0,0-.71-.26,3.24,3.24,0,0,0-.48,0,2.51,2.51,0,0,0-.52.14v8.37h-3.91v-16.58h3.86v6a3.8,3.8,0,0,1,1.24-.85,3.74,3.74,0,0,1,1.52-.32,2.89,2.89,0,0,1,1.37.31,2.92,2.92,0,0,1,1,.83,3.82,3.82,0,0,1,.6,1.2,4.76,4.76,0,0,1,.21,1.39Z" transform="translate(-119.68 -2210.41)"/><path class="cls-2" d="M247.84,2249.81a1.42,1.42,0,0,0,.68,1.31,3.74,3.74,0,0,0,1.94.41,7.82,7.82,0,0,0,1.62-.16,10.74,10.74,0,0,0,1.6-.48v3a7.15,7.15,0,0,1-1.59.46,10.27,10.27,0,0,1-1.82.16,6.82,6.82,0,0,1-4.69-1.43,5.81,5.81,0,0,1-1.59-4.53,8,8,0,0,1,.33-2.31,5.76,5.76,0,0,1,1-2A5,5,0,0,1,247,2243a5.23,5.23,0,0,1,2.37-.51,4.79,4.79,0,0,1,2.16.45,4,4,0,0,1,1.46,1.23,5.18,5.18,0,0,1,.82,1.83,9.56,9.56,0,0,1,.25,2.24c0,.23,0,.49,0,.78s0,.57-.06.83Zm2.74-2.32a3,3,0,0,0-.31-1.49,1,1,0,0,0-1-.53,1.2,1.2,0,0,0-.68.18,1.64,1.64,0,0,0-.46.47,2,2,0,0,0-.27.65,3.26,3.26,0,0,0-.08.72Z" transform="translate(-119.68 -2210.41)"/><path class="cls-2" d="M270.33,2249.4l1.2-6.58h3.91l-3.06,11.48h-3.45l-1.77-7-1.66,7h-3.45L259,2242.82h3.91l1.22,6.65,1.4-6.65H269Z" transform="translate(-119.68 -2210.41)"/><path class="cls-2" d="M285.6,2254.29h-3.33l-.25-1a4.14,4.14,0,0,1-.32.33,3.28,3.28,0,0,1-.52.39,2.94,2.94,0,0,1-.74.32,3.54,3.54,0,0,1-1,.13,4,4,0,0,1-1.31-.22,2.92,2.92,0,0,1-1.08-.67,3.27,3.27,0,0,1-.74-1.13,4.3,4.3,0,0,1-.28-1.62,3.67,3.67,0,0,1,.38-1.76,3,3,0,0,1,1-1.13,4.44,4.44,0,0,1,1.54-.6,9.72,9.72,0,0,1,1.89-.17h.78v-.39a1.16,1.16,0,0,0-.16-.66,1.06,1.06,0,0,0-.41-.37,1.67,1.67,0,0,0-.55-.16,4.93,4.93,0,0,0-.58,0,7.92,7.92,0,0,0-1.29.12,9.54,9.54,0,0,0-1.5.39v-3l.84-.18,1-.16c.34,0,.67-.08,1-.1s.62,0,.9,0a7.69,7.69,0,0,1,2,.23,3.9,3.9,0,0,1,1.48.72,3.22,3.22,0,0,1,.94,1.3,5.12,5.12,0,0,1,.33,2Zm-3.91-4.81H281q-1.26,0-1.26,1a1.1,1.1,0,0,0,.23.7.84.84,0,0,0,.71.29,1.66,1.66,0,0,0,.53-.09,1.58,1.58,0,0,0,.46-.23Z" transform="translate(-119.68 -2210.41)"/><path class="cls-2" d="M286.41,2242.82h3.91l2,6.46,1.72-6.46H298l-4,11.34a13.21,13.21,0,0,1-.76,1.75,4.93,4.93,0,0,1-1,1.32,4.24,4.24,0,0,1-1.37.84,5.29,5.29,0,0,1-1.89.3q-.74,0-1.32-.06a9.27,9.27,0,0,1-1.18-.2v-3.22a6.91,6.91,0,0,0,1.79.25,3.3,3.3,0,0,0,1.29-.2,1.17,1.17,0,0,0,.62-.72l.18-.53Z" transform="translate(-119.68 -2210.41)"/><path class="cls-2" d="M303.22,2250.68a10.43,10.43,0,0,0,1.91.66,6.9,6.9,0,0,0,1.49.2q1,0,1-.57a.67.67,0,0,0-.35-.59,4.92,4.92,0,0,0-.85-.42l-1.12-.44a4.42,4.42,0,0,1-1.12-.64,3.39,3.39,0,0,1-.86-1,3.28,3.28,0,0,1-.35-1.61,3.2,3.2,0,0,1,.36-1.51,3.55,3.55,0,0,1,1-1.15,4.36,4.36,0,0,1,1.4-.72,5.64,5.64,0,0,1,1.7-.25,13.11,13.11,0,0,1,1.91.13,8,8,0,0,1,1.5.36v3.11a9.11,9.11,0,0,0-1.67-.46,8,8,0,0,0-1.21-.11q-1.1,0-1.1.51a.55.55,0,0,0,.35.48,8.57,8.57,0,0,0,.86.39l1.12.46a4.52,4.52,0,0,1,1.12.68,3.54,3.54,0,0,1,.86,1.06,3.58,3.58,0,0,1,0,3.09,3.58,3.58,0,0,1-1,1.18,4.88,4.88,0,0,1-1.52.78,6.25,6.25,0,0,1-1.94.29,11.69,11.69,0,0,1-1.74-.13,7.46,7.46,0,0,1-1.69-.47Z" transform="translate(-119.68 -2210.41)"/><path class="cls-2" d="M321.94,2254.29h-3.33l-.25-1a4.14,4.14,0,0,1-.32.33,3.28,3.28,0,0,1-.52.39,2.94,2.94,0,0,1-.74.32,3.54,3.54,0,0,1-1,.13,4,4,0,0,1-1.31-.22,2.92,2.92,0,0,1-1.08-.67,3.27,3.27,0,0,1-.74-1.13,4.3,4.3,0,0,1-.28-1.62,3.67,3.67,0,0,1,.38-1.76,3,3,0,0,1,1-1.13,4.44,4.44,0,0,1,1.54-.6,9.72,9.72,0,0,1,1.89-.17H318v-.39a1.16,1.16,0,0,0-.16-.66,1.06,1.06,0,0,0-.41-.37,1.67,1.67,0,0,0-.55-.16,4.93,4.93,0,0,0-.58,0,7.92,7.92,0,0,0-1.29.12,9.54,9.54,0,0,0-1.5.39v-3l.84-.18,1-.16c.34,0,.67-.08,1-.1s.62,0,.9,0a7.69,7.69,0,0,1,2,.23,3.9,3.9,0,0,1,1.48.72,3.22,3.22,0,0,1,.94,1.3,5.12,5.12,0,0,1,.33,2Zm-3.91-4.81h-.67q-1.26,0-1.26,1a1.1,1.1,0,0,0,.23.7.84.84,0,0,0,.71.29,1.66,1.66,0,0,0,.53-.09,1.58,1.58,0,0,0,.46-.23Z" transform="translate(-119.68 -2210.41)"/><path class="cls-2" d="M328,2254.29H324.1v-16.58H328Z" transform="translate(-119.68 -2210.41)"/><path class="cls-2" d="M333.72,2249.81a1.42,1.42,0,0,0,.68,1.31,3.74,3.74,0,0,0,1.94.41,7.82,7.82,0,0,0,1.62-.16,10.74,10.74,0,0,0,1.6-.48v3a7.15,7.15,0,0,1-1.59.46,10.27,10.27,0,0,1-1.82.16,6.82,6.82,0,0,1-4.69-1.43,5.81,5.81,0,0,1-1.59-4.53,8,8,0,0,1,.33-2.31,5.76,5.76,0,0,1,1-2,5,5,0,0,1,1.69-1.36,5.23,5.23,0,0,1,2.37-.51,4.79,4.79,0,0,1,2.16.45,4,4,0,0,1,1.46,1.23,5.18,5.18,0,0,1,.82,1.83,9.56,9.56,0,0,1,.25,2.24c0,.23,0,.49,0,.78s0,.57-.06.83Zm2.74-2.32a3,3,0,0,0-.31-1.49,1,1,0,0,0-1-.53,1.2,1.2,0,0,0-.68.18,1.64,1.64,0,0,0-.46.47,2,2,0,0,0-.27.65,3.26,3.26,0,0,0-.08.72Z" transform="translate(-119.68 -2210.41)"/><path class="cls-2" d="M341.91,2250.68a10.43,10.43,0,0,0,1.91.66,6.9,6.9,0,0,0,1.49.2q1,0,1-.57a.67.67,0,0,0-.35-.59,4.92,4.92,0,0,0-.85-.42l-1.12-.44a4.42,4.42,0,0,1-1.12-.64,3.39,3.39,0,0,1-.86-1,3.28,3.28,0,0,1-.35-1.61,3.2,3.2,0,0,1,.36-1.51,3.55,3.55,0,0,1,1-1.15,4.36,4.36,0,0,1,1.4-.72,5.64,5.64,0,0,1,1.7-.25,13.11,13.11,0,0,1,1.91.13,8,8,0,0,1,1.5.36v3.11a9.11,9.11,0,0,0-1.67-.46,8,8,0,0,0-1.21-.11q-1.1,0-1.1.51a.55.55,0,0,0,.35.48,8.57,8.57,0,0,0,.86.39l1.12.46a4.52,4.52,0,0,1,1.12.68,3.54,3.54,0,0,1,.86,1.06,3.58,3.58,0,0,1,0,3.09,3.58,3.58,0,0,1-1,1.18,4.88,4.88,0,0,1-1.52.78,6.25,6.25,0,0,1-1.94.29,11.69,11.69,0,0,1-1.74-.13,7.46,7.46,0,0,1-1.69-.47Z" transform="translate(-119.68 -2210.41)"/><path class="cls-2" d="M361.2,2242.82H364v3H361.2v4a1.94,1.94,0,0,0,.26,1.16,1.2,1.2,0,0,0,1,.35,5.35,5.35,0,0,0,1-.08,5.94,5.94,0,0,0,.78-.2v3.13a6.18,6.18,0,0,1-1.35.29,13.24,13.24,0,0,1-1.4.08,6,6,0,0,1-1.67-.22,3.68,3.68,0,0,1-1.32-.67,3.06,3.06,0,0,1-.87-1.14,3.92,3.92,0,0,1-.31-1.63v-5.06H355v-3h2.28v-2.94h3.91Z" transform="translate(-119.68 -2210.41)"/><path class="cls-2" d="M368.91,2249.81a1.42,1.42,0,0,0,.68,1.31,3.74,3.74,0,0,0,1.94.41,7.82,7.82,0,0,0,1.62-.16,10.74,10.74,0,0,0,1.6-.48v3a7.15,7.15,0,0,1-1.59.46,10.27,10.27,0,0,1-1.82.16,6.82,6.82,0,0,1-4.69-1.43,5.81,5.81,0,0,1-1.59-4.53,8,8,0,0,1,.33-2.31,5.76,5.76,0,0,1,1-2,5,5,0,0,1,1.69-1.36,5.23,5.23,0,0,1,2.37-.51,4.79,4.79,0,0,1,2.16.45,4,4,0,0,1,1.46,1.23,5.18,5.18,0,0,1,.82,1.83,9.56,9.56,0,0,1,.25,2.24c0,.23,0,.49,0,.78s0,.57-.06.83Zm2.74-2.32a3,3,0,0,0-.31-1.49,1,1,0,0,0-1-.53,1.2,1.2,0,0,0-.68.18,1.64,1.64,0,0,0-.46.47,2,2,0,0,0-.27.65,3.26,3.26,0,0,0-.08.72Z" transform="translate(-119.68 -2210.41)"/><path class="cls-2" d="M386.22,2254.29h-3.33l-.25-1a4.14,4.14,0,0,1-.32.33,3.28,3.28,0,0,1-.52.39,2.94,2.94,0,0,1-.74.32,3.54,3.54,0,0,1-1,.13,4,4,0,0,1-1.31-.22,2.92,2.92,0,0,1-1.08-.67,3.27,3.27,0,0,1-.74-1.13,4.3,4.3,0,0,1-.28-1.62,3.67,3.67,0,0,1,.38-1.76,3,3,0,0,1,1-1.13,4.44,4.44,0,0,1,1.54-.6,9.72,9.72,0,0,1,1.89-.17h.78v-.39a1.16,1.16,0,0,0-.16-.66,1.06,1.06,0,0,0-.41-.37,1.67,1.67,0,0,0-.55-.16,4.93,4.93,0,0,0-.58,0,7.92,7.92,0,0,0-1.29.12,9.54,9.54,0,0,0-1.5.39v-3l.84-.18,1-.16c.34,0,.67-.08,1-.1s.62,0,.9,0a7.69,7.69,0,0,1,2,.23,3.9,3.9,0,0,1,1.48.72,3.22,3.22,0,0,1,.94,1.3,5.12,5.12,0,0,1,.33,2Zm-3.91-4.81h-.67q-1.26,0-1.26,1a1.1,1.1,0,0,0,.23.7.84.84,0,0,0,.71.29,1.66,1.66,0,0,0,.53-.09,1.58,1.58,0,0,0,.46-.23Z" transform="translate(-119.68 -2210.41)"/><path class="cls-2" d="M403.41,2254.29H399.5v-7.57a1.28,1.28,0,0,0-.19-.68.78.78,0,0,0-.72-.31,2.75,2.75,0,0,0-.43,0,1.4,1.4,0,0,0-.41.13v8.39h-3.93v-7.57a1.32,1.32,0,0,0-.18-.68.75.75,0,0,0-.7-.31,2.6,2.6,0,0,0-.42,0,1.33,1.33,0,0,0-.4.13v8.39H388.2v-11.48h3.1l.32,1.38a4.14,4.14,0,0,1,1.47-1.25,3.7,3.7,0,0,1,1.67-.43,2.7,2.7,0,0,1,1.44.43,2.87,2.87,0,0,1,1.08,1.23,4.07,4.07,0,0,1,1.46-1.24,3.74,3.74,0,0,1,1.67-.41,2.6,2.6,0,0,1,1.12.25,2.84,2.84,0,0,1,1,.74,3.78,3.78,0,0,1,.67,1.17,4.52,4.52,0,0,1,.25,1.56Z" transform="translate(-119.68 -2210.41)"/><path class="cls-2" d="M405.47,2250.68a10.43,10.43,0,0,0,1.91.66,6.9,6.9,0,0,0,1.49.2q1,0,1-.57a.67.67,0,0,0-.35-.59,4.92,4.92,0,0,0-.85-.42l-1.12-.44a4.42,4.42,0,0,1-1.12-.64,3.39,3.39,0,0,1-.86-1,3.28,3.28,0,0,1-.35-1.61,3.2,3.2,0,0,1,.36-1.51,3.55,3.55,0,0,1,1-1.15,4.36,4.36,0,0,1,1.4-.72,5.64,5.64,0,0,1,1.7-.25,13.11,13.11,0,0,1,1.91.13,8,8,0,0,1,1.5.36v3.11a9.11,9.11,0,0,0-1.67-.46,8,8,0,0,0-1.21-.11q-1.1,0-1.1.51a.55.55,0,0,0,.35.48,8.57,8.57,0,0,0,.86.39l1.12.46a4.52,4.52,0,0,1,1.12.68,3.54,3.54,0,0,1,.86,1.06,3.58,3.58,0,0,1,0,3.09,3.58,3.58,0,0,1-1,1.18,4.88,4.88,0,0,1-1.52.78,6.25,6.25,0,0,1-1.94.29,11.69,11.69,0,0,1-1.74-.13,7.46,7.46,0,0,1-1.69-.47Z" transform="translate(-119.68 -2210.41)"/><path class="cls-2" d="M429.6,2249.4l1.2-6.58h3.91l-3.06,11.48H428.2l-1.77-7-1.66,7h-3.45l-3.06-11.48h3.91l1.22,6.65,1.4-6.65h3.43Z" transform="translate(-119.68 -2210.41)"/><path class="cls-2" d="M445.79,2248.52a8.72,8.72,0,0,1-.3,2.31,5.4,5.4,0,0,1-.94,1.92,4.54,4.54,0,0,1-1.64,1.31,5.49,5.49,0,0,1-2.4.48,5.55,5.55,0,0,1-2.43-.48,4.44,4.44,0,0,1-1.63-1.31,5.51,5.51,0,0,1-.93-1.92,8.72,8.72,0,0,1-.3-2.31,9.06,9.06,0,0,1,.29-2.3,5.48,5.48,0,0,1,.92-1.94,4.5,4.5,0,0,1,1.63-1.33,6.25,6.25,0,0,1,4.88,0,4.61,4.61,0,0,1,1.64,1.33,5.4,5.4,0,0,1,.93,1.94A9.1,9.1,0,0,1,445.79,2248.52Zm-3.84,0c0-.34,0-.68,0-1a3.24,3.24,0,0,0-.21-.9,1.66,1.66,0,0,0-.44-.64,1.24,1.24,0,0,0-1.49,0,1.66,1.66,0,0,0-.44.64,3.53,3.53,0,0,0-.22.9,8.46,8.46,0,0,0-.06,1,8.92,8.92,0,0,0,.06,1.06,3.69,3.69,0,0,0,.22.92,1.56,1.56,0,0,0,.44.64,1.29,1.29,0,0,0,1.49,0,1.56,1.56,0,0,0,.44-.64,3.39,3.39,0,0,0,.21-.92Q442,2249,442,2248.48Z" transform="translate(-119.68 -2210.41)"/><path class="cls-2" d="M451.08,2245a5.76,5.76,0,0,1,.5-.9,4,4,0,0,1,.7-.78,3.35,3.35,0,0,1,.89-.55,2.76,2.76,0,0,1,1.09-.21,3,3,0,0,1,.78.09v3.66l-.56-.07-.47,0a4.35,4.35,0,0,0-1.51.29,3.36,3.36,0,0,0-1.23.75v7.08h-3.91v-11.48h3.33Z" transform="translate(-119.68 -2210.41)"/><path class="cls-2" d="M464.35,2247.81l3.68,6.49h-3.91l-3.38-5.61h-.18v5.61h-3.91v-16.58h3.89v9.5h.25l3.15-4.39h3.91Z" transform="translate(-119.68 -2210.41)"/><path class="cls-2" d="M469,2257.42a8.28,8.28,0,0,0,1.1-1.46,10.36,10.36,0,0,0,.74-1.53,1.94,1.94,0,0,1-1.61-2,2.18,2.18,0,0,1,.64-1.61,2.67,2.67,0,0,1,3.53,0,2.31,2.31,0,0,1,.63,1.61,4.91,4.91,0,0,1-.18,1.31,8.21,8.21,0,0,1-.49,1.32,12.75,12.75,0,0,1-.69,1.26q-.38.61-.75,1.09Z" transform="translate(-119.68 -2210.41)"/></svg>