<svg id="text" xmlns="http://www.w3.org/2000/svg" viewBox="0 0 145.4 44.02"><defs><style>.cls-1{fill:#004796;}.cls-2{fill:#282828;}</style></defs><path class="cls-1" d="M573.92,2867.9a19.55,19.55,0,0,0-2.12,3,27.27,27.27,0,0,0-1.66,3.48,26.47,26.47,0,0,0-1.15,3.7,26.87,26.87,0,0,0-.6,3.7h-3.06a28.43,28.43,0,0,1,1.69-7.3,25.26,25.26,0,0,1,3.83-6.8h-7.94v-2.48h11Z" transform="translate(-552.79 -2865.07)"/><path class="cls-1" d="M587.12,2873.58a18.78,18.78,0,0,1-.26,3.17,8.8,8.8,0,0,1-.91,2.73,5.18,5.18,0,0,1-1.74,1.9,4.89,4.89,0,0,1-2.73.71,4.78,4.78,0,0,1-2.69-.71,5.3,5.3,0,0,1-1.74-1.9,8.76,8.76,0,0,1-.93-2.73,18.5,18.5,0,0,1,0-6.37,8.63,8.63,0,0,1,.93-2.71,5.34,5.34,0,0,1,1.74-1.89,4.79,4.79,0,0,1,2.69-.71,4.84,4.84,0,0,1,2.71.71,5.36,5.36,0,0,1,1.74,1.89,8.48,8.48,0,0,1,.92,2.71A18.93,18.93,0,0,1,587.12,2873.58Zm-3.06,0q0-1-.07-2a8.88,8.88,0,0,0-.33-1.94,4,4,0,0,0-.77-1.47,2,2,0,0,0-2.79,0,3.84,3.84,0,0,0-.78,1.47,8.76,8.76,0,0,0-.33,1.94q-.07,1.06-.07,2t.08,1.94a9.25,9.25,0,0,0,.34,1.93,4,4,0,0,0,.77,1.47,1.91,1.91,0,0,0,2.76,0,4.07,4.07,0,0,0,.77-1.48,9.23,9.23,0,0,0,.34-1.92Q584.06,2874.53,584.06,2873.63Z" transform="translate(-552.79 -2865.07)"/><path class="cls-1" d="M600.34,2873.58a18.78,18.78,0,0,1-.26,3.17,8.8,8.8,0,0,1-.91,2.73,5.18,5.18,0,0,1-1.74,1.9,4.89,4.89,0,0,1-2.73.71,4.78,4.78,0,0,1-2.69-.71,5.3,5.3,0,0,1-1.74-1.9,8.76,8.76,0,0,1-.93-2.73,18.5,18.5,0,0,1,0-6.37,8.63,8.63,0,0,1,.93-2.71,5.34,5.34,0,0,1,1.74-1.89,4.79,4.79,0,0,1,2.69-.71,4.84,4.84,0,0,1,2.71.71,5.36,5.36,0,0,1,1.74,1.89,8.48,8.48,0,0,1,.92,2.71A18.93,18.93,0,0,1,600.34,2873.58Zm-3.06,0q0-1-.07-2a8.88,8.88,0,0,0-.33-1.94,4,4,0,0,0-.77-1.47,2,2,0,0,0-2.79,0,3.84,3.84,0,0,0-.78,1.47,8.76,8.76,0,0,0-.33,1.94q-.07,1.06-.07,2t.08,1.94a9.25,9.25,0,0,0,.34,1.93,4,4,0,0,0,.77,1.47,1.91,1.91,0,0,0,2.76,0,4.07,4.07,0,0,0,.77-1.48,9.23,9.23,0,0,0,.34-1.92Q597.29,2874.53,597.29,2873.63Z" transform="translate(-552.79 -2865.07)"/><path class="cls-1" d="M616.79,2875.93a11.36,11.36,0,0,1-.22,2.21,6.39,6.39,0,0,1-.74,2,4.1,4.1,0,0,1-1.38,1.43,3.94,3.94,0,0,1-2.13.54,3.8,3.8,0,0,1-1.47-.25,3.12,3.12,0,0,1-1.06-.74v4.65h-2.9v-15.27h2.55l.23,1.06a4.09,4.09,0,0,1,1.26-.94,3.7,3.7,0,0,1,1.68-.39,3.84,3.84,0,0,1,2,.47,3.71,3.71,0,0,1,1.28,1.25,5.48,5.48,0,0,1,.69,1.83A11.19,11.19,0,0,1,616.79,2875.93Zm-3,.07a8.89,8.89,0,0,0-.08-1.18,3.59,3.59,0,0,0-.32-1.1,2.2,2.2,0,0,0-.66-.81,1.71,1.71,0,0,0-1.06-.31,2.89,2.89,0,0,0-1,.18,3.5,3.5,0,0,0-.9.51v5.66a3.77,3.77,0,0,0,.81.54,2.22,2.22,0,0,0,1,.22,1.75,1.75,0,0,0,1.12-.34,2.4,2.4,0,0,0,.68-.87,4.1,4.1,0,0,0,.34-1.19A9.42,9.42,0,0,0,613.82,2876Z" transform="translate(-552.79 -2865.07)"/><path class="cls-1" d="M621.76,2872.32a4.21,4.21,0,0,1,1.24-1.6,2.52,2.52,0,0,1,1.5-.52,5.32,5.32,0,0,1,.62,0,2.13,2.13,0,0,1,.58.15v2.3a5.25,5.25,0,0,0-.64-.08h-.48a3.76,3.76,0,0,0-1.44.29,4.76,4.76,0,0,0-1.23.72v8.23H619v-11.36h2.44Z" transform="translate(-552.79 -2865.07)"/><path class="cls-1" d="M636.48,2876.16a8.93,8.93,0,0,1-.29,2.3,5.27,5.27,0,0,1-.91,1.89,4.42,4.42,0,0,1-1.59,1.28,5.25,5.25,0,0,1-2.32.47,5.19,5.19,0,0,1-2.3-.47,4.41,4.41,0,0,1-1.59-1.28,5.27,5.27,0,0,1-.91-1.89,8.93,8.93,0,0,1-.29-2.3,9.19,9.19,0,0,1,.28-2.28,5.36,5.36,0,0,1,.89-1.9,4.36,4.36,0,0,1,1.58-1.3,5.92,5.92,0,0,1,4.69,0,4.46,4.46,0,0,1,1.59,1.3,5.25,5.25,0,0,1,.9,1.9A9.19,9.19,0,0,1,636.48,2876.16Zm-3,0a12,12,0,0,0-.07-1.32,3.45,3.45,0,0,0-.3-1.12,2,2,0,0,0-.64-.78,1.89,1.89,0,0,0-1.13-.3,1.85,1.85,0,0,0-1.1.3,1.93,1.93,0,0,0-.63.78,3.87,3.87,0,0,0-.3,1.12,10.46,10.46,0,0,0-.08,1.32,10.76,10.76,0,0,0,.08,1.33,4.17,4.17,0,0,0,.3,1.15,1.9,1.9,0,0,0,.63.81,1.85,1.85,0,0,0,1.1.3,1.9,1.9,0,0,0,1.12-.3,1.87,1.87,0,0,0,.64-.81,4.2,4.2,0,0,0,.3-1.15A11,11,0,0,0,633.51,2876.11Z" transform="translate(-552.79 -2865.07)"/><path class="cls-1" d="M647.93,2881.84h-2.51l-.23-1a4.07,4.07,0,0,1-1.13.86,3.52,3.52,0,0,1-1.66.36,4,4,0,0,1-2-.48,3.88,3.88,0,0,1-1.34-1.3,5.75,5.75,0,0,1-.74-1.9,10.92,10.92,0,0,1-.23-2.28,9,9,0,0,1,.26-2.17,6,6,0,0,1,.83-1.91,4.3,4.3,0,0,1,1.43-1.34,4.09,4.09,0,0,1,2.09-.51,3,3,0,0,1,1.41.3,3.93,3.93,0,0,1,1,.69v-5.93h2.92Zm-2.9-8.69a3.3,3.3,0,0,0-.73-.39,2.79,2.79,0,0,0-1-.16,2.07,2.07,0,0,0-1.11.28,2,2,0,0,0-.71.75,3.4,3.4,0,0,0-.37,1.11,8.91,8.91,0,0,0,0,2.7,4.07,4.07,0,0,0,.35,1.16,2.09,2.09,0,0,0,.69.81,1.93,1.93,0,0,0,1.12.3,2.74,2.74,0,0,0,1-.16,3.59,3.59,0,0,0,.8-.41Z" transform="translate(-552.79 -2865.07)"/><path class="cls-1" d="M650.74,2870.48h2.9V2878a2.09,2.09,0,0,0,.31,1.28,1.36,1.36,0,0,0,1.14.4,2.16,2.16,0,0,0,1-.24,4.76,4.76,0,0,0,.89-.59v-8.37h2.9v11.36h-2.6l-.23-1.22a5.09,5.09,0,0,1-1.25,1,3.29,3.29,0,0,1-1.71.47,3.24,3.24,0,0,1-2.48-.91,3.71,3.71,0,0,1-.85-2.63Z" transform="translate(-552.79 -2865.07)"/><path class="cls-1" d="M667.89,2879.7a6.21,6.21,0,0,0,1.36-.13,13,13,0,0,0,1.29-.38v2.41a6.91,6.91,0,0,1-1.48.37,11.7,11.7,0,0,1-1.62.11,6.06,6.06,0,0,1-2.38-.42,4.44,4.44,0,0,1-1.67-1.21,5,5,0,0,1-1-1.9,8.9,8.9,0,0,1-.32-2.47,7.62,7.62,0,0,1,.34-2.32,5.27,5.27,0,0,1,1-1.87,4.77,4.77,0,0,1,1.71-1.24,5.89,5.89,0,0,1,2.38-.45,10.23,10.23,0,0,1,1.46.09,11,11,0,0,1,1.37.3v2.48q-.67-.23-1.21-.36a5,5,0,0,0-1.14-.13,2.74,2.74,0,0,0-2.23.91,3.69,3.69,0,0,0-.76,2.45,7.08,7.08,0,0,0,.15,1.5,3.44,3.44,0,0,0,.48,1.19,2.31,2.31,0,0,0,.87.78A2.91,2.91,0,0,0,667.89,2879.7Z" transform="translate(-552.79 -2865.07)"/><path class="cls-1" d="M676.38,2870.48h2.92v2.35h-2.92v5.3a1.72,1.72,0,0,0,.34,1.24,1.5,1.5,0,0,0,1.08.34,5.37,5.37,0,0,0,1.79-.3v2.35a10,10,0,0,1-1.17.25,9.32,9.32,0,0,1-1.4.09,3.54,3.54,0,0,1-2.63-.92,3.6,3.6,0,0,1-.91-2.65v-5.7H671.3v-2.35h2.18v-3.06h2.9Z" transform="translate(-552.79 -2865.07)"/><path class="cls-1" d="M683.58,2873.53a.86.86,0,0,0,.35.71,4.36,4.36,0,0,0,.86.51l1.11.5a5.34,5.34,0,0,1,1.11.67,3.41,3.41,0,0,1,.86,1,3,3,0,0,1,.35,1.51,3.35,3.35,0,0,1-1.14,2.67,4.55,4.55,0,0,1-3.09,1,10.7,10.7,0,0,1-1.61-.13,7.24,7.24,0,0,1-1.7-.5v-2.58a7.45,7.45,0,0,0,3.13.8,2.2,2.2,0,0,0,1-.22.83.83,0,0,0,.41-.81,1,1,0,0,0-.34-.8,3.73,3.73,0,0,0-.86-.54q-.51-.24-1.12-.49a5.26,5.26,0,0,1-1.12-.63,3.18,3.18,0,0,1-.86-1,3.06,3.06,0,0,1-.34-1.54,3.22,3.22,0,0,1,1.17-2.55,3.85,3.85,0,0,1,1.3-.7,5.24,5.24,0,0,1,1.62-.24,10.74,10.74,0,0,1,1.46.1,6.64,6.64,0,0,1,1.51.4v2.53a12,12,0,0,0-1.43-.48,4.89,4.89,0,0,0-1.21-.16,2.22,2.22,0,0,0-1.05.22A.75.75,0,0,0,683.58,2873.53Z" transform="translate(-552.79 -2865.07)"/><path class="cls-2" d="M554.68,2899.32a4.57,4.57,0,0,1,1.3-1.48,3,3,0,0,1,1.85-.63,5.41,5.41,0,0,1,.71.05v1.56l-.32,0h-.32a3.7,3.7,0,0,0-1.64.41,5.61,5.61,0,0,0-1.55,1.15v8.49h-1.91v-11.36h1.66Z" transform="translate(-552.79 -2865.07)"/><path class="cls-2" d="M561.28,2903.71a5.47,5.47,0,0,0,.18,1.43,3.47,3.47,0,0,0,.58,1.21,2.77,2.77,0,0,0,1.05.83,3.75,3.75,0,0,0,1.59.3,7.42,7.42,0,0,0,3.19-.78v1.66a6.53,6.53,0,0,1-1.69.55,9.75,9.75,0,0,1-1.85.18,5.41,5.41,0,0,1-2.27-.44,4.21,4.21,0,0,1-1.58-1.22,5,5,0,0,1-.91-1.87,9.55,9.55,0,0,1-.29-2.43,8.83,8.83,0,0,1,.29-2.28,5.65,5.65,0,0,1,.87-1.89,4.41,4.41,0,0,1,1.47-1.29,4.28,4.28,0,0,1,2.08-.48,4,4,0,0,1,2,.45,3.78,3.78,0,0,1,1.31,1.2,5,5,0,0,1,.72,1.74,9.47,9.47,0,0,1,.22,2v.62a4.53,4.53,0,0,1,0,.46Zm5-1.61a8.28,8.28,0,0,0-.09-1.22,2.9,2.9,0,0,0-.36-1.06,2,2,0,0,0-.75-.73,2.46,2.46,0,0,0-1.24-.28,2.09,2.09,0,0,0-1,.25,2.47,2.47,0,0,0-.78.69,3.43,3.43,0,0,0-.52,1,4.88,4.88,0,0,0-.21,1.3Z" transform="translate(-552.79 -2865.07)"/><path class="cls-2" d="M579.33,2908.84h-1.61l-.23-1a5.31,5.31,0,0,1-1.18.86,3.61,3.61,0,0,1-1.78.4,4.42,4.42,0,0,1-2-.44,3.82,3.82,0,0,1-1.4-1.22,5.3,5.3,0,0,1-.8-1.84,9.81,9.81,0,0,1-.25-2.28,10,10,0,0,1,.27-2.38,5.84,5.84,0,0,1,.85-1.94,4.16,4.16,0,0,1,1.47-1.31,4.42,4.42,0,0,1,2.13-.48,3.67,3.67,0,0,1,1.55.31,5.55,5.55,0,0,1,1.09.63v-5.89h1.93Zm-1.91-9.18a5.51,5.51,0,0,0-1.07-.61,3.2,3.2,0,0,0-1.27-.24,3,3,0,0,0-1.51.35,2.57,2.57,0,0,0-.94.94,4.16,4.16,0,0,0-.48,1.38,9.89,9.89,0,0,0-.14,1.7,8.67,8.67,0,0,0,.15,1.64,4.16,4.16,0,0,0,.5,1.37,2.72,2.72,0,0,0,.93.94,2.68,2.68,0,0,0,1.42.35,3.67,3.67,0,0,0,2.4-.94Z" transform="translate(-552.79 -2865.07)"/><path class="cls-2" d="M582.51,2897.48h1.91v7.67a2.94,2.94,0,0,0,.44,1.71,1.75,1.75,0,0,0,1.54.62A2.75,2.75,0,0,0,588,2907a6.59,6.59,0,0,0,1.26-1.09v-8.42h1.91v11.36H589.5l-.23-1.4q-.3.3-.63.6a4.15,4.15,0,0,1-.75.53,4.58,4.58,0,0,1-.92.38,4,4,0,0,1-1.13.15,3,3,0,0,1-3.33-3.36Z" transform="translate(-552.79 -2865.07)"/><path class="cls-2" d="M599.09,2907.48a5.3,5.3,0,0,0,1.38-.17,13.71,13.71,0,0,0,1.31-.43v1.66a6.35,6.35,0,0,1-1.35.4,8,8,0,0,1-1.53.15,6.07,6.07,0,0,1-2.38-.42,4.29,4.29,0,0,1-1.64-1.2,5,5,0,0,1-1-1.88,9.31,9.31,0,0,1-.31-2.5,7.73,7.73,0,0,1,.31-2.19,5.61,5.61,0,0,1,1-1.88,4.72,4.72,0,0,1,1.62-1.32,5.07,5.07,0,0,1,2.31-.5,8.93,8.93,0,0,1,1.4.1,8.47,8.47,0,0,1,1.38.36v1.77a8.25,8.25,0,0,0-1.21-.44,5.29,5.29,0,0,0-1.44-.18,3.12,3.12,0,0,0-1.53.35,3.08,3.08,0,0,0-1,.95,4,4,0,0,0-.6,1.38,7.26,7.26,0,0,0-.18,1.67,7.5,7.5,0,0,0,.17,1.62,4,4,0,0,0,.58,1.38,3,3,0,0,0,1.07,1A3.49,3.49,0,0,0,599.09,2907.48Z" transform="translate(-552.79 -2865.07)"/><path class="cls-2" d="M605.07,2903.71a5.47,5.47,0,0,0,.18,1.43,3.47,3.47,0,0,0,.58,1.21,2.77,2.77,0,0,0,1.05.83,3.75,3.75,0,0,0,1.59.3,7.42,7.42,0,0,0,3.19-.78v1.66a6.53,6.53,0,0,1-1.69.55,9.75,9.75,0,0,1-1.85.18,5.41,5.41,0,0,1-2.27-.44,4.21,4.21,0,0,1-1.58-1.22,5,5,0,0,1-.91-1.87,9.55,9.55,0,0,1-.29-2.43,8.83,8.83,0,0,1,.29-2.28,5.65,5.65,0,0,1,.87-1.89,4.41,4.41,0,0,1,1.47-1.29,4.28,4.28,0,0,1,2.08-.48,4,4,0,0,1,2,.45,3.78,3.78,0,0,1,1.31,1.2,5,5,0,0,1,.72,1.74,9.47,9.47,0,0,1,.22,2v.62a4.53,4.53,0,0,1,0,.46Zm5-1.61a8.28,8.28,0,0,0-.09-1.22,2.9,2.9,0,0,0-.36-1.06,2,2,0,0,0-.75-.73,2.46,2.46,0,0,0-1.24-.28,2.09,2.09,0,0,0-1,.25,2.47,2.47,0,0,0-.78.69,3.43,3.43,0,0,0-.52,1,4.88,4.88,0,0,0-.21,1.3Z" transform="translate(-552.79 -2865.07)"/><path class="cls-2" d="M623.13,2908.84h-1.61l-.23-1a5.31,5.31,0,0,1-1.18.86,3.61,3.61,0,0,1-1.78.4,4.42,4.42,0,0,1-2-.44,3.82,3.82,0,0,1-1.4-1.22,5.3,5.3,0,0,1-.8-1.84,9.81,9.81,0,0,1-.25-2.28,10,10,0,0,1,.27-2.38A5.84,5.84,0,0,1,615,2899a4.16,4.16,0,0,1,1.47-1.31,4.42,4.42,0,0,1,2.13-.48,3.67,3.67,0,0,1,1.55.31,5.55,5.55,0,0,1,1.09.63v-5.89h1.93Zm-1.91-9.18a5.51,5.51,0,0,0-1.07-.61,3.2,3.2,0,0,0-1.27-.24,3,3,0,0,0-1.51.35,2.57,2.57,0,0,0-.94.94,4.16,4.16,0,0,0-.48,1.38,9.89,9.89,0,0,0-.14,1.7,8.67,8.67,0,0,0,.15,1.64,4.16,4.16,0,0,0,.5,1.37,2.72,2.72,0,0,0,.93.94,2.68,2.68,0,0,0,1.42.35,3.67,3.67,0,0,0,2.4-.94Z" transform="translate(-552.79 -2865.07)"/><path class="cls-2" d="M633.64,2897.48h3v1.61h-3v6.71a1.91,1.91,0,0,0,.36,1.28,1.61,1.61,0,0,0,1.25.4,4.36,4.36,0,0,0,.94-.09,4.81,4.81,0,0,0,.8-.25v1.61a4.78,4.78,0,0,1-1,.26,7.59,7.59,0,0,1-1.09.08,3.4,3.4,0,0,1-2.37-.7,3,3,0,0,1-.76-2.29v-7h-2.14v-1.61h2.14v-3.06h1.91Z" transform="translate(-552.79 -2865.07)"/><path class="cls-2" d="M647.74,2903.16a9.15,9.15,0,0,1-.28,2.29,5.49,5.49,0,0,1-.87,1.89,4.27,4.27,0,0,1-1.52,1.29,5.48,5.48,0,0,1-4.45,0,4.24,4.24,0,0,1-1.53-1.29,5.46,5.46,0,0,1-.87-1.89,9.47,9.47,0,0,1,0-4.54,5.69,5.69,0,0,1,.86-1.91,4.17,4.17,0,0,1,1.52-1.31,5.43,5.43,0,0,1,4.49,0,4.17,4.17,0,0,1,1.52,1.31,5.71,5.71,0,0,1,.86,1.91A9.11,9.11,0,0,1,647.74,2903.16Zm-2,0a11.85,11.85,0,0,0-.1-1.56,4,4,0,0,0-.43-1.38,2.51,2.51,0,0,0-2.39-1.36,2.65,2.65,0,0,0-1.51.38,2.72,2.72,0,0,0-.89,1,4,4,0,0,0-.43,1.38,11.85,11.85,0,0,0-.1,1.56,11.11,11.11,0,0,0,.12,1.62,4.35,4.35,0,0,0,.44,1.4,2.6,2.6,0,0,0,.88,1,2.67,2.67,0,0,0,1.48.37,2.72,2.72,0,0,0,1.49-.37,2.48,2.48,0,0,0,.89-1,4.54,4.54,0,0,0,.43-1.4A11.24,11.24,0,0,0,645.76,2903.11Z" transform="translate(-552.79 -2865.07)"/><path class="cls-1" d="M661.83,2906.36h3.4v2.48h-9.75v-2.48h3.4v-11.62l-3.4,1v-2.48l4.19-1h2.16Z" transform="translate(-552.79 -2865.07)"/><path class="cls-1" d="M678,2903.37a5.71,5.71,0,0,1-1.52,4.19,6.09,6.09,0,0,1-4.53,1.54,11.77,11.77,0,0,1-1.93-.15,10,10,0,0,1-1.68-.43v-2.71a18.27,18.27,0,0,0,1.82.55,7.44,7.44,0,0,0,1.77.21,2.66,2.66,0,0,0,3.06-3,2.69,2.69,0,0,0-.84-2.11,3.49,3.49,0,0,0-2.4-.75,16.67,16.67,0,0,0-2.83.25v-8.69h8.33v2.48h-5.38v3.43h.75a5.44,5.44,0,0,1,4,1.38A5.11,5.11,0,0,1,678,2903.37Z" transform="translate(-552.79 -2865.07)"/><path class="cls-1" d="M691.89,2900.58a18.78,18.78,0,0,1-.26,3.17,8.8,8.8,0,0,1-.91,2.73,5.18,5.18,0,0,1-1.74,1.9,4.89,4.89,0,0,1-2.73.71,4.78,4.78,0,0,1-2.69-.71,5.3,5.3,0,0,1-1.74-1.9,8.76,8.76,0,0,1-.93-2.73,18.5,18.5,0,0,1,0-6.37,8.63,8.63,0,0,1,.93-2.71,5.34,5.34,0,0,1,1.74-1.89,4.79,4.79,0,0,1,2.69-.71,4.84,4.84,0,0,1,2.71.71,5.36,5.36,0,0,1,1.74,1.89,8.48,8.48,0,0,1,.92,2.71A18.93,18.93,0,0,1,691.89,2900.58Zm-3.06,0q0-1-.07-2a8.88,8.88,0,0,0-.33-1.94,4,4,0,0,0-.77-1.47,2,2,0,0,0-2.79,0,3.84,3.84,0,0,0-.78,1.47,8.76,8.76,0,0,0-.33,1.94q-.07,1.06-.07,2t.08,1.94a9.25,9.25,0,0,0,.34,1.93,4,4,0,0,0,.77,1.47,1.91,1.91,0,0,0,2.76,0,4.07,4.07,0,0,0,.77-1.48,9.23,9.23,0,0,0,.34-1.92Q688.84,2901.53,688.83,2900.63Z" transform="translate(-552.79 -2865.07)"/><path class="cls-1" d="M698.2,2907.18a1.85,1.85,0,0,1-.55,1.36,2.05,2.05,0,0,1-1.52.55,2.08,2.08,0,0,1-1.46-.52,2,2,0,0,1,0-2.77,2,2,0,0,1,1.46-.53,2.17,2.17,0,0,1,1.47.52A1.75,1.75,0,0,1,698.2,2907.18Z" transform="translate(-552.79 -2865.07)"/></svg>