<svg xmlns="http://www.w3.org/2000/svg" xmlns:xlink="http://www.w3.org/1999/xlink" viewBox="0 0 319.98 191.51"><defs><style>.cls-1{isolation:isolate;}.cls-2{mix-blend-mode:multiply;fill:url(#linear-gradient);}.cls-3{fill:#5d546a;}.cls-4{fill:#fff;}.cls-5{fill:#ffe0b1;}.cls-6{fill:#fac68d;}.cls-7{fill:#009957;}.cls-8{fill:#8a8795;}.cls-9{fill:#8e4a15;}.cls-10{fill:#ffcb00;}.cls-11{fill:#f39419;}.cls-12{fill:#de8127;}.cls-13{fill:#fceb49;}.cls-14{fill:#9e6459;}.cls-15{fill:#7e5c62;}.cls-16{fill:#b8bac0;}.cls-17{fill:#8a8895;}.cls-18{fill:#c17b58;}.cls-19{fill:#ffd100;}.cls-20{fill:#7a7082;}.cls-21{fill:#d1d4d1;}.cls-22{fill:#ecf0f1;}.cls-23{fill:#8697cb;}</style><linearGradient id="linear-gradient" x1="512" y1="234.6" x2="512" y2="294.32" gradientUnits="userSpaceOnUse"><stop offset="0.1" stop-color="#004796" stop-opacity="0.2"/><stop offset="1" stop-opacity="0"/></linearGradient></defs><g class="cls-1"><g id="icons"><path class="cls-2" d="M672,240.54v-3.06c0-.34-.69-.62-1.54-.62H519.35c-.85,0-1.54.28-1.54.62v3.06c0,.34.69.62,1.54.62h6.44V263a9.78,9.78,0,0,0-1.69-.15h-7.83V238.08c0-1.62-2.84-2.94-6.32-2.94H477.07c-3.44,0-6.24,1.29-6.32,2.88a52,52,0,0,0-15.35-2c-8.06,0-14.84,1.27-18.06,3.14-3.22-1.87-10-3.14-18.06-3.14a52.57,52.57,0,0,0-15.15,1.9c-.23-.12-.44-.25-.68-.37a29,29,0,0,0-12.34-2.45h-22a29,29,0,0,0-12.34,2.45c-3.25,1.58-4.94,3.66-4.74,5.85l.57,6.21c.2,2.19,2.78,4.14,6.89,5.21.5.13.83.35.92.6l0,.07.11.15c-.52.18-.82.48-.71.8.31.89,1.57,1.6,3.26,1.92,0,0,0,.05,0,.08a1.65,1.65,0,0,1,0,1.87,1.65,1.65,0,0,1,0,1.87,1.65,1.65,0,0,1,0,1.87,1.65,1.65,0,0,1,0,1.87,1.65,1.65,0,0,1,0,1.87c0,3.14,8.81,5.61,20.07,5.61,6.69,0,12.49-.87,16.12-2.24a1.71,1.71,0,0,0-.06.37,1.65,1.65,0,0,1,0,1.87,1.65,1.65,0,0,1,0,1.87,1.65,1.65,0,0,1,0,1.87,1.65,1.65,0,0,1,0,1.87,1.65,1.65,0,0,1,0,1.87,1.65,1.65,0,0,1,0,1.87,1.65,1.65,0,0,1,0,1.87,1.65,1.65,0,0,1,0,1.87,1.65,1.65,0,0,1,0,1.87,1.65,1.65,0,0,1,0,1.87c0,3.14,8.81,5.61,20.07,5.61a65.42,65.42,0,0,0,9.84-.7c.06.39.75.7,1.6.7H479v1.5c0,.41.72.75,1.61.75s1.61-.34,1.61-.75v-1.5h48.3c.89,0,1.61-.34,1.61-.75v-1.5c0-.41-.72-.75-1.61-.75h-1.61v-7.26a17,17,0,0,0,5,.7H655.86c4.5,0,8.15-1.48,8.15-3.3V241.16h6.44C671.3,241.16,672,240.88,672,240.54Zm-86.39-.45a5.47,5.47,0,0,0-3.74,1.07A5.47,5.47,0,0,1,585.6,240.09Z" transform="translate(-352.01 -106.59)"/><path class="cls-3" d="M511.15,207.56l-8-27.37a1.61,1.61,0,0,0-3.09.91l2.23,7.6H459l2.23-7.6a1.61,1.61,0,0,0-3.09-.91l-8,27.37a1.61,1.61,0,0,0,1.09,2,1.59,1.59,0,0,0,.45.07,1.61,1.61,0,0,0,1.54-1.16l4.87-16.55h45.13l4.87,16.55a1.61,1.61,0,0,0,1.54,1.16,1.58,1.58,0,0,0,.45-.07A1.61,1.61,0,0,0,511.15,207.56Z" transform="translate(-352.01 -106.59)"/><path class="cls-3" d="M480.63,116.25a1.61,1.61,0,0,0,1.61-1.61V108.2a1.61,1.61,0,1,0-3.22,0v6.44A1.61,1.61,0,0,0,480.63,116.25Z" transform="translate(-352.01 -106.59)"/><path class="cls-4" d="M527.32,113H433.94a1.61,1.61,0,0,0-1.61,1.61v62.79a4.84,4.84,0,0,0,4.83,4.83H524.1a4.84,4.84,0,0,0,4.83-4.83V114.64A1.61,1.61,0,0,0,527.32,113Z" transform="translate(-352.01 -106.59)"/><polygon class="cls-5" points="93.2 74.06 164.03 74.06 164.03 22.54 130.22 53.13 115.73 41.86 93.2 61.18 93.2 74.06"/><polygon class="cls-6" points="130.22 72.45 130.22 54.74 115.73 41.86 115.73 72.45 130.22 72.45"/><path class="cls-7" d="M446.82,169.38a1.61,1.61,0,0,1-1.14-2.75L464.33,148a4.83,4.83,0,0,1,6.83,0l9.94,9.94a1.61,1.61,0,0,0,2.28,0L513.3,128a1.61,1.61,0,0,1,2.28,2.28l-29.92,29.92a4.83,4.83,0,0,1-6.83,0l-9.94-9.94a1.61,1.61,0,0,0-2.28,0L448,168.9A1.6,1.6,0,0,1,446.82,169.38Z" transform="translate(-352.01 -106.59)"/><path class="cls-7" d="M514.44,145.23a1.61,1.61,0,0,1-1.61-1.61V130.74H499.95a1.61,1.61,0,1,1,0-3.22h14.49a1.61,1.61,0,0,1,1.61,1.61v14.49A1.61,1.61,0,0,1,514.44,145.23Z" transform="translate(-352.01 -106.59)"/><path class="cls-8" d="M525.71,116.25v61.18A1.61,1.61,0,0,1,524.1,179H437.16a1.61,1.61,0,0,1-1.61-1.61V116.25h90.16m1.61-3.22H433.94a1.61,1.61,0,0,0-1.61,1.61v62.79a4.84,4.84,0,0,0,4.83,4.83H524.1a4.84,4.84,0,0,0,4.83-4.83V114.64a1.61,1.61,0,0,0-1.61-1.61Z" transform="translate(-352.01 -106.59)"/><path class="cls-9" d="M430.72,117.86h99.82a1.61,1.61,0,0,0,1.61-1.61V113a1.61,1.61,0,0,0-1.61-1.61H430.72a1.61,1.61,0,0,0-1.61,1.61v3.22A1.61,1.61,0,0,0,430.72,117.86Z" transform="translate(-352.01 -106.59)"/><path class="cls-10" d="M399.21,227.8c0,6.75,8.81,12,20.07,12s20.07-5.29,20.07-12-8.81-12-20.07-12S399.21,221.05,399.21,227.8Z" transform="translate(-352.01 -106.59)"/><path class="cls-11" d="M399.21,223.79c0,6.75,8.81,12,20.07,12s20.07-5.29,20.07-12-8.81-12-20.07-12S399.21,217,399.21,223.79Z" transform="translate(-352.01 -106.59)"/><path class="cls-10" d="M399.21,219.78c0,6.75,8.81,12,20.07,12s20.07-5.29,20.07-12-8.81-12-20.07-12S399.21,213,399.21,219.78Z" transform="translate(-352.01 -106.59)"/><path class="cls-11" d="M399.21,215.76c0,6.75,8.81,12,20.07,12s20.07-5.29,20.07-12-8.81-12-20.07-12S399.21,209,399.21,215.76Z" transform="translate(-352.01 -106.59)"/><path class="cls-10" d="M399.21,211.75c0,6.75,8.81,12,20.07,12s20.07-5.29,20.07-12-8.81-12-20.07-12S399.21,205,399.21,211.75Z" transform="translate(-352.01 -106.59)"/><path class="cls-11" d="M399.21,207.74c0,6.75,8.81,12,20.07,12s20.07-5.29,20.07-12-8.81-12-20.07-12S399.21,201,399.21,207.74Z" transform="translate(-352.01 -106.59)"/><path class="cls-10" d="M399.21,203.72c0,6.75,8.81,12,20.07,12s20.07-5.29,20.07-12-8.81-12-20.07-12S399.21,197,399.21,203.72Z" transform="translate(-352.01 -106.59)"/><path class="cls-11" d="M399.21,199.71c0,6.75,8.81,12,20.07,12s20.07-5.29,20.07-12-8.81-12-20.07-12S399.21,193,399.21,199.71Z" transform="translate(-352.01 -106.59)"/><path class="cls-10" d="M399.21,195.7c0,6.75,8.81,12,20.07,12s20.07-5.29,20.07-12-8.81-12-20.07-12S399.21,188.95,399.21,195.7Z" transform="translate(-352.01 -106.59)"/><path class="cls-11" d="M399.21,191.68c0,6.75,8.81,12,20.07,12s20.07-5.29,20.07-12-8.81-12-20.07-12S399.21,184.93,399.21,191.68Z" transform="translate(-352.01 -106.59)"/><path class="cls-10" d="M399.21,187.67c0,6.75,8.81,12,20.07,12s20.07-5.29,20.07-12-8.81-12-20.07-12S399.21,180.92,399.21,187.67Z" transform="translate(-352.01 -106.59)"/><path class="cls-11" d="M399.21,183.66c0,6.75,8.81,12,20.07,12s20.07-5.29,20.07-12-8.81-12-20.07-12S399.21,176.91,399.21,183.66Z" transform="translate(-352.01 -106.59)"/><path class="cls-10" d="M399.21,179.64c0,6.75,8.81,12,20.07,12s20.07-5.29,20.07-12-8.81-12-20.07-12S399.21,172.89,399.21,179.64Z" transform="translate(-352.01 -106.59)"/><path class="cls-11" d="M399.21,175.63c0,6.75,8.81,12,20.07,12s20.07-5.29,20.07-12-8.81-12-20.07-12S399.21,168.88,399.21,175.63Z" transform="translate(-352.01 -106.59)"/><path class="cls-11" d="M419.28,215.76v24.08c11.25,0,20.07-5.29,20.07-12S430.53,215.76,419.28,215.76Z" transform="translate(-352.01 -106.59)"/><path class="cls-12" d="M419.28,211.75v24.08c11.25,0,20.07-5.29,20.07-12S430.53,211.75,419.28,211.75Z" transform="translate(-352.01 -106.59)"/><path class="cls-11" d="M419.28,207.74v24.08c11.25,0,20.07-5.29,20.07-12S430.53,207.74,419.28,207.74Z" transform="translate(-352.01 -106.59)"/><path class="cls-12" d="M419.28,203.72V227.8c11.25,0,20.07-5.29,20.07-12S430.53,203.72,419.28,203.72Z" transform="translate(-352.01 -106.59)"/><path class="cls-11" d="M419.28,199.71v24.08c11.25,0,20.07-5.29,20.07-12S430.53,199.71,419.28,199.71Z" transform="translate(-352.01 -106.59)"/><path class="cls-12" d="M419.28,195.7v24.08c11.25,0,20.07-5.29,20.07-12S430.53,195.7,419.28,195.7Z" transform="translate(-352.01 -106.59)"/><path class="cls-11" d="M419.28,191.68v24.08c11.25,0,20.07-5.29,20.07-12S430.53,191.68,419.28,191.68Z" transform="translate(-352.01 -106.59)"/><path class="cls-11" d="M419.28,191.68v24.08c11.25,0,20.07-5.29,20.07-12S430.53,191.68,419.28,191.68Z" transform="translate(-352.01 -106.59)"/><path class="cls-12" d="M419.28,187.67v24.08c11.25,0,20.07-5.29,20.07-12S430.53,187.67,419.28,187.67Z" transform="translate(-352.01 -106.59)"/><path class="cls-11" d="M419.28,183.66v24.08c11.25,0,20.07-5.29,20.07-12S430.53,183.66,419.28,183.66Z" transform="translate(-352.01 -106.59)"/><path class="cls-12" d="M419.28,179.64v24.08c11.25,0,20.07-5.29,20.07-12S430.53,179.64,419.28,179.64Z" transform="translate(-352.01 -106.59)"/><path class="cls-11" d="M419.28,175.63v24.08c11.25,0,20.07-5.29,20.07-12S430.53,175.63,419.28,175.63Z" transform="translate(-352.01 -106.59)"/><path class="cls-11" d="M419.28,175.63v24.08c11.25,0,20.07-5.29,20.07-12S430.53,175.63,419.28,175.63Z" transform="translate(-352.01 -106.59)"/><path class="cls-12" d="M419.28,171.62V195.7c11.25,0,20.07-5.29,20.07-12S430.53,171.62,419.28,171.62Z" transform="translate(-352.01 -106.59)"/><path class="cls-11" d="M419.28,167.6v24.08c11.25,0,20.07-5.29,20.07-12S430.53,167.6,419.28,167.6Z" transform="translate(-352.01 -106.59)"/><path class="cls-12" d="M419.28,163.59v24.08c11.25,0,20.07-5.29,20.07-12S430.53,163.59,419.28,163.59Z" transform="translate(-352.01 -106.59)"/><path class="cls-11" d="M419.28,159.58v24.08c11.25,0,20.07-5.29,20.07-12S430.53,159.58,419.28,159.58Z" transform="translate(-352.01 -106.59)"/><path class="cls-10" d="M399.21,171.62c0,6.75,8.81,12,20.07,12s20.07-5.29,20.07-12-8.81-12-20.07-12S399.21,164.87,399.21,171.62Z" transform="translate(-352.01 -106.59)"/><path class="cls-11" d="M399.21,167.6c0,6.75,8.81,12,20.07,12s20.07-5.29,20.07-12-8.81-12-20.07-12S399.21,160.85,399.21,167.6Z" transform="translate(-352.01 -106.59)"/><path class="cls-10" d="M399.21,163.59c0,6.75,8.81,12,20.07,12s20.07-5.29,20.07-12-8.81-12-20.07-12S399.21,156.84,399.21,163.59Z" transform="translate(-352.01 -106.59)"/><path class="cls-11" d="M399.21,159.58c0,6.75,8.81,12,20.07,12s20.07-5.29,20.07-12-8.81-12-20.07-12S399.21,152.83,399.21,159.58Z" transform="translate(-352.01 -106.59)"/><path class="cls-10" d="M399.21,155.56c0,6.75,8.81,12,20.07,12s20.07-5.29,20.07-12-8.81-12-20.07-12S399.21,148.81,399.21,155.56Z" transform="translate(-352.01 -106.59)"/><path class="cls-11" d="M419.28,159.58v24.08c11.25,0,20.07-5.29,20.07-12S430.53,159.58,419.28,159.58Z" transform="translate(-352.01 -106.59)"/><path class="cls-12" d="M419.28,155.56v24.08c11.25,0,20.07-5.29,20.07-12S430.53,155.56,419.28,155.56Z" transform="translate(-352.01 -106.59)"/><path class="cls-11" d="M419.28,151.55v24.08c11.25,0,20.07-5.29,20.07-12S430.53,151.55,419.28,151.55Z" transform="translate(-352.01 -106.59)"/><path class="cls-12" d="M419.28,147.54v24.08c11.25,0,20.07-5.29,20.07-12S430.53,147.54,419.28,147.54Z" transform="translate(-352.01 -106.59)"/><path class="cls-11" d="M419.28,143.52V167.6c11.25,0,20.07-5.29,20.07-12S430.53,143.52,419.28,143.52Z" transform="translate(-352.01 -106.59)"/><path class="cls-11" d="M399.21,151.55c0,6.75,8.81,12,20.07,12s20.07-5.29,20.07-12-8.81-12-20.07-12S399.21,144.8,399.21,151.55Z" transform="translate(-352.01 -106.59)"/><path class="cls-12" d="M419.28,139.51v24.08c11.25,0,20.07-5.29,20.07-12S430.53,139.51,419.28,139.51Z" transform="translate(-352.01 -106.59)"/><path class="cls-10" d="M399.21,147.54c0,6.75,8.81,12,20.07,12s20.07-5.29,20.07-12-8.81-12-20.07-12S399.21,140.79,399.21,147.54Z" transform="translate(-352.01 -106.59)"/><path class="cls-11" d="M399.21,143.52c0,6.75,8.81,12,20.07,12s20.07-5.29,20.07-12-8.81-12-20.07-12S399.21,136.77,399.21,143.52Z" transform="translate(-352.01 -106.59)"/><path class="cls-11" d="M419.28,135.5v24.08c11.25,0,20.07-5.29,20.07-12S430.53,135.5,419.28,135.5Z" transform="translate(-352.01 -106.59)"/><path class="cls-12" d="M419.28,131.48v24.08c11.25,0,20.07-5.29,20.07-12S430.53,131.48,419.28,131.48Z" transform="translate(-352.01 -106.59)"/><path class="cls-10" d="M399.21,139.51c0,6.75,8.81,12,20.07,12s20.07-5.29,20.07-12-8.81-12-20.07-12S399.21,132.76,399.21,139.51Z" transform="translate(-352.01 -106.59)"/><path class="cls-11" d="M399.21,135.5c0,6.75,8.81,12,20.07,12s20.07-5.29,20.07-12-8.81-12-20.07-12S399.21,128.75,399.21,135.5Z" transform="translate(-352.01 -106.59)"/><path class="cls-10" d="M399.21,131.48c0,6.75,8.81,12,20.07,12s20.07-5.29,20.07-12-8.81-12-20.07-12S399.21,124.73,399.21,131.48Z" transform="translate(-352.01 -106.59)"/><path class="cls-11" d="M419.28,127.47v24.08c11.25,0,20.07-5.29,20.07-12S430.53,127.47,419.28,127.47Z" transform="translate(-352.01 -106.59)"/><path class="cls-12" d="M419.28,123.46v24.08c11.25,0,20.07-5.29,20.07-12S430.53,123.46,419.28,123.46Z" transform="translate(-352.01 -106.59)"/><path class="cls-11" d="M419.28,119.44v24.08c11.25,0,20.07-5.29,20.07-12S430.53,119.44,419.28,119.44Z" transform="translate(-352.01 -106.59)"/><path class="cls-11" d="M399.21,127.47c0,6.75,8.81,12,20.07,12s20.07-5.29,20.07-12-8.81-12-20.07-12S399.21,120.72,399.21,127.47Z" transform="translate(-352.01 -106.59)"/><path class="cls-12" d="M419.28,115.43v24.08c11.25,0,20.07-5.29,20.07-12S430.53,115.43,419.28,115.43Z" transform="translate(-352.01 -106.59)"/><path class="cls-10" d="M399.21,123.46c0,6.75,8.81,12,20.07,12s20.07-5.29,20.07-12-8.81-12-20.07-12S399.21,116.71,399.21,123.46Z" transform="translate(-352.01 -106.59)"/><path class="cls-13" d="M405.23,123.46c0-4.65,5.91-8,14-8s14,3.38,14,8-5.91,8-14,8S405.23,128.11,405.23,123.46Zm4,0c0,1.68,3.82,4,10,4s10-2.34,10-4-3.82-4-10-4S409.24,121.78,409.24,123.46Z" transform="translate(-352.01 -106.59)"/><path class="cls-10" d="M363.09,227.8c0,6.75,8.81,12,20.07,12s20.07-5.29,20.07-12-8.81-12-20.07-12S363.09,221.05,363.09,227.8Z" transform="translate(-352.01 -106.59)"/><path class="cls-11" d="M363.09,223.79c0,6.75,8.81,12,20.07,12s20.07-5.29,20.07-12-8.81-12-20.07-12S363.09,217,363.09,223.79Z" transform="translate(-352.01 -106.59)"/><path class="cls-11" d="M383.16,215.76v24.08c11.25,0,20.07-5.29,20.07-12S394.41,215.76,383.16,215.76Z" transform="translate(-352.01 -106.59)"/><path class="cls-12" d="M383.16,211.75v24.08c11.25,0,20.07-5.29,20.07-12S394.41,211.75,383.16,211.75Z" transform="translate(-352.01 -106.59)"/><path class="cls-11" d="M383.16,207.74v24.08c11.25,0,20.07-5.29,20.07-12S394.41,207.74,383.16,207.74Z" transform="translate(-352.01 -106.59)"/><path class="cls-10" d="M363.09,219.78c0,6.75,8.81,12,20.07,12s20.07-5.29,20.07-12-8.81-12-20.07-12S363.09,213,363.09,219.78Z" transform="translate(-352.01 -106.59)"/><path class="cls-11" d="M363.09,215.76c0,6.75,8.81,12,20.07,12s20.07-5.29,20.07-12-8.81-12-20.07-12S363.09,209,363.09,215.76Z" transform="translate(-352.01 -106.59)"/><path class="cls-10" d="M363.09,211.75c0,6.75,8.81,12,20.07,12s20.07-5.29,20.07-12-8.81-12-20.07-12S363.09,205,363.09,211.75Z" transform="translate(-352.01 -106.59)"/><path class="cls-11" d="M363.09,207.74c0,6.75,8.81,12,20.07,12s20.07-5.29,20.07-12-8.81-12-20.07-12S363.09,201,363.09,207.74Z" transform="translate(-352.01 -106.59)"/><path class="cls-10" d="M363.09,203.72c0,6.75,8.81,12,20.07,12s20.07-5.29,20.07-12-8.81-12-20.07-12S363.09,197,363.09,203.72Z" transform="translate(-352.01 -106.59)"/><path class="cls-11" d="M383.16,207.74v24.08c11.25,0,20.07-5.29,20.07-12S394.41,207.74,383.16,207.74Z" transform="translate(-352.01 -106.59)"/><path class="cls-12" d="M383.16,203.72V227.8c11.25,0,20.07-5.29,20.07-12S394.41,203.72,383.16,203.72Z" transform="translate(-352.01 -106.59)"/><path class="cls-11" d="M383.16,199.71v24.08c11.25,0,20.07-5.29,20.07-12S394.41,199.71,383.16,199.71Z" transform="translate(-352.01 -106.59)"/><path class="cls-12" d="M383.16,195.7v24.08c11.25,0,20.07-5.29,20.07-12S394.41,195.7,383.16,195.7Z" transform="translate(-352.01 -106.59)"/><path class="cls-11" d="M383.16,191.68v24.08c11.25,0,20.07-5.29,20.07-12S394.41,191.68,383.16,191.68Z" transform="translate(-352.01 -106.59)"/><path class="cls-11" d="M363.09,199.71c0,6.75,8.81,12,20.07,12s20.07-5.29,20.07-12-8.81-12-20.07-12S363.09,193,363.09,199.71Z" transform="translate(-352.01 -106.59)"/><path class="cls-12" d="M383.16,187.67v24.08c11.25,0,20.07-5.29,20.07-12S394.41,187.67,383.16,187.67Z" transform="translate(-352.01 -106.59)"/><path class="cls-10" d="M363.09,195.7c0,6.75,8.81,12,20.07,12s20.07-5.29,20.07-12-8.81-12-20.07-12S363.09,188.95,363.09,195.7Z" transform="translate(-352.01 -106.59)"/><path class="cls-11" d="M363.09,191.68c0,6.75,8.81,12,20.07,12s20.07-5.29,20.07-12-8.81-12-20.07-12S363.09,184.93,363.09,191.68Z" transform="translate(-352.01 -106.59)"/><path class="cls-11" d="M383.16,183.66v24.08c11.25,0,20.07-5.29,20.07-12S394.41,183.66,383.16,183.66Z" transform="translate(-352.01 -106.59)"/><path class="cls-12" d="M383.16,179.64v24.08c11.25,0,20.07-5.29,20.07-12S394.41,179.64,383.16,179.64Z" transform="translate(-352.01 -106.59)"/><path class="cls-10" d="M363.09,187.67c0,6.75,8.81,12,20.07,12s20.07-5.29,20.07-12-8.81-12-20.07-12S363.09,180.92,363.09,187.67Z" transform="translate(-352.01 -106.59)"/><path class="cls-11" d="M363.09,183.66c0,6.75,8.81,12,20.07,12s20.07-5.29,20.07-12-8.81-12-20.07-12S363.09,176.91,363.09,183.66Z" transform="translate(-352.01 -106.59)"/><path class="cls-10" d="M363.09,179.64c0,6.75,8.81,12,20.07,12s20.07-5.29,20.07-12-8.81-12-20.07-12S363.09,172.89,363.09,179.64Z" transform="translate(-352.01 -106.59)"/><path class="cls-11" d="M383.16,175.63v24.08c11.25,0,20.07-5.29,20.07-12S394.41,175.63,383.16,175.63Z" transform="translate(-352.01 -106.59)"/><path class="cls-12" d="M383.16,171.62V195.7c11.25,0,20.07-5.29,20.07-12S394.41,171.62,383.16,171.62Z" transform="translate(-352.01 -106.59)"/><path class="cls-11" d="M383.16,167.6v24.08c11.25,0,20.07-5.29,20.07-12S394.41,167.6,383.16,167.6Z" transform="translate(-352.01 -106.59)"/><path class="cls-11" d="M363.09,175.63c0,6.75,8.81,12,20.07,12s20.07-5.29,20.07-12-8.81-12-20.07-12S363.09,168.88,363.09,175.63Z" transform="translate(-352.01 -106.59)"/><path class="cls-12" d="M383.16,163.59v24.08c11.25,0,20.07-5.29,20.07-12S394.41,163.59,383.16,163.59Z" transform="translate(-352.01 -106.59)"/><path class="cls-10" d="M363.09,171.62c0,6.75,8.81,12,20.07,12s20.07-5.29,20.07-12-8.81-12-20.07-12S363.09,164.87,363.09,171.62Z" transform="translate(-352.01 -106.59)"/><path class="cls-13" d="M369.11,171.62c0-4.65,5.91-8,14-8s14,3.38,14,8-5.91,8-14,8S369.11,176.27,369.11,171.62Zm4,0c0,1.68,3.82,4,10,4s10-2.34,10-4-3.82-4-10-4S373.12,169.94,373.12,171.62Z" transform="translate(-352.01 -106.59)"/><path class="cls-10" d="M435.33,227.8c0,6.75,8.81,12,20.07,12s20.07-5.29,20.07-12-8.81-12-20.07-12S435.33,221.05,435.33,227.8Z" transform="translate(-352.01 -106.59)"/><path class="cls-11" d="M435.33,223.79c0,6.75,8.81,12,20.07,12s20.07-5.29,20.07-12-8.81-12-20.07-12S435.33,217,435.33,223.79Z" transform="translate(-352.01 -106.59)"/><path class="cls-10" d="M435.33,219.78c0,6.75,8.81,12,20.07,12s20.07-5.29,20.07-12-8.81-12-20.07-12S435.33,213,435.33,219.78Z" transform="translate(-352.01 -106.59)"/><path class="cls-11" d="M435.33,215.76c0,6.75,8.81,12,20.07,12s20.07-5.29,20.07-12-8.81-12-20.07-12S435.33,209,435.33,215.76Z" transform="translate(-352.01 -106.59)"/><path class="cls-10" d="M435.33,211.75c0,6.75,8.81,12,20.07,12s20.07-5.29,20.07-12-8.81-12-20.07-12S435.33,205,435.33,211.75Z" transform="translate(-352.01 -106.59)"/><path class="cls-11" d="M435.33,207.74c0,6.75,8.81,12,20.07,12s20.07-5.29,20.07-12-8.81-12-20.07-12S435.33,201,435.33,207.74Z" transform="translate(-352.01 -106.59)"/><path class="cls-11" d="M455.4,215.76v24.08c11.25,0,20.07-5.29,20.07-12S466.65,215.76,455.4,215.76Z" transform="translate(-352.01 -106.59)"/><path class="cls-12" d="M455.4,211.75v24.08c11.25,0,20.07-5.29,20.07-12S466.65,211.75,455.4,211.75Z" transform="translate(-352.01 -106.59)"/><path class="cls-11" d="M455.4,207.74v24.08c11.25,0,20.07-5.29,20.07-12S466.65,207.74,455.4,207.74Z" transform="translate(-352.01 -106.59)"/><path class="cls-11" d="M455.4,207.74v24.08c11.25,0,20.07-5.29,20.07-12S466.65,207.74,455.4,207.74Z" transform="translate(-352.01 -106.59)"/><path class="cls-12" d="M455.4,203.72V227.8c11.25,0,20.07-5.29,20.07-12S466.65,203.72,455.4,203.72Z" transform="translate(-352.01 -106.59)"/><path class="cls-11" d="M455.4,199.71v24.08c11.25,0,20.07-5.29,20.07-12S466.65,199.71,455.4,199.71Z" transform="translate(-352.01 -106.59)"/><path class="cls-12" d="M455.4,195.7v24.08c11.25,0,20.07-5.29,20.07-12S466.65,195.7,455.4,195.7Z" transform="translate(-352.01 -106.59)"/><path class="cls-11" d="M455.4,191.68v24.08c11.25,0,20.07-5.29,20.07-12S466.65,191.68,455.4,191.68Z" transform="translate(-352.01 -106.59)"/><path class="cls-10" d="M435.33,203.72c0,6.75,8.81,12,20.07,12s20.07-5.29,20.07-12-8.81-12-20.07-12S435.33,197,435.33,203.72Z" transform="translate(-352.01 -106.59)"/><path class="cls-11" d="M435.33,199.71c0,6.75,8.81,12,20.07,12s20.07-5.29,20.07-12-8.81-12-20.07-12S435.33,193,435.33,199.71Z" transform="translate(-352.01 -106.59)"/><path class="cls-10" d="M435.33,195.7c0,6.75,8.81,12,20.07,12s20.07-5.29,20.07-12-8.81-12-20.07-12S435.33,188.95,435.33,195.7Z" transform="translate(-352.01 -106.59)"/><path class="cls-11" d="M435.33,191.68c0,6.75,8.81,12,20.07,12s20.07-5.29,20.07-12-8.81-12-20.07-12S435.33,184.93,435.33,191.68Z" transform="translate(-352.01 -106.59)"/><path class="cls-10" d="M435.33,187.67c0,6.75,8.81,12,20.07,12s20.07-5.29,20.07-12-8.81-12-20.07-12S435.33,180.92,435.33,187.67Z" transform="translate(-352.01 -106.59)"/><path class="cls-11" d="M455.4,191.68v24.08c11.25,0,20.07-5.29,20.07-12S466.65,191.68,455.4,191.68Z" transform="translate(-352.01 -106.59)"/><path class="cls-12" d="M455.4,187.67v24.08c11.25,0,20.07-5.29,20.07-12S466.65,187.67,455.4,187.67Z" transform="translate(-352.01 -106.59)"/><path class="cls-11" d="M455.4,183.66v24.08c11.25,0,20.07-5.29,20.07-12S466.65,183.66,455.4,183.66Z" transform="translate(-352.01 -106.59)"/><path class="cls-12" d="M455.4,179.64v24.08c11.25,0,20.07-5.29,20.07-12S466.65,179.64,455.4,179.64Z" transform="translate(-352.01 -106.59)"/><path class="cls-11" d="M455.4,175.63v24.08c11.25,0,20.07-5.29,20.07-12S466.65,175.63,455.4,175.63Z" transform="translate(-352.01 -106.59)"/><path class="cls-11" d="M435.33,183.66c0,6.75,8.81,12,20.07,12s20.07-5.29,20.07-12-8.81-12-20.07-12S435.33,176.91,435.33,183.66Z" transform="translate(-352.01 -106.59)"/><path class="cls-12" d="M455.4,171.62V195.7c11.25,0,20.07-5.29,20.07-12S466.65,171.62,455.4,171.62Z" transform="translate(-352.01 -106.59)"/><path class="cls-10" d="M435.33,179.64c0,6.75,8.81,12,20.07,12s20.07-5.29,20.07-12-8.81-12-20.07-12S435.33,172.89,435.33,179.64Z" transform="translate(-352.01 -106.59)"/><path class="cls-11" d="M435.33,175.63c0,6.75,8.81,12,20.07,12s20.07-5.29,20.07-12-8.81-12-20.07-12S435.33,168.88,435.33,175.63Z" transform="translate(-352.01 -106.59)"/><path class="cls-11" d="M455.4,167.6v24.08c11.25,0,20.07-5.29,20.07-12S466.65,167.6,455.4,167.6Z" transform="translate(-352.01 -106.59)"/><path class="cls-12" d="M455.4,163.59v24.08c11.25,0,20.07-5.29,20.07-12S466.65,163.59,455.4,163.59Z" transform="translate(-352.01 -106.59)"/><path class="cls-10" d="M435.33,171.62c0,6.75,8.81,12,20.07,12s20.07-5.29,20.07-12-8.81-12-20.07-12S435.33,164.87,435.33,171.62Z" transform="translate(-352.01 -106.59)"/><path class="cls-11" d="M435.33,167.6c0,6.75,8.81,12,20.07,12s20.07-5.29,20.07-12-8.81-12-20.07-12S435.33,160.85,435.33,167.6Z" transform="translate(-352.01 -106.59)"/><path class="cls-10" d="M435.33,163.59c0,6.75,8.81,12,20.07,12s20.07-5.29,20.07-12-8.81-12-20.07-12S435.33,156.84,435.33,163.59Z" transform="translate(-352.01 -106.59)"/><path class="cls-11" d="M455.4,159.58v24.08c11.25,0,20.07-5.29,20.07-12S466.65,159.58,455.4,159.58Z" transform="translate(-352.01 -106.59)"/><path class="cls-12" d="M455.4,155.56v24.08c11.25,0,20.07-5.29,20.07-12S466.65,155.56,455.4,155.56Z" transform="translate(-352.01 -106.59)"/><path class="cls-11" d="M455.4,151.55v24.08c11.25,0,20.07-5.29,20.07-12S466.65,151.55,455.4,151.55Z" transform="translate(-352.01 -106.59)"/><path class="cls-11" d="M435.33,159.58c0,6.75,8.81,12,20.07,12s20.07-5.29,20.07-12-8.81-12-20.07-12S435.33,152.83,435.33,159.58Z" transform="translate(-352.01 -106.59)"/><path class="cls-12" d="M455.4,147.54v24.08c11.25,0,20.07-5.29,20.07-12S466.65,147.54,455.4,147.54Z" transform="translate(-352.01 -106.59)"/><path class="cls-10" d="M435.33,155.56c0,6.75,8.81,12,20.07,12s20.07-5.29,20.07-12-8.81-12-20.07-12S435.33,148.81,435.33,155.56Z" transform="translate(-352.01 -106.59)"/><path class="cls-13" d="M441.35,155.56c0-4.65,5.91-8,14-8s14,3.38,14,8-5.91,8-14,8S441.35,160.21,441.35,155.56Zm4,0c0,1.68,3.82,4,10,4s10-2.34,10-4-3.82-4-10-4S445.37,153.89,445.37,155.56Z" transform="translate(-352.01 -106.59)"/><path class="cls-14" d="M407.61,210.65a13.43,13.43,0,0,0-6.72-11.09,1.77,1.77,0,0,1-.84-1.18.88.88,0,0,0,0-.13l-2-5.32a.9.9,0,0,0-.84-.59H363a.9.9,0,0,0-.85.61L360.44,198a.9.9,0,0,0,0,.14,1.82,1.82,0,0,1-.92,1.29,13.41,13.41,0,0,0-6.89,11.19L352,224a17.1,17.1,0,0,0,17.08,17.82h22A17.1,17.1,0,0,0,408.18,224Z" transform="translate(-352.01 -106.59)"/><path class="cls-15" d="M372,204.92H362a4.45,4.45,0,0,0-4.05,2.53,8.92,8.92,0,0,0-.82,3.38l-.55,13a13.08,13.08,0,0,0,3.31,9.46,12.49,12.49,0,0,0,9.26,4.05h21.61A13.08,13.08,0,0,0,400,233.6a12.49,12.49,0,0,0,3.65-9.42l-.57-13.34a8.92,8.92,0,0,0-.82-3.38,4.45,4.45,0,0,0-4.05-2.53h-10" transform="translate(-352.01 -106.59)"/><path class="cls-16" d="M361.62,198.06l-.29,0a1.8,1.8,0,0,1-1.49-2.06,5.38,5.38,0,0,1,5.33-4.55h30a5.41,5.41,0,0,1,5.29,4.34,1.8,1.8,0,1,1-3.53.71,1.8,1.8,0,0,0-1.76-1.45h-30a1.79,1.79,0,0,0-1.78,1.52A1.8,1.8,0,0,1,361.62,198.06Z" transform="translate(-352.01 -106.59)"/><circle class="cls-17" cx="25.84" cy="82.59" r="2.25"/><circle class="cls-17" cx="30.34" cy="82.59" r="2.25"/><path class="cls-18" d="M388.84,238.22H387a.9.9,0,0,1,0-1.8h1.8a.9.9,0,1,1,0,1.8Zm-5.4,0h-1.8a.9.9,0,1,1,0-1.8h1.8a.9.9,0,0,1,0,1.8Zm-5.4,0h-1.8a.9.9,0,0,1,0-1.8H378a.9.9,0,1,1,0,1.8Zm-5.4,0h-1.8a.9.9,0,1,1,0-1.8h1.8a.9.9,0,0,1,0,1.8Zm19.79-.1a.9.9,0,0,1-.11-1.79A13.15,13.15,0,0,0,394,236a.9.9,0,1,1,.44,1.74,14.87,14.87,0,0,1-1.88.35Zm-25.18,0h-.13a13.42,13.42,0,0,1-1.88-.41.9.9,0,1,1,.51-1.72,11.72,11.72,0,0,0,1.63.36.9.9,0,0,1-.13,1.79Zm30.28-1.65a.9.9,0,0,1-.45-1.68,11.34,11.34,0,0,0,1.37-.94.9.9,0,0,1,1.12,1.41,13.21,13.21,0,0,1-1.59,1.09A.9.9,0,0,1,397.52,236.43Zm-35.29-.24a.9.9,0,0,1-.49-.15,13.7,13.7,0,0,1-1.53-1.17.9.9,0,1,1,1.19-1.35,11.84,11.84,0,0,0,1.33,1,.9.9,0,0,1-.49,1.65Zm39.22-3.39a.9.9,0,0,1-.74-1.41,11.61,11.61,0,0,0,.85-1.43.9.9,0,0,1,1.61.81,13.56,13.56,0,0,1-1,1.66A.9.9,0,0,1,401.45,232.79Zm-43-.43a.9.9,0,0,1-.76-.42,13.46,13.46,0,0,1-.9-1.71.9.9,0,1,1,1.65-.72,11.63,11.63,0,0,0,.78,1.48.9.9,0,0,1-.76,1.38Zm45-4.52h-.16a.9.9,0,0,1-.73-1,11.91,11.91,0,0,0,.17-1.66.9.9,0,0,1,.9-.87h0a.9.9,0,0,1,.87.93,13.44,13.44,0,0,1-.2,1.92A.9.9,0,0,1,403.5,227.84Zm-46.83-.52a.9.9,0,0,1-.89-.77,15.06,15.06,0,0,1-.15-1.91.9.9,0,0,1,.89-.91.91.91,0,0,1,.91.89,13.06,13.06,0,0,0,.13,1.68.9.9,0,0,1-.76,1Zm46.9-4.86a.9.9,0,0,1-.9-.86l-.08-1.8a.9.9,0,1,1,1.8-.08l.08,1.8a.9.9,0,0,1-.86.94Zm-46.91-.53h0a.9.9,0,0,1-.86-.94l.08-1.8a.93.93,0,0,1,.94-.86.9.9,0,0,1,.86.94l-.08,1.8A.9.9,0,0,1,356.66,221.93Zm46.68-4.87a.9.9,0,0,1-.9-.86l-.08-1.8a.9.9,0,1,1,1.8-.08l.08,1.8a.9.9,0,0,1-.86.94Zm-46.45-.53h0a.9.9,0,0,1-.86-.94l.08-1.8a.93.93,0,0,1,.94-.86.9.9,0,0,1,.86.94l-.08,1.8A.9.9,0,0,1,356.89,216.54Zm46.22-4.87a.9.9,0,0,1-.9-.85,8.12,8.12,0,0,0-.24-1.6.9.9,0,0,1,1.74-.45,9.91,9.91,0,0,1,.3,2,.9.9,0,0,1-.85.94Zm-46-.53H357a.9.9,0,0,1-.8-1,9.77,9.77,0,0,1,.41-1.94.9.9,0,1,1,1.71.55,8.08,8.08,0,0,0-.33,1.58A.9.9,0,0,1,357.14,211.15Zm44-4.32a.89.89,0,0,1-.56-.2,3.59,3.59,0,0,0-1.27-.66.9.9,0,0,1,.5-1.73,5.37,5.37,0,0,1,1.9,1,.9.9,0,0,1-.57,1.6Zm-41.55-.31a.9.9,0,0,1-.48-1.66,5.42,5.42,0,0,1,2-.76.9.9,0,1,1,.3,1.78,3.64,3.64,0,0,0-1.34.51A.9.9,0,0,1,359.54,206.52Zm36.39-.7h-1.8a.9.9,0,1,1,0-1.8h1.8a.9.9,0,0,1,0,1.8Zm-5.4,0h-1.8a.9.9,0,1,1,0-1.8h1.8a.9.9,0,1,1,0,1.8Zm-18.52,0h-1.8a.9.9,0,1,1,0-1.8H372a.9.9,0,0,1,0,1.8Zm-5.4,0h-1.8a.9.9,0,0,1,0-1.8h1.8a.9.9,0,0,1,0,1.8Z" transform="translate(-352.01 -106.59)"/><path class="cls-19" d="M388.2,206.72H372a1.8,1.8,0,0,1-1.8-1.8h0a1.8,1.8,0,0,1,1.8-1.8h16.2a1.8,1.8,0,0,1,1.8,1.8h0A1.8,1.8,0,0,1,388.2,206.72Z" transform="translate(-352.01 -106.59)"/><rect class="cls-20" x="121.26" y="66.94" width="40.47" height="55.64"/><rect class="cls-3" x="136.44" y="58.09" width="13.91" height="5.06"/><rect class="cls-3" x="136.44" y="123.85" width="10.12" height="10.12"/><path class="cls-8" d="M470.74,167.21v68.29a6.33,6.33,0,0,0,6.32,6.32h32.88a6.33,6.33,0,0,0,6.32-6.32V167.21a6.33,6.33,0,0,0-6.32-6.32H477.07A6.33,6.33,0,0,0,470.74,167.21Zm26.56,0a1.26,1.26,0,0,1-1.26,1.26H491a1.26,1.26,0,0,1,0-2.53H496A1.26,1.26,0,0,1,497.3,167.21Zm3.79,0a1.26,1.26,0,1,1-2.16-.9,1.34,1.34,0,0,1,1.8,0A1.3,1.3,0,0,1,501.09,167.21Zm-11.38,68.29a3.79,3.79,0,1,1,3.79,3.79A3.8,3.8,0,0,1,489.71,235.49Zm-16.44-62h40.47v55.64H473.27Z" transform="translate(-352.01 -106.59)"/><rect class="cls-3" x="141.49" y="66.94" width="20.23" height="55.64"/><path class="cls-21" d="M610.6,228.87a4,4,0,0,1-3.74,2.31H585.6a4,4,0,0,1-3.74-2.31H519.35a1.45,1.45,0,0,0-1.54,1.33v6.56a1.45,1.45,0,0,0,1.54,1.33h151.1a1.45,1.45,0,0,0,1.54-1.33V230.2a1.45,1.45,0,0,0-1.54-1.33Z" transform="translate(-352.01 -106.59)"/><path class="cls-22" d="M581.86,228.87a4,4,0,0,0,3.74,2.31h21.27a4,4,0,0,0,3.74-2.31H664V139c0-3.91-3.65-7.08-8.15-7.08H533.94c-4.5,0-8.15,3.17-8.15,7.08v89.84Z" transform="translate(-352.01 -106.59)"/><rect class="cls-23" x="181.75" y="32.28" width="122.28" height="83.07"/><rect class="cls-20" x="181.75" y="32.28" width="122.28" height="82.71"/><rect class="cls-3" x="242.89" y="32.28" width="61.14" height="82.71"/></g></g></svg>