<svg id="icons" xmlns="http://www.w3.org/2000/svg" viewBox="0 0 105.21 122.81"><defs><style>.cls-1{fill:#c6c5c4;}.cls-2{fill:#fafafa;}.cls-3{fill:#9b9a9a;}.cls-4,.cls-5{fill:none;stroke-miterlimit:10;stroke-width:0.47px;}.cls-4{stroke:#c6c5c4;}.cls-5{stroke:#70706e;}.cls-6{fill:#f9c3a0;}.cls-7{fill:#fff;}.cls-8{fill:#044893;}.cls-9{fill:#fde0bf;}.cls-10{fill:#27aae1;}</style></defs><g id="_Group_" data-name="&lt;Group&gt;"><g id="_Group_2" data-name="&lt;Group&gt;"><g id="_Group_3" data-name="&lt;Group&gt;"><rect id="_Rectangle_" data-name="&lt;Rectangle&gt;" class="cls-1" x="5.61" width="94" height="60.77" rx="5.29" ry="5.29"/><path id="_Path_" data-name="&lt;Path&gt;" class="cls-1" d="M465.09,2822.56H368.22a4.17,4.17,0,0,1-4.09-5l4.87-25a4.17,4.17,0,0,1,4.09-3.37h87.13a4.17,4.17,0,0,1,4.09,3.37l4.87,25A4.17,4.17,0,0,1,465.09,2822.56Z" transform="translate(-364.05 -2730.66)"/><rect id="_Rectangle_2" data-name="&lt;Rectangle&gt;" class="cls-2" x="7.95" y="2.58" width="89.32" height="54.25" rx="3.99" ry="3.99"/><polygon id="_Path_2" data-name="&lt;Path&gt;" class="cls-3" points="100.32 79.17 4.89 79.17 8.61 60.07 96.6 60.07 100.32 79.17"/><polygon id="_Path_3" data-name="&lt;Path&gt;" class="cls-3" points="63.09 88.71 42.12 88.68 43.64 80.9 61.57 80.9 63.09 88.71"/></g><g id="_Group_4" data-name="&lt;Group&gt;"><polygon id="_Path_4" data-name="&lt;Path&gt;" class="cls-1" points="99.19 75.62 93.55 75.62 92.94 71.28 98.39 71.28 99.19 75.62"/><polygon id="_Path_5" data-name="&lt;Path&gt;" class="cls-1" points="87.36 75.62 80.99 75.62 80.47 71.28 86.6 71.28 87.36 75.62"/><g id="_Group_5" data-name="&lt;Group&gt;"><line id="_Path_6" data-name="&lt;Path&gt;" class="cls-4" x1="19.4" y1="60.07" x2="19.04" y2="62.6"/><line id="_Path_7" data-name="&lt;Path&gt;" class="cls-4" x1="19.04" y1="62.6" x2="18.43" y2="66.94"/><line id="_Path_8" data-name="&lt;Path&gt;" class="cls-4" x1="16.72" y1="79.03" x2="17.2" y2="75.62"/><line id="_Path_9" data-name="&lt;Path&gt;" class="cls-4" x1="17.81" y1="71.28" x2="17.2" y2="75.62"/><line id="_Path_10" data-name="&lt;Path&gt;" class="cls-4" x1="18.43" y1="66.94" x2="17.81" y2="71.28"/><line id="_Path_11" data-name="&lt;Path&gt;" class="cls-4" x1="86.7" y1="71.28" x2="86.16" y2="66.94"/><line id="_Path_12" data-name="&lt;Path&gt;" class="cls-4" x1="87.65" y1="79.03" x2="87.23" y2="75.62"/><line id="_Path_13" data-name="&lt;Path&gt;" class="cls-4" x1="85.32" y1="60.07" x2="85.63" y2="62.6"/><line id="_Path_14" data-name="&lt;Path&gt;" class="cls-4" x1="87.23" y1="75.62" x2="86.7" y2="71.28"/><line id="_Path_15" data-name="&lt;Path&gt;" class="cls-4" x1="85.63" y1="62.6" x2="86.16" y2="66.94"/><line id="_Path_16" data-name="&lt;Path&gt;" class="cls-4" x1="80.99" y1="75.62" x2="80.47" y2="71.28"/><line id="_Path_17" data-name="&lt;Path&gt;" class="cls-4" x1="79.12" y1="60.07" x2="79.43" y2="62.6"/><line id="_Path_18" data-name="&lt;Path&gt;" class="cls-4" x1="79.43" y1="62.6" x2="79.95" y2="66.94"/><line id="_Path_19" data-name="&lt;Path&gt;" class="cls-4" x1="79.95" y1="66.94" x2="80.47" y2="71.28"/><line id="_Path_20" data-name="&lt;Path&gt;" class="cls-4" x1="81.4" y1="79.03" x2="80.99" y2="75.62"/><line id="_Path_21" data-name="&lt;Path&gt;" class="cls-4" x1="73.77" y1="66.94" x2="74.22" y2="71.28"/><line id="_Path_22" data-name="&lt;Path&gt;" class="cls-4" x1="73.04" y1="60.07" x2="73.31" y2="62.6"/><line id="_Path_23" data-name="&lt;Path&gt;" class="cls-4" x1="75.04" y1="79.03" x2="74.68" y2="75.62"/><line id="_Path_24" data-name="&lt;Path&gt;" class="cls-4" x1="73.31" y1="62.6" x2="73.77" y2="66.94"/><line id="_Path_25" data-name="&lt;Path&gt;" class="cls-4" x1="74.68" y1="75.62" x2="74.22" y2="71.28"/><line id="_Path_26" data-name="&lt;Path&gt;" class="cls-4" x1="67.12" y1="60.07" x2="67.36" y2="62.6"/><line id="_Path_27" data-name="&lt;Path&gt;" class="cls-4" x1="68.88" y1="79.03" x2="68.56" y2="75.62"/><line id="_Path_28" data-name="&lt;Path&gt;" class="cls-4" x1="67.36" y1="62.6" x2="67.76" y2="66.94"/><line id="_Path_29" data-name="&lt;Path&gt;" class="cls-4" x1="68.56" y1="75.62" x2="68.16" y2="71.28"/><line id="_Path_30" data-name="&lt;Path&gt;" class="cls-4" x1="67.76" y1="66.94" x2="68.16" y2="71.28"/><line id="_Path_31" data-name="&lt;Path&gt;" class="cls-4" x1="61.27" y1="62.6" x2="61.64" y2="66.94"/><line id="_Path_32" data-name="&lt;Path&gt;" class="cls-4" x1="61.06" y1="60.07" x2="61.27" y2="62.6"/><line id="_Path_33" data-name="&lt;Path&gt;" class="cls-4" x1="61.64" y1="66.94" x2="62.01" y2="71.28"/><line id="_Path_34" data-name="&lt;Path&gt;" class="cls-4" x1="62.37" y1="75.62" x2="62.01" y2="71.28"/><line id="_Path_35" data-name="&lt;Path&gt;" class="cls-4" x1="55.04" y1="62.6" x2="55.25" y2="66.94"/><line id="_Path_36" data-name="&lt;Path&gt;" class="cls-4" x1="55.25" y1="66.94" x2="55.47" y2="71.28"/><line id="_Path_37" data-name="&lt;Path&gt;" class="cls-4" x1="55.68" y1="75.62" x2="55.47" y2="71.28"/><line id="_Path_38" data-name="&lt;Path&gt;" class="cls-4" x1="54.91" y1="60.07" x2="55.04" y2="62.6"/><line id="_Path_39" data-name="&lt;Path&gt;" class="cls-4" x1="49.25" y1="66.94" x2="49.1" y2="71.28"/><line id="_Path_40" data-name="&lt;Path&gt;" class="cls-4" x1="49.5" y1="60.07" x2="49.41" y2="62.6"/><line id="_Path_41" data-name="&lt;Path&gt;" class="cls-4" x1="49.41" y1="62.6" x2="49.25" y2="66.94"/><line id="_Path_42" data-name="&lt;Path&gt;" class="cls-4" x1="48.94" y1="75.62" x2="49.1" y2="71.28"/><line id="_Path_43" data-name="&lt;Path&gt;" class="cls-4" x1="42.46" y1="75.62" x2="42.8" y2="71.28"/><line id="_Path_44" data-name="&lt;Path&gt;" class="cls-4" x1="43.15" y1="66.94" x2="42.8" y2="71.28"/><line id="_Path_45" data-name="&lt;Path&gt;" class="cls-4" x1="43.49" y1="62.6" x2="43.15" y2="66.94"/><line id="_Path_46" data-name="&lt;Path&gt;" class="cls-4" x1="43.69" y1="60.07" x2="43.49" y2="62.6"/><line id="_Path_47" data-name="&lt;Path&gt;" class="cls-4" x1="37.64" y1="60.07" x2="37.39" y2="62.6"/><line id="_Path_48" data-name="&lt;Path&gt;" class="cls-4" x1="37.39" y1="62.6" x2="36.97" y2="66.94"/><line id="_Path_49" data-name="&lt;Path&gt;" class="cls-4" x1="36.97" y1="66.94" x2="36.55" y2="71.28"/><line id="_Path_50" data-name="&lt;Path&gt;" class="cls-4" x1="36.13" y1="75.62" x2="36.55" y2="71.28"/><line id="_Path_51" data-name="&lt;Path&gt;" class="cls-4" x1="92.94" y1="71.28" x2="93.52" y2="75.62"/><line id="_Path_52" data-name="&lt;Path&gt;" class="cls-4" x1="93.98" y1="79.03" x2="93.52" y2="75.62"/><line id="_Path_53" data-name="&lt;Path&gt;" class="cls-4" x1="91.42" y1="60.07" x2="91.76" y2="62.6"/><line id="_Path_54" data-name="&lt;Path&gt;" class="cls-4" x1="30.97" y1="66.94" x2="30.49" y2="71.28"/><line id="_Path_55" data-name="&lt;Path&gt;" class="cls-4" x1="31.46" y1="62.6" x2="30.97" y2="66.94"/><line id="_Path_56" data-name="&lt;Path&gt;" class="cls-4" x1="30.01" y1="75.62" x2="30.49" y2="71.28"/><line id="_Path_57" data-name="&lt;Path&gt;" class="cls-4" x1="31.74" y1="60.07" x2="31.46" y2="62.6"/><line id="_Path_58" data-name="&lt;Path&gt;" class="cls-4" x1="24.64" y1="66.94" x2="24.04" y2="71.28"/><line id="_Path_59" data-name="&lt;Path&gt;" class="cls-4" x1="25.59" y1="60.07" x2="25.24" y2="62.6"/><line id="_Path_60" data-name="&lt;Path&gt;" class="cls-4" x1="23.44" y1="75.62" x2="24.04" y2="71.28"/><line id="_Path_61" data-name="&lt;Path&gt;" class="cls-4" x1="25.24" y1="62.6" x2="24.64" y2="66.94"/><line id="_Path_62" data-name="&lt;Path&gt;" class="cls-4" x1="22.97" y1="79.03" x2="23.44" y2="75.62"/><line id="_Path_63" data-name="&lt;Path&gt;" class="cls-4" x1="13.38" y1="60.07" x2="12.96" y2="62.6"/><line id="_Path_64" data-name="&lt;Path&gt;" class="cls-4" x1="10.85" y1="75.62" x2="10.3" y2="79.03"/><line id="_Path_65" data-name="&lt;Path&gt;" class="cls-4" x1="55.04" y1="62.6" x2="49.41" y2="62.6"/><line id="_Path_66" data-name="&lt;Path&gt;" class="cls-4" x1="73.31" y1="62.6" x2="67.36" y2="62.6"/><line id="_Path_67" data-name="&lt;Path&gt;" class="cls-4" x1="67.36" y1="62.6" x2="61.27" y2="62.6"/><line id="_Path_68" data-name="&lt;Path&gt;" class="cls-4" x1="91.76" y1="62.6" x2="85.63" y2="62.6"/><line id="_Path_69" data-name="&lt;Path&gt;" class="cls-4" x1="85.63" y1="62.6" x2="79.43" y2="62.6"/><line id="_Path_70" data-name="&lt;Path&gt;" class="cls-4" x1="79.43" y1="62.6" x2="73.31" y2="62.6"/><line id="_Path_71" data-name="&lt;Path&gt;" class="cls-4" x1="49.41" y1="62.6" x2="43.49" y2="62.6"/><line id="_Path_72" data-name="&lt;Path&gt;" class="cls-4" x1="19.04" y1="62.6" x2="12.96" y2="62.6"/><line id="_Path_73" data-name="&lt;Path&gt;" class="cls-4" x1="43.49" y1="62.6" x2="37.39" y2="62.6"/><line id="_Path_74" data-name="&lt;Path&gt;" class="cls-4" x1="7.57" y1="62.6" x2="12.96" y2="62.6"/><line id="_Path_75" data-name="&lt;Path&gt;" class="cls-4" x1="25.24" y1="62.6" x2="19.04" y2="62.6"/><line id="_Path_76" data-name="&lt;Path&gt;" class="cls-4" x1="96.34" y1="62.6" x2="91.76" y2="62.6"/><line id="_Path_77" data-name="&lt;Path&gt;" class="cls-4" x1="31.46" y1="62.6" x2="25.24" y2="62.6"/><line id="_Path_78" data-name="&lt;Path&gt;" class="cls-4" x1="37.39" y1="62.6" x2="31.46" y2="62.6"/><line id="_Path_79" data-name="&lt;Path&gt;" class="cls-4" x1="61.27" y1="62.6" x2="55.04" y2="62.6"/><line id="_Path_80" data-name="&lt;Path&gt;" class="cls-4" x1="42.46" y1="75.62" x2="48.94" y2="75.62"/><line id="_Path_81" data-name="&lt;Path&gt;" class="cls-4" x1="55.68" y1="75.62" x2="62.37" y2="75.62"/><line id="_Path_82" data-name="&lt;Path&gt;" class="cls-4" x1="48.94" y1="75.62" x2="55.68" y2="75.62"/><line id="_Path_83" data-name="&lt;Path&gt;" class="cls-4" x1="62.37" y1="75.62" x2="68.56" y2="75.62"/><line id="_Path_84" data-name="&lt;Path&gt;" class="cls-4" x1="30.01" y1="75.62" x2="36.13" y2="75.62"/><line id="_Path_85" data-name="&lt;Path&gt;" class="cls-4" x1="68.56" y1="75.62" x2="74.68" y2="75.62"/><line id="_Path_86" data-name="&lt;Path&gt;" class="cls-4" x1="10.85" y1="75.62" x2="5.6" y2="75.62"/><line id="_Path_87" data-name="&lt;Path&gt;" class="cls-4" x1="10.85" y1="75.62" x2="17.2" y2="75.62"/><line id="_Path_88" data-name="&lt;Path&gt;" class="cls-4" x1="23.44" y1="75.62" x2="30.01" y2="75.62"/><line id="_Path_89" data-name="&lt;Path&gt;" class="cls-4" x1="80.99" y1="75.62" x2="87.23" y2="75.62"/><line id="_Path_90" data-name="&lt;Path&gt;" class="cls-4" x1="36.13" y1="75.62" x2="42.46" y2="75.62"/><line id="_Path_91" data-name="&lt;Path&gt;" class="cls-4" x1="17.2" y1="75.62" x2="23.44" y2="75.62"/><line id="_Path_92" data-name="&lt;Path&gt;" class="cls-4" x1="74.68" y1="75.62" x2="80.99" y2="75.62"/><line id="_Path_93" data-name="&lt;Path&gt;" class="cls-4" x1="87.23" y1="75.62" x2="93.52" y2="75.62"/><line id="_Path_94" data-name="&lt;Path&gt;" class="cls-4" x1="98.9" y1="75.62" x2="93.52" y2="75.62"/><line id="_Path_95" data-name="&lt;Path&gt;" class="cls-4" x1="12.26" y1="66.94" x2="18.43" y2="66.94"/><line id="_Path_96" data-name="&lt;Path&gt;" class="cls-4" x1="61.64" y1="66.94" x2="55.25" y2="66.94"/><line id="_Path_97" data-name="&lt;Path&gt;" class="cls-4" x1="30.97" y1="66.94" x2="24.64" y2="66.94"/><line id="_Path_98" data-name="&lt;Path&gt;" class="cls-4" x1="24.64" y1="66.94" x2="18.43" y2="66.94"/><line id="_Path_99" data-name="&lt;Path&gt;" class="cls-4" x1="92.35" y1="66.94" x2="86.16" y2="66.94"/><line id="_Path_100" data-name="&lt;Path&gt;" class="cls-4" x1="36.97" y1="66.94" x2="30.97" y2="66.94"/><line id="_Path_101" data-name="&lt;Path&gt;" class="cls-4" x1="97.4" y1="66.94" x2="92.35" y2="66.94"/><line id="_Path_102" data-name="&lt;Path&gt;" class="cls-4" x1="79.95" y1="66.94" x2="73.77" y2="66.94"/><line id="_Path_103" data-name="&lt;Path&gt;" class="cls-4" x1="12.26" y1="66.94" x2="6.97" y2="66.94"/><line id="_Path_104" data-name="&lt;Path&gt;" class="cls-4" x1="67.76" y1="66.94" x2="61.64" y2="66.94"/><line id="_Path_105" data-name="&lt;Path&gt;" class="cls-4" x1="86.16" y1="66.94" x2="79.95" y2="66.94"/><line id="_Path_106" data-name="&lt;Path&gt;" class="cls-4" x1="73.77" y1="66.94" x2="67.76" y2="66.94"/><line id="_Path_107" data-name="&lt;Path&gt;" class="cls-4" x1="55.25" y1="66.94" x2="49.25" y2="66.94"/><line id="_Path_108" data-name="&lt;Path&gt;" class="cls-4" x1="43.15" y1="66.94" x2="36.97" y2="66.94"/><line id="_Path_109" data-name="&lt;Path&gt;" class="cls-4" x1="49.25" y1="66.94" x2="43.15" y2="66.94"/><line id="_Path_110" data-name="&lt;Path&gt;" class="cls-4" x1="62.01" y1="71.28" x2="68.16" y2="71.28"/><line id="_Path_111" data-name="&lt;Path&gt;" class="cls-4" x1="68.16" y1="71.28" x2="74.22" y2="71.28"/><line id="_Path_112" data-name="&lt;Path&gt;" class="cls-4" x1="74.22" y1="71.28" x2="80.47" y2="71.28"/><line id="_Path_113" data-name="&lt;Path&gt;" class="cls-4" x1="55.47" y1="71.28" x2="62.01" y2="71.28"/><line id="_Path_114" data-name="&lt;Path&gt;" class="cls-4" x1="30.49" y1="71.28" x2="36.55" y2="71.28"/><line id="_Path_115" data-name="&lt;Path&gt;" class="cls-4" x1="6.31" y1="71.28" x2="11.56" y2="71.28"/><line id="_Path_116" data-name="&lt;Path&gt;" class="cls-4" x1="80.47" y1="71.28" x2="86.7" y2="71.28"/><line id="_Path_117" data-name="&lt;Path&gt;" class="cls-4" x1="24.04" y1="71.28" x2="30.49" y2="71.28"/><line id="_Path_118" data-name="&lt;Path&gt;" class="cls-4" x1="36.55" y1="71.28" x2="42.8" y2="71.28"/><line id="_Path_119" data-name="&lt;Path&gt;" class="cls-4" x1="92.94" y1="71.28" x2="86.7" y2="71.28"/><line id="_Path_120" data-name="&lt;Path&gt;" class="cls-4" x1="17.81" y1="71.28" x2="24.04" y2="71.28"/><line id="_Path_121" data-name="&lt;Path&gt;" class="cls-4" x1="42.8" y1="71.28" x2="49.1" y2="71.28"/><line id="_Path_122" data-name="&lt;Path&gt;" class="cls-4" x1="98.13" y1="71.28" x2="92.94" y2="71.28"/><line id="_Path_123" data-name="&lt;Path&gt;" class="cls-4" x1="49.1" y1="71.28" x2="55.47" y2="71.28"/><line id="_Path_124" data-name="&lt;Path&gt;" class="cls-4" x1="11.56" y1="71.28" x2="17.81" y2="71.28"/></g><polyline id="_Path_125" data-name="&lt;Path&gt;" class="cls-5" points="61.15 80.74 62.66 88.5 41.85 88.47"/><polyline id="_Path_126" data-name="&lt;Path&gt;" class="cls-5" points="95.92 60.07 99.61 79.02 4.89 79.02"/></g></g></g><g id="_Group_6" data-name="&lt;Group&gt;"><g id="_Group_7" data-name="&lt;Group&gt;"><path id="_Path_127" data-name="&lt;Path&gt;" class="cls-6" d="M400.82,2821.39c-.2,1.55.55,3,1.69,3.13h0c1.13.18,2.21-.93,2.41-2.48l1.9-14.75c.2-1.55-.55-3-1.69-3.13h0c-1.13-.18-2.21.93-2.41,2.48Z" transform="translate(-364.05 -2730.66)"/><path id="_Path_128" data-name="&lt;Path&gt;" class="cls-6" d="M395.68,2820.25c-.05,1.65.79,3,1.88,3.06h0c1.09,0,2-1.26,2.07-2.91l.48-15.68c.05-1.65-.79-3-1.88-3.06h0c-1.09,0-2,1.26-2.07,2.91Z" transform="translate(-364.05 -2730.66)"/><path id="_Path_129" data-name="&lt;Path&gt;" class="cls-6" d="M390.83,2820.28c.13,1.55,1.1,2.72,2.15,2.61h0c1.05-.11,1.8-1.47,1.67-3l-1.27-14.79c-.13-1.55-1.09-2.72-2.15-2.61h0c-1.05.11-1.8,1.46-1.67,3Z" transform="translate(-364.05 -2730.66)"/><path id="_Path_130" data-name="&lt;Path&gt;" class="cls-6" d="M386.4,2821.94c.23,1.33,1.22,2.24,2.21,2h0a2.31,2.31,0,0,0,1.37-2.79l-2.21-12.66c-.23-1.33-1.22-2.24-2.21-2h0a2.31,2.31,0,0,0-1.37,2.79Z" transform="translate(-364.05 -2730.66)"/><path id="_Path_131" data-name="&lt;Path&gt;" class="cls-6" d="M403.32,2831c-.4.78,1.29-2,2.4-1.26l1-1c1.11.7.38,5.81.38,5.81s5.19-11.55,6.16-13.42c.44-.86-.18-2-1.28-2.69h0a1.65,1.65,0,0,0-2.5.69C408.09,2821.39,403.32,2831,403.32,2831Z" transform="translate(-364.05 -2730.66)"/><polygon id="_Path_132" data-name="&lt;Path&gt;" class="cls-6" points="40.53 88.46 40.54 99.22 21.95 99.48 21.94 88.46 40.53 88.46"/><path id="_Path_133" data-name="&lt;Path&gt;" class="cls-6" d="M386,2827.43s-.13,5.09.42,6.46c.7,1.74,2.33,1.83,2.48,2s0,7.14,0,7.14l14.43.42,0-7.18a4.79,4.79,0,0,0,4.29-2.66c1.48-2.58,1.64-5.34,2.26-8.42l-5.37,3.19-7.88-1.25Z" transform="translate(-364.05 -2730.66)"/><g id="_Group_8" data-name="&lt;Group&gt;"><polygon class="cls-7" points="23.5 112.08 23.51 107.88 40.43 107.91 40.43 112.11 23.5 112.08"/><rect class="cls-8" x="21.47" y="112.11" width="20.85" height="10.71"/></g><path id="_Path_134" data-name="&lt;Path&gt;" class="cls-9" d="M404,2805.79a4,4,0,0,1,.91,0h0a4,4,0,0,1,.9.21c-.06.68-.14,1.69-.52,2a.71.71,0,0,1-.59.16h0a.74.74,0,0,1-.55-.29A3.87,3.87,0,0,1,404,2805.79Z" transform="translate(-364.05 -2730.66)"/><path id="_Path_135" data-name="&lt;Path&gt;" class="cls-9" d="M411.09,2819.84a5,5,0,0,1,1,.49h0a5.18,5.18,0,0,1,.86.71c-.36.68-.89,1.72-1.45,1.89a.82.82,0,0,1-.7-.15h0a1,1,0,0,1-.46-.6A4.39,4.39,0,0,1,411.09,2819.84Z" transform="translate(-364.05 -2730.66)"/><path id="_Path_136" data-name="&lt;Path&gt;" class="cls-9" d="M397.24,2803.14a4,4,0,0,1,.91-.12h0a4,4,0,0,1,.91.1,3.87,3.87,0,0,1-.32,2.1.73.73,0,0,1-.57.23h0a.72.72,0,0,1-.57-.22A3.84,3.84,0,0,1,397.24,2803.14Z" transform="translate(-364.05 -2730.66)"/><path id="_Path_137" data-name="&lt;Path&gt;" class="cls-9" d="M390.21,2804.08a4.14,4.14,0,0,1,.89-.24h0a1.13,1.13,0,1,1,.84,2.09.75.75,0,0,1-.54.31h0a.7.7,0,0,1-.59-.14C390.41,2805.76,390.3,2804.75,390.21,2804.08Z" transform="translate(-364.05 -2730.66)"/><path id="_Path_138" data-name="&lt;Path&gt;" class="cls-9" d="M384.59,2808.09a4.16,4.16,0,0,1,.86-.34h0a1.12,1.12,0,1,1,1,2,.76.76,0,0,1-.51.37h0a.7.7,0,0,1-.6-.07C384.93,2809.74,384.73,2808.75,384.59,2808.09Z" transform="translate(-364.05 -2730.66)"/></g></g><g id="_Group_9" data-name="&lt;Group&gt;"><g id="_Group_10" data-name="&lt;Group&gt;"><path id="_Path_139" data-name="&lt;Path&gt;" class="cls-6" d="M432.49,2821.39c.2,1.55-.55,3-1.69,3.13h0c-1.13.18-2.21-.93-2.41-2.48l-1.9-14.75c-.2-1.55.55-3,1.69-3.13h0c1.13-.18,2.21.93,2.41,2.48Z" transform="translate(-364.05 -2730.66)"/><path id="_Path_140" data-name="&lt;Path&gt;" class="cls-6" d="M437.63,2820.25c.05,1.65-.79,3-1.88,3.06h0c-1.09,0-2-1.26-2.07-2.91l-.48-15.68c-.05-1.65.79-3,1.88-3.06h0c1.09,0,2,1.26,2.07,2.91Z" transform="translate(-364.05 -2730.66)"/><path id="_Path_141" data-name="&lt;Path&gt;" class="cls-6" d="M442.48,2820.28c-.13,1.55-1.1,2.72-2.15,2.61h0c-1.05-.11-1.8-1.47-1.67-3l1.27-14.79c.13-1.55,1.09-2.72,2.15-2.61h0c1.05.11,1.8,1.46,1.67,3Z" transform="translate(-364.05 -2730.66)"/><path id="_Path_142" data-name="&lt;Path&gt;" class="cls-6" d="M446.92,2821.94c-.23,1.33-1.22,2.24-2.21,2h0a2.31,2.31,0,0,1-1.37-2.79l2.21-12.66c.23-1.33,1.22-2.24,2.21-2h0a2.31,2.31,0,0,1,1.37,2.79Z" transform="translate(-364.05 -2730.66)"/><path id="_Path_143" data-name="&lt;Path&gt;" class="cls-6" d="M430,2831c.4.78-1.29-2-2.4-1.26l-1-1c-1.11.7-.38,5.81-.38,5.81S421,2823,420,2821.16c-.44-.86.18-2,1.28-2.69h0a1.65,1.65,0,0,1,2.5.69C425.22,2821.39,430,2831,430,2831Z" transform="translate(-364.05 -2730.66)"/><polygon id="_Path_144" data-name="&lt;Path&gt;" class="cls-6" points="64.69 88.46 64.68 99.22 83.27 99.48 83.28 88.46 64.69 88.46"/><path id="_Path_145" data-name="&lt;Path&gt;" class="cls-6" d="M447.32,2827.43s.13,5.09-.42,6.46c-.7,1.74-2.33,1.83-2.48,2s0,7.14,0,7.14l-14.43.42,0-7.18a4.79,4.79,0,0,1-4.29-2.66c-1.48-2.58-1.64-5.34-2.26-8.42l5.37,3.19,7.88-1.25Z" transform="translate(-364.05 -2730.66)"/><g id="_Group_11" data-name="&lt;Group&gt;"><polygon class="cls-7" points="81.72 112.08 81.71 107.88 64.79 107.91 64.79 112.11 81.72 112.08"/><rect class="cls-8" x="62.9" y="112.11" width="20.85" height="10.71"/></g><path id="_Path_146" data-name="&lt;Path&gt;" class="cls-9" d="M429.34,2805.79a4,4,0,0,0-.91,0h0a4,4,0,0,0-.9.21c.06.68.14,1.69.52,2a.71.71,0,0,0,.59.16h0a.74.74,0,0,0,.55-.29A3.87,3.87,0,0,0,429.34,2805.79Z" transform="translate(-364.05 -2730.66)"/><path id="_Path_147" data-name="&lt;Path&gt;" class="cls-9" d="M422.23,2819.84a5,5,0,0,0-1,.49h0a5.18,5.18,0,0,0-.86.71c.36.68.89,1.72,1.45,1.89a.82.82,0,0,0,.7-.15h0a1,1,0,0,0,.46-.6A4.39,4.39,0,0,0,422.23,2819.84Z" transform="translate(-364.05 -2730.66)"/><path id="_Path_148" data-name="&lt;Path&gt;" class="cls-9" d="M436.07,2803.14a4,4,0,0,0-.91-.12h0a4,4,0,0,0-.91.1,3.87,3.87,0,0,0,.32,2.1.73.73,0,0,0,.57.23h0a.72.72,0,0,0,.57-.22A3.84,3.84,0,0,0,436.07,2803.14Z" transform="translate(-364.05 -2730.66)"/><path id="_Path_149" data-name="&lt;Path&gt;" class="cls-9" d="M443.1,2804.08a4.14,4.14,0,0,0-.89-.24h0a1.13,1.13,0,1,0-.84,2.09.75.75,0,0,0,.54.31h0a.7.7,0,0,0,.59-.14C442.91,2805.76,443,2804.75,443.1,2804.08Z" transform="translate(-364.05 -2730.66)"/><path id="_Path_150" data-name="&lt;Path&gt;" class="cls-9" d="M448.73,2808.09a4.16,4.16,0,0,0-.86-.34h0a1.12,1.12,0,1,0-1,2,.76.76,0,0,0,.51.37h0a.7.7,0,0,0,.6-.07C448.38,2809.74,448.58,2808.75,448.73,2808.09Z" transform="translate(-364.05 -2730.66)"/></g></g><path class="cls-10" d="M395.37,2754a8,8,0,0,1-.63,3.17,14,14,0,0,1-1.61,2.8,22.73,22.73,0,0,1-2.45,2.73h5v3.38H385v-2.43q.94-.79,2-1.89t2.24-2.46a10.63,10.63,0,0,0,1.55-2.41,5.51,5.51,0,0,0,.49-2.22,2.32,2.32,0,0,0-.53-1.61,2.36,2.36,0,0,0-1.81-.58,6.17,6.17,0,0,0-1.76.26,10.48,10.48,0,0,0-1.78.72v-3.52a10.74,10.74,0,0,1,2-.62,12,12,0,0,1,2.48-.25,7.1,7.1,0,0,1,2.16.32,5,5,0,0,1,1.73.93,4.32,4.32,0,0,1,1.15,1.54A5.1,5.1,0,0,1,395.37,2754Z" transform="translate(-364.05 -2730.66)"/><path class="cls-10" d="M398.36,2769.24a8.35,8.35,0,0,0,1.12-1.48,10.51,10.51,0,0,0,.75-1.55,2,2,0,0,1-1.63-2.08,2.21,2.21,0,0,1,.65-1.63,2.45,2.45,0,0,1,4.22,1.68,5,5,0,0,1-.19,1.33,8.32,8.32,0,0,1-.5,1.34,12.7,12.7,0,0,1-.7,1.28q-.39.62-.76,1.11Z" transform="translate(-364.05 -2730.66)"/><path class="cls-10" d="M413.8,2762.68h3.27v3.38H406.62v-3.38h3.29v-10.06l-3.29,1v-3.38l4.23-1h3Z" transform="translate(-364.05 -2730.66)"/><path class="cls-10" d="M430.3,2760.46a5.68,5.68,0,0,1-1.62,4.3,6.72,6.72,0,0,1-4.82,1.55,11.37,11.37,0,0,1-2-.19,11,11,0,0,1-1.84-.49v-3.41a11.65,11.65,0,0,0,1.82.52,8.46,8.46,0,0,0,1.59.15,5.66,5.66,0,0,0,1.12-.11,2.51,2.51,0,0,0,.9-.36,1.7,1.7,0,0,0,.59-.68,2.42,2.42,0,0,0,.21-1.07,1.85,1.85,0,0,0-.88-1.71,4.48,4.48,0,0,0-2.34-.53c-.45,0-.86,0-1.23,0s-.78.09-1.23.16v-9.43h9v3.38h-5.11v2.43h1a5.07,5.07,0,0,1,2,.39,4.29,4.29,0,0,1,1.53,1.08,4.79,4.79,0,0,1,1,1.7A7,7,0,0,1,430.3,2760.46Z" transform="translate(-364.05 -2730.66)"/><path class="cls-10" d="M444.11,2757.95a15.89,15.89,0,0,1-.28,2.94,8.54,8.54,0,0,1-1,2.7,5.81,5.81,0,0,1-1.84,2,5.13,5.13,0,0,1-2.9.77,4.81,4.81,0,0,1-2.81-.77,5.64,5.64,0,0,1-1.76-2,8.67,8.67,0,0,1-.91-2.68,17.09,17.09,0,0,1-.26-2.93,19.8,19.8,0,0,1,.26-3.17,9.28,9.28,0,0,1,.93-2.87,5.69,5.69,0,0,1,1.83-2.08,5.1,5.1,0,0,1,3-.79,4.67,4.67,0,0,1,2.79.79,5.77,5.77,0,0,1,1.77,2.08,9.72,9.72,0,0,1,.93,2.87A18.88,18.88,0,0,1,444.11,2757.95Zm-4.08,0q0-.79,0-1.74a10.47,10.47,0,0,0-.21-1.77,4.13,4.13,0,0,0-.52-1.38,1.12,1.12,0,0,0-1-.55,1.07,1.07,0,0,0-.93.55,4.49,4.49,0,0,0-.55,1.38,10.32,10.32,0,0,0-.26,1.77q-.06.94-.06,1.74t.06,1.75a8.07,8.07,0,0,0,.26,1.61,3.51,3.51,0,0,0,.55,1.19,1.11,1.11,0,0,0,.93.47,1.18,1.18,0,0,0,1-.47,3.23,3.23,0,0,0,.52-1.19,8.24,8.24,0,0,0,.21-1.61Q440,2758.76,440,2757.9Z" transform="translate(-364.05 -2730.66)"/></svg>