<svg id="text" xmlns="http://www.w3.org/2000/svg" viewBox="0 0 642.39 35.53"><defs><style>.cls-1{fill:#fff;}</style></defs><path class="cls-1" d="M210,295.67a21.73,21.73,0,0,1-.68,5.58,12.59,12.59,0,0,1-2.11,4.45,9.87,9.87,0,0,1-3.67,2.94,12.33,12.33,0,0,1-5.36,1.07h-6.86V281.59h6.47a14.18,14.18,0,0,1,5.54,1,9.59,9.59,0,0,1,3.78,2.81,11.87,11.87,0,0,1,2.18,4.45A22.55,22.55,0,0,1,210,295.67Zm-3.51,0a23.85,23.85,0,0,0-.33-4,11.65,11.65,0,0,0-1.17-3.55,7.05,7.05,0,0,0-2.26-2.55,6.18,6.18,0,0,0-3.57-1h-4.45v22.11h4.17a6.45,6.45,0,0,0,3.82-1.05,7.37,7.37,0,0,0,2.32-2.69,12,12,0,0,0,1.15-3.59A23.76,23.76,0,0,0,206.54,295.63Z" transform="translate(-191.37 -281.09)"/><path class="cls-1" d="M216.87,293.57a7.77,7.77,0,0,1,2.2-2.52,5.1,5.1,0,0,1,3.14-1.07,9.13,9.13,0,0,1,1.21.09v2.64a4.51,4.51,0,0,0-.55,0h-.55a6.27,6.27,0,0,0-2.79.7,9.53,9.53,0,0,0-2.63,1.95v14.39h-3.24V290.45h2.81Z" transform="translate(-191.37 -281.09)"/><path class="cls-1" d="M224.95,283.31a2.18,2.18,0,0,1,.64-1.56,2.09,2.09,0,0,1,1.57-.66,2.22,2.22,0,1,1,0,4.45,2.09,2.09,0,0,1-1.57-.66A2.18,2.18,0,0,1,224.95,283.31Zm3.86,26.4h-3.24V290.45h3.24Z" transform="translate(-191.37 -281.09)"/><path class="cls-1" d="M239.42,305.93l5-15.48h3.43l-6.86,19.27H237.7l-6.83-19.27h3.59Z" transform="translate(-191.37 -281.09)"/><path class="cls-1" d="M249.24,283.31a2.18,2.18,0,0,1,.64-1.56,2.09,2.09,0,0,1,1.57-.66,2.22,2.22,0,1,1,0,4.45,2.09,2.09,0,0,1-1.57-.66A2.18,2.18,0,0,1,249.24,283.31Zm3.86,26.4h-3.24V290.45h3.24Z" transform="translate(-191.37 -281.09)"/><path class="cls-1" d="M272.21,309.71H269v-13a5,5,0,0,0-.74-2.93,3,3,0,0,0-2.61-1,4.68,4.68,0,0,0-2.65.84,11.16,11.16,0,0,0-2.15,1.85v14.31h-3.24V290.45h2.77l.39,2.38a11.51,11.51,0,0,1,2.69-2.13,6.43,6.43,0,0,1,3.12-.72,5.56,5.56,0,0,1,4.17,1.52,5.78,5.78,0,0,1,1.48,4.21Z" transform="translate(-191.37 -281.09)"/><path class="cls-1" d="M291.09,309.24q0,3.94-2.11,5.65a9.08,9.08,0,0,1-5.89,1.72,26.58,26.58,0,0,1-3.18-.19,14.36,14.36,0,0,1-2.79-.58v-2.89a26.8,26.8,0,0,0,2.82.68,15.77,15.77,0,0,0,2.86.25,6.71,6.71,0,0,0,3.63-.87,3.42,3.42,0,0,0,1.38-3.14v-2.62a10.41,10.41,0,0,1-2.29,1.29,7.61,7.61,0,0,1-6-.25,6.78,6.78,0,0,1-2.33-2,8.9,8.9,0,0,1-1.36-2.92,13.2,13.2,0,0,1-.45-3.45,16,16,0,0,1,.45-3.84,9.22,9.22,0,0,1,1.4-3.16,6.91,6.91,0,0,1,2.41-2.13,7.28,7.28,0,0,1,3.48-.78,5.89,5.89,0,0,1,2.6.6,8.59,8.59,0,0,1,2.22,1.54l.4-1.68h2.8Zm-3.24-14.7a9.77,9.77,0,0,0-2-1.31,5.28,5.28,0,0,0-2.33-.53,4.28,4.28,0,0,0-2.31.57,4.45,4.45,0,0,0-1.48,1.52,6.64,6.64,0,0,0-.8,2.21,14.33,14.33,0,0,0-.23,2.6,14.06,14.06,0,0,0,.21,2.47,6.33,6.33,0,0,0,.78,2.15,4.23,4.23,0,0,0,1.55,1.52,5.12,5.12,0,0,0,2.58.57,6.73,6.73,0,0,0,2.21-.39,5.31,5.31,0,0,0,1.83-1Z" transform="translate(-191.37 -281.09)"/><path class="cls-1" d="M312.85,304.37a6.06,6.06,0,0,1-.51,2.57,4.89,4.89,0,0,1-1.38,1.79,6,6,0,0,1-2,1.05,8.46,8.46,0,0,1-2.48.35,14.81,14.81,0,0,1-2.79-.27,12.66,12.66,0,0,1-2.75-.86v-3a20.18,20.18,0,0,0,2.49,1,9.17,9.17,0,0,0,2.75.41,4.44,4.44,0,0,0,2.39-.59,2.19,2.19,0,0,0,.95-2,2.57,2.57,0,0,0-.61-1.76,6.64,6.64,0,0,0-1.5-1.24,21.63,21.63,0,0,0-1.93-1.06,11.21,11.21,0,0,1-1.93-1.19,6,6,0,0,1-1.5-1.7,4.94,4.94,0,0,1-.61-2.57,5.11,5.11,0,0,1,.47-2.2,4.83,4.83,0,0,1,1.29-1.68,5.87,5.87,0,0,1,2-1.05,7.85,7.85,0,0,1,2.46-.37,12.62,12.62,0,0,1,4.72.94V294a20.39,20.39,0,0,0-2.12-.9,7,7,0,0,0-2.39-.39,3.7,3.7,0,0,0-2.18.59,2,2,0,0,0-.84,1.74,2.35,2.35,0,0,0,.59,1.64,6.41,6.41,0,0,0,1.49,1.19q.9.53,2,1a10.77,10.77,0,0,1,2,1.21,6,6,0,0,1,1.49,1.72A5,5,0,0,1,312.85,304.37Z" transform="translate(-191.37 -281.09)"/><path class="cls-1" d="M326,309.71l-.36-1.56a11.19,11.19,0,0,1-2.14,1.37,6.33,6.33,0,0,1-2.88.62,6,6,0,0,1-4.39-1.58,5.9,5.9,0,0,1-1.59-4.39,7.06,7.06,0,0,1,.56-2.92,5.64,5.64,0,0,1,1.55-2.07,6.63,6.63,0,0,1,2.37-1.23,10.53,10.53,0,0,1,3-.41h3.34v-1a4,4,0,0,0-.87-3,4.09,4.09,0,0,0-2.89-.84,12.64,12.64,0,0,0-2.62.31,16.33,16.33,0,0,0-2.54.74v-3a18,18,0,0,1,2.59-.57,19.82,19.82,0,0,1,3.06-.25q3.39,0,5,1.58a6.67,6.67,0,0,1,1.58,4.89v13.26Zm-.47-9.44h-3.17a5.37,5.37,0,0,0-3.22.84,3.25,3.25,0,0,0-1.14,2.81,3.58,3.58,0,0,0,.87,2.6,3.48,3.48,0,0,0,2.61.89,5.17,5.17,0,0,0,2.26-.49,8,8,0,0,0,1.8-1.15Z" transform="translate(-191.37 -281.09)"/><path class="cls-1" d="M336.09,309.71h-3.24V281.59h3.24Z" transform="translate(-191.37 -281.09)"/><path class="cls-1" d="M342.72,301a9.25,9.25,0,0,0,.31,2.42,5.85,5.85,0,0,0,1,2,4.68,4.68,0,0,0,1.79,1.41,6.36,6.36,0,0,0,2.7.52,12.59,12.59,0,0,0,5.4-1.33v2.81a11.08,11.08,0,0,1-2.87.94,16.62,16.62,0,0,1-3.14.31,9.17,9.17,0,0,1-3.84-.74,7.15,7.15,0,0,1-2.67-2.07,8.53,8.53,0,0,1-1.54-3.18,16.13,16.13,0,0,1-.49-4.11,14.94,14.94,0,0,1,.49-3.86,9.53,9.53,0,0,1,1.48-3.2,7.48,7.48,0,0,1,2.5-2.18,7.26,7.26,0,0,1,3.53-.82,6.81,6.81,0,0,1,3.35.76,6.42,6.42,0,0,1,2.22,2,8.47,8.47,0,0,1,1.23,2.94,16.07,16.07,0,0,1,.37,3.47v1.05q0,.39,0,.78Zm8.42-2.73a14,14,0,0,0-.15-2.07,4.91,4.91,0,0,0-.61-1.79,3.44,3.44,0,0,0-1.27-1.24,4.18,4.18,0,0,0-2.11-.47,3.57,3.57,0,0,0-1.77.43,4.2,4.2,0,0,0-1.33,1.17,5.8,5.8,0,0,0-.87,1.77,8.27,8.27,0,0,0-.36,2.2Z" transform="translate(-191.37 -281.09)"/><path class="cls-1" d="M368.31,304.37a6.06,6.06,0,0,1-.51,2.57,4.89,4.89,0,0,1-1.38,1.79,6,6,0,0,1-2,1.05,8.46,8.46,0,0,1-2.48.35,14.81,14.81,0,0,1-2.79-.27,12.66,12.66,0,0,1-2.75-.86v-3a20.18,20.18,0,0,0,2.49,1,9.17,9.17,0,0,0,2.75.41,4.44,4.44,0,0,0,2.39-.59,2.19,2.19,0,0,0,.95-2,2.57,2.57,0,0,0-.61-1.76,6.64,6.64,0,0,0-1.5-1.24,21.63,21.63,0,0,0-1.93-1.06,11.21,11.21,0,0,1-1.93-1.19,6,6,0,0,1-1.5-1.7,4.94,4.94,0,0,1-.61-2.57,5.11,5.11,0,0,1,.47-2.2,4.83,4.83,0,0,1,1.29-1.68,5.87,5.87,0,0,1,2-1.05A7.85,7.85,0,0,1,363,290a12.62,12.62,0,0,1,4.72.94V294a20.39,20.39,0,0,0-2.12-.9,7,7,0,0,0-2.39-.39,3.7,3.7,0,0,0-2.18.59,2,2,0,0,0-.84,1.74,2.35,2.35,0,0,0,.59,1.64,6.41,6.41,0,0,0,1.49,1.19q.9.53,2,1a10.77,10.77,0,0,1,2,1.21,6,6,0,0,1,1.49,1.72A5,5,0,0,1,368.31,304.37Z" transform="translate(-191.37 -281.09)"/><path class="cls-1" d="M382.78,290.45h5v2.73h-5v11.37a3.24,3.24,0,0,0,.6,2.18,2.73,2.73,0,0,0,2.13.69,7.41,7.41,0,0,0,1.6-.16,8.25,8.25,0,0,0,1.37-.43v2.73a8.31,8.31,0,0,1-1.77.45,13.13,13.13,0,0,1-1.85.14,5.77,5.77,0,0,1-4-1.19,5.07,5.07,0,0,1-1.29-3.88v-11.9h-3.63v-2.73h3.63v-5.19h3.24Z" transform="translate(-191.37 -281.09)"/><path class="cls-1" d="M394.12,293.57a7.77,7.77,0,0,1,2.2-2.52,5.1,5.1,0,0,1,3.14-1.07,9.13,9.13,0,0,1,1.21.09v2.64a4.51,4.51,0,0,0-.55,0h-.55a6.27,6.27,0,0,0-2.79.7,9.53,9.53,0,0,0-2.63,1.95v14.39h-3.24V290.45h2.81Z" transform="translate(-191.37 -281.09)"/><path class="cls-1" d="M412,309.71l-.36-1.56a11.19,11.19,0,0,1-2.14,1.37,6.33,6.33,0,0,1-2.88.62,6,6,0,0,1-4.39-1.58,5.9,5.9,0,0,1-1.59-4.39,7.06,7.06,0,0,1,.56-2.92,5.64,5.64,0,0,1,1.55-2.07,6.63,6.63,0,0,1,2.37-1.23,10.53,10.53,0,0,1,3-.41h3.34v-1a4,4,0,0,0-.87-3,4.09,4.09,0,0,0-2.89-.84,12.64,12.64,0,0,0-2.62.31,16.33,16.33,0,0,0-2.54.74v-3a18,18,0,0,1,2.59-.57,19.82,19.82,0,0,1,3.06-.25q3.39,0,5,1.58a6.67,6.67,0,0,1,1.58,4.89v13.26Zm-.47-9.44h-3.17a5.37,5.37,0,0,0-3.22.84,3.25,3.25,0,0,0-1.14,2.81,3.58,3.58,0,0,0,.87,2.6,3.48,3.48,0,0,0,2.61.89,5.17,5.17,0,0,0,2.26-.49,8,8,0,0,0,1.8-1.15Z" transform="translate(-191.37 -281.09)"/><path class="cls-1" d="M433.51,309.71h-3.24v-13a5,5,0,0,0-.74-2.93,3,3,0,0,0-2.61-1,4.68,4.68,0,0,0-2.65.84,11.16,11.16,0,0,0-2.15,1.85v14.31h-3.24V290.45h2.77l.39,2.38a11.51,11.51,0,0,1,2.69-2.13,6.43,6.43,0,0,1,3.12-.72A5.56,5.56,0,0,1,432,291.5a5.78,5.78,0,0,1,1.48,4.21Z" transform="translate(-191.37 -281.09)"/><path class="cls-1" d="M448.33,304.37a6.06,6.06,0,0,1-.51,2.57,4.89,4.89,0,0,1-1.38,1.79,6,6,0,0,1-2,1.05,8.46,8.46,0,0,1-2.48.35,14.81,14.81,0,0,1-2.79-.27,12.66,12.66,0,0,1-2.75-.86v-3a20.18,20.18,0,0,0,2.49,1,9.17,9.17,0,0,0,2.75.41,4.44,4.44,0,0,0,2.39-.59,2.19,2.19,0,0,0,.95-2,2.57,2.57,0,0,0-.61-1.76,6.64,6.64,0,0,0-1.5-1.24,21.63,21.63,0,0,0-1.93-1.06,11.21,11.21,0,0,1-1.93-1.19,6,6,0,0,1-1.5-1.7,4.94,4.94,0,0,1-.61-2.57,5.11,5.11,0,0,1,.47-2.2,4.83,4.83,0,0,1,1.29-1.68,5.87,5.87,0,0,1,2-1.05,7.85,7.85,0,0,1,2.46-.37,12.62,12.62,0,0,1,4.72.94V294a20.39,20.39,0,0,0-2.12-.9,7,7,0,0,0-2.39-.39,3.7,3.7,0,0,0-2.18.59,2,2,0,0,0-.84,1.74,2.35,2.35,0,0,0,.59,1.64,6.41,6.41,0,0,0,1.49,1.19q.9.53,2,1a10.77,10.77,0,0,1,2,1.21,6,6,0,0,1,1.49,1.72A5,5,0,0,1,448.33,304.37Z" transform="translate(-191.37 -281.09)"/><path class="cls-1" d="M458.75,281.28a14.15,14.15,0,0,1,1.62.1,13,13,0,0,1,1.35.21v2.73a7.79,7.79,0,0,0-1.35-.23q-.8-.08-1.58-.08a2.82,2.82,0,0,0-2.38.83,4.23,4.23,0,0,0-.62,2.54v3.06h5.5v2.73h-5.5v16.54h-3.24V293.18h-3.43v-2.73h3.43v-2.92q0-3.24,1.5-4.74A6.42,6.42,0,0,1,458.75,281.28Z" transform="translate(-191.37 -281.09)"/><path class="cls-1" d="M477.86,300.08a15.48,15.48,0,0,1-.47,3.88,9.27,9.27,0,0,1-1.48,3.2,7.22,7.22,0,0,1-2.57,2.18,9.3,9.3,0,0,1-7.55,0,7.18,7.18,0,0,1-2.59-2.18,9.25,9.25,0,0,1-1.48-3.2,16.07,16.07,0,0,1,0-7.7,9.69,9.69,0,0,1,1.46-3.24,7.11,7.11,0,0,1,2.57-2.22,9.24,9.24,0,0,1,7.6,0,7.11,7.11,0,0,1,2.57,2.22,9.69,9.69,0,0,1,1.46,3.24A15.4,15.4,0,0,1,477.86,300.08ZM474.5,300a19.92,19.92,0,0,0-.18-2.65,6.81,6.81,0,0,0-.72-2.33,4.57,4.57,0,0,0-1.52-1.67,5.33,5.33,0,0,0-5.09,0,4.61,4.61,0,0,0-1.5,1.67,6.8,6.8,0,0,0-.72,2.33,19.92,19.92,0,0,0-.18,2.65,18.89,18.89,0,0,0,.19,2.75,7.34,7.34,0,0,0,.74,2.37,4.4,4.4,0,0,0,1.5,1.67,4.52,4.52,0,0,0,2.52.63,4.62,4.62,0,0,0,2.54-.63,4.21,4.21,0,0,0,1.5-1.67,7.69,7.69,0,0,0,.72-2.37A19,19,0,0,0,474.5,300Z" transform="translate(-191.37 -281.09)"/><path class="cls-1" d="M484.29,293.57a7.77,7.77,0,0,1,2.2-2.52,5.1,5.1,0,0,1,3.14-1.07,9.13,9.13,0,0,1,1.21.09v2.64a4.51,4.51,0,0,0-.55,0h-.55a6.27,6.27,0,0,0-2.79.7,9.53,9.53,0,0,0-2.63,1.95v14.39h-3.24V290.45h2.81Z" transform="translate(-191.37 -281.09)"/><path class="cls-1" d="M506.87,309.71h-3.24v-13a5.91,5.91,0,0,0-.6-2.89,2.42,2.42,0,0,0-2.32-1.08,4,4,0,0,0-2.36.84,18,18,0,0,0-2.13,1.81v14.35H493V290.45h2.77l.39,2.42a14.76,14.76,0,0,1,2.4-2,5.36,5.36,0,0,1,3.06-.88,4.61,4.61,0,0,1,4.64,2.92,14.57,14.57,0,0,1,2.81-2.09,6.25,6.25,0,0,1,3.12-.84,5,5,0,0,1,4,1.58,6.13,6.13,0,0,1,1.37,4.15v14h-3.24v-13a10.14,10.14,0,0,0-.12-1.59,3.36,3.36,0,0,0-.45-1.26,2.28,2.28,0,0,0-.9-.82,3.16,3.16,0,0,0-1.46-.29,4.76,4.76,0,0,0-2.36.7,11.13,11.13,0,0,0-2.2,1.64q0,.24.06.57c0,.22,0,.41,0,.57Z" transform="translate(-191.37 -281.09)"/><path class="cls-1" d="M531.87,309.71l-.36-1.56a11.19,11.19,0,0,1-2.14,1.37,6.34,6.34,0,0,1-2.88.62,6,6,0,0,1-4.39-1.58,5.9,5.9,0,0,1-1.59-4.39,7,7,0,0,1,.56-2.92,5.65,5.65,0,0,1,1.55-2.07A6.63,6.63,0,0,1,525,298a10.53,10.53,0,0,1,3-.41h3.34v-1a4,4,0,0,0-.87-3,4.09,4.09,0,0,0-2.89-.84A12.64,12.64,0,0,0,525,293a16.33,16.33,0,0,0-2.54.74v-3a18,18,0,0,1,2.59-.57,19.81,19.81,0,0,1,3.06-.25q3.39,0,5,1.58a6.67,6.67,0,0,1,1.58,4.89v13.26Zm-.47-9.44h-3.17a5.38,5.38,0,0,0-3.22.84,3.25,3.25,0,0,0-1.14,2.81,3.58,3.58,0,0,0,.87,2.6,3.48,3.48,0,0,0,2.61.89,5.17,5.17,0,0,0,2.26-.49,8,8,0,0,0,1.79-1.15Z" transform="translate(-191.37 -281.09)"/><path class="cls-1" d="M543.14,290.45h5v2.73h-5v11.37a3.24,3.24,0,0,0,.6,2.18,2.73,2.73,0,0,0,2.13.69,7.4,7.4,0,0,0,1.6-.16,8.23,8.23,0,0,0,1.37-.43v2.73a8.3,8.3,0,0,1-1.77.45,13.14,13.14,0,0,1-1.85.14,5.77,5.77,0,0,1-4-1.19,5.07,5.07,0,0,1-1.29-3.88v-11.9h-3.63v-2.73h3.63v-5.19h3.24Z" transform="translate(-191.37 -281.09)"/><path class="cls-1" d="M550.67,283.31a2.18,2.18,0,0,1,.64-1.56,2.09,2.09,0,0,1,1.57-.66,2.22,2.22,0,1,1,0,4.45,2.08,2.08,0,0,1-1.57-.66A2.17,2.17,0,0,1,550.67,283.31Zm3.86,26.4h-3.24V290.45h3.24Z" transform="translate(-191.37 -281.09)"/><path class="cls-1" d="M574.38,300.08a15.5,15.5,0,0,1-.47,3.88,9.28,9.28,0,0,1-1.48,3.2,7.22,7.22,0,0,1-2.57,2.18,9.3,9.3,0,0,1-7.55,0,7.18,7.18,0,0,1-2.59-2.18,9.24,9.24,0,0,1-1.48-3.2,16.05,16.05,0,0,1,0-7.7,9.68,9.68,0,0,1,1.46-3.24,7.11,7.11,0,0,1,2.57-2.22,9.24,9.24,0,0,1,7.6,0,7.11,7.11,0,0,1,2.57,2.22,9.7,9.7,0,0,1,1.46,3.24A15.42,15.42,0,0,1,574.38,300.08ZM571,300a19.92,19.92,0,0,0-.18-2.65,6.81,6.81,0,0,0-.72-2.33,4.56,4.56,0,0,0-1.52-1.67,5.33,5.33,0,0,0-5.09,0A4.62,4.62,0,0,0,562,295a6.79,6.79,0,0,0-.72,2.33,19.92,19.92,0,0,0-.18,2.65,19,19,0,0,0,.19,2.75,7.34,7.34,0,0,0,.74,2.37,4.41,4.41,0,0,0,1.5,1.67,4.52,4.52,0,0,0,2.52.63,4.62,4.62,0,0,0,2.54-.63,4.21,4.21,0,0,0,1.5-1.67,7.71,7.71,0,0,0,.72-2.37A19,19,0,0,0,571,300Z" transform="translate(-191.37 -281.09)"/><path class="cls-1" d="M592.24,309.71H589v-13a5,5,0,0,0-.74-2.93,3,3,0,0,0-2.61-1,4.68,4.68,0,0,0-2.65.84,11.17,11.17,0,0,0-2.15,1.85v14.31h-3.24V290.45h2.77l.39,2.38a11.51,11.51,0,0,1,2.69-2.13,6.44,6.44,0,0,1,3.12-.72,5.56,5.56,0,0,1,4.17,1.52,5.78,5.78,0,0,1,1.48,4.21Z" transform="translate(-191.37 -281.09)"/><path class="cls-1" d="M619.95,305.42l4-15h3.08l-5.58,19.27h-3.24l-4-15.25-4,15.25H607l-5.85-19.27h3.32l4.27,14.9,4-14.9H616Z" transform="translate(-191.37 -281.09)"/><path class="cls-1" d="M628.67,283.31a2.18,2.18,0,0,1,.64-1.56,2.09,2.09,0,0,1,1.57-.66,2.22,2.22,0,1,1,0,4.45,2.08,2.08,0,0,1-1.57-.66A2.17,2.17,0,0,1,628.67,283.31Zm3.86,26.4h-3.24V290.45h3.24Z" transform="translate(-191.37 -281.09)"/><path class="cls-1" d="M641.54,290.45h5v2.73h-5v11.37a3.24,3.24,0,0,0,.6,2.18,2.73,2.73,0,0,0,2.13.69,7.41,7.41,0,0,0,1.6-.16,8.26,8.26,0,0,0,1.37-.43v2.73a8.32,8.32,0,0,1-1.78.45,13.12,13.12,0,0,1-1.85.14,5.77,5.77,0,0,1-4-1.19,5.07,5.07,0,0,1-1.29-3.88v-11.9h-3.63v-2.73h3.63v-5.19h3.24Z" transform="translate(-191.37 -281.09)"/><path class="cls-1" d="M664.35,309.71h-3.24V296.6a4.6,4.6,0,0,0-.78-2.91,3.36,3.36,0,0,0-2.77-1,4.33,4.33,0,0,0-2.32.72,11.06,11.06,0,0,0-2.28,2v14.31h-3.24V281.59H653v11.15a12.31,12.31,0,0,1,2.4-1.91,6.21,6.21,0,0,1,3.33-.86,5.56,5.56,0,0,1,4.17,1.52,5.78,5.78,0,0,1,1.48,4.21Z" transform="translate(-191.37 -281.09)"/><path class="cls-1" d="M689.89,301.6a10.07,10.07,0,0,1-.57,3.41,7.35,7.35,0,0,1-1.68,2.71,7.79,7.79,0,0,1-2.75,1.77,10.19,10.19,0,0,1-3.74.64,19.52,19.52,0,0,1-7.92-1.51v-5a22.38,22.38,0,0,0,3.78,1.56,13.05,13.05,0,0,0,3.78.55,4,4,0,0,0,2.76-.86,3.17,3.17,0,0,0,.95-2.47,3.6,3.6,0,0,0-.83-2.47,8.39,8.39,0,0,0-2.06-1.67A28,28,0,0,0,679,296.9a13.17,13.17,0,0,1-2.66-1.6,8.07,8.07,0,0,1-2.07-2.4,7.37,7.37,0,0,1-.83-3.71,8.21,8.21,0,0,1,.64-3.33,7.1,7.1,0,0,1,1.81-2.5,7.8,7.8,0,0,1,2.79-1.56,11.49,11.49,0,0,1,3.57-.53,17.69,17.69,0,0,1,3.43.31,13.37,13.37,0,0,1,2.92.93v4.89a21.56,21.56,0,0,0-3-1.23,10,10,0,0,0-3.13-.49,4.22,4.22,0,0,0-2.64.8,2.64,2.64,0,0,0-1,2.21,3.08,3.08,0,0,0,.82,2.18,8.85,8.85,0,0,0,2.06,1.61q1.24.73,2.68,1.47a15.39,15.39,0,0,1,2.68,1.75,8.81,8.81,0,0,1,2.06,2.42A6.81,6.81,0,0,1,689.89,301.6Z" transform="translate(-191.37 -281.09)"/><path class="cls-1" d="M702.26,309.71l-.39-1.68a10.15,10.15,0,0,1-1.85,1.44,5.12,5.12,0,0,1-2.74.66,5.46,5.46,0,0,1-4.22-1.66,6.43,6.43,0,0,1-1.53-4.54,6.55,6.55,0,0,1,.62-3,5.15,5.15,0,0,1,1.71-2,7.39,7.39,0,0,1,2.52-1.07,13.47,13.47,0,0,1,3-.33h2.14v-1.09a2.18,2.18,0,0,0-.8-1.85,3.48,3.48,0,0,0-2.15-.6,14.32,14.32,0,0,0-2.7.27,19.39,19.39,0,0,0-2.66.7v-4.13l1.37-.33q.78-.18,1.62-.29t1.7-.19q.86-.08,1.56-.08,3.59,0,5.3,1.74a7.12,7.12,0,0,1,1.72,5.21v12.79Zm-.66-8.7h-1.77a4,4,0,0,0-2.38.64,2.24,2.24,0,0,0-.88,1.95,2.79,2.79,0,0,0,.56,1.76,2.11,2.11,0,0,0,1.79.72,3.63,3.63,0,0,0,1.5-.29,8.65,8.65,0,0,0,1.19-.64Z" transform="translate(-191.37 -281.09)"/><path class="cls-1" d="M714.93,309.71H710V281.59h4.91Z" transform="translate(-191.37 -281.09)"/><path class="cls-1" d="M722.77,301.68a5.11,5.11,0,0,0,1.41,3.17,4.77,4.77,0,0,0,3.56,1.24,10.46,10.46,0,0,0,2.72-.33,23.63,23.63,0,0,0,2.6-.88V309a11.46,11.46,0,0,1-2.69.84,16.7,16.7,0,0,1-3.16.29,11.76,11.76,0,0,1-4.35-.72,7.36,7.36,0,0,1-2.95-2,8.34,8.34,0,0,1-1.66-3.18,15.2,15.2,0,0,1-.53-4.15,14.06,14.06,0,0,1,.51-3.8,10.06,10.06,0,0,1,1.52-3.22,7.28,7.28,0,0,1,2.59-2.22,8.08,8.08,0,0,1,3.76-.82,7.54,7.54,0,0,1,3.55.76,6.67,6.67,0,0,1,2.36,2,8.29,8.29,0,0,1,1.31,3,15.46,15.46,0,0,1,.39,3.51q0,.59,0,1.33t-.06,1.09Zm5.85-3.43a9.82,9.82,0,0,0-.13-1.65,4,4,0,0,0-.46-1.34,2.41,2.41,0,0,0-.91-.9,2.94,2.94,0,0,0-1.46-.33,2.32,2.32,0,0,0-1.28.35,2.82,2.82,0,0,0-.89.92,4.62,4.62,0,0,0-.54,1.34,8.34,8.34,0,0,0-.22,1.61Z" transform="translate(-191.37 -281.09)"/><path class="cls-1" d="M740.28,295.62a1.45,1.45,0,0,0,.59,1.2,7.36,7.36,0,0,0,1.46.87l1.88.85a9,9,0,0,1,1.88,1.13,5.78,5.78,0,0,1,1.47,1.72,5.09,5.09,0,0,1,.59,2.55,5.69,5.69,0,0,1-1.93,4.52,7.73,7.73,0,0,1-5.25,1.68,18.12,18.12,0,0,1-2.73-.21,12.19,12.19,0,0,1-2.89-.84v-4.37a12.6,12.6,0,0,0,5.31,1.37,3.74,3.74,0,0,0,1.75-.37,1.41,1.41,0,0,0,.7-1.37,1.7,1.7,0,0,0-.58-1.35,6.36,6.36,0,0,0-1.45-.91q-.87-.41-1.9-.83a8.88,8.88,0,0,1-1.9-1.07,5.37,5.37,0,0,1-1.45-1.66,5.19,5.19,0,0,1-.58-2.61,5.45,5.45,0,0,1,2-4.33,6.55,6.55,0,0,1,2.2-1.19,8.89,8.89,0,0,1,2.75-.41,18.12,18.12,0,0,1,2.48.18,11.17,11.17,0,0,1,2.55.68v4.29a20.27,20.27,0,0,0-2.43-.82,8.24,8.24,0,0,0-2-.27,3.76,3.76,0,0,0-1.78.37A1.27,1.27,0,0,0,740.28,295.62Z" transform="translate(-191.37 -281.09)"/><path class="cls-1" d="M758.61,281.28a17.18,17.18,0,0,1,1.93.12,14.16,14.16,0,0,1,1.81.31v4.09q-.74-.19-1.5-.33a8.72,8.72,0,0,0-1.54-.14,2.14,2.14,0,0,0-2.46,2.38v2.73h5.07v4h-5.07v15.29h-4.91V294.42h-3.2v-4h3.2v-2.61a6.52,6.52,0,0,1,1.72-4.86A6.75,6.75,0,0,1,758.61,281.28Z" transform="translate(-191.37 -281.09)"/><path class="cls-1" d="M778.89,300.08a15.11,15.11,0,0,1-.49,3.9,8.94,8.94,0,0,1-1.54,3.2,7.48,7.48,0,0,1-2.69,2.16,8.91,8.91,0,0,1-3.94.8,8.81,8.81,0,0,1-3.9-.8,7.48,7.48,0,0,1-2.69-2.16,8.9,8.9,0,0,1-1.54-3.2,15.11,15.11,0,0,1-.49-3.9,15.54,15.54,0,0,1,.47-3.86,9.06,9.06,0,0,1,1.5-3.22,7.4,7.4,0,0,1,2.67-2.2,10.07,10.07,0,0,1,8,0,7.58,7.58,0,0,1,2.69,2.2,8.87,8.87,0,0,1,1.52,3.22A15.58,15.58,0,0,1,778.89,300.08Zm-5-.08a20.66,20.66,0,0,0-.12-2.24,5.89,5.89,0,0,0-.51-1.89,3.41,3.41,0,0,0-1.09-1.33,3.21,3.21,0,0,0-1.91-.51,3.13,3.13,0,0,0-1.87.51,3.26,3.26,0,0,0-1.07,1.33,6.59,6.59,0,0,0-.51,1.89,17.62,17.62,0,0,0-.14,2.24,18.07,18.07,0,0,0,.14,2.26,7.12,7.12,0,0,0,.51,2,3.21,3.21,0,0,0,1.07,1.37,3.13,3.13,0,0,0,1.87.51,3.22,3.22,0,0,0,1.89-.51,3.16,3.16,0,0,0,1.09-1.37,7.19,7.19,0,0,0,.51-2A18.26,18.26,0,0,0,773.86,300Z" transform="translate(-191.37 -281.09)"/><path class="cls-1" d="M786.34,293.57a7.13,7.13,0,0,1,2.11-2.71A4.25,4.25,0,0,1,791,290,9.19,9.19,0,0,1,792,290a3.58,3.58,0,0,1,1,.25v3.9a9,9,0,0,0-1.09-.14l-.82,0a6.38,6.38,0,0,0-2.44.49,8,8,0,0,0-2.09,1.23v14h-4.91V290.45h4.13Z" transform="translate(-191.37 -281.09)"/><path class="cls-1" d="M802.92,306.09a10.48,10.48,0,0,0,2.3-.21,21.86,21.86,0,0,0,2.18-.64v4.09a11.69,11.69,0,0,1-2.52.62,19.73,19.73,0,0,1-2.75.2,10.27,10.27,0,0,1-4-.72,7.52,7.52,0,0,1-2.83-2,8.53,8.53,0,0,1-1.68-3.22A15.08,15.08,0,0,1,793,300a12.9,12.9,0,0,1,.58-3.94,8.91,8.91,0,0,1,1.75-3.18,8.1,8.1,0,0,1,2.91-2.11,10,10,0,0,1,4-.76,17.48,17.48,0,0,1,2.48.16,18.44,18.44,0,0,1,2.32.51v4.21a21.26,21.26,0,0,0-2-.6,8.47,8.47,0,0,0-1.93-.21,4.65,4.65,0,0,0-3.78,1.54,6.26,6.26,0,0,0-1.29,4.15,12,12,0,0,0,.25,2.55,5.83,5.83,0,0,0,.82,2,3.9,3.9,0,0,0,1.48,1.32A4.92,4.92,0,0,0,802.92,306.09Z" transform="translate(-191.37 -281.09)"/><path class="cls-1" d="M813.37,301.68a5.11,5.11,0,0,0,1.41,3.17,4.77,4.77,0,0,0,3.56,1.24,10.46,10.46,0,0,0,2.72-.33,23.57,23.57,0,0,0,2.6-.88V309a11.45,11.45,0,0,1-2.69.84,16.71,16.71,0,0,1-3.16.29,11.76,11.76,0,0,1-4.35-.72,7.36,7.36,0,0,1-2.94-2,8.31,8.31,0,0,1-1.66-3.18,15.16,15.16,0,0,1-.53-4.15,14,14,0,0,1,.51-3.8,10.05,10.05,0,0,1,1.52-3.22A7.28,7.28,0,0,1,813,290.8a8.08,8.08,0,0,1,3.76-.82,7.54,7.54,0,0,1,3.55.76,6.67,6.67,0,0,1,2.36,2,8.29,8.29,0,0,1,1.31,3,15.46,15.46,0,0,1,.39,3.51q0,.59,0,1.33t-.06,1.09Zm5.85-3.43a9.92,9.92,0,0,0-.13-1.65,4,4,0,0,0-.46-1.34,2.41,2.41,0,0,0-.91-.9,2.94,2.94,0,0,0-1.46-.33,2.32,2.32,0,0,0-1.28.35,2.82,2.82,0,0,0-.89.92,4.62,4.62,0,0,0-.54,1.34,8.34,8.34,0,0,0-.22,1.61Z" transform="translate(-191.37 -281.09)"/><path class="cls-1" d="M833.76,306.9a3.13,3.13,0,0,1-.94,2.3,3.48,3.48,0,0,1-2.57.94,3.52,3.52,0,0,1-2.48-.88,3.37,3.37,0,0,1,0-4.7,3.47,3.47,0,0,1,2.48-.9,3.68,3.68,0,0,1,2.5.88A3,3,0,0,1,833.76,306.9Z" transform="translate(-191.37 -281.09)"/></svg>