<svg id="text" xmlns="http://www.w3.org/2000/svg" viewBox="0 0 210.51 59.6"><defs><style>.cls-1{fill:#3c3c3c;}.cls-2{fill:#004796;}</style></defs><path class="cls-1" d="M447.85,693.57l4.37,13h-1.62l-1.21-3.65H445l-1.19,3.65h-1.62l4.41-13Zm-.65,2.61-1.76,5.33H449Z" transform="translate(-442.22 -693.33)"/><path class="cls-2" d="M458.83,700a.67.67,0,0,0,.27.55,3.43,3.43,0,0,0,.68.4l.87.39a4.18,4.18,0,0,1,.87.52,2.66,2.66,0,0,1,.68.79,2.35,2.35,0,0,1,.27,1.18,2.62,2.62,0,0,1-.89,2.09,3.56,3.56,0,0,1-2.42.77,8.28,8.28,0,0,1-1.26-.1,5.57,5.57,0,0,1-1.33-.39v-2a5.82,5.82,0,0,0,2.45.63,1.72,1.72,0,0,0,.81-.17.65.65,0,0,0,.32-.63.78.78,0,0,0-.27-.62,2.94,2.94,0,0,0-.67-.42l-.88-.39a4.07,4.07,0,0,1-.88-.5,2.46,2.46,0,0,1-.67-.76,2.39,2.39,0,0,1-.27-1.21,2.52,2.52,0,0,1,.92-2,3,3,0,0,1,1-.55,4.11,4.11,0,0,1,1.27-.19,8.38,8.38,0,0,1,1.14.08,5.16,5.16,0,0,1,1.18.32v2a9.32,9.32,0,0,0-1.12-.38,3.84,3.84,0,0,0-.95-.13,1.73,1.73,0,0,0-.82.17A.59.59,0,0,0,458.83,700Z" transform="translate(-442.22 -693.33)"/><path class="cls-2" d="M463.86,694.63a1.21,1.21,0,0,1,.4-.94,1.64,1.64,0,0,1,2.05,0,1.21,1.21,0,0,1,.4.94,1.18,1.18,0,0,1-.4.93,1.67,1.67,0,0,1-2.05,0A1.18,1.18,0,0,1,463.86,694.63Zm2.56,11.92h-2.27v-8.89h2.27Z" transform="translate(-442.22 -693.33)"/><path class="cls-2" d="M470.86,698.59a4,4,0,0,1,1-.81,2.65,2.65,0,0,1,1.35-.34,2.35,2.35,0,0,1,1.92.79,3,3,0,0,1,.66,2v6.32h-2.27v-5.9a2,2,0,0,0-.21-1,.88.88,0,0,0-.84-.36,1.94,1.94,0,0,0-.81.18,3.27,3.27,0,0,0-.76.49v6.57h-2.27v-8.89h2Z" transform="translate(-442.22 -693.33)"/><path class="cls-2" d="M482.94,705.27a3.24,3.24,0,0,1-1,.66,3,3,0,0,1-1.24.26,2.81,2.81,0,0,1-1.48-.37,3.15,3.15,0,0,1-1-1,4.28,4.28,0,0,1-.59-1.35,6.28,6.28,0,0,1-.19-1.53,7.74,7.74,0,0,1,.18-1.67,4.38,4.38,0,0,1,.59-1.46,3.16,3.16,0,0,1,1.08-1,3.22,3.22,0,0,1,1.64-.39,2.74,2.74,0,0,1,1.22.23,2.81,2.81,0,0,1,.83.63l.18-.65h2v8.55a3.31,3.31,0,0,1-1,2.69,4.46,4.46,0,0,1-2.92.84,15,15,0,0,1-1.54-.08,8.3,8.3,0,0,1-1.41-.26v-1.91a10.66,10.66,0,0,0,1.29.27,9.13,9.13,0,0,0,1.38.11,2.93,2.93,0,0,0,1.42-.29,1.15,1.15,0,0,0,.52-1.1Zm0-5.53a2,2,0,0,0-.61-.32,2.61,2.61,0,0,0-.81-.12,1.48,1.48,0,0,0-.87.24,1.72,1.72,0,0,0-.53.61,2.61,2.61,0,0,0-.27.84,6.15,6.15,0,0,0-.07.92,4.92,4.92,0,0,0,.08.91,2.37,2.37,0,0,0,.27.76,1.42,1.42,0,0,0,1.3.72,2.39,2.39,0,0,0,.81-.13,3.21,3.21,0,0,0,.7-.35Z" transform="translate(-442.22 -693.33)"/><path class="cls-2" d="M489.72,706.55h-2.27v-13h2.27Z" transform="translate(-442.22 -693.33)"/><path class="cls-2" d="M493.79,702.84a2.36,2.36,0,0,0,.65,1.46,2.2,2.2,0,0,0,1.64.57,4.81,4.81,0,0,0,1.26-.15,10.66,10.66,0,0,0,1.2-.41v1.91a5.34,5.34,0,0,1-1.24.39,7.71,7.71,0,0,1-1.46.13,5.43,5.43,0,0,1-2-.33,3.39,3.39,0,0,1-1.36-.95,3.85,3.85,0,0,1-.77-1.47,7,7,0,0,1-.24-1.92,6.47,6.47,0,0,1,.23-1.75,4.64,4.64,0,0,1,.7-1.49,3.37,3.37,0,0,1,1.2-1,3.73,3.73,0,0,1,1.74-.38,3.48,3.48,0,0,1,1.64.35,3.07,3.07,0,0,1,1.09.95,3.83,3.83,0,0,1,.6,1.37,7.16,7.16,0,0,1,.18,1.62q0,.27,0,.61c0,.23,0,.4,0,.5Zm2.7-1.58a4.54,4.54,0,0,0-.06-.76,1.83,1.83,0,0,0-.21-.62,1.12,1.12,0,0,0-.42-.42,1.36,1.36,0,0,0-.67-.15,1.08,1.08,0,0,0-.59.16,1.31,1.31,0,0,0-.41.42,2.14,2.14,0,0,0-.25.62,3.85,3.85,0,0,0-.1.74Z" transform="translate(-442.22 -693.33)"/><path class="cls-2" d="M500,709a11.2,11.2,0,0,0,.92-1.16,7.17,7.17,0,0,0,.68-1.23,1.45,1.45,0,0,1-.81-.43,1.28,1.28,0,0,1-.32-.92,1.44,1.44,0,0,1,.43-1.07,1.58,1.58,0,0,1,1.15-.42,1.56,1.56,0,0,1,1.21.45,1.54,1.54,0,0,1,.41,1.08,3.55,3.55,0,0,1-.14,1,6.85,6.85,0,0,1-.37,1,7.89,7.89,0,0,1-.51.94,9.54,9.54,0,0,1-.58.81Z" transform="translate(-442.22 -693.33)"/><path class="cls-2" d="M508.68,694.63a1.21,1.21,0,0,1,.4-.94,1.64,1.64,0,0,1,2.05,0,1.21,1.21,0,0,1,.4.94,1.18,1.18,0,0,1-.4.93,1.67,1.67,0,0,1-2.05,0A1.18,1.18,0,0,1,508.68,694.63Zm2.56,11.92H509v-8.89h2.27Z" transform="translate(-442.22 -693.33)"/><path class="cls-2" d="M515.68,698.59a4,4,0,0,1,1-.81,2.65,2.65,0,0,1,1.35-.34,2.35,2.35,0,0,1,1.92.79,3,3,0,0,1,.66,2v6.32h-2.27v-5.9a2,2,0,0,0-.21-1,.88.88,0,0,0-.84-.36,1.94,1.94,0,0,0-.81.18,3.27,3.27,0,0,0-.76.49v6.57h-2.27v-8.89h2Z" transform="translate(-442.22 -693.33)"/><path class="cls-2" d="M525.72,697.65H528v1.84h-2.29v4.15a1.34,1.34,0,0,0,.27,1,1.18,1.18,0,0,0,.85.26,4.2,4.2,0,0,0,1.4-.23v1.84a7.79,7.79,0,0,1-.92.2,7.33,7.33,0,0,1-1.1.07,2.77,2.77,0,0,1-2.06-.72,2.82,2.82,0,0,1-.71-2.07v-4.46h-1.71v-1.84h1.71v-2.39h2.27Z" transform="translate(-442.22 -693.33)"/><path class="cls-2" d="M531.19,702.84a2.35,2.35,0,0,0,.65,1.46,2.2,2.2,0,0,0,1.64.57,4.8,4.8,0,0,0,1.26-.15,10.63,10.63,0,0,0,1.2-.41v1.91a5.35,5.35,0,0,1-1.24.39,7.72,7.72,0,0,1-1.46.13,5.43,5.43,0,0,1-2-.33,3.39,3.39,0,0,1-1.36-.95,3.85,3.85,0,0,1-.76-1.47,7,7,0,0,1-.24-1.92,6.47,6.47,0,0,1,.23-1.75,4.63,4.63,0,0,1,.7-1.49,3.38,3.38,0,0,1,1.2-1,3.73,3.73,0,0,1,1.74-.38,3.48,3.48,0,0,1,1.64.35,3.06,3.06,0,0,1,1.09.95,3.82,3.82,0,0,1,.6,1.37,7.19,7.19,0,0,1,.18,1.62q0,.27,0,.61c0,.23,0,.4,0,.5Zm2.7-1.58a4.54,4.54,0,0,0-.06-.76,1.84,1.84,0,0,0-.21-.62,1.12,1.12,0,0,0-.42-.42,1.36,1.36,0,0,0-.67-.15,1.07,1.07,0,0,0-.59.16,1.31,1.31,0,0,0-.41.42,2.15,2.15,0,0,0-.25.62,3.93,3.93,0,0,0-.1.74Z" transform="translate(-442.22 -693.33)"/><path class="cls-2" d="M543,705.27a3.25,3.25,0,0,1-1,.66,3,3,0,0,1-1.24.26,2.81,2.81,0,0,1-1.48-.37,3.15,3.15,0,0,1-1-1,4.29,4.29,0,0,1-.58-1.35,6.28,6.28,0,0,1-.19-1.53,7.74,7.74,0,0,1,.18-1.67,4.37,4.37,0,0,1,.59-1.46,3.16,3.16,0,0,1,1.08-1,3.21,3.21,0,0,1,1.64-.39,2.75,2.75,0,0,1,1.22.23,2.81,2.81,0,0,1,.83.63l.18-.65h2v8.55a3.31,3.31,0,0,1-1,2.69,4.46,4.46,0,0,1-2.92.84,15,15,0,0,1-1.54-.08,8.31,8.31,0,0,1-1.41-.26v-1.91a10.66,10.66,0,0,0,1.29.27,9.13,9.13,0,0,0,1.38.11,2.93,2.93,0,0,0,1.42-.29,1.15,1.15,0,0,0,.52-1.1Zm0-5.53a2,2,0,0,0-.61-.32,2.62,2.62,0,0,0-.81-.12,1.48,1.48,0,0,0-.87.24,1.73,1.73,0,0,0-.53.61,2.61,2.61,0,0,0-.27.84,6.15,6.15,0,0,0-.07.92,5,5,0,0,0,.08.91,2.37,2.37,0,0,0,.27.76,1.42,1.42,0,0,0,1.3.72,2.39,2.39,0,0,0,.81-.13,3.21,3.21,0,0,0,.7-.35Z" transform="translate(-442.22 -693.33)"/><path class="cls-2" d="M549.64,699.09a3.3,3.3,0,0,1,1-1.25,2,2,0,0,1,1.17-.41l.49,0a1.65,1.65,0,0,1,.45.12v1.8a4,4,0,0,0-.5-.06h-.38a2.94,2.94,0,0,0-1.12.23,3.71,3.71,0,0,0-1,.57v6.44h-2.27v-8.89h1.91Z" transform="translate(-442.22 -693.33)"/><path class="cls-2" d="M558,706.55l-.18-.77a4.65,4.65,0,0,1-.85.67,2.36,2.36,0,0,1-1.26.31,2.52,2.52,0,0,1-1.95-.77,3,3,0,0,1-.71-2.1,3,3,0,0,1,.29-1.38,2.39,2.39,0,0,1,.79-.91,3.43,3.43,0,0,1,1.17-.5,6.23,6.23,0,0,1,1.4-.15h1v-.5a1,1,0,0,0-.37-.86,1.61,1.61,0,0,0-1-.28,6.68,6.68,0,0,0-1.25.13,9,9,0,0,0-1.23.32v-1.91l.63-.15q.36-.08.75-.14l.78-.09c.26,0,.5,0,.72,0a2.83,2.83,0,0,1,3.24,3.2v5.9Zm-.31-4h-.82a1.84,1.84,0,0,0-1.1.29,1,1,0,0,0-.41.9,1.29,1.29,0,0,0,.26.81,1,1,0,0,0,.82.33,1.67,1.67,0,0,0,.69-.13,4,4,0,0,0,.55-.3Z" transform="translate(-442.22 -693.33)"/><path class="cls-2" d="M564.94,697.65h2.29v1.84h-2.29v4.15a1.34,1.34,0,0,0,.27,1,1.17,1.17,0,0,0,.85.26,4.2,4.2,0,0,0,1.4-.23v1.84a7.83,7.83,0,0,1-.92.2,7.35,7.35,0,0,1-1.1.07,2.77,2.77,0,0,1-2.06-.72,2.82,2.82,0,0,1-.71-2.07v-4.46H561v-1.84h1.71v-2.39h2.27Z" transform="translate(-442.22 -693.33)"/><path class="cls-2" d="M570.42,702.84a2.36,2.36,0,0,0,.65,1.46,2.2,2.2,0,0,0,1.64.57,4.81,4.81,0,0,0,1.26-.15,10.69,10.69,0,0,0,1.2-.41v1.91a5.32,5.32,0,0,1-1.24.39,7.71,7.71,0,0,1-1.46.13,5.44,5.44,0,0,1-2-.33,3.39,3.39,0,0,1-1.36-.95,3.84,3.84,0,0,1-.77-1.47,7,7,0,0,1-.24-1.92,6.47,6.47,0,0,1,.23-1.75,4.64,4.64,0,0,1,.7-1.49,3.37,3.37,0,0,1,1.2-1,3.73,3.73,0,0,1,1.74-.38,3.48,3.48,0,0,1,1.64.35,3.07,3.07,0,0,1,1.09.95,3.83,3.83,0,0,1,.6,1.37,7.13,7.13,0,0,1,.18,1.62c0,.18,0,.38,0,.61s0,.4,0,.5Zm2.7-1.58a4.54,4.54,0,0,0-.06-.76,1.82,1.82,0,0,0-.21-.62,1.11,1.11,0,0,0-.42-.42,1.36,1.36,0,0,0-.67-.15,1.08,1.08,0,0,0-.59.16,1.3,1.3,0,0,0-.41.42,2.13,2.13,0,0,0-.25.62,3.78,3.78,0,0,0-.1.74Z" transform="translate(-442.22 -693.33)"/><path class="cls-2" d="M584.47,706.55h-2l-.18-.76a3.19,3.19,0,0,1-.89.67,2.77,2.77,0,0,1-1.3.28,3.11,3.11,0,0,1-1.6-.38,3,3,0,0,1-1-1,4.48,4.48,0,0,1-.58-1.48,8.54,8.54,0,0,1-.18-1.78,7.07,7.07,0,0,1,.21-1.7,4.67,4.67,0,0,1,.65-1.49,3.36,3.36,0,0,1,1.12-1.05,3.2,3.2,0,0,1,1.63-.4,2.32,2.32,0,0,1,1.1.23,3.08,3.08,0,0,1,.75.54v-4.64h2.29Zm-2.27-6.8a2.59,2.59,0,0,0-.57-.31,2.19,2.19,0,0,0-.79-.13,1.62,1.62,0,0,0-.87.22,1.6,1.6,0,0,0-.55.59,2.66,2.66,0,0,0-.29.87,7,7,0,0,0,0,2.11,3.16,3.16,0,0,0,.28.91,1.64,1.64,0,0,0,.54.63,1.51,1.51,0,0,0,.88.24,2.15,2.15,0,0,0,.75-.13,2.81,2.81,0,0,0,.63-.32Z" transform="translate(-442.22 -693.33)"/><path class="cls-2" d="M597.7,701.92a8.92,8.92,0,0,1-.17,1.73,5,5,0,0,1-.58,1.56,3.21,3.21,0,0,1-1.08,1.12,3.08,3.08,0,0,1-1.67.42,3,3,0,0,1-1.15-.2,2.46,2.46,0,0,1-.83-.58v3.64H590v-12h2l.18.83a3.2,3.2,0,0,1,1-.74,2.9,2.9,0,0,1,1.31-.31,3,3,0,0,1,1.56.37,2.89,2.89,0,0,1,1,1,4.29,4.29,0,0,1,.54,1.43A8.79,8.79,0,0,1,597.7,701.92Zm-2.32.05a7.14,7.14,0,0,0-.06-.92,2.84,2.84,0,0,0-.25-.86,1.73,1.73,0,0,0-.51-.63,1.34,1.34,0,0,0-.83-.25,2.26,2.26,0,0,0-.81.14,2.7,2.7,0,0,0-.7.4v4.43a3,3,0,0,0,.63.42,1.74,1.74,0,0,0,.79.17,1.37,1.37,0,0,0,.87-.26,1.88,1.88,0,0,0,.53-.68,3.18,3.18,0,0,0,.27-.93A7.44,7.44,0,0,0,595.38,702Z" transform="translate(-442.22 -693.33)"/><path class="cls-2" d="M601.72,706.55h-2.27v-13h2.27Z" transform="translate(-442.22 -693.33)"/><path class="cls-2" d="M608.36,706.55l-.18-.77a4.65,4.65,0,0,1-.85.67,2.36,2.36,0,0,1-1.26.31,2.52,2.52,0,0,1-1.95-.77,3,3,0,0,1-.71-2.1,3,3,0,0,1,.29-1.38,2.39,2.39,0,0,1,.79-.91,3.43,3.43,0,0,1,1.17-.5,6.23,6.23,0,0,1,1.4-.15h1v-.5a1,1,0,0,0-.37-.86,1.61,1.61,0,0,0-1-.28,6.68,6.68,0,0,0-1.25.13,9,9,0,0,0-1.23.32v-1.91l.63-.15q.36-.08.75-.14l.78-.09c.26,0,.5,0,.72,0a2.83,2.83,0,0,1,3.24,3.2v5.9Zm-.31-4h-.82a1.84,1.84,0,0,0-1.1.29,1,1,0,0,0-.41.9,1.29,1.29,0,0,0,.26.81,1,1,0,0,0,.82.33,1.67,1.67,0,0,0,.69-.13,4,4,0,0,0,.55-.3Z" transform="translate(-442.22 -693.33)"/><path class="cls-2" d="M615.31,697.65h2.29v1.84h-2.29v4.15a1.34,1.34,0,0,0,.27,1,1.17,1.17,0,0,0,.85.26,4.2,4.2,0,0,0,1.4-.23v1.84a7.83,7.83,0,0,1-.92.2,7.35,7.35,0,0,1-1.1.07,2.77,2.77,0,0,1-2.06-.72A2.82,2.82,0,0,1,613,704v-4.46h-1.71v-1.84H613v-2.39h2.27Z" transform="translate(-442.22 -693.33)"/><path class="cls-2" d="M622.83,693.42a8.16,8.16,0,0,1,.89.05,6.45,6.45,0,0,1,.84.14v1.89l-.69-.15a4,4,0,0,0-.71-.06,1,1,0,0,0-1.13,1.1v1.26h2.34v1.84H622v7.06h-2.27v-7.06h-1.48v-1.84h1.48v-1.21a3,3,0,0,1,.79-2.24A3.11,3.11,0,0,1,622.83,693.42Z" transform="translate(-442.22 -693.33)"/><path class="cls-2" d="M632.64,702.1a7,7,0,0,1-.23,1.8,4.1,4.1,0,0,1-.71,1.48,3.45,3.45,0,0,1-1.24,1,4.11,4.11,0,0,1-1.82.37,4.06,4.06,0,0,1-1.8-.37,3.46,3.46,0,0,1-1.24-1,4.1,4.1,0,0,1-.71-1.48,7,7,0,0,1-.23-1.8,7.15,7.15,0,0,1,.22-1.78,4.18,4.18,0,0,1,.69-1.49,3.44,3.44,0,0,1,1.23-1,4.65,4.65,0,0,1,3.67,0,3.52,3.52,0,0,1,1.24,1,4.1,4.1,0,0,1,.7,1.49A7.2,7.2,0,0,1,632.64,702.1Zm-2.32,0a9.51,9.51,0,0,0-.05-1,2.7,2.7,0,0,0-.23-.87,1.58,1.58,0,0,0-.5-.61,1.48,1.48,0,0,0-.88-.23,1.44,1.44,0,0,0-.86.23,1.51,1.51,0,0,0-.5.61,3,3,0,0,0-.23.87,8,8,0,0,0-.06,1,8.21,8.21,0,0,0,.06,1,3.28,3.28,0,0,0,.23.9,1.48,1.48,0,0,0,.5.63,1.44,1.44,0,0,0,.86.23,1.49,1.49,0,0,0,.87-.23,1.45,1.45,0,0,0,.5-.63,3.31,3.31,0,0,0,.23-.9A8.59,8.59,0,0,0,630.32,702.06Z" transform="translate(-442.22 -693.33)"/><path class="cls-2" d="M636.53,699.09a3.29,3.29,0,0,1,1-1.25,2,2,0,0,1,1.17-.41l.49,0a1.67,1.67,0,0,1,.45.12v1.8a4,4,0,0,0-.5-.06h-.38a2.93,2.93,0,0,0-1.12.23,3.74,3.74,0,0,0-1,.57v6.44h-2.27v-8.89h1.91Z" transform="translate(-442.22 -693.33)"/><path class="cls-2" d="M647.94,706.55h-2.27v-5.9a2,2,0,0,0-.21-1q-.21-.35-.89-.35a1.53,1.53,0,0,0-.73.2,4.13,4.13,0,0,0-.69.47v6.57h-2.27v-8.89h2l.18,1a4.23,4.23,0,0,1,1-.82,2.55,2.55,0,0,1,1.34-.35,2.35,2.35,0,0,1,1.25.32,2.56,2.56,0,0,1,.86.85,5.07,5.07,0,0,1,1.09-.83,2.81,2.81,0,0,1,1.41-.34,2.57,2.57,0,0,1,2,.76,2.94,2.94,0,0,1,.67,2v6.32h-2.27v-5.9a1.89,1.89,0,0,0-.22-1,.91.91,0,0,0-.85-.35,1.92,1.92,0,0,0-.76.17,3.32,3.32,0,0,0-.72.42,1.25,1.25,0,0,1,0,.22v6.42Z" transform="translate(-442.22 -693.33)"/><path class="cls-1" d="M450.5,719.25h2.32v1.26H450.5v5.25a1.5,1.5,0,0,0,.28,1,1.26,1.26,0,0,0,1,.32,3.43,3.43,0,0,0,.74-.07,3.83,3.83,0,0,0,.63-.2v1.26a3.83,3.83,0,0,1-.82.21,6.06,6.06,0,0,1-.86.06,2.67,2.67,0,0,1-1.85-.55A2.34,2.34,0,0,1,449,726v-5.49h-1.67v-1.26H449v-2.39h1.49Z" transform="translate(-442.22 -693.33)"/><path class="cls-1" d="M461.53,723.7a7.16,7.16,0,0,1-.22,1.79,4.28,4.28,0,0,1-.68,1.48,3.35,3.35,0,0,1-1.19,1,4.29,4.29,0,0,1-3.48,0,3.32,3.32,0,0,1-1.2-1,4.28,4.28,0,0,1-.68-1.48,7.43,7.43,0,0,1,0-3.55,4.47,4.47,0,0,1,.68-1.49,3.29,3.29,0,0,1,1.19-1,4.26,4.26,0,0,1,3.51,0,3.3,3.3,0,0,1,1.19,1,4.47,4.47,0,0,1,.68,1.49A7.13,7.13,0,0,1,461.53,723.7Zm-1.55,0a9.25,9.25,0,0,0-.08-1.22,3.15,3.15,0,0,0-.33-1.08,2.1,2.1,0,0,0-.7-.77,2.46,2.46,0,0,0-2.35,0,2.12,2.12,0,0,0-.69.77,3.15,3.15,0,0,0-.33,1.08,9.17,9.17,0,0,0-.08,1.22,8.74,8.74,0,0,0,.09,1.27,3.38,3.38,0,0,0,.34,1.09,2,2,0,0,0,.69.77,2.08,2.08,0,0,0,1.16.29,2.13,2.13,0,0,0,1.17-.29,1.93,1.93,0,0,0,.69-.77,3.54,3.54,0,0,0,.33-1.09A8.74,8.74,0,0,0,460,723.66Z" transform="translate(-442.22 -693.33)"/><path class="cls-1" d="M469.9,726.4l2.29-7.15h1.58l-3.17,8.89h-1.49L466,719.25h1.66Z" transform="translate(-442.22 -693.33)"/><path class="cls-1" d="M474.89,716a1,1,0,0,1,.29-.72,1,1,0,0,1,.72-.31,1,1,0,1,1,0,2.05,1,1,0,0,1-.72-.31A1,1,0,0,1,474.89,716Zm1.78,12.19h-1.49v-8.89h1.49Z" transform="translate(-442.22 -693.33)"/><path class="cls-1" d="M480.16,724.13a4.27,4.27,0,0,0,.14,1.12,2.71,2.71,0,0,0,.46.94,2.17,2.17,0,0,0,.83.65,3,3,0,0,0,1.25.24,5.81,5.81,0,0,0,2.49-.61v1.3a5.09,5.09,0,0,1-1.32.43,7.6,7.6,0,0,1-1.45.14,4.23,4.23,0,0,1-1.77-.34,3.3,3.3,0,0,1-1.23-1,3.94,3.94,0,0,1-.71-1.47,7.43,7.43,0,0,1-.23-1.9,6.89,6.89,0,0,1,.23-1.78,4.41,4.41,0,0,1,.68-1.48,3.46,3.46,0,0,1,1.15-1,3.35,3.35,0,0,1,1.63-.38,3.14,3.14,0,0,1,1.55.35,3,3,0,0,1,1,.94,3.92,3.92,0,0,1,.57,1.36,7.41,7.41,0,0,1,.17,1.6v.49c0,.12,0,.24,0,.36Zm3.89-1.26a6.45,6.45,0,0,0-.07-1,2.26,2.26,0,0,0-.28-.83,1.6,1.6,0,0,0-.59-.57,1.93,1.93,0,0,0-1-.22,1.65,1.65,0,0,0-.81.2,1.94,1.94,0,0,0-.61.54,2.66,2.66,0,0,0-.4.82,3.8,3.8,0,0,0-.17,1Z" transform="translate(-442.22 -693.33)"/><path class="cls-1" d="M495.22,726.17l1.86-6.91h1.42l-2.57,8.89h-1.49l-1.84-7-1.85,7h-1.49l-2.7-8.89h1.53l2,6.88,1.85-6.88h1.51Z" transform="translate(-442.22 -693.33)"/><path class="cls-1" d="M505.09,728.15H503.6v-13h1.49Z" transform="translate(-442.22 -693.33)"/><path class="cls-1" d="M508.6,724.13a4.27,4.27,0,0,0,.14,1.12,2.71,2.71,0,0,0,.46.94,2.17,2.17,0,0,0,.83.65,3,3,0,0,0,1.25.24,5.82,5.82,0,0,0,2.49-.61v1.3a5.1,5.1,0,0,1-1.32.43,7.6,7.6,0,0,1-1.45.14,4.23,4.23,0,0,1-1.77-.34,3.3,3.3,0,0,1-1.23-1,3.94,3.94,0,0,1-.71-1.47,7.43,7.43,0,0,1-.23-1.9,6.89,6.89,0,0,1,.23-1.78,4.41,4.41,0,0,1,.68-1.48,3.46,3.46,0,0,1,1.15-1,3.35,3.35,0,0,1,1.63-.38,3.14,3.14,0,0,1,1.55.35,3,3,0,0,1,1,.94,3.92,3.92,0,0,1,.57,1.36,7.45,7.45,0,0,1,.17,1.6v.49c0,.12,0,.24,0,.36Zm3.89-1.26a6.45,6.45,0,0,0-.07-1,2.26,2.26,0,0,0-.28-.83,1.6,1.6,0,0,0-.59-.57,1.93,1.93,0,0,0-1-.22,1.65,1.65,0,0,0-.81.2,1.94,1.94,0,0,0-.61.54,2.66,2.66,0,0,0-.4.82,3.8,3.8,0,0,0-.17,1Z" transform="translate(-442.22 -693.33)"/><path class="cls-1" d="M520.65,728.15l-.16-.72a5.24,5.24,0,0,1-1,.63,2.92,2.92,0,0,1-1.33.29,2.75,2.75,0,0,1-2-.73,2.72,2.72,0,0,1-.74-2,3.27,3.27,0,0,1,.26-1.35,2.6,2.6,0,0,1,.72-1,3.06,3.06,0,0,1,1.09-.57,4.87,4.87,0,0,1,1.39-.19h1.54v-.48a1.85,1.85,0,0,0-.4-1.36,1.89,1.89,0,0,0-1.33-.39,5.85,5.85,0,0,0-1.21.14,7.57,7.57,0,0,0-1.17.34v-1.37a8.33,8.33,0,0,1,1.2-.26,9.13,9.13,0,0,1,1.41-.12,3.13,3.13,0,0,1,2.29.73,3.08,3.08,0,0,1,.73,2.26v6.12Zm-.22-4.36H519a2.48,2.48,0,0,0-1.49.39,1.5,1.5,0,0,0-.53,1.3,1.66,1.66,0,0,0,.4,1.2,1.61,1.61,0,0,0,1.2.41,2.38,2.38,0,0,0,1-.23,3.69,3.69,0,0,0,.83-.53Z" transform="translate(-442.22 -693.33)"/><path class="cls-1" d="M531,728.15H529.7l-.18-.79a4.13,4.13,0,0,1-.92.67,2.82,2.82,0,0,1-1.39.32,3.46,3.46,0,0,1-1.6-.34,3,3,0,0,1-1.09-1,4.15,4.15,0,0,1-.63-1.44,7.71,7.71,0,0,1-.2-1.78,7.81,7.81,0,0,1,.21-1.86,4.57,4.57,0,0,1,.66-1.52,3.29,3.29,0,0,1,1.15-1,3.47,3.47,0,0,1,1.67-.38,2.87,2.87,0,0,1,1.21.24,4.32,4.32,0,0,1,.85.5v-4.61H531ZM529.47,721a4.25,4.25,0,0,0-.83-.48,2.49,2.49,0,0,0-1-.19,2.31,2.31,0,0,0-1.18.27,2,2,0,0,0-.74.74,3.26,3.26,0,0,0-.38,1.08,7.8,7.8,0,0,0-.11,1.33,6.78,6.78,0,0,0,.12,1.28,3.27,3.27,0,0,0,.39,1.07,2.13,2.13,0,0,0,.73.74,2.1,2.1,0,0,0,1.11.27,2.88,2.88,0,0,0,1.88-.74Z" transform="translate(-442.22 -693.33)"/><path class="cls-1" d="M538.32,725.68a2.81,2.81,0,0,1-.23,1.19,2.26,2.26,0,0,1-.64.83,2.79,2.79,0,0,1-.94.49,3.92,3.92,0,0,1-1.14.16,6.81,6.81,0,0,1-1.29-.13,5.84,5.84,0,0,1-1.27-.4v-1.37a9.2,9.2,0,0,0,1.15.44,4.24,4.24,0,0,0,1.27.19,2.05,2.05,0,0,0,1.1-.27,1,1,0,0,0,.44-.93,1.19,1.19,0,0,0-.28-.81,3.07,3.07,0,0,0-.69-.57,9.76,9.76,0,0,0-.89-.49,5.15,5.15,0,0,1-.89-.55,2.74,2.74,0,0,1-.69-.78,2.29,2.29,0,0,1-.28-1.19,2.35,2.35,0,0,1,.22-1,2.22,2.22,0,0,1,.59-.77,2.69,2.69,0,0,1,.9-.49,3.61,3.61,0,0,1,1.13-.17,5.82,5.82,0,0,1,2.18.43v1.42a9.39,9.39,0,0,0-1-.41,3.24,3.24,0,0,0-1.1-.18,1.7,1.7,0,0,0-1,.27.92.92,0,0,0-.39.8,1.08,1.08,0,0,0,.27.76,3,3,0,0,0,.69.55q.41.25.9.48a5,5,0,0,1,.9.56,2.76,2.76,0,0,1,.69.79A2.28,2.28,0,0,1,538.32,725.68Z" transform="translate(-442.22 -693.33)"/><path class="cls-1" d="M539.67,730.41a8.07,8.07,0,0,0,.76-1.07,5.14,5.14,0,0,0,.52-1.14,1.29,1.29,0,0,1-.65-.37,1,1,0,0,1-.27-.73,1.27,1.27,0,0,1,.34-.89,1.17,1.17,0,0,1,.9-.37,1.15,1.15,0,0,1,.94.39,1.42,1.42,0,0,1,.32.95,3.62,3.62,0,0,1-.11.85,5.75,5.75,0,0,1-.29.86,7.37,7.37,0,0,1-.41.81c-.15.26-.3.5-.44.71Z" transform="translate(-442.22 -693.33)"/><path class="cls-1" d="M555.57,723.7a7.16,7.16,0,0,1-.22,1.79,4.29,4.29,0,0,1-.68,1.48,3.35,3.35,0,0,1-1.19,1,4.29,4.29,0,0,1-3.48,0,3.32,3.32,0,0,1-1.2-1,4.28,4.28,0,0,1-.68-1.48,7.43,7.43,0,0,1,0-3.55,4.47,4.47,0,0,1,.67-1.49,3.29,3.29,0,0,1,1.19-1,4.26,4.26,0,0,1,3.51,0,3.3,3.3,0,0,1,1.19,1,4.47,4.47,0,0,1,.68,1.49A7.13,7.13,0,0,1,555.57,723.7Zm-1.55,0a9.25,9.25,0,0,0-.08-1.22,3.16,3.16,0,0,0-.33-1.08,2.1,2.1,0,0,0-.7-.77,2.46,2.46,0,0,0-2.35,0,2.12,2.12,0,0,0-.69.77,3.14,3.14,0,0,0-.33,1.08,9.09,9.09,0,0,0-.08,1.22,8.68,8.68,0,0,0,.09,1.27,3.38,3.38,0,0,0,.34,1.09,2,2,0,0,0,.69.77,2.08,2.08,0,0,0,1.16.29,2.13,2.13,0,0,0,1.17-.29,1.93,1.93,0,0,0,.69-.77,3.53,3.53,0,0,0,.33-1.09A8.67,8.67,0,0,0,554,723.66Z" transform="translate(-442.22 -693.33)"/><path class="cls-1" d="M564.78,723.56a8.13,8.13,0,0,1-.21,1.86,4.44,4.44,0,0,1-.66,1.52,3.24,3.24,0,0,1-1.16,1,3.56,3.56,0,0,1-1.7.38,2.76,2.76,0,0,1-2-.77v3.64h-1.51v-12h1.26l.22.94a5,5,0,0,1,1.07-.81,2.8,2.8,0,0,1,1.41-.34,3.11,3.11,0,0,1,1.55.36,2.93,2.93,0,0,1,1,1,4.2,4.2,0,0,1,.56,1.43A8.56,8.56,0,0,1,564.78,723.56Zm-1.55.07a7.66,7.66,0,0,0-.1-1.24,3.4,3.4,0,0,0-.35-1.06,2.05,2.05,0,0,0-.67-.75,1.84,1.84,0,0,0-1-.28,2.22,2.22,0,0,0-1.11.31,4.8,4.8,0,0,0-1,.7v5.06a2.81,2.81,0,0,0,.86.52,2.86,2.86,0,0,0,1.06.2,2.07,2.07,0,0,0,1.15-.29,2.1,2.1,0,0,0,.71-.76,3.37,3.37,0,0,0,.36-1.1A8.41,8.41,0,0,0,563.23,723.63Z" transform="translate(-442.22 -693.33)"/><path class="cls-1" d="M574,723.56a8.13,8.13,0,0,1-.21,1.86,4.44,4.44,0,0,1-.66,1.52,3.24,3.24,0,0,1-1.16,1,3.56,3.56,0,0,1-1.7.38,2.76,2.76,0,0,1-2-.77v3.64h-1.51v-12H568l.22.94a5,5,0,0,1,1.07-.81,2.8,2.8,0,0,1,1.41-.34,3.11,3.11,0,0,1,1.55.36,2.93,2.93,0,0,1,1,1,4.2,4.2,0,0,1,.56,1.43A8.56,8.56,0,0,1,574,723.56Zm-1.55.07a7.66,7.66,0,0,0-.1-1.24,3.4,3.4,0,0,0-.35-1.06,2.05,2.05,0,0,0-.67-.75,1.84,1.84,0,0,0-1-.28,2.22,2.22,0,0,0-1.11.31,4.8,4.8,0,0,0-1,.7v5.06a2.81,2.81,0,0,0,.86.52,2.86,2.86,0,0,0,1.06.2,2.07,2.07,0,0,0,1.15-.29A2.1,2.1,0,0,0,572,726a3.37,3.37,0,0,0,.36-1.1A8.41,8.41,0,0,0,572.45,723.63Z" transform="translate(-442.22 -693.33)"/><path class="cls-1" d="M583,723.7a7.16,7.16,0,0,1-.22,1.79,4.29,4.29,0,0,1-.68,1.48,3.35,3.35,0,0,1-1.19,1,4.29,4.29,0,0,1-3.48,0,3.32,3.32,0,0,1-1.2-1,4.28,4.28,0,0,1-.68-1.48,7.43,7.43,0,0,1,0-3.55,4.47,4.47,0,0,1,.67-1.49,3.29,3.29,0,0,1,1.19-1,4.26,4.26,0,0,1,3.51,0,3.3,3.3,0,0,1,1.19,1,4.47,4.47,0,0,1,.68,1.49A7.13,7.13,0,0,1,583,723.7Zm-1.55,0a9.25,9.25,0,0,0-.08-1.22,3.16,3.16,0,0,0-.33-1.08,2.1,2.1,0,0,0-.7-.77,2.46,2.46,0,0,0-2.35,0,2.12,2.12,0,0,0-.69.77,3.14,3.14,0,0,0-.33,1.08,9.09,9.09,0,0,0-.08,1.22,8.68,8.68,0,0,0,.09,1.27,3.38,3.38,0,0,0,.34,1.09,2,2,0,0,0,.69.77,2.08,2.08,0,0,0,1.16.29,2.13,2.13,0,0,0,1.17-.29,1.93,1.93,0,0,0,.69-.77,3.53,3.53,0,0,0,.33-1.09A8.67,8.67,0,0,0,581.49,723.66Z" transform="translate(-442.22 -693.33)"/><path class="cls-1" d="M586.45,720.69a3.6,3.6,0,0,1,1-1.16,2.35,2.35,0,0,1,1.45-.5,4.24,4.24,0,0,1,.56,0v1.22l-.25,0H589a2.9,2.9,0,0,0-1.29.32,4.38,4.38,0,0,0-1.22.9v6.64H585v-8.89h1.3Z" transform="translate(-442.22 -693.33)"/><path class="cls-1" d="M593.37,719.25h2.32v1.26h-2.32v5.25a1.5,1.5,0,0,0,.28,1,1.26,1.26,0,0,0,1,.32,3.44,3.44,0,0,0,.74-.07,3.83,3.83,0,0,0,.63-.2v1.26a3.83,3.83,0,0,1-.82.21,6.05,6.05,0,0,1-.86.06,2.67,2.67,0,0,1-1.85-.55,2.34,2.34,0,0,1-.59-1.79v-5.49H590.2v-1.26h1.67v-2.39h1.49Z" transform="translate(-442.22 -693.33)"/><path class="cls-1" d="M597.34,719.25h1.49v6a2.3,2.3,0,0,0,.34,1.34,1.37,1.37,0,0,0,1.21.49,2.15,2.15,0,0,0,1.22-.39,5.16,5.16,0,0,0,1-.85v-6.59h1.49v8.89h-1.28l-.18-1.1-.5.47a3.19,3.19,0,0,1-.58.41,3.55,3.55,0,0,1-.72.3,3.11,3.11,0,0,1-.88.12,2.38,2.38,0,0,1-2.61-2.63Z" transform="translate(-442.22 -693.33)"/><path class="cls-1" d="M613.36,728.15h-1.49v-6a2.3,2.3,0,0,0-.34-1.35,1.38,1.38,0,0,0-1.21-.48,2.16,2.16,0,0,0-1.22.39,5.1,5.1,0,0,0-1,.85v6.61h-1.49v-8.89h1.28l.18,1.1a5.34,5.34,0,0,1,1.24-1,3,3,0,0,1,1.44-.33,2.57,2.57,0,0,1,1.93.7,2.67,2.67,0,0,1,.68,1.94Z" transform="translate(-442.22 -693.33)"/><path class="cls-1" d="M615.54,716a1,1,0,0,1,.29-.72,1,1,0,0,1,.72-.31,1,1,0,1,1,0,2.05,1,1,0,0,1-.72-.31A1,1,0,0,1,615.54,716Zm1.78,12.19h-1.49v-8.89h1.49Z" transform="translate(-442.22 -693.33)"/><path class="cls-1" d="M621.93,719.25h2.32v1.26h-2.32v5.25a1.49,1.49,0,0,0,.28,1,1.26,1.26,0,0,0,1,.32,3.43,3.43,0,0,0,.74-.07,3.83,3.83,0,0,0,.63-.2v1.26a3.83,3.83,0,0,1-.82.21,6.06,6.06,0,0,1-.86.06,2.67,2.67,0,0,1-1.85-.55,2.34,2.34,0,0,1-.59-1.79v-5.49h-1.67v-1.26h1.67v-2.39h1.49Z" transform="translate(-442.22 -693.33)"/><path class="cls-1" d="M625.85,716a1,1,0,0,1,.29-.72,1,1,0,0,1,.72-.31,1,1,0,1,1,0,2.05,1,1,0,0,1-.72-.31A1,1,0,0,1,625.85,716Zm1.78,12.19h-1.49v-8.89h1.49Z" transform="translate(-442.22 -693.33)"/><path class="cls-1" d="M631.13,724.13a4.27,4.27,0,0,0,.14,1.12,2.71,2.71,0,0,0,.46.94,2.17,2.17,0,0,0,.83.65,3,3,0,0,0,1.25.24,5.81,5.81,0,0,0,2.49-.61v1.3a5.09,5.09,0,0,1-1.32.43,7.6,7.6,0,0,1-1.45.14,4.24,4.24,0,0,1-1.77-.34,3.3,3.3,0,0,1-1.23-1,3.93,3.93,0,0,1-.71-1.47,7.43,7.43,0,0,1-.23-1.9,6.89,6.89,0,0,1,.23-1.78,4.4,4.4,0,0,1,.68-1.48,3.45,3.45,0,0,1,1.15-1,3.35,3.35,0,0,1,1.63-.38,3.14,3.14,0,0,1,1.55.35,3,3,0,0,1,1,.94,3.92,3.92,0,0,1,.57,1.36,7.38,7.38,0,0,1,.17,1.6v.49q0,.18,0,.36Zm3.89-1.26a6.45,6.45,0,0,0-.07-1,2.28,2.28,0,0,0-.28-.83,1.6,1.6,0,0,0-.59-.57,1.93,1.93,0,0,0-1-.22,1.65,1.65,0,0,0-.82.2,1.94,1.94,0,0,0-.61.54,2.66,2.66,0,0,0-.4.82,3.8,3.8,0,0,0-.17,1Z" transform="translate(-442.22 -693.33)"/><path class="cls-1" d="M643.39,725.68a2.79,2.79,0,0,1-.23,1.19,2.27,2.27,0,0,1-.64.83,2.79,2.79,0,0,1-.94.49,3.91,3.91,0,0,1-1.14.16,6.82,6.82,0,0,1-1.29-.13,5.81,5.81,0,0,1-1.27-.4v-1.37a9.14,9.14,0,0,0,1.15.44,4.23,4.23,0,0,0,1.27.19,2.06,2.06,0,0,0,1.1-.27,1,1,0,0,0,.44-.93,1.19,1.19,0,0,0-.28-.81,3,3,0,0,0-.69-.57A9.74,9.74,0,0,0,640,724a5.2,5.2,0,0,1-.89-.55,2.75,2.75,0,0,1-.69-.78,2.29,2.29,0,0,1-.28-1.19,2.36,2.36,0,0,1,.22-1,2.23,2.23,0,0,1,.59-.77,2.69,2.69,0,0,1,.9-.49A3.62,3.62,0,0,1,641,719a5.83,5.83,0,0,1,2.18.43v1.42a9.4,9.4,0,0,0-1-.41,3.24,3.24,0,0,0-1.1-.18,1.71,1.71,0,0,0-1,.27.92.92,0,0,0-.39.8,1.08,1.08,0,0,0,.27.76,2.92,2.92,0,0,0,.69.55q.41.25.9.48a5,5,0,0,1,.9.56,2.75,2.75,0,0,1,.69.79A2.29,2.29,0,0,1,643.39,725.68Z" transform="translate(-442.22 -693.33)"/><path class="cls-1" d="M644.74,730.41a8.07,8.07,0,0,0,.76-1.07,5.15,5.15,0,0,0,.52-1.14,1.3,1.3,0,0,1-.65-.37,1,1,0,0,1-.27-.73,1.26,1.26,0,0,1,.34-.89,1.17,1.17,0,0,1,.9-.37,1.15,1.15,0,0,1,.94.39,1.42,1.42,0,0,1,.32.95,3.58,3.58,0,0,1-.11.85,5.64,5.64,0,0,1-.29.86,7.2,7.2,0,0,1-.41.81c-.15.26-.3.5-.44.71Z" transform="translate(-442.22 -693.33)"/><path class="cls-1" d="M462,748.68a4.17,4.17,0,0,0,1.08-.14,10.51,10.51,0,0,0,1-.33v1.3a4.94,4.94,0,0,1-1.05.32,6.26,6.26,0,0,1-1.2.12,4.75,4.75,0,0,1-1.86-.33,3.35,3.35,0,0,1-1.29-.94,3.89,3.89,0,0,1-.75-1.48,7.3,7.3,0,0,1-.24-2,6.05,6.05,0,0,1,.24-1.71,4.39,4.39,0,0,1,.75-1.48,3.69,3.69,0,0,1,1.27-1,4,4,0,0,1,1.81-.39,7,7,0,0,1,1.1.08,6.63,6.63,0,0,1,1.08.28v1.39A6.55,6.55,0,0,0,463,742a4.17,4.17,0,0,0-1.12-.14,2.44,2.44,0,0,0-1.2.27,2.4,2.4,0,0,0-.82.74,3.12,3.12,0,0,0-.47,1.08,5.7,5.7,0,0,0-.14,1.31,5.87,5.87,0,0,0,.14,1.27,3.09,3.09,0,0,0,.45,1.08,2.32,2.32,0,0,0,.84.75A2.73,2.73,0,0,0,462,748.68Z" transform="translate(-442.22 -693.33)"/><path class="cls-1" d="M472.76,745.3a7.16,7.16,0,0,1-.22,1.79,4.28,4.28,0,0,1-.68,1.48,3.35,3.35,0,0,1-1.19,1,4.29,4.29,0,0,1-3.48,0,3.32,3.32,0,0,1-1.2-1,4.28,4.28,0,0,1-.68-1.48,7.43,7.43,0,0,1,0-3.55A4.47,4.47,0,0,1,466,742a3.29,3.29,0,0,1,1.19-1,4.26,4.26,0,0,1,3.51,0,3.3,3.3,0,0,1,1.19,1,4.47,4.47,0,0,1,.68,1.49A7.13,7.13,0,0,1,472.76,745.3Zm-1.55,0a9.25,9.25,0,0,0-.08-1.22,3.15,3.15,0,0,0-.33-1.08,2.1,2.1,0,0,0-.7-.77,2.46,2.46,0,0,0-2.35,0,2.12,2.12,0,0,0-.69.77,3.15,3.15,0,0,0-.33,1.08,9.17,9.17,0,0,0-.08,1.22,8.74,8.74,0,0,0,.09,1.27,3.38,3.38,0,0,0,.34,1.09,2,2,0,0,0,.69.77,2.08,2.08,0,0,0,1.16.29,2.13,2.13,0,0,0,1.17-.29,1.93,1.93,0,0,0,.69-.77,3.54,3.54,0,0,0,.33-1.09A8.74,8.74,0,0,0,471.21,745.26Z" transform="translate(-442.22 -693.33)"/><path class="cls-1" d="M481.45,749.75H480v-6a2.3,2.3,0,0,0-.34-1.35,1.38,1.38,0,0,0-1.21-.48,2.16,2.16,0,0,0-1.22.39,5.13,5.13,0,0,0-1,.85v6.61H474.7v-8.89H476l.18,1.1a5.34,5.34,0,0,1,1.24-1,3,3,0,0,1,1.44-.33,2.57,2.57,0,0,1,1.93.7,2.67,2.67,0,0,1,.68,1.94Z" transform="translate(-442.22 -693.33)"/><path class="cls-1" d="M486,740.85h2.32v1.26H486v5.25a1.5,1.5,0,0,0,.28,1,1.26,1.26,0,0,0,1,.32,3.43,3.43,0,0,0,.74-.07,3.83,3.83,0,0,0,.63-.2v1.26a3.83,3.83,0,0,1-.82.21,6.06,6.06,0,0,1-.86.06,2.67,2.67,0,0,1-1.85-.55,2.34,2.34,0,0,1-.59-1.79v-5.49h-1.67v-1.26h1.67v-2.39H486Z" transform="translate(-442.22 -693.33)"/><path class="cls-1" d="M494.77,749.75l-.16-.72a5.22,5.22,0,0,1-1,.63,2.93,2.93,0,0,1-1.33.29,2.75,2.75,0,0,1-2-.73,2.72,2.72,0,0,1-.74-2,3.27,3.27,0,0,1,.26-1.35,2.61,2.61,0,0,1,.72-1,3.06,3.06,0,0,1,1.09-.57,4.87,4.87,0,0,1,1.39-.19h1.54v-.48a1.85,1.85,0,0,0-.4-1.36,1.89,1.89,0,0,0-1.33-.39,5.85,5.85,0,0,0-1.21.14,7.58,7.58,0,0,0-1.17.34V741a8.32,8.32,0,0,1,1.2-.26,9.13,9.13,0,0,1,1.41-.12,3.13,3.13,0,0,1,2.29.73,3.08,3.08,0,0,1,.73,2.26v6.12Zm-.22-4.36H493.1a2.48,2.48,0,0,0-1.49.39,1.5,1.5,0,0,0-.53,1.3,1.65,1.65,0,0,0,.4,1.2,1.61,1.61,0,0,0,1.2.41,2.38,2.38,0,0,0,1-.23,3.69,3.69,0,0,0,.83-.53Z" transform="translate(-442.22 -693.33)"/><path class="cls-1" d="M502.1,748.68a4.17,4.17,0,0,0,1.08-.14,10.51,10.51,0,0,0,1-.33v1.3a4.94,4.94,0,0,1-1.05.32,6.26,6.26,0,0,1-1.2.12,4.75,4.75,0,0,1-1.86-.33,3.35,3.35,0,0,1-1.29-.94,3.89,3.89,0,0,1-.75-1.48,7.3,7.3,0,0,1-.24-2,6.05,6.05,0,0,1,.24-1.71,4.39,4.39,0,0,1,.75-1.48,3.69,3.69,0,0,1,1.27-1,4,4,0,0,1,1.81-.39,7,7,0,0,1,1.1.08,6.63,6.63,0,0,1,1.08.28v1.39a6.55,6.55,0,0,0-.95-.34,4.17,4.17,0,0,0-1.12-.14,2.44,2.44,0,0,0-1.2.27,2.4,2.4,0,0,0-.82.74,3.12,3.12,0,0,0-.47,1.08,5.7,5.7,0,0,0-.14,1.31,5.87,5.87,0,0,0,.14,1.27,3.09,3.09,0,0,0,.45,1.08,2.32,2.32,0,0,0,.84.75A2.73,2.73,0,0,0,502.1,748.68Z" transform="translate(-442.22 -693.33)"/><path class="cls-1" d="M508,740.85h2.32v1.26H508v5.25a1.5,1.5,0,0,0,.28,1,1.26,1.26,0,0,0,1,.32,3.43,3.43,0,0,0,.74-.07,3.83,3.83,0,0,0,.63-.2v1.26a3.83,3.83,0,0,1-.82.21,6.06,6.06,0,0,1-.86.06,2.67,2.67,0,0,1-1.85-.55,2.34,2.34,0,0,1-.59-1.79v-5.49h-1.67v-1.26h1.67v-2.39H508Z" transform="translate(-442.22 -693.33)"/><path class="cls-1" d="M517.07,747.28a2.79,2.79,0,0,1-.23,1.19,2.27,2.27,0,0,1-.64.83,2.79,2.79,0,0,1-.94.49,3.91,3.91,0,0,1-1.14.16,6.82,6.82,0,0,1-1.29-.13,5.83,5.83,0,0,1-1.27-.4v-1.37a9.17,9.17,0,0,0,1.15.44,4.23,4.23,0,0,0,1.27.19,2.06,2.06,0,0,0,1.1-.27,1,1,0,0,0,.44-.93,1.19,1.19,0,0,0-.28-.81,3,3,0,0,0-.69-.57,9.74,9.74,0,0,0-.89-.49,5.2,5.2,0,0,1-.89-.55,2.75,2.75,0,0,1-.69-.78,2.29,2.29,0,0,1-.28-1.19,2.35,2.35,0,0,1,.22-1,2.23,2.23,0,0,1,.59-.77,2.69,2.69,0,0,1,.9-.49,3.62,3.62,0,0,1,1.13-.17,5.83,5.83,0,0,1,2.18.43v1.42a9.4,9.4,0,0,0-1-.41,3.24,3.24,0,0,0-1.1-.18,1.71,1.71,0,0,0-1,.27.92.92,0,0,0-.39.8,1.08,1.08,0,0,0,.27.76,2.92,2.92,0,0,0,.69.55q.41.25.9.48a5,5,0,0,1,.9.56,2.75,2.75,0,0,1,.69.79A2.29,2.29,0,0,1,517.07,747.28Z" transform="translate(-442.22 -693.33)"/><path class="cls-1" d="M527.17,749.75,527,749a5.19,5.19,0,0,1-1,.63,2.93,2.93,0,0,1-1.33.29,2.75,2.75,0,0,1-2-.73,2.72,2.72,0,0,1-.74-2,3.27,3.27,0,0,1,.26-1.35,2.62,2.62,0,0,1,.72-1,3.06,3.06,0,0,1,1.09-.57,4.88,4.88,0,0,1,1.39-.19h1.54v-.48a1.85,1.85,0,0,0-.4-1.36,1.88,1.88,0,0,0-1.33-.39A5.85,5.85,0,0,0,524,742a7.59,7.59,0,0,0-1.17.34V741a8.31,8.31,0,0,1,1.2-.26,9.13,9.13,0,0,1,1.41-.12,3.13,3.13,0,0,1,2.29.73,3.08,3.08,0,0,1,.73,2.26v6.12Zm-.22-4.36h-1.46a2.48,2.48,0,0,0-1.49.39,1.5,1.5,0,0,0-.53,1.3,1.65,1.65,0,0,0,.4,1.2,1.61,1.61,0,0,0,1.2.41,2.38,2.38,0,0,0,1-.23,3.68,3.68,0,0,0,.83-.53Z" transform="translate(-442.22 -693.33)"/><path class="cls-1" d="M537.54,749.75H536v-6a2.29,2.29,0,0,0-.34-1.35,1.38,1.38,0,0,0-1.21-.48,2.16,2.16,0,0,0-1.22.39,5.16,5.16,0,0,0-1,.85v6.61h-1.49v-8.89h1.28l.18,1.1a5.34,5.34,0,0,1,1.24-1,3,3,0,0,1,1.44-.33,2.57,2.57,0,0,1,1.93.7,2.67,2.67,0,0,1,.68,1.94Z" transform="translate(-442.22 -693.33)"/><path class="cls-1" d="M546.7,749.75h-1.26l-.18-.79a4.14,4.14,0,0,1-.92.67,2.82,2.82,0,0,1-1.39.32,3.45,3.45,0,0,1-1.6-.34,3,3,0,0,1-1.09-1,4.15,4.15,0,0,1-.63-1.44,7.65,7.65,0,0,1-.2-1.78,7.76,7.76,0,0,1,.21-1.86,4.57,4.57,0,0,1,.66-1.52,3.27,3.27,0,0,1,1.15-1,3.46,3.46,0,0,1,1.67-.38,2.87,2.87,0,0,1,1.21.24,4.37,4.37,0,0,1,.85.5v-4.61h1.51Zm-1.49-7.18a4.24,4.24,0,0,0-.83-.48,2.5,2.5,0,0,0-1-.19,2.32,2.32,0,0,0-1.18.27,2,2,0,0,0-.74.74,3.26,3.26,0,0,0-.38,1.08,7.7,7.7,0,0,0-.11,1.33,6.86,6.86,0,0,0,.12,1.28,3.27,3.27,0,0,0,.39,1.07,2,2,0,0,0,1.84,1,2.87,2.87,0,0,0,1.88-.74Z" transform="translate(-442.22 -693.33)"/><path class="cls-1" d="M560.11,745.16a8.13,8.13,0,0,1-.21,1.86,4.44,4.44,0,0,1-.66,1.52,3.24,3.24,0,0,1-1.16,1,3.56,3.56,0,0,1-1.7.38,2.76,2.76,0,0,1-2-.77v3.64h-1.51v-12h1.26l.22.94a5,5,0,0,1,1.07-.81,2.8,2.8,0,0,1,1.41-.34,3.11,3.11,0,0,1,1.55.36,2.93,2.93,0,0,1,1,1,4.2,4.2,0,0,1,.56,1.43A8.56,8.56,0,0,1,560.11,745.16Zm-1.55.07a7.66,7.66,0,0,0-.1-1.24,3.4,3.4,0,0,0-.35-1.06,2.05,2.05,0,0,0-.67-.75,1.84,1.84,0,0,0-1-.28,2.22,2.22,0,0,0-1.11.31,4.8,4.8,0,0,0-1,.7V748a2.81,2.81,0,0,0,.86.52,2.86,2.86,0,0,0,1.06.2,2.07,2.07,0,0,0,1.15-.29,2.1,2.1,0,0,0,.71-.76,3.37,3.37,0,0,0,.36-1.1A8.41,8.41,0,0,0,558.56,745.23Z" transform="translate(-442.22 -693.33)"/><path class="cls-1" d="M563.53,742.29a3.6,3.6,0,0,1,1-1.16,2.35,2.35,0,0,1,1.45-.5,4.24,4.24,0,0,1,.56,0v1.22l-.25,0H566a2.9,2.9,0,0,0-1.29.32,4.38,4.38,0,0,0-1.22.9v6.64h-1.49v-8.89h1.3Z" transform="translate(-442.22 -693.33)"/><path class="cls-1" d="M574.82,745.3a7.16,7.16,0,0,1-.22,1.79,4.29,4.29,0,0,1-.68,1.48,3.35,3.35,0,0,1-1.19,1,4.29,4.29,0,0,1-3.48,0,3.32,3.32,0,0,1-1.2-1,4.28,4.28,0,0,1-.68-1.48,7.43,7.43,0,0,1,0-3.55A4.47,4.47,0,0,1,568,742a3.29,3.29,0,0,1,1.19-1,4.26,4.26,0,0,1,3.51,0,3.3,3.3,0,0,1,1.19,1,4.47,4.47,0,0,1,.68,1.49A7.13,7.13,0,0,1,574.82,745.3Zm-1.55,0a9.25,9.25,0,0,0-.08-1.22,3.16,3.16,0,0,0-.33-1.08,2.1,2.1,0,0,0-.7-.77,2.46,2.46,0,0,0-2.35,0,2.12,2.12,0,0,0-.69.77,3.14,3.14,0,0,0-.33,1.08,9.09,9.09,0,0,0-.08,1.22,8.68,8.68,0,0,0,.09,1.27,3.38,3.38,0,0,0,.34,1.09,2,2,0,0,0,.69.77,2.08,2.08,0,0,0,1.16.29,2.13,2.13,0,0,0,1.17-.29,1.93,1.93,0,0,0,.69-.77,3.53,3.53,0,0,0,.33-1.09A8.67,8.67,0,0,0,573.27,745.26Z" transform="translate(-442.22 -693.33)"/><path class="cls-1" d="M577.26,742.11h-1.58v-1.26h1.58V739.5a2.63,2.63,0,0,1,.87-2.18,3.92,3.92,0,0,1,2.51-.7,7.74,7.74,0,0,1,1.49.13,7.63,7.63,0,0,1,1.08.28v1.31A9.73,9.73,0,0,0,582,738a6.55,6.55,0,0,0-1.31-.14,2.51,2.51,0,0,0-1.39.34,1.34,1.34,0,0,0-.52,1.22v1.41h5.11v8.89h-1.49v-7.63h-3.62v7.63h-1.49Z" transform="translate(-442.22 -693.33)"/><path class="cls-1" d="M588.42,740.85h2.32v1.26h-2.32v5.25a1.5,1.5,0,0,0,.28,1,1.26,1.26,0,0,0,1,.32,3.44,3.44,0,0,0,.74-.07,3.83,3.83,0,0,0,.63-.2v1.26a3.83,3.83,0,0,1-.82.21,6.05,6.05,0,0,1-.86.06,2.67,2.67,0,0,1-1.85-.55,2.34,2.34,0,0,1-.59-1.79v-5.49h-1.67v-1.26h1.67v-2.39h1.49Z" transform="translate(-442.22 -693.33)"/><path class="cls-1" d="M597.25,749.75l-.16-.72a5.19,5.19,0,0,1-1,.63,2.93,2.93,0,0,1-1.33.29,2.75,2.75,0,0,1-2-.73,2.72,2.72,0,0,1-.74-2,3.27,3.27,0,0,1,.26-1.35,2.62,2.62,0,0,1,.72-1,3.06,3.06,0,0,1,1.09-.57,4.88,4.88,0,0,1,1.39-.19H597v-.48a1.85,1.85,0,0,0-.4-1.36,1.88,1.88,0,0,0-1.33-.39,5.85,5.85,0,0,0-1.21.14,7.59,7.59,0,0,0-1.17.34V741a8.31,8.31,0,0,1,1.2-.26,9.13,9.13,0,0,1,1.41-.12,3.13,3.13,0,0,1,2.29.73,3.08,3.08,0,0,1,.73,2.26v6.12Zm-.22-4.36h-1.46a2.48,2.48,0,0,0-1.49.39,1.5,1.5,0,0,0-.53,1.3,1.65,1.65,0,0,0,.4,1.2,1.61,1.61,0,0,0,1.2.41,2.38,2.38,0,0,0,1-.23,3.68,3.68,0,0,0,.83-.53Z" transform="translate(-442.22 -693.33)"/><path class="cls-1" d="M608.15,745.1a8.5,8.5,0,0,1-.21,1.93,4.22,4.22,0,0,1-.67,1.54,3.14,3.14,0,0,1-1.23,1,4.4,4.4,0,0,1-1.88.36,7,7,0,0,1-.86-.05c-.29,0-.59-.08-.88-.14a5.74,5.74,0,0,1-.84-.23,5.45,5.45,0,0,1-.7-.31V736.77h1.51v5a5,5,0,0,1,1.09-.81,3.42,3.42,0,0,1,2.94.05,2.86,2.86,0,0,1,1,1,4.41,4.41,0,0,1,.56,1.43A8.23,8.23,0,0,1,608.15,745.1Zm-1.55.07a6.73,6.73,0,0,0-.11-1.2,3.5,3.5,0,0,0-.36-1,2.12,2.12,0,0,0-.65-.74,1.73,1.73,0,0,0-1-.28,2.39,2.39,0,0,0-1.11.28,4,4,0,0,0-1,.73v5.35a4.7,4.7,0,0,0,.86.32,3.81,3.81,0,0,0,1,.12,2.17,2.17,0,0,0,1.16-.28,2.12,2.12,0,0,0,.73-.76,3.42,3.42,0,0,0,.39-1.12A7.49,7.49,0,0,0,606.6,745.17Z" transform="translate(-442.22 -693.33)"/><path class="cls-1" d="M609.81,737.56a1,1,0,0,1,.29-.72,1,1,0,0,1,.72-.31,1,1,0,1,1,0,2.05,1,1,0,0,1-.72-.31A1,1,0,0,1,609.81,737.56Zm1.78,12.19H610.1v-8.89h1.49Z" transform="translate(-442.22 -693.33)"/><path class="cls-1" d="M615.62,749.75h-1.49v-13h1.49Z" transform="translate(-442.22 -693.33)"/><path class="cls-1" d="M617.87,737.56a1,1,0,0,1,.29-.72,1,1,0,0,1,.72-.31,1,1,0,1,1,0,2.05,1,1,0,0,1-.72-.31A1,1,0,0,1,617.87,737.56Zm1.78,12.19h-1.49v-8.89h1.49Z" transform="translate(-442.22 -693.33)"/><path class="cls-1" d="M624.26,740.85h2.32v1.26h-2.32v5.25a1.49,1.49,0,0,0,.28,1,1.26,1.26,0,0,0,1,.32,3.43,3.43,0,0,0,.74-.07,3.83,3.83,0,0,0,.63-.2v1.26a3.83,3.83,0,0,1-.82.21,6.06,6.06,0,0,1-.86.06,2.67,2.67,0,0,1-1.85-.55,2.34,2.34,0,0,1-.59-1.79v-5.49h-1.67v-1.26h1.67v-2.39h1.49Z" transform="translate(-442.22 -693.33)"/><path class="cls-1" d="M631.32,747.73l2.23-6.88h1.57L632,749.67a8.63,8.63,0,0,1-.58,1.33,4.44,4.44,0,0,1-.76,1,3,3,0,0,1-1,.67,3.36,3.36,0,0,1-1.29.23,3.83,3.83,0,0,1-.51,0l-.55-.09v-1.26l.52.09a3.53,3.53,0,0,0,.47,0,2.19,2.19,0,0,0,.85-.14,1.68,1.68,0,0,0,.59-.42,2.87,2.87,0,0,0,.44-.67q.19-.39.39-.87l-3.22-8.71H629Z" transform="translate(-442.22 -693.33)"/><path class="cls-1" d="M637.76,748.7a1.18,1.18,0,0,1-.37.88,1.23,1.23,0,0,1-.89.36,1.26,1.26,0,0,1-.87-.33,1.16,1.16,0,0,1-.37-.91,1.21,1.21,0,0,1,1.24-1.26,1.28,1.28,0,0,1,.88.34A1.18,1.18,0,0,1,637.76,748.7Z" transform="translate(-442.22 -693.33)"/></svg>