<svg id="text" xmlns="http://www.w3.org/2000/svg" viewBox="0 0 141.01 71.02"><defs><style>.cls-1{fill:#004796;}.cls-2{fill:#282828;}</style></defs><path class="cls-1" d="M364.07,2869.77a8.22,8.22,0,0,1-.61,3.19,12.1,12.1,0,0,1-1.64,2.8,18.76,18.76,0,0,1-1.62,1.86q-.91.92-1.78,1.74h6.19v2.48H354.43v-2.14q1.3-1.2,2.55-2.47a26.47,26.47,0,0,0,2-2.31,11.48,11.48,0,0,0,1.4-2.3,6.08,6.08,0,0,0,.58-2.57,2.59,2.59,0,0,0-.58-1.81,2.25,2.25,0,0,0-1.75-.63,7.5,7.5,0,0,0-1.93.26,9.68,9.68,0,0,0-1.86.7v-2.64a14.67,14.67,0,0,1,2-.59,10.52,10.52,0,0,1,2.42-.27,5.75,5.75,0,0,1,2.07.34,4.11,4.11,0,0,1,1.51,1,4.16,4.16,0,0,1,.92,1.49A5.54,5.54,0,0,1,364.07,2869.77Z" transform="translate(-346.15 -2865.07)"/><path class="cls-1" d="M366.8,2885a14.31,14.31,0,0,0,1.17-1.48,9.12,9.12,0,0,0,.87-1.58,1.85,1.85,0,0,1-1-.55,1.64,1.64,0,0,1-.41-1.17,1.83,1.83,0,0,1,.55-1.37,2.32,2.32,0,0,1,3,0,2,2,0,0,1,.53,1.38,4.49,4.49,0,0,1-.18,1.24,8.79,8.79,0,0,1-.47,1.26,10.07,10.07,0,0,1-.66,1.2,12,12,0,0,1-.74,1Z" transform="translate(-346.15 -2865.07)"/><path class="cls-1" d="M381.34,2879.36h3.4v2.48H375v-2.48h3.4v-11.62l-3.4,1v-2.48l4.19-1h2.16Z" transform="translate(-346.15 -2865.07)"/><path class="cls-1" d="M397.46,2876.37a5.71,5.71,0,0,1-1.52,4.19,6.09,6.09,0,0,1-4.53,1.54,11.77,11.77,0,0,1-1.93-.15,10,10,0,0,1-1.68-.43v-2.71a18.27,18.27,0,0,0,1.82.55,7.44,7.44,0,0,0,1.77.21,2.66,2.66,0,0,0,3.06-3,2.69,2.69,0,0,0-.84-2.11,3.49,3.49,0,0,0-2.4-.75,16.67,16.67,0,0,0-2.83.25v-8.69h8.33v2.48h-5.38v3.43h.75a5.44,5.44,0,0,1,4,1.38A5.11,5.11,0,0,1,397.46,2876.37Z" transform="translate(-346.15 -2865.07)"/><path class="cls-1" d="M411.4,2873.58a18.78,18.78,0,0,1-.26,3.17,8.8,8.8,0,0,1-.91,2.73,5.18,5.18,0,0,1-1.74,1.9,4.89,4.89,0,0,1-2.73.71,4.78,4.78,0,0,1-2.69-.71,5.3,5.3,0,0,1-1.74-1.9,8.76,8.76,0,0,1-.93-2.73,18.5,18.5,0,0,1,0-6.37,8.63,8.63,0,0,1,.93-2.71,5.34,5.34,0,0,1,1.74-1.89,4.79,4.79,0,0,1,2.69-.71,4.84,4.84,0,0,1,2.71.71,5.36,5.36,0,0,1,1.74,1.89,8.48,8.48,0,0,1,.92,2.71A18.93,18.93,0,0,1,411.4,2873.58Zm-3.06,0q0-1-.07-2a8.88,8.88,0,0,0-.33-1.94,4,4,0,0,0-.77-1.47,2,2,0,0,0-2.79,0,3.84,3.84,0,0,0-.78,1.47,8.76,8.76,0,0,0-.33,1.94q-.07,1.06-.07,2t.08,1.94a9.25,9.25,0,0,0,.34,1.93,4,4,0,0,0,.77,1.47,1.91,1.91,0,0,0,2.76,0,4.07,4.07,0,0,0,.77-1.48,9.23,9.23,0,0,0,.34-1.92Q408.34,2874.53,408.34,2873.63Z" transform="translate(-346.15 -2865.07)"/><path class="cls-1" d="M427.84,2875.93a11.36,11.36,0,0,1-.22,2.21,6.39,6.39,0,0,1-.74,2,4.1,4.1,0,0,1-1.38,1.43,3.94,3.94,0,0,1-2.13.54,3.8,3.8,0,0,1-1.47-.25,3.12,3.12,0,0,1-1.06-.74v4.65H418v-15.27h2.55l.23,1.06a4.09,4.09,0,0,1,1.26-.94,3.7,3.7,0,0,1,1.68-.39,3.84,3.84,0,0,1,2,.47,3.71,3.71,0,0,1,1.28,1.25,5.48,5.48,0,0,1,.69,1.83A11.19,11.19,0,0,1,427.84,2875.93Zm-3,.07a8.89,8.89,0,0,0-.08-1.18,3.59,3.59,0,0,0-.32-1.1,2.2,2.2,0,0,0-.66-.81,1.71,1.71,0,0,0-1.06-.31,2.89,2.89,0,0,0-1,.18,3.5,3.5,0,0,0-.9.51v5.66a3.77,3.77,0,0,0,.81.54,2.22,2.22,0,0,0,1,.22,1.75,1.75,0,0,0,1.12-.34,2.4,2.4,0,0,0,.68-.87,4.1,4.1,0,0,0,.34-1.19A9.42,9.42,0,0,0,424.88,2876Z" transform="translate(-346.15 -2865.07)"/><path class="cls-1" d="M432.37,2877.1a3,3,0,0,0,.83,1.87,2.81,2.81,0,0,0,2.1.73,6.19,6.19,0,0,0,1.6-.2,14,14,0,0,0,1.54-.52v2.44a6.78,6.78,0,0,1-1.59.49,9.84,9.84,0,0,1-1.86.17,6.94,6.94,0,0,1-2.56-.42,4.34,4.34,0,0,1-1.74-1.21,4.9,4.9,0,0,1-1-1.87,9,9,0,0,1-.31-2.45,8.29,8.29,0,0,1,.3-2.24,5.93,5.93,0,0,1,.9-1.9,4.29,4.29,0,0,1,1.53-1.31,4.76,4.76,0,0,1,2.22-.48,4.45,4.45,0,0,1,2.09.45,3.94,3.94,0,0,1,1.39,1.21,4.93,4.93,0,0,1,.77,1.75,9.18,9.18,0,0,1,.23,2.07q0,.35,0,.78c0,.29,0,.51,0,.64Zm3.45-2a5.74,5.74,0,0,0-.08-1,2.34,2.34,0,0,0-.27-.79,1.43,1.43,0,0,0-.54-.53,1.74,1.74,0,0,0-.86-.19,1.38,1.38,0,0,0-.75.2,1.66,1.66,0,0,0-.52.54,2.69,2.69,0,0,0-.32.79,4.94,4.94,0,0,0-.13.95Z" transform="translate(-346.15 -2865.07)"/><path class="cls-1" d="M450.64,2876.16a8.93,8.93,0,0,1-.29,2.3,5.27,5.27,0,0,1-.91,1.89,4.42,4.42,0,0,1-1.59,1.28,5.25,5.25,0,0,1-2.32.47,5.19,5.19,0,0,1-2.3-.47,4.41,4.41,0,0,1-1.59-1.28,5.27,5.27,0,0,1-.91-1.89,8.93,8.93,0,0,1-.29-2.3,9.19,9.19,0,0,1,.28-2.28,5.36,5.36,0,0,1,.89-1.9,4.36,4.36,0,0,1,1.58-1.3,5.92,5.92,0,0,1,4.69,0,4.46,4.46,0,0,1,1.59,1.3,5.25,5.25,0,0,1,.9,1.9A9.19,9.19,0,0,1,450.64,2876.16Zm-3,0a12,12,0,0,0-.07-1.32,3.45,3.45,0,0,0-.3-1.12,2,2,0,0,0-.64-.78,1.89,1.89,0,0,0-1.13-.3,1.85,1.85,0,0,0-1.1.3,1.93,1.93,0,0,0-.63.78,3.87,3.87,0,0,0-.3,1.12,10.46,10.46,0,0,0-.08,1.32,10.76,10.76,0,0,0,.08,1.33,4.17,4.17,0,0,0,.3,1.15,1.9,1.9,0,0,0,.63.81,1.85,1.85,0,0,0,1.1.3,1.9,1.9,0,0,0,1.12-.3,1.87,1.87,0,0,0,.64-.81,4.2,4.2,0,0,0,.3-1.15A11,11,0,0,0,447.67,2876.11Z" transform="translate(-346.15 -2865.07)"/><path class="cls-1" d="M462.73,2875.93a11.36,11.36,0,0,1-.22,2.21,6.39,6.39,0,0,1-.74,2,4.1,4.1,0,0,1-1.38,1.43,3.94,3.94,0,0,1-2.13.54,3.8,3.8,0,0,1-1.47-.25,3.12,3.12,0,0,1-1.06-.74v4.65h-2.9v-15.27h2.55l.23,1.06a4.09,4.09,0,0,1,1.26-.94,3.7,3.7,0,0,1,1.68-.39,3.84,3.84,0,0,1,2,.47,3.71,3.71,0,0,1,1.28,1.25,5.48,5.48,0,0,1,.69,1.83A11.19,11.19,0,0,1,462.73,2875.93Zm-3,.07a8.89,8.89,0,0,0-.08-1.18,3.59,3.59,0,0,0-.32-1.1,2.2,2.2,0,0,0-.66-.81,1.71,1.71,0,0,0-1.06-.31,2.89,2.89,0,0,0-1,.18,3.5,3.5,0,0,0-.9.51v5.66a3.77,3.77,0,0,0,.81.54,2.22,2.22,0,0,0,1,.22,1.75,1.75,0,0,0,1.12-.34,2.4,2.4,0,0,0,.68-.87,4.1,4.1,0,0,0,.34-1.19A9.42,9.42,0,0,0,459.77,2876Z" transform="translate(-346.15 -2865.07)"/><path class="cls-1" d="M467.86,2881.84H465v-16.58h2.9Z" transform="translate(-346.15 -2865.07)"/><path class="cls-1" d="M473.06,2877.1a3,3,0,0,0,.83,1.87,2.81,2.81,0,0,0,2.1.73,6.19,6.19,0,0,0,1.6-.2,14,14,0,0,0,1.54-.52v2.44a6.78,6.78,0,0,1-1.59.49,9.84,9.84,0,0,1-1.86.17,6.94,6.94,0,0,1-2.56-.42,4.34,4.34,0,0,1-1.74-1.21,4.9,4.9,0,0,1-1-1.87,9,9,0,0,1-.31-2.45,8.29,8.29,0,0,1,.3-2.24,5.93,5.93,0,0,1,.9-1.9,4.29,4.29,0,0,1,1.53-1.31,4.76,4.76,0,0,1,2.22-.48,4.45,4.45,0,0,1,2.09.45,3.94,3.94,0,0,1,1.39,1.21,4.93,4.93,0,0,1,.77,1.75,9.18,9.18,0,0,1,.23,2.07q0,.35,0,.78c0,.29,0,.51,0,.64Zm3.45-2a5.74,5.74,0,0,0-.08-1,2.34,2.34,0,0,0-.27-.79,1.43,1.43,0,0,0-.54-.53,1.74,1.74,0,0,0-.86-.19,1.38,1.38,0,0,0-.75.2,1.66,1.66,0,0,0-.52.54,2.69,2.69,0,0,0-.32.79,4.94,4.94,0,0,0-.13.95Z" transform="translate(-346.15 -2865.07)"/><path class="cls-2" d="M348.06,2908.84h-1.91v-16.58h1.91Z" transform="translate(-346.15 -2865.07)"/><path class="cls-2" d="M360.36,2903.16a9.15,9.15,0,0,1-.28,2.29,5.49,5.49,0,0,1-.87,1.89,4.27,4.27,0,0,1-1.52,1.29,5.48,5.48,0,0,1-4.45,0,4.24,4.24,0,0,1-1.53-1.29,5.46,5.46,0,0,1-.87-1.89,9.47,9.47,0,0,1,0-4.54,5.69,5.69,0,0,1,.86-1.91,4.17,4.17,0,0,1,1.52-1.31,5.43,5.43,0,0,1,4.49,0,4.17,4.17,0,0,1,1.52,1.31,5.71,5.71,0,0,1,.86,1.91A9.11,9.11,0,0,1,360.36,2903.16Zm-2,0a11.85,11.85,0,0,0-.1-1.56,4,4,0,0,0-.43-1.38,2.51,2.51,0,0,0-2.39-1.36,2.65,2.65,0,0,0-1.51.38,2.72,2.72,0,0,0-.89,1,4,4,0,0,0-.43,1.38,11.85,11.85,0,0,0-.1,1.56,11.11,11.11,0,0,0,.12,1.62,4.35,4.35,0,0,0,.44,1.4,2.6,2.6,0,0,0,.88,1,2.67,2.67,0,0,0,1.48.37,2.72,2.72,0,0,0,1.49-.37,2.48,2.48,0,0,0,.89-1,4.54,4.54,0,0,0,.43-1.4A11.24,11.24,0,0,0,358.39,2903.11Z" transform="translate(-346.15 -2865.07)"/><path class="cls-2" d="M371.4,2908.56a4.06,4.06,0,0,1-1.24,3.33,5.35,5.35,0,0,1-3.47,1,15.57,15.57,0,0,1-1.87-.11,8.56,8.56,0,0,1-1.64-.34v-1.7a16,16,0,0,0,1.66.4,9.3,9.3,0,0,0,1.68.15,4,4,0,0,0,2.14-.52,2,2,0,0,0,.81-1.85v-1.54a6.16,6.16,0,0,1-1.35.76,4.48,4.48,0,0,1-3.57-.15,4,4,0,0,1-1.38-1.2,5.25,5.25,0,0,1-.8-1.73,7.77,7.77,0,0,1-.26-2,9.43,9.43,0,0,1,.26-2.27,5.44,5.44,0,0,1,.83-1.86,4.07,4.07,0,0,1,1.42-1.25,4.29,4.29,0,0,1,2.05-.46,3.46,3.46,0,0,1,1.54.36,5.08,5.08,0,0,1,1.31.91l.23-1h1.65Zm-1.91-8.67a5.7,5.7,0,0,0-1.19-.77,3.11,3.11,0,0,0-1.37-.31,2.52,2.52,0,0,0-1.36.34,2.63,2.63,0,0,0-.87.9,3.92,3.92,0,0,0-.47,1.3,8.44,8.44,0,0,0-.14,1.54,8.29,8.29,0,0,0,.13,1.45,3.75,3.75,0,0,0,.46,1.27,2.51,2.51,0,0,0,.92.9,3,3,0,0,0,1.52.34,4,4,0,0,0,1.31-.23,3.16,3.16,0,0,0,1.08-.6Z" transform="translate(-346.15 -2865.07)"/><path class="cls-2" d="M383.18,2908.56a4.06,4.06,0,0,1-1.24,3.33,5.35,5.35,0,0,1-3.47,1,15.57,15.57,0,0,1-1.87-.11,8.56,8.56,0,0,1-1.64-.34v-1.7a16,16,0,0,0,1.66.4,9.3,9.3,0,0,0,1.68.15,4,4,0,0,0,2.14-.52,2,2,0,0,0,.81-1.85v-1.54a6.16,6.16,0,0,1-1.35.76,4.48,4.48,0,0,1-3.57-.15,4,4,0,0,1-1.38-1.2,5.25,5.25,0,0,1-.8-1.73,7.77,7.77,0,0,1-.26-2,9.43,9.43,0,0,1,.26-2.27,5.44,5.44,0,0,1,.83-1.86,4.07,4.07,0,0,1,1.42-1.25,4.29,4.29,0,0,1,2.05-.46,3.46,3.46,0,0,1,1.54.36,5.08,5.08,0,0,1,1.31.91l.23-1h1.65Zm-1.91-8.67a5.7,5.7,0,0,0-1.19-.77,3.11,3.11,0,0,0-1.37-.31,2.52,2.52,0,0,0-1.36.34,2.63,2.63,0,0,0-.87.9,3.92,3.92,0,0,0-.47,1.3,8.44,8.44,0,0,0-.14,1.54,8.29,8.29,0,0,0,.13,1.45,3.75,3.75,0,0,0,.46,1.27,2.51,2.51,0,0,0,.92.9,3,3,0,0,0,1.52.34,4,4,0,0,0,1.31-.23,3.16,3.16,0,0,0,1.08-.6Z" transform="translate(-346.15 -2865.07)"/><path class="cls-2" d="M387.64,2903.71a5.47,5.47,0,0,0,.18,1.43,3.47,3.47,0,0,0,.58,1.21,2.77,2.77,0,0,0,1.05.83,3.75,3.75,0,0,0,1.59.3,7.42,7.42,0,0,0,3.19-.78v1.66a6.53,6.53,0,0,1-1.69.55,9.75,9.75,0,0,1-1.85.18,5.41,5.41,0,0,1-2.27-.44,4.21,4.21,0,0,1-1.58-1.22,5,5,0,0,1-.91-1.87,9.55,9.55,0,0,1-.29-2.43,8.83,8.83,0,0,1,.29-2.28,5.65,5.65,0,0,1,.87-1.89,4.41,4.41,0,0,1,1.47-1.29,4.28,4.28,0,0,1,2.08-.48,4,4,0,0,1,2,.45,3.78,3.78,0,0,1,1.31,1.2,5,5,0,0,1,.72,1.74,9.47,9.47,0,0,1,.22,2v.62a4.53,4.53,0,0,1,0,.46Zm5-1.61a8.28,8.28,0,0,0-.09-1.22,2.9,2.9,0,0,0-.36-1.06,2,2,0,0,0-.75-.73,2.46,2.46,0,0,0-1.24-.28,2.09,2.09,0,0,0-1,.25,2.47,2.47,0,0,0-.78.69,3.43,3.43,0,0,0-.52,1,4.88,4.88,0,0,0-.21,1.3Z" transform="translate(-346.15 -2865.07)"/><path class="cls-2" d="M405.7,2908.84h-1.61l-.23-1a5.31,5.31,0,0,1-1.18.86,3.61,3.61,0,0,1-1.78.4,4.42,4.42,0,0,1-2-.44,3.82,3.82,0,0,1-1.4-1.22,5.3,5.3,0,0,1-.8-1.84,9.81,9.81,0,0,1-.25-2.28,10,10,0,0,1,.27-2.38,5.84,5.84,0,0,1,.85-1.94,4.16,4.16,0,0,1,1.47-1.31,4.42,4.42,0,0,1,2.13-.48,3.67,3.67,0,0,1,1.55.31,5.55,5.55,0,0,1,1.09.63v-5.89h1.93Zm-1.91-9.18a5.51,5.51,0,0,0-1.07-.61,3.2,3.2,0,0,0-1.27-.24,3,3,0,0,0-1.51.35,2.57,2.57,0,0,0-.94.94,4.16,4.16,0,0,0-.48,1.38,9.89,9.89,0,0,0-.14,1.7,8.67,8.67,0,0,0,.15,1.64,4.16,4.16,0,0,0,.5,1.37,2.72,2.72,0,0,0,.93.94,2.68,2.68,0,0,0,1.42.35,3.67,3.67,0,0,0,2.4-.94Z" transform="translate(-346.15 -2865.07)"/><path class="cls-2" d="M413.17,2893.27a1.28,1.28,0,0,1,.38-.92,1.23,1.23,0,0,1,.92-.39,1.31,1.31,0,1,1,0,2.62,1.23,1.23,0,0,1-.92-.39A1.29,1.29,0,0,1,413.17,2893.27Zm2.28,15.57h-1.91v-11.36h1.91Z" transform="translate(-346.15 -2865.07)"/><path class="cls-2" d="M427.29,2908.84h-1.91v-7.69a2.94,2.94,0,0,0-.44-1.72,1.76,1.76,0,0,0-1.54-.61,2.75,2.75,0,0,0-1.56.49,6.56,6.56,0,0,0-1.27,1.09v8.44h-1.91v-11.36h1.63l.23,1.4a6.79,6.79,0,0,1,1.59-1.25,3.8,3.8,0,0,1,1.84-.43,3.28,3.28,0,0,1,2.46.9,3.41,3.41,0,0,1,.87,2.48Z" transform="translate(-346.15 -2865.07)"/><path class="cls-2" d="M440.93,2908.84l-.21-.92a6.57,6.57,0,0,1-1.26.8,3.73,3.73,0,0,1-1.7.37,3.52,3.52,0,0,1-2.59-.93,3.48,3.48,0,0,1-.94-2.59,4.17,4.17,0,0,1,.33-1.73,3.33,3.33,0,0,1,.92-1.22,3.91,3.91,0,0,1,1.4-.72,6.21,6.21,0,0,1,1.78-.24h2v-.61a2.37,2.37,0,0,0-.52-1.74,2.41,2.41,0,0,0-1.71-.49,7.42,7.42,0,0,0-1.55.18,9.61,9.61,0,0,0-1.5.44v-1.75a10.52,10.52,0,0,1,1.53-.33,11.69,11.69,0,0,1,1.8-.15,4,4,0,0,1,2.93.93,3.94,3.94,0,0,1,.93,2.89v7.82Zm-.28-5.57h-1.87a3.17,3.17,0,0,0-1.9.49,1.92,1.92,0,0,0-.67,1.66,2.12,2.12,0,0,0,.51,1.53,2.05,2.05,0,0,0,1.54.53,3.06,3.06,0,0,0,1.33-.29,4.74,4.74,0,0,0,1.06-.68Z" transform="translate(-346.15 -2865.07)"/><path class="cls-2" d="M454.2,2908.84h-1.91v-7.74a2.72,2.72,0,0,0-.46-1.71,2,2,0,0,0-1.63-.58,2.55,2.55,0,0,0-1.37.42,6.52,6.52,0,0,0-1.35,1.16v8.44h-1.91v-16.58h1.91v6.58a7.24,7.24,0,0,1,1.41-1.13,3.67,3.67,0,0,1,2-.51,3.28,3.28,0,0,1,2.46.9,3.41,3.41,0,0,1,.87,2.48Z" transform="translate(-346.15 -2865.07)"/><path class="cls-2" d="M458.59,2903.71a5.47,5.47,0,0,0,.18,1.43,3.47,3.47,0,0,0,.58,1.21,2.77,2.77,0,0,0,1.05.83,3.75,3.75,0,0,0,1.59.3,7.42,7.42,0,0,0,3.19-.78v1.66a6.53,6.53,0,0,1-1.69.55,9.75,9.75,0,0,1-1.85.18,5.41,5.41,0,0,1-2.27-.44,4.21,4.21,0,0,1-1.58-1.22,5,5,0,0,1-.91-1.87,9.55,9.55,0,0,1-.29-2.43,8.83,8.83,0,0,1,.29-2.28,5.65,5.65,0,0,1,.87-1.89,4.41,4.41,0,0,1,1.47-1.29,4.28,4.28,0,0,1,2.08-.48,4,4,0,0,1,2,.45,3.78,3.78,0,0,1,1.31,1.2,5,5,0,0,1,.72,1.74,9.47,9.47,0,0,1,.22,2v.62a4.53,4.53,0,0,1,0,.46Zm5-1.61a8.28,8.28,0,0,0-.09-1.22,2.9,2.9,0,0,0-.36-1.06,2,2,0,0,0-.75-.73,2.46,2.46,0,0,0-1.24-.28,2.09,2.09,0,0,0-1,.25,2.47,2.47,0,0,0-.78.69,3.43,3.43,0,0,0-.52,1,4.88,4.88,0,0,0-.21,1.3Z" transform="translate(-346.15 -2865.07)"/><path class="cls-2" d="M474,2908.84l-.21-.92a6.57,6.57,0,0,1-1.26.8,3.73,3.73,0,0,1-1.7.37,3.52,3.52,0,0,1-2.59-.93,3.48,3.48,0,0,1-.94-2.59,4.17,4.17,0,0,1,.33-1.73,3.33,3.33,0,0,1,.92-1.22,3.91,3.91,0,0,1,1.4-.72,6.21,6.21,0,0,1,1.78-.24h2v-.61a2.37,2.37,0,0,0-.52-1.74,2.41,2.41,0,0,0-1.71-.49,7.42,7.42,0,0,0-1.55.18,9.61,9.61,0,0,0-1.5.44v-1.75a10.52,10.52,0,0,1,1.53-.33,11.69,11.69,0,0,1,1.8-.15,4,4,0,0,1,2.93.93,3.94,3.94,0,0,1,.93,2.89v7.82Zm-.28-5.57h-1.87a3.17,3.17,0,0,0-1.9.49,1.92,1.92,0,0,0-.67,1.66,2.12,2.12,0,0,0,.51,1.53,2.05,2.05,0,0,0,1.54.53,3.06,3.06,0,0,0,1.33-.29,4.74,4.74,0,0,0,1.06-.68Z" transform="translate(-346.15 -2865.07)"/><path class="cls-2" d="M487.16,2908.84h-1.61l-.23-1a5.31,5.31,0,0,1-1.18.86,3.61,3.61,0,0,1-1.78.4,4.42,4.42,0,0,1-2-.44,3.82,3.82,0,0,1-1.4-1.22,5.3,5.3,0,0,1-.8-1.84,9.81,9.81,0,0,1-.25-2.28,10,10,0,0,1,.27-2.38A5.84,5.84,0,0,1,479,2899a4.16,4.16,0,0,1,1.47-1.31,4.42,4.42,0,0,1,2.13-.48,3.67,3.67,0,0,1,1.55.31,5.55,5.55,0,0,1,1.09.63v-5.89h1.93Zm-1.91-9.18a5.51,5.51,0,0,0-1.07-.61,3.2,3.2,0,0,0-1.27-.24,3,3,0,0,0-1.51.35,2.57,2.57,0,0,0-.94.94,4.16,4.16,0,0,0-.48,1.38,9.89,9.89,0,0,0-.14,1.7,8.67,8.67,0,0,0,.15,1.64,4.16,4.16,0,0,0,.5,1.37,2.72,2.72,0,0,0,.93.94,2.68,2.68,0,0,0,1.42.35,3.67,3.67,0,0,0,2.4-.94Z" transform="translate(-346.15 -2865.07)"/><path class="cls-2" d="M382.19,2930.16a9.16,9.16,0,0,1-.28,2.29,5.47,5.47,0,0,1-.87,1.88,4.27,4.27,0,0,1-1.52,1.29,5.49,5.49,0,0,1-4.45,0,4.23,4.23,0,0,1-1.53-1.29,5.43,5.43,0,0,1-.87-1.88,9.47,9.47,0,0,1,0-4.54,5.68,5.68,0,0,1,.86-1.91,4.19,4.19,0,0,1,1.52-1.31,5.45,5.45,0,0,1,4.49,0,4.19,4.19,0,0,1,1.52,1.31,5.7,5.7,0,0,1,.86,1.91A9.1,9.1,0,0,1,382.19,2930.16Zm-2,0a11.9,11.9,0,0,0-.1-1.56,4,4,0,0,0-.43-1.37,2.51,2.51,0,0,0-2.39-1.37,2.65,2.65,0,0,0-1.51.38,2.72,2.72,0,0,0-.89,1,4,4,0,0,0-.43,1.38,11.9,11.9,0,0,0-.1,1.56,11.09,11.09,0,0,0,.12,1.62,4.33,4.33,0,0,0,.44,1.4,2.6,2.6,0,0,0,.88,1,2.67,2.67,0,0,0,1.48.37,2.72,2.72,0,0,0,1.49-.37,2.48,2.48,0,0,0,.89-1,4.52,4.52,0,0,0,.43-1.4A11.22,11.22,0,0,0,380.21,2930.11Z" transform="translate(-346.15 -2865.07)"/><path class="cls-2" d="M389,2919.07a8.32,8.32,0,0,1,1,.06,7.79,7.79,0,0,1,.79.13v1.61a4.59,4.59,0,0,0-.79-.14q-.47,0-.93,0a1.66,1.66,0,0,0-1.4.49,2.5,2.5,0,0,0-.37,1.5v1.8h3.24v1.61h-3.24v9.75h-1.91v-9.75h-2v-1.61h2v-1.72a3.82,3.82,0,0,1,.89-2.79A3.78,3.78,0,0,1,389,2919.07Z" transform="translate(-346.15 -2865.07)"/><path class="cls-2" d="M398.75,2935.84h-1.91v-16.58h1.91Z" transform="translate(-346.15 -2865.07)"/><path class="cls-2" d="M407.88,2935.84l-.21-.92a6.67,6.67,0,0,1-1.26.8,3.75,3.75,0,0,1-1.7.37,3.52,3.52,0,0,1-2.59-.93,3.48,3.48,0,0,1-.94-2.59,4.18,4.18,0,0,1,.33-1.73,3.34,3.34,0,0,1,.92-1.22,3.92,3.92,0,0,1,1.4-.72,6.25,6.25,0,0,1,1.78-.24h2v-.61a2.37,2.37,0,0,0-.52-1.74,2.41,2.41,0,0,0-1.71-.5,7.44,7.44,0,0,0-1.55.19,9.73,9.73,0,0,0-1.5.44v-1.75a10.82,10.82,0,0,1,1.53-.33,11.69,11.69,0,0,1,1.8-.15,4,4,0,0,1,2.93.93,3.94,3.94,0,0,1,.93,2.89v7.82Zm-.28-5.57h-1.87a3.17,3.17,0,0,0-1.9.49,1.92,1.92,0,0,0-.67,1.66,2.12,2.12,0,0,0,.51,1.54,2.06,2.06,0,0,0,1.54.53,3.06,3.06,0,0,0,1.33-.29,4.71,4.71,0,0,0,1.06-.68Z" transform="translate(-346.15 -2865.07)"/><path class="cls-2" d="M412.44,2924.48h1.91v7.67a2.94,2.94,0,0,0,.44,1.71,1.75,1.75,0,0,0,1.54.62,2.75,2.75,0,0,0,1.56-.49,6.53,6.53,0,0,0,1.26-1.09v-8.42h1.91v11.36h-1.63l-.23-1.4q-.3.3-.63.6a4,4,0,0,1-.75.53,4.47,4.47,0,0,1-.92.38,4,4,0,0,1-1.13.15,3,3,0,0,1-3.33-3.36Z" transform="translate(-346.15 -2865.07)"/><path class="cls-2" d="M432.9,2935.84H431v-7.69a2.94,2.94,0,0,0-.44-1.72,1.76,1.76,0,0,0-1.54-.62,2.75,2.75,0,0,0-1.56.5,6.56,6.56,0,0,0-1.27,1.09v8.44h-1.91v-11.36h1.63l.23,1.4a6.77,6.77,0,0,1,1.59-1.25,3.8,3.8,0,0,1,1.84-.43,3.28,3.28,0,0,1,2.46.9,3.41,3.41,0,0,1,.87,2.48Z" transform="translate(-346.15 -2865.07)"/><path class="cls-2" d="M440.79,2934.48a5.3,5.3,0,0,0,1.38-.17q.64-.17,1.31-.43v1.66a6.4,6.4,0,0,1-1.35.4,8,8,0,0,1-1.53.15,6,6,0,0,1-2.38-.43,4.29,4.29,0,0,1-1.64-1.2,5,5,0,0,1-1-1.89,9.28,9.28,0,0,1-.31-2.49,7.72,7.72,0,0,1,.31-2.19,5.64,5.64,0,0,1,1-1.89,4.74,4.74,0,0,1,1.62-1.32,5.08,5.08,0,0,1,2.31-.49,8.93,8.93,0,0,1,1.4.1,8.18,8.18,0,0,1,1.38.36v1.77a8.36,8.36,0,0,0-1.21-.44,5.29,5.29,0,0,0-1.44-.19,3.1,3.1,0,0,0-1.53.35,3.07,3.07,0,0,0-1,.95,4,4,0,0,0-.6,1.38,7.26,7.26,0,0,0-.18,1.67,7.52,7.52,0,0,0,.17,1.63,4,4,0,0,0,.58,1.38,3,3,0,0,0,1.07,1A3.48,3.48,0,0,0,440.79,2934.48Z" transform="translate(-346.15 -2865.07)"/><path class="cls-2" d="M454.29,2935.84h-1.91v-7.74a2.71,2.71,0,0,0-.46-1.71,2,2,0,0,0-1.63-.58,2.56,2.56,0,0,0-1.37.43,6.56,6.56,0,0,0-1.35,1.16v8.44h-1.91v-16.58h1.91v6.58a7.28,7.28,0,0,1,1.41-1.13,3.68,3.68,0,0,1,2-.51,3.28,3.28,0,0,1,2.46.9,3.41,3.41,0,0,1,.87,2.48Z" transform="translate(-346.15 -2865.07)"/><path class="cls-2" d="M460.41,2934.51a1.51,1.51,0,0,1-.47,1.13,1.57,1.57,0,0,1-1.14.46,1.6,1.6,0,0,1-1.12-.43,1.48,1.48,0,0,1-.47-1.16,1.55,1.55,0,0,1,1.59-1.61,1.63,1.63,0,0,1,1.13.44A1.51,1.51,0,0,1,460.41,2934.51Z" transform="translate(-346.15 -2865.07)"/></svg>