<svg id="text" xmlns="http://www.w3.org/2000/svg" viewBox="0 0 188.44 47.68"><defs><style>.cls-1{fill:#004796;}.cls-2{fill:#3c3c3c;}</style></defs><path class="cls-1" d="M319.45,1276.76a7.85,7.85,0,0,1-.62,3.13,13.81,13.81,0,0,1-1.59,2.76,22.36,22.36,0,0,1-2.41,2.69h4.94v3.33H309.19v-2.39q.92-.78,2-1.87t2.21-2.42a10.48,10.48,0,0,0,1.52-2.37,5.42,5.42,0,0,0,.49-2.19,2.29,2.29,0,0,0-.52-1.59,2.33,2.33,0,0,0-1.79-.58,6.06,6.06,0,0,0-1.73.25,10.27,10.27,0,0,0-1.75.71v-3.47a10.55,10.55,0,0,1,2-.61,11.78,11.78,0,0,1,2.45-.24,7,7,0,0,1,2.13.31,5,5,0,0,1,1.7.92,4.28,4.28,0,0,1,1.14,1.52A5,5,0,0,1,319.45,1276.76Z" transform="translate(-288.09 -1271.91)"/><path class="cls-1" d="M322.67,1286.72a2.1,2.1,0,0,1,.68-1.59,2.33,2.33,0,0,1,1.67-.64,2.48,2.48,0,0,1,.92.17,2.41,2.41,0,0,1,.76.47,2.15,2.15,0,0,1,.51.71,2.12,2.12,0,0,1,.18.87,2,2,0,0,1-.69,1.58,2.39,2.39,0,0,1-1.68.63,2.35,2.35,0,0,1-1.67-.63A2.07,2.07,0,0,1,322.67,1286.72Z" transform="translate(-288.09 -1271.91)"/><path class="cls-1" d="M341,1283.93a5,5,0,0,1-.41,2.05,4.5,4.5,0,0,1-1.17,1.58,5.3,5.3,0,0,1-1.82,1,7.43,7.43,0,0,1-2.35.35,6.68,6.68,0,0,1-4.27-1.22,4.09,4.09,0,0,1-1.53-3.39,4.14,4.14,0,0,1,.23-1.42,4.21,4.21,0,0,1,.62-1.14,4.73,4.73,0,0,1,.92-.9,7.06,7.06,0,0,1,1.12-.69,9.15,9.15,0,0,1-.89-.68,5,5,0,0,1-.78-.84,4.15,4.15,0,0,1-.55-1,3.66,3.66,0,0,1-.21-1.27,4.36,4.36,0,0,1,.37-1.81,3.88,3.88,0,0,1,1.07-1.41,4.91,4.91,0,0,1,1.71-.9,7.61,7.61,0,0,1,2.28-.32,8.32,8.32,0,0,1,2.07.25,5.16,5.16,0,0,1,1.68.74,3.49,3.49,0,0,1,1.12,1.26,3.75,3.75,0,0,1,.4,1.78,3.57,3.57,0,0,1-.68,2.15,6.39,6.39,0,0,1-1.66,1.58,5.34,5.34,0,0,1,2.1,1.91A4.63,4.63,0,0,1,341,1283.93Zm-4,.1a1.79,1.79,0,0,0-.54-1.37,5.35,5.35,0,0,0-1.42-.92,5.89,5.89,0,0,0-.61.36,2.39,2.39,0,0,0-.49.44,1.82,1.82,0,0,0-.32.59,2.46,2.46,0,0,0-.12.79,1.55,1.55,0,0,0,.49,1.18,1.84,1.84,0,0,0,1.31.46,1.86,1.86,0,0,0,1.21-.39A1.4,1.4,0,0,0,337,1284Zm-.39-7.37a1.45,1.45,0,0,0-.36-1,1.29,1.29,0,0,0-1-.41,1.23,1.23,0,0,0-.93.35,1.3,1.3,0,0,0-.33.94,1.64,1.64,0,0,0,.48,1.13,3.75,3.75,0,0,0,1.29.87,2.09,2.09,0,0,0,.68-.82A2.74,2.74,0,0,0,336.6,1276.66Z" transform="translate(-288.09 -1271.91)"/><path class="cls-1" d="M350.43,1276.28a4.69,4.69,0,0,1-1,3.16,3.59,3.59,0,0,1-2.88,1.18,3.54,3.54,0,0,1-2.89-1.18,4.8,4.8,0,0,1-1-3.16,4.7,4.7,0,0,1,1-3.2,3.66,3.66,0,0,1,2.91-1.1,3.72,3.72,0,0,1,2.88,1.1A4.56,4.56,0,0,1,350.43,1276.28Zm-.94,12.4h-3.82l8.88-16.58h3.77Zm-2.23-12.39q0-.34,0-.67a3.5,3.5,0,0,0-.09-.61,1,1,0,0,0-.21-.43.47.47,0,0,0-.37-.16q-.4,0-.56.57a4.77,4.77,0,0,0-.16,1.3,6.75,6.75,0,0,0,0,.69,2.78,2.78,0,0,0,.13.62,1.27,1.27,0,0,0,.23.43.44.44,0,0,0,.35.16c.26,0,.44-.19.54-.58A5.62,5.62,0,0,0,347.25,1276.29Zm14.1,8.18a4.71,4.71,0,0,1-1,3.16,3.56,3.56,0,0,1-2.87,1.18,3.51,3.51,0,0,1-2.88-1.18,4.82,4.82,0,0,1-1-3.16,4.73,4.73,0,0,1,1-3.2,3.63,3.63,0,0,1,2.89-1.1,3.69,3.69,0,0,1,2.87,1.1A4.58,4.58,0,0,1,361.35,1284.47Zm-3.17,0c0-.23,0-.45,0-.67a3.42,3.42,0,0,0-.09-.61,1,1,0,0,0-.2-.43.45.45,0,0,0-.36-.16q-.39,0-.54.57a4.89,4.89,0,0,0-.16,1.3q0,.34,0,.69a2.85,2.85,0,0,0,.12.62,1.3,1.3,0,0,0,.23.43.43.43,0,0,0,.34.16q.39,0,.52-.58A5.8,5.8,0,0,0,358.18,1284.48Z" transform="translate(-288.09 -1271.91)"/><path class="cls-2" d="M373.77,1288.67l-.21-.92a6.62,6.62,0,0,1-1.26.8,3.73,3.73,0,0,1-1.7.37A3.52,3.52,0,0,1,368,1288a3.48,3.48,0,0,1-.94-2.59,4.17,4.17,0,0,1,.33-1.72,3.33,3.33,0,0,1,.92-1.22,3.91,3.91,0,0,1,1.4-.72,6.21,6.21,0,0,1,1.78-.24h2v-.61a2.37,2.37,0,0,0-.52-1.74,2.41,2.41,0,0,0-1.71-.5,7.49,7.49,0,0,0-1.55.18,9.61,9.61,0,0,0-1.5.44v-1.75a10.66,10.66,0,0,1,1.53-.33,11.69,11.69,0,0,1,1.8-.15,4,4,0,0,1,2.93.93,3.94,3.94,0,0,1,.93,2.89v7.82Zm-.28-5.57h-1.87a3.17,3.17,0,0,0-1.9.49,1.92,1.92,0,0,0-.67,1.66,2.11,2.11,0,0,0,.51,1.53,2.05,2.05,0,0,0,1.54.53,3.06,3.06,0,0,0,1.33-.29,4.74,4.74,0,0,0,1.06-.68Z" transform="translate(-288.09 -1271.91)"/><path class="cls-2" d="M383.13,1287.32a5.34,5.34,0,0,0,1.38-.17,13.71,13.71,0,0,0,1.31-.43v1.66a6.4,6.4,0,0,1-1.35.4,8,8,0,0,1-1.53.15,6.07,6.07,0,0,1-2.38-.43,4.28,4.28,0,0,1-1.64-1.2,5,5,0,0,1-1-1.89,9.3,9.3,0,0,1-.31-2.5,7.73,7.73,0,0,1,.31-2.19,5.62,5.62,0,0,1,1-1.89,4.73,4.73,0,0,1,1.62-1.32,5.06,5.06,0,0,1,2.31-.5,8.93,8.93,0,0,1,1.4.1,8.46,8.46,0,0,1,1.38.36v1.77a8.25,8.25,0,0,0-1.21-.44,5.33,5.33,0,0,0-1.44-.18,3.11,3.11,0,0,0-1.53.35,3.07,3.07,0,0,0-1,.95,4,4,0,0,0-.6,1.38,7.26,7.26,0,0,0-.18,1.67,7.51,7.51,0,0,0,.17,1.62,4,4,0,0,0,.58,1.38,3,3,0,0,0,1.07,1A3.48,3.48,0,0,0,383.13,1287.32Z" transform="translate(-288.09 -1271.91)"/><path class="cls-2" d="M389.87,1279.15a4.58,4.58,0,0,1,1.3-1.48A3,3,0,0,1,393,1277a5.41,5.41,0,0,1,.71.05v1.56l-.32,0h-.32a3.71,3.71,0,0,0-1.64.41,5.65,5.65,0,0,0-1.55,1.15v8.49H388v-11.36h1.66Z" transform="translate(-288.09 -1271.91)"/><path class="cls-2" d="M404.29,1283a9.15,9.15,0,0,1-.28,2.29,5.48,5.48,0,0,1-.87,1.89,4.27,4.27,0,0,1-1.52,1.29,5.48,5.48,0,0,1-4.45,0,4.23,4.23,0,0,1-1.53-1.29,5.44,5.44,0,0,1-.87-1.89,9.47,9.47,0,0,1,0-4.54,5.7,5.7,0,0,1,.86-1.91,4.19,4.19,0,0,1,1.52-1.31,5.44,5.44,0,0,1,4.49,0,4.19,4.19,0,0,1,1.52,1.31,5.72,5.72,0,0,1,.86,1.91A9.11,9.11,0,0,1,404.29,1283Zm-2,0a11.88,11.88,0,0,0-.1-1.56,4,4,0,0,0-.43-1.38,2.68,2.68,0,0,0-.9-1,3.14,3.14,0,0,0-3,0,2.72,2.72,0,0,0-.89,1,4,4,0,0,0-.43,1.38,11.88,11.88,0,0,0-.1,1.56,11.12,11.12,0,0,0,.12,1.62,4.34,4.34,0,0,0,.44,1.4,2.61,2.61,0,0,0,.88,1,2.67,2.67,0,0,0,1.48.37,2.72,2.72,0,0,0,1.49-.37,2.49,2.49,0,0,0,.89-1,4.54,4.54,0,0,0,.43-1.4A11.25,11.25,0,0,0,402.31,1282.95Z" transform="translate(-288.09 -1271.91)"/><path class="cls-2" d="M412.87,1285.52a3.58,3.58,0,0,1-.3,1.52,2.88,2.88,0,0,1-.82,1.06,3.54,3.54,0,0,1-1.2.62,5,5,0,0,1-1.46.21,8.71,8.71,0,0,1-1.64-.16,7.52,7.52,0,0,1-1.62-.51v-1.75a11.91,11.91,0,0,0,1.47.56,5.41,5.41,0,0,0,1.62.24,2.62,2.62,0,0,0,1.41-.35,1.29,1.29,0,0,0,.56-1.19,1.51,1.51,0,0,0-.36-1,3.9,3.9,0,0,0-.88-.73,12.56,12.56,0,0,0-1.14-.62,6.67,6.67,0,0,1-1.14-.7,3.5,3.5,0,0,1-.88-1,2.92,2.92,0,0,1-.36-1.52,3,3,0,0,1,.28-1.3,2.85,2.85,0,0,1,.76-1,3.48,3.48,0,0,1,1.15-.62,4.63,4.63,0,0,1,1.45-.22,7.44,7.44,0,0,1,2.78.55v1.82a12.15,12.15,0,0,0-1.25-.53,4.15,4.15,0,0,0-1.41-.23,2.18,2.18,0,0,0-1.28.35,1.17,1.17,0,0,0-.5,1,1.39,1.39,0,0,0,.35,1,3.79,3.79,0,0,0,.88.7q.53.31,1.15.61a6.28,6.28,0,0,1,1.15.71,3.54,3.54,0,0,1,.88,1A2.93,2.93,0,0,1,412.87,1285.52Z" transform="translate(-288.09 -1271.91)"/><path class="cls-2" d="M421.45,1285.52a3.58,3.58,0,0,1-.3,1.52,2.88,2.88,0,0,1-.82,1.06,3.54,3.54,0,0,1-1.2.62,5,5,0,0,1-1.46.21,8.71,8.71,0,0,1-1.64-.16,7.52,7.52,0,0,1-1.62-.51v-1.75a11.91,11.91,0,0,0,1.47.56,5.41,5.41,0,0,0,1.62.24,2.62,2.62,0,0,0,1.41-.35,1.29,1.29,0,0,0,.56-1.19,1.51,1.51,0,0,0-.36-1,3.9,3.9,0,0,0-.88-.73,12.56,12.56,0,0,0-1.14-.62,6.67,6.67,0,0,1-1.14-.7,3.5,3.5,0,0,1-.88-1,2.92,2.92,0,0,1-.36-1.52,3,3,0,0,1,.28-1.3,2.85,2.85,0,0,1,.76-1,3.48,3.48,0,0,1,1.15-.62,4.63,4.63,0,0,1,1.45-.22,7.44,7.44,0,0,1,2.78.55v1.82a12.15,12.15,0,0,0-1.25-.53,4.15,4.15,0,0,0-1.41-.23,2.18,2.18,0,0,0-1.28.35,1.17,1.17,0,0,0-.5,1,1.39,1.39,0,0,0,.35,1,3.79,3.79,0,0,0,.88.7q.53.31,1.15.61a6.28,6.28,0,0,1,1.15.71,3.54,3.54,0,0,1,.88,1A2.93,2.93,0,0,1,421.45,1285.52Z" transform="translate(-288.09 -1271.91)"/><path class="cls-2" d="M431.13,1277.31h3v1.61h-3v6.71a1.91,1.91,0,0,0,.36,1.28,1.61,1.61,0,0,0,1.25.4,4.36,4.36,0,0,0,.94-.09,4.9,4.9,0,0,0,.8-.25v1.61a4.9,4.9,0,0,1-1,.26,7.73,7.73,0,0,1-1.09.08,3.4,3.4,0,0,1-2.37-.7,3,3,0,0,1-.76-2.29v-7h-2.14v-1.61h2.14v-3.06h1.91Z" transform="translate(-288.09 -1271.91)"/><path class="cls-2" d="M445.16,1288.67h-1.91v-7.74a2.71,2.71,0,0,0-.46-1.71,2,2,0,0,0-1.63-.58,2.55,2.55,0,0,0-1.37.43,6.52,6.52,0,0,0-1.35,1.16v8.44h-1.91v-16.58h1.91v6.58a7.24,7.24,0,0,1,1.41-1.13,3.66,3.66,0,0,1,2-.51,3.28,3.28,0,0,1,2.46.9,3.41,3.41,0,0,1,.87,2.48Z" transform="translate(-288.09 -1271.91)"/><path class="cls-2" d="M449.55,1283.55a5.46,5.46,0,0,0,.18,1.43,3.47,3.47,0,0,0,.58,1.21,2.77,2.77,0,0,0,1.05.83,3.75,3.75,0,0,0,1.59.3,7.43,7.43,0,0,0,3.19-.78v1.66a6.5,6.5,0,0,1-1.69.55,9.75,9.75,0,0,1-1.85.18,5.41,5.41,0,0,1-2.27-.44,4.21,4.21,0,0,1-1.58-1.22,5,5,0,0,1-.91-1.87,9.55,9.55,0,0,1-.29-2.43,8.84,8.84,0,0,1,.29-2.28,5.64,5.64,0,0,1,.87-1.89,4.42,4.42,0,0,1,1.47-1.29,4.28,4.28,0,0,1,2.08-.48,4,4,0,0,1,2,.45,3.78,3.78,0,0,1,1.31,1.2,5,5,0,0,1,.72,1.74,9.47,9.47,0,0,1,.22,2v.62a4.53,4.53,0,0,1,0,.46Zm5-1.61a8.29,8.29,0,0,0-.09-1.22,2.9,2.9,0,0,0-.36-1.05,2,2,0,0,0-.75-.73,2.46,2.46,0,0,0-1.24-.28,2.1,2.1,0,0,0-1,.26,2.45,2.45,0,0,0-.78.69,3.43,3.43,0,0,0-.52,1,4.87,4.87,0,0,0-.21,1.3Z" transform="translate(-288.09 -1271.91)"/><path class="cls-1" d="M293.17,1304.31h2.92v2.35h-2.92v5.3a1.72,1.72,0,0,0,.34,1.24,1.5,1.5,0,0,0,1.08.33,5.37,5.37,0,0,0,1.79-.3v2.35a10.17,10.17,0,0,1-1.17.25,9.45,9.45,0,0,1-1.4.09,3.54,3.54,0,0,1-2.63-.92,3.6,3.6,0,0,1-.91-2.65v-5.7h-2.18v-2.35h2.18v-3.06h2.9Z" transform="translate(-288.09 -1271.91)"/><path class="cls-1" d="M307.38,1310a8.93,8.93,0,0,1-.29,2.3,5.28,5.28,0,0,1-.91,1.89,4.42,4.42,0,0,1-1.59,1.28,5.25,5.25,0,0,1-2.32.47,5.19,5.19,0,0,1-2.3-.47,4.41,4.41,0,0,1-1.59-1.28,5.28,5.28,0,0,1-.91-1.89,8.93,8.93,0,0,1-.29-2.3,9.19,9.19,0,0,1,.28-2.28,5.35,5.35,0,0,1,.89-1.9,4.38,4.38,0,0,1,1.58-1.3,5.94,5.94,0,0,1,4.69,0,4.48,4.48,0,0,1,1.59,1.3,5.24,5.24,0,0,1,.9,1.9A9.19,9.19,0,0,1,307.38,1310Zm-3,0a12,12,0,0,0-.07-1.32,3.45,3.45,0,0,0-.3-1.12,2,2,0,0,0-.64-.78,1.89,1.89,0,0,0-1.13-.3,1.85,1.85,0,0,0-1.1.3,1.92,1.92,0,0,0-.63.78,3.86,3.86,0,0,0-.3,1.12,10.47,10.47,0,0,0-.08,1.32,10.74,10.74,0,0,0,.08,1.33,4.18,4.18,0,0,0,.3,1.15,1.9,1.9,0,0,0,.63.8,1.85,1.85,0,0,0,1.1.3,1.9,1.9,0,0,0,1.12-.3,1.86,1.86,0,0,0,.64-.8,4.21,4.21,0,0,0,.3-1.15A10.93,10.93,0,0,0,304.42,1309.95Z" transform="translate(-288.09 -1271.91)"/><path class="cls-1" d="M319.48,1309.76a11.36,11.36,0,0,1-.22,2.21,6.38,6.38,0,0,1-.74,2,4.08,4.08,0,0,1-1.38,1.43,3.93,3.93,0,0,1-2.13.54,3.8,3.8,0,0,1-1.47-.25,3.14,3.14,0,0,1-1.06-.74v4.65h-2.9v-15.27h2.55l.23,1.06a4.09,4.09,0,0,1,1.26-.94,3.7,3.7,0,0,1,1.68-.39,3.85,3.85,0,0,1,2,.47,3.7,3.7,0,0,1,1.28,1.25,5.48,5.48,0,0,1,.69,1.83A11.21,11.21,0,0,1,319.48,1309.76Zm-3,.07a8.89,8.89,0,0,0-.08-1.18,3.61,3.61,0,0,0-.32-1.1,2.2,2.2,0,0,0-.66-.81,1.71,1.71,0,0,0-1.06-.31,2.89,2.89,0,0,0-1,.18,3.5,3.5,0,0,0-.9.51v5.66a3.77,3.77,0,0,0,.81.54,2.23,2.23,0,0,0,1,.22,1.75,1.75,0,0,0,1.12-.33,2.4,2.4,0,0,0,.68-.87,4.11,4.11,0,0,0,.34-1.19A9.43,9.43,0,0,0,316.51,1309.83Z" transform="translate(-288.09 -1271.91)"/><path class="cls-1" d="M333,1313.19h3.4v2.48h-9.75v-2.48h3.4v-11.62l-3.4,1v-2.48l4.19-1H333Z" transform="translate(-288.09 -1271.91)"/><path class="cls-1" d="M338.25,1318.8a14.31,14.31,0,0,0,1.17-1.48,9.16,9.16,0,0,0,.87-1.58,1.84,1.84,0,0,1-1-.55,1.64,1.64,0,0,1-.41-1.17,1.83,1.83,0,0,1,.55-1.37,2.31,2.31,0,0,1,3,0,2,2,0,0,1,.53,1.38,4.5,4.5,0,0,1-.18,1.24,8.79,8.79,0,0,1-.47,1.26,10.07,10.07,0,0,1-.66,1.2,12.17,12.17,0,0,1-.74,1Z" transform="translate(-288.09 -1271.91)"/><path class="cls-1" d="M356.4,1307.42a18.79,18.79,0,0,1-.26,3.17,8.81,8.81,0,0,1-.91,2.73,5.18,5.18,0,0,1-1.74,1.9,4.89,4.89,0,0,1-2.73.71,4.79,4.79,0,0,1-2.69-.71,5.3,5.3,0,0,1-1.74-1.9,8.77,8.77,0,0,1-.93-2.73,18.5,18.5,0,0,1,0-6.37,8.62,8.62,0,0,1,.93-2.71,5.34,5.34,0,0,1,1.74-1.89,4.79,4.79,0,0,1,2.69-.71,4.84,4.84,0,0,1,2.71.71,5.35,5.35,0,0,1,1.74,1.89,8.47,8.47,0,0,1,.92,2.71A18.93,18.93,0,0,1,356.4,1307.42Zm-3.06,0q0-1-.07-2a8.87,8.87,0,0,0-.33-1.94,4,4,0,0,0-.77-1.47,2,2,0,0,0-2.79,0,3.84,3.84,0,0,0-.78,1.47,8.76,8.76,0,0,0-.33,1.94q-.07,1.06-.07,2t.08,1.94a9.25,9.25,0,0,0,.34,1.93,4,4,0,0,0,.77,1.47,1.91,1.91,0,0,0,2.76,0,4.08,4.08,0,0,0,.77-1.48,9.23,9.23,0,0,0,.34-1.92Q353.34,1308.36,353.34,1307.46Z" transform="translate(-288.09 -1271.91)"/><path class="cls-1" d="M369.62,1307.42a18.79,18.79,0,0,1-.26,3.17,8.81,8.81,0,0,1-.91,2.73,5.18,5.18,0,0,1-1.74,1.9,4.89,4.89,0,0,1-2.73.71,4.79,4.79,0,0,1-2.69-.71,5.3,5.3,0,0,1-1.74-1.9,8.77,8.77,0,0,1-.93-2.73,18.5,18.5,0,0,1,0-6.37,8.62,8.62,0,0,1,.93-2.71,5.34,5.34,0,0,1,1.74-1.89,4.79,4.79,0,0,1,2.69-.71,4.84,4.84,0,0,1,2.71.71,5.35,5.35,0,0,1,1.74,1.89,8.47,8.47,0,0,1,.92,2.71A18.93,18.93,0,0,1,369.62,1307.42Zm-3.06,0q0-1-.07-2a8.87,8.87,0,0,0-.33-1.94,4,4,0,0,0-.77-1.47,2,2,0,0,0-2.79,0,3.84,3.84,0,0,0-.78,1.47,8.76,8.76,0,0,0-.33,1.94q-.07,1.06-.07,2t.08,1.94a9.25,9.25,0,0,0,.34,1.93,4,4,0,0,0,.77,1.47,1.91,1.91,0,0,0,2.76,0,4.08,4.08,0,0,0,.77-1.48,9.23,9.23,0,0,0,.34-1.92Q366.56,1308.36,366.56,1307.46Z" transform="translate(-288.09 -1271.91)"/><path class="cls-1" d="M382.84,1307.42a18.79,18.79,0,0,1-.26,3.17,8.81,8.81,0,0,1-.91,2.73,5.18,5.18,0,0,1-1.74,1.9,4.89,4.89,0,0,1-2.73.71,4.79,4.79,0,0,1-2.69-.71,5.3,5.3,0,0,1-1.74-1.9,8.77,8.77,0,0,1-.93-2.73,18.5,18.5,0,0,1,0-6.37,8.62,8.62,0,0,1,.93-2.71,5.34,5.34,0,0,1,1.74-1.89,4.79,4.79,0,0,1,2.69-.71,4.84,4.84,0,0,1,2.71.71,5.35,5.35,0,0,1,1.74,1.89,8.47,8.47,0,0,1,.92,2.71A18.93,18.93,0,0,1,382.84,1307.42Zm-3.06,0q0-1-.07-2a8.87,8.87,0,0,0-.33-1.94,4,4,0,0,0-.77-1.47,2,2,0,0,0-2.79,0,3.84,3.84,0,0,0-.78,1.47,8.76,8.76,0,0,0-.33,1.94q-.07,1.06-.07,2t.08,1.94a9.25,9.25,0,0,0,.34,1.93,4,4,0,0,0,.77,1.47,1.91,1.91,0,0,0,2.76,0,4.08,4.08,0,0,0,.77-1.48,9.23,9.23,0,0,0,.34-1.92Q379.79,1308.36,379.78,1307.46Z" transform="translate(-288.09 -1271.91)"/><path class="cls-1" d="M395,1315.67l-.23-1a5.9,5.9,0,0,1-1.09.85,3,3,0,0,1-1.62.39,3.22,3.22,0,0,1-2.49-1,3.79,3.79,0,0,1-.91-2.68,3.87,3.87,0,0,1,.37-1.76,3,3,0,0,1,1-1.16,4.37,4.37,0,0,1,1.49-.63,8,8,0,0,1,1.79-.2h1.26v-.64a1.28,1.28,0,0,0-.47-1.09,2.05,2.05,0,0,0-1.27-.36,8.41,8.41,0,0,0-1.59.16,11.41,11.41,0,0,0-1.57.41v-2.44l.81-.2c.31-.07.62-.13,1-.17l1-.11q.51,0,.92,0a3.62,3.62,0,0,1,4.14,4.09v7.54Zm-.39-5.13h-1a2.35,2.35,0,0,0-1.4.38,1.32,1.32,0,0,0-.52,1.15,1.65,1.65,0,0,0,.33,1,1.24,1.24,0,0,0,1.05.43,2.13,2.13,0,0,0,.88-.17,5.18,5.18,0,0,0,.7-.38Z" transform="translate(-288.09 -1271.91)"/><path class="cls-1" d="M405.31,1313.54a6.21,6.21,0,0,0,1.36-.13A12.81,12.81,0,0,0,408,1313v2.42a6.91,6.91,0,0,1-1.48.37,11.7,11.7,0,0,1-1.62.12,6.06,6.06,0,0,1-2.38-.43,4.43,4.43,0,0,1-1.67-1.21,5,5,0,0,1-1-1.9,8.9,8.9,0,0,1-.32-2.47,7.62,7.62,0,0,1,.34-2.32,5.25,5.25,0,0,1,1-1.87,4.77,4.77,0,0,1,1.71-1.24A5.89,5.89,0,0,1,405,1304a10.23,10.23,0,0,1,1.46.09,11,11,0,0,1,1.37.3v2.48q-.67-.23-1.21-.36a5,5,0,0,0-1.14-.13,2.74,2.74,0,0,0-2.23.91,3.69,3.69,0,0,0-.76,2.45,7.08,7.08,0,0,0,.15,1.5,3.44,3.44,0,0,0,.48,1.19,2.3,2.3,0,0,0,.87.78A2.9,2.9,0,0,0,405.31,1313.54Z" transform="translate(-288.09 -1271.91)"/><path class="cls-1" d="M414.9,1313.54a6.21,6.21,0,0,0,1.36-.13,12.81,12.81,0,0,0,1.29-.38v2.42a6.91,6.91,0,0,1-1.48.37,11.7,11.7,0,0,1-1.62.12,6.06,6.06,0,0,1-2.38-.43,4.43,4.43,0,0,1-1.67-1.21,5,5,0,0,1-1-1.9,8.9,8.9,0,0,1-.32-2.47,7.62,7.62,0,0,1,.34-2.32,5.25,5.25,0,0,1,1-1.87,4.77,4.77,0,0,1,1.71-1.24,5.89,5.89,0,0,1,2.38-.45,10.23,10.23,0,0,1,1.46.09,11,11,0,0,1,1.37.3v2.48q-.67-.23-1.21-.36a5,5,0,0,0-1.14-.13,2.74,2.74,0,0,0-2.23.91,3.69,3.69,0,0,0-.76,2.45,7.08,7.08,0,0,0,.15,1.5,3.44,3.44,0,0,0,.48,1.19,2.3,2.3,0,0,0,.87.78A2.9,2.9,0,0,0,414.9,1313.54Z" transform="translate(-288.09 -1271.91)"/><path class="cls-1" d="M428.86,1310a8.93,8.93,0,0,1-.29,2.3,5.28,5.28,0,0,1-.91,1.89,4.42,4.42,0,0,1-1.59,1.28,5.25,5.25,0,0,1-2.32.47,5.19,5.19,0,0,1-2.3-.47,4.41,4.41,0,0,1-1.59-1.28,5.28,5.28,0,0,1-.91-1.89,8.93,8.93,0,0,1-.29-2.3,9.19,9.19,0,0,1,.28-2.28,5.35,5.35,0,0,1,.89-1.9,4.38,4.38,0,0,1,1.58-1.3,5.94,5.94,0,0,1,4.69,0,4.48,4.48,0,0,1,1.59,1.3,5.24,5.24,0,0,1,.9,1.9A9.19,9.19,0,0,1,428.86,1310Zm-3,0a12,12,0,0,0-.07-1.32,3.45,3.45,0,0,0-.3-1.12,2,2,0,0,0-.64-.78,1.89,1.89,0,0,0-1.13-.3,1.85,1.85,0,0,0-1.1.3,1.92,1.92,0,0,0-.63.78,3.86,3.86,0,0,0-.3,1.12,10.47,10.47,0,0,0-.08,1.32,10.74,10.74,0,0,0,.08,1.33,4.18,4.18,0,0,0,.3,1.15,1.9,1.9,0,0,0,.63.8,1.85,1.85,0,0,0,1.1.3,1.9,1.9,0,0,0,1.12-.3,1.86,1.86,0,0,0,.64-.8,4.21,4.21,0,0,0,.3-1.15A10.93,10.93,0,0,0,425.9,1309.95Z" transform="translate(-288.09 -1271.91)"/><path class="cls-1" d="M431,1304.31h2.9v7.52a2.1,2.1,0,0,0,.31,1.28,1.36,1.36,0,0,0,1.14.4,2.17,2.17,0,0,0,1-.24,4.76,4.76,0,0,0,.89-.59v-8.37h2.9v11.36h-2.6l-.23-1.22a5.07,5.07,0,0,1-1.25,1,3.29,3.29,0,0,1-1.71.47,3.24,3.24,0,0,1-2.48-.91,3.72,3.72,0,0,1-.85-2.63Z" transform="translate(-288.09 -1271.91)"/><path class="cls-1" d="M445.82,1305.51a5.09,5.09,0,0,1,1.29-1,3.4,3.4,0,0,1,1.72-.44,3,3,0,0,1,2.45,1,3.86,3.86,0,0,1,.84,2.55v8.07h-2.9v-7.54a2.52,2.52,0,0,0-.26-1.25,1.13,1.13,0,0,0-1.07-.46,2.49,2.49,0,0,0-1,.23,4.15,4.15,0,0,0-1,.62v8.4H443v-11.36h2.6Z" transform="translate(-288.09 -1271.91)"/><path class="cls-1" d="M458.65,1304.31h2.92v2.35h-2.92v5.3a1.72,1.72,0,0,0,.34,1.24,1.5,1.5,0,0,0,1.08.33,5.37,5.37,0,0,0,1.79-.3v2.35a10.17,10.17,0,0,1-1.17.25,9.45,9.45,0,0,1-1.4.09,3.54,3.54,0,0,1-2.63-.92,3.6,3.6,0,0,1-.91-2.65v-5.7h-2.18v-2.35h2.18v-3.06h2.9Z" transform="translate(-288.09 -1271.91)"/><path class="cls-1" d="M465.85,1307.36a.85.85,0,0,0,.35.71,4.36,4.36,0,0,0,.86.51l1.11.5a5.38,5.38,0,0,1,1.11.67,3.43,3.43,0,0,1,.86,1,3,3,0,0,1,.35,1.51,3.35,3.35,0,0,1-1.14,2.67,4.56,4.56,0,0,1-3.09,1,10.7,10.7,0,0,1-1.61-.13,7.19,7.19,0,0,1-1.7-.49v-2.58a7.43,7.43,0,0,0,3.13.8,2.2,2.2,0,0,0,1-.22.83.83,0,0,0,.41-.81,1,1,0,0,0-.34-.8,3.73,3.73,0,0,0-.86-.54q-.51-.24-1.12-.49a5.23,5.23,0,0,1-1.12-.63,3.17,3.17,0,0,1-.86-1,3.06,3.06,0,0,1-.34-1.54,3.22,3.22,0,0,1,1.17-2.55,3.85,3.85,0,0,1,1.3-.7A5.24,5.24,0,0,1,467,1304a10.74,10.74,0,0,1,1.46.1,6.59,6.59,0,0,1,1.51.4v2.53a12.12,12.12,0,0,0-1.43-.48,4.85,4.85,0,0,0-1.21-.16,2.23,2.23,0,0,0-1.05.22A.75.75,0,0,0,465.85,1307.36Z" transform="translate(-288.09 -1271.91)"/><path class="cls-1" d="M476.52,1314a1.85,1.85,0,0,1-.55,1.36,2.05,2.05,0,0,1-1.52.55,2.08,2.08,0,0,1-1.46-.52,2,2,0,0,1,0-2.77,2,2,0,0,1,1.46-.53,2.17,2.17,0,0,1,1.47.52A1.75,1.75,0,0,1,476.52,1314Z" transform="translate(-288.09 -1271.91)"/></svg>