<svg id="text" xmlns="http://www.w3.org/2000/svg" viewBox="0 0 361.54 31.71"><defs><style>.cls-1{fill:#004796;}</style></defs><path class="cls-1" d="M563.78,2366.73l3.36-13.58h4l3.75,14,3.57-18.06h4.69l-5.74,25.24h-4.27l-4-14.84-4,14.84h-4.2l-5.71-25.24h4.69Z" transform="translate(-555.24 -2348.78)"/><path class="cls-1" d="M587.93,2367.08a4.59,4.59,0,0,0,1.26,2.84,4.28,4.28,0,0,0,3.2,1.11,9.4,9.4,0,0,0,2.44-.3,21.38,21.38,0,0,0,2.34-.79v3.71a10.28,10.28,0,0,1-2.42.75,15,15,0,0,1-2.83.26,10.55,10.55,0,0,1-3.9-.65,6.59,6.59,0,0,1-2.64-1.84,7.46,7.46,0,0,1-1.49-2.85,13.64,13.64,0,0,1-.47-3.73,12.64,12.64,0,0,1,.45-3.41,9.05,9.05,0,0,1,1.37-2.89,6.54,6.54,0,0,1,2.33-2,7.26,7.26,0,0,1,3.38-.73,6.77,6.77,0,0,1,3.19.68,6,6,0,0,1,2.12,1.84,7.47,7.47,0,0,1,1.17,2.66,13.92,13.92,0,0,1,.35,3.15c0,.35,0,.75,0,1.19s0,.77-.05,1Zm5.25-3.08a8.91,8.91,0,0,0-.12-1.48,3.59,3.59,0,0,0-.42-1.2,2.17,2.17,0,0,0-.82-.81,2.64,2.64,0,0,0-1.31-.29,2.08,2.08,0,0,0-1.15.31,2.53,2.53,0,0,0-.8.83,4.15,4.15,0,0,0-.48,1.2,7.52,7.52,0,0,0-.2,1.44Z" transform="translate(-555.24 -2348.78)"/><path class="cls-1" d="M599.2,2358.26a17,17,0,0,0,1.43-1.94,16.17,16.17,0,0,0,1.08-2,2.81,2.81,0,0,1-1.58-.84,2.49,2.49,0,0,1-.63-1.79,2.79,2.79,0,0,1,.84-2.08,3.07,3.07,0,0,1,2.24-.82,3,3,0,0,1,2.34.88,3,3,0,0,1,.81,2.1,8.12,8.12,0,0,1-.79,3.38,18,18,0,0,1-1.8,3.13Z" transform="translate(-555.24 -2348.78)"/><path class="cls-1" d="M616.09,2369.5l3.73-12.5h4.41l-5.93,17.29h-4.62L607.85,2357h4.41Z" transform="translate(-555.24 -2348.78)"/><path class="cls-1" d="M629.93,2367.08a4.59,4.59,0,0,0,1.26,2.84,4.28,4.28,0,0,0,3.2,1.11,9.4,9.4,0,0,0,2.44-.3,21.38,21.38,0,0,0,2.34-.79v3.71a10.28,10.28,0,0,1-2.42.75,15,15,0,0,1-2.83.26,10.55,10.55,0,0,1-3.9-.65,6.59,6.59,0,0,1-2.64-1.84,7.46,7.46,0,0,1-1.49-2.85,13.64,13.64,0,0,1-.47-3.73,12.64,12.64,0,0,1,.45-3.41,9.05,9.05,0,0,1,1.37-2.89,6.54,6.54,0,0,1,2.33-2,7.26,7.26,0,0,1,3.38-.73,6.77,6.77,0,0,1,3.19.68,6,6,0,0,1,2.12,1.84,7.47,7.47,0,0,1,1.17,2.66,13.92,13.92,0,0,1,.35,3.15c0,.35,0,.75,0,1.19s0,.77-.05,1Zm5.25-3.08a8.91,8.91,0,0,0-.12-1.48,3.59,3.59,0,0,0-.42-1.2,2.17,2.17,0,0,0-.82-.81,2.64,2.64,0,0,0-1.31-.29,2.08,2.08,0,0,0-1.15.31,2.53,2.53,0,0,0-.8.83,4.15,4.15,0,0,0-.48,1.2,7.52,7.52,0,0,0-.2,1.44Z" transform="translate(-555.24 -2348.78)"/><path class="cls-1" d="M663.22,2374.29h-4.41v-11.47a3.81,3.81,0,0,0-.4-1.92q-.4-.69-1.73-.69a3,3,0,0,0-1.42.38,8.12,8.12,0,0,0-1.35.91v12.78H649.5V2357h3.92l.35,1.85a8.19,8.19,0,0,1,1.94-1.59,5,5,0,0,1,2.61-.68,4.58,4.58,0,0,1,2.43.63,5,5,0,0,1,1.66,1.64,9.86,9.86,0,0,1,2.12-1.61,5.48,5.48,0,0,1,2.75-.67,5,5,0,0,1,3.94,1.47,5.72,5.72,0,0,1,1.31,4v12.29h-4.41v-11.47a3.67,3.67,0,0,0-.42-1.92,1.78,1.78,0,0,0-1.65-.69,3.7,3.7,0,0,0-1.47.33,6.37,6.37,0,0,0-1.4.82,2.67,2.67,0,0,1,0,.42v12.49Z" transform="translate(-555.24 -2348.78)"/><path class="cls-1" d="M685.3,2374.29l-.35-1.5a9.06,9.06,0,0,1-1.66,1.29,4.6,4.6,0,0,1-2.46.59,4.9,4.9,0,0,1-3.78-1.49,5.77,5.77,0,0,1-1.38-4.08,5.87,5.87,0,0,1,.56-2.68,4.62,4.62,0,0,1,1.53-1.77,6.62,6.62,0,0,1,2.27-1,12.07,12.07,0,0,1,2.72-.3h1.92v-1a2,2,0,0,0-.71-1.66,3.12,3.12,0,0,0-1.93-.54,12.84,12.84,0,0,0-2.42.25,17.27,17.27,0,0,0-2.39.63v-3.71l1.22-.3q.7-.16,1.45-.26c.5-.07,1-.13,1.52-.18s1-.07,1.4-.07a5.5,5.5,0,0,1,6.3,6.23v11.48Zm-.59-7.81h-1.59a3.58,3.58,0,0,0-2.14.57,2,2,0,0,0-.79,1.75,2.51,2.51,0,0,0,.5,1.58,1.89,1.89,0,0,0,1.6.65,3.26,3.26,0,0,0,1.34-.26,7.71,7.71,0,0,0,1.07-.58Z" transform="translate(-555.24 -2348.78)"/><path class="cls-1" d="M707.18,2374.29h-3.82l-.35-1.47a6.2,6.2,0,0,1-1.73,1.31,5.36,5.36,0,0,1-2.53.54,6.05,6.05,0,0,1-3.1-.74,5.9,5.9,0,0,1-2-2,8.74,8.74,0,0,1-1.13-2.89,16.62,16.62,0,0,1-.35-3.47,13.76,13.76,0,0,1,.4-3.31,9.1,9.1,0,0,1,1.26-2.91,6.56,6.56,0,0,1,2.18-2,6.22,6.22,0,0,1,3.17-.77,4.53,4.53,0,0,1,2.15.46,6,6,0,0,1,1.45,1v-9h4.45Zm-4.41-13.23a5.09,5.09,0,0,0-1.11-.59,4.22,4.22,0,0,0-1.53-.25,3.14,3.14,0,0,0-1.69.42,3.08,3.08,0,0,0-1.08,1.15,5.16,5.16,0,0,0-.56,1.69,13.55,13.55,0,0,0,0,4.1,6.1,6.1,0,0,0,.54,1.76,3.17,3.17,0,0,0,1,1.23,2.93,2.93,0,0,0,1.71.46,4.19,4.19,0,0,0,1.46-.25,5.46,5.46,0,0,0,1.22-.63Z" transform="translate(-555.24 -2348.78)"/><path class="cls-1" d="M715.09,2367.08a4.59,4.59,0,0,0,1.26,2.84,4.28,4.28,0,0,0,3.2,1.11,9.4,9.4,0,0,0,2.44-.3,21.38,21.38,0,0,0,2.34-.79v3.71a10.28,10.28,0,0,1-2.42.75,15,15,0,0,1-2.83.26,10.55,10.55,0,0,1-3.9-.65,6.59,6.59,0,0,1-2.64-1.84,7.46,7.46,0,0,1-1.49-2.85,13.64,13.64,0,0,1-.47-3.73,12.64,12.64,0,0,1,.45-3.41,9.05,9.05,0,0,1,1.37-2.89,6.54,6.54,0,0,1,2.33-2,7.26,7.26,0,0,1,3.38-.73,6.77,6.77,0,0,1,3.19.68,6,6,0,0,1,2.12,1.84,7.47,7.47,0,0,1,1.17,2.66,13.92,13.92,0,0,1,.35,3.15c0,.35,0,.75,0,1.19s0,.77-.05,1Zm5.25-3.08a8.91,8.91,0,0,0-.12-1.48,3.59,3.59,0,0,0-.42-1.2,2.17,2.17,0,0,0-.82-.81,2.64,2.64,0,0,0-1.31-.29,2.08,2.08,0,0,0-1.15.31,2.53,2.53,0,0,0-.8.83,4.15,4.15,0,0,0-.48,1.2,7.52,7.52,0,0,0-.2,1.44Z" transform="translate(-555.24 -2348.78)"/><path class="cls-1" d="M743.19,2374.29l-.35-1.5a9.06,9.06,0,0,1-1.66,1.29,4.6,4.6,0,0,1-2.46.59,4.9,4.9,0,0,1-3.78-1.49,5.77,5.77,0,0,1-1.38-4.08,5.87,5.87,0,0,1,.56-2.68,4.62,4.62,0,0,1,1.53-1.77,6.62,6.62,0,0,1,2.27-1,12.07,12.07,0,0,1,2.72-.3h1.92v-1a2,2,0,0,0-.71-1.66,3.12,3.12,0,0,0-1.93-.54,12.84,12.84,0,0,0-2.42.25,17.27,17.27,0,0,0-2.39.63v-3.71l1.22-.3q.7-.16,1.45-.26c.5-.07,1-.13,1.52-.18s1-.07,1.4-.07a5.5,5.5,0,0,1,6.3,6.23v11.48Zm-.59-7.81H741a3.58,3.58,0,0,0-2.14.57,2,2,0,0,0-.79,1.75,2.51,2.51,0,0,0,.5,1.58,1.89,1.89,0,0,0,1.6.65,3.26,3.26,0,0,0,1.34-.26,7.71,7.71,0,0,0,1.07-.58Z" transform="translate(-555.24 -2348.78)"/><path class="cls-1" d="M767,2371.81a6.33,6.33,0,0,1-1.89,1.28,5.78,5.78,0,0,1-2.42.51,5.46,5.46,0,0,1-2.87-.72,6.12,6.12,0,0,1-2-1.87,8.34,8.34,0,0,1-1.14-2.62,12.22,12.22,0,0,1-.37-3,15,15,0,0,1,.35-3.24,8.53,8.53,0,0,1,1.16-2.83,6.14,6.14,0,0,1,2.1-2,6.25,6.25,0,0,1,3.19-.75,5.34,5.34,0,0,1,2.38.46,5.46,5.46,0,0,1,1.61,1.22l.35-1.26h3.92v16.63q0,3.6-2,5.23a8.67,8.67,0,0,1-5.67,1.63,29,29,0,0,1-3-.16,16,16,0,0,1-2.75-.51v-3.71a20.74,20.74,0,0,0,2.5.53,17.88,17.88,0,0,0,2.68.21,5.7,5.7,0,0,0,2.77-.57,2.22,2.22,0,0,0,1-2.13Zm0-10.75a3.85,3.85,0,0,0-1.19-.61,5.09,5.09,0,0,0-1.58-.23,2.88,2.88,0,0,0-1.7.46,3.36,3.36,0,0,0-1,1.18,5.08,5.08,0,0,0-.53,1.64,12,12,0,0,0-.14,1.8,9.64,9.64,0,0,0,.16,1.76,4.64,4.64,0,0,0,.53,1.48,2.77,2.77,0,0,0,2.54,1.41,4.65,4.65,0,0,0,1.58-.26A6.2,6.2,0,0,0,767,2369Z" transform="translate(-555.24 -2348.78)"/><path class="cls-1" d="M779.91,2359.8a6.4,6.4,0,0,1,1.89-2.43,3.82,3.82,0,0,1,2.28-.79,8.45,8.45,0,0,1,.95.05,3.26,3.26,0,0,1,.88.23v3.5a8.08,8.08,0,0,0-1-.12l-.74,0a5.73,5.73,0,0,0-2.19.44,7.2,7.2,0,0,0-1.87,1.1v12.53h-4.41V2357h3.71Z" transform="translate(-555.24 -2348.78)"/><path class="cls-1" d="M791.32,2367.08a4.59,4.59,0,0,0,1.26,2.84,4.28,4.28,0,0,0,3.2,1.11,9.4,9.4,0,0,0,2.44-.3,21.38,21.38,0,0,0,2.34-.79v3.71a10.28,10.28,0,0,1-2.42.75,15,15,0,0,1-2.83.26,10.55,10.55,0,0,1-3.9-.65,6.59,6.59,0,0,1-2.64-1.84,7.46,7.46,0,0,1-1.49-2.85,13.64,13.64,0,0,1-.47-3.73,12.64,12.64,0,0,1,.45-3.41,9.05,9.05,0,0,1,1.37-2.89,6.54,6.54,0,0,1,2.33-2,7.26,7.26,0,0,1,3.38-.73,6.77,6.77,0,0,1,3.19.68,6,6,0,0,1,2.12,1.84,7.47,7.47,0,0,1,1.17,2.66,13.92,13.92,0,0,1,.35,3.15c0,.35,0,.75,0,1.19s0,.77-.05,1Zm5.25-3.08a8.91,8.91,0,0,0-.12-1.48,3.59,3.59,0,0,0-.42-1.2,2.17,2.17,0,0,0-.82-.81,2.64,2.64,0,0,0-1.31-.29,2.08,2.08,0,0,0-1.15.31,2.53,2.53,0,0,0-.8.83,4.15,4.15,0,0,0-.48,1.2,7.52,7.52,0,0,0-.2,1.44Z" transform="translate(-555.24 -2348.78)"/><path class="cls-1" d="M813.12,2374.29l-.35-1.5a9.06,9.06,0,0,1-1.66,1.29,4.6,4.6,0,0,1-2.46.59,4.9,4.9,0,0,1-3.78-1.49,5.77,5.77,0,0,1-1.38-4.08,5.87,5.87,0,0,1,.56-2.68,4.62,4.62,0,0,1,1.53-1.77,6.62,6.62,0,0,1,2.27-1,12.07,12.07,0,0,1,2.72-.3h1.92v-1a2,2,0,0,0-.71-1.66,3.12,3.12,0,0,0-1.93-.54,12.84,12.84,0,0,0-2.42.25,17.27,17.27,0,0,0-2.39.63v-3.71l1.22-.3q.7-.16,1.45-.26c.5-.07,1-.13,1.52-.18s1-.07,1.4-.07a5.5,5.5,0,0,1,6.3,6.23v11.48Zm-.59-7.81h-1.59a3.58,3.58,0,0,0-2.14.57,2,2,0,0,0-.79,1.75,2.51,2.51,0,0,0,.5,1.58,1.89,1.89,0,0,0,1.6.65,3.26,3.26,0,0,0,1.34-.26,7.71,7.71,0,0,0,1.07-.58Z" transform="translate(-555.24 -2348.78)"/><path class="cls-1" d="M826.63,2357h4.45v3.57h-4.45v8.07a2.61,2.61,0,0,0,.53,1.89,2.29,2.29,0,0,0,1.64.51,8.17,8.17,0,0,0,2.73-.46v3.57a15.35,15.35,0,0,1-1.79.39,14.31,14.31,0,0,1-2.13.14,5.39,5.39,0,0,1-4-1.4,5.49,5.49,0,0,1-1.38-4v-8.68H818.9V2357h3.32v-4.66h4.41Z" transform="translate(-555.24 -2348.78)"/><path class="cls-1" d="M843.88,2361.65a1.3,1.3,0,0,0,.53,1.07,6.67,6.67,0,0,0,1.31.78l1.69.77a8.13,8.13,0,0,1,1.69,1,5.18,5.18,0,0,1,1.31,1.54,4.56,4.56,0,0,1,.53,2.29,5.1,5.1,0,0,1-1.73,4.06,6.93,6.93,0,0,1-4.71,1.5,16.26,16.26,0,0,1-2.45-.19,10.94,10.94,0,0,1-2.59-.75v-3.92a11.31,11.31,0,0,0,4.77,1.23,3.35,3.35,0,0,0,1.57-.33,1.27,1.27,0,0,0,.63-1.23,1.52,1.52,0,0,0-.52-1.21,5.66,5.66,0,0,0-1.3-.82q-.78-.36-1.71-.75a7.93,7.93,0,0,1-1.71-1,4.8,4.8,0,0,1-1.3-1.49,4.65,4.65,0,0,1-.52-2.35,4.89,4.89,0,0,1,1.78-3.88,5.88,5.88,0,0,1,2-1.07,8,8,0,0,1,2.47-.37,16.14,16.14,0,0,1,2.22.16,10,10,0,0,1,2.29.61v3.85a18,18,0,0,0-2.18-.74,7.38,7.38,0,0,0-1.84-.25,3.38,3.38,0,0,0-1.6.33A1.14,1.14,0,0,0,843.88,2361.65Z" transform="translate(-555.24 -2348.78)"/><path class="cls-1" d="M860.09,2357h4.45v3.57h-4.45v8.07a2.61,2.61,0,0,0,.53,1.89,2.29,2.29,0,0,0,1.64.51,8.17,8.17,0,0,0,2.73-.46v3.57a15.35,15.35,0,0,1-1.79.39,14.31,14.31,0,0,1-2.13.14,5.39,5.39,0,0,1-4-1.4,5.49,5.49,0,0,1-1.38-4v-8.68h-3.32V2357h3.32v-4.66h4.41Z" transform="translate(-555.24 -2348.78)"/><path class="cls-1" d="M876.26,2374.29l-.35-1.5a9.06,9.06,0,0,1-1.66,1.29,4.6,4.6,0,0,1-2.46.59,4.9,4.9,0,0,1-3.78-1.49,5.77,5.77,0,0,1-1.38-4.08,5.87,5.87,0,0,1,.56-2.68,4.62,4.62,0,0,1,1.53-1.77,6.62,6.62,0,0,1,2.27-1,12.07,12.07,0,0,1,2.72-.3h1.92v-1a2,2,0,0,0-.71-1.66,3.12,3.12,0,0,0-1.93-.54,12.84,12.84,0,0,0-2.42.25,17.27,17.27,0,0,0-2.39.63v-3.71l1.22-.3q.7-.16,1.45-.26c.5-.07,1-.13,1.52-.18s1-.07,1.4-.07a5.5,5.5,0,0,1,6.3,6.23v11.48Zm-.59-7.81h-1.59a3.58,3.58,0,0,0-2.14.57,2,2,0,0,0-.79,1.75,2.51,2.51,0,0,0,.5,1.58,1.89,1.89,0,0,0,1.6.65,3.26,3.26,0,0,0,1.34-.26,7.71,7.71,0,0,0,1.07-.58Z" transform="translate(-555.24 -2348.78)"/><path class="cls-1" d="M888.26,2359.8a6.4,6.4,0,0,1,1.89-2.43,3.82,3.82,0,0,1,2.28-.79,8.45,8.45,0,0,1,.95.05,3.26,3.26,0,0,1,.88.23v3.5a8.08,8.08,0,0,0-1-.12l-.74,0a5.73,5.73,0,0,0-2.19.44,7.2,7.2,0,0,0-1.87,1.1v12.53h-4.41V2357h3.71Z" transform="translate(-555.24 -2348.78)"/><path class="cls-1" d="M903.24,2357h4.45v3.57h-4.45v8.07a2.61,2.61,0,0,0,.53,1.89,2.29,2.29,0,0,0,1.64.51,8.17,8.17,0,0,0,2.73-.46v3.57a15.35,15.35,0,0,1-1.79.39,14.31,14.31,0,0,1-2.13.14,5.39,5.39,0,0,1-4-1.4,5.49,5.49,0,0,1-1.38-4v-8.68h-3.32V2357h3.32v-4.66h4.41Z" transform="translate(-555.24 -2348.78)"/><path class="cls-1" d="M916.79,2371.77a2.81,2.81,0,0,1-.84,2.07,3.12,3.12,0,0,1-2.31.84,3.16,3.16,0,0,1-2.22-.79,3,3,0,0,1,0-4.22,3.12,3.12,0,0,1,2.22-.8,3.3,3.3,0,0,1,2.24.79A2.66,2.66,0,0,1,916.79,2371.77Z" transform="translate(-555.24 -2348.78)"/></svg>