<svg id="text" xmlns="http://www.w3.org/2000/svg" viewBox="0 0 230.66 38.73"><defs><style>.cls-1{fill:#004796;}.cls-2{fill:#3c3c3c;}</style></defs><path class="cls-1" d="M215.49,872.32a5.55,5.55,0,0,1-1.61,4.24,6.38,6.38,0,0,1-4.55,1.52h-1.26v5.47H205V867h4.65a7.56,7.56,0,0,1,2.27.33,5.33,5.33,0,0,1,1.87,1A4.78,4.78,0,0,1,215,870,5.5,5.5,0,0,1,215.49,872.32Zm-3.17,0a2.54,2.54,0,0,0-.86-2.13,3.74,3.74,0,0,0-2.37-.68h-1v6h1a3.6,3.6,0,0,0,2.42-.74A3,3,0,0,0,212.32,872.35Z" transform="translate(-200.23 -866.67)"/><path class="cls-1" d="M220,874a4.21,4.21,0,0,1,1.24-1.6,2.5,2.5,0,0,1,1.49-.52,5.32,5.32,0,0,1,.62,0,2.16,2.16,0,0,1,.58.15v2.3a5.27,5.27,0,0,0-.64-.08h-.48a3.76,3.76,0,0,0-1.44.29,4.75,4.75,0,0,0-1.23.72v8.23h-2.9V872.19h2.44Z" transform="translate(-200.23 -866.67)"/><path class="cls-1" d="M234.72,877.87a8.93,8.93,0,0,1-.29,2.3,5.26,5.26,0,0,1-.91,1.89,4.4,4.4,0,0,1-1.59,1.28,5.25,5.25,0,0,1-2.32.47,5.19,5.19,0,0,1-2.3-.47,4.4,4.4,0,0,1-1.59-1.28,5.26,5.26,0,0,1-.91-1.89,8.91,8.91,0,0,1-.29-2.3,9.17,9.17,0,0,1,.28-2.28,5.34,5.34,0,0,1,.89-1.9,4.37,4.37,0,0,1,1.58-1.3,5.95,5.95,0,0,1,4.69,0,4.48,4.48,0,0,1,1.59,1.3,5.22,5.22,0,0,1,.9,1.9A9.17,9.17,0,0,1,234.72,877.87Zm-3,0a12.24,12.24,0,0,0-.07-1.32,3.47,3.47,0,0,0-.3-1.12,2,2,0,0,0-.64-.78,1.89,1.89,0,0,0-1.13-.3,1.85,1.85,0,0,0-1.1.3,1.92,1.92,0,0,0-.63.78,3.87,3.87,0,0,0-.3,1.12,10.39,10.39,0,0,0-.08,1.32,10.65,10.65,0,0,0,.08,1.33,4.18,4.18,0,0,0,.3,1.15,1.88,1.88,0,0,0,.63.8,1.84,1.84,0,0,0,1.1.3,1.89,1.89,0,0,0,1.12-.3,1.85,1.85,0,0,0,.64-.8,4.21,4.21,0,0,0,.3-1.15A10.75,10.75,0,0,0,231.75,877.83Z" transform="translate(-200.23 -866.67)"/><path class="cls-1" d="M240.94,880.4l2.45-8.21h2.9l-3.9,11.36h-3l-3.83-11.36h2.9Z" transform="translate(-200.23 -866.67)"/><path class="cls-1" d="M247.48,868.33a1.54,1.54,0,0,1,.51-1.2,2.1,2.1,0,0,1,2.62,0,1.54,1.54,0,0,1,.51,1.2,1.51,1.51,0,0,1-.51,1.18,2.14,2.14,0,0,1-2.62,0A1.51,1.51,0,0,1,247.48,868.33Zm3.27,15.23h-2.9V872.19h2.9Z" transform="translate(-200.23 -866.67)"/><path class="cls-1" d="M262.85,883.55h-2.51l-.23-1a4.08,4.08,0,0,1-1.13.86,3.54,3.54,0,0,1-1.66.36,4,4,0,0,1-2-.48,3.88,3.88,0,0,1-1.34-1.3,5.74,5.74,0,0,1-.75-1.9,11,11,0,0,1-.23-2.28,9.05,9.05,0,0,1,.26-2.17,6,6,0,0,1,.83-1.91,4.3,4.3,0,0,1,1.43-1.35,4.09,4.09,0,0,1,2.09-.51,3,3,0,0,1,1.41.3,4,4,0,0,1,1,.69V867h2.92Zm-2.9-8.69a3.37,3.37,0,0,0-.73-.39,2.77,2.77,0,0,0-1-.16,2.06,2.06,0,0,0-1.11.28,2,2,0,0,0-.71.75,3.4,3.4,0,0,0-.37,1.11,8.91,8.91,0,0,0,0,2.7,4,4,0,0,0,.35,1.16,2.09,2.09,0,0,0,.69.81,1.93,1.93,0,0,0,1.12.3,2.74,2.74,0,0,0,1-.16,3.6,3.6,0,0,0,.8-.41Z" transform="translate(-200.23 -866.67)"/><path class="cls-1" d="M265.35,868.33a1.54,1.54,0,0,1,.51-1.2,2.1,2.1,0,0,1,2.62,0,1.54,1.54,0,0,1,.51,1.2,1.51,1.51,0,0,1-.51,1.18,2.14,2.14,0,0,1-2.62,0A1.51,1.51,0,0,1,265.35,868.33Zm3.27,15.23h-2.9V872.19h2.9Z" transform="translate(-200.23 -866.67)"/><path class="cls-1" d="M274.3,873.39a5.12,5.12,0,0,1,1.29-1,3.4,3.4,0,0,1,1.73-.44,3,3,0,0,1,2.45,1,3.87,3.87,0,0,1,.84,2.55v8.07h-2.9V876a2.51,2.51,0,0,0-.26-1.25,1.13,1.13,0,0,0-1.07-.46,2.48,2.48,0,0,0-1,.23,4.12,4.12,0,0,0-1,.62v8.39h-2.9V872.19h2.6Z" transform="translate(-200.23 -866.67)"/><path class="cls-1" d="M289.73,881.92a4.16,4.16,0,0,1-1.24.84,3.8,3.8,0,0,1-1.59.33,3.58,3.58,0,0,1-1.89-.47,4,4,0,0,1-1.29-1.23,5.48,5.48,0,0,1-.75-1.72,8,8,0,0,1-.24-2,9.86,9.86,0,0,1,.23-2.13,5.58,5.58,0,0,1,.76-1.86,4,4,0,0,1,1.38-1.31,4.11,4.11,0,0,1,2.09-.49,3.51,3.51,0,0,1,1.56.3,3.6,3.6,0,0,1,1.06.8l.23-.83h2.58v10.93a4.22,4.22,0,0,1-1.29,3.44,5.7,5.7,0,0,1-3.73,1.07,19.29,19.29,0,0,1-2-.1,10.56,10.56,0,0,1-1.81-.33v-2.44a13.7,13.7,0,0,0,1.64.34,11.75,11.75,0,0,0,1.76.14,3.73,3.73,0,0,0,1.82-.37,1.46,1.46,0,0,0,.67-1.4Zm0-7.06a2.52,2.52,0,0,0-.78-.4,3.35,3.35,0,0,0-1-.15,1.9,1.9,0,0,0-1.12.3,2.21,2.21,0,0,0-.68.78,3.34,3.34,0,0,0-.35,1.08,7.87,7.87,0,0,0-.09,1.18,6.32,6.32,0,0,0,.1,1.16,3,3,0,0,0,.34,1,1.82,1.82,0,0,0,1.67.93,3,3,0,0,0,1-.17,4.11,4.11,0,0,0,.9-.45Z" transform="translate(-200.23 -866.67)"/><path class="cls-1" d="M309.54,877.5a8.88,8.88,0,0,1-.33,2.48,5.61,5.61,0,0,1-1,2,4.73,4.73,0,0,1-1.75,1.33,5.93,5.93,0,0,1-2.48.48,13.7,13.7,0,0,1-2.17-.18,9.34,9.34,0,0,1-2.13-.6V867h2.92v6.16a5.19,5.19,0,0,1,1.21-.86,3.54,3.54,0,0,1,1.65-.36,3.77,3.77,0,0,1,2,.47,3.73,3.73,0,0,1,1.27,1.24,5.19,5.19,0,0,1,.68,1.78A11,11,0,0,1,309.54,877.5Zm-3,.14a8.88,8.88,0,0,0-.08-1.17,3.57,3.57,0,0,0-.31-1.08,2.09,2.09,0,0,0-.64-.78,1.72,1.72,0,0,0-1.05-.31,2.66,2.66,0,0,0-1,.21,3.91,3.91,0,0,0-.9.53v6.09a2.66,2.66,0,0,0,.66.22,4.2,4.2,0,0,0,.73.06,2.42,2.42,0,0,0,1.29-.32,2.32,2.32,0,0,0,.81-.84,3.61,3.61,0,0,0,.41-1.2A8.5,8.5,0,0,0,306.57,877.64Z" transform="translate(-200.23 -866.67)"/><path class="cls-1" d="M314.07,878.81a3,3,0,0,0,.83,1.87,2.81,2.81,0,0,0,2.1.73,6.15,6.15,0,0,0,1.6-.2,13.83,13.83,0,0,0,1.54-.52v2.44a6.73,6.73,0,0,1-1.59.49,9.82,9.82,0,0,1-1.86.17,6.92,6.92,0,0,1-2.56-.43,4.34,4.34,0,0,1-1.74-1.21,4.92,4.92,0,0,1-1-1.87,9,9,0,0,1-.31-2.45,8.27,8.27,0,0,1,.3-2.24,5.93,5.93,0,0,1,.9-1.9,4.29,4.29,0,0,1,1.53-1.31,4.77,4.77,0,0,1,2.22-.48,4.45,4.45,0,0,1,2.09.45,3.93,3.93,0,0,1,1.39,1.21,4.89,4.89,0,0,1,.77,1.75,9.12,9.12,0,0,1,.23,2.07q0,.35,0,.78t0,.64Zm3.45-2a5.85,5.85,0,0,0-.08-1,2.35,2.35,0,0,0-.27-.79,1.42,1.42,0,0,0-.54-.53,1.73,1.73,0,0,0-.86-.19,1.37,1.37,0,0,0-.75.2,1.67,1.67,0,0,0-.52.54,2.73,2.73,0,0,0-.32.79,4.92,4.92,0,0,0-.13.95Z" transform="translate(-200.23 -866.67)"/><path class="cls-1" d="M326.53,872.19h2.92v2.35h-2.92v5.3a1.72,1.72,0,0,0,.34,1.24,1.5,1.5,0,0,0,1.08.34,5.35,5.35,0,0,0,1.79-.3v2.35a10.2,10.2,0,0,1-1.17.25,9.46,9.46,0,0,1-1.4.09,3.54,3.54,0,0,1-2.63-.92,3.61,3.61,0,0,1-.91-2.64v-5.7h-2.19v-2.35h2.19v-3.06h2.9Z" transform="translate(-200.23 -866.67)"/><path class="cls-1" d="M335.41,872.19h2.92v2.35h-2.92v5.3a1.72,1.72,0,0,0,.34,1.24,1.5,1.5,0,0,0,1.08.34,5.35,5.35,0,0,0,1.79-.3v2.35a10.2,10.2,0,0,1-1.17.25,9.46,9.46,0,0,1-1.4.09,3.54,3.54,0,0,1-2.63-.92,3.61,3.61,0,0,1-.91-2.64v-5.7h-2.19v-2.35h2.19v-3.06h2.9Z" transform="translate(-200.23 -866.67)"/><path class="cls-1" d="M342.4,878.81a3,3,0,0,0,.83,1.87,2.81,2.81,0,0,0,2.1.73,6.15,6.15,0,0,0,1.6-.2,13.83,13.83,0,0,0,1.54-.52v2.44a6.73,6.73,0,0,1-1.59.49,9.82,9.82,0,0,1-1.86.17,6.92,6.92,0,0,1-2.56-.43,4.34,4.34,0,0,1-1.74-1.21,4.92,4.92,0,0,1-1-1.87,9,9,0,0,1-.31-2.45,8.27,8.27,0,0,1,.3-2.24,5.93,5.93,0,0,1,.9-1.9,4.29,4.29,0,0,1,1.53-1.31,4.77,4.77,0,0,1,2.22-.48,4.45,4.45,0,0,1,2.09.45,3.93,3.93,0,0,1,1.39,1.21,4.89,4.89,0,0,1,.77,1.75,9.12,9.12,0,0,1,.23,2.07q0,.35,0,.78t0,.64Zm3.45-2a5.85,5.85,0,0,0-.08-1,2.35,2.35,0,0,0-.27-.79,1.42,1.42,0,0,0-.54-.53,1.73,1.73,0,0,0-.86-.19,1.37,1.37,0,0,0-.75.2,1.67,1.67,0,0,0-.52.54,2.73,2.73,0,0,0-.32.79,4.92,4.92,0,0,0-.13.95Z" transform="translate(-200.23 -866.67)"/><path class="cls-1" d="M353.88,874a4.21,4.21,0,0,1,1.24-1.6,2.5,2.5,0,0,1,1.49-.52,5.32,5.32,0,0,1,.62,0,2.16,2.16,0,0,1,.58.15v2.3a5.27,5.27,0,0,0-.64-.08h-.48a3.76,3.76,0,0,0-1.44.29,4.75,4.75,0,0,0-1.23.72v8.23h-2.9V872.19h2.44Z" transform="translate(-200.23 -866.67)"/><path class="cls-1" d="M369.93,882.59a4.31,4.31,0,0,1-1.2.87,3.35,3.35,0,0,1-1.52.34,3.83,3.83,0,0,1-2-.49,3.89,3.89,0,0,1-1.32-1.32,5.84,5.84,0,0,1-.72-1.9,10.91,10.91,0,0,1-.22-2.2,7.35,7.35,0,0,1,.37-2.36,5.36,5.36,0,0,1,1.09-1.9,5,5,0,0,1,1.82-1.26,6.57,6.57,0,0,1,2.56-.46,12.05,12.05,0,0,1,2.14.2,9.26,9.26,0,0,1,1.91.54v14.81h-2.9Zm0-8.07a3.38,3.38,0,0,0-.64-.16,5.31,5.31,0,0,0-.74,0,2.49,2.49,0,0,0-1.25.3,2.29,2.29,0,0,0-.83.79,3.56,3.56,0,0,0-.45,1.16,6.6,6.6,0,0,0-.14,1.36,8.21,8.21,0,0,0,.1,1.32,3.71,3.71,0,0,0,.36,1.12,2,2,0,0,0,.68.77,1.93,1.93,0,0,0,1.09.28,2.24,2.24,0,0,0,1-.22,3.75,3.75,0,0,0,.8-.54Z" transform="translate(-200.23 -866.67)"/><path class="cls-1" d="M375.61,872.19h2.9v7.52a2.1,2.1,0,0,0,.31,1.28,1.36,1.36,0,0,0,1.14.4,2.16,2.16,0,0,0,1-.24,4.78,4.78,0,0,0,.89-.59v-8.37h2.9v11.36h-2.6l-.23-1.22a5.08,5.08,0,0,1-1.25,1,3.29,3.29,0,0,1-1.71.47,3.24,3.24,0,0,1-2.48-.91,3.71,3.71,0,0,1-.85-2.63Z" transform="translate(-200.23 -866.67)"/><path class="cls-1" d="M393.21,883.55l-.23-1a5.93,5.93,0,0,1-1.09.85,3,3,0,0,1-1.62.39,3.22,3.22,0,0,1-2.49-1,3.79,3.79,0,0,1-.9-2.68,3.86,3.86,0,0,1,.37-1.76,3,3,0,0,1,1-1.16,4.35,4.35,0,0,1,1.49-.63,7.9,7.9,0,0,1,1.79-.2h1.26v-.64a1.29,1.29,0,0,0-.47-1.09,2.05,2.05,0,0,0-1.27-.36,8.41,8.41,0,0,0-1.59.16,11.36,11.36,0,0,0-1.57.41v-2.44l.8-.2q.46-.1,1-.17l1-.12q.51,0,.92,0a3.61,3.61,0,0,1,4.14,4.09v7.54Zm-.39-5.13h-1a2.35,2.35,0,0,0-1.4.38,1.32,1.32,0,0,0-.52,1.15,1.65,1.65,0,0,0,.33,1,1.24,1.24,0,0,0,1.05.43,2.14,2.14,0,0,0,.88-.17,5.06,5.06,0,0,0,.7-.38Z" transform="translate(-200.23 -866.67)"/><path class="cls-1" d="M401.26,883.55h-2.9V867h2.9Z" transform="translate(-200.23 -866.67)"/><path class="cls-1" d="M403.77,868.33a1.54,1.54,0,0,1,.51-1.2,2.1,2.1,0,0,1,2.62,0,1.54,1.54,0,0,1,.51,1.2,1.51,1.51,0,0,1-.51,1.18,2.14,2.14,0,0,1-2.62,0A1.51,1.51,0,0,1,403.77,868.33ZM407,883.55h-2.9V872.19H407Z" transform="translate(-200.23 -866.67)"/><path class="cls-1" d="M413.75,872.19h2.92v2.35h-2.92v5.3a1.72,1.72,0,0,0,.34,1.24,1.5,1.5,0,0,0,1.08.34,5.35,5.35,0,0,0,1.79-.3v2.35a10.2,10.2,0,0,1-1.17.25,9.46,9.46,0,0,1-1.4.09,3.54,3.54,0,0,1-2.63-.92,3.61,3.61,0,0,1-.91-2.64v-5.7h-2.19v-2.35h2.19v-3.06h2.9Z" transform="translate(-200.23 -866.67)"/><path class="cls-1" d="M422.94,879.69l2.33-7.5h2.9l-4.07,11.45a16,16,0,0,1-.75,1.76,4.55,4.55,0,0,1-.9,1.24,3.3,3.3,0,0,1-1.21.74,5,5,0,0,1-1.66.24q-.44,0-1,0a5.51,5.51,0,0,1-1-.15V885a8.59,8.59,0,0,0,.91.14l.72,0a1.81,1.81,0,0,0,1.18-.32A2.26,2.26,0,0,0,421,884l.37-.87-3.91-10.93h2.9Z" transform="translate(-200.23 -866.67)"/><path class="cls-2" d="M205.7,903.79a5.31,5.31,0,0,0,1.38-.17,13.7,13.7,0,0,0,1.31-.43v1.66a6.34,6.34,0,0,1-1.35.4,8,8,0,0,1-1.53.15,6,6,0,0,1-2.38-.43,4.28,4.28,0,0,1-1.64-1.2,5,5,0,0,1-1-1.89,9.3,9.3,0,0,1-.31-2.5,7.72,7.72,0,0,1,.31-2.18,5.62,5.62,0,0,1,1-1.89,4.72,4.72,0,0,1,1.62-1.32,5.07,5.07,0,0,1,2.31-.49,8.83,8.83,0,0,1,1.4.1,8.26,8.26,0,0,1,1.38.36v1.77a8.38,8.38,0,0,0-1.21-.44,5.29,5.29,0,0,0-1.44-.18,3.11,3.11,0,0,0-1.53.35,3.08,3.08,0,0,0-1,.95,4,4,0,0,0-.6,1.38,7.27,7.27,0,0,0-.18,1.67,7.54,7.54,0,0,0,.17,1.62,4,4,0,0,0,.58,1.38,3,3,0,0,0,1.07,1A3.48,3.48,0,0,0,205.7,903.79Z" transform="translate(-200.23 -866.67)"/><path class="cls-2" d="M210.49,893.79h1.91v7.67a2.94,2.94,0,0,0,.44,1.71,1.75,1.75,0,0,0,1.54.62,2.75,2.75,0,0,0,1.56-.49,6.52,6.52,0,0,0,1.26-1.09v-8.42h1.91v11.36h-1.63l-.23-1.4q-.3.3-.63.6a4,4,0,0,1-.75.53,4.47,4.47,0,0,1-.92.38,4,4,0,0,1-1.13.15,3,3,0,0,1-3.33-3.36Z" transform="translate(-200.23 -866.67)"/><path class="cls-2" d="M228.5,902a3.58,3.58,0,0,1-.3,1.52,2.88,2.88,0,0,1-.82,1.06,3.55,3.55,0,0,1-1.2.62,5,5,0,0,1-1.46.21,8.71,8.71,0,0,1-1.64-.16,7.43,7.43,0,0,1-1.62-.51V903a12,12,0,0,0,1.47.56,5.41,5.41,0,0,0,1.62.24,2.62,2.62,0,0,0,1.41-.35,1.29,1.29,0,0,0,.56-1.19,1.51,1.51,0,0,0-.36-1,3.94,3.94,0,0,0-.88-.73,12.86,12.86,0,0,0-1.14-.62,6.63,6.63,0,0,1-1.14-.7,3.52,3.52,0,0,1-.88-1,2.91,2.91,0,0,1-.36-1.52,3,3,0,0,1,.28-1.3,2.86,2.86,0,0,1,.76-1,3.48,3.48,0,0,1,1.15-.62,4.63,4.63,0,0,1,1.45-.22,7.44,7.44,0,0,1,2.78.55v1.82a12.06,12.06,0,0,0-1.25-.53,4.15,4.15,0,0,0-1.41-.23,2.18,2.18,0,0,0-1.28.35,1.17,1.17,0,0,0-.5,1,1.38,1.38,0,0,0,.35,1,3.78,3.78,0,0,0,.88.7q.53.31,1.15.61a6.37,6.37,0,0,1,1.15.71,3.54,3.54,0,0,1,.88,1A2.93,2.93,0,0,1,228.5,902Z" transform="translate(-200.23 -866.67)"/><path class="cls-2" d="M233.58,893.79h3v1.61h-3v6.71a1.91,1.91,0,0,0,.36,1.28,1.61,1.61,0,0,0,1.25.4,4.36,4.36,0,0,0,.94-.09,4.84,4.84,0,0,0,.81-.25v1.61a5,5,0,0,1-1,.26,7.87,7.87,0,0,1-1.09.08,3.4,3.4,0,0,1-2.37-.7,3,3,0,0,1-.76-2.29v-7h-2.14v-1.61h2.14v-3.06h1.91Z" transform="translate(-200.23 -866.67)"/><path class="cls-2" d="M247.68,899.47a9.13,9.13,0,0,1-.28,2.29,5.47,5.47,0,0,1-.87,1.89,4.25,4.25,0,0,1-1.52,1.29,5.48,5.48,0,0,1-4.45,0,4.22,4.22,0,0,1-1.53-1.29,5.46,5.46,0,0,1-.87-1.89,9.48,9.48,0,0,1,0-4.54,5.71,5.71,0,0,1,.86-1.91,4.19,4.19,0,0,1,1.52-1.31,5.45,5.45,0,0,1,4.49,0,4.19,4.19,0,0,1,1.52,1.31,5.72,5.72,0,0,1,.86,1.91A9.07,9.07,0,0,1,247.68,899.47Zm-2,0a11.72,11.72,0,0,0-.1-1.56,4,4,0,0,0-.43-1.38,2.7,2.7,0,0,0-.9-1,3.14,3.14,0,0,0-3,0,2.73,2.73,0,0,0-.89,1,4,4,0,0,0-.43,1.38,11.8,11.8,0,0,0-.1,1.56A11.18,11.18,0,0,0,240,901a4.32,4.32,0,0,0,.44,1.4,2.6,2.6,0,0,0,.89,1,2.67,2.67,0,0,0,1.48.37,2.73,2.73,0,0,0,1.5-.37,2.49,2.49,0,0,0,.89-1,4.53,4.53,0,0,0,.43-1.4A11.18,11.18,0,0,0,245.7,899.42Z" transform="translate(-200.23 -866.67)"/><path class="cls-2" d="M258.35,905.15h-1.91v-7.69a3.49,3.49,0,0,0-.36-1.7,1.43,1.43,0,0,0-1.37-.64,2.34,2.34,0,0,0-1.39.5,10.61,10.61,0,0,0-1.25,1.07v8.46h-1.91V893.79h1.63l.23,1.43a8.62,8.62,0,0,1,1.41-1.18,3.15,3.15,0,0,1,1.81-.52,2.72,2.72,0,0,1,2.74,1.72,8.6,8.6,0,0,1,1.66-1.23,3.69,3.69,0,0,1,1.84-.49,2.93,2.93,0,0,1,2.35.93,3.61,3.61,0,0,1,.81,2.45v8.26h-1.91v-7.69a5.94,5.94,0,0,0-.07-.94,2,2,0,0,0-.26-.74,1.35,1.35,0,0,0-.53-.49,1.87,1.87,0,0,0-.86-.17,2.82,2.82,0,0,0-1.39.41,6.63,6.63,0,0,0-1.3,1,3.37,3.37,0,0,1,0,.34c0,.13,0,.24,0,.34Z" transform="translate(-200.23 -866.67)"/><path class="cls-2" d="M269,900a5.46,5.46,0,0,0,.18,1.43,3.45,3.45,0,0,0,.58,1.21,2.77,2.77,0,0,0,1.05.83,3.75,3.75,0,0,0,1.59.3,7.43,7.43,0,0,0,3.19-.78v1.66a6.53,6.53,0,0,1-1.69.55,9.83,9.83,0,0,1-1.85.18,5.41,5.41,0,0,1-2.27-.44,4.22,4.22,0,0,1-1.58-1.22,5,5,0,0,1-.91-1.87,9.52,9.52,0,0,1-.29-2.43,8.83,8.83,0,0,1,.29-2.28,5.63,5.63,0,0,1,.87-1.89,4.41,4.41,0,0,1,1.47-1.29,4.29,4.29,0,0,1,2.08-.48,4,4,0,0,1,2,.45,3.78,3.78,0,0,1,1.31,1.2,5,5,0,0,1,.72,1.74,9.47,9.47,0,0,1,.22,2v.62q0,.23,0,.46Zm5-1.61a8.29,8.29,0,0,0-.09-1.22,2.89,2.89,0,0,0-.36-1.06,2,2,0,0,0-.75-.73,2.46,2.46,0,0,0-1.24-.28,2.11,2.11,0,0,0-1,.26,2.49,2.49,0,0,0-.78.69,3.44,3.44,0,0,0-.51,1,4.88,4.88,0,0,0-.21,1.3Z" transform="translate(-200.23 -866.67)"/><path class="cls-2" d="M280.41,895.63a4.59,4.59,0,0,1,1.3-1.48,3,3,0,0,1,1.85-.63,5.38,5.38,0,0,1,.71.05v1.56l-.32,0h-.32a3.7,3.7,0,0,0-1.64.41,5.62,5.62,0,0,0-1.55,1.15v8.49h-1.91V893.79h1.66Z" transform="translate(-200.23 -866.67)"/><path class="cls-2" d="M295.45,903.79a5.31,5.31,0,0,0,1.38-.17,13.7,13.7,0,0,0,1.31-.43v1.66a6.34,6.34,0,0,1-1.35.4,8,8,0,0,1-1.53.15,6,6,0,0,1-2.38-.43,4.28,4.28,0,0,1-1.64-1.2,5,5,0,0,1-1-1.89,9.3,9.3,0,0,1-.31-2.5,7.72,7.72,0,0,1,.31-2.18,5.62,5.62,0,0,1,1-1.89,4.72,4.72,0,0,1,1.62-1.32,5.07,5.07,0,0,1,2.31-.49,8.83,8.83,0,0,1,1.4.1A8.26,8.26,0,0,1,298,894v1.77a8.38,8.38,0,0,0-1.21-.44,5.29,5.29,0,0,0-1.44-.18,3.11,3.11,0,0,0-1.53.35,3.08,3.08,0,0,0-1,.95,4,4,0,0,0-.6,1.38,7.27,7.27,0,0,0-.18,1.67,7.54,7.54,0,0,0,.17,1.62,4,4,0,0,0,.58,1.38,3,3,0,0,0,1.07,1A3.48,3.48,0,0,0,295.45,903.79Z" transform="translate(-200.23 -866.67)"/><path class="cls-2" d="M309.25,899.47a9.13,9.13,0,0,1-.28,2.29,5.47,5.47,0,0,1-.87,1.89,4.25,4.25,0,0,1-1.52,1.29,5.48,5.48,0,0,1-4.45,0,4.22,4.22,0,0,1-1.53-1.29,5.46,5.46,0,0,1-.87-1.89,9.48,9.48,0,0,1,0-4.54,5.71,5.71,0,0,1,.86-1.91,4.19,4.19,0,0,1,1.52-1.31,5.45,5.45,0,0,1,4.49,0,4.19,4.19,0,0,1,1.52,1.31,5.72,5.72,0,0,1,.86,1.91A9.07,9.07,0,0,1,309.25,899.47Zm-2,0a11.72,11.72,0,0,0-.1-1.56,4,4,0,0,0-.43-1.38,2.7,2.7,0,0,0-.9-1,3.14,3.14,0,0,0-3,0,2.73,2.73,0,0,0-.89,1,4,4,0,0,0-.43,1.38,11.8,11.8,0,0,0-.1,1.56,11.18,11.18,0,0,0,.11,1.62,4.32,4.32,0,0,0,.44,1.4,2.6,2.6,0,0,0,.89,1,2.67,2.67,0,0,0,1.48.37,2.73,2.73,0,0,0,1.5-.37,2.49,2.49,0,0,0,.89-1,4.53,4.53,0,0,0,.43-1.4A11.18,11.18,0,0,0,307.27,899.42Z" transform="translate(-200.23 -866.67)"/><path class="cls-2" d="M320.36,905.15h-1.91v-7.69a2.94,2.94,0,0,0-.44-1.73,1.77,1.77,0,0,0-1.54-.61,2.75,2.75,0,0,0-1.56.5,6.56,6.56,0,0,0-1.27,1.09v8.44h-1.91V893.79h1.63l.23,1.4a6.81,6.81,0,0,1,1.59-1.25,3.8,3.8,0,0,1,1.84-.42,3.28,3.28,0,0,1,2.46.9,3.41,3.41,0,0,1,.87,2.48Z" transform="translate(-200.23 -866.67)"/><path class="cls-2" d="M327,902.92l2.92-9.13h2l-4,11.36h-1.91l-4-11.36H324Z" transform="translate(-200.23 -866.67)"/><path class="cls-2" d="M334.83,900a5.46,5.46,0,0,0,.18,1.43,3.45,3.45,0,0,0,.58,1.21,2.77,2.77,0,0,0,1.05.83,3.75,3.75,0,0,0,1.59.3,7.43,7.43,0,0,0,3.19-.78v1.66a6.53,6.53,0,0,1-1.69.55,9.83,9.83,0,0,1-1.85.18,5.41,5.41,0,0,1-2.27-.44,4.22,4.22,0,0,1-1.58-1.22,5,5,0,0,1-.91-1.87,9.52,9.52,0,0,1-.29-2.43,8.83,8.83,0,0,1,.29-2.28,5.63,5.63,0,0,1,.87-1.89,4.41,4.41,0,0,1,1.47-1.29,4.29,4.29,0,0,1,2.08-.48,4,4,0,0,1,2,.45,3.78,3.78,0,0,1,1.31,1.2,5,5,0,0,1,.72,1.74,9.47,9.47,0,0,1,.22,2v.62q0,.23,0,.46Zm5-1.61a8.29,8.29,0,0,0-.09-1.22,2.89,2.89,0,0,0-.36-1.06,2,2,0,0,0-.75-.73,2.46,2.46,0,0,0-1.24-.28,2.11,2.11,0,0,0-1,.26,2.49,2.49,0,0,0-.78.69,3.44,3.44,0,0,0-.51,1,4.88,4.88,0,0,0-.21,1.3Z" transform="translate(-200.23 -866.67)"/><path class="cls-2" d="M346.21,895.63a4.59,4.59,0,0,1,1.3-1.48,3,3,0,0,1,1.85-.63,5.38,5.38,0,0,1,.71.05v1.56l-.32,0h-.32a3.7,3.7,0,0,0-1.64.41,5.62,5.62,0,0,0-1.55,1.15v8.49h-1.91V893.79H346Z" transform="translate(-200.23 -866.67)"/><path class="cls-2" d="M358.08,902a3.58,3.58,0,0,1-.3,1.52,2.88,2.88,0,0,1-.82,1.06,3.55,3.55,0,0,1-1.2.62,5,5,0,0,1-1.46.21,8.71,8.71,0,0,1-1.64-.16,7.43,7.43,0,0,1-1.62-.51V903a12,12,0,0,0,1.47.56,5.41,5.41,0,0,0,1.62.24,2.62,2.62,0,0,0,1.41-.35,1.29,1.29,0,0,0,.56-1.19,1.51,1.51,0,0,0-.36-1,3.94,3.94,0,0,0-.88-.73,12.86,12.86,0,0,0-1.14-.62,6.63,6.63,0,0,1-1.14-.7,3.52,3.52,0,0,1-.88-1,2.91,2.91,0,0,1-.36-1.52,3,3,0,0,1,.28-1.3,2.86,2.86,0,0,1,.76-1,3.48,3.48,0,0,1,1.15-.62,4.63,4.63,0,0,1,1.45-.22,7.44,7.44,0,0,1,2.78.55v1.82a12.06,12.06,0,0,0-1.25-.53,4.15,4.15,0,0,0-1.41-.23,2.18,2.18,0,0,0-1.28.35,1.17,1.17,0,0,0-.5,1,1.38,1.38,0,0,0,.35,1,3.78,3.78,0,0,0,.88.7q.53.31,1.15.61a6.37,6.37,0,0,1,1.15.71,3.54,3.54,0,0,1,.88,1A2.93,2.93,0,0,1,358.08,902Z" transform="translate(-200.23 -866.67)"/><path class="cls-2" d="M366.38,905.15l-.21-.92a6.63,6.63,0,0,1-1.26.8,3.74,3.74,0,0,1-1.7.37,3.52,3.52,0,0,1-2.59-.93,3.48,3.48,0,0,1-.94-2.59,4.16,4.16,0,0,1,.33-1.73,3.33,3.33,0,0,1,.92-1.22,3.91,3.91,0,0,1,1.4-.72,6.22,6.22,0,0,1,1.78-.24h2v-.61a2.37,2.37,0,0,0-.52-1.74,2.42,2.42,0,0,0-1.71-.5,7.43,7.43,0,0,0-1.55.18,9.7,9.7,0,0,0-1.5.44V894a10.63,10.63,0,0,1,1.53-.33,11.7,11.7,0,0,1,1.81-.15,4,4,0,0,1,2.93.93,3.93,3.93,0,0,1,.93,2.89v7.82Zm-.28-5.57h-1.87a3.17,3.17,0,0,0-1.9.49,1.92,1.92,0,0,0-.67,1.66,2.11,2.11,0,0,0,.51,1.53,2.05,2.05,0,0,0,1.54.53,3,3,0,0,0,1.33-.29,4.74,4.74,0,0,0,1.06-.68Z" transform="translate(-200.23 -866.67)"/><path class="cls-2" d="M373.6,893.79h3v1.61h-3v6.71a1.91,1.91,0,0,0,.36,1.28,1.61,1.61,0,0,0,1.25.4,4.36,4.36,0,0,0,.94-.09,4.84,4.84,0,0,0,.81-.25v1.61a5,5,0,0,1-1,.26,7.87,7.87,0,0,1-1.09.08,3.4,3.4,0,0,1-2.37-.7,3,3,0,0,1-.76-2.29v-7h-2.14v-1.61h2.14v-3.06h1.91Z" transform="translate(-200.23 -866.67)"/><path class="cls-2" d="M378.62,889.58a1.28,1.28,0,0,1,.38-.92,1.23,1.23,0,0,1,.92-.39,1.31,1.31,0,0,1,0,2.62,1.23,1.23,0,0,1-.92-.39A1.28,1.28,0,0,1,378.62,889.58Zm2.28,15.57H379V893.79h1.91Z" transform="translate(-200.23 -866.67)"/><path class="cls-2" d="M393.17,899.47a9.13,9.13,0,0,1-.28,2.29,5.47,5.47,0,0,1-.87,1.89,4.25,4.25,0,0,1-1.52,1.29,5.48,5.48,0,0,1-4.45,0,4.22,4.22,0,0,1-1.53-1.29,5.46,5.46,0,0,1-.87-1.89,9.48,9.48,0,0,1,0-4.54,5.71,5.71,0,0,1,.86-1.91A4.19,4.19,0,0,1,386,894a5.45,5.45,0,0,1,4.49,0,4.19,4.19,0,0,1,1.52,1.31,5.72,5.72,0,0,1,.86,1.91A9.07,9.07,0,0,1,393.17,899.47Zm-2,0a11.72,11.72,0,0,0-.1-1.56,4,4,0,0,0-.43-1.38,2.7,2.7,0,0,0-.9-1,3.14,3.14,0,0,0-3,0,2.73,2.73,0,0,0-.89,1,4,4,0,0,0-.43,1.38,11.8,11.8,0,0,0-.1,1.56,11.18,11.18,0,0,0,.11,1.62,4.32,4.32,0,0,0,.44,1.4,2.6,2.6,0,0,0,.89,1,2.67,2.67,0,0,0,1.48.37,2.73,2.73,0,0,0,1.5-.37,2.49,2.49,0,0,0,.89-1,4.53,4.53,0,0,0,.43-1.4A11.18,11.18,0,0,0,391.2,899.42Z" transform="translate(-200.23 -866.67)"/><path class="cls-2" d="M404.28,905.15h-1.91v-7.69a2.94,2.94,0,0,0-.44-1.73,1.77,1.77,0,0,0-1.54-.61,2.75,2.75,0,0,0-1.56.5,6.56,6.56,0,0,0-1.27,1.09v8.44h-1.91V893.79h1.63l.23,1.4a6.81,6.81,0,0,1,1.59-1.25,3.8,3.8,0,0,1,1.84-.42,3.28,3.28,0,0,1,2.46.9,3.41,3.41,0,0,1,.87,2.48Z" transform="translate(-200.23 -866.67)"/><path class="cls-2" d="M413.6,902a3.58,3.58,0,0,1-.3,1.52,2.88,2.88,0,0,1-.82,1.06,3.55,3.55,0,0,1-1.2.62,5,5,0,0,1-1.46.21,8.71,8.71,0,0,1-1.64-.16,7.43,7.43,0,0,1-1.62-.51V903a12,12,0,0,0,1.47.56,5.41,5.41,0,0,0,1.62.24,2.62,2.62,0,0,0,1.41-.35,1.29,1.29,0,0,0,.56-1.19,1.51,1.51,0,0,0-.36-1,3.94,3.94,0,0,0-.88-.73,12.86,12.86,0,0,0-1.14-.62,6.63,6.63,0,0,1-1.14-.7,3.52,3.52,0,0,1-.88-1,2.91,2.91,0,0,1-.36-1.52,3,3,0,0,1,.28-1.3,2.86,2.86,0,0,1,.76-1,3.48,3.48,0,0,1,1.15-.62,4.63,4.63,0,0,1,1.45-.22,7.44,7.44,0,0,1,2.78.55v1.82a12.06,12.06,0,0,0-1.25-.53,4.15,4.15,0,0,0-1.41-.23,2.18,2.18,0,0,0-1.28.35,1.17,1.17,0,0,0-.5,1,1.38,1.38,0,0,0,.35,1,3.78,3.78,0,0,0,.88.7q.53.31,1.15.61a6.37,6.37,0,0,1,1.15.71,3.54,3.54,0,0,1,.88,1A2.93,2.93,0,0,1,413.6,902Z" transform="translate(-200.23 -866.67)"/><path class="cls-2" d="M419,903.82a1.51,1.51,0,0,1-.47,1.13,1.57,1.57,0,0,1-1.14.46,1.61,1.61,0,0,1-1.12-.43,1.48,1.48,0,0,1-.47-1.16,1.55,1.55,0,0,1,1.59-1.61,1.63,1.63,0,0,1,1.13.44A1.5,1.5,0,0,1,419,903.82Z" transform="translate(-200.23 -866.67)"/><path class="cls-2" d="M424.94,903.82a1.51,1.51,0,0,1-.47,1.13,1.57,1.57,0,0,1-1.14.46,1.61,1.61,0,0,1-1.12-.43,1.48,1.48,0,0,1-.47-1.16,1.55,1.55,0,0,1,1.59-1.61,1.63,1.63,0,0,1,1.13.44A1.5,1.5,0,0,1,424.94,903.82Z" transform="translate(-200.23 -866.67)"/><path class="cls-2" d="M430.89,903.82a1.51,1.51,0,0,1-.47,1.13,1.57,1.57,0,0,1-1.14.46,1.61,1.61,0,0,1-1.12-.43,1.48,1.48,0,0,1-.47-1.16,1.55,1.55,0,0,1,1.59-1.61,1.63,1.63,0,0,1,1.13.44A1.5,1.5,0,0,1,430.89,903.82Z" transform="translate(-200.23 -866.67)"/></svg>