<svg id="text" xmlns="http://www.w3.org/2000/svg" viewBox="0 0 423.07 31.88"><defs><style>.cls-1{fill:#004796;}</style></defs><path class="cls-1" d="M308.41,1240.12a8.06,8.06,0,0,0,2.1-.26,20.46,20.46,0,0,0,2-.65v2.52a9.71,9.71,0,0,1-2,.61,12.23,12.23,0,0,1-2.33.23,9.22,9.22,0,0,1-3.62-.65,6.52,6.52,0,0,1-2.5-1.82,7.56,7.56,0,0,1-1.45-2.87,14.13,14.13,0,0,1-.47-3.8,11.73,11.73,0,0,1,.47-3.33,8.54,8.54,0,0,1,1.45-2.87,7.19,7.19,0,0,1,2.47-2,7.71,7.71,0,0,1,3.52-.75,13.43,13.43,0,0,1,2.13.16,12.75,12.75,0,0,1,2.1.54v2.69a12.73,12.73,0,0,0-1.84-.67,8.08,8.08,0,0,0-2.19-.28,4.74,4.74,0,0,0-2.33.53,4.67,4.67,0,0,0-1.59,1.44,6.07,6.07,0,0,0-.91,2.1,11.07,11.07,0,0,0-.28,2.54,11.47,11.47,0,0,0,.26,2.47,6,6,0,0,0,.88,2.1,4.54,4.54,0,0,0,1.63,1.46A5.31,5.31,0,0,0,308.41,1240.12Z" transform="translate(-300.08 -1216.49)"/><path class="cls-1" d="M318.66,1227.69a7,7,0,0,1,2-2.26,4.57,4.57,0,0,1,2.82-1,8.16,8.16,0,0,1,1.08.08v2.37a4,4,0,0,0-.49,0h-.49a5.63,5.63,0,0,0-2.5.63,8.54,8.54,0,0,0-2.36,1.75v12.92h-2.9v-17.29h2.52Z" transform="translate(-300.08 -1216.49)"/><path class="cls-1" d="M328.71,1234.38a8.32,8.32,0,0,0,.28,2.18,5.24,5.24,0,0,0,.89,1.83,4.21,4.21,0,0,0,1.6,1.27,5.72,5.72,0,0,0,2.42.46,11.31,11.31,0,0,0,4.85-1.19v2.52a9.91,9.91,0,0,1-2.57.84,14.89,14.89,0,0,1-2.82.28,8.22,8.22,0,0,1-3.45-.67,6.42,6.42,0,0,1-2.4-1.85,7.65,7.65,0,0,1-1.38-2.85,14.5,14.5,0,0,1-.44-3.69,13.42,13.42,0,0,1,.44-3.46,8.55,8.55,0,0,1,1.33-2.87,6.71,6.71,0,0,1,2.24-2,6.52,6.52,0,0,1,3.17-.73,6.11,6.11,0,0,1,3,.68,5.76,5.76,0,0,1,2,1.82,7.59,7.59,0,0,1,1.1,2.64,14.4,14.4,0,0,1,.33,3.12v.95q0,.35,0,.7Zm7.56-2.45a12.59,12.59,0,0,0-.14-1.86,4.43,4.43,0,0,0-.54-1.61,3.1,3.1,0,0,0-1.14-1.12,3.75,3.75,0,0,0-1.89-.42,3.19,3.19,0,0,0-1.58.39,3.76,3.76,0,0,0-1.19,1A5.2,5.2,0,0,0,329,1230a7.42,7.42,0,0,0-.32,2Z" transform="translate(-300.08 -1216.49)"/><path class="cls-1" d="M352.13,1242.18l-.32-1.4a10.08,10.08,0,0,1-1.92,1.23,5.7,5.7,0,0,1-2.58.56,5.35,5.35,0,0,1-3.94-1.42,5.29,5.29,0,0,1-1.43-3.94,6.34,6.34,0,0,1,.51-2.62,5.08,5.08,0,0,1,1.4-1.85,6,6,0,0,1,2.13-1.1,9.46,9.46,0,0,1,2.7-.37h3v-.93a3.61,3.61,0,0,0-.78-2.65,3.68,3.68,0,0,0-2.6-.75,11.34,11.34,0,0,0-2.35.28,14.76,14.76,0,0,0-2.28.67v-2.66a16.05,16.05,0,0,1,2.33-.51,17.82,17.82,0,0,1,2.75-.23,6.1,6.1,0,0,1,4.46,1.42,6,6,0,0,1,1.42,4.39v11.9Zm-.42-8.47h-2.84a4.82,4.82,0,0,0-2.89.75,2.92,2.92,0,0,0-1,2.52,3.21,3.21,0,0,0,.78,2.33,3.12,3.12,0,0,0,2.34.8,4.64,4.64,0,0,0,2-.44,7.23,7.23,0,0,0,1.61-1Z" transform="translate(-300.08 -1216.49)"/><path class="cls-1" d="M363.11,1224.89h4.52v2.45h-4.52v10.21a2.91,2.91,0,0,0,.54,2,2.45,2.45,0,0,0,1.91.62A6.62,6.62,0,0,0,367,1240a7.45,7.45,0,0,0,1.23-.38V1242a7.44,7.44,0,0,1-1.59.4,11.85,11.85,0,0,1-1.66.12,5.18,5.18,0,0,1-3.61-1.07,4.56,4.56,0,0,1-1.15-3.48v-10.67H357v-2.45h3.25v-4.66h2.9Z" transform="translate(-300.08 -1216.49)"/><path class="cls-1" d="M370.74,1218.49a2,2,0,0,1,.57-1.4,1.87,1.87,0,0,1,1.41-.59,2,2,0,1,1,0,4,1.87,1.87,0,0,1-1.41-.59A2,2,0,0,1,370.74,1218.49Zm3.46,23.7h-2.9v-17.29h2.9Z" transform="translate(-300.08 -1216.49)"/><path class="cls-1" d="M392.23,1242.18h-2.91v-11.7a4.48,4.48,0,0,0-.67-2.63,2.69,2.69,0,0,0-2.34-.93,4.2,4.2,0,0,0-2.38.75,10,10,0,0,0-1.92,1.66v12.85h-2.9v-17.29h2.48l.35,2.13a10.31,10.31,0,0,1,2.42-1.91,5.77,5.77,0,0,1,2.8-.65,5,5,0,0,1,3.75,1.36,5.19,5.19,0,0,1,1.33,3.78Z" transform="translate(-300.08 -1216.49)"/><path class="cls-1" d="M410,1241.76q0,3.53-1.89,5.07a8.15,8.15,0,0,1-5.29,1.54,23.72,23.72,0,0,1-2.85-.17,13,13,0,0,1-2.5-.52v-2.59a24.14,24.14,0,0,0,2.53.61,14.18,14.18,0,0,0,2.56.23,6,6,0,0,0,3.26-.78,3.07,3.07,0,0,0,1.24-2.81V1240a9.37,9.37,0,0,1-2.06,1.16,6.83,6.83,0,0,1-5.43-.23,6.08,6.08,0,0,1-2.09-1.82,8,8,0,0,1-1.22-2.62,11.84,11.84,0,0,1-.4-3.1,14.36,14.36,0,0,1,.4-3.45,8.28,8.28,0,0,1,1.26-2.83,6.19,6.19,0,0,1,2.16-1.91,6.53,6.53,0,0,1,3.12-.7,5.29,5.29,0,0,1,2.34.54,7.7,7.7,0,0,1,2,1.38l.35-1.5H410Zm-2.91-13.2a8.77,8.77,0,0,0-1.81-1.17,4.74,4.74,0,0,0-2.09-.47,3.84,3.84,0,0,0-2.07.51,4,4,0,0,0-1.32,1.36,6,6,0,0,0-.71,2,12.88,12.88,0,0,0-.21,2.34,12.63,12.63,0,0,0,.19,2.21,5.68,5.68,0,0,0,.7,1.93,3.8,3.8,0,0,0,1.39,1.36,4.61,4.61,0,0,0,2.32.51,6,6,0,0,0,2-.35,4.75,4.75,0,0,0,1.64-.91Z" transform="translate(-300.08 -1216.49)"/><path class="cls-1" d="M424.82,1227.69a7,7,0,0,1,2-2.26,4.57,4.57,0,0,1,2.82-1,8.16,8.16,0,0,1,1.08.08v2.37a4,4,0,0,0-.49,0h-.49a5.63,5.63,0,0,0-2.5.63,8.53,8.53,0,0,0-2.36,1.75v12.92h-2.91v-17.29h2.52Z" transform="translate(-300.08 -1216.49)"/><path class="cls-1" d="M434.86,1234.38a8.3,8.3,0,0,0,.28,2.18,5.26,5.26,0,0,0,.89,1.83,4.22,4.22,0,0,0,1.6,1.27,5.72,5.72,0,0,0,2.42.46,11.3,11.3,0,0,0,4.85-1.19v2.52a9.92,9.92,0,0,1-2.57.84,14.89,14.89,0,0,1-2.82.28,8.22,8.22,0,0,1-3.45-.67,6.42,6.42,0,0,1-2.4-1.85,7.63,7.63,0,0,1-1.38-2.85,14.5,14.5,0,0,1-.44-3.69,13.42,13.42,0,0,1,.44-3.46,8.55,8.55,0,0,1,1.33-2.87,6.71,6.71,0,0,1,2.24-2,6.52,6.52,0,0,1,3.17-.73,6.1,6.1,0,0,1,3,.68,5.76,5.76,0,0,1,2,1.82,7.58,7.58,0,0,1,1.1,2.64,14.4,14.4,0,0,1,.33,3.12v.95c0,.23,0,.47,0,.7Zm7.56-2.45a12.59,12.59,0,0,0-.14-1.86,4.42,4.42,0,0,0-.54-1.61,3.1,3.1,0,0,0-1.14-1.12,3.76,3.76,0,0,0-1.89-.42,3.2,3.2,0,0,0-1.58.39,3.76,3.76,0,0,0-1.19,1,5.22,5.22,0,0,0-.78,1.59,7.46,7.46,0,0,0-.32,2Z" transform="translate(-300.08 -1216.49)"/><path class="cls-1" d="M454.81,1238.79l4.44-13.89h3.08l-6.16,17.29h-2.9l-6.12-17.29h3.22Z" transform="translate(-300.08 -1216.49)"/><path class="cls-1" d="M466.78,1234.38a8.3,8.3,0,0,0,.28,2.18,5.26,5.26,0,0,0,.89,1.83,4.22,4.22,0,0,0,1.6,1.27,5.72,5.72,0,0,0,2.42.46,11.3,11.3,0,0,0,4.85-1.19v2.52a9.92,9.92,0,0,1-2.57.84,14.89,14.89,0,0,1-2.82.28,8.22,8.22,0,0,1-3.45-.67,6.42,6.42,0,0,1-2.4-1.85,7.63,7.63,0,0,1-1.38-2.85,14.5,14.5,0,0,1-.44-3.69,13.42,13.42,0,0,1,.44-3.46,8.55,8.55,0,0,1,1.33-2.87,6.71,6.71,0,0,1,2.24-2,6.52,6.52,0,0,1,3.17-.73,6.1,6.1,0,0,1,3,.68,5.76,5.76,0,0,1,2,1.82,7.58,7.58,0,0,1,1.1,2.64,14.4,14.4,0,0,1,.33,3.12v.95c0,.23,0,.47,0,.7Zm7.56-2.45a12.59,12.59,0,0,0-.14-1.86,4.42,4.42,0,0,0-.54-1.61,3.1,3.1,0,0,0-1.14-1.12,3.76,3.76,0,0,0-1.89-.42,3.2,3.2,0,0,0-1.58.39,3.76,3.76,0,0,0-1.19,1,5.22,5.22,0,0,0-.78,1.59,7.46,7.46,0,0,0-.32,2Z" transform="translate(-300.08 -1216.49)"/><path class="cls-1" d="M494.36,1242.18h-2.91v-11.7a4.47,4.47,0,0,0-.67-2.63,2.69,2.69,0,0,0-2.34-.93,4.2,4.2,0,0,0-2.38.75,10,10,0,0,0-1.92,1.66v12.85h-2.91v-17.29h2.48l.35,2.13a10.31,10.31,0,0,1,2.42-1.91,5.77,5.77,0,0,1,2.8-.65,5,5,0,0,1,3.75,1.36,5.19,5.19,0,0,1,1.33,3.78Z" transform="translate(-300.08 -1216.49)"/><path class="cls-1" d="M499.05,1224.89H502v11.67a4.47,4.47,0,0,0,.67,2.6,2.66,2.66,0,0,0,2.34.95,4.19,4.19,0,0,0,2.38-.75,10,10,0,0,0,1.93-1.66v-12.81h2.9v17.29h-2.48l-.35-2.13q-.46.45-1,.91a6.23,6.23,0,0,1-1.14.81,6.93,6.93,0,0,1-1.4.58,6.05,6.05,0,0,1-1.71.23,4.63,4.63,0,0,1-5.08-5.11Z" transform="translate(-300.08 -1216.49)"/><path class="cls-1" d="M519,1234.38a8.3,8.3,0,0,0,.28,2.18,5.26,5.26,0,0,0,.89,1.83,4.22,4.22,0,0,0,1.6,1.27,5.72,5.72,0,0,0,2.42.46,11.3,11.3,0,0,0,4.85-1.19v2.52a9.92,9.92,0,0,1-2.57.84,14.89,14.89,0,0,1-2.82.28,8.22,8.22,0,0,1-3.45-.67,6.42,6.42,0,0,1-2.4-1.85,7.63,7.63,0,0,1-1.38-2.85,14.5,14.5,0,0,1-.44-3.69,13.42,13.42,0,0,1,.44-3.46,8.55,8.55,0,0,1,1.33-2.87,6.71,6.71,0,0,1,2.24-2,6.52,6.52,0,0,1,3.17-.73,6.1,6.1,0,0,1,3,.68,5.76,5.76,0,0,1,2,1.82,7.58,7.58,0,0,1,1.1,2.64,14.4,14.4,0,0,1,.33,3.12v.95c0,.23,0,.47,0,.7Zm7.56-2.45a12.59,12.59,0,0,0-.14-1.86,4.42,4.42,0,0,0-.54-1.61,3.1,3.1,0,0,0-1.14-1.12,3.76,3.76,0,0,0-1.89-.42,3.2,3.2,0,0,0-1.58.39,3.76,3.76,0,0,0-1.19,1,5.22,5.22,0,0,0-.78,1.59,7.46,7.46,0,0,0-.32,2Z" transform="translate(-300.08 -1216.49)"/><path class="cls-1" d="M539.86,1218.49a2,2,0,0,1,.57-1.4,1.87,1.87,0,0,1,1.4-.59,2,2,0,1,1,0,4,1.87,1.87,0,0,1-1.4-.59A2,2,0,0,1,539.86,1218.49Zm3.47,23.7h-2.91v-17.29h2.91Z" transform="translate(-300.08 -1216.49)"/><path class="cls-1" d="M561.35,1242.18h-2.91v-11.7a4.47,4.47,0,0,0-.67-2.63,2.69,2.69,0,0,0-2.34-.93,4.2,4.2,0,0,0-2.38.75,10,10,0,0,0-1.92,1.66v12.85h-2.91v-17.29h2.48l.35,2.13a10.31,10.31,0,0,1,2.42-1.91,5.77,5.77,0,0,1,2.8-.65,5,5,0,0,1,3.75,1.36,5.19,5.19,0,0,1,1.33,3.78Z" transform="translate(-300.08 -1216.49)"/><path class="cls-1" d="M573.36,1240.12a8.06,8.06,0,0,0,2.1-.26,20.46,20.46,0,0,0,2-.65v2.52a9.69,9.69,0,0,1-2,.61,12.21,12.21,0,0,1-2.33.23,9.22,9.22,0,0,1-3.62-.65,6.52,6.52,0,0,1-2.5-1.82,7.56,7.56,0,0,1-1.45-2.87,14.13,14.13,0,0,1-.47-3.8,11.73,11.73,0,0,1,.47-3.33,8.53,8.53,0,0,1,1.45-2.87,7.19,7.19,0,0,1,2.47-2,7.71,7.71,0,0,1,3.52-.75,13.43,13.43,0,0,1,2.13.16,12.74,12.74,0,0,1,2.1.54v2.69a12.71,12.71,0,0,0-1.84-.67,8.08,8.08,0,0,0-2.19-.28,4.74,4.74,0,0,0-2.33.53,4.67,4.67,0,0,0-1.59,1.44,6.07,6.07,0,0,0-.91,2.1,11,11,0,0,0-.28,2.54,11.47,11.47,0,0,0,.26,2.47,6,6,0,0,0,.88,2.1,4.54,4.54,0,0,0,1.63,1.46A5.31,5.31,0,0,0,573.36,1240.12Z" transform="translate(-300.08 -1216.49)"/><path class="cls-1" d="M583.61,1227.69a7,7,0,0,1,2-2.26,4.57,4.57,0,0,1,2.82-1,8.16,8.16,0,0,1,1.08.08v2.37a4,4,0,0,0-.49,0h-.49a5.63,5.63,0,0,0-2.5.63,8.53,8.53,0,0,0-2.36,1.75v12.92h-2.91v-17.29h2.52Z" transform="translate(-300.08 -1216.49)"/><path class="cls-1" d="M593.66,1234.38a8.3,8.3,0,0,0,.28,2.18,5.26,5.26,0,0,0,.89,1.83,4.22,4.22,0,0,0,1.6,1.27,5.72,5.72,0,0,0,2.42.46,11.3,11.3,0,0,0,4.85-1.19v2.52a9.92,9.92,0,0,1-2.57.84,14.89,14.89,0,0,1-2.82.28,8.22,8.22,0,0,1-3.45-.67,6.42,6.42,0,0,1-2.4-1.85,7.63,7.63,0,0,1-1.38-2.85,14.5,14.5,0,0,1-.44-3.69,13.42,13.42,0,0,1,.44-3.46,8.55,8.55,0,0,1,1.33-2.87,6.71,6.71,0,0,1,2.24-2,6.52,6.52,0,0,1,3.17-.73,6.1,6.1,0,0,1,3,.68,5.76,5.76,0,0,1,2,1.82,7.58,7.58,0,0,1,1.1,2.64,14.4,14.4,0,0,1,.33,3.12v.95c0,.23,0,.47,0,.7Zm7.56-2.45a12.59,12.59,0,0,0-.14-1.86,4.42,4.42,0,0,0-.54-1.61,3.1,3.1,0,0,0-1.14-1.12,3.76,3.76,0,0,0-1.89-.42,3.2,3.2,0,0,0-1.58.39,3.76,3.76,0,0,0-1.19,1,5.22,5.22,0,0,0-.78,1.59,7.46,7.46,0,0,0-.32,2Z" transform="translate(-300.08 -1216.49)"/><path class="cls-1" d="M617.07,1242.18l-.32-1.4a10.06,10.06,0,0,1-1.92,1.23,5.7,5.7,0,0,1-2.58.56,5.35,5.35,0,0,1-3.94-1.42,5.29,5.29,0,0,1-1.43-3.94,6.34,6.34,0,0,1,.51-2.62,5.08,5.08,0,0,1,1.39-1.85,6,6,0,0,1,2.13-1.1,9.46,9.46,0,0,1,2.7-.37h3v-.93a3.61,3.61,0,0,0-.78-2.65,3.67,3.67,0,0,0-2.6-.75,11.36,11.36,0,0,0-2.35.28,14.71,14.71,0,0,0-2.28.67v-2.66a16,16,0,0,1,2.33-.51,17.82,17.82,0,0,1,2.75-.23,6.1,6.1,0,0,1,4.46,1.42,6,6,0,0,1,1.42,4.39v11.9Zm-.42-8.47h-2.84a4.82,4.82,0,0,0-2.89.75,2.92,2.92,0,0,0-1,2.52,3.21,3.21,0,0,0,.78,2.33,3.12,3.12,0,0,0,2.34.8,4.64,4.64,0,0,0,2-.44,7.21,7.21,0,0,0,1.61-1Z" transform="translate(-300.08 -1216.49)"/><path class="cls-1" d="M633.48,1237.39a5.45,5.45,0,0,1-.46,2.31,4.4,4.4,0,0,1-1.24,1.61,5.42,5.42,0,0,1-1.82.94,7.59,7.59,0,0,1-2.22.32,13.29,13.29,0,0,1-2.5-.25,11.41,11.41,0,0,1-2.47-.77v-2.66a18.11,18.11,0,0,0,2.23.86,8.23,8.23,0,0,0,2.47.37,4,4,0,0,0,2.15-.53,2,2,0,0,0,.85-1.81,2.31,2.31,0,0,0-.54-1.58,5.94,5.94,0,0,0-1.34-1.12,19.06,19.06,0,0,0-1.74-1,10.09,10.09,0,0,1-1.73-1.07,5.32,5.32,0,0,1-1.34-1.52,4.44,4.44,0,0,1-.54-2.31,4.58,4.58,0,0,1,.42-2,4.34,4.34,0,0,1,1.16-1.5,5.26,5.26,0,0,1,1.75-.95,7,7,0,0,1,2.21-.33,11.31,11.31,0,0,1,4.23.84v2.76a18.46,18.46,0,0,0-1.9-.8,6.31,6.31,0,0,0-2.14-.35,3.32,3.32,0,0,0-2,.53,1.79,1.79,0,0,0-.75,1.56,2.11,2.11,0,0,0,.53,1.47,5.76,5.76,0,0,0,1.34,1.06q.81.48,1.75.93a9.65,9.65,0,0,1,1.75,1.08,5.37,5.37,0,0,1,1.34,1.54A4.45,4.45,0,0,1,633.48,1237.39Z" transform="translate(-300.08 -1216.49)"/><path class="cls-1" d="M639,1234.38a8.3,8.3,0,0,0,.28,2.18,5.26,5.26,0,0,0,.89,1.83,4.22,4.22,0,0,0,1.6,1.27,5.72,5.72,0,0,0,2.42.46,11.3,11.3,0,0,0,4.85-1.19v2.52a9.92,9.92,0,0,1-2.57.84,14.89,14.89,0,0,1-2.82.28,8.22,8.22,0,0,1-3.45-.67,6.42,6.42,0,0,1-2.4-1.85,7.63,7.63,0,0,1-1.38-2.85,14.5,14.5,0,0,1-.44-3.69,13.42,13.42,0,0,1,.44-3.46,8.55,8.55,0,0,1,1.33-2.87,6.71,6.71,0,0,1,2.24-2,6.52,6.52,0,0,1,3.17-.73,6.1,6.1,0,0,1,3,.68,5.76,5.76,0,0,1,2,1.82,7.58,7.58,0,0,1,1.1,2.64,14.4,14.4,0,0,1,.33,3.12v.95c0,.23,0,.47,0,.7Zm7.56-2.45a12.59,12.59,0,0,0-.14-1.86,4.42,4.42,0,0,0-.54-1.61,3.1,3.1,0,0,0-1.14-1.12,3.76,3.76,0,0,0-1.89-.42,3.2,3.2,0,0,0-1.58.39,3.76,3.76,0,0,0-1.19,1,5.22,5.22,0,0,0-.78,1.59,7.46,7.46,0,0,0-.32,2Z" transform="translate(-300.08 -1216.49)"/><path class="cls-1" d="M662.88,1237.39a5.45,5.45,0,0,1-.46,2.31,4.4,4.4,0,0,1-1.24,1.61,5.42,5.42,0,0,1-1.82.94,7.59,7.59,0,0,1-2.22.32,13.29,13.29,0,0,1-2.5-.25,11.41,11.41,0,0,1-2.47-.77v-2.66a18.11,18.11,0,0,0,2.23.86,8.23,8.23,0,0,0,2.47.37,4,4,0,0,0,2.15-.53,2,2,0,0,0,.85-1.81,2.31,2.31,0,0,0-.54-1.58,5.94,5.94,0,0,0-1.34-1.12,19.06,19.06,0,0,0-1.74-1,10.09,10.09,0,0,1-1.73-1.07,5.32,5.32,0,0,1-1.34-1.52,4.44,4.44,0,0,1-.54-2.31,4.58,4.58,0,0,1,.42-2,4.34,4.34,0,0,1,1.16-1.5,5.26,5.26,0,0,1,1.75-.95,7,7,0,0,1,2.21-.33,11.31,11.31,0,0,1,4.23.84v2.76a18.46,18.46,0,0,0-1.9-.8,6.31,6.31,0,0,0-2.14-.35,3.32,3.32,0,0,0-2,.53,1.79,1.79,0,0,0-.75,1.56,2.11,2.11,0,0,0,.53,1.47,5.76,5.76,0,0,0,1.34,1.06q.81.48,1.75.93a9.65,9.65,0,0,1,1.75,1.08,5.37,5.37,0,0,1,1.34,1.54A4.45,4.45,0,0,1,662.88,1237.39Z" transform="translate(-300.08 -1216.49)"/><path class="cls-1" d="M687.35,1233.54a13.92,13.92,0,0,1-.42,3.48,8.33,8.33,0,0,1-1.33,2.87,6.48,6.48,0,0,1-2.31,2,8.35,8.35,0,0,1-6.77,0,6.43,6.43,0,0,1-2.33-2,8.31,8.31,0,0,1-1.33-2.87,14.43,14.43,0,0,1,0-6.91,8.7,8.7,0,0,1,1.31-2.91,6.39,6.39,0,0,1,2.31-2,8.3,8.3,0,0,1,6.83,0,6.39,6.39,0,0,1,2.31,2,8.7,8.7,0,0,1,1.31,2.91A13.85,13.85,0,0,1,687.35,1233.54Zm-3-.07a17.82,17.82,0,0,0-.16-2.37,6.1,6.1,0,0,0-.65-2.09,4.1,4.1,0,0,0-1.37-1.5,4.79,4.79,0,0,0-4.57,0,4.16,4.16,0,0,0-1.35,1.5,6.14,6.14,0,0,0-.65,2.09,18,18,0,0,0-.16,2.37,17.08,17.08,0,0,0,.17,2.46,6.59,6.59,0,0,0,.67,2.13,4,4,0,0,0,1.35,1.5,4.06,4.06,0,0,0,2.26.56,4.14,4.14,0,0,0,2.27-.56,3.77,3.77,0,0,0,1.35-1.5,6.88,6.88,0,0,0,.65-2.13A16.94,16.94,0,0,0,684.34,1233.47Z" transform="translate(-300.08 -1216.49)"/><path class="cls-1" d="M697.67,1216.67a12.74,12.74,0,0,1,1.45.09,11.51,11.51,0,0,1,1.21.19v2.45a7,7,0,0,0-1.21-.21q-.72-.07-1.42-.07a2.53,2.53,0,0,0-2.14.75,3.81,3.81,0,0,0-.56,2.28v2.75h4.93v2.45H695v14.84h-2.91v-14.84H689v-2.45h3.08v-2.62a4.84,4.84,0,0,1,5.57-5.6Z" transform="translate(-300.08 -1216.49)"/><path class="cls-1" d="M705,1240.15a2.3,2.3,0,0,1-.72,1.71,2.39,2.39,0,0,1-1.73.7,2.45,2.45,0,0,1-1.7-.65,2.26,2.26,0,0,1-.72-1.77,2.36,2.36,0,0,1,2.42-2.45,2.48,2.48,0,0,1,1.72.67A2.29,2.29,0,0,1,705,1240.15Z" transform="translate(-300.08 -1216.49)"/><path class="cls-1" d="M714.09,1240.15a2.3,2.3,0,0,1-.72,1.71,2.39,2.39,0,0,1-1.73.7,2.45,2.45,0,0,1-1.7-.65,2.26,2.26,0,0,1-.72-1.77,2.36,2.36,0,0,1,2.42-2.45,2.48,2.48,0,0,1,1.72.67A2.29,2.29,0,0,1,714.09,1240.15Z" transform="translate(-300.08 -1216.49)"/><path class="cls-1" d="M723.15,1240.15a2.3,2.3,0,0,1-.72,1.71,2.39,2.39,0,0,1-1.73.7,2.45,2.45,0,0,1-1.7-.65,2.26,2.26,0,0,1-.72-1.77,2.36,2.36,0,0,1,2.42-2.45,2.48,2.48,0,0,1,1.72.67A2.29,2.29,0,0,1,723.15,1240.15Z" transform="translate(-300.08 -1216.49)"/></svg>