<svg id="text" xmlns="http://www.w3.org/2000/svg" viewBox="0 0 192.07 55.56"><defs><style>.cls-1{fill:#004796;}.cls-2{fill:#3c3c3c;}</style></defs><path class="cls-1" d="M656.15,873a5.73,5.73,0,0,1-.92,3.27,6.62,6.62,0,0,1-2.41,2.17,5.68,5.68,0,0,1,2.57,1.94,5.51,5.51,0,0,1,1.06,3.45,7.54,7.54,0,0,1-.63,3.15,6.66,6.66,0,0,1-1.77,2.35,7.79,7.79,0,0,1-2.77,1.48,12.24,12.24,0,0,1-3.65.51,19.76,19.76,0,0,1-3.15-.25,12.76,12.76,0,0,1-2.69-.71V885.5a15.88,15.88,0,0,0,2.68.71,14.75,14.75,0,0,0,2.54.25,7.68,7.68,0,0,0,1.42-.12,3.06,3.06,0,0,0,1.16-.45,2.46,2.46,0,0,0,.78-.84,2.66,2.66,0,0,0,.29-1.33,2.28,2.28,0,0,0-.88-2,4.64,4.64,0,0,0-2.63-.61H644v-4.79h3.09a4.55,4.55,0,0,0,1.28-.18,3.35,3.35,0,0,0,1.06-.51,2.53,2.53,0,0,0,.71-.8,2.11,2.11,0,0,0,.26-1,1.65,1.65,0,0,0-.93-1.64,5.18,5.18,0,0,0-2.26-.45,10.34,10.34,0,0,0-1.92.23,14.58,14.58,0,0,0-2.57.79v-5a16,16,0,0,1,2.82-.64,22.8,22.8,0,0,1,3.15-.21,11.85,11.85,0,0,1,2.84.33,7,7,0,0,1,2.39,1.06,5.27,5.27,0,0,1,1.65,1.89A6,6,0,0,1,656.15,873Z" transform="translate(-614.55 -866.86)"/><path class="cls-1" d="M675.56,882.83a9.71,9.71,0,0,1-.59,3.5,8,8,0,0,1-1.63,2.66,7.05,7.05,0,0,1-2.48,1.7,8.16,8.16,0,0,1-3.15.59,7.23,7.23,0,0,1-6.35-3.28,10.49,10.49,0,0,1-1.47-3.43,17.19,17.19,0,0,1-.46-4q0-1.52.13-3.13a18.32,18.32,0,0,1,.53-3.13,12.5,12.5,0,0,1,1.14-2.87,8.17,8.17,0,0,1,1.95-2.36,9.12,9.12,0,0,1,3-1.6,13,13,0,0,1,4.16-.59,10.57,10.57,0,0,1,3.23.5v4.85a14.09,14.09,0,0,0-1.61-.38,10.55,10.55,0,0,0-1.81-.15,6.32,6.32,0,0,0-2.25.34,3.35,3.35,0,0,0-1.41,1,4.13,4.13,0,0,0-.78,1.55,11.56,11.56,0,0,0-.35,2.07,6.41,6.41,0,0,1,1.46-.86,5.42,5.42,0,0,1,2.19-.4,6.66,6.66,0,0,1,2.79.56,6,6,0,0,1,2.08,1.55,6.86,6.86,0,0,1,1.29,2.36A9.55,9.55,0,0,1,675.56,882.83Zm-5.78.24a3.53,3.53,0,0,0-.57-2.05,2.22,2.22,0,0,0-2-.83,3.3,3.3,0,0,0-1.19.2,4.73,4.73,0,0,0-.82.4c0,.23,0,.46,0,.7v.73a10.65,10.65,0,0,0,.11,1.53,5.31,5.31,0,0,0,.37,1.36,2.6,2.6,0,0,0,.71,1,1.71,1.71,0,0,0,1.13.37,2,2,0,0,0,1.67-.78A4.42,4.42,0,0,0,669.78,883.07Z" transform="translate(-614.55 -866.86)"/><path class="cls-1" d="M694.76,879.43a22.55,22.55,0,0,1-.4,4.16A12.09,12.09,0,0,1,693,887.4a8.22,8.22,0,0,1-2.61,2.79,7.26,7.26,0,0,1-4.11,1.09,6.81,6.81,0,0,1-4-1.09,8,8,0,0,1-2.49-2.79,12.26,12.26,0,0,1-1.29-3.79,24.21,24.21,0,0,1-.36-4.14,28.05,28.05,0,0,1,.36-4.49,13.13,13.13,0,0,1,1.32-4.06,8.06,8.06,0,0,1,2.59-2.94,7.22,7.22,0,0,1,4.17-1.12,6.6,6.6,0,0,1,3.94,1.12,8.16,8.16,0,0,1,2.51,2.94,13.75,13.75,0,0,1,1.32,4.06A26.7,26.7,0,0,1,694.76,879.43Zm-5.78-.07q0-1.12,0-2.46a14.7,14.7,0,0,0-.3-2.51,5.86,5.86,0,0,0-.74-1.95,1.59,1.59,0,0,0-1.42-.78,1.51,1.51,0,0,0-1.32.78,6.37,6.37,0,0,0-.78,1.95,14.57,14.57,0,0,0-.36,2.51q-.08,1.34-.08,2.46t.08,2.47a11.4,11.4,0,0,0,.36,2.28,5,5,0,0,0,.78,1.68,1.57,1.57,0,0,0,1.32.66,1.67,1.67,0,0,0,1.42-.66,4.56,4.56,0,0,0,.74-1.68,11.59,11.59,0,0,0,.3-2.28Q689,880.58,689,879.36Z" transform="translate(-614.55 -866.86)"/><path class="cls-1" d="M697.37,895.4a11.84,11.84,0,0,0,1.58-2.1,14.92,14.92,0,0,0,1.06-2.19,2.78,2.78,0,0,1-2.31-2.94,3.13,3.13,0,0,1,.92-2.31,3.83,3.83,0,0,1,5.07.07,3.31,3.31,0,0,1,.91,2.31,7.06,7.06,0,0,1-.26,1.88,11.66,11.66,0,0,1-.71,1.9,18.09,18.09,0,0,1-1,1.82q-.54.87-1.07,1.57Z" transform="translate(-614.55 -866.86)"/><path class="cls-1" d="M724.13,879.43a22.55,22.55,0,0,1-.4,4.16,12.11,12.11,0,0,1-1.37,3.81,8.21,8.21,0,0,1-2.61,2.79,7.26,7.26,0,0,1-4.11,1.09,6.81,6.81,0,0,1-4-1.09,8,8,0,0,1-2.49-2.79,12.26,12.26,0,0,1-1.29-3.79,24.2,24.2,0,0,1-.36-4.14,28.05,28.05,0,0,1,.36-4.49,13.13,13.13,0,0,1,1.32-4.06,8.06,8.06,0,0,1,2.59-2.94,7.22,7.22,0,0,1,4.17-1.12,6.61,6.61,0,0,1,3.94,1.12,8.17,8.17,0,0,1,2.51,2.94,13.78,13.78,0,0,1,1.32,4.06A26.8,26.8,0,0,1,724.13,879.43Zm-5.77-.07q0-1.12,0-2.46a14.8,14.8,0,0,0-.3-2.51,5.86,5.86,0,0,0-.74-1.95,1.59,1.59,0,0,0-1.42-.78,1.51,1.51,0,0,0-1.32.78,6.37,6.37,0,0,0-.78,1.95,14.57,14.57,0,0,0-.36,2.51q-.08,1.34-.08,2.46t.08,2.47a11.4,11.4,0,0,0,.36,2.28,5,5,0,0,0,.78,1.68,1.57,1.57,0,0,0,1.32.66,1.67,1.67,0,0,0,1.42-.66,4.56,4.56,0,0,0,.74-1.68,11.66,11.66,0,0,0,.3-2.28Q718.36,880.58,718.36,879.36Z" transform="translate(-614.55 -866.86)"/><path class="cls-1" d="M743.11,879.43a22.55,22.55,0,0,1-.4,4.16,12.09,12.09,0,0,1-1.37,3.81,8.22,8.22,0,0,1-2.61,2.79,7.26,7.26,0,0,1-4.11,1.09,6.81,6.81,0,0,1-4-1.09,8,8,0,0,1-2.49-2.79,12.26,12.26,0,0,1-1.29-3.79,24.21,24.21,0,0,1-.36-4.14,28.05,28.05,0,0,1,.36-4.49,13.13,13.13,0,0,1,1.32-4.06,8.06,8.06,0,0,1,2.59-2.94,7.22,7.22,0,0,1,4.17-1.12A6.6,6.6,0,0,1,738.9,868a8.16,8.16,0,0,1,2.51,2.94,13.75,13.75,0,0,1,1.32,4.06A26.7,26.7,0,0,1,743.11,879.43Zm-5.78-.07q0-1.12,0-2.46a14.7,14.7,0,0,0-.3-2.51,5.86,5.86,0,0,0-.74-1.95,1.59,1.59,0,0,0-1.42-.78,1.51,1.51,0,0,0-1.32.78,6.37,6.37,0,0,0-.78,1.95,14.57,14.57,0,0,0-.36,2.51q-.08,1.34-.08,2.46t.08,2.47a11.4,11.4,0,0,0,.36,2.28,5,5,0,0,0,.78,1.68,1.57,1.57,0,0,0,1.32.66,1.67,1.67,0,0,0,1.42-.66,4.56,4.56,0,0,0,.74-1.68,11.59,11.59,0,0,0,.3-2.28Q737.33,880.58,737.33,879.36Z" transform="translate(-614.55 -866.86)"/><path class="cls-1" d="M762.08,879.43a22.55,22.55,0,0,1-.4,4.16,12.11,12.11,0,0,1-1.37,3.81,8.21,8.21,0,0,1-2.61,2.79,7.26,7.26,0,0,1-4.11,1.09,6.81,6.81,0,0,1-4-1.09,8,8,0,0,1-2.49-2.79,12.26,12.26,0,0,1-1.29-3.79,24.2,24.2,0,0,1-.36-4.14,28.05,28.05,0,0,1,.36-4.49,13.13,13.13,0,0,1,1.32-4.06,8.06,8.06,0,0,1,2.59-2.94,7.22,7.22,0,0,1,4.17-1.12,6.61,6.61,0,0,1,3.94,1.12,8.17,8.17,0,0,1,2.51,2.94A13.78,13.78,0,0,1,761.7,875,26.8,26.8,0,0,1,762.08,879.43Zm-5.77-.07q0-1.12,0-2.46a14.8,14.8,0,0,0-.3-2.51,5.86,5.86,0,0,0-.74-1.95,1.59,1.59,0,0,0-1.42-.78,1.51,1.51,0,0,0-1.32.78,6.37,6.37,0,0,0-.78,1.95,14.57,14.57,0,0,0-.36,2.51q-.08,1.34-.08,2.46t.08,2.47a11.4,11.4,0,0,0,.36,2.28,5,5,0,0,0,.78,1.68,1.57,1.57,0,0,0,1.32.66,1.67,1.67,0,0,0,1.42-.66,4.56,4.56,0,0,0,.74-1.68,11.66,11.66,0,0,0,.3-2.28Q756.31,880.58,756.31,879.36Z" transform="translate(-614.55 -866.86)"/><path class="cls-1" d="M775,877.85h5.58v4.42H775v5.58h-4.65v-5.58H765v-4.42h5.38v-5.58H775Z" transform="translate(-614.55 -866.86)"/><path class="cls-2" d="M620,917a5.31,5.31,0,0,0,1.38-.17,13.7,13.7,0,0,0,1.31-.43V918a6.35,6.35,0,0,1-1.35.4,8,8,0,0,1-1.53.15,6.05,6.05,0,0,1-2.38-.43,4.28,4.28,0,0,1-1.64-1.2,5,5,0,0,1-1-1.89,9.3,9.3,0,0,1-.31-2.5,7.72,7.72,0,0,1,.31-2.18,5.62,5.62,0,0,1,1-1.89,4.72,4.72,0,0,1,1.62-1.32,5.07,5.07,0,0,1,2.31-.49,8.82,8.82,0,0,1,1.4.1,8.23,8.23,0,0,1,1.38.36v1.77a8.39,8.39,0,0,0-1.21-.44,5.3,5.3,0,0,0-1.44-.18,3,3,0,0,0-2.58,1.3,4,4,0,0,0-.6,1.38,7.26,7.26,0,0,0-.18,1.67,7.51,7.51,0,0,0,.17,1.62,4,4,0,0,0,.58,1.38,3,3,0,0,0,1.07,1A3.48,3.48,0,0,0,620,917Z" transform="translate(-614.55 -866.86)"/><path class="cls-2" d="M633.82,912.67a9.15,9.15,0,0,1-.28,2.29,5.48,5.48,0,0,1-.87,1.89,4.26,4.26,0,0,1-1.52,1.29,5.48,5.48,0,0,1-4.45,0,4.22,4.22,0,0,1-1.53-1.29,5.44,5.44,0,0,1-.87-1.89,9.47,9.47,0,0,1,0-4.54,5.71,5.71,0,0,1,.86-1.91,4.19,4.19,0,0,1,1.52-1.31,5.45,5.45,0,0,1,4.49,0,4.2,4.2,0,0,1,1.52,1.31,5.73,5.73,0,0,1,.86,1.91A9.09,9.09,0,0,1,633.82,912.67Zm-2,0a11.72,11.72,0,0,0-.1-1.56,4,4,0,0,0-.43-1.38,2.7,2.7,0,0,0-.9-1,3.14,3.14,0,0,0-3,0,2.73,2.73,0,0,0-.89,1,4,4,0,0,0-.42,1.38,11.72,11.72,0,0,0-.1,1.56,11.25,11.25,0,0,0,.11,1.62,4.33,4.33,0,0,0,.44,1.4,2.6,2.6,0,0,0,.89,1,2.67,2.67,0,0,0,1.48.37,2.73,2.73,0,0,0,1.5-.37,2.48,2.48,0,0,0,.88-1,4.53,4.53,0,0,0,.43-1.4A11.11,11.11,0,0,0,631.84,912.62Z" transform="translate(-614.55 -866.86)"/><path class="cls-2" d="M644.49,918.35h-1.91v-7.69a3.49,3.49,0,0,0-.36-1.7,1.43,1.43,0,0,0-1.37-.64,2.34,2.34,0,0,0-1.39.5,10.64,10.64,0,0,0-1.25,1.07v8.46h-1.91V907h1.63l.23,1.43a8.64,8.64,0,0,1,1.41-1.18,3.16,3.16,0,0,1,1.81-.52,2.72,2.72,0,0,1,2.74,1.72,8.58,8.58,0,0,1,1.66-1.23,3.69,3.69,0,0,1,1.84-.49,2.93,2.93,0,0,1,2.35.93,3.61,3.61,0,0,1,.8,2.45v8.26h-1.91v-7.69a5.94,5.94,0,0,0-.07-.94,2,2,0,0,0-.26-.74,1.35,1.35,0,0,0-.53-.49,1.87,1.87,0,0,0-.86-.17,2.81,2.81,0,0,0-1.39.41,6.63,6.63,0,0,0-1.3,1,3.21,3.21,0,0,1,0,.34c0,.13,0,.24,0,.34Z" transform="translate(-614.55 -866.86)"/><path class="cls-2" d="M663.22,912.48a10.33,10.33,0,0,1-.26,2.38,5.67,5.67,0,0,1-.84,1.94,4.14,4.14,0,0,1-1.48,1.31,4.54,4.54,0,0,1-2.17.48,3.52,3.52,0,0,1-2.61-1v4.65h-1.93V907h1.61l.28,1.2a6.36,6.36,0,0,1,1.36-1,3.58,3.58,0,0,1,1.8-.44,4,4,0,0,1,2,.46,3.74,3.74,0,0,1,1.32,1.24,5.35,5.35,0,0,1,.72,1.83A11,11,0,0,1,663.22,912.48Zm-2,.09a9.74,9.74,0,0,0-.13-1.58,4.33,4.33,0,0,0-.45-1.36,2.65,2.65,0,0,0-.86-1,2.36,2.36,0,0,0-1.34-.36,2.84,2.84,0,0,0-1.42.39,6.12,6.12,0,0,0-1.21.9v6.46a3.56,3.56,0,0,0,1.1.67,3.64,3.64,0,0,0,1.35.25,2.65,2.65,0,0,0,1.46-.37,2.69,2.69,0,0,0,.91-1,4.28,4.28,0,0,0,.46-1.41A10.71,10.71,0,0,0,661.24,912.57Z" transform="translate(-614.55 -866.86)"/><path class="cls-2" d="M666.94,913.22a5.46,5.46,0,0,0,.18,1.43,3.45,3.45,0,0,0,.58,1.21,2.76,2.76,0,0,0,1.05.83,3.75,3.75,0,0,0,1.59.3,7.42,7.42,0,0,0,3.19-.78v1.66a6.53,6.53,0,0,1-1.69.55,9.83,9.83,0,0,1-1.85.18,5.41,5.41,0,0,1-2.27-.44,4.22,4.22,0,0,1-1.58-1.22,5,5,0,0,1-.91-1.87,9.5,9.5,0,0,1-.29-2.43,8.8,8.8,0,0,1,.29-2.28,5.62,5.62,0,0,1,.87-1.89,4.41,4.41,0,0,1,1.47-1.29,4.29,4.29,0,0,1,2.08-.48,4,4,0,0,1,2,.45,3.78,3.78,0,0,1,1.31,1.2,5,5,0,0,1,.72,1.74,9.47,9.47,0,0,1,.22,2v.62a4.53,4.53,0,0,1,0,.46Zm5-1.61a8.29,8.29,0,0,0-.09-1.22,2.88,2.88,0,0,0-.36-1.06,2,2,0,0,0-.75-.73,2.46,2.46,0,0,0-1.24-.28,2.11,2.11,0,0,0-1,.26,2.49,2.49,0,0,0-.78.69,3.42,3.42,0,0,0-.51,1,4.88,4.88,0,0,0-.21,1.3Z" transform="translate(-614.55 -866.86)"/><path class="cls-2" d="M679,907h3v1.61h-3v6.71a1.91,1.91,0,0,0,.36,1.28,1.61,1.61,0,0,0,1.25.4,4.35,4.35,0,0,0,.94-.09,4.85,4.85,0,0,0,.81-.25v1.61a5,5,0,0,1-1,.26,7.87,7.87,0,0,1-1.09.08,3.4,3.4,0,0,1-2.37-.7,3,3,0,0,1-.76-2.29v-7H675V907h2.14v-3.06H679Z" transform="translate(-614.55 -866.86)"/><path class="cls-2" d="M684.05,902.78a1.28,1.28,0,0,1,.38-.92,1.23,1.23,0,0,1,.92-.39,1.31,1.31,0,0,1,0,2.62,1.23,1.23,0,0,1-.92-.39A1.28,1.28,0,0,1,684.05,902.78Zm2.28,15.57h-1.91V907h1.91Z" transform="translate(-614.55 -866.86)"/><path class="cls-2" d="M692.22,907h3v1.61h-3v6.71a1.91,1.91,0,0,0,.36,1.28,1.61,1.61,0,0,0,1.25.4,4.35,4.35,0,0,0,.94-.09,4.85,4.85,0,0,0,.81-.25v1.61a5,5,0,0,1-1,.26,7.87,7.87,0,0,1-1.09.08,3.4,3.4,0,0,1-2.37-.7,3,3,0,0,1-.76-2.29v-7h-2.14V907h2.14v-3.06h1.91Z" transform="translate(-614.55 -866.86)"/><path class="cls-2" d="M706.32,912.67A9.15,9.15,0,0,1,706,915a5.48,5.48,0,0,1-.87,1.89,4.26,4.26,0,0,1-1.52,1.29,5.48,5.48,0,0,1-4.45,0,4.22,4.22,0,0,1-1.53-1.29,5.44,5.44,0,0,1-.87-1.89,9.47,9.47,0,0,1,0-4.54,5.71,5.71,0,0,1,.86-1.91,4.19,4.19,0,0,1,1.52-1.31,5.45,5.45,0,0,1,4.49,0,4.2,4.2,0,0,1,1.52,1.31,5.73,5.73,0,0,1,.86,1.91A9.09,9.09,0,0,1,706.32,912.67Zm-2,0a11.72,11.72,0,0,0-.1-1.56,4,4,0,0,0-.43-1.38,2.7,2.7,0,0,0-.9-1,3.14,3.14,0,0,0-3,0,2.73,2.73,0,0,0-.89,1,4,4,0,0,0-.42,1.38,11.72,11.72,0,0,0-.1,1.56,11.25,11.25,0,0,0,.11,1.62,4.33,4.33,0,0,0,.44,1.4,2.6,2.6,0,0,0,.89,1,2.67,2.67,0,0,0,1.48.37,2.73,2.73,0,0,0,1.5-.37,2.48,2.48,0,0,0,.88-1,4.53,4.53,0,0,0,.43-1.4A11.11,11.11,0,0,0,704.34,912.62Z" transform="translate(-614.55 -866.86)"/><path class="cls-2" d="M710.69,908.83a4.58,4.58,0,0,1,1.3-1.48,3,3,0,0,1,1.85-.63,5.38,5.38,0,0,1,.71.05v1.56l-.32,0h-.32a3.7,3.7,0,0,0-1.64.41,5.61,5.61,0,0,0-1.55,1.15v8.49H708.8V907h1.66Z" transform="translate(-614.55 -866.86)"/><path class="cls-2" d="M720.62,902.78a1.28,1.28,0,0,1,.38-.92,1.23,1.23,0,0,1,.92-.39,1.31,1.31,0,0,1,0,2.62,1.23,1.23,0,0,1-.92-.39A1.28,1.28,0,0,1,720.62,902.78Zm2.28,15.57H721V907h1.91Z" transform="translate(-614.55 -866.86)"/><path class="cls-2" d="M734.75,918.35h-1.91v-7.69a2.94,2.94,0,0,0-.44-1.73,1.76,1.76,0,0,0-1.54-.61,2.75,2.75,0,0,0-1.56.5,6.56,6.56,0,0,0-1.27,1.09v8.44h-1.91V907h1.63l.23,1.4a6.82,6.82,0,0,1,1.59-1.25,3.8,3.8,0,0,1,1.84-.42,3.28,3.28,0,0,1,2.46.9,3.41,3.41,0,0,1,.87,2.48Z" transform="translate(-614.55 -866.86)"/><path class="cls-2" d="M744.06,915.2a3.58,3.58,0,0,1-.3,1.52,2.89,2.89,0,0,1-.82,1.06,3.55,3.55,0,0,1-1.2.62,5,5,0,0,1-1.46.21,8.72,8.72,0,0,1-1.64-.16,7.43,7.43,0,0,1-1.62-.51v-1.75a12,12,0,0,0,1.47.56,5.41,5.41,0,0,0,1.62.24,2.62,2.62,0,0,0,1.41-.35,1.29,1.29,0,0,0,.56-1.19,1.51,1.51,0,0,0-.36-1,3.92,3.92,0,0,0-.88-.73,12.92,12.92,0,0,0-1.14-.62,6.64,6.64,0,0,1-1.14-.7,3.52,3.52,0,0,1-.88-1,2.92,2.92,0,0,1-.36-1.52,3,3,0,0,1,.28-1.3,2.85,2.85,0,0,1,.76-1,3.48,3.48,0,0,1,1.15-.62,4.63,4.63,0,0,1,1.45-.22,7.44,7.44,0,0,1,2.78.55v1.82a12,12,0,0,0-1.25-.53,4.15,4.15,0,0,0-1.41-.23,2.18,2.18,0,0,0-1.28.35,1.17,1.17,0,0,0-.5,1,1.38,1.38,0,0,0,.35,1,3.77,3.77,0,0,0,.88.7q.53.31,1.15.61a6.38,6.38,0,0,1,1.15.71,3.54,3.54,0,0,1,.88,1A2.93,2.93,0,0,1,744.06,915.2Z" transform="translate(-614.55 -866.86)"/><path class="cls-2" d="M746.11,902.78a1.28,1.28,0,0,1,.38-.92,1.23,1.23,0,0,1,.92-.39,1.31,1.31,0,0,1,0,2.62,1.23,1.23,0,0,1-.92-.39A1.28,1.28,0,0,1,746.11,902.78Zm2.28,15.57h-1.91V907h1.91Z" transform="translate(-614.55 -866.86)"/><path class="cls-2" d="M760.16,918.07a4.06,4.06,0,0,1-1.24,3.33,5.36,5.36,0,0,1-3.47,1,15.76,15.76,0,0,1-1.87-.12,8.54,8.54,0,0,1-1.64-.34v-1.7a16,16,0,0,0,1.66.4,9.32,9.32,0,0,0,1.68.15,4,4,0,0,0,2.14-.51,2,2,0,0,0,.81-1.85V916.9a6.09,6.09,0,0,1-1.35.76,4.48,4.48,0,0,1-3.57-.15,4,4,0,0,1-1.38-1.2,5.25,5.25,0,0,1-.8-1.73,7.82,7.82,0,0,1-.26-2,9.49,9.49,0,0,1,.26-2.27,5.44,5.44,0,0,1,.83-1.86,4.07,4.07,0,0,1,1.42-1.25,4.29,4.29,0,0,1,2.05-.46,3.46,3.46,0,0,1,1.54.36,5,5,0,0,1,1.31.91l.23-1h1.65Zm-1.91-8.67a5.75,5.75,0,0,0-1.19-.77,3.11,3.11,0,0,0-1.37-.31,2.52,2.52,0,0,0-1.36.34,2.61,2.61,0,0,0-.87.9,3.92,3.92,0,0,0-.47,1.3,8.44,8.44,0,0,0-.14,1.54,8.3,8.3,0,0,0,.13,1.45,3.75,3.75,0,0,0,.46,1.27,2.49,2.49,0,0,0,.92.9,3,3,0,0,0,1.52.34,4,4,0,0,0,1.31-.23,3.13,3.13,0,0,0,1.08-.6Z" transform="translate(-614.55 -866.86)"/><path class="cls-2" d="M772,918.35h-1.91v-7.74a2.72,2.72,0,0,0-.46-1.71,2,2,0,0,0-1.63-.58,2.56,2.56,0,0,0-1.37.43,6.55,6.55,0,0,0-1.35,1.16v8.44H763.4V901.76h1.91v6.58a7.22,7.22,0,0,1,1.42-1.13,3.66,3.66,0,0,1,2-.51,3.28,3.28,0,0,1,2.46.9,3.41,3.41,0,0,1,.87,2.48Z" transform="translate(-614.55 -866.86)"/><path class="cls-2" d="M777.78,907h3v1.61h-3v6.71a1.91,1.91,0,0,0,.36,1.28,1.61,1.61,0,0,0,1.25.4,4.36,4.36,0,0,0,.94-.09,4.84,4.84,0,0,0,.8-.25v1.61a5,5,0,0,1-1,.26,7.86,7.86,0,0,1-1.09.08,3.4,3.4,0,0,1-2.37-.7,3,3,0,0,1-.76-2.29v-7h-2.14V907h2.14v-3.06h1.91Z" transform="translate(-614.55 -866.86)"/><path class="cls-2" d="M789.32,915.2a3.58,3.58,0,0,1-.3,1.52,2.88,2.88,0,0,1-.82,1.06,3.54,3.54,0,0,1-1.2.62,5,5,0,0,1-1.46.21,8.71,8.71,0,0,1-1.64-.16,7.43,7.43,0,0,1-1.62-.51v-1.75a12,12,0,0,0,1.47.56,5.4,5.4,0,0,0,1.62.24,2.63,2.63,0,0,0,1.41-.35,1.29,1.29,0,0,0,.56-1.19,1.51,1.51,0,0,0-.36-1,4,4,0,0,0-.88-.73,12.8,12.8,0,0,0-1.14-.62,6.63,6.63,0,0,1-1.14-.7,3.51,3.51,0,0,1-.88-1,2.91,2.91,0,0,1-.36-1.52,3,3,0,0,1,.28-1.3,2.87,2.87,0,0,1,.76-1,3.48,3.48,0,0,1,1.15-.62,4.63,4.63,0,0,1,1.45-.22,7.44,7.44,0,0,1,2.78.55v1.82a12.15,12.15,0,0,0-1.25-.53,4.15,4.15,0,0,0-1.41-.23,2.17,2.17,0,0,0-1.28.35,1.17,1.17,0,0,0-.5,1,1.38,1.38,0,0,0,.35,1,3.79,3.79,0,0,0,.88.7q.53.31,1.15.61a6.37,6.37,0,0,1,1.15.71,3.54,3.54,0,0,1,.88,1A2.92,2.92,0,0,1,789.32,915.2Z" transform="translate(-614.55 -866.86)"/><path class="cls-2" d="M794.71,917a1.51,1.51,0,0,1-.47,1.13,1.57,1.57,0,0,1-1.14.46,1.61,1.61,0,0,1-1.12-.43,1.48,1.48,0,0,1-.47-1.16,1.55,1.55,0,0,1,1.59-1.61,1.63,1.63,0,0,1,1.13.44A1.51,1.51,0,0,1,794.71,917Z" transform="translate(-614.55 -866.86)"/><path class="cls-2" d="M800.66,917a1.52,1.52,0,0,1-.47,1.13,1.57,1.57,0,0,1-1.14.46,1.61,1.61,0,0,1-1.12-.43,1.48,1.48,0,0,1-.47-1.16,1.55,1.55,0,0,1,1.59-1.61,1.63,1.63,0,0,1,1.13.44A1.5,1.5,0,0,1,800.66,917Z" transform="translate(-614.55 -866.86)"/><path class="cls-2" d="M806.62,917a1.51,1.51,0,0,1-.47,1.13,1.57,1.57,0,0,1-1.14.46,1.61,1.61,0,0,1-1.12-.43,1.48,1.48,0,0,1-.47-1.16A1.55,1.55,0,0,1,805,915.4a1.63,1.63,0,0,1,1.13.44A1.51,1.51,0,0,1,806.62,917Z" transform="translate(-614.55 -866.86)"/></svg>