<svg id="text" xmlns="http://www.w3.org/2000/svg" viewBox="0 0 365.67 48.41"><defs><style>.cls-1{fill:#004796;}.cls-2{fill:#282828;}</style></defs><path class="cls-1" d="M338.47,1937.49H334l-1.1,3.93h-4.14l5.66-16.58h3.84l5.45,16.58h-4.14Zm-3.63-3.29h2.77l-1.34-4.9Z" transform="translate(-328.73 -1924.08)"/><path class="cls-1" d="M348.93,1941.42H345v-16.58h3.91Z" transform="translate(-328.73 -1924.08)"/><path class="cls-1" d="M355.35,1941.42h-3.91v-16.58h3.91Z" transform="translate(-328.73 -1924.08)"/><path class="cls-1" d="M367.54,1938.46a8.83,8.83,0,0,0,1.25-.08,7.06,7.06,0,0,0,1.39-.38v3.24a6.86,6.86,0,0,1-1.46.34,12.12,12.12,0,0,1-1.46.09,6,6,0,0,1-4.43-1.5,6.15,6.15,0,0,1-1.48-4.51,7.56,7.56,0,0,1,.33-2.22,5.61,5.61,0,0,1,1-2,5.32,5.32,0,0,1,1.81-1.39,5.94,5.94,0,0,1,2.61-.53,11.54,11.54,0,0,1,1.46.09,9.91,9.91,0,0,1,1.39.28v3.27a6,6,0,0,0-1.12-.32,6.13,6.13,0,0,0-1-.09,2.61,2.61,0,0,0-2,.7,3,3,0,0,0-.68,2.14,3.37,3.37,0,0,0,.57,2A2.06,2.06,0,0,0,367.54,1938.46Z" transform="translate(-328.73 -1924.08)"/><path class="cls-1" d="M371.84,1929.95h3.91v7.57a.92.92,0,0,0,.29.77,1.22,1.22,0,0,0,.77.22l.43,0a1.7,1.7,0,0,0,.45-.13v-8.39h3.91v11.48h-3.1l-.3-1.26a3.86,3.86,0,0,1-1.44,1.18,3.92,3.92,0,0,1-1.65.38,3.16,3.16,0,0,1-1.27-.25,3,3,0,0,1-1-.74,3.44,3.44,0,0,1-.7-1.17,4.53,4.53,0,0,1-.25-1.56Z" transform="translate(-328.73 -1924.08)"/><path class="cls-1" d="M383.82,1937.81a10.47,10.47,0,0,0,1.91.66,7,7,0,0,0,1.49.2q1,0,1-.57a.67.67,0,0,0-.35-.59,5,5,0,0,0-.86-.42l-1.12-.44a4.42,4.42,0,0,1-1.12-.64,3.4,3.4,0,0,1-.86-1,3.28,3.28,0,0,1-.35-1.61,3.19,3.19,0,0,1,.36-1.51,3.55,3.55,0,0,1,1-1.15,4.35,4.35,0,0,1,1.4-.72,5.64,5.64,0,0,1,1.7-.25,13.12,13.12,0,0,1,1.91.13,8,8,0,0,1,1.5.36v3.11a9,9,0,0,0-1.67-.46,7.9,7.9,0,0,0-1.21-.12q-1.1,0-1.1.51a.55.55,0,0,0,.34.48,9,9,0,0,0,.86.39l1.12.46a4.53,4.53,0,0,1,1.12.68,3.57,3.57,0,0,1,.86,1.06,3.58,3.58,0,0,1,0,3.09,3.58,3.58,0,0,1-1,1.18,4.88,4.88,0,0,1-1.52.78,6.27,6.27,0,0,1-1.94.29,11.69,11.69,0,0,1-1.74-.13,7.51,7.51,0,0,1-1.69-.47Z" transform="translate(-328.73 -1924.08)"/><path class="cls-1" d="M398.56,1929.95h2.83v3h-2.83v4a1.94,1.94,0,0,0,.26,1.15,1.2,1.2,0,0,0,1,.35,5.26,5.26,0,0,0,1-.08,5.62,5.62,0,0,0,.78-.2v3.13a6.21,6.21,0,0,1-1.35.29,13.47,13.47,0,0,1-1.4.08,6,6,0,0,1-1.67-.22,3.68,3.68,0,0,1-1.32-.67,3,3,0,0,1-.87-1.14,3.93,3.93,0,0,1-.31-1.63V1933h-2.28v-3h2.28V1927h3.91Z" transform="translate(-328.73 -1924.08)"/><path class="cls-1" d="M412.91,1935.65a8.72,8.72,0,0,1-.3,2.31,5.44,5.44,0,0,1-.94,1.92,4.55,4.55,0,0,1-1.64,1.31,5.48,5.48,0,0,1-2.4.48,5.54,5.54,0,0,1-2.43-.48,4.45,4.45,0,0,1-1.63-1.31,5.52,5.52,0,0,1-.93-1.92,8.7,8.7,0,0,1-.3-2.31,9.08,9.08,0,0,1,.29-2.3,5.49,5.49,0,0,1,.92-1.94,4.52,4.52,0,0,1,1.63-1.33,5.5,5.5,0,0,1,2.45-.49,5.44,5.44,0,0,1,2.43.49,4.62,4.62,0,0,1,1.64,1.33,5.4,5.4,0,0,1,.93,1.94A9.08,9.08,0,0,1,412.91,1935.65Zm-3.84,0q0-.52,0-1a3.24,3.24,0,0,0-.21-.9,1.66,1.66,0,0,0-.44-.64,1.24,1.24,0,0,0-1.49,0,1.66,1.66,0,0,0-.44.64,3.53,3.53,0,0,0-.22.9,8.55,8.55,0,0,0-.06,1,9,9,0,0,0,.06,1.06,3.72,3.72,0,0,0,.22.92,1.55,1.55,0,0,0,.44.64,1.29,1.29,0,0,0,1.49,0,1.55,1.55,0,0,0,.44-.64,3.41,3.41,0,0,0,.21-.92Q409.07,1936.14,409.07,1935.61Z" transform="translate(-328.73 -1924.08)"/><path class="cls-1" d="M429.68,1941.42h-3.91v-7.57a1.28,1.28,0,0,0-.19-.68.78.78,0,0,0-.72-.31,2.75,2.75,0,0,0-.43,0,1.39,1.39,0,0,0-.41.13v8.39h-3.93v-7.57a1.31,1.31,0,0,0-.18-.68.75.75,0,0,0-.7-.31,2.6,2.6,0,0,0-.42,0,1.32,1.32,0,0,0-.4.13v8.39h-3.91v-11.48h3.1l.32,1.38a4.14,4.14,0,0,1,1.47-1.25,3.71,3.71,0,0,1,1.67-.43,2.7,2.7,0,0,1,1.44.43,2.89,2.89,0,0,1,1.08,1.23,4.08,4.08,0,0,1,1.46-1.24,3.75,3.75,0,0,1,1.67-.41,2.62,2.62,0,0,1,1.12.25,2.84,2.84,0,0,1,1,.74,3.78,3.78,0,0,1,.67,1.17,4.52,4.52,0,0,1,.25,1.56Z" transform="translate(-328.73 -1924.08)"/><path class="cls-1" d="M435,1936.94a1.42,1.42,0,0,0,.68,1.31,3.75,3.75,0,0,0,1.94.41,7.81,7.81,0,0,0,1.62-.16,10.69,10.69,0,0,0,1.6-.48v3a7.14,7.14,0,0,1-1.59.46,10.25,10.25,0,0,1-1.82.16,6.81,6.81,0,0,1-4.69-1.43,5.81,5.81,0,0,1-1.59-4.53,8,8,0,0,1,.33-2.31,5.78,5.78,0,0,1,1-2,5,5,0,0,1,1.69-1.36,5.24,5.24,0,0,1,2.37-.51,4.79,4.79,0,0,1,2.16.45,3.94,3.94,0,0,1,1.46,1.23,5.18,5.18,0,0,1,.82,1.83,9.54,9.54,0,0,1,.25,2.24q0,.34,0,.78t-.06.83Zm2.74-2.32a3,3,0,0,0-.31-1.49,1,1,0,0,0-1-.53,1.21,1.21,0,0,0-.68.18,1.64,1.64,0,0,0-.46.47,2,2,0,0,0-.27.65,3.22,3.22,0,0,0-.08.72Z" transform="translate(-328.73 -1924.08)"/><path class="cls-1" d="M446.81,1932.09a5.85,5.85,0,0,1,.5-.9,4,4,0,0,1,.7-.78,3.34,3.34,0,0,1,.89-.55,2.78,2.78,0,0,1,1.09-.21,3,3,0,0,1,.78.09v3.66l-.56-.07-.47,0a4.32,4.32,0,0,0-1.51.29,3.35,3.35,0,0,0-1.23.75v7.08h-3.91v-11.48h3.33Z" transform="translate(-328.73 -1924.08)"/><path class="cls-1" d="M456.38,1926.06a1.89,1.89,0,0,1,.58-1.43,2.09,2.09,0,0,1,1.51-.55,2.13,2.13,0,0,1,1.52.55,2,2,0,0,1,0,2.85,2.13,2.13,0,0,1-1.52.55,2.09,2.09,0,0,1-1.51-.55A1.88,1.88,0,0,1,456.38,1926.06Zm4,15.36h-3.91v-11.48h3.91Z" transform="translate(-328.73 -1924.08)"/><path class="cls-1" d="M472.55,1941.42h-3.91V1934q0-1.11-1.06-1.11a2.84,2.84,0,0,0-.49,0,1.76,1.76,0,0,0-.49.16v8.35h-3.91v-11.48h3.1l.32,1.38a4.06,4.06,0,0,1,1.5-1.25,3.88,3.88,0,0,1,1.68-.43,3.1,3.1,0,0,1,1.39.3,3,3,0,0,1,1,.8,3.59,3.59,0,0,1,.63,1.18,4.67,4.67,0,0,1,.22,1.44Z" transform="translate(-328.73 -1924.08)"/><path class="cls-1" d="M480.29,1924.66a11,11,0,0,1,1.34.08,9.08,9.08,0,0,1,1.18.22v3.22a3.77,3.77,0,0,0-.87-.24,5.59,5.59,0,0,0-.76-.06,1.74,1.74,0,0,0-1.1.29,1.23,1.23,0,0,0-.37,1v.76h2.85v3H479.7v8.46h-3.91V1933H474v-3h1.86v-1.4a3.52,3.52,0,0,1,1.18-3A5.25,5.25,0,0,1,480.29,1924.66Z" transform="translate(-328.73 -1924.08)"/><path class="cls-1" d="M493.5,1935.65a8.72,8.72,0,0,1-.3,2.31,5.44,5.44,0,0,1-.94,1.92,4.55,4.55,0,0,1-1.64,1.31,5.48,5.48,0,0,1-2.4.48,5.54,5.54,0,0,1-2.43-.48,4.45,4.45,0,0,1-1.63-1.31,5.52,5.52,0,0,1-.93-1.92,8.7,8.7,0,0,1-.3-2.31,9.08,9.08,0,0,1,.29-2.3,5.49,5.49,0,0,1,.92-1.94,4.52,4.52,0,0,1,1.63-1.33,5.5,5.5,0,0,1,2.45-.49,5.44,5.44,0,0,1,2.43.49,4.62,4.62,0,0,1,1.64,1.33,5.4,5.4,0,0,1,.93,1.94A9.08,9.08,0,0,1,493.5,1935.65Zm-3.84,0q0-.52,0-1a3.24,3.24,0,0,0-.21-.9,1.66,1.66,0,0,0-.44-.64,1.24,1.24,0,0,0-1.49,0,1.66,1.66,0,0,0-.44.64,3.53,3.53,0,0,0-.22.9,8.55,8.55,0,0,0-.06,1,9,9,0,0,0,.06,1.06,3.72,3.72,0,0,0,.22.92,1.55,1.55,0,0,0,.44.64,1.29,1.29,0,0,0,1.49,0,1.55,1.55,0,0,0,.44-.64,3.41,3.41,0,0,0,.21-.92Q489.66,1936.14,489.66,1935.61Z" transform="translate(-328.73 -1924.08)"/><path class="cls-1" d="M498.79,1932.09a5.85,5.85,0,0,1,.5-.9,4,4,0,0,1,.7-.78,3.34,3.34,0,0,1,.89-.55,2.78,2.78,0,0,1,1.09-.21,3,3,0,0,1,.78.09v3.66l-.56-.07-.47,0a4.32,4.32,0,0,0-1.51.29,3.35,3.35,0,0,0-1.23.75v7.08h-3.91v-11.48h3.33Z" transform="translate(-328.73 -1924.08)"/><path class="cls-1" d="M519.36,1941.42h-3.91v-7.57a1.29,1.29,0,0,0-.19-.68.78.78,0,0,0-.72-.31,2.75,2.75,0,0,0-.43,0,1.38,1.38,0,0,0-.41.13v8.39h-3.93v-7.57a1.31,1.31,0,0,0-.18-.68.75.75,0,0,0-.7-.31,2.6,2.6,0,0,0-.42,0,1.32,1.32,0,0,0-.4.13v8.39h-3.91v-11.48h3.1l.32,1.38a4.14,4.14,0,0,1,1.47-1.25,3.71,3.71,0,0,1,1.67-.43,2.7,2.7,0,0,1,1.44.43,2.89,2.89,0,0,1,1.08,1.23,4.08,4.08,0,0,1,1.46-1.24,3.76,3.76,0,0,1,1.67-.41,2.61,2.61,0,0,1,1.12.25,2.83,2.83,0,0,1,1,.74,3.78,3.78,0,0,1,.67,1.17,4.52,4.52,0,0,1,.25,1.56Z" transform="translate(-328.73 -1924.08)"/><path class="cls-1" d="M530.56,1941.42h-3.33l-.25-1a4,4,0,0,1-.32.33,3.35,3.35,0,0,1-.52.39,3,3,0,0,1-.74.32,3.55,3.55,0,0,1-1,.13,3.92,3.92,0,0,1-1.31-.22,2.91,2.91,0,0,1-1.08-.67,3.25,3.25,0,0,1-.74-1.13A4.3,4.3,0,0,1,521,1938a3.67,3.67,0,0,1,.38-1.76,3,3,0,0,1,1-1.13,4.42,4.42,0,0,1,1.54-.6,9.71,9.71,0,0,1,1.89-.17h.78v-.39a1.18,1.18,0,0,0-.16-.66,1.07,1.07,0,0,0-.41-.37,1.65,1.65,0,0,0-.55-.16,5,5,0,0,0-.58,0,7.91,7.91,0,0,0-1.29.12,9.5,9.5,0,0,0-1.5.39v-3l.84-.18,1-.16c.34,0,.67-.08,1-.1s.62,0,.9,0a7.73,7.73,0,0,1,2,.23,3.92,3.92,0,0,1,1.48.72,3.24,3.24,0,0,1,.94,1.3,5.12,5.12,0,0,1,.33,2Zm-3.91-4.81H526q-1.26,0-1.26,1a1.1,1.1,0,0,0,.23.7.85.85,0,0,0,.71.3,1.67,1.67,0,0,0,.53-.09,1.59,1.59,0,0,0,.46-.23Z" transform="translate(-328.73 -1924.08)"/><path class="cls-1" d="M537.92,1929.95h2.83v3h-2.83v4a1.94,1.94,0,0,0,.26,1.15,1.2,1.2,0,0,0,1,.35,5.25,5.25,0,0,0,1-.08,5.64,5.64,0,0,0,.78-.2v3.13a6.21,6.21,0,0,1-1.35.29,13.48,13.48,0,0,1-1.4.08,6.05,6.05,0,0,1-1.67-.22,3.68,3.68,0,0,1-1.32-.67,3,3,0,0,1-.87-1.14A3.92,3.92,0,0,1,534,1938V1933h-2.28v-3H534V1927h3.91Z" transform="translate(-328.73 -1924.08)"/><path class="cls-1" d="M542.7,1926.06a1.89,1.89,0,0,1,.58-1.43,2.09,2.09,0,0,1,1.51-.55,2.13,2.13,0,0,1,1.52.55,2,2,0,0,1,0,2.85,2.13,2.13,0,0,1-1.52.55,2.09,2.09,0,0,1-1.51-.55A1.89,1.89,0,0,1,542.7,1926.06Zm4,15.36h-3.91v-11.48h3.91Z" transform="translate(-328.73 -1924.08)"/><path class="cls-1" d="M559,1935.65a8.72,8.72,0,0,1-.3,2.31,5.43,5.43,0,0,1-.94,1.92,4.55,4.55,0,0,1-1.64,1.31,6.27,6.27,0,0,1-4.83,0,4.45,4.45,0,0,1-1.63-1.31,5.51,5.51,0,0,1-.93-1.92,8.68,8.68,0,0,1-.3-2.31,9.06,9.06,0,0,1,.29-2.3,5.49,5.49,0,0,1,.92-1.94,4.51,4.51,0,0,1,1.63-1.33,5.5,5.5,0,0,1,2.45-.49,5.44,5.44,0,0,1,2.43.49,4.62,4.62,0,0,1,1.64,1.33,5.41,5.41,0,0,1,.93,1.94A9.1,9.1,0,0,1,559,1935.65Zm-3.84,0q0-.52,0-1a3.22,3.22,0,0,0-.21-.9,1.65,1.65,0,0,0-.44-.64,1.24,1.24,0,0,0-1.49,0,1.66,1.66,0,0,0-.44.64,3.51,3.51,0,0,0-.22.9,8.45,8.45,0,0,0-.06,1,8.93,8.93,0,0,0,.06,1.06,3.7,3.7,0,0,0,.22.92,1.55,1.55,0,0,0,.44.64,1.29,1.29,0,0,0,1.49,0,1.54,1.54,0,0,0,.44-.64,3.39,3.39,0,0,0,.21-.92Q555.19,1936.14,555.19,1935.61Z" transform="translate(-328.73 -1924.08)"/><path class="cls-1" d="M570.46,1941.42h-3.91V1934q0-1.11-1.06-1.11a2.83,2.83,0,0,0-.49,0,1.75,1.75,0,0,0-.5.16v8.35h-3.91v-11.48h3.1l.32,1.38a4.06,4.06,0,0,1,1.5-1.25,3.89,3.89,0,0,1,1.68-.43,3.1,3.1,0,0,1,1.39.3,3,3,0,0,1,1,.8,3.58,3.58,0,0,1,.63,1.18,4.67,4.67,0,0,1,.22,1.44Z" transform="translate(-328.73 -1924.08)"/><path class="cls-1" d="M576.62,1926.06a1.89,1.89,0,0,1,.58-1.43,2.09,2.09,0,0,1,1.51-.55,2.13,2.13,0,0,1,1.52.55,2,2,0,0,1,0,2.85,2.13,2.13,0,0,1-1.52.55,2.09,2.09,0,0,1-1.51-.55A1.89,1.89,0,0,1,576.62,1926.06Zm4,15.36h-3.91v-11.48h3.91Z" transform="translate(-328.73 -1924.08)"/><path class="cls-1" d="M592.79,1941.42h-3.91V1934q0-1.11-1.06-1.11a2.83,2.83,0,0,0-.49,0,1.75,1.75,0,0,0-.5.16v8.35h-3.91v-11.48H586l.32,1.38a4.06,4.06,0,0,1,1.5-1.25,3.89,3.89,0,0,1,1.68-.43,3.1,3.1,0,0,1,1.39.3,3,3,0,0,1,1,.8,3.58,3.58,0,0,1,.63,1.18,4.67,4.67,0,0,1,.22,1.44Z" transform="translate(-328.73 -1924.08)"/><path class="cls-1" d="M608.91,1935.65a8.72,8.72,0,0,1-.3,2.31,5.44,5.44,0,0,1-.94,1.92,4.55,4.55,0,0,1-1.64,1.31,5.48,5.48,0,0,1-2.4.48,5.54,5.54,0,0,1-2.43-.48,4.45,4.45,0,0,1-1.63-1.31,5.52,5.52,0,0,1-.93-1.92,8.72,8.72,0,0,1-.3-2.31,9.1,9.1,0,0,1,.29-2.3,5.49,5.49,0,0,1,.92-1.94,4.52,4.52,0,0,1,1.63-1.33,6.26,6.26,0,0,1,4.88,0,4.62,4.62,0,0,1,1.64,1.33,5.39,5.39,0,0,1,.93,1.94A9.06,9.06,0,0,1,608.91,1935.65Zm-3.84,0q0-.52,0-1a3.25,3.25,0,0,0-.21-.9,1.67,1.67,0,0,0-.44-.64,1.24,1.24,0,0,0-1.49,0,1.65,1.65,0,0,0-.44.64,3.55,3.55,0,0,0-.22.9,8.65,8.65,0,0,0-.06,1,9.14,9.14,0,0,0,.06,1.06,3.74,3.74,0,0,0,.22.92,1.54,1.54,0,0,0,.44.64,1.29,1.29,0,0,0,1.49,0,1.56,1.56,0,0,0,.44-.64,3.42,3.42,0,0,0,.21-.92Q605.07,1936.14,605.07,1935.61Z" transform="translate(-328.73 -1924.08)"/><path class="cls-1" d="M620.34,1941.42h-3.91V1934q0-1.11-1.06-1.11a2.85,2.85,0,0,0-.5,0,1.76,1.76,0,0,0-.49.16v8.35h-3.91v-11.48h3.11l.32,1.38a4.06,4.06,0,0,1,1.5-1.25,3.88,3.88,0,0,1,1.68-.43,3.1,3.1,0,0,1,1.39.3,3,3,0,0,1,1,.8,3.59,3.59,0,0,1,.63,1.18,4.67,4.67,0,0,1,.22,1.44Z" transform="translate(-328.73 -1924.08)"/><path class="cls-1" d="M625.68,1936.94a1.42,1.42,0,0,0,.68,1.31,3.75,3.75,0,0,0,1.94.41,7.82,7.82,0,0,0,1.62-.16,10.71,10.71,0,0,0,1.6-.48v3a7.15,7.15,0,0,1-1.59.46,10.26,10.26,0,0,1-1.82.16,6.81,6.81,0,0,1-4.69-1.43,5.81,5.81,0,0,1-1.59-4.53,8,8,0,0,1,.33-2.31,5.79,5.79,0,0,1,1-2,5,5,0,0,1,1.69-1.36,5.24,5.24,0,0,1,2.37-.51,4.79,4.79,0,0,1,2.16.45,3.93,3.93,0,0,1,1.46,1.23,5.19,5.19,0,0,1,.82,1.83,9.57,9.57,0,0,1,.25,2.24q0,.34,0,.78t-.06.83Zm2.74-2.32a3,3,0,0,0-.31-1.49,1,1,0,0,0-1-.53,1.21,1.21,0,0,0-.68.18,1.64,1.64,0,0,0-.46.47,2,2,0,0,0-.27.65,3.19,3.19,0,0,0-.08.72Z" transform="translate(-328.73 -1924.08)"/><path class="cls-1" d="M638.1,1945.33v-15.39h3l.28,1.17a3.84,3.84,0,0,1,3-1.47,3.7,3.7,0,0,1,2.11.56,4.09,4.09,0,0,1,1.31,1.44,6.17,6.17,0,0,1,.66,2,13.21,13.21,0,0,1,.18,2.16,8.86,8.86,0,0,1-.22,1.84,6.28,6.28,0,0,1-.74,1.9,4.57,4.57,0,0,1-1.39,1.47,4.22,4.22,0,0,1-3.38.4,3.94,3.94,0,0,1-1-.46v4.39Zm6.76-9.68a4.67,4.67,0,0,0-.37-2,1.27,1.27,0,0,0-1.24-.73,1.71,1.71,0,0,0-.71.14,2.65,2.65,0,0,0-.57.34v4.81a3.69,3.69,0,0,0,1.27.21,1.3,1.3,0,0,0,.77-.22,1.47,1.47,0,0,0,.49-.6,3.37,3.37,0,0,0,.26-.87A6.19,6.19,0,0,0,644.86,1935.65Z" transform="translate(-328.73 -1924.08)"/><path class="cls-1" d="M654.54,1941.42h-3.91v-16.58h3.91Z" transform="translate(-328.73 -1924.08)"/><path class="cls-1" d="M666.11,1941.42h-3.33l-.25-1a4,4,0,0,1-.32.33,3.35,3.35,0,0,1-.52.39,3,3,0,0,1-.74.32,3.55,3.55,0,0,1-1,.13,3.92,3.92,0,0,1-1.31-.22,2.91,2.91,0,0,1-1.08-.67,3.25,3.25,0,0,1-.74-1.13,4.3,4.3,0,0,1-.28-1.62,3.67,3.67,0,0,1,.38-1.76,3,3,0,0,1,1-1.13,4.42,4.42,0,0,1,1.54-.6,9.71,9.71,0,0,1,1.89-.17h.78v-.39a1.18,1.18,0,0,0-.16-.66,1.07,1.07,0,0,0-.41-.37,1.65,1.65,0,0,0-.55-.16,5,5,0,0,0-.58,0,7.91,7.91,0,0,0-1.29.12,9.5,9.5,0,0,0-1.5.39v-3l.84-.18,1-.16c.34,0,.67-.08,1-.1s.62,0,.9,0a7.73,7.73,0,0,1,2,.23,3.92,3.92,0,0,1,1.48.72,3.24,3.24,0,0,1,.94,1.3,5.12,5.12,0,0,1,.33,2Zm-3.91-4.81h-.67q-1.26,0-1.26,1a1.1,1.1,0,0,0,.23.7.85.85,0,0,0,.71.3,1.67,1.67,0,0,0,.53-.09,1.59,1.59,0,0,0,.46-.23Z" transform="translate(-328.73 -1924.08)"/><path class="cls-1" d="M673.82,1938.46a8.83,8.83,0,0,0,1.25-.08,7,7,0,0,0,1.39-.38v3.24a6.86,6.86,0,0,1-1.46.34,12.14,12.14,0,0,1-1.46.09,6,6,0,0,1-4.43-1.5,6.15,6.15,0,0,1-1.48-4.51,7.56,7.56,0,0,1,.33-2.22,5.6,5.6,0,0,1,1-2,5.32,5.32,0,0,1,1.81-1.39,5.94,5.94,0,0,1,2.61-.53,11.55,11.55,0,0,1,1.46.09,9.94,9.94,0,0,1,1.39.28v3.27a6,6,0,0,0-1.12-.32,6.13,6.13,0,0,0-1-.09,2.61,2.61,0,0,0-2,.7,3,3,0,0,0-.68,2.14,3.37,3.37,0,0,0,.57,2A2.06,2.06,0,0,0,673.82,1938.46Z" transform="translate(-328.73 -1924.08)"/><path class="cls-1" d="M681.36,1936.94a1.42,1.42,0,0,0,.68,1.31,3.75,3.75,0,0,0,1.94.41,7.82,7.82,0,0,0,1.62-.16,10.71,10.71,0,0,0,1.6-.48v3a7.15,7.15,0,0,1-1.59.46,10.26,10.26,0,0,1-1.82.16,6.81,6.81,0,0,1-4.69-1.43,5.81,5.81,0,0,1-1.59-4.53,8,8,0,0,1,.33-2.31,5.79,5.79,0,0,1,1-2,5,5,0,0,1,1.69-1.36,5.24,5.24,0,0,1,2.37-.51,4.79,4.79,0,0,1,2.16.45,3.93,3.93,0,0,1,1.46,1.23,5.19,5.19,0,0,1,.82,1.83,9.57,9.57,0,0,1,.25,2.24q0,.34,0,.78t-.06.83Zm2.74-2.32a3,3,0,0,0-.31-1.49,1,1,0,0,0-1-.53,1.21,1.21,0,0,0-.68.18,1.64,1.64,0,0,0-.46.47,2,2,0,0,0-.27.65,3.19,3.19,0,0,0-.08.72Z" transform="translate(-328.73 -1924.08)"/><path class="cls-1" d="M689.37,1944.55a8.2,8.2,0,0,0,1.1-1.46,10.51,10.51,0,0,0,.74-1.53,1.93,1.93,0,0,1-1.61-2,2.18,2.18,0,0,1,.64-1.61,2.42,2.42,0,0,1,4.16,1.66,4.94,4.94,0,0,1-.18,1.31,8.17,8.17,0,0,1-.49,1.32,12.64,12.64,0,0,1-.69,1.26q-.38.61-.75,1.09Z" transform="translate(-328.73 -1924.08)"/><path class="cls-2" d="M347.67,1968.42l-.21-.92a6.63,6.63,0,0,1-1.26.8,3.74,3.74,0,0,1-1.7.37,3.52,3.52,0,0,1-2.59-.93,3.48,3.48,0,0,1-.94-2.59,4.16,4.16,0,0,1,.33-1.73,3.33,3.33,0,0,1,.92-1.22,3.91,3.91,0,0,1,1.4-.72,6.22,6.22,0,0,1,1.78-.24h2v-.61a2.37,2.37,0,0,0-.52-1.74,2.42,2.42,0,0,0-1.71-.5,7.43,7.43,0,0,0-1.55.18,9.7,9.7,0,0,0-1.5.44v-1.75a10.63,10.63,0,0,1,1.53-.33,11.7,11.7,0,0,1,1.81-.15,4,4,0,0,1,2.93.93,3.93,3.93,0,0,1,.93,2.89v7.82Zm-.28-5.57h-1.87a3.17,3.17,0,0,0-1.9.49,1.92,1.92,0,0,0-.67,1.66,2.11,2.11,0,0,0,.51,1.53,2.05,2.05,0,0,0,1.54.53,3,3,0,0,0,1.33-.29,4.74,4.74,0,0,0,1.06-.68Z" transform="translate(-328.73 -1924.08)"/><path class="cls-2" d="M357,1967.07a5.31,5.31,0,0,0,1.38-.17,13.7,13.7,0,0,0,1.31-.43v1.66a6.34,6.34,0,0,1-1.35.4,8,8,0,0,1-1.53.15,6,6,0,0,1-2.38-.43,4.28,4.28,0,0,1-1.64-1.2,5,5,0,0,1-1-1.89,9.3,9.3,0,0,1-.31-2.5,7.72,7.72,0,0,1,.31-2.18,5.62,5.62,0,0,1,1-1.89,4.72,4.72,0,0,1,1.62-1.32,5.07,5.07,0,0,1,2.31-.49,8.83,8.83,0,0,1,1.4.1,8.26,8.26,0,0,1,1.38.36V1959a8.38,8.38,0,0,0-1.21-.44,5.29,5.29,0,0,0-1.44-.18,3.11,3.11,0,0,0-1.53.35,3.08,3.08,0,0,0-1,.95,4,4,0,0,0-.6,1.38,7.27,7.27,0,0,0-.18,1.67,7.54,7.54,0,0,0,.17,1.62,4,4,0,0,0,.58,1.38,3,3,0,0,0,1.07,1A3.48,3.48,0,0,0,357,1967.07Z" transform="translate(-328.73 -1924.08)"/><path class="cls-2" d="M366.5,1967.07a5.31,5.31,0,0,0,1.38-.17,13.7,13.7,0,0,0,1.31-.43v1.66a6.34,6.34,0,0,1-1.35.4,8,8,0,0,1-1.53.15,6,6,0,0,1-2.38-.43,4.28,4.28,0,0,1-1.64-1.2,5,5,0,0,1-1-1.89,9.3,9.3,0,0,1-.31-2.5,7.72,7.72,0,0,1,.31-2.18,5.62,5.62,0,0,1,1-1.89,4.72,4.72,0,0,1,1.62-1.32,5.07,5.07,0,0,1,2.31-.49,8.83,8.83,0,0,1,1.4.1,8.26,8.26,0,0,1,1.38.36V1959a8.38,8.38,0,0,0-1.21-.44,5.29,5.29,0,0,0-1.44-.18,3.11,3.11,0,0,0-1.53.35,3.08,3.08,0,0,0-1,.95,4,4,0,0,0-.6,1.38,7.27,7.27,0,0,0-.18,1.67,7.54,7.54,0,0,0,.17,1.62,4,4,0,0,0,.58,1.38,3,3,0,0,0,1.07,1A3.48,3.48,0,0,0,366.5,1967.07Z" transform="translate(-328.73 -1924.08)"/><path class="cls-2" d="M372.48,1963.29a5.46,5.46,0,0,0,.18,1.43,3.45,3.45,0,0,0,.58,1.21,2.77,2.77,0,0,0,1.05.83,3.75,3.75,0,0,0,1.59.3,7.43,7.43,0,0,0,3.19-.78v1.66a6.53,6.53,0,0,1-1.69.55,9.83,9.83,0,0,1-1.85.18,5.41,5.41,0,0,1-2.27-.44,4.22,4.22,0,0,1-1.58-1.22,5,5,0,0,1-.91-1.87,9.52,9.52,0,0,1-.29-2.43,8.83,8.83,0,0,1,.29-2.28,5.63,5.63,0,0,1,.87-1.89,4.41,4.41,0,0,1,1.47-1.29,4.29,4.29,0,0,1,2.08-.48,4,4,0,0,1,2,.45,3.78,3.78,0,0,1,1.31,1.2,5,5,0,0,1,.72,1.74,9.47,9.47,0,0,1,.22,2v.62q0,.23,0,.46Zm5-1.61a8.29,8.29,0,0,0-.09-1.22,2.89,2.89,0,0,0-.36-1.06,2,2,0,0,0-.75-.73,2.46,2.46,0,0,0-1.24-.28,2.11,2.11,0,0,0-1,.26,2.49,2.49,0,0,0-.78.69,3.44,3.44,0,0,0-.51,1,4.88,4.88,0,0,0-.21,1.3Z" transform="translate(-328.73 -1924.08)"/><path class="cls-2" d="M388.14,1965.27a3.58,3.58,0,0,1-.3,1.52,2.88,2.88,0,0,1-.82,1.06,3.55,3.55,0,0,1-1.2.62,5,5,0,0,1-1.46.21,8.71,8.71,0,0,1-1.64-.16,7.43,7.43,0,0,1-1.62-.51v-1.75a12,12,0,0,0,1.47.56,5.41,5.41,0,0,0,1.62.24,2.62,2.62,0,0,0,1.41-.35,1.29,1.29,0,0,0,.56-1.19,1.51,1.51,0,0,0-.36-1,3.94,3.94,0,0,0-.88-.73,12.86,12.86,0,0,0-1.14-.62,6.63,6.63,0,0,1-1.14-.7,3.52,3.52,0,0,1-.88-1,2.91,2.91,0,0,1-.36-1.52,3,3,0,0,1,.28-1.3,2.86,2.86,0,0,1,.76-1,3.48,3.48,0,0,1,1.15-.62,4.63,4.63,0,0,1,1.45-.22,7.44,7.44,0,0,1,2.78.55v1.82a12.06,12.06,0,0,0-1.25-.53,4.15,4.15,0,0,0-1.41-.23,2.18,2.18,0,0,0-1.28.35,1.17,1.17,0,0,0-.5,1,1.38,1.38,0,0,0,.35,1,3.78,3.78,0,0,0,.88.7q.53.31,1.15.61a6.37,6.37,0,0,1,1.15.71,3.54,3.54,0,0,1,.88,1A2.93,2.93,0,0,1,388.14,1965.27Z" transform="translate(-328.73 -1924.08)"/><path class="cls-2" d="M396.72,1965.27a3.58,3.58,0,0,1-.3,1.52,2.88,2.88,0,0,1-.82,1.06,3.55,3.55,0,0,1-1.2.62,5,5,0,0,1-1.46.21,8.71,8.71,0,0,1-1.64-.16,7.43,7.43,0,0,1-1.62-.51v-1.75a12,12,0,0,0,1.47.56,5.41,5.41,0,0,0,1.62.24,2.62,2.62,0,0,0,1.41-.35,1.29,1.29,0,0,0,.56-1.19,1.51,1.51,0,0,0-.36-1,3.94,3.94,0,0,0-.88-.73,12.86,12.86,0,0,0-1.14-.62,6.63,6.63,0,0,1-1.14-.7,3.52,3.52,0,0,1-.88-1,2.91,2.91,0,0,1-.36-1.52,3,3,0,0,1,.28-1.3,2.86,2.86,0,0,1,.76-1,3.48,3.48,0,0,1,1.15-.62,4.63,4.63,0,0,1,1.45-.22,7.44,7.44,0,0,1,2.78.55v1.82a12.06,12.06,0,0,0-1.25-.53,4.15,4.15,0,0,0-1.41-.23,2.18,2.18,0,0,0-1.28.35,1.17,1.17,0,0,0-.5,1,1.38,1.38,0,0,0,.35,1,3.78,3.78,0,0,0,.88.7q.53.31,1.15.61a6.37,6.37,0,0,1,1.15.71,3.54,3.54,0,0,1,.88,1A2.93,2.93,0,0,1,396.72,1965.27Z" transform="translate(-328.73 -1924.08)"/><path class="cls-2" d="M398.77,1952.85a1.28,1.28,0,0,1,.38-.92,1.23,1.23,0,0,1,.92-.39,1.31,1.31,0,0,1,0,2.62,1.23,1.23,0,0,1-.92-.39A1.28,1.28,0,0,1,398.77,1952.85Zm2.28,15.57h-1.91v-11.36H401Z" transform="translate(-328.73 -1924.08)"/><path class="cls-2" d="M413.58,1962.49a10.94,10.94,0,0,1-.26,2.47,5.4,5.4,0,0,1-.86,2,4,4,0,0,1-1.58,1.29,5.63,5.63,0,0,1-2.4.46,8.82,8.82,0,0,1-1.09-.07q-.56-.07-1.13-.18a7.42,7.42,0,0,1-1.07-.3,7.09,7.09,0,0,1-.9-.39v-15.89h1.93v6.37a6.37,6.37,0,0,1,1.39-1,4.38,4.38,0,0,1,3.76.07,3.67,3.67,0,0,1,1.28,1.25,5.64,5.64,0,0,1,.71,1.83A10.45,10.45,0,0,1,413.58,1962.49Zm-2,.09a8.57,8.57,0,0,0-.14-1.54,4.49,4.49,0,0,0-.46-1.34,2.7,2.7,0,0,0-.84-.95,2.21,2.21,0,0,0-1.29-.36,3,3,0,0,0-1.42.36,5.09,5.09,0,0,0-1.26.93v6.83a6.06,6.06,0,0,0,1.1.4,4.84,4.84,0,0,0,1.24.15,2.79,2.79,0,0,0,1.48-.36,2.72,2.72,0,0,0,.94-1,4.41,4.41,0,0,0,.5-1.43A9.65,9.65,0,0,0,411.6,1962.58Z" transform="translate(-328.73 -1924.08)"/><path class="cls-2" d="M418,1968.42h-1.91v-16.58H418Z" transform="translate(-328.73 -1924.08)"/><path class="cls-2" d="M422.48,1963.29a5.46,5.46,0,0,0,.18,1.43,3.45,3.45,0,0,0,.58,1.21,2.77,2.77,0,0,0,1.05.83,3.75,3.75,0,0,0,1.59.3,7.43,7.43,0,0,0,3.19-.78v1.66a6.53,6.53,0,0,1-1.69.55,9.83,9.83,0,0,1-1.85.18,5.41,5.41,0,0,1-2.27-.44,4.22,4.22,0,0,1-1.58-1.22,5,5,0,0,1-.91-1.87,9.52,9.52,0,0,1-.29-2.43,8.83,8.83,0,0,1,.29-2.28,5.63,5.63,0,0,1,.87-1.89,4.41,4.41,0,0,1,1.47-1.29,4.29,4.29,0,0,1,2.08-.48,4,4,0,0,1,2,.45,3.78,3.78,0,0,1,1.31,1.2,5,5,0,0,1,.72,1.74,9.47,9.47,0,0,1,.22,2v.62q0,.23,0,.46Zm5-1.61a8.29,8.29,0,0,0-.09-1.22,2.89,2.89,0,0,0-.36-1.06,2,2,0,0,0-.75-.73,2.46,2.46,0,0,0-1.24-.28,2.11,2.11,0,0,0-1,.26,2.49,2.49,0,0,0-.78.69,3.44,3.44,0,0,0-.51,1,4.88,4.88,0,0,0-.21,1.3Z" transform="translate(-328.73 -1924.08)"/><path class="cls-2" d="M442.47,1968.42l-.21-.92a6.63,6.63,0,0,1-1.26.8,3.74,3.74,0,0,1-1.7.37,3.52,3.52,0,0,1-2.59-.93,3.48,3.48,0,0,1-.94-2.59,4.16,4.16,0,0,1,.33-1.73,3.33,3.33,0,0,1,.92-1.22,3.91,3.91,0,0,1,1.4-.72,6.22,6.22,0,0,1,1.78-.24h2v-.61a2.37,2.37,0,0,0-.52-1.74,2.42,2.42,0,0,0-1.71-.5,7.43,7.43,0,0,0-1.55.18,9.7,9.7,0,0,0-1.5.44v-1.75a10.63,10.63,0,0,1,1.53-.33,11.7,11.7,0,0,1,1.81-.15,4,4,0,0,1,2.93.93,3.93,3.93,0,0,1,.93,2.89v7.82Zm-.28-5.57h-1.87a3.17,3.17,0,0,0-1.9.49,1.92,1.92,0,0,0-.67,1.66,2.11,2.11,0,0,0,.51,1.53,2.05,2.05,0,0,0,1.54.53,3,3,0,0,0,1.33-.29,4.74,4.74,0,0,0,1.06-.68Z" transform="translate(-328.73 -1924.08)"/><path class="cls-2" d="M455.72,1968.42h-1.91v-7.69a2.94,2.94,0,0,0-.44-1.73,1.77,1.77,0,0,0-1.54-.61,2.75,2.75,0,0,0-1.56.5A6.56,6.56,0,0,0,449,1960v8.44h-1.91v-11.36h1.63l.23,1.4a6.81,6.81,0,0,1,1.59-1.25,3.8,3.8,0,0,1,1.84-.42,3.28,3.28,0,0,1,2.46.9,3.41,3.41,0,0,1,.87,2.48Z" transform="translate(-328.73 -1924.08)"/><path class="cls-2" d="M462.34,1965.85l2.85-8.79h2l-4,11.27a11,11,0,0,1-.74,1.7,5.69,5.69,0,0,1-1,1.31,3.9,3.9,0,0,1-1.28.85,4.3,4.3,0,0,1-1.64.3,4.86,4.86,0,0,1-.66,0l-.7-.12v-1.61l.67.12a4.67,4.67,0,0,0,.6,0,2.8,2.8,0,0,0,1.08-.18,2.14,2.14,0,0,0,.76-.54,3.66,3.66,0,0,0,.56-.85q.24-.5.49-1.12l-4.12-11.13h2.09Z" transform="translate(-328.73 -1924.08)"/><path class="cls-2" d="M478.8,1965.89l2.38-8.83H483l-3.29,11.36H477.8l-2.35-9-2.37,9h-1.91l-3.45-11.36h2l2.52,8.79,2.36-8.79h1.93Z" transform="translate(-328.73 -1924.08)"/><path class="cls-2" d="M493.53,1968.42h-1.91v-7.74a2.72,2.72,0,0,0-.46-1.71,2,2,0,0,0-1.63-.58,2.56,2.56,0,0,0-1.37.43,6.53,6.53,0,0,0-1.35,1.16v8.44H484.9v-16.58h1.91v6.58a7.23,7.23,0,0,1,1.41-1.13,3.66,3.66,0,0,1,2-.51,3.28,3.28,0,0,1,2.46.9,3.41,3.41,0,0,1,.87,2.48Z" transform="translate(-328.73 -1924.08)"/><path class="cls-2" d="M497.92,1963.29a5.46,5.46,0,0,0,.18,1.43,3.45,3.45,0,0,0,.58,1.21,2.77,2.77,0,0,0,1.05.83,3.75,3.75,0,0,0,1.59.3,7.43,7.43,0,0,0,3.19-.78v1.66a6.53,6.53,0,0,1-1.69.55,9.83,9.83,0,0,1-1.85.18,5.41,5.41,0,0,1-2.27-.44,4.22,4.22,0,0,1-1.58-1.22,5,5,0,0,1-.91-1.87,9.52,9.52,0,0,1-.29-2.43,8.83,8.83,0,0,1,.29-2.28,5.63,5.63,0,0,1,.87-1.89,4.41,4.41,0,0,1,1.47-1.29,4.29,4.29,0,0,1,2.08-.48,4,4,0,0,1,2,.45,3.78,3.78,0,0,1,1.31,1.2,5,5,0,0,1,.72,1.74,9.47,9.47,0,0,1,.22,2v.62q0,.23,0,.46Zm5-1.61a8.29,8.29,0,0,0-.09-1.22,2.89,2.89,0,0,0-.36-1.06,2,2,0,0,0-.75-.73,2.46,2.46,0,0,0-1.24-.28,2.11,2.11,0,0,0-1,.26,2.49,2.49,0,0,0-.78.69,3.44,3.44,0,0,0-.51,1,4.88,4.88,0,0,0-.21,1.3Z" transform="translate(-328.73 -1924.08)"/><path class="cls-2" d="M509.3,1958.9a4.59,4.59,0,0,1,1.3-1.48,3,3,0,0,1,1.85-.63,5.36,5.36,0,0,1,.71.05v1.56l-.32,0h-.32a3.7,3.7,0,0,0-1.64.41,5.62,5.62,0,0,0-1.55,1.15v8.49h-1.91v-11.36h1.66Z" transform="translate(-328.73 -1924.08)"/><path class="cls-2" d="M515.91,1963.29a5.46,5.46,0,0,0,.18,1.43,3.45,3.45,0,0,0,.58,1.21,2.76,2.76,0,0,0,1.05.83,3.75,3.75,0,0,0,1.59.3,7.42,7.42,0,0,0,3.19-.78v1.66a6.53,6.53,0,0,1-1.69.55,9.83,9.83,0,0,1-1.85.18,5.41,5.41,0,0,1-2.27-.44,4.22,4.22,0,0,1-1.58-1.22,5,5,0,0,1-.91-1.87,9.5,9.5,0,0,1-.29-2.43,8.8,8.8,0,0,1,.29-2.28,5.62,5.62,0,0,1,.87-1.89,4.41,4.41,0,0,1,1.47-1.29,4.29,4.29,0,0,1,2.08-.48,4,4,0,0,1,2,.45,3.78,3.78,0,0,1,1.31,1.2,5,5,0,0,1,.72,1.74,9.47,9.47,0,0,1,.22,2v.62a4.53,4.53,0,0,1,0,.46Zm5-1.61a8.29,8.29,0,0,0-.09-1.22,2.88,2.88,0,0,0-.36-1.06,2,2,0,0,0-.75-.73,2.46,2.46,0,0,0-1.24-.28,2.11,2.11,0,0,0-1,.26,2.49,2.49,0,0,0-.78.69,3.42,3.42,0,0,0-.51,1,4.88,4.88,0,0,0-.21,1.3Z" transform="translate(-328.73 -1924.08)"/><path class="cls-2" d="M524.71,1971.32a10.33,10.33,0,0,0,1-1.37,6.54,6.54,0,0,0,.67-1.46,1.67,1.67,0,0,1-.83-.47,1.28,1.28,0,0,1-.34-.93,1.62,1.62,0,0,1,.44-1.14,1.5,1.5,0,0,1,1.15-.47,1.47,1.47,0,0,1,1.2.5,1.82,1.82,0,0,1,.41,1.21,4.6,4.6,0,0,1-.14,1.09,7.17,7.17,0,0,1-.37,1.1,9.38,9.38,0,0,1-.52,1q-.29.5-.56.91Z" transform="translate(-328.73 -1924.08)"/><path class="cls-2" d="M540.26,1951.66a8.32,8.32,0,0,1,1,.06,7.85,7.85,0,0,1,.79.13v1.61a4.59,4.59,0,0,0-.79-.14q-.47,0-.93,0a1.66,1.66,0,0,0-1.4.49,2.5,2.5,0,0,0-.37,1.5v1.8h3.24v1.61h-3.24v9.75H536.6v-9.75h-2v-1.61h2v-1.72a3.18,3.18,0,0,1,3.66-3.68Z" transform="translate(-328.73 -1924.08)"/><path class="cls-2" d="M545.39,1958.9a4.59,4.59,0,0,1,1.3-1.48,3,3,0,0,1,1.85-.63,5.37,5.37,0,0,1,.71.05v1.56l-.32,0h-.32a3.7,3.7,0,0,0-1.64.41,5.63,5.63,0,0,0-1.55,1.15v8.49H543.5v-11.36h1.66Z" transform="translate(-328.73 -1924.08)"/><path class="cls-2" d="M559.81,1962.74a9.1,9.1,0,0,1-.28,2.29,5.46,5.46,0,0,1-.87,1.89,4.25,4.25,0,0,1-1.52,1.29,5.48,5.48,0,0,1-4.45,0,4.22,4.22,0,0,1-1.53-1.29,5.48,5.48,0,0,1-.87-1.89,9.5,9.5,0,0,1,0-4.54,5.71,5.71,0,0,1,.86-1.91,4.19,4.19,0,0,1,1.52-1.31,5.45,5.45,0,0,1,4.49,0,4.19,4.19,0,0,1,1.52,1.31,5.71,5.71,0,0,1,.86,1.91A9,9,0,0,1,559.81,1962.74Zm-2,0a11.72,11.72,0,0,0-.1-1.56,4,4,0,0,0-.42-1.38,2.7,2.7,0,0,0-.9-1,3.14,3.14,0,0,0-3,0,2.73,2.73,0,0,0-.89,1,4,4,0,0,0-.43,1.38,11.89,11.89,0,0,0-.1,1.56,11.11,11.11,0,0,0,.12,1.62,4.31,4.31,0,0,0,.44,1.4,2.6,2.6,0,0,0,.89,1,2.67,2.67,0,0,0,1.48.37,2.73,2.73,0,0,0,1.5-.37,2.49,2.49,0,0,0,.89-1,4.53,4.53,0,0,0,.43-1.4A11.25,11.25,0,0,0,557.83,1962.7Z" transform="translate(-328.73 -1924.08)"/><path class="cls-2" d="M570.48,1968.42h-1.91v-7.69a3.49,3.49,0,0,0-.36-1.7,1.43,1.43,0,0,0-1.37-.64,2.34,2.34,0,0,0-1.39.5,10.57,10.57,0,0,0-1.25,1.07v8.46h-1.91v-11.36h1.63l.23,1.43a8.61,8.61,0,0,1,1.42-1.18,3.15,3.15,0,0,1,1.8-.52,2.72,2.72,0,0,1,2.74,1.72,8.62,8.62,0,0,1,1.66-1.23,3.69,3.69,0,0,1,1.84-.49,2.93,2.93,0,0,1,2.35.93,3.61,3.61,0,0,1,.81,2.45v8.26h-1.91v-7.69a5.94,5.94,0,0,0-.07-.94,2,2,0,0,0-.26-.74,1.35,1.35,0,0,0-.53-.49,1.88,1.88,0,0,0-.86-.17,2.82,2.82,0,0,0-1.39.41,6.62,6.62,0,0,0-1.3,1c0,.09,0,.21,0,.34s0,.24,0,.34Z" transform="translate(-328.73 -1924.08)"/><path class="cls-2" d="M590.4,1968.42l-.21-.92a6.65,6.65,0,0,1-1.26.8,3.74,3.74,0,0,1-1.7.37,3.24,3.24,0,0,1-3.53-3.52,4.16,4.16,0,0,1,.33-1.73,3.34,3.34,0,0,1,.92-1.22,3.91,3.91,0,0,1,1.4-.72,6.22,6.22,0,0,1,1.78-.24h2v-.61a2.37,2.37,0,0,0-.52-1.74,2.42,2.42,0,0,0-1.71-.5,7.43,7.43,0,0,0-1.55.18,9.72,9.72,0,0,0-1.5.44v-1.75a10.65,10.65,0,0,1,1.53-.33,11.7,11.7,0,0,1,1.81-.15,4,4,0,0,1,2.93.93,3.93,3.93,0,0,1,.93,2.89v7.82Zm-.28-5.57h-1.87a3.17,3.17,0,0,0-1.9.49,1.92,1.92,0,0,0-.67,1.66,2.11,2.11,0,0,0,.51,1.53,2.05,2.05,0,0,0,1.54.53,3,3,0,0,0,1.33-.29,4.74,4.74,0,0,0,1.06-.68Z" transform="translate(-328.73 -1924.08)"/><path class="cls-2" d="M603.65,1968.42h-1.91v-7.69a2.94,2.94,0,0,0-.44-1.73,1.76,1.76,0,0,0-1.54-.61,2.75,2.75,0,0,0-1.56.5,6.56,6.56,0,0,0-1.27,1.09v8.44H595v-11.36h1.63l.23,1.4a6.82,6.82,0,0,1,1.59-1.25,3.8,3.8,0,0,1,1.84-.42,3.28,3.28,0,0,1,2.46.9,3.41,3.41,0,0,1,.87,2.48Z" transform="translate(-328.73 -1924.08)"/><path class="cls-2" d="M610.27,1965.85l2.85-8.79h2l-4,11.27a11,11,0,0,1-.74,1.7,5.68,5.68,0,0,1-1,1.31,3.89,3.89,0,0,1-1.28.85,4.3,4.3,0,0,1-1.64.3,4.84,4.84,0,0,1-.66,0l-.7-.12v-1.61l.67.12a4.66,4.66,0,0,0,.6,0,2.81,2.81,0,0,0,1.08-.18,2.13,2.13,0,0,0,.76-.54,3.65,3.65,0,0,0,.56-.85q.24-.5.49-1.12l-4.12-11.13h2.09Z" transform="translate(-328.73 -1924.08)"/><path class="cls-2" d="M630.08,1968.42h-1.61l-.23-1a5.31,5.31,0,0,1-1.18.86,3.62,3.62,0,0,1-1.78.4,4.41,4.41,0,0,1-2-.44,3.83,3.83,0,0,1-1.4-1.22,5.29,5.29,0,0,1-.8-1.84,9.75,9.75,0,0,1-.25-2.28,9.91,9.91,0,0,1,.28-2.38,5.8,5.8,0,0,1,.85-1.94,4.16,4.16,0,0,1,1.47-1.31,4.44,4.44,0,0,1,2.13-.48,3.66,3.66,0,0,1,1.55.31,5.6,5.6,0,0,1,1.09.63v-5.89h1.93Zm-1.91-9.18a5.43,5.43,0,0,0-1.06-.61,3.18,3.18,0,0,0-1.27-.24,3,3,0,0,0-1.51.35,2.56,2.56,0,0,0-.94.94,4.15,4.15,0,0,0-.48,1.38,9.89,9.89,0,0,0-.14,1.7,8.69,8.69,0,0,0,.15,1.64,4.16,4.16,0,0,0,.5,1.37,2.71,2.71,0,0,0,.93.94,2.68,2.68,0,0,0,1.42.35,3.67,3.67,0,0,0,2.4-.94Z" transform="translate(-328.73 -1924.08)"/><path class="cls-2" d="M634.56,1963.29a5.46,5.46,0,0,0,.18,1.43,3.45,3.45,0,0,0,.58,1.21,2.76,2.76,0,0,0,1.05.83,3.75,3.75,0,0,0,1.59.3,7.42,7.42,0,0,0,3.19-.78v1.66a6.53,6.53,0,0,1-1.69.55,9.83,9.83,0,0,1-1.85.18,5.41,5.41,0,0,1-2.27-.44,4.22,4.22,0,0,1-1.58-1.22,5,5,0,0,1-.91-1.87,9.5,9.5,0,0,1-.29-2.43,8.8,8.8,0,0,1,.29-2.28,5.62,5.62,0,0,1,.87-1.89,4.41,4.41,0,0,1,1.47-1.29,4.29,4.29,0,0,1,2.08-.48,4,4,0,0,1,2,.45,3.78,3.78,0,0,1,1.31,1.2,5,5,0,0,1,.72,1.74,9.47,9.47,0,0,1,.22,2v.62a4.53,4.53,0,0,1,0,.46Zm5-1.61a8.29,8.29,0,0,0-.09-1.22,2.88,2.88,0,0,0-.36-1.06,2,2,0,0,0-.75-.73,2.46,2.46,0,0,0-1.24-.28,2.11,2.11,0,0,0-1,.26,2.49,2.49,0,0,0-.78.69,3.42,3.42,0,0,0-.51,1,4.88,4.88,0,0,0-.21,1.3Z" transform="translate(-328.73 -1924.08)"/><path class="cls-2" d="M647.67,1966.19l2.92-9.13h2l-4,11.36h-1.91l-4-11.36h2.12Z" transform="translate(-328.73 -1924.08)"/><path class="cls-2" d="M654,1952.85a1.28,1.28,0,0,1,.38-.92,1.23,1.23,0,0,1,.92-.39,1.31,1.31,0,0,1,0,2.62,1.23,1.23,0,0,1-.92-.39A1.28,1.28,0,0,1,654,1952.85Zm2.28,15.57h-1.91v-11.36h1.91Z" transform="translate(-328.73 -1924.08)"/><path class="cls-2" d="M664.28,1967.07a5.31,5.31,0,0,0,1.38-.17,13.69,13.69,0,0,0,1.31-.43v1.66a6.33,6.33,0,0,1-1.35.4,8,8,0,0,1-1.53.15,6,6,0,0,1-2.38-.43,4.28,4.28,0,0,1-1.64-1.2,5,5,0,0,1-1-1.89,9.3,9.3,0,0,1-.31-2.5,7.72,7.72,0,0,1,.31-2.18,5.62,5.62,0,0,1,1-1.89,4.72,4.72,0,0,1,1.62-1.32,5.07,5.07,0,0,1,2.31-.49,8.83,8.83,0,0,1,1.4.1,8.28,8.28,0,0,1,1.38.36V1959a8.36,8.36,0,0,0-1.21-.44,5.29,5.29,0,0,0-1.44-.18,3.12,3.12,0,0,0-1.53.35,3.08,3.08,0,0,0-1,.95,4,4,0,0,0-.6,1.38,7.27,7.27,0,0,0-.18,1.67,7.57,7.57,0,0,0,.17,1.62,4,4,0,0,0,.58,1.38,3,3,0,0,0,1.07,1A3.48,3.48,0,0,0,664.28,1967.07Z" transform="translate(-328.73 -1924.08)"/><path class="cls-2" d="M670.26,1963.29a5.46,5.46,0,0,0,.18,1.43,3.45,3.45,0,0,0,.58,1.21,2.77,2.77,0,0,0,1.05.83,3.75,3.75,0,0,0,1.59.3,7.43,7.43,0,0,0,3.19-.78v1.66a6.53,6.53,0,0,1-1.69.55,9.83,9.83,0,0,1-1.85.18,5.41,5.41,0,0,1-2.27-.44,4.22,4.22,0,0,1-1.58-1.22,5,5,0,0,1-.91-1.87,9.55,9.55,0,0,1-.29-2.43,8.85,8.85,0,0,1,.29-2.28,5.63,5.63,0,0,1,.87-1.89,4.42,4.42,0,0,1,1.47-1.29,4.29,4.29,0,0,1,2.08-.48,4,4,0,0,1,2,.45,3.78,3.78,0,0,1,1.31,1.2,5,5,0,0,1,.72,1.74,9.47,9.47,0,0,1,.22,2v.62c0,.15,0,.31,0,.46Zm5-1.61a8.29,8.29,0,0,0-.09-1.22,2.9,2.9,0,0,0-.36-1.06,2,2,0,0,0-.75-.73,2.46,2.46,0,0,0-1.24-.28,2.11,2.11,0,0,0-1,.26,2.49,2.49,0,0,0-.78.69,3.45,3.45,0,0,0-.51,1,4.88,4.88,0,0,0-.21,1.3Z" transform="translate(-328.73 -1924.08)"/><path class="cls-2" d="M682.72,1967.09a1.51,1.51,0,0,1-.47,1.13,1.57,1.57,0,0,1-1.14.46,1.61,1.61,0,0,1-1.12-.43,1.48,1.48,0,0,1-.47-1.16,1.55,1.55,0,0,1,1.59-1.61,1.63,1.63,0,0,1,1.13.44A1.51,1.51,0,0,1,682.72,1967.09Z" transform="translate(-328.73 -1924.08)"/></svg>