<svg id="text" xmlns="http://www.w3.org/2000/svg" viewBox="0 0 390.49 23.69"><defs><style>.cls-1{fill:#004796;}</style></defs><path class="cls-1" d="M491.86,570.72l2.5-10.09h3L500.1,571l2.65-13.42h3.48L502,576.34H498.8l-3-11-2.94,11h-3.12l-4.24-18.75H489Z" transform="translate(-485.51 -557.25)"/><path class="cls-1" d="M509.8,571a3.41,3.41,0,0,0,.94,2.11,3.18,3.18,0,0,0,2.38.83,7,7,0,0,0,1.81-.22,15.74,15.74,0,0,0,1.74-.58v2.76a7.64,7.64,0,0,1-1.79.56,11.07,11.07,0,0,1-2.11.2,7.84,7.84,0,0,1-2.9-.48,4.92,4.92,0,0,1-2-1.37,5.56,5.56,0,0,1-1.1-2.12,10.13,10.13,0,0,1-.35-2.77,9.36,9.36,0,0,1,.34-2.53,6.71,6.71,0,0,1,1-2.15,4.85,4.85,0,0,1,1.73-1.48,5.38,5.38,0,0,1,2.51-.55,5,5,0,0,1,2.37.51,4.44,4.44,0,0,1,1.57,1.36,5.54,5.54,0,0,1,.87,2,10.33,10.33,0,0,1,.26,2.34q0,.39,0,.88c0,.33,0,.57,0,.73Zm3.9-2.29a6.57,6.57,0,0,0-.09-1.1,2.63,2.63,0,0,0-.31-.89,1.6,1.6,0,0,0-.61-.6,2,2,0,0,0-1-.22,1.54,1.54,0,0,0-.85.23,1.88,1.88,0,0,0-.59.61,3.08,3.08,0,0,0-.36.89,5.57,5.57,0,0,0-.15,1.07Z" transform="translate(-485.51 -557.25)"/><path class="cls-1" d="M518.17,564.43a12.67,12.67,0,0,0,1.07-1.44,12.06,12.06,0,0,0,.81-1.5,2.09,2.09,0,0,1-1.17-.62,1.85,1.85,0,0,1-.47-1.33A2.07,2.07,0,0,1,519,558a2.28,2.28,0,0,1,1.66-.61,2.25,2.25,0,0,1,1.74.65,2.22,2.22,0,0,1,.6,1.56,6,6,0,0,1-.58,2.51,13.45,13.45,0,0,1-1.34,2.33Z" transform="translate(-485.51 -557.25)"/><path class="cls-1" d="M527.19,565.57a4.74,4.74,0,0,1,1.4-1.81,2.83,2.83,0,0,1,1.69-.58,6.28,6.28,0,0,1,.7,0,2.45,2.45,0,0,1,.65.17V566a6,6,0,0,0-.73-.09h-.55a4.24,4.24,0,0,0-1.62.33,5.35,5.35,0,0,0-1.39.82v9.31h-3.28V563.49h2.76Z" transform="translate(-485.51 -557.25)"/><path class="cls-1" d="M535.67,571a3.41,3.41,0,0,0,.94,2.11,3.18,3.18,0,0,0,2.38.83,7,7,0,0,0,1.81-.22,15.73,15.73,0,0,0,1.74-.58v2.76a7.62,7.62,0,0,1-1.79.56,11.06,11.06,0,0,1-2.11.2,7.85,7.85,0,0,1-2.9-.48,4.92,4.92,0,0,1-2-1.37,5.56,5.56,0,0,1-1.11-2.12,10.15,10.15,0,0,1-.35-2.77,9.36,9.36,0,0,1,.34-2.53,6.73,6.73,0,0,1,1-2.15,4.85,4.85,0,0,1,1.73-1.48,5.38,5.38,0,0,1,2.51-.55,5,5,0,0,1,2.37.51,4.46,4.46,0,0,1,1.57,1.36,5.56,5.56,0,0,1,.87,2,10.33,10.33,0,0,1,.26,2.34q0,.39,0,.88c0,.33,0,.57,0,.73Zm3.9-2.29a6.47,6.47,0,0,0-.09-1.1,2.65,2.65,0,0,0-.31-.89,1.61,1.61,0,0,0-.61-.6,2,2,0,0,0-1-.22,1.54,1.54,0,0,0-.85.23,1.88,1.88,0,0,0-.59.61,3.08,3.08,0,0,0-.36.89,5.49,5.49,0,0,0-.15,1.07Z" transform="translate(-485.51 -557.25)"/><path class="cls-1" d="M553.32,565.57a4.74,4.74,0,0,1,1.4-1.81,2.83,2.83,0,0,1,1.69-.58,6.28,6.28,0,0,1,.7,0,2.45,2.45,0,0,1,.65.17V566a6,6,0,0,0-.73-.09h-.55a4.24,4.24,0,0,0-1.62.33,5.35,5.35,0,0,0-1.39.82v9.31H550.2V563.49H553Z" transform="translate(-485.51 -557.25)"/><path class="cls-1" d="M561.8,571a3.41,3.41,0,0,0,.94,2.11,3.18,3.18,0,0,0,2.38.83,7,7,0,0,0,1.81-.22,15.73,15.73,0,0,0,1.74-.58v2.76a7.62,7.62,0,0,1-1.79.56,11.06,11.06,0,0,1-2.11.2,7.85,7.85,0,0,1-2.9-.48,4.92,4.92,0,0,1-2-1.37,5.56,5.56,0,0,1-1.11-2.12,10.15,10.15,0,0,1-.35-2.77,9.36,9.36,0,0,1,.34-2.53,6.73,6.73,0,0,1,1-2.15,4.85,4.85,0,0,1,1.73-1.48,5.38,5.38,0,0,1,2.51-.55,5,5,0,0,1,2.37.51,4.46,4.46,0,0,1,1.57,1.36,5.56,5.56,0,0,1,.87,2,10.33,10.33,0,0,1,.26,2.34q0,.39,0,.88c0,.33,0,.57,0,.73Zm3.9-2.29a6.47,6.47,0,0,0-.09-1.1,2.65,2.65,0,0,0-.31-.89,1.61,1.61,0,0,0-.61-.6,2,2,0,0,0-1-.22,1.54,1.54,0,0,0-.85.23,1.88,1.88,0,0,0-.59.61,3.08,3.08,0,0,0-.36.89,5.49,5.49,0,0,0-.15,1.07Z" transform="translate(-485.51 -557.25)"/><path class="cls-1" d="M581.84,576.34h-3.28v-8.52a2.83,2.83,0,0,0-.3-1.42q-.3-.51-1.29-.51a2.21,2.21,0,0,0-1.05.29,6,6,0,0,0-1,.68v9.49h-3.28V563.49h2.91l.26,1.38a6.09,6.09,0,0,1,1.44-1.18,3.69,3.69,0,0,1,1.94-.51,3.4,3.4,0,0,1,1.81.47,3.69,3.69,0,0,1,1.23,1.22,7.34,7.34,0,0,1,1.57-1.2,4.07,4.07,0,0,1,2-.49,3.72,3.72,0,0,1,2.92,1.09,4.25,4.25,0,0,1,1,2.94v9.13h-3.28v-8.52a2.73,2.73,0,0,0-.31-1.42,1.32,1.32,0,0,0-1.22-.51,2.76,2.76,0,0,0-1.09.25,4.77,4.77,0,0,0-1,.61,2,2,0,0,1,0,.31v9.28Z" transform="translate(-485.51 -557.25)"/><path class="cls-1" d="M602.69,569.92a10.08,10.08,0,0,1-.33,2.6,6,6,0,0,1-1,2.13,5,5,0,0,1-1.79,1.44,5.93,5.93,0,0,1-2.63.53,5.87,5.87,0,0,1-2.6-.53,5,5,0,0,1-1.79-1.44,5.94,5.94,0,0,1-1-2.13,10.08,10.08,0,0,1-.33-2.6,10.37,10.37,0,0,1,.31-2.57,6,6,0,0,1,1-2.14,4.93,4.93,0,0,1,1.78-1.47,6.72,6.72,0,0,1,5.3,0,5.05,5.05,0,0,1,1.79,1.47,5.92,5.92,0,0,1,1,2.14A10.37,10.37,0,0,1,602.69,569.92Zm-3.35-.05a13.6,13.6,0,0,0-.08-1.5,3.9,3.9,0,0,0-.34-1.26,2.27,2.27,0,0,0-.73-.88,2.14,2.14,0,0,0-1.27-.34,2.09,2.09,0,0,0-1.25.34,2.16,2.16,0,0,0-.71.88,4.37,4.37,0,0,0-.34,1.26,11.68,11.68,0,0,0-.09,1.5,12,12,0,0,0,.09,1.51,4.73,4.73,0,0,0,.34,1.3,2.13,2.13,0,0,0,.71.91,2.09,2.09,0,0,0,1.25.34,2.14,2.14,0,0,0,1.26-.34,2.1,2.1,0,0,0,.73-.91,4.77,4.77,0,0,0,.34-1.3A12.18,12.18,0,0,0,599.34,569.86Z" transform="translate(-485.51 -557.25)"/><path class="cls-1" d="M609.73,572.78l2.77-9.28h3.28l-4.41,12.84h-3.43l-4.33-12.84h3.28Z" transform="translate(-485.51 -557.25)"/><path class="cls-1" d="M617.12,559.13a1.74,1.74,0,0,1,.57-1.35,2.37,2.37,0,0,1,3,0,1.74,1.74,0,0,1,.57,1.35,1.7,1.7,0,0,1-.57,1.34,2.42,2.42,0,0,1-3,0A1.7,1.7,0,0,1,617.12,559.13Zm3.69,17.21h-3.28V563.49h3.28Z" transform="translate(-485.51 -557.25)"/><path class="cls-1" d="M627.24,564.84a5.81,5.81,0,0,1,1.46-1.17,3.84,3.84,0,0,1,2-.49,3.39,3.39,0,0,1,2.77,1.14,4.37,4.37,0,0,1,.95,2.89v9.13h-3.28v-8.52a2.85,2.85,0,0,0-.3-1.41,1.27,1.27,0,0,0-1.21-.52,2.79,2.79,0,0,0-1.17.26,4.67,4.67,0,0,0-1.09.7v9.49H624V563.49H627Z" transform="translate(-485.51 -557.25)"/><path class="cls-1" d="M644.68,574.49a4.7,4.7,0,0,1-1.4.95,4.3,4.3,0,0,1-1.79.38,4.05,4.05,0,0,1-2.13-.53,4.55,4.55,0,0,1-1.46-1.39,6.18,6.18,0,0,1-.84-2,9.05,9.05,0,0,1-.27-2.21,11.21,11.21,0,0,1,.26-2.41,6.37,6.37,0,0,1,.86-2.11,4.58,4.58,0,0,1,1.56-1.48,4.64,4.64,0,0,1,2.37-.56,4,4,0,0,1,1.77.34,4.05,4.05,0,0,1,1.2.91l.26-.94H648v12.35a4.78,4.78,0,0,1-1.46,3.89,6.44,6.44,0,0,1-4.21,1.21,21.57,21.57,0,0,1-2.22-.12,12,12,0,0,1-2-.38v-2.76a15.5,15.5,0,0,0,1.86.39,13.18,13.18,0,0,0,2,.16,4.23,4.23,0,0,0,2.05-.42,1.65,1.65,0,0,0,.75-1.58Zm0-8a2.86,2.86,0,0,0-.88-.46,3.78,3.78,0,0,0-1.17-.17,2.14,2.14,0,0,0-1.26.34,2.49,2.49,0,0,0-.77.88,3.77,3.77,0,0,0-.39,1.22,8.84,8.84,0,0,0-.1,1.34,7.13,7.13,0,0,0,.12,1.31,3.42,3.42,0,0,0,.39,1.1,2.06,2.06,0,0,0,1.88,1,3.46,3.46,0,0,0,1.17-.2,4.63,4.63,0,0,0,1-.51Z" transform="translate(-485.51 -557.25)"/><path class="cls-1" d="M666.65,569.92a10.08,10.08,0,0,1-.33,2.6,6,6,0,0,1-1,2.13,5,5,0,0,1-1.79,1.44,5.93,5.93,0,0,1-2.63.53,5.87,5.87,0,0,1-2.6-.53,5,5,0,0,1-1.79-1.44,5.94,5.94,0,0,1-1-2.13,10.08,10.08,0,0,1-.33-2.6,10.37,10.37,0,0,1,.31-2.57,6,6,0,0,1,1-2.14,4.93,4.93,0,0,1,1.78-1.47,6.72,6.72,0,0,1,5.3,0,5.05,5.05,0,0,1,1.79,1.47,5.92,5.92,0,0,1,1,2.14A10.37,10.37,0,0,1,666.65,569.92Zm-3.35-.05a13.6,13.6,0,0,0-.08-1.5,3.9,3.9,0,0,0-.34-1.26,2.27,2.27,0,0,0-.73-.88,2.14,2.14,0,0,0-1.27-.34,2.09,2.09,0,0,0-1.25.34,2.16,2.16,0,0,0-.71.88,4.37,4.37,0,0,0-.34,1.26,11.68,11.68,0,0,0-.09,1.5,12,12,0,0,0,.09,1.51,4.73,4.73,0,0,0,.34,1.3,2.13,2.13,0,0,0,.71.91,2.09,2.09,0,0,0,1.25.34,2.14,2.14,0,0,0,1.26-.34,2.1,2.1,0,0,0,.73-.91,4.77,4.77,0,0,0,.34-1.3A12.18,12.18,0,0,0,663.3,569.86Z" transform="translate(-485.51 -557.25)"/><path class="cls-1" d="M680.36,569.5a10.06,10.06,0,0,1-.38,2.81,6.38,6.38,0,0,1-1.16,2.26,5.37,5.37,0,0,1-2,1.51,6.7,6.7,0,0,1-2.81.55,15.42,15.42,0,0,1-2.46-.21,10.59,10.59,0,0,1-2.41-.68V557.59h3.3v7a5.86,5.86,0,0,1,1.37-1,4,4,0,0,1,1.87-.4,4,4,0,0,1,3.65,1.94,5.85,5.85,0,0,1,.76,2A12.53,12.53,0,0,1,680.36,569.5Zm-3.35.16a10,10,0,0,0-.09-1.32,4,4,0,0,0-.35-1.22,2.35,2.35,0,0,0-.72-.89,1.94,1.94,0,0,0-1.19-.35,3,3,0,0,0-1.18.23,4.47,4.47,0,0,0-1,.6v6.89a3,3,0,0,0,.75.25,4.77,4.77,0,0,0,.83.06,2.73,2.73,0,0,0,1.46-.36,2.63,2.63,0,0,0,.92-.95,4.08,4.08,0,0,0,.47-1.36A9.63,9.63,0,0,0,677,569.66Z" transform="translate(-485.51 -557.25)"/><path class="cls-1" d="M685.24,566.94a1,1,0,0,0,.39.8,4.93,4.93,0,0,0,1,.58l1.26.57a6,6,0,0,1,1.26.75,3.84,3.84,0,0,1,1,1.14,3.39,3.39,0,0,1,.39,1.7,3.79,3.79,0,0,1-1.29,3,5.15,5.15,0,0,1-3.5,1.12,12.11,12.11,0,0,1-1.82-.14,8.16,8.16,0,0,1-1.92-.56V573a8.4,8.4,0,0,0,3.54.91,2.49,2.49,0,0,0,1.17-.24.94.94,0,0,0,.46-.92,1.13,1.13,0,0,0-.39-.9,4.22,4.22,0,0,0-1-.61q-.58-.27-1.27-.56a5.9,5.9,0,0,1-1.27-.71,3.59,3.59,0,0,1-1-1.11,3.46,3.46,0,0,1-.39-1.74,3.64,3.64,0,0,1,1.33-2.89,4.36,4.36,0,0,1,1.47-.79,5.94,5.94,0,0,1,1.83-.27,12,12,0,0,1,1.65.12,7.46,7.46,0,0,1,1.7.46v2.86a13.51,13.51,0,0,0-1.62-.55,5.5,5.5,0,0,0-1.37-.18,2.51,2.51,0,0,0-1.19.25A.85.85,0,0,0,685.24,566.94Z" transform="translate(-485.51 -557.25)"/><path class="cls-1" d="M697.28,563.49h3.3v2.65h-3.3v6a1.94,1.94,0,0,0,.39,1.4,1.7,1.7,0,0,0,1.22.38,6.07,6.07,0,0,0,2-.34v2.65a11.56,11.56,0,0,1-1.33.29,10.71,10.71,0,0,1-1.59.1,4,4,0,0,1-3-1,4.07,4.07,0,0,1-1-3v-6.45h-2.47v-2.65H694V560h3.28Z" transform="translate(-485.51 -557.25)"/><path class="cls-1" d="M709.29,576.34l-.26-1.12a6.74,6.74,0,0,1-1.23,1,3.42,3.42,0,0,1-1.83.44,3.64,3.64,0,0,1-2.81-1.1,4.28,4.28,0,0,1-1-3,4.37,4.37,0,0,1,.42-2,3.43,3.43,0,0,1,1.14-1.31,4.93,4.93,0,0,1,1.68-.72,9,9,0,0,1,2-.22h1.42v-.73a1.45,1.45,0,0,0-.53-1.24,2.32,2.32,0,0,0-1.44-.4,9.54,9.54,0,0,0-1.8.18,12.89,12.89,0,0,0-1.77.47v-2.76l.91-.22q.52-.12,1.08-.2l1.13-.13c.38,0,.73-.05,1-.05a4.09,4.09,0,0,1,4.68,4.63v8.53Zm-.44-5.8h-1.18a2.65,2.65,0,0,0-1.59.43,1.49,1.49,0,0,0-.59,1.3,1.86,1.86,0,0,0,.37,1.17,1.41,1.41,0,0,0,1.19.48,2.42,2.42,0,0,0,1-.19,5.79,5.79,0,0,0,.79-.43Z" transform="translate(-485.51 -557.25)"/><path class="cls-1" d="M720.94,573.92a7,7,0,0,0,1.53-.14,14.54,14.54,0,0,0,1.46-.43v2.73a7.77,7.77,0,0,1-1.68.42,13.1,13.1,0,0,1-1.83.13,6.86,6.86,0,0,1-2.69-.48,5,5,0,0,1-1.88-1.37,5.67,5.67,0,0,1-1.12-2.15,10,10,0,0,1-.36-2.79,8.57,8.57,0,0,1,.39-2.63,5.93,5.93,0,0,1,1.17-2.12,5.39,5.39,0,0,1,1.94-1.4,6.66,6.66,0,0,1,2.69-.51,11.59,11.59,0,0,1,1.65.1,12.23,12.23,0,0,1,1.55.34v2.81a14.08,14.08,0,0,0-1.36-.4,5.62,5.62,0,0,0-1.29-.14,3.1,3.1,0,0,0-2.52,1,4.19,4.19,0,0,0-.86,2.77,8,8,0,0,0,.17,1.7,3.87,3.87,0,0,0,.55,1.34,2.6,2.6,0,0,0,1,.88A3.29,3.29,0,0,0,720.94,573.92Z" transform="translate(-485.51 -557.25)"/><path class="cls-1" d="M729.39,576.34h-3.28V557.59h3.28Z" transform="translate(-485.51 -557.25)"/><path class="cls-1" d="M735.27,571a3.41,3.41,0,0,0,.94,2.11,3.18,3.18,0,0,0,2.38.83,7,7,0,0,0,1.81-.22,15.73,15.73,0,0,0,1.74-.58v2.76a7.61,7.61,0,0,1-1.79.56,11.06,11.06,0,0,1-2.11.2,7.85,7.85,0,0,1-2.9-.48,4.92,4.92,0,0,1-2-1.37,5.54,5.54,0,0,1-1.1-2.12,10.11,10.11,0,0,1-.35-2.77,9.36,9.36,0,0,1,.34-2.53,6.71,6.71,0,0,1,1-2.15,4.84,4.84,0,0,1,1.73-1.48,5.38,5.38,0,0,1,2.51-.55,5,5,0,0,1,2.37.51,4.44,4.44,0,0,1,1.57,1.36,5.54,5.54,0,0,1,.87,2,10.33,10.33,0,0,1,.26,2.34c0,.26,0,.55,0,.88s0,.57,0,.73Zm3.9-2.29a6.58,6.58,0,0,0-.09-1.1,2.65,2.65,0,0,0-.31-.89,1.61,1.61,0,0,0-.61-.6,2,2,0,0,0-1-.22,1.54,1.54,0,0,0-.85.23,1.88,1.88,0,0,0-.59.61,3.08,3.08,0,0,0-.36.89,5.57,5.57,0,0,0-.15,1.07Z" transform="translate(-485.51 -557.25)"/><path class="cls-1" d="M747.59,566.94a1,1,0,0,0,.39.8,4.93,4.93,0,0,0,1,.58l1.26.57a6,6,0,0,1,1.26.75,3.84,3.84,0,0,1,1,1.14,3.39,3.39,0,0,1,.39,1.7,3.79,3.79,0,0,1-1.29,3,5.15,5.15,0,0,1-3.5,1.12,12.11,12.11,0,0,1-1.82-.14,8.16,8.16,0,0,1-1.92-.56V573a8.4,8.4,0,0,0,3.54.91,2.49,2.49,0,0,0,1.17-.24.94.94,0,0,0,.46-.92,1.13,1.13,0,0,0-.39-.9,4.22,4.22,0,0,0-1-.61q-.58-.27-1.27-.56a5.9,5.9,0,0,1-1.27-.71,3.59,3.59,0,0,1-1-1.11,3.46,3.46,0,0,1-.39-1.74,3.64,3.64,0,0,1,1.33-2.89,4.36,4.36,0,0,1,1.47-.79,5.94,5.94,0,0,1,1.83-.27,12,12,0,0,1,1.65.12,7.46,7.46,0,0,1,1.7.46v2.86a13.51,13.51,0,0,0-1.62-.55,5.5,5.5,0,0,0-1.37-.18,2.51,2.51,0,0,0-1.19.25A.85.85,0,0,0,747.59,566.94Z" transform="translate(-485.51 -557.25)"/><path class="cls-1" d="M764.31,563.49h3.3v2.65h-3.3v6a1.94,1.94,0,0,0,.39,1.4,1.7,1.7,0,0,0,1.22.38,6.07,6.07,0,0,0,2-.34v2.65a11.56,11.56,0,0,1-1.33.29,10.71,10.71,0,0,1-1.59.1,4,4,0,0,1-3-1,4.07,4.07,0,0,1-1-3v-6.45h-2.47v-2.65H761V560h3.28Z" transform="translate(-485.51 -557.25)"/><path class="cls-1" d="M780.37,569.92a10.08,10.08,0,0,1-.33,2.6,6,6,0,0,1-1,2.13,5,5,0,0,1-1.79,1.44,5.93,5.93,0,0,1-2.63.53,5.87,5.87,0,0,1-2.6-.53,5,5,0,0,1-1.79-1.44,5.94,5.94,0,0,1-1-2.13,10.08,10.08,0,0,1-.33-2.6,10.37,10.37,0,0,1,.31-2.57,6,6,0,0,1,1-2.14,4.93,4.93,0,0,1,1.78-1.47,6.72,6.72,0,0,1,5.3,0A5.05,5.05,0,0,1,779,565.2a5.92,5.92,0,0,1,1,2.14A10.37,10.37,0,0,1,780.37,569.92Zm-3.35-.05a13.6,13.6,0,0,0-.08-1.5,3.9,3.9,0,0,0-.34-1.26,2.27,2.27,0,0,0-.73-.88,2.14,2.14,0,0,0-1.27-.34,2.09,2.09,0,0,0-1.25.34,2.16,2.16,0,0,0-.71.88,4.37,4.37,0,0,0-.34,1.26,11.68,11.68,0,0,0-.09,1.5,12,12,0,0,0,.09,1.51,4.73,4.73,0,0,0,.34,1.3,2.13,2.13,0,0,0,.71.91,2.09,2.09,0,0,0,1.25.34,2.14,2.14,0,0,0,1.26-.34,2.1,2.1,0,0,0,.73-.91,4.77,4.77,0,0,0,.34-1.3A12.18,12.18,0,0,0,777,569.86Z" transform="translate(-485.51 -557.25)"/><path class="cls-1" d="M790,566.94a1,1,0,0,0,.39.8,4.93,4.93,0,0,0,1,.58l1.26.57a6,6,0,0,1,1.26.75,3.84,3.84,0,0,1,1,1.14,3.39,3.39,0,0,1,.39,1.7,3.79,3.79,0,0,1-1.29,3,5.15,5.15,0,0,1-3.5,1.12,12.11,12.11,0,0,1-1.82-.14,8.16,8.16,0,0,1-1.92-.56V573a8.4,8.4,0,0,0,3.54.91,2.49,2.49,0,0,0,1.17-.24.94.94,0,0,0,.46-.92,1.13,1.13,0,0,0-.39-.9,4.22,4.22,0,0,0-1-.61q-.58-.27-1.27-.56A5.9,5.9,0,0,1,788,570a3.59,3.59,0,0,1-1-1.11,3.46,3.46,0,0,1-.39-1.74,3.64,3.64,0,0,1,1.33-2.89,4.36,4.36,0,0,1,1.47-.79,5.94,5.94,0,0,1,1.83-.27,12,12,0,0,1,1.65.12,7.46,7.46,0,0,1,1.7.46v2.86a13.51,13.51,0,0,0-1.62-.55,5.5,5.5,0,0,0-1.37-.18,2.51,2.51,0,0,0-1.19.25A.85.85,0,0,0,790,566.94Z" transform="translate(-485.51 -557.25)"/><path class="cls-1" d="M800.24,571a3.41,3.41,0,0,0,.94,2.11,3.18,3.18,0,0,0,2.38.83,7,7,0,0,0,1.81-.22,15.73,15.73,0,0,0,1.74-.58v2.76a7.61,7.61,0,0,1-1.79.56,11.06,11.06,0,0,1-2.11.2,7.85,7.85,0,0,1-2.9-.48,4.92,4.92,0,0,1-2-1.37,5.54,5.54,0,0,1-1.1-2.12,10.11,10.11,0,0,1-.35-2.77,9.36,9.36,0,0,1,.34-2.53,6.71,6.71,0,0,1,1-2.15,4.84,4.84,0,0,1,1.73-1.48,5.38,5.38,0,0,1,2.51-.55,5,5,0,0,1,2.37.51,4.44,4.44,0,0,1,1.57,1.36,5.54,5.54,0,0,1,.87,2,10.33,10.33,0,0,1,.26,2.34c0,.26,0,.55,0,.88s0,.57,0,.73Zm3.9-2.29a6.58,6.58,0,0,0-.09-1.1,2.65,2.65,0,0,0-.31-.89,1.61,1.61,0,0,0-.61-.6,2,2,0,0,0-1-.22,1.54,1.54,0,0,0-.85.23,1.88,1.88,0,0,0-.59.61,3.08,3.08,0,0,0-.36.89,5.57,5.57,0,0,0-.15,1.07Z" transform="translate(-485.51 -557.25)"/><path class="cls-1" d="M813.39,576.34h-3.28V557.59h3.28Z" transform="translate(-485.51 -557.25)"/><path class="cls-1" d="M819.94,576.34h-3.28V557.59h3.28Z" transform="translate(-485.51 -557.25)"/><path class="cls-1" d="M822.78,559.13a1.74,1.74,0,0,1,.57-1.35,2.37,2.37,0,0,1,3,0,1.74,1.74,0,0,1,.57,1.35,1.7,1.7,0,0,1-.57,1.34,2.42,2.42,0,0,1-3,0A1.7,1.7,0,0,1,822.78,559.13Zm3.69,17.21h-3.28V563.49h3.28Z" transform="translate(-485.51 -557.25)"/><path class="cls-1" d="M832.89,564.84a5.81,5.81,0,0,1,1.46-1.17,3.84,3.84,0,0,1,2-.49,3.39,3.39,0,0,1,2.77,1.14,4.37,4.37,0,0,1,.95,2.89v9.13h-3.28v-8.52a2.85,2.85,0,0,0-.3-1.41,1.27,1.27,0,0,0-1.21-.52,2.79,2.79,0,0,0-1.17.26,4.67,4.67,0,0,0-1.09.7v9.49h-3.28V563.49h2.94Z" transform="translate(-485.51 -557.25)"/><path class="cls-1" d="M850.34,574.49a4.7,4.7,0,0,1-1.4.95,4.3,4.3,0,0,1-1.79.38,4.05,4.05,0,0,1-2.13-.53,4.55,4.55,0,0,1-1.46-1.39,6.18,6.18,0,0,1-.84-2,9.05,9.05,0,0,1-.27-2.21,11.21,11.21,0,0,1,.26-2.41,6.37,6.37,0,0,1,.86-2.11,4.58,4.58,0,0,1,1.56-1.48,4.64,4.64,0,0,1,2.37-.56,4,4,0,0,1,1.77.34,4.05,4.05,0,0,1,1.2.91l.26-.94h2.91v12.35a4.78,4.78,0,0,1-1.46,3.89,6.44,6.44,0,0,1-4.21,1.21,21.57,21.57,0,0,1-2.22-.12,12,12,0,0,1-2-.38v-2.76a15.5,15.5,0,0,0,1.86.39,13.18,13.18,0,0,0,2,.16,4.23,4.23,0,0,0,2.05-.42,1.65,1.65,0,0,0,.75-1.58Zm0-8a2.86,2.86,0,0,0-.88-.46,3.78,3.78,0,0,0-1.17-.17,2.14,2.14,0,0,0-1.26.34,2.49,2.49,0,0,0-.77.88,3.77,3.77,0,0,0-.39,1.22,8.84,8.84,0,0,0-.1,1.34,7.13,7.13,0,0,0,.12,1.31,3.42,3.42,0,0,0,.39,1.1,2.06,2.06,0,0,0,1.88,1,3.46,3.46,0,0,0,1.17-.2,4.63,4.63,0,0,0,1-.51Z" transform="translate(-485.51 -557.25)"/><path class="cls-1" d="M861.23,574.46a2.08,2.08,0,0,1-.62,1.53,2.32,2.32,0,0,1-1.72.62,2.35,2.35,0,0,1-1.65-.58,2.25,2.25,0,0,1,0-3.13,2.32,2.32,0,0,1,1.65-.6,2.45,2.45,0,0,1,1.66.58A2,2,0,0,1,861.23,574.46Z" transform="translate(-485.51 -557.25)"/><path class="cls-1" d="M868.62,574.46A2.08,2.08,0,0,1,868,576a2.32,2.32,0,0,1-1.72.62,2.35,2.35,0,0,1-1.65-.58,2.25,2.25,0,0,1,0-3.13,2.32,2.32,0,0,1,1.65-.6,2.45,2.45,0,0,1,1.66.58A2,2,0,0,1,868.62,574.46Z" transform="translate(-485.51 -557.25)"/><path class="cls-1" d="M876,574.46a2.08,2.08,0,0,1-.62,1.53,2.32,2.32,0,0,1-1.72.62A2.35,2.35,0,0,1,872,576a2.25,2.25,0,0,1,0-3.13,2.32,2.32,0,0,1,1.65-.6,2.45,2.45,0,0,1,1.66.58A2,2,0,0,1,876,574.46Z" transform="translate(-485.51 -557.25)"/></svg>