<svg id="icons" xmlns="http://www.w3.org/2000/svg" viewBox="0 0 672.77 20.95"><defs><style>.cls-1{fill:#fff;}</style></defs><path class="cls-1" d="M413.64,33.26a11.85,11.85,0,0,1-.44,3.29,7.42,7.42,0,0,1-1.32,2.62,6.15,6.15,0,0,1-2.24,1.74,7.56,7.56,0,0,1-3.22.63H402V25h4.25a8.54,8.54,0,0,1,3.36.6,5.93,5.93,0,0,1,2.3,1.69,7,7,0,0,1,1.32,2.62A12.63,12.63,0,0,1,413.64,33.26Zm-3.17,0a13,13,0,0,0-.16-2,6.11,6.11,0,0,0-.58-1.83A3.64,3.64,0,0,0,408.61,28a3,3,0,0,0-1.82-.52h-1.73V39h1.75a3,3,0,0,0,1.77-.5,3.55,3.55,0,0,0,1.13-1.33,6.51,6.51,0,0,0,.59-1.84A12.25,12.25,0,0,0,410.47,33.24Z" transform="translate(-401.98 -24.66)"/><path class="cls-1" d="M418.75,32a4.21,4.21,0,0,1,1.24-1.6,2.5,2.5,0,0,1,1.5-.52,5.32,5.32,0,0,1,.62,0,2.16,2.16,0,0,1,.58.15v2.3a5.25,5.25,0,0,0-.64-.08h-.48a3.76,3.76,0,0,0-1.44.29,4.76,4.76,0,0,0-1.23.72v8.23H416V30.18h2.44Z" transform="translate(-401.98 -24.66)"/><path class="cls-1" d="M423.95,26.31a1.54,1.54,0,0,1,.51-1.2,2.1,2.1,0,0,1,2.62,0,1.54,1.54,0,0,1,.51,1.2,1.51,1.51,0,0,1-.51,1.18,2.14,2.14,0,0,1-2.62,0A1.51,1.51,0,0,1,423.95,26.31Zm3.27,15.23h-2.9V30.18h2.9Z" transform="translate(-401.98 -24.66)"/><path class="cls-1" d="M434.22,38.39l2.45-8.21h2.9l-3.9,11.36h-3L428.8,30.18h2.9Z" transform="translate(-401.98 -24.66)"/><path class="cls-1" d="M440.76,26.31a1.54,1.54,0,0,1,.51-1.2,2.1,2.1,0,0,1,2.62,0,1.54,1.54,0,0,1,.51,1.2,1.51,1.51,0,0,1-.51,1.18,2.14,2.14,0,0,1-2.62,0A1.51,1.51,0,0,1,440.76,26.31ZM444,41.54h-2.9V30.18H444Z" transform="translate(-401.98 -24.66)"/><path class="cls-1" d="M449.71,31.37a5.12,5.12,0,0,1,1.29-1,3.4,3.4,0,0,1,1.72-.44,3,3,0,0,1,2.45,1,3.87,3.87,0,0,1,.84,2.55v8.07h-2.9V34a2.52,2.52,0,0,0-.26-1.25,1.13,1.13,0,0,0-1.07-.46,2.47,2.47,0,0,0-1,.23,4.12,4.12,0,0,0-1,.62v8.39h-2.9V30.18h2.6Z" transform="translate(-401.98 -24.66)"/><path class="cls-1" d="M465.14,39.91a4.17,4.17,0,0,1-1.24.84,3.8,3.8,0,0,1-1.59.33,3.59,3.59,0,0,1-1.89-.47,4,4,0,0,1-1.29-1.23,5.47,5.47,0,0,1-.75-1.72,8,8,0,0,1-.24-2,9.89,9.89,0,0,1,.23-2.13,5.59,5.59,0,0,1,.76-1.86,4,4,0,0,1,1.38-1.31,4.11,4.11,0,0,1,2.09-.49,3.51,3.51,0,0,1,1.56.3,3.59,3.59,0,0,1,1.06.8l.23-.83H468V41.1a4.23,4.23,0,0,1-1.29,3.44A5.7,5.7,0,0,1,463,45.61a19.28,19.28,0,0,1-2-.1,10.58,10.58,0,0,1-1.81-.33V42.74a13.75,13.75,0,0,0,1.64.34,11.74,11.74,0,0,0,1.76.14,3.74,3.74,0,0,0,1.82-.37,1.46,1.46,0,0,0,.67-1.4Zm0-7.06a2.52,2.52,0,0,0-.78-.4,3.34,3.34,0,0,0-1-.15,1.9,1.9,0,0,0-1.12.3,2.22,2.22,0,0,0-.68.78,3.38,3.38,0,0,0-.34,1.08,7.81,7.81,0,0,0-.09,1.18,6.28,6.28,0,0,0,.1,1.16,3,3,0,0,0,.34,1,1.82,1.82,0,0,0,1.67.93,3.05,3.05,0,0,0,1-.17,4.12,4.12,0,0,0,.9-.45Z" transform="translate(-401.98 -24.66)"/><path class="cls-1" d="M477.22,33.23a.86.86,0,0,0,.35.71,4.36,4.36,0,0,0,.86.51l1.11.5a5.38,5.38,0,0,1,1.11.67,3.43,3.43,0,0,1,.86,1,3,3,0,0,1,.35,1.51,3.35,3.35,0,0,1-1.14,2.67,4.55,4.55,0,0,1-3.09,1,10.7,10.7,0,0,1-1.61-.13,7.2,7.2,0,0,1-1.7-.5V38.59a7.43,7.43,0,0,0,3.13.81,2.2,2.2,0,0,0,1-.22.83.83,0,0,0,.41-.81,1,1,0,0,0-.34-.8,3.76,3.76,0,0,0-.86-.54q-.51-.24-1.12-.49a5.18,5.18,0,0,1-1.12-.63,3.19,3.19,0,0,1-.86-1,3.06,3.06,0,0,1-.34-1.54,3.22,3.22,0,0,1,1.17-2.55,3.85,3.85,0,0,1,1.3-.7,5.24,5.24,0,0,1,1.62-.24,10.59,10.59,0,0,1,1.46.1,6.54,6.54,0,0,1,1.51.4v2.53a12,12,0,0,0-1.43-.48,4.85,4.85,0,0,0-1.21-.16,2.22,2.22,0,0,0-1.05.22A.75.75,0,0,0,477.22,33.23Z" transform="translate(-401.98 -24.66)"/><path class="cls-1" d="M489.61,41.54l-.23-1a5.91,5.91,0,0,1-1.09.85,3,3,0,0,1-1.62.39,3.22,3.22,0,0,1-2.49-1,3.79,3.79,0,0,1-.91-2.68,3.86,3.86,0,0,1,.37-1.76,3,3,0,0,1,1-1.16,4.35,4.35,0,0,1,1.49-.63,7.89,7.89,0,0,1,1.79-.2h1.26v-.64a1.28,1.28,0,0,0-.47-1.09,2.05,2.05,0,0,0-1.27-.36,8.41,8.41,0,0,0-1.59.16,11.41,11.41,0,0,0-1.57.41V30.43l.81-.2c.31-.07.62-.13,1-.17l1-.12q.51,0,.92,0a4.23,4.23,0,0,1,3.13,1,4.2,4.2,0,0,1,1,3.07v7.54Zm-.39-5.13h-1a2.35,2.35,0,0,0-1.4.38,1.32,1.32,0,0,0-.52,1.15,1.64,1.64,0,0,0,.33,1,1.24,1.24,0,0,0,1.05.43,2.13,2.13,0,0,0,.88-.17,5.08,5.08,0,0,0,.7-.38Z" transform="translate(-401.98 -24.66)"/><path class="cls-1" d="M497.66,41.54h-2.9V25h2.9Z" transform="translate(-401.98 -24.66)"/><path class="cls-1" d="M502.86,36.8a3,3,0,0,0,.83,1.87,2.81,2.81,0,0,0,2.1.73,6.15,6.15,0,0,0,1.6-.2,13.8,13.8,0,0,0,1.54-.52v2.44a6.73,6.73,0,0,1-1.59.49,9.84,9.84,0,0,1-1.86.17,6.92,6.92,0,0,1-2.56-.43,4.33,4.33,0,0,1-1.74-1.21,4.91,4.91,0,0,1-1-1.87,9,9,0,0,1-.31-2.45,8.29,8.29,0,0,1,.3-2.24,5.94,5.94,0,0,1,.9-1.9,4.3,4.3,0,0,1,1.53-1.31,4.77,4.77,0,0,1,2.22-.48,4.45,4.45,0,0,1,2.09.45,3.94,3.94,0,0,1,1.39,1.21,4.93,4.93,0,0,1,.77,1.75,9.18,9.18,0,0,1,.23,2.07q0,.35,0,.78t0,.64Zm3.45-2a5.75,5.75,0,0,0-.08-1A2.34,2.34,0,0,0,506,33a1.42,1.42,0,0,0-.54-.53,1.73,1.73,0,0,0-.86-.19,1.38,1.38,0,0,0-.75.2,1.67,1.67,0,0,0-.52.54,2.7,2.7,0,0,0-.32.79,4.92,4.92,0,0,0-.13.95Z" transform="translate(-401.98 -24.66)"/><path class="cls-1" d="M513.76,33.23a.86.86,0,0,0,.35.71,4.36,4.36,0,0,0,.86.51l1.11.5a5.38,5.38,0,0,1,1.11.67,3.43,3.43,0,0,1,.86,1,3,3,0,0,1,.35,1.51,3.35,3.35,0,0,1-1.14,2.67,4.55,4.55,0,0,1-3.09,1,10.7,10.7,0,0,1-1.61-.13,7.2,7.2,0,0,1-1.7-.5V38.59a7.43,7.43,0,0,0,3.13.81,2.2,2.2,0,0,0,1-.22.83.83,0,0,0,.41-.81,1,1,0,0,0-.34-.8,3.76,3.76,0,0,0-.86-.54q-.51-.24-1.12-.49a5.18,5.18,0,0,1-1.12-.63,3.19,3.19,0,0,1-.86-1,3.06,3.06,0,0,1-.34-1.54A3.22,3.22,0,0,1,512,30.84a3.85,3.85,0,0,1,1.3-.7,5.24,5.24,0,0,1,1.62-.24,10.59,10.59,0,0,1,1.46.1,6.54,6.54,0,0,1,1.51.4v2.53a12,12,0,0,0-1.43-.48,4.85,4.85,0,0,0-1.21-.16,2.22,2.22,0,0,0-1.05.22A.75.75,0,0,0,513.76,33.23Z" transform="translate(-401.98 -24.66)"/><path class="cls-1" d="M528.55,30.18h2.92v2.35h-2.92v5.3a1.72,1.72,0,0,0,.34,1.24,1.5,1.5,0,0,0,1.08.34,5.35,5.35,0,0,0,1.79-.3v2.35a10.17,10.17,0,0,1-1.17.25,9.45,9.45,0,0,1-1.4.09,3.54,3.54,0,0,1-2.63-.92,3.6,3.6,0,0,1-.91-2.64v-5.7h-2.18V30.18h2.18V27.12h2.9Z" transform="translate(-401.98 -24.66)"/><path class="cls-1" d="M536.32,32a4.21,4.21,0,0,1,1.24-1.6,2.5,2.5,0,0,1,1.5-.52,5.32,5.32,0,0,1,.62,0,2.16,2.16,0,0,1,.58.15v2.3a5.25,5.25,0,0,0-.64-.08h-.48a3.76,3.76,0,0,0-1.44.29,4.76,4.76,0,0,0-1.23.72v8.23h-2.9V30.18H536Z" transform="translate(-401.98 -24.66)"/><path class="cls-1" d="M547,41.54l-.23-1a5.91,5.91,0,0,1-1.09.85,3,3,0,0,1-1.62.39,3.22,3.22,0,0,1-2.49-1,3.79,3.79,0,0,1-.91-2.68,3.86,3.86,0,0,1,.37-1.76,3,3,0,0,1,1-1.16,4.35,4.35,0,0,1,1.49-.63,7.89,7.89,0,0,1,1.79-.2h1.26v-.64a1.28,1.28,0,0,0-.47-1.09,2.05,2.05,0,0,0-1.27-.36,8.41,8.41,0,0,0-1.59.16,11.41,11.41,0,0,0-1.57.41V30.43l.81-.2c.31-.07.62-.13,1-.17l1-.12q.51,0,.92,0a4.23,4.23,0,0,1,3.13,1,4.2,4.2,0,0,1,1,3.07v7.54Zm-.39-5.13h-1a2.35,2.35,0,0,0-1.4.38,1.32,1.32,0,0,0-.52,1.15,1.64,1.64,0,0,0,.33,1,1.24,1.24,0,0,0,1.05.43,2.13,2.13,0,0,0,.88-.17,5.08,5.08,0,0,0,.7-.38Z" transform="translate(-401.98 -24.66)"/><path class="cls-1" d="M555,31.37a5.12,5.12,0,0,1,1.29-1A3.4,3.4,0,0,1,558,29.9a3,3,0,0,1,2.45,1,3.87,3.87,0,0,1,.84,2.55v8.07h-2.9V34a2.52,2.52,0,0,0-.26-1.25,1.13,1.13,0,0,0-1.07-.46,2.47,2.47,0,0,0-1,.23,4.12,4.12,0,0,0-1,.62v8.39h-2.9V30.18h2.6Z" transform="translate(-401.98 -24.66)"/><path class="cls-1" d="M566.23,33.23a.86.86,0,0,0,.35.71,4.36,4.36,0,0,0,.86.51l1.11.5a5.38,5.38,0,0,1,1.11.67,3.43,3.43,0,0,1,.86,1,3,3,0,0,1,.35,1.51,3.35,3.35,0,0,1-1.14,2.67,4.55,4.55,0,0,1-3.09,1,10.7,10.7,0,0,1-1.61-.13,7.2,7.2,0,0,1-1.7-.5V38.59a7.43,7.43,0,0,0,3.13.81,2.2,2.2,0,0,0,1-.22.83.83,0,0,0,.41-.81,1,1,0,0,0-.34-.8,3.76,3.76,0,0,0-.86-.54q-.51-.24-1.12-.49a5.18,5.18,0,0,1-1.12-.63,3.19,3.19,0,0,1-.86-1,3.06,3.06,0,0,1-.34-1.54,3.22,3.22,0,0,1,1.17-2.55,3.85,3.85,0,0,1,1.3-.7,5.24,5.24,0,0,1,1.62-.24,10.59,10.59,0,0,1,1.46.1,6.54,6.54,0,0,1,1.51.4v2.53a12,12,0,0,0-1.43-.48,4.85,4.85,0,0,0-1.21-.16,2.22,2.22,0,0,0-1.05.22A.75.75,0,0,0,566.23,33.23Z" transform="translate(-401.98 -24.66)"/><path class="cls-1" d="M577.61,24.77a10.16,10.16,0,0,1,1.14.07,8.24,8.24,0,0,1,1.07.18v2.42c-.29-.08-.59-.14-.89-.2a5.23,5.23,0,0,0-.91-.08,1.26,1.26,0,0,0-1.45,1.4v1.61h3v2.35h-3v9h-2.9v-9h-1.89V30.18h1.89V28.64a3.85,3.85,0,0,1,1-2.86A4,4,0,0,1,577.61,24.77Z" transform="translate(-401.98 -24.66)"/><path class="cls-1" d="M590.14,35.86a8.93,8.93,0,0,1-.29,2.3,5.27,5.27,0,0,1-.91,1.89,4.4,4.4,0,0,1-1.59,1.28,5.25,5.25,0,0,1-2.32.47,5.19,5.19,0,0,1-2.3-.47A4.4,4.4,0,0,1,581.15,40a5.27,5.27,0,0,1-.91-1.89,8.93,8.93,0,0,1-.29-2.3,9.19,9.19,0,0,1,.28-2.28,5.35,5.35,0,0,1,.89-1.9,4.38,4.38,0,0,1,1.58-1.3,5.95,5.95,0,0,1,4.69,0,4.48,4.48,0,0,1,1.59,1.3,5.24,5.24,0,0,1,.9,1.9A9.19,9.19,0,0,1,590.14,35.86Zm-3,0a12,12,0,0,0-.07-1.32,3.45,3.45,0,0,0-.3-1.12,2,2,0,0,0-.64-.78,1.89,1.89,0,0,0-1.13-.3,1.85,1.85,0,0,0-1.1.3,1.93,1.93,0,0,0-.63.78,3.87,3.87,0,0,0-.3,1.12,10.48,10.48,0,0,0-.08,1.32,10.75,10.75,0,0,0,.08,1.33,4.18,4.18,0,0,0,.3,1.15,1.89,1.89,0,0,0,.63.8,1.84,1.84,0,0,0,1.1.3,1.89,1.89,0,0,0,1.12-.3,1.85,1.85,0,0,0,.64-.8,4.21,4.21,0,0,0,.3-1.15A10.94,10.94,0,0,0,587.18,35.81Z" transform="translate(-401.98 -24.66)"/><path class="cls-1" d="M595.11,32a4.21,4.21,0,0,1,1.24-1.6,2.5,2.5,0,0,1,1.5-.52,5.32,5.32,0,0,1,.62,0,2.16,2.16,0,0,1,.58.15v2.3a5.25,5.25,0,0,0-.64-.08h-.48a3.76,3.76,0,0,0-1.44.29,4.76,4.76,0,0,0-1.23.72v8.23h-2.9V30.18h2.44Z" transform="translate(-401.98 -24.66)"/><path class="cls-1" d="M609.69,41.54h-2.9V34a2.49,2.49,0,0,0-.26-1.26q-.26-.45-1.14-.45a2,2,0,0,0-.93.25,5.24,5.24,0,0,0-.89.6v8.39h-2.9V30.18h2.58l.23,1.22a5.35,5.35,0,0,1,1.28-1,3.26,3.26,0,0,1,1.71-.45,3,3,0,0,1,1.6.41,3.27,3.27,0,0,1,1.09,1.08,6.5,6.5,0,0,1,1.39-1.06,3.6,3.6,0,0,1,1.81-.44,3.29,3.29,0,0,1,2.59,1,3.76,3.76,0,0,1,.86,2.6v8.07h-2.9V34a2.41,2.41,0,0,0-.28-1.26,1.17,1.17,0,0,0-1.08-.45,2.44,2.44,0,0,0-1,.22,4.25,4.25,0,0,0-.92.54,1.67,1.67,0,0,1,0,.28v8.21Z" transform="translate(-401.98 -24.66)"/><path class="cls-1" d="M624.21,41.54l-.23-1a5.91,5.91,0,0,1-1.09.85,3,3,0,0,1-1.62.39,3.22,3.22,0,0,1-2.49-1,3.79,3.79,0,0,1-.91-2.68,3.86,3.86,0,0,1,.37-1.76,3,3,0,0,1,1-1.16,4.35,4.35,0,0,1,1.49-.63,7.89,7.89,0,0,1,1.79-.2h1.26v-.64a1.28,1.28,0,0,0-.47-1.09,2.05,2.05,0,0,0-1.27-.36,8.41,8.41,0,0,0-1.59.16,11.41,11.41,0,0,0-1.57.41V30.43l.81-.2c.31-.07.62-.13,1-.17l1-.12q.51,0,.92,0a4.23,4.23,0,0,1,3.13,1,4.2,4.2,0,0,1,1,3.07v7.54Zm-.39-5.13h-1a2.35,2.35,0,0,0-1.4.38,1.32,1.32,0,0,0-.52,1.15,1.64,1.64,0,0,0,.33,1,1.24,1.24,0,0,0,1.05.43,2.13,2.13,0,0,0,.88-.17,5.08,5.08,0,0,0,.7-.38Z" transform="translate(-401.98 -24.66)"/><path class="cls-1" d="M633.09,30.18H636v2.35h-2.92v5.3a1.72,1.72,0,0,0,.34,1.24,1.5,1.5,0,0,0,1.08.34,5.35,5.35,0,0,0,1.79-.3v2.35a10.17,10.17,0,0,1-1.17.25,9.45,9.45,0,0,1-1.4.09,3.54,3.54,0,0,1-2.63-.92,3.6,3.6,0,0,1-.91-2.64v-5.7H628V30.18h2.18V27.12h2.9Z" transform="translate(-401.98 -24.66)"/><path class="cls-1" d="M637.73,26.31a1.54,1.54,0,0,1,.51-1.2,2.1,2.1,0,0,1,2.62,0,1.54,1.54,0,0,1,.51,1.2,1.51,1.51,0,0,1-.51,1.18,2.14,2.14,0,0,1-2.62,0A1.51,1.51,0,0,1,637.73,26.31ZM641,41.54h-2.9V30.18H641Z" transform="translate(-401.98 -24.66)"/><path class="cls-1" d="M653.39,35.86a8.93,8.93,0,0,1-.29,2.3A5.27,5.27,0,0,1,652.2,40a4.4,4.4,0,0,1-1.59,1.28,5.25,5.25,0,0,1-2.32.47,5.19,5.19,0,0,1-2.3-.47A4.4,4.4,0,0,1,644.4,40a5.27,5.27,0,0,1-.91-1.89,8.93,8.93,0,0,1-.29-2.3,9.19,9.19,0,0,1,.28-2.28,5.35,5.35,0,0,1,.89-1.9,4.38,4.38,0,0,1,1.58-1.3,5.95,5.95,0,0,1,4.69,0,4.48,4.48,0,0,1,1.59,1.3,5.24,5.24,0,0,1,.9,1.9A9.19,9.19,0,0,1,653.39,35.86Zm-3,0a12,12,0,0,0-.07-1.32,3.45,3.45,0,0,0-.3-1.12,2,2,0,0,0-.64-.78,1.89,1.89,0,0,0-1.13-.3,1.85,1.85,0,0,0-1.1.3,1.93,1.93,0,0,0-.63.78,3.87,3.87,0,0,0-.3,1.12,10.48,10.48,0,0,0-.08,1.32,10.75,10.75,0,0,0,.08,1.33,4.18,4.18,0,0,0,.3,1.15,1.89,1.89,0,0,0,.63.8,1.84,1.84,0,0,0,1.1.3,1.89,1.89,0,0,0,1.12-.3,1.85,1.85,0,0,0,.64-.8,4.21,4.21,0,0,0,.3-1.15A10.94,10.94,0,0,0,650.43,35.81Z" transform="translate(-401.98 -24.66)"/><path class="cls-1" d="M658.43,31.37a5.12,5.12,0,0,1,1.29-1,3.4,3.4,0,0,1,1.72-.44,3,3,0,0,1,2.45,1,3.87,3.87,0,0,1,.84,2.55v8.07h-2.9V34a2.52,2.52,0,0,0-.26-1.25,1.13,1.13,0,0,0-1.07-.46,2.47,2.47,0,0,0-1,.23,4.12,4.12,0,0,0-1,.62v8.39h-2.9V30.18h2.6Z" transform="translate(-401.98 -24.66)"/><path class="cls-1" d="M681.48,37.49l1.66-7.31H686l-3.29,11.36h-2.53l-1.89-7.87-1.79,7.87h-2.62l-3.43-11.36h2.9l1.93,7.34L677,30.18h2.74Z" transform="translate(-401.98 -24.66)"/><path class="cls-1" d="M687.34,26.31a1.54,1.54,0,0,1,.51-1.2,2.1,2.1,0,0,1,2.62,0,1.54,1.54,0,0,1,.51,1.2,1.51,1.51,0,0,1-.51,1.18,2.14,2.14,0,0,1-2.62,0A1.51,1.51,0,0,1,687.34,26.31Zm3.27,15.23h-2.9V30.18h2.9Z" transform="translate(-401.98 -24.66)"/><path class="cls-1" d="M697.32,30.18h2.92v2.35h-2.92v5.3a1.72,1.72,0,0,0,.34,1.24,1.5,1.5,0,0,0,1.08.34,5.35,5.35,0,0,0,1.79-.3v2.35a10.17,10.17,0,0,1-1.17.25,9.45,9.45,0,0,1-1.4.09,3.54,3.54,0,0,1-2.63-.92,3.6,3.6,0,0,1-.91-2.64v-5.7h-2.18V30.18h2.18V27.12h2.9Z" transform="translate(-401.98 -24.66)"/><path class="cls-1" d="M711.49,41.54h-2.9V34a2.52,2.52,0,0,0-.26-1.25,1.13,1.13,0,0,0-1.07-.46,2.47,2.47,0,0,0-1,.23,4.12,4.12,0,0,0-1,.62v8.39h-2.9V25h2.9v6.33a5.47,5.47,0,0,1,1.25-1,3.35,3.35,0,0,1,1.69-.41,3,3,0,0,1,2.45,1,3.87,3.87,0,0,1,.84,2.55Z" transform="translate(-401.98 -24.66)"/><path class="cls-1" d="M727.52,36.75a5.92,5.92,0,0,1-.33,2,4.32,4.32,0,0,1-1,1.6,4.6,4.6,0,0,1-1.62,1,6,6,0,0,1-2.21.38,11.51,11.51,0,0,1-4.67-.89V38a13.24,13.24,0,0,0,2.23.92,7.7,7.7,0,0,0,2.23.32,2.34,2.34,0,0,0,1.63-.51,1.87,1.87,0,0,0,.56-1.46,2.12,2.12,0,0,0-.49-1.46,5,5,0,0,0-1.22-1,16.51,16.51,0,0,0-1.57-.81A7.83,7.83,0,0,1,719.5,33a4.78,4.78,0,0,1-1.22-1.42,4.35,4.35,0,0,1-.49-2.18,4.84,4.84,0,0,1,.38-2A4.18,4.18,0,0,1,719.24,26a4.6,4.6,0,0,1,1.64-.92,6.77,6.77,0,0,1,2.1-.31,10.4,10.4,0,0,1,2,.18,7.87,7.87,0,0,1,1.72.55v2.88a12.76,12.76,0,0,0-1.75-.72,5.92,5.92,0,0,0-1.84-.29,2.49,2.49,0,0,0-1.56.47,1.55,1.55,0,0,0-.62,1.31,1.82,1.82,0,0,0,.48,1.28,5.25,5.25,0,0,0,1.21.95q.73.43,1.58.86a9.07,9.07,0,0,1,1.58,1A5.21,5.21,0,0,1,727,34.71,4,4,0,0,1,727.52,36.75Z" transform="translate(-401.98 -24.66)"/><path class="cls-1" d="M735.39,41.54l-.23-1a5.91,5.91,0,0,1-1.09.85,3,3,0,0,1-1.62.39,3.22,3.22,0,0,1-2.49-1,3.79,3.79,0,0,1-.91-2.68,3.86,3.86,0,0,1,.37-1.76,3,3,0,0,1,1-1.16,4.35,4.35,0,0,1,1.49-.63,7.89,7.89,0,0,1,1.79-.2H735v-.64a1.28,1.28,0,0,0-.47-1.09,2.05,2.05,0,0,0-1.27-.36,8.41,8.41,0,0,0-1.59.16,11.41,11.41,0,0,0-1.57.41V30.43l.81-.2c.31-.07.62-.13,1-.17l1-.12q.51,0,.92,0a4.23,4.23,0,0,1,3.13,1,4.2,4.2,0,0,1,1,3.07v7.54ZM735,36.41h-1a2.35,2.35,0,0,0-1.4.38,1.32,1.32,0,0,0-.52,1.15,1.64,1.64,0,0,0,.33,1,1.24,1.24,0,0,0,1.05.43,2.13,2.13,0,0,0,.88-.17,5.08,5.08,0,0,0,.7-.38Z" transform="translate(-401.98 -24.66)"/><path class="cls-1" d="M743.44,41.54h-2.9V25h2.9Z" transform="translate(-401.98 -24.66)"/><path class="cls-1" d="M748.64,36.8a3,3,0,0,0,.83,1.87,2.81,2.81,0,0,0,2.1.73,6.15,6.15,0,0,0,1.6-.2,13.8,13.8,0,0,0,1.54-.52v2.44a6.73,6.73,0,0,1-1.59.49,9.84,9.84,0,0,1-1.86.17,6.92,6.92,0,0,1-2.56-.43A4.33,4.33,0,0,1,747,40.16a4.91,4.91,0,0,1-1-1.87,9,9,0,0,1-.31-2.45,8.29,8.29,0,0,1,.3-2.24,5.94,5.94,0,0,1,.9-1.9,4.3,4.3,0,0,1,1.53-1.31,4.77,4.77,0,0,1,2.22-.48,4.45,4.45,0,0,1,2.09.45,3.94,3.94,0,0,1,1.39,1.21,4.93,4.93,0,0,1,.77,1.75,9.18,9.18,0,0,1,.23,2.07q0,.35,0,.78t0,.64Zm3.45-2a5.75,5.75,0,0,0-.08-1,2.34,2.34,0,0,0-.27-.79,1.42,1.42,0,0,0-.54-.53,1.73,1.73,0,0,0-.86-.19,1.38,1.38,0,0,0-.75.2,1.67,1.67,0,0,0-.52.54,2.7,2.7,0,0,0-.32.79,4.92,4.92,0,0,0-.13.95Z" transform="translate(-401.98 -24.66)"/><path class="cls-1" d="M759.54,33.23a.86.86,0,0,0,.35.71,4.36,4.36,0,0,0,.86.51l1.11.5a5.38,5.38,0,0,1,1.11.67,3.43,3.43,0,0,1,.86,1,3,3,0,0,1,.35,1.51A3.35,3.35,0,0,1,763,40.8a4.55,4.55,0,0,1-3.09,1,10.7,10.7,0,0,1-1.61-.13,7.2,7.2,0,0,1-1.7-.5V38.59a7.43,7.43,0,0,0,3.13.81,2.2,2.2,0,0,0,1-.22.83.83,0,0,0,.41-.81,1,1,0,0,0-.34-.8A3.76,3.76,0,0,0,760,37q-.51-.24-1.12-.49a5.18,5.18,0,0,1-1.12-.63,3.19,3.19,0,0,1-.86-1,3.06,3.06,0,0,1-.34-1.54,3.22,3.22,0,0,1,1.17-2.55,3.85,3.85,0,0,1,1.3-.7,5.24,5.24,0,0,1,1.62-.24,10.59,10.59,0,0,1,1.46.1,6.54,6.54,0,0,1,1.51.4v2.53a12,12,0,0,0-1.43-.48,4.85,4.85,0,0,0-1.21-.16,2.22,2.22,0,0,0-1.05.22A.75.75,0,0,0,759.54,33.23Z" transform="translate(-401.98 -24.66)"/><path class="cls-1" d="M770.92,24.77a10.16,10.16,0,0,1,1.14.07,8.24,8.24,0,0,1,1.07.18v2.42c-.29-.08-.59-.14-.89-.2a5.23,5.23,0,0,0-.91-.08,1.26,1.26,0,0,0-1.45,1.4v1.61h3v2.35h-3v9H767v-9H765.1V30.18H767V28.64a3.85,3.85,0,0,1,1-2.86A4,4,0,0,1,770.92,24.77Z" transform="translate(-401.98 -24.66)"/><path class="cls-1" d="M783.46,35.86a8.93,8.93,0,0,1-.29,2.3,5.27,5.27,0,0,1-.91,1.89,4.4,4.4,0,0,1-1.59,1.28,5.25,5.25,0,0,1-2.32.47,5.19,5.19,0,0,1-2.3-.47A4.4,4.4,0,0,1,774.46,40a5.27,5.27,0,0,1-.91-1.89,8.93,8.93,0,0,1-.29-2.3,9.19,9.19,0,0,1,.28-2.28,5.35,5.35,0,0,1,.89-1.9,4.38,4.38,0,0,1,1.58-1.3,5.95,5.95,0,0,1,4.69,0,4.48,4.48,0,0,1,1.59,1.3,5.24,5.24,0,0,1,.9,1.9A9.19,9.19,0,0,1,783.46,35.86Zm-3,0a12,12,0,0,0-.07-1.32,3.45,3.45,0,0,0-.3-1.12,2,2,0,0,0-.64-.78,1.89,1.89,0,0,0-1.13-.3,1.85,1.85,0,0,0-1.1.3,1.93,1.93,0,0,0-.63.78,3.87,3.87,0,0,0-.3,1.12,10.48,10.48,0,0,0-.08,1.32,10.75,10.75,0,0,0,.08,1.33,4.18,4.18,0,0,0,.3,1.15,1.89,1.89,0,0,0,.63.8,1.84,1.84,0,0,0,1.1.3,1.89,1.89,0,0,0,1.12-.3,1.85,1.85,0,0,0,.64-.8,4.21,4.21,0,0,0,.3-1.15A10.94,10.94,0,0,0,780.49,35.81Z" transform="translate(-401.98 -24.66)"/><path class="cls-1" d="M788.42,32a4.21,4.21,0,0,1,1.24-1.6,2.5,2.5,0,0,1,1.5-.52,5.32,5.32,0,0,1,.62,0,2.16,2.16,0,0,1,.58.15v2.3a5.25,5.25,0,0,0-.64-.08h-.48a3.76,3.76,0,0,0-1.44.29,4.76,4.76,0,0,0-1.23.72v8.23h-2.9V30.18h2.44Z" transform="translate(-401.98 -24.66)"/><path class="cls-1" d="M798.77,39.4a6.15,6.15,0,0,0,1.36-.13,13,13,0,0,0,1.29-.38v2.41a6.85,6.85,0,0,1-1.48.37,11.55,11.55,0,0,1-1.62.12,6,6,0,0,1-2.38-.43,4.43,4.43,0,0,1-1.67-1.21,5,5,0,0,1-1-1.9,8.89,8.89,0,0,1-.32-2.47,7.62,7.62,0,0,1,.34-2.32,5.25,5.25,0,0,1,1-1.87,4.77,4.77,0,0,1,1.71-1.24,5.89,5.89,0,0,1,2.38-.45,10.24,10.24,0,0,1,1.46.09,11,11,0,0,1,1.37.3v2.48a12.49,12.49,0,0,0-1.21-.36,5,5,0,0,0-1.14-.13,2.74,2.74,0,0,0-2.23.91,3.69,3.69,0,0,0-.76,2.45,7.08,7.08,0,0,0,.15,1.5,3.43,3.43,0,0,0,.48,1.19,2.29,2.29,0,0,0,.87.78A2.9,2.9,0,0,0,798.77,39.4Z" transform="translate(-401.98 -24.66)"/><path class="cls-1" d="M805.51,36.8a3,3,0,0,0,.83,1.87,2.81,2.81,0,0,0,2.1.73,6.15,6.15,0,0,0,1.6-.2,13.8,13.8,0,0,0,1.54-.52v2.44a6.73,6.73,0,0,1-1.59.49,9.84,9.84,0,0,1-1.86.17,6.92,6.92,0,0,1-2.56-.43,4.33,4.33,0,0,1-1.74-1.21,4.91,4.91,0,0,1-1-1.87,9,9,0,0,1-.31-2.45,8.29,8.29,0,0,1,.3-2.24,5.94,5.94,0,0,1,.9-1.9,4.3,4.3,0,0,1,1.53-1.31,4.77,4.77,0,0,1,2.22-.48,4.45,4.45,0,0,1,2.09.45A3.94,3.94,0,0,1,811,31.56a4.93,4.93,0,0,1,.77,1.75,9.18,9.18,0,0,1,.23,2.07q0,.35,0,.78t0,.64Zm3.45-2a5.75,5.75,0,0,0-.08-1,2.34,2.34,0,0,0-.27-.79,1.42,1.42,0,0,0-.54-.53,1.73,1.73,0,0,0-.86-.19,1.38,1.38,0,0,0-.75.2,1.67,1.67,0,0,0-.52.54,2.7,2.7,0,0,0-.32.79,4.92,4.92,0,0,0-.13.95Z" transform="translate(-401.98 -24.66)"/><path class="cls-1" d="M818.12,39.88a1.85,1.85,0,0,1-.55,1.36,2.05,2.05,0,0,1-1.52.55,2.08,2.08,0,0,1-1.46-.52,2,2,0,0,1,0-2.77A2,2,0,0,1,816,38a2.17,2.17,0,0,1,1.47.52A1.75,1.75,0,0,1,818.12,39.88Z" transform="translate(-401.98 -24.66)"/><path class="cls-1" d="M823.64,25h10.42v1.77h-4.21V41.54h-2V26.73h-4.21Z" transform="translate(-401.98 -24.66)"/><path class="cls-1" d="M844.48,41.54h-1.91V33.8a2.72,2.72,0,0,0-.46-1.71,2,2,0,0,0-1.63-.58,2.56,2.56,0,0,0-1.37.43,6.52,6.52,0,0,0-1.35,1.16v8.44h-1.91V25h1.91v6.58a7.24,7.24,0,0,1,1.41-1.13,3.67,3.67,0,0,1,2-.51,3.28,3.28,0,0,1,2.46.9,3.41,3.41,0,0,1,.87,2.48Z" transform="translate(-401.98 -24.66)"/><path class="cls-1" d="M848.87,36.41a5.46,5.46,0,0,0,.18,1.43,3.47,3.47,0,0,0,.58,1.21,2.77,2.77,0,0,0,1.05.83,3.75,3.75,0,0,0,1.59.3,7.42,7.42,0,0,0,3.19-.78v1.66a6.53,6.53,0,0,1-1.69.55,9.83,9.83,0,0,1-1.85.18,5.41,5.41,0,0,1-2.27-.44,4.21,4.21,0,0,1-1.58-1.22,5,5,0,0,1-.91-1.87,9.55,9.55,0,0,1-.29-2.43,8.85,8.85,0,0,1,.29-2.28,5.65,5.65,0,0,1,.87-1.89,4.42,4.42,0,0,1,1.47-1.29,4.29,4.29,0,0,1,2.08-.48,4,4,0,0,1,2,.45,3.78,3.78,0,0,1,1.31,1.2,5,5,0,0,1,.72,1.74,9.47,9.47,0,0,1,.22,2V36a4.53,4.53,0,0,1,0,.46Zm5-1.61a8.29,8.29,0,0,0-.09-1.22,2.9,2.9,0,0,0-.36-1.06,2,2,0,0,0-.75-.73,2.46,2.46,0,0,0-1.24-.28,2.11,2.11,0,0,0-1,.26,2.47,2.47,0,0,0-.78.69,3.43,3.43,0,0,0-.52,1,4.88,4.88,0,0,0-.21,1.3Z" transform="translate(-401.98 -24.66)"/><path class="cls-1" d="M872.71,39l2.38-8.83h1.82l-3.29,11.36h-1.91l-2.35-9-2.37,9h-1.91l-3.45-11.36h2L866.11,39l2.36-8.79h1.93Z" transform="translate(-401.98 -24.66)"/><path class="cls-1" d="M884.57,41.54l-.21-.92a6.62,6.62,0,0,1-1.26.8,3.73,3.73,0,0,1-1.7.37,3.52,3.52,0,0,1-2.59-.93,3.48,3.48,0,0,1-.94-2.59,4.18,4.18,0,0,1,.33-1.73,3.34,3.34,0,0,1,.92-1.22,3.91,3.91,0,0,1,1.4-.72,6.21,6.21,0,0,1,1.78-.24h2v-.61a2.37,2.37,0,0,0-.52-1.74,2.42,2.42,0,0,0-1.71-.5,7.43,7.43,0,0,0-1.55.18,9.72,9.72,0,0,0-1.5.44V30.38a10.66,10.66,0,0,1,1.53-.33,11.68,11.68,0,0,1,1.8-.15,4,4,0,0,1,2.93.93,3.93,3.93,0,0,1,.93,2.89v7.82ZM884.29,36h-1.87a3.17,3.17,0,0,0-1.9.49,1.92,1.92,0,0,0-.67,1.66,2.12,2.12,0,0,0,.51,1.53,2.05,2.05,0,0,0,1.54.53,3,3,0,0,0,1.33-.29,4.74,4.74,0,0,0,1.06-.68Z" transform="translate(-401.98 -24.66)"/><path class="cls-1" d="M892.66,39l2.85-8.79h2l-4,11.27a11,11,0,0,1-.74,1.7,5.68,5.68,0,0,1-1,1.31,3.9,3.9,0,0,1-1.28.85,4.3,4.3,0,0,1-1.64.3,4.84,4.84,0,0,1-.66,0l-.7-.12V43.84l.67.12a4.69,4.69,0,0,0,.6,0,2.81,2.81,0,0,0,1.08-.18,2.13,2.13,0,0,0,.76-.54,3.65,3.65,0,0,0,.56-.85q.24-.5.49-1.12L887.6,30.18h2.09Z" transform="translate(-401.98 -24.66)"/><path class="cls-1" d="M913.65,39,916,30.18h1.82l-3.29,11.36h-1.91l-2.35-9-2.37,9H906l-3.45-11.36h2L907,39l2.36-8.79h1.93Z" transform="translate(-401.98 -24.66)"/><path class="cls-1" d="M921,36.41a5.46,5.46,0,0,0,.18,1.43,3.47,3.47,0,0,0,.58,1.21,2.77,2.77,0,0,0,1.05.83,3.75,3.75,0,0,0,1.59.3,7.42,7.42,0,0,0,3.19-.78v1.66a6.53,6.53,0,0,1-1.69.55,9.83,9.83,0,0,1-1.85.18,5.41,5.41,0,0,1-2.27-.44,4.21,4.21,0,0,1-1.58-1.22,5,5,0,0,1-.91-1.87,9.55,9.55,0,0,1-.29-2.43,8.85,8.85,0,0,1,.29-2.28,5.65,5.65,0,0,1,.87-1.89,4.42,4.42,0,0,1,1.47-1.29,4.29,4.29,0,0,1,2.08-.48,4,4,0,0,1,2,.45,3.78,3.78,0,0,1,1.31,1.2,5,5,0,0,1,.72,1.74,9.47,9.47,0,0,1,.22,2V36a4.53,4.53,0,0,1,0,.46Zm5-1.61a8.29,8.29,0,0,0-.09-1.22,2.9,2.9,0,0,0-.36-1.06,2,2,0,0,0-.75-.73,2.46,2.46,0,0,0-1.24-.28,2.11,2.11,0,0,0-1,.26,2.47,2.47,0,0,0-.78.69,3.43,3.43,0,0,0-.52,1,4.88,4.88,0,0,0-.21,1.3Z" transform="translate(-401.98 -24.66)"/><path class="cls-1" d="M941.24,38.39a3.58,3.58,0,0,1-.3,1.52,2.87,2.87,0,0,1-.82,1.06,3.54,3.54,0,0,1-1.2.62,5,5,0,0,1-1.46.21,8.71,8.71,0,0,1-1.64-.16,7.42,7.42,0,0,1-1.62-.51V39.38a11.91,11.91,0,0,0,1.47.56,5.41,5.41,0,0,0,1.62.24,2.63,2.63,0,0,0,1.41-.35,1.29,1.29,0,0,0,.56-1.19,1.51,1.51,0,0,0-.36-1,3.92,3.92,0,0,0-.88-.73,12.8,12.8,0,0,0-1.14-.62,6.67,6.67,0,0,1-1.14-.7,3.51,3.51,0,0,1-.88-1A2.92,2.92,0,0,1,934.5,33a3,3,0,0,1,.28-1.3,2.86,2.86,0,0,1,.76-1,3.48,3.48,0,0,1,1.15-.62,4.63,4.63,0,0,1,1.45-.22,7.44,7.44,0,0,1,2.78.55v1.82a12.15,12.15,0,0,0-1.25-.53,4.15,4.15,0,0,0-1.41-.23,2.18,2.18,0,0,0-1.28.35,1.17,1.17,0,0,0-.5,1,1.39,1.39,0,0,0,.35,1,3.79,3.79,0,0,0,.88.7q.53.31,1.15.61a6.34,6.34,0,0,1,1.15.71,3.54,3.54,0,0,1,.88,1A2.93,2.93,0,0,1,941.24,38.39Z" transform="translate(-401.98 -24.66)"/><path class="cls-1" d="M944.89,36.41a5.46,5.46,0,0,0,.18,1.43,3.47,3.47,0,0,0,.58,1.21,2.77,2.77,0,0,0,1.05.83,3.75,3.75,0,0,0,1.59.3,7.42,7.42,0,0,0,3.19-.78v1.66a6.53,6.53,0,0,1-1.69.55,9.83,9.83,0,0,1-1.85.18,5.41,5.41,0,0,1-2.27-.44,4.21,4.21,0,0,1-1.58-1.22,5,5,0,0,1-.91-1.87,9.55,9.55,0,0,1-.29-2.43,8.85,8.85,0,0,1,.29-2.28,5.65,5.65,0,0,1,.87-1.89,4.42,4.42,0,0,1,1.47-1.29,4.29,4.29,0,0,1,2.08-.48,4,4,0,0,1,2,.45,3.78,3.78,0,0,1,1.31,1.2,5,5,0,0,1,.72,1.74,9.47,9.47,0,0,1,.22,2V36a4.53,4.53,0,0,1,0,.46Zm5-1.61a8.29,8.29,0,0,0-.09-1.22,2.9,2.9,0,0,0-.36-1.06,2,2,0,0,0-.75-.73,2.46,2.46,0,0,0-1.24-.28,2.11,2.11,0,0,0-1,.26,2.47,2.47,0,0,0-.78.69,3.43,3.43,0,0,0-.52,1,4.88,4.88,0,0,0-.21,1.3Z" transform="translate(-401.98 -24.66)"/><path class="cls-1" d="M956.32,41.54h-1.91V25h1.91Z" transform="translate(-401.98 -24.66)"/><path class="cls-1" d="M961.5,41.54h-1.91V25h1.91Z" transform="translate(-401.98 -24.66)"/><path class="cls-1" d="M969,26a1.28,1.28,0,0,1,.38-.92,1.23,1.23,0,0,1,.92-.39,1.31,1.31,0,1,1,0,2.62,1.23,1.23,0,0,1-.92-.39A1.28,1.28,0,0,1,969,26Zm2.28,15.57h-1.91V30.18h1.91Z" transform="translate(-401.98 -24.66)"/><path class="cls-1" d="M980.64,38.39a3.58,3.58,0,0,1-.3,1.52,2.87,2.87,0,0,1-.82,1.06,3.54,3.54,0,0,1-1.2.62,5,5,0,0,1-1.46.21,8.71,8.71,0,0,1-1.64-.16,7.42,7.42,0,0,1-1.62-.51V39.38a11.91,11.91,0,0,0,1.47.56,5.41,5.41,0,0,0,1.62.24,2.63,2.63,0,0,0,1.41-.35,1.29,1.29,0,0,0,.56-1.19,1.51,1.51,0,0,0-.36-1,3.92,3.92,0,0,0-.88-.73,12.8,12.8,0,0,0-1.14-.62,6.67,6.67,0,0,1-1.14-.7,3.51,3.51,0,0,1-.88-1A2.92,2.92,0,0,1,973.9,33a3,3,0,0,1,.28-1.3,2.86,2.86,0,0,1,.76-1,3.48,3.48,0,0,1,1.15-.62,4.63,4.63,0,0,1,1.45-.22,7.44,7.44,0,0,1,2.78.55v1.82a12.15,12.15,0,0,0-1.25-.53,4.15,4.15,0,0,0-1.41-.23,2.18,2.18,0,0,0-1.28.35,1.17,1.17,0,0,0-.5,1,1.39,1.39,0,0,0,.35,1,3.79,3.79,0,0,0,.88.7q.53.31,1.15.61a6.34,6.34,0,0,1,1.15.71,3.54,3.54,0,0,1,.88,1A2.93,2.93,0,0,1,980.64,38.39Z" transform="translate(-401.98 -24.66)"/><path class="cls-1" d="M992.39,40.18a5.3,5.3,0,0,0,1.38-.17,13.7,13.7,0,0,0,1.31-.43v1.66a6.35,6.35,0,0,1-1.35.4,8,8,0,0,1-1.53.15,6.05,6.05,0,0,1-2.38-.43,4.29,4.29,0,0,1-1.64-1.2,5,5,0,0,1-1-1.89,9.3,9.3,0,0,1-.31-2.5,7.72,7.72,0,0,1,.31-2.18,5.64,5.64,0,0,1,1-1.89,4.73,4.73,0,0,1,1.62-1.32,5.07,5.07,0,0,1,2.31-.49,8.81,8.81,0,0,1,1.4.1,8.26,8.26,0,0,1,1.38.36v1.77a8.36,8.36,0,0,0-1.21-.44,5.29,5.29,0,0,0-1.44-.18,3.11,3.11,0,0,0-1.53.35,3.08,3.08,0,0,0-1,.95,4,4,0,0,0-.6,1.38,7.26,7.26,0,0,0-.18,1.67,7.51,7.51,0,0,0,.17,1.62,4,4,0,0,0,.58,1.38,3,3,0,0,0,1.07,1A3.48,3.48,0,0,0,992.39,40.18Z" transform="translate(-401.98 -24.66)"/><path class="cls-1" d="M1005.89,41.54H1004V33.8a2.72,2.72,0,0,0-.46-1.71,2,2,0,0,0-1.63-.58,2.56,2.56,0,0,0-1.37.43,6.52,6.52,0,0,0-1.35,1.16v8.44h-1.91V25h1.91v6.58a7.24,7.24,0,0,1,1.41-1.13,3.67,3.67,0,0,1,2-.51,3.28,3.28,0,0,1,2.46.9,3.41,3.41,0,0,1,.87,2.48Z" transform="translate(-401.98 -24.66)"/><path class="cls-1" d="M1014.93,41.54l-.21-.92a6.62,6.62,0,0,1-1.26.8,3.73,3.73,0,0,1-1.7.37,3.52,3.52,0,0,1-2.59-.93,3.48,3.48,0,0,1-.94-2.59,4.18,4.18,0,0,1,.33-1.73,3.34,3.34,0,0,1,.92-1.22,3.91,3.91,0,0,1,1.4-.72,6.21,6.21,0,0,1,1.78-.24h2v-.61a2.37,2.37,0,0,0-.52-1.74,2.42,2.42,0,0,0-1.71-.5,7.43,7.43,0,0,0-1.55.18,9.72,9.72,0,0,0-1.5.44V30.38a10.66,10.66,0,0,1,1.53-.33,11.68,11.68,0,0,1,1.8-.15,4,4,0,0,1,2.93.93,3.93,3.93,0,0,1,.93,2.89v7.82Zm-.28-5.57h-1.87a3.17,3.17,0,0,0-1.9.49,1.92,1.92,0,0,0-.67,1.66,2.12,2.12,0,0,0,.51,1.53,2.05,2.05,0,0,0,1.54.53,3,3,0,0,0,1.33-.29,4.74,4.74,0,0,0,1.06-.68Z" transform="translate(-401.98 -24.66)"/><path class="cls-1" d="M1028.18,41.54h-1.91V33.85a2.94,2.94,0,0,0-.44-1.73,1.76,1.76,0,0,0-1.54-.61,2.75,2.75,0,0,0-1.56.5,6.56,6.56,0,0,0-1.27,1.09v8.44h-1.91V30.18h1.63l.23,1.4a6.82,6.82,0,0,1,1.59-1.25,3.8,3.8,0,0,1,1.84-.42,3.28,3.28,0,0,1,2.46.9,3.41,3.41,0,0,1,.87,2.48Z" transform="translate(-401.98 -24.66)"/><path class="cls-1" d="M1039.88,41.26a4.06,4.06,0,0,1-1.24,3.33,5.35,5.35,0,0,1-3.47,1,15.78,15.78,0,0,1-1.87-.12,8.56,8.56,0,0,1-1.64-.34v-1.7a16,16,0,0,0,1.66.4A9.3,9.3,0,0,0,1035,44a4,4,0,0,0,2.14-.51,2,2,0,0,0,.81-1.85V40.09a6.11,6.11,0,0,1-1.35.76,4.48,4.48,0,0,1-3.57-.15,4,4,0,0,1-1.38-1.2,5.25,5.25,0,0,1-.8-1.73,7.78,7.78,0,0,1-.26-2,9.44,9.44,0,0,1,.26-2.27,5.46,5.46,0,0,1,.83-1.86,4.07,4.07,0,0,1,1.42-1.25,4.29,4.29,0,0,1,2.05-.46,3.46,3.46,0,0,1,1.54.36,5.05,5.05,0,0,1,1.31.91l.23-1h1.65ZM1038,32.59a5.75,5.75,0,0,0-1.19-.77,3.11,3.11,0,0,0-1.37-.31,2.52,2.52,0,0,0-1.36.34,2.63,2.63,0,0,0-.87.9,3.92,3.92,0,0,0-.47,1.3,8.44,8.44,0,0,0-.14,1.54,8.3,8.3,0,0,0,.13,1.45,3.75,3.75,0,0,0,.46,1.27,2.5,2.5,0,0,0,.92.9,3,3,0,0,0,1.52.34,4,4,0,0,0,1.31-.23,3.12,3.12,0,0,0,1.08-.6Z" transform="translate(-401.98 -24.66)"/><path class="cls-1" d="M1042.73,26a1.28,1.28,0,0,1,.38-.92,1.23,1.23,0,0,1,.92-.39,1.31,1.31,0,1,1,0,2.62,1.23,1.23,0,0,1-.92-.39A1.28,1.28,0,0,1,1042.73,26ZM1045,41.54h-1.91V30.18H1045Z" transform="translate(-401.98 -24.66)"/><path class="cls-1" d="M1056.85,41.54h-1.91V33.85a2.94,2.94,0,0,0-.44-1.73,1.76,1.76,0,0,0-1.54-.61,2.75,2.75,0,0,0-1.56.5,6.56,6.56,0,0,0-1.27,1.09v8.44h-1.91V30.18h1.63l.23,1.4a6.82,6.82,0,0,1,1.59-1.25,3.8,3.8,0,0,1,1.84-.42,3.28,3.28,0,0,1,2.46.9,3.41,3.41,0,0,1,.87,2.48Z" transform="translate(-401.98 -24.66)"/><path class="cls-1" d="M1068.56,41.26a4.06,4.06,0,0,1-1.24,3.33,5.35,5.35,0,0,1-3.47,1,15.78,15.78,0,0,1-1.87-.12,8.56,8.56,0,0,1-1.64-.34v-1.7a16,16,0,0,0,1.66.4,9.3,9.3,0,0,0,1.68.15,4,4,0,0,0,2.14-.51,2,2,0,0,0,.81-1.85V40.09a6.11,6.11,0,0,1-1.35.76,4.48,4.48,0,0,1-3.57-.15,4,4,0,0,1-1.38-1.2,5.25,5.25,0,0,1-.8-1.73,7.78,7.78,0,0,1-.26-2,9.44,9.44,0,0,1,.26-2.27,5.46,5.46,0,0,1,.83-1.86,4.07,4.07,0,0,1,1.42-1.25,4.29,4.29,0,0,1,2.05-.46,3.46,3.46,0,0,1,1.54.36,5.05,5.05,0,0,1,1.31.91l.23-1h1.65Zm-1.91-8.67a5.75,5.75,0,0,0-1.19-.77,3.11,3.11,0,0,0-1.37-.31,2.52,2.52,0,0,0-1.36.34,2.63,2.63,0,0,0-.87.9,3.92,3.92,0,0,0-.47,1.3,8.44,8.44,0,0,0-.14,1.54,8.3,8.3,0,0,0,.13,1.45,3.75,3.75,0,0,0,.46,1.27,2.5,2.5,0,0,0,.92.9,3,3,0,0,0,1.52.34,4,4,0,0,0,1.31-.23,3.12,3.12,0,0,0,1.08-.6Z" transform="translate(-401.98 -24.66)"/><path class="cls-1" d="M1074.75,40.21a1.51,1.51,0,0,1-.47,1.13,1.57,1.57,0,0,1-1.14.46,1.61,1.61,0,0,1-1.12-.43,1.48,1.48,0,0,1-.47-1.16,1.55,1.55,0,0,1,1.59-1.61,1.63,1.63,0,0,1,1.13.44A1.5,1.5,0,0,1,1074.75,40.21Z" transform="translate(-401.98 -24.66)"/></svg>