<svg id="icons" xmlns="http://www.w3.org/2000/svg" viewBox="0 0 143.17 121.11"><defs><style>.cls-1{fill:#fff;}.cls-2{fill:#767676;}.cls-3{fill:#f7941e;}.cls-4{fill:#27aae1;}</style></defs><g id="_Group_" data-name="&lt;Group&gt;"><path id="_Path_" data-name="&lt;Path&gt;" class="cls-1" d="M843.58,2787.58h0a2.22,2.22,0,0,0-.52-1.35,3.17,3.17,0,0,0-.26-.29,6.86,6.86,0,0,0-2.31-1.45,19.34,19.34,0,0,0-5.63-1.31l-1.48-.15h-2.51c-.19,0-.37.06-.56.07a21.38,21.38,0,0,0-5.76,1.08,7.43,7.43,0,0,0-3.09,1.77,3.1,3.1,0,0,0-.71,1.15,1.73,1.73,0,0,0,0,1.1v20a1.89,1.89,0,0,0,.64,2,7.72,7.72,0,0,0,1.65,1.18,18.39,18.39,0,0,0,7.15,1.72,26.93,26.93,0,0,0,5.28-.14,18.23,18.23,0,0,0,5.15-1.3A6.07,6.07,0,0,0,843,2810a2.15,2.15,0,0,0,.55-1.39h0Z" transform="translate(-772 -2729.35)"/><path id="_Path_2" data-name="&lt;Path&gt;" class="cls-2" d="M833.23,2784.7l1.3.11a19.71,19.71,0,0,1,4.94,1,6.27,6.27,0,0,1,2,1.07,2.53,2.53,0,0,1,.23.22,1.31,1.31,0,0,1,0,2,5.46,5.46,0,0,1-2.11,1.22,18.51,18.51,0,0,1-4.52,1,28.09,28.09,0,0,1-4.63.1,18.69,18.69,0,0,1-6.28-1.27,6.88,6.88,0,0,1-1.45-.87,1.28,1.28,0,0,1-.56-1.51,2.26,2.26,0,0,1,.62-.85,6.92,6.92,0,0,1,2.71-1.3,22,22,0,0,1,5.05-.8l.49-.05Z" transform="translate(-772 -2729.35)"/><path id="_Path_3" data-name="&lt;Path&gt;" class="cls-2" d="M832.84,2804.83a26.26,26.26,0,0,1-7.83-1,13.5,13.5,0,0,1-1.91-.84,2.79,2.79,0,0,1-.68-.56,1.2,1.2,0,0,1-.35-.88q0-1.48,0-3a.52.52,0,0,1,.85-.42,6.81,6.81,0,0,0,2.84,1.33,19.38,19.38,0,0,0,4.42.62c1.37,0,2.74.06,4.11,0a17,17,0,0,0,5.78-1.2c.44-.19.83-.51,1.26-.73a.88.88,0,0,1,.53-.08.41.41,0,0,1,.31.44c0,1,0,2.09,0,3.14a1.09,1.09,0,0,1-.45.86,8.33,8.33,0,0,1-1.36.87,12.54,12.54,0,0,1-3.85,1C835.07,2804.67,833.6,2804.76,832.84,2804.83Z" transform="translate(-772 -2729.35)"/><path id="_Path_4" data-name="&lt;Path&gt;" class="cls-2" d="M832,2811.52a24.06,24.06,0,0,1-6.81-.9,14.58,14.58,0,0,1-2-.86,2.76,2.76,0,0,1-.69-.55,1.29,1.29,0,0,1-.38-1c0-.93,0-1.87,0-2.8a.56.56,0,0,1,.3-.59.57.57,0,0,1,.65.14,7,7,0,0,0,2.91,1.3,24.38,24.38,0,0,0,5.29.63,26.41,26.41,0,0,0,6.48-.52,11.65,11.65,0,0,0,2.75-.9,6.28,6.28,0,0,0,.87-.57.54.54,0,0,1,.56-.09.47.47,0,0,1,.31.45c0,1,0,2.08,0,3.12a1.09,1.09,0,0,1-.44.86,8.46,8.46,0,0,1-1.4.9,13.78,13.78,0,0,1-3.82,1A30.35,30.35,0,0,1,832,2811.52Z" transform="translate(-772 -2729.35)"/><path id="_Path_5" data-name="&lt;Path&gt;" class="cls-2" d="M832.71,2798.12a28.41,28.41,0,0,1-7-.74,9,9,0,0,1-2.72-1.11,1.84,1.84,0,0,1-1-1.73c0-.87,0-1.75,0-2.62a.49.49,0,0,1,.27-.47.48.48,0,0,1,.57,0,7.35,7.35,0,0,0,3.27,1.44,28.06,28.06,0,0,0,6.82.57,21.16,21.16,0,0,0,6.36-1,5.55,5.55,0,0,0,2-1,.51.51,0,0,1,.8.37c0,1.06,0,2.11,0,3.17a1.27,1.27,0,0,1-.47.88,5.29,5.29,0,0,1-1.85,1.06,16.54,16.54,0,0,1-4.12.93C834.53,2798,833.32,2798.07,832.71,2798.12Z" transform="translate(-772 -2729.35)"/></g><g id="_Group_2" data-name="&lt;Group&gt;"><path id="_Path_6" data-name="&lt;Path&gt;" class="cls-1" d="M867.05,2787.58h0a2.22,2.22,0,0,0-.52-1.35,3.17,3.17,0,0,0-.26-.29,6.86,6.86,0,0,0-2.31-1.45,19.34,19.34,0,0,0-5.63-1.31l-1.48-.15h-2.51c-.19,0-.37.06-.56.07a21.38,21.38,0,0,0-5.76,1.08,7.43,7.43,0,0,0-3.09,1.77,3.1,3.1,0,0,0-.71,1.15,1.73,1.73,0,0,0,0,1.1v20a1.89,1.89,0,0,0,.64,2,7.72,7.72,0,0,0,1.65,1.18,18.39,18.39,0,0,0,7.15,1.72,26.93,26.93,0,0,0,5.28-.14,18.23,18.23,0,0,0,5.15-1.3,6.07,6.07,0,0,0,2.41-1.65,2.15,2.15,0,0,0,.55-1.39h0Z" transform="translate(-772 -2729.35)"/><path id="_Path_7" data-name="&lt;Path&gt;" class="cls-2" d="M856.69,2784.7l1.3.11a19.71,19.71,0,0,1,4.94,1,6.27,6.27,0,0,1,2,1.07,2.53,2.53,0,0,1,.23.22,1.31,1.31,0,0,1,0,2,5.46,5.46,0,0,1-2.11,1.22,18.51,18.51,0,0,1-4.52,1,28.09,28.09,0,0,1-4.63.1,18.69,18.69,0,0,1-6.28-1.27,6.88,6.88,0,0,1-1.45-.87,1.28,1.28,0,0,1-.56-1.51,2.26,2.26,0,0,1,.62-.85,6.92,6.92,0,0,1,2.71-1.3,22,22,0,0,1,5.05-.8l.49-.05Z" transform="translate(-772 -2729.35)"/><path id="_Path_8" data-name="&lt;Path&gt;" class="cls-2" d="M856.3,2804.83a26.26,26.26,0,0,1-7.83-1,13.5,13.5,0,0,1-1.91-.84,2.79,2.79,0,0,1-.68-.56,1.2,1.2,0,0,1-.35-.88q0-1.48,0-3a.52.52,0,0,1,.85-.42,6.81,6.81,0,0,0,2.84,1.33,19.38,19.38,0,0,0,4.42.62c1.37,0,2.74.06,4.11,0a17,17,0,0,0,5.78-1.2c.44-.19.83-.51,1.26-.73a.88.88,0,0,1,.53-.08.41.41,0,0,1,.31.44c0,1,0,2.09,0,3.14a1.09,1.09,0,0,1-.45.86,8.33,8.33,0,0,1-1.36.87,12.54,12.54,0,0,1-3.85,1C858.53,2804.67,857.07,2804.76,856.3,2804.83Z" transform="translate(-772 -2729.35)"/><path id="_Path_9" data-name="&lt;Path&gt;" class="cls-2" d="M855.43,2811.52a24.06,24.06,0,0,1-6.81-.9,14.58,14.58,0,0,1-2-.86,2.76,2.76,0,0,1-.69-.55,1.29,1.29,0,0,1-.38-1c0-.93,0-1.87,0-2.8a.56.56,0,0,1,.3-.59.57.57,0,0,1,.65.14,7,7,0,0,0,2.91,1.3,24.38,24.38,0,0,0,5.29.63,26.41,26.41,0,0,0,6.48-.52,11.65,11.65,0,0,0,2.75-.9,6.28,6.28,0,0,0,.87-.57.54.54,0,0,1,.56-.09.47.47,0,0,1,.31.45c0,1,0,2.08,0,3.12a1.09,1.09,0,0,1-.44.86,8.46,8.46,0,0,1-1.4.9,13.78,13.78,0,0,1-3.82,1A30.35,30.35,0,0,1,855.43,2811.52Z" transform="translate(-772 -2729.35)"/><path id="_Path_10" data-name="&lt;Path&gt;" class="cls-2" d="M856.18,2798.12a28.41,28.41,0,0,1-7-.74,9,9,0,0,1-2.72-1.11,1.84,1.84,0,0,1-1-1.73c0-.87,0-1.75,0-2.62a.49.49,0,0,1,.27-.47.48.48,0,0,1,.57,0,7.35,7.35,0,0,0,3.27,1.44,28.06,28.06,0,0,0,6.82.57,21.16,21.16,0,0,0,6.36-1,5.55,5.55,0,0,0,2-1,.51.51,0,0,1,.8.37c0,1.06,0,2.11,0,3.17a1.27,1.27,0,0,1-.47.88,5.29,5.29,0,0,1-1.85,1.06,16.54,16.54,0,0,1-4.12.93C858,2798,856.79,2798.07,856.18,2798.12Z" transform="translate(-772 -2729.35)"/></g><g id="_Group_3" data-name="&lt;Group&gt;"><path id="_Path_11" data-name="&lt;Path&gt;" class="cls-1" d="M855.59,2763.87h0a2.22,2.22,0,0,0-.52-1.35,3.17,3.17,0,0,0-.26-.29,6.86,6.86,0,0,0-2.31-1.45,19.34,19.34,0,0,0-5.63-1.31l-1.48-.15h-2.51c-.19,0-.37.06-.56.07a21.38,21.38,0,0,0-5.76,1.08,7.43,7.43,0,0,0-3.09,1.77,3.1,3.1,0,0,0-.71,1.15,1.73,1.73,0,0,0,0,1.1v20a1.89,1.89,0,0,0,.64,2,7.72,7.72,0,0,0,1.65,1.18,18.39,18.39,0,0,0,7.15,1.72,26.93,26.93,0,0,0,5.28-.14,18.23,18.23,0,0,0,5.15-1.3,6.07,6.07,0,0,0,2.41-1.65,2.15,2.15,0,0,0,.55-1.39h0Z" transform="translate(-772 -2729.35)"/><path id="_Path_12" data-name="&lt;Path&gt;" class="cls-3" d="M845.23,2761l1.3.11a19.71,19.71,0,0,1,4.94,1,6.27,6.27,0,0,1,2,1.07,2.53,2.53,0,0,1,.23.22,1.31,1.31,0,0,1,0,2,5.46,5.46,0,0,1-2.11,1.22,18.51,18.51,0,0,1-4.52,1,28.09,28.09,0,0,1-4.63.1,18.69,18.69,0,0,1-6.28-1.27,6.88,6.88,0,0,1-1.45-.87,1.28,1.28,0,0,1-.56-1.51,2.26,2.26,0,0,1,.62-.85,6.92,6.92,0,0,1,2.71-1.3,22,22,0,0,1,5.05-.8l.49-.05Z" transform="translate(-772 -2729.35)"/><path id="_Path_13" data-name="&lt;Path&gt;" class="cls-3" d="M844.84,2781.12a26.26,26.26,0,0,1-7.83-1,13.5,13.5,0,0,1-1.91-.84,2.79,2.79,0,0,1-.68-.56,1.2,1.2,0,0,1-.35-.88q0-1.48,0-3a.52.52,0,0,1,.85-.42,6.81,6.81,0,0,0,2.84,1.33,19.38,19.38,0,0,0,4.42.62c1.37,0,2.74.06,4.11,0a17,17,0,0,0,5.78-1.2c.44-.19.83-.51,1.26-.73a.88.88,0,0,1,.53-.08.41.41,0,0,1,.31.44c0,1,0,2.09,0,3.14a1.09,1.09,0,0,1-.45.86,8.33,8.33,0,0,1-1.36.87,12.54,12.54,0,0,1-3.85,1C847.07,2781,845.61,2781.05,844.84,2781.12Z" transform="translate(-772 -2729.35)"/><path id="_Path_14" data-name="&lt;Path&gt;" class="cls-3" d="M844,2787.82a24.06,24.06,0,0,1-6.81-.9,14.58,14.58,0,0,1-2-.86,2.76,2.76,0,0,1-.69-.55,1.29,1.29,0,0,1-.38-1c0-.93,0-1.87,0-2.8a.56.56,0,0,1,.3-.59.57.57,0,0,1,.65.14,7,7,0,0,0,2.91,1.3,24.38,24.38,0,0,0,5.29.63,26.41,26.41,0,0,0,6.48-.52,11.65,11.65,0,0,0,2.75-.9,6.28,6.28,0,0,0,.87-.57.54.54,0,0,1,.56-.09.47.47,0,0,1,.31.45c0,1,0,2.08,0,3.12a1.09,1.09,0,0,1-.44.86,8.46,8.46,0,0,1-1.4.9,13.78,13.78,0,0,1-3.82,1A30.35,30.35,0,0,1,844,2787.82Z" transform="translate(-772 -2729.35)"/><path id="_Path_15" data-name="&lt;Path&gt;" class="cls-3" d="M844.72,2774.41a28.41,28.41,0,0,1-7-.74,9,9,0,0,1-2.72-1.11,1.84,1.84,0,0,1-1-1.73c0-.87,0-1.75,0-2.62a.49.49,0,0,1,.27-.47.48.48,0,0,1,.57,0,7.35,7.35,0,0,0,3.27,1.44,28.06,28.06,0,0,0,6.82.57,21.16,21.16,0,0,0,6.36-1,5.55,5.55,0,0,0,2-1,.51.51,0,0,1,.8.37c0,1.06,0,2.11,0,3.17a1.27,1.27,0,0,1-.47.88,5.29,5.29,0,0,1-1.85,1.06,16.54,16.54,0,0,1-4.12.93C846.53,2774.31,845.33,2774.36,844.72,2774.41Z" transform="translate(-772 -2729.35)"/></g><path class="cls-3" d="M843.58,2831.13a40.71,40.71,0,1,1,40.71-40.71A40.76,40.76,0,0,1,843.58,2831.13Zm0-77.72a37,37,0,1,0,37,37A37,37,0,0,0,843.58,2753.41Z" transform="translate(-772 -2729.35)"/><path class="cls-4" d="M806.14,2745h2.48l.11-.68a11.24,11.24,0,0,1,.53-2.1,5.18,5.18,0,0,1,.86-1.55,3.34,3.34,0,0,1,1.29-.95,4.73,4.73,0,0,1,1.83-.32,9,9,0,0,1,1.24.08,5.13,5.13,0,0,1,1,.23v2.8a4.71,4.71,0,0,0-.94-.29,4.4,4.4,0,0,0-.79-.08,2,2,0,0,0-.57.08,1.49,1.49,0,0,0-.52.29,1.75,1.75,0,0,0-.43.59,4,4,0,0,0-.3,1l-.18.93h2.8v2.37h-3.18l-.5,3h4.55v2.72h-9.69v-2.72h2l.49-3h-2.08Z" transform="translate(-772 -2729.35)"/><path class="cls-3" d="M810.61,2763.08a16.86,16.86,0,1,1,16.86-16.86A16.88,16.88,0,0,1,810.61,2763.08Zm0-30a13.15,13.15,0,1,0,13.15,13.15A13.17,13.17,0,0,0,810.61,2733.06Z" transform="translate(-772 -2729.35)"/><path class="cls-4" d="M872.09,2745h2.48l.11-.68a11.24,11.24,0,0,1,.53-2.1,5.18,5.18,0,0,1,.86-1.55,3.34,3.34,0,0,1,1.29-.95,4.73,4.73,0,0,1,1.83-.32,9,9,0,0,1,1.24.08,5.13,5.13,0,0,1,1,.23v2.8a4.71,4.71,0,0,0-.94-.29,4.4,4.4,0,0,0-.79-.08,2,2,0,0,0-.57.08,1.49,1.49,0,0,0-.52.29,1.75,1.75,0,0,0-.43.59,4,4,0,0,0-.3,1l-.18.93h2.8v2.37h-3.18l-.5,3h4.55v2.72h-9.69v-2.72h2l.49-3h-2.08Z" transform="translate(-772 -2729.35)"/><path class="cls-3" d="M876.56,2763.08a16.86,16.86,0,1,1,16.86-16.86A16.88,16.88,0,0,1,876.56,2763.08Zm0-30a13.15,13.15,0,1,0,13.15,13.15A13.17,13.17,0,0,0,876.56,2733.06Z" transform="translate(-772 -2729.35)"/><path class="cls-4" d="M893.84,2786.74h2.48l.11-.68a11.24,11.24,0,0,1,.53-2.1,5.18,5.18,0,0,1,.86-1.55,3.34,3.34,0,0,1,1.29-.95,4.73,4.73,0,0,1,1.83-.32,9,9,0,0,1,1.24.08,5.13,5.13,0,0,1,1,.23v2.8a4.71,4.71,0,0,0-.94-.29,4.4,4.4,0,0,0-.79-.08,2,2,0,0,0-.57.08,1.49,1.49,0,0,0-.52.29,1.75,1.75,0,0,0-.43.59,4,4,0,0,0-.3,1l-.18.93h2.8v2.37h-3.18l-.5,3h4.55v2.72h-9.69v-2.72h2l.49-3h-2.08Z" transform="translate(-772 -2729.35)"/><path class="cls-3" d="M898.31,2804.86A16.86,16.86,0,1,1,915.17,2788,16.88,16.88,0,0,1,898.31,2804.86Zm0-30A13.15,13.15,0,1,0,911.46,2788,13.17,13.17,0,0,0,898.31,2774.84Z" transform="translate(-772 -2729.35)"/><path class="cls-4" d="M784.39,2786.74h2.48l.11-.68a11.24,11.24,0,0,1,.53-2.1,5.18,5.18,0,0,1,.86-1.55,3.34,3.34,0,0,1,1.29-.95,4.73,4.73,0,0,1,1.83-.32,9,9,0,0,1,1.24.08,5.13,5.13,0,0,1,1,.23v2.8a4.71,4.71,0,0,0-.94-.29,4.4,4.4,0,0,0-.79-.08,2,2,0,0,0-.57.08,1.49,1.49,0,0,0-.52.29,1.75,1.75,0,0,0-.43.59,4,4,0,0,0-.3,1l-.18.93h2.8v2.37h-3.18l-.5,3h4.55v2.72H784v-2.72h2l.49-3h-2.08Z" transform="translate(-772 -2729.35)"/><path class="cls-3" d="M788.86,2804.86A16.86,16.86,0,1,1,805.72,2788,16.88,16.88,0,0,1,788.86,2804.86Zm0-30A13.15,13.15,0,1,0,802,2788,13.17,13.17,0,0,0,788.86,2774.84Z" transform="translate(-772 -2729.35)"/><path class="cls-4" d="M806.14,2832.36h2.48l.11-.68a11.24,11.24,0,0,1,.53-2.1,5.18,5.18,0,0,1,.86-1.55,3.34,3.34,0,0,1,1.29-.95,4.73,4.73,0,0,1,1.83-.32,9,9,0,0,1,1.24.08,5.13,5.13,0,0,1,1,.23v2.8a4.71,4.71,0,0,0-.94-.29,4.4,4.4,0,0,0-.79-.08,2,2,0,0,0-.57.08,1.49,1.49,0,0,0-.52.29,1.75,1.75,0,0,0-.43.59,4,4,0,0,0-.3,1l-.18.93h2.8v2.37h-3.18l-.5,3h4.55v2.72h-9.69v-2.72h2l.49-3h-2.08Z" transform="translate(-772 -2729.35)"/><path class="cls-3" d="M810.61,2850.47a16.86,16.86,0,1,1,16.86-16.86A16.88,16.88,0,0,1,810.61,2850.47Zm0-30a13.15,13.15,0,1,0,13.15,13.15A13.17,13.17,0,0,0,810.61,2820.45Z" transform="translate(-772 -2729.35)"/><path class="cls-4" d="M872.09,2832.36h2.48l.11-.68a11.24,11.24,0,0,1,.53-2.1,5.18,5.18,0,0,1,.86-1.55,3.34,3.34,0,0,1,1.29-.95,4.73,4.73,0,0,1,1.83-.32,9,9,0,0,1,1.24.08,5.13,5.13,0,0,1,1,.23v2.8a4.71,4.71,0,0,0-.94-.29,4.4,4.4,0,0,0-.79-.08,2,2,0,0,0-.57.08,1.49,1.49,0,0,0-.52.29,1.75,1.75,0,0,0-.43.59,4,4,0,0,0-.3,1l-.18.93h2.8v2.37h-3.18l-.5,3h4.55v2.72h-9.69v-2.72h2l.49-3h-2.08Z" transform="translate(-772 -2729.35)"/><path class="cls-3" d="M876.56,2850.47a16.86,16.86,0,1,1,16.86-16.86A16.88,16.88,0,0,1,876.56,2850.47Zm0-30a13.15,13.15,0,1,0,13.15,13.15A13.17,13.17,0,0,0,876.56,2820.45Z" transform="translate(-772 -2729.35)"/></svg>