<svg id="text" xmlns="http://www.w3.org/2000/svg" viewBox="0 0 174.74 59.6"><defs><style>.cls-1{fill:#3c3c3c;}.cls-2{fill:#004796;}</style></defs><path class="cls-1" d="M737.29,705.16h5.49v1.39h-7.06v-13h1.57Z" transform="translate(-728.37 -693.33)"/><path class="cls-1" d="M745.05,702.53a4.27,4.27,0,0,0,.14,1.12,2.71,2.71,0,0,0,.46.94,2.17,2.17,0,0,0,.83.65,3,3,0,0,0,1.25.24,5.81,5.81,0,0,0,2.49-.61v1.3a5.09,5.09,0,0,1-1.32.43,7.6,7.6,0,0,1-1.45.14,4.24,4.24,0,0,1-1.77-.34,3.3,3.3,0,0,1-1.23-1,3.93,3.93,0,0,1-.71-1.47,7.43,7.43,0,0,1-.23-1.9,6.89,6.89,0,0,1,.23-1.78,4.4,4.4,0,0,1,.68-1.48,3.45,3.45,0,0,1,1.15-1,3.35,3.35,0,0,1,1.63-.38,3.14,3.14,0,0,1,1.55.35,3,3,0,0,1,1,.94,3.92,3.92,0,0,1,.57,1.36,7.38,7.38,0,0,1,.17,1.6v.49q0,.18,0,.36Zm3.89-1.26a6.45,6.45,0,0,0-.07-1,2.28,2.28,0,0,0-.28-.83,1.6,1.6,0,0,0-.59-.57,1.93,1.93,0,0,0-1-.22,1.65,1.65,0,0,0-.82.2,1.94,1.94,0,0,0-.61.54,2.66,2.66,0,0,0-.4.82,3.8,3.8,0,0,0-.17,1Z" transform="translate(-728.37 -693.33)"/><path class="cls-1" d="M757.31,704.08a2.81,2.81,0,0,1-.23,1.19,2.26,2.26,0,0,1-.64.83,2.79,2.79,0,0,1-.94.49,3.92,3.92,0,0,1-1.14.16,6.81,6.81,0,0,1-1.29-.13,5.84,5.84,0,0,1-1.27-.4v-1.37a9.2,9.2,0,0,0,1.15.44,4.24,4.24,0,0,0,1.27.19,2.05,2.05,0,0,0,1.1-.27,1,1,0,0,0,.44-.93,1.19,1.19,0,0,0-.28-.81,3.07,3.07,0,0,0-.69-.57,9.76,9.76,0,0,0-.89-.49,5.15,5.15,0,0,1-.89-.55,2.74,2.74,0,0,1-.69-.78,2.29,2.29,0,0,1-.28-1.19,2.35,2.35,0,0,1,.22-1,2.22,2.22,0,0,1,.59-.77,2.69,2.69,0,0,1,.9-.49,3.61,3.61,0,0,1,1.13-.17,5.82,5.82,0,0,1,2.18.43v1.42a9.39,9.39,0,0,0-1-.41,3.24,3.24,0,0,0-1.1-.18,1.7,1.7,0,0,0-1,.27.92.92,0,0,0-.39.8,1.08,1.08,0,0,0,.27.76,3,3,0,0,0,.69.55q.41.25.9.48a5,5,0,0,1,.9.56,2.76,2.76,0,0,1,.69.79A2.28,2.28,0,0,1,757.31,704.08Z" transform="translate(-728.37 -693.33)"/><path class="cls-1" d="M764,704.08a2.81,2.81,0,0,1-.23,1.19,2.26,2.26,0,0,1-.64.83,2.79,2.79,0,0,1-.94.49,3.92,3.92,0,0,1-1.14.16,6.81,6.81,0,0,1-1.29-.13,5.84,5.84,0,0,1-1.27-.4v-1.37a9.2,9.2,0,0,0,1.15.44,4.24,4.24,0,0,0,1.27.19,2.05,2.05,0,0,0,1.1-.27,1,1,0,0,0,.44-.93,1.19,1.19,0,0,0-.28-.81,3.07,3.07,0,0,0-.69-.57,9.76,9.76,0,0,0-.89-.49,5.15,5.15,0,0,1-.89-.55,2.74,2.74,0,0,1-.69-.78,2.29,2.29,0,0,1-.28-1.19,2.35,2.35,0,0,1,.22-1,2.22,2.22,0,0,1,.59-.77,2.69,2.69,0,0,1,.9-.49,3.61,3.61,0,0,1,1.13-.17,5.82,5.82,0,0,1,2.18.43v1.42a9.39,9.39,0,0,0-1-.41,3.24,3.24,0,0,0-1.1-.18,1.7,1.7,0,0,0-1,.27.92.92,0,0,0-.39.8,1.08,1.08,0,0,0,.27.76,3,3,0,0,0,.69.55q.41.25.9.48a5,5,0,0,1,.9.56,2.76,2.76,0,0,1,.69.79A2.28,2.28,0,0,1,764,704.08Z" transform="translate(-728.37 -693.33)"/><path class="cls-1" d="M774.12,706.55l-.16-.72a5.24,5.24,0,0,1-1,.63,2.92,2.92,0,0,1-1.33.29,2.75,2.75,0,0,1-2-.73,2.72,2.72,0,0,1-.74-2,3.27,3.27,0,0,1,.26-1.35,2.6,2.6,0,0,1,.72-1,3.06,3.06,0,0,1,1.09-.57,4.87,4.87,0,0,1,1.39-.19h1.54v-.48a1.85,1.85,0,0,0-.4-1.36,1.89,1.89,0,0,0-1.33-.39,5.85,5.85,0,0,0-1.21.14,7.57,7.57,0,0,0-1.17.34v-1.37a8.33,8.33,0,0,1,1.2-.26,9.13,9.13,0,0,1,1.41-.12,3.13,3.13,0,0,1,2.29.73,3.08,3.08,0,0,1,.73,2.26v6.12Zm-.22-4.36h-1.46a2.48,2.48,0,0,0-1.49.39,1.5,1.5,0,0,0-.53,1.3,1.66,1.66,0,0,0,.4,1.2,1.61,1.61,0,0,0,1.2.41,2.38,2.38,0,0,0,1-.23,3.69,3.69,0,0,0,.83-.53Z" transform="translate(-728.37 -693.33)"/><path class="cls-1" d="M784.43,706.55h-1.26l-.18-.79a4.13,4.13,0,0,1-.92.67,2.82,2.82,0,0,1-1.39.32,3.46,3.46,0,0,1-1.6-.34,3,3,0,0,1-1.09-1,4.15,4.15,0,0,1-.63-1.44,7.71,7.71,0,0,1-.2-1.78,7.81,7.81,0,0,1,.21-1.86,4.57,4.57,0,0,1,.66-1.52,3.29,3.29,0,0,1,1.15-1,3.47,3.47,0,0,1,1.67-.38,2.87,2.87,0,0,1,1.21.24,4.32,4.32,0,0,1,.85.5v-4.61h1.51Zm-1.49-7.18a4.25,4.25,0,0,0-.83-.48,2.49,2.49,0,0,0-1-.19,2.31,2.31,0,0,0-1.18.27,2,2,0,0,0-.74.74,3.26,3.26,0,0,0-.38,1.08,7.8,7.8,0,0,0-.11,1.33,6.78,6.78,0,0,0,.12,1.28,3.27,3.27,0,0,0,.39,1.07,2.13,2.13,0,0,0,.73.74,2.1,2.1,0,0,0,1.11.27,2.88,2.88,0,0,0,1.88-.74Z" transform="translate(-728.37 -693.33)"/><path class="cls-1" d="M793.38,706.55h-1.49v-6a2.73,2.73,0,0,0-.28-1.33,1.12,1.12,0,0,0-1.07-.5,1.83,1.83,0,0,0-1.09.39,8.24,8.24,0,0,0-1,.84v6.62H787v-8.89h1.28l.18,1.12a6.85,6.85,0,0,1,1.11-.93,2.48,2.48,0,0,1,1.41-.41,2.13,2.13,0,0,1,2.14,1.35,6.72,6.72,0,0,1,1.3-1,2.89,2.89,0,0,1,1.44-.39,2.29,2.29,0,0,1,1.84.73,2.83,2.83,0,0,1,.63,1.92v6.46H796.8v-6a4.61,4.61,0,0,0-.05-.73,1.56,1.56,0,0,0-.21-.58,1.05,1.05,0,0,0-.41-.38,1.46,1.46,0,0,0-.67-.14,2.2,2.2,0,0,0-1.09.32,5.18,5.18,0,0,0-1,.76,2.33,2.33,0,0,1,0,.26c0,.1,0,.19,0,.26Z" transform="translate(-728.37 -693.33)"/><path class="cls-1" d="M800.47,694.36a1,1,0,0,1,.29-.72,1,1,0,0,1,.72-.31,1,1,0,1,1,0,2.05,1,1,0,0,1-.72-.31A1,1,0,0,1,800.47,694.36Zm1.78,12.19h-1.49v-8.89h1.49Z" transform="translate(-728.37 -693.33)"/><path class="cls-1" d="M811.52,706.55H810v-6a2.3,2.3,0,0,0-.34-1.35,1.38,1.38,0,0,0-1.21-.48,2.16,2.16,0,0,0-1.22.39,5.1,5.1,0,0,0-1,.85v6.61h-1.49v-8.89h1.28l.18,1.1a5.34,5.34,0,0,1,1.24-1,3,3,0,0,1,1.44-.33,2.57,2.57,0,0,1,1.93.7,2.67,2.67,0,0,1,.68,1.94Z" transform="translate(-728.37 -693.33)"/><path class="cls-1" d="M819.07,699.09a3.6,3.6,0,0,1,1-1.16,2.35,2.35,0,0,1,1.45-.5,4.24,4.24,0,0,1,.56,0v1.22l-.25,0h-.25a2.9,2.9,0,0,0-1.29.32,4.38,4.38,0,0,0-1.22.9v6.64h-1.49v-8.89h1.3Z" transform="translate(-728.37 -693.33)"/><path class="cls-1" d="M824.23,702.53a4.27,4.27,0,0,0,.14,1.12,2.71,2.71,0,0,0,.46.94,2.16,2.16,0,0,0,.83.65,3,3,0,0,0,1.25.24,5.81,5.81,0,0,0,2.49-.61v1.3a5.1,5.1,0,0,1-1.32.43,7.59,7.59,0,0,1-1.45.14,4.23,4.23,0,0,1-1.77-.34,3.31,3.31,0,0,1-1.23-1,3.94,3.94,0,0,1-.71-1.47,7.43,7.43,0,0,1-.22-1.9,6.89,6.89,0,0,1,.22-1.78,4.41,4.41,0,0,1,.68-1.48,3.47,3.47,0,0,1,1.15-1,3.35,3.35,0,0,1,1.63-.38,3.14,3.14,0,0,1,1.55.35,3,3,0,0,1,1,.94,3.92,3.92,0,0,1,.57,1.36,7.45,7.45,0,0,1,.17,1.6v.49c0,.12,0,.24,0,.36Zm3.89-1.26a6.45,6.45,0,0,0-.07-1,2.24,2.24,0,0,0-.28-.83,1.6,1.6,0,0,0-.59-.57,1.94,1.94,0,0,0-1-.22,1.65,1.65,0,0,0-.81.2,2,2,0,0,0-.61.54,2.66,2.66,0,0,0-.4.82,3.8,3.8,0,0,0-.17,1Z" transform="translate(-728.37 -693.33)"/><path class="cls-1" d="M836.49,704.08a2.79,2.79,0,0,1-.23,1.19,2.27,2.27,0,0,1-.64.83,2.79,2.79,0,0,1-.94.49,3.91,3.91,0,0,1-1.14.16,6.82,6.82,0,0,1-1.29-.13,5.81,5.81,0,0,1-1.27-.4v-1.37a9.14,9.14,0,0,0,1.15.44,4.23,4.23,0,0,0,1.27.19,2.06,2.06,0,0,0,1.1-.27,1,1,0,0,0,.44-.93,1.19,1.19,0,0,0-.28-.81,3,3,0,0,0-.69-.57,9.74,9.74,0,0,0-.89-.49,5.2,5.2,0,0,1-.89-.55,2.75,2.75,0,0,1-.69-.78,2.29,2.29,0,0,1-.28-1.19,2.36,2.36,0,0,1,.22-1,2.23,2.23,0,0,1,.59-.77,2.69,2.69,0,0,1,.9-.49,3.62,3.62,0,0,1,1.13-.17,5.83,5.83,0,0,1,2.18.43v1.42a9.4,9.4,0,0,0-1-.41,3.24,3.24,0,0,0-1.1-.18,1.71,1.71,0,0,0-1,.27.92.92,0,0,0-.39.8,1.08,1.08,0,0,0,.27.76,2.92,2.92,0,0,0,.69.55q.41.25.9.48a5,5,0,0,1,.9.56,2.75,2.75,0,0,1,.69.79A2.29,2.29,0,0,1,836.49,704.08Z" transform="translate(-728.37 -693.33)"/><path class="cls-1" d="M838.33,697.65h1.49v6a2.3,2.3,0,0,0,.34,1.34,1.37,1.37,0,0,0,1.21.49,2.15,2.15,0,0,0,1.22-.39,5.16,5.16,0,0,0,1-.85v-6.59h1.49v8.89H843.8l-.18-1.1-.5.47a3.19,3.19,0,0,1-.58.41,3.55,3.55,0,0,1-.72.3,3.11,3.11,0,0,1-.88.12,2.38,2.38,0,0,1-2.61-2.63Z" transform="translate(-728.37 -693.33)"/><path class="cls-1" d="M849.11,706.55h-1.49v-13h1.49Z" transform="translate(-728.37 -693.33)"/><path class="cls-1" d="M853.73,697.65h2.32v1.26h-2.32v5.25a1.49,1.49,0,0,0,.28,1,1.26,1.26,0,0,0,1,.32,3.43,3.43,0,0,0,.74-.07,3.83,3.83,0,0,0,.63-.2v1.26a3.83,3.83,0,0,1-.82.21,6.06,6.06,0,0,1-.86.06,2.67,2.67,0,0,1-1.85-.55,2.34,2.34,0,0,1-.59-1.79v-5.49h-1.67v-1.26h1.67v-2.39h1.49Z" transform="translate(-728.37 -693.33)"/><path class="cls-1" d="M857.66,694.36a1,1,0,0,1,.29-.72,1,1,0,0,1,.72-.31,1,1,0,1,1,0,2.05,1,1,0,0,1-.72-.31A1,1,0,0,1,857.66,694.36Zm1.78,12.19h-1.49v-8.89h1.49Z" transform="translate(-728.37 -693.33)"/><path class="cls-1" d="M868.71,706.55h-1.49v-6a2.3,2.3,0,0,0-.34-1.35,1.38,1.38,0,0,0-1.21-.48,2.16,2.16,0,0,0-1.22.39,5.1,5.1,0,0,0-1,.85v6.61H862v-8.89h1.28l.18,1.1a5.34,5.34,0,0,1,1.24-1,3,3,0,0,1,1.44-.33,2.57,2.57,0,0,1,1.93.7,2.67,2.67,0,0,1,.68,1.94Z" transform="translate(-728.37 -693.33)"/><path class="cls-1" d="M877.87,706.33a3.18,3.18,0,0,1-1,2.61,4.19,4.19,0,0,1-2.72.79,12.15,12.15,0,0,1-1.47-.09,6.57,6.57,0,0,1-1.29-.27V708a12.47,12.47,0,0,0,1.3.31,7.28,7.28,0,0,0,1.32.12,3.1,3.1,0,0,0,1.68-.4,1.58,1.58,0,0,0,.64-1.45v-1.21a4.81,4.81,0,0,1-1.06.59,3.5,3.5,0,0,1-2.79-.12,3.13,3.13,0,0,1-1.08-.94,4.11,4.11,0,0,1-.63-1.35,6.08,6.08,0,0,1-.21-1.59,7.37,7.37,0,0,1,.21-1.77,4.26,4.26,0,0,1,.65-1.46,3.19,3.19,0,0,1,1.11-1,3.36,3.36,0,0,1,1.61-.36,2.73,2.73,0,0,1,1.2.28,4,4,0,0,1,1,.71l.18-.77h1.29Zm-1.49-6.79a4.51,4.51,0,0,0-.93-.6,2.44,2.44,0,0,0-1.08-.24,2,2,0,0,0-1.07.26,2.05,2.05,0,0,0-.68.7,3.06,3.06,0,0,0-.37,1,6.65,6.65,0,0,0-.11,1.2,6.52,6.52,0,0,0,.1,1.14,2.94,2.94,0,0,0,.36,1,2,2,0,0,0,.72.7,2.37,2.37,0,0,0,1.19.26,3.1,3.1,0,0,0,1-.18,2.45,2.45,0,0,0,.84-.47Z" transform="translate(-728.37 -693.33)"/><path class="cls-1" d="M883.7,694.36a1,1,0,0,1,.29-.72,1,1,0,0,1,.72-.31,1,1,0,1,1,0,2.05,1,1,0,0,1-.72-.31A1,1,0,0,1,883.7,694.36Zm1.78,12.19H884v-8.89h1.49Z" transform="translate(-728.37 -693.33)"/><path class="cls-1" d="M894.75,706.55h-1.49v-6a2.29,2.29,0,0,0-.34-1.35,1.38,1.38,0,0,0-1.21-.48,2.16,2.16,0,0,0-1.22.39,5.16,5.16,0,0,0-1,.85v6.61H888v-8.89h1.28l.18,1.1a5.34,5.34,0,0,1,1.24-1,3,3,0,0,1,1.44-.33,2.57,2.57,0,0,1,1.93.7,2.67,2.67,0,0,1,.68,1.94Z" transform="translate(-728.37 -693.33)"/><path class="cls-2" d="M735.93,723.86a4.47,4.47,0,0,1-1.19,3.28,4.77,4.77,0,0,1-3.55,1.21,9.21,9.21,0,0,1-1.51-.12,7.83,7.83,0,0,1-1.31-.33v-2.12a14.18,14.18,0,0,0,1.42.43,5.82,5.82,0,0,0,1.39.16,2.08,2.08,0,0,0,2.39-2.35,2.11,2.11,0,0,0-.66-1.65,2.74,2.74,0,0,0-1.88-.59,13.08,13.08,0,0,0-2.21.2v-6.8h6.52v1.94h-4.21v2.68h.59a4.26,4.26,0,0,1,3.12,1.08A4,4,0,0,1,735.93,723.86Z" transform="translate(-728.37 -693.33)"/><path class="cls-2" d="M743.71,718.44a5.56,5.56,0,0,1-.14,1.27,3,3,0,0,1-.48,1.09,2.44,2.44,0,0,1-.9.76,3.61,3.61,0,0,1-2.83,0,2.44,2.44,0,0,1-.9-.76,3,3,0,0,1-.48-1.09,5.56,5.56,0,0,1-.14-1.27,5.34,5.34,0,0,1,.14-1.25,3.13,3.13,0,0,1,.48-1.08,2.33,2.33,0,0,1,.9-.76,3.71,3.71,0,0,1,2.83,0,2.34,2.34,0,0,1,.9.76,3.15,3.15,0,0,1,.48,1.08A5.34,5.34,0,0,1,743.71,718.44Zm-1.93,0c0-.23,0-.45,0-.68a1.94,1.94,0,0,0-.13-.59,1.06,1.06,0,0,0-.31-.42.82.82,0,0,0-.54-.16.79.79,0,0,0-.52.16,1.05,1.05,0,0,0-.31.42,2.16,2.16,0,0,0-.14.59,6.19,6.19,0,0,0,0,.68,6.32,6.32,0,0,0,0,.69,2,2,0,0,0,.14.58,1.06,1.06,0,0,0,.31.41.79.79,0,0,0,.52.16.82.82,0,0,0,.54-.16,1.06,1.06,0,0,0,.31-.41,1.84,1.84,0,0,0,.13-.58C741.77,718.93,741.78,718.7,741.78,718.46Zm1.24,9.68H741l6.95-13h2Zm10.06-3.29a5.61,5.61,0,0,1-.14,1.27,3.07,3.07,0,0,1-.48,1.09,2.43,2.43,0,0,1-.9.76,3.61,3.61,0,0,1-2.83,0,2.44,2.44,0,0,1-.9-.76,3,3,0,0,1-.48-1.09,5.56,5.56,0,0,1-.14-1.27,5.34,5.34,0,0,1,.14-1.25,3.14,3.14,0,0,1,.48-1.08,2.33,2.33,0,0,1,.9-.76,3.71,3.71,0,0,1,2.83,0,2.32,2.32,0,0,1,.9.76,3.16,3.16,0,0,1,.48,1.08A5.39,5.39,0,0,1,753.09,724.85Zm-1.93,0q0-.34,0-.67a1.94,1.94,0,0,0-.13-.59,1.06,1.06,0,0,0-.31-.42.83.83,0,0,0-.54-.16.8.8,0,0,0-.52.16,1,1,0,0,0-.31.42,2.16,2.16,0,0,0-.14.59,6.18,6.18,0,0,0,0,.67,6.34,6.34,0,0,0,0,.69,2,2,0,0,0,.14.58,1.07,1.07,0,0,0,.31.41.8.8,0,0,0,.52.16.83.83,0,0,0,.54-.16,1.08,1.08,0,0,0,.31-.41,1.84,1.84,0,0,0,.13-.58Q751.16,725.23,751.16,724.87Z" transform="translate(-728.37 -693.33)"/><path class="cls-1" d="M764.57,728.15h-1.49v-6a2.73,2.73,0,0,0-.28-1.33,1.12,1.12,0,0,0-1.07-.5,1.83,1.83,0,0,0-1.09.39,8.24,8.24,0,0,0-1,.84v6.62h-1.49v-8.89h1.28l.18,1.12a6.85,6.85,0,0,1,1.11-.93,2.48,2.48,0,0,1,1.41-.41,2.13,2.13,0,0,1,2.14,1.35,6.72,6.72,0,0,1,1.3-1A2.89,2.89,0,0,1,767,719a2.29,2.29,0,0,1,1.84.73,2.83,2.83,0,0,1,.63,1.92v6.46H768v-6a4.61,4.61,0,0,0-.05-.73,1.56,1.56,0,0,0-.21-.58,1.05,1.05,0,0,0-.41-.38,1.46,1.46,0,0,0-.67-.14,2.2,2.2,0,0,0-1.09.32,5.18,5.18,0,0,0-1,.76,2.33,2.33,0,0,1,0,.26c0,.1,0,.19,0,.26Z" transform="translate(-728.37 -693.33)"/><path class="cls-1" d="M779,723.7a7.16,7.16,0,0,1-.22,1.79,4.28,4.28,0,0,1-.68,1.48,3.35,3.35,0,0,1-1.19,1,4.29,4.29,0,0,1-3.48,0,3.32,3.32,0,0,1-1.2-1,4.28,4.28,0,0,1-.68-1.48,7.43,7.43,0,0,1,0-3.55,4.47,4.47,0,0,1,.68-1.49,3.29,3.29,0,0,1,1.19-1,4.26,4.26,0,0,1,3.51,0,3.3,3.3,0,0,1,1.19,1,4.47,4.47,0,0,1,.67,1.49A7.13,7.13,0,0,1,779,723.7Zm-1.55,0a9.25,9.25,0,0,0-.08-1.22,3.14,3.14,0,0,0-.33-1.08,2,2,0,0,0-1.87-1.07,2.07,2.07,0,0,0-1.18.3,2.12,2.12,0,0,0-.69.77,3.16,3.16,0,0,0-.33,1.08,9.25,9.25,0,0,0-.08,1.22,8.81,8.81,0,0,0,.09,1.27,3.38,3.38,0,0,0,.34,1.09,2,2,0,0,0,.69.77,2.08,2.08,0,0,0,1.16.29,2.13,2.13,0,0,0,1.17-.29,1.94,1.94,0,0,0,.69-.77,3.55,3.55,0,0,0,.33-1.09A8.81,8.81,0,0,0,777.5,723.66Z" transform="translate(-728.37 -693.33)"/><path class="cls-1" d="M782.46,720.69a3.59,3.59,0,0,1,1-1.16,2.35,2.35,0,0,1,1.45-.5,4.24,4.24,0,0,1,.56,0v1.22l-.25,0H785a2.9,2.9,0,0,0-1.29.32,4.38,4.38,0,0,0-1.21.9v6.64H781v-8.89h1.3Z" transform="translate(-728.37 -693.33)"/><path class="cls-1" d="M787.63,724.13a4.27,4.27,0,0,0,.14,1.12,2.71,2.71,0,0,0,.46.94,2.17,2.17,0,0,0,.83.65,3,3,0,0,0,1.25.24,5.81,5.81,0,0,0,2.49-.61v1.3a5.09,5.09,0,0,1-1.32.43,7.6,7.6,0,0,1-1.45.14,4.24,4.24,0,0,1-1.77-.34,3.3,3.3,0,0,1-1.23-1,3.93,3.93,0,0,1-.71-1.47,7.43,7.43,0,0,1-.23-1.9,6.89,6.89,0,0,1,.23-1.78,4.4,4.4,0,0,1,.68-1.48,3.45,3.45,0,0,1,1.15-1,3.35,3.35,0,0,1,1.63-.38,3.14,3.14,0,0,1,1.55.35,3,3,0,0,1,1,.94,3.92,3.92,0,0,1,.57,1.36,7.38,7.38,0,0,1,.17,1.6v.49q0,.18,0,.36Zm3.89-1.26a6.45,6.45,0,0,0-.07-1,2.28,2.28,0,0,0-.28-.83,1.6,1.6,0,0,0-.59-.57,1.93,1.93,0,0,0-1-.22,1.65,1.65,0,0,0-.82.2,1.94,1.94,0,0,0-.61.54,2.66,2.66,0,0,0-.4.82,3.8,3.8,0,0,0-.17,1Z" transform="translate(-728.37 -693.33)"/><path class="cls-1" d="M803.49,725.68a2.79,2.79,0,0,1-.23,1.19,2.27,2.27,0,0,1-.64.83,2.79,2.79,0,0,1-.94.49,3.91,3.91,0,0,1-1.14.16,6.82,6.82,0,0,1-1.29-.13,5.81,5.81,0,0,1-1.27-.4v-1.37a9.14,9.14,0,0,0,1.15.44,4.23,4.23,0,0,0,1.27.19,2.06,2.06,0,0,0,1.1-.27,1,1,0,0,0,.44-.93,1.19,1.19,0,0,0-.28-.81,3,3,0,0,0-.69-.57,9.74,9.74,0,0,0-.89-.49,5.2,5.2,0,0,1-.89-.55,2.75,2.75,0,0,1-.69-.78,2.29,2.29,0,0,1-.28-1.19,2.36,2.36,0,0,1,.22-1,2.23,2.23,0,0,1,.59-.77,2.69,2.69,0,0,1,.9-.49,3.62,3.62,0,0,1,1.13-.17,5.83,5.83,0,0,1,2.18.43v1.42a9.4,9.4,0,0,0-1-.41,3.24,3.24,0,0,0-1.1-.18,1.71,1.71,0,0,0-1,.27.92.92,0,0,0-.39.8,1.08,1.08,0,0,0,.27.76,2.92,2.92,0,0,0,.69.55q.41.25.9.48a5,5,0,0,1,.9.56,2.75,2.75,0,0,1,.69.79A2.29,2.29,0,0,1,803.49,725.68Z" transform="translate(-728.37 -693.33)"/><path class="cls-1" d="M806.35,724.13a4.27,4.27,0,0,0,.14,1.12,2.71,2.71,0,0,0,.46.94,2.17,2.17,0,0,0,.83.65,3,3,0,0,0,1.25.24,5.81,5.81,0,0,0,2.49-.61v1.3a5.09,5.09,0,0,1-1.32.43,7.6,7.6,0,0,1-1.45.14A4.24,4.24,0,0,1,807,728a3.3,3.3,0,0,1-1.23-1,3.93,3.93,0,0,1-.71-1.47,7.43,7.43,0,0,1-.23-1.9,6.89,6.89,0,0,1,.23-1.78,4.4,4.4,0,0,1,.68-1.48,3.45,3.45,0,0,1,1.15-1,3.35,3.35,0,0,1,1.63-.38,3.14,3.14,0,0,1,1.55.35,3,3,0,0,1,1,.94,3.92,3.92,0,0,1,.57,1.36,7.38,7.38,0,0,1,.17,1.6v.49q0,.18,0,.36Zm3.89-1.26a6.45,6.45,0,0,0-.07-1,2.28,2.28,0,0,0-.28-.83,1.6,1.6,0,0,0-.59-.57,1.93,1.93,0,0,0-1-.22,1.65,1.65,0,0,0-.82.2,1.94,1.94,0,0,0-.61.54,2.66,2.66,0,0,0-.4.82,3.8,3.8,0,0,0-.17,1Z" transform="translate(-728.37 -693.33)"/><path class="cls-1" d="M815.29,728.15H813.8v-13h1.49Z" transform="translate(-728.37 -693.33)"/><path class="cls-1" d="M819.34,728.15h-1.49v-13h1.49Z" transform="translate(-728.37 -693.33)"/><path class="cls-1" d="M821.59,716a1,1,0,0,1,.29-.72,1,1,0,0,1,.72-.31,1,1,0,1,1,0,2.05,1,1,0,0,1-.72-.31A1,1,0,0,1,821.59,716Zm1.78,12.19h-1.49v-8.89h1.49Z" transform="translate(-728.37 -693.33)"/><path class="cls-1" d="M832.65,728.15h-1.49v-6a2.29,2.29,0,0,0-.34-1.35,1.38,1.38,0,0,0-1.21-.48,2.16,2.16,0,0,0-1.22.39,5.16,5.16,0,0,0-1,.85v6.61H825.9v-8.89h1.28l.18,1.1a5.34,5.34,0,0,1,1.24-1A3,3,0,0,1,830,719a2.57,2.57,0,0,1,1.93.7,2.67,2.67,0,0,1,.68,1.94Z" transform="translate(-728.37 -693.33)"/><path class="cls-1" d="M841.81,727.93a3.18,3.18,0,0,1-1,2.61,4.19,4.19,0,0,1-2.72.79,12.15,12.15,0,0,1-1.47-.09,6.55,6.55,0,0,1-1.29-.27v-1.33a12.35,12.35,0,0,0,1.3.31,7.27,7.27,0,0,0,1.32.12,3.1,3.1,0,0,0,1.68-.4,1.58,1.58,0,0,0,.64-1.45V727a4.81,4.81,0,0,1-1.06.59,3.51,3.51,0,0,1-2.79-.12,3.12,3.12,0,0,1-1.08-.94,4.11,4.11,0,0,1-.63-1.35,6.08,6.08,0,0,1-.21-1.59,7.37,7.37,0,0,1,.21-1.77,4.26,4.26,0,0,1,.65-1.46,3.19,3.19,0,0,1,1.11-1,3.35,3.35,0,0,1,1.61-.36,2.72,2.72,0,0,1,1.2.28,4,4,0,0,1,1,.71l.18-.77h1.29Zm-1.49-6.79a4.48,4.48,0,0,0-.93-.6,2.45,2.45,0,0,0-1.08-.24,2,2,0,0,0-1.07.26,2.06,2.06,0,0,0-.68.7,3.06,3.06,0,0,0-.37,1,6.56,6.56,0,0,0-.11,1.2,6.43,6.43,0,0,0,.1,1.14,2.9,2.9,0,0,0,.36,1,1.94,1.94,0,0,0,.72.7,2.37,2.37,0,0,0,1.19.26,3.11,3.11,0,0,0,1-.18,2.44,2.44,0,0,0,.84-.47Z" transform="translate(-728.37 -693.33)"/><path class="cls-1" d="M850,719.25h2.32v1.26H850v5.25a1.49,1.49,0,0,0,.28,1,1.26,1.26,0,0,0,1,.32A3.43,3.43,0,0,0,852,727a3.83,3.83,0,0,0,.63-.2v1.26a3.83,3.83,0,0,1-.82.21,6.06,6.06,0,0,1-.86.06,2.67,2.67,0,0,1-1.85-.55,2.34,2.34,0,0,1-.59-1.79v-5.49h-1.67v-1.26h1.67v-2.39H850Z" transform="translate(-728.37 -693.33)"/><path class="cls-1" d="M853.94,716a1,1,0,0,1,.29-.72,1,1,0,0,1,.72-.31,1,1,0,1,1,0,2.05,1,1,0,0,1-.72-.31A1,1,0,0,1,853.94,716Zm1.78,12.19h-1.49v-8.89h1.49Z" transform="translate(-728.37 -693.33)"/><path class="cls-1" d="M864.65,728.15h-1.49v-6a2.72,2.72,0,0,0-.28-1.33,1.12,1.12,0,0,0-1.07-.5,1.83,1.83,0,0,0-1.09.39,8.3,8.3,0,0,0-1,.84v6.62h-1.49v-8.89h1.28l.18,1.12a6.85,6.85,0,0,1,1.11-.93,2.48,2.48,0,0,1,1.41-.41,2.13,2.13,0,0,1,2.14,1.35,6.69,6.69,0,0,1,1.3-1,2.88,2.88,0,0,1,1.44-.39,2.3,2.3,0,0,1,1.84.73,2.83,2.83,0,0,1,.63,1.92v6.46h-1.49v-6a4.73,4.73,0,0,0-.05-.73,1.56,1.56,0,0,0-.21-.58,1.06,1.06,0,0,0-.41-.38,1.46,1.46,0,0,0-.68-.14,2.2,2.2,0,0,0-1.09.32,5.18,5.18,0,0,0-1,.76c0,.07,0,.16,0,.26s0,.19,0,.26Z" transform="translate(-728.37 -693.33)"/><path class="cls-1" d="M873,724.13a4.27,4.27,0,0,0,.14,1.12,2.71,2.71,0,0,0,.46.94,2.16,2.16,0,0,0,.83.65,3,3,0,0,0,1.25.24,5.81,5.81,0,0,0,2.49-.61v1.3a5.1,5.1,0,0,1-1.32.43,7.59,7.59,0,0,1-1.45.14,4.23,4.23,0,0,1-1.77-.34,3.31,3.31,0,0,1-1.23-1,3.94,3.94,0,0,1-.71-1.47,7.43,7.43,0,0,1-.22-1.9,6.89,6.89,0,0,1,.22-1.78,4.41,4.41,0,0,1,.68-1.48,3.47,3.47,0,0,1,1.15-1,3.35,3.35,0,0,1,1.63-.38,3.14,3.14,0,0,1,1.55.35,3,3,0,0,1,1,.94,3.92,3.92,0,0,1,.57,1.36,7.45,7.45,0,0,1,.17,1.6v.49c0,.12,0,.24,0,.36Zm3.89-1.26a6.45,6.45,0,0,0-.07-1,2.24,2.24,0,0,0-.28-.83,1.6,1.6,0,0,0-.59-.57,1.94,1.94,0,0,0-1-.22,1.65,1.65,0,0,0-.81.2,2,2,0,0,0-.61.54,2.66,2.66,0,0,0-.4.82,3.8,3.8,0,0,0-.17,1Z" transform="translate(-728.37 -693.33)"/><path class="cls-1" d="M887.4,715a6.63,6.63,0,0,1,.75,0,6,6,0,0,1,.62.1v1.26a3.61,3.61,0,0,0-.62-.11c-.25,0-.49,0-.73,0a1.3,1.3,0,0,0-1.1.39,2,2,0,0,0-.29,1.17v1.41h2.54v1.26H886v7.63h-1.49v-7.63H883v-1.26h1.58V717.9A2.49,2.49,0,0,1,887.4,715Z" transform="translate(-728.37 -693.33)"/><path class="cls-1" d="M896.67,723.7a7.16,7.16,0,0,1-.22,1.79,4.29,4.29,0,0,1-.68,1.48,3.35,3.35,0,0,1-1.19,1,4.29,4.29,0,0,1-3.48,0,3.32,3.32,0,0,1-1.2-1,4.28,4.28,0,0,1-.68-1.48,7.43,7.43,0,0,1,0-3.55,4.47,4.47,0,0,1,.67-1.49,3.29,3.29,0,0,1,1.19-1,4.26,4.26,0,0,1,3.51,0,3.3,3.3,0,0,1,1.19,1,4.47,4.47,0,0,1,.68,1.49A7.13,7.13,0,0,1,896.67,723.7Zm-1.55,0a9.25,9.25,0,0,0-.08-1.22,3.16,3.16,0,0,0-.33-1.08,2.1,2.1,0,0,0-.7-.77,2.46,2.46,0,0,0-2.35,0,2.12,2.12,0,0,0-.69.77,3.14,3.14,0,0,0-.33,1.08,9.09,9.09,0,0,0-.08,1.22,8.68,8.68,0,0,0,.09,1.27A3.38,3.38,0,0,0,891,726a2,2,0,0,0,.69.77,2.08,2.08,0,0,0,1.16.29,2.13,2.13,0,0,0,1.17-.29,1.93,1.93,0,0,0,.69-.77,3.53,3.53,0,0,0,.33-1.09A8.67,8.67,0,0,0,895.12,723.66Z" transform="translate(-728.37 -693.33)"/><path class="cls-1" d="M900.09,720.69a3.6,3.6,0,0,1,1-1.16,2.35,2.35,0,0,1,1.45-.5,4.24,4.24,0,0,1,.56,0v1.22l-.25,0h-.25a2.9,2.9,0,0,0-1.29.32,4.38,4.38,0,0,0-1.22.9v6.64h-1.49v-8.89h1.3Z" transform="translate(-728.37 -693.33)"/><path class="cls-2" d="M746.44,745.3a7,7,0,0,1-.23,1.8,4.1,4.1,0,0,1-.71,1.48,3.45,3.45,0,0,1-1.24,1,4.11,4.11,0,0,1-1.82.37,4.06,4.06,0,0,1-1.8-.37,3.46,3.46,0,0,1-1.24-1,4.1,4.1,0,0,1-.71-1.48,7,7,0,0,1-.23-1.8,7.15,7.15,0,0,1,.22-1.78,4.18,4.18,0,0,1,.69-1.49,3.44,3.44,0,0,1,1.23-1,4.65,4.65,0,0,1,3.67,0,3.52,3.52,0,0,1,1.24,1,4.1,4.1,0,0,1,.7,1.49A7.2,7.2,0,0,1,746.44,745.3Zm-2.32,0a9.51,9.51,0,0,0-.05-1,2.7,2.7,0,0,0-.23-.87,1.58,1.58,0,0,0-.5-.61,1.48,1.48,0,0,0-.88-.23,1.44,1.44,0,0,0-.86.23,1.51,1.51,0,0,0-.5.61,3,3,0,0,0-.23.87,8,8,0,0,0-.06,1,8.21,8.21,0,0,0,.06,1,3.28,3.28,0,0,0,.23.9,1.48,1.48,0,0,0,.5.63,1.44,1.44,0,0,0,.86.23,1.49,1.49,0,0,0,.87-.23,1.45,1.45,0,0,0,.5-.63,3.31,3.31,0,0,0,.23-.9A8.59,8.59,0,0,0,744.11,745.26Z" transform="translate(-728.37 -693.33)"/><path class="cls-2" d="M748.11,740.85h2.27v5.89a1.64,1.64,0,0,0,.24,1,1.07,1.07,0,0,0,.89.31,1.69,1.69,0,0,0,.78-.19,3.76,3.76,0,0,0,.69-.46v-6.55h2.27v8.89h-2l-.18-1a4,4,0,0,1-1,.78,2.58,2.58,0,0,1-1.34.37,2.54,2.54,0,0,1-1.94-.71,2.91,2.91,0,0,1-.67-2.06Z" transform="translate(-728.37 -693.33)"/><path class="cls-2" d="M759.65,742.29a3.3,3.3,0,0,1,1-1.25,2,2,0,0,1,1.17-.41l.49,0a1.65,1.65,0,0,1,.45.12v1.8a4,4,0,0,0-.5-.06h-.38a2.94,2.94,0,0,0-1.12.23,3.71,3.71,0,0,0-1,.57v6.44h-2.27v-8.89h1.91Z" transform="translate(-728.37 -693.33)"/><path class="cls-2" d="M769,743.24a.67.67,0,0,0,.27.55,3.44,3.44,0,0,0,.68.4l.87.39a4.16,4.16,0,0,1,.87.52,2.66,2.66,0,0,1,.68.79,2.34,2.34,0,0,1,.27,1.18,2.62,2.62,0,0,1-.89,2.09,3.56,3.56,0,0,1-2.42.77,8.28,8.28,0,0,1-1.26-.1,5.59,5.59,0,0,1-1.33-.39v-2a5.82,5.82,0,0,0,2.45.63,1.72,1.72,0,0,0,.81-.17.65.65,0,0,0,.32-.63.78.78,0,0,0-.27-.62,2.94,2.94,0,0,0-.67-.42l-.88-.39a4.08,4.08,0,0,1-.88-.5,2.46,2.46,0,0,1-.67-.76,2.39,2.39,0,0,1-.27-1.21,2.52,2.52,0,0,1,.92-2,3,3,0,0,1,1-.55,4.11,4.11,0,0,1,1.27-.19,8.38,8.38,0,0,1,1.14.08,5.15,5.15,0,0,1,1.18.32v2a9.29,9.29,0,0,0-1.12-.38,3.84,3.84,0,0,0-.95-.13,1.73,1.73,0,0,0-.82.17A.59.59,0,0,0,769,743.24Z" transform="translate(-728.37 -693.33)"/><path class="cls-2" d="M778.66,749.75l-.18-.77a4.65,4.65,0,0,1-.85.67,2.36,2.36,0,0,1-1.26.31,2.52,2.52,0,0,1-1.95-.77,3,3,0,0,1-.71-2.1,3,3,0,0,1,.29-1.38,2.39,2.39,0,0,1,.79-.91,3.43,3.43,0,0,1,1.17-.5,6.23,6.23,0,0,1,1.4-.15h1v-.5a1,1,0,0,0-.37-.86,1.61,1.61,0,0,0-1-.28,6.68,6.68,0,0,0-1.25.13,9,9,0,0,0-1.23.32v-1.91l.63-.15q.36-.08.75-.14l.78-.09c.26,0,.5,0,.72,0a2.83,2.83,0,0,1,3.24,3.2v5.9Zm-.31-4h-.82a1.84,1.84,0,0,0-1.1.29,1,1,0,0,0-.41.9,1.29,1.29,0,0,0,.26.81,1,1,0,0,0,.82.33,1.67,1.67,0,0,0,.69-.13,4,4,0,0,0,.55-.3Z" transform="translate(-728.37 -693.33)"/><path class="cls-2" d="M785,749.75h-2.27v-13H785Z" transform="translate(-728.37 -693.33)"/><path class="cls-2" d="M789,746a2.36,2.36,0,0,0,.65,1.46,2.2,2.2,0,0,0,1.64.57,4.81,4.81,0,0,0,1.26-.15,10.69,10.69,0,0,0,1.2-.41v1.91a5.32,5.32,0,0,1-1.24.39,7.71,7.71,0,0,1-1.46.13,5.44,5.44,0,0,1-2-.33,3.39,3.39,0,0,1-1.36-.95,3.84,3.84,0,0,1-.77-1.47,7,7,0,0,1-.24-1.92,6.47,6.47,0,0,1,.23-1.75,4.64,4.64,0,0,1,.7-1.49,3.37,3.37,0,0,1,1.2-1,3.73,3.73,0,0,1,1.74-.38,3.48,3.48,0,0,1,1.64.35,3.07,3.07,0,0,1,1.09.95,3.83,3.83,0,0,1,.6,1.37,7.13,7.13,0,0,1,.18,1.62c0,.18,0,.38,0,.61s0,.4,0,.5Zm2.7-1.58a4.54,4.54,0,0,0-.06-.76,1.82,1.82,0,0,0-.21-.62,1.11,1.11,0,0,0-.42-.42,1.36,1.36,0,0,0-.67-.15,1.08,1.08,0,0,0-.59.16,1.3,1.3,0,0,0-.41.42,2.13,2.13,0,0,0-.25.62,3.78,3.78,0,0,0-.1.74Z" transform="translate(-728.37 -693.33)"/><path class="cls-2" d="M797.56,743.24a.67.67,0,0,0,.27.55,3.43,3.43,0,0,0,.68.4l.87.39a4.21,4.21,0,0,1,.87.52,2.66,2.66,0,0,1,.68.79,2.35,2.35,0,0,1,.27,1.18,2.62,2.62,0,0,1-.89,2.09,3.56,3.56,0,0,1-2.42.77,8.28,8.28,0,0,1-1.26-.1,5.56,5.56,0,0,1-1.33-.39v-2a5.82,5.82,0,0,0,2.45.63,1.72,1.72,0,0,0,.81-.17.65.65,0,0,0,.32-.63.78.78,0,0,0-.27-.62,2.94,2.94,0,0,0-.67-.42l-.88-.39a4.07,4.07,0,0,1-.88-.5,2.46,2.46,0,0,1-.67-.76,2.38,2.38,0,0,1-.27-1.21,2.52,2.52,0,0,1,.92-2,3,3,0,0,1,1-.55,4.1,4.1,0,0,1,1.27-.19,8.39,8.39,0,0,1,1.14.08,5.17,5.17,0,0,1,1.18.32v2a9.35,9.35,0,0,0-1.12-.38,3.85,3.85,0,0,0-.95-.13,1.73,1.73,0,0,0-.82.17A.59.59,0,0,0,797.56,743.24Z" transform="translate(-728.37 -693.33)"/><path class="cls-2" d="M810.16,748.07a4.82,4.82,0,0,0,1.06-.1,9.73,9.73,0,0,0,1-.3v1.89a5.44,5.44,0,0,1-1.16.29,9.15,9.15,0,0,1-1.27.09,4.74,4.74,0,0,1-1.86-.33,3.46,3.46,0,0,1-1.3-.95,3.92,3.92,0,0,1-.77-1.49,7,7,0,0,1-.25-1.93,6,6,0,0,1,.27-1.82,4.12,4.12,0,0,1,.81-1.47,3.72,3.72,0,0,1,1.34-1,4.6,4.6,0,0,1,1.86-.35,8,8,0,0,1,1.14.07,8.44,8.44,0,0,1,1.07.23v1.94a9.85,9.85,0,0,0-.95-.28,3.88,3.88,0,0,0-.89-.1,2.14,2.14,0,0,0-1.75.71,2.89,2.89,0,0,0-.59,1.91,5.53,5.53,0,0,0,.12,1.18,2.68,2.68,0,0,0,.38.93,1.79,1.79,0,0,0,.68.61A2.28,2.28,0,0,0,810.16,748.07Z" transform="translate(-728.37 -693.33)"/><path class="cls-2" d="M821.08,745.3a7,7,0,0,1-.22,1.8,4.12,4.12,0,0,1-.71,1.48,3.46,3.46,0,0,1-1.24,1,4.11,4.11,0,0,1-1.82.37,4.07,4.07,0,0,1-1.8-.37,3.46,3.46,0,0,1-1.24-1,4.14,4.14,0,0,1-.71-1.48,7,7,0,0,1-.22-1.8,7.2,7.2,0,0,1,.22-1.78A4.18,4.18,0,0,1,814,742a3.42,3.42,0,0,1,1.23-1,4.65,4.65,0,0,1,3.67,0,3.5,3.5,0,0,1,1.24,1,4.08,4.08,0,0,1,.7,1.49A7.15,7.15,0,0,1,821.08,745.3Zm-2.32,0a9.5,9.5,0,0,0-.05-1,2.73,2.73,0,0,0-.23-.87,1.58,1.58,0,0,0-.5-.61,1.48,1.48,0,0,0-.88-.23,1.44,1.44,0,0,0-.86.23,1.5,1.5,0,0,0-.5.61,3,3,0,0,0-.23.87,8.2,8.2,0,0,0-.06,1,8.4,8.4,0,0,0,.06,1,3.28,3.28,0,0,0,.23.9,1.46,1.46,0,0,0,.5.63,1.44,1.44,0,0,0,.86.23,1.48,1.48,0,0,0,.87-.23,1.44,1.44,0,0,0,.5-.63,3.28,3.28,0,0,0,.23-.9A8.4,8.4,0,0,0,818.76,745.26Z" transform="translate(-728.37 -693.33)"/><path class="cls-2" d="M829.87,749.75H827.6v-5.9a2,2,0,0,0-.21-1q-.21-.35-.89-.35a1.53,1.53,0,0,0-.73.2,4.13,4.13,0,0,0-.69.47v6.57h-2.27v-8.89h2l.18,1a4.23,4.23,0,0,1,1-.82,2.55,2.55,0,0,1,1.34-.35,2.35,2.35,0,0,1,1.25.32,2.56,2.56,0,0,1,.86.85,5.07,5.07,0,0,1,1.09-.83,2.81,2.81,0,0,1,1.41-.34,2.57,2.57,0,0,1,2,.76,2.94,2.94,0,0,1,.67,2v6.32h-2.27v-5.9a1.89,1.89,0,0,0-.22-1,.91.91,0,0,0-.85-.35,1.92,1.92,0,0,0-.76.17,3.32,3.32,0,0,0-.72.42,1.25,1.25,0,0,1,0,.22v6.42Z" transform="translate(-728.37 -693.33)"/><path class="cls-2" d="M843.89,749.75h-2.27v-5.9a2,2,0,0,0-.21-1,1,1,0,0,0-.89-.35,1.54,1.54,0,0,0-.73.2,4.17,4.17,0,0,0-.69.47v6.57h-2.27v-8.89h2l.18,1a4.19,4.19,0,0,1,1-.82,2.55,2.55,0,0,1,1.34-.35,2.36,2.36,0,0,1,1.25.32,2.56,2.56,0,0,1,.85.85,5.08,5.08,0,0,1,1.09-.83,2.81,2.81,0,0,1,1.41-.34,2.57,2.57,0,0,1,2,.76,2.94,2.94,0,0,1,.67,2v6.32h-2.27v-5.9a1.9,1.9,0,0,0-.22-1,.92.92,0,0,0-.85-.35,1.92,1.92,0,0,0-.76.17,3.31,3.31,0,0,0-.72.42,1.35,1.35,0,0,1,0,.22v6.42Z" transform="translate(-728.37 -693.33)"/><path class="cls-2" d="M850.8,740.85h2.27v5.89a1.64,1.64,0,0,0,.24,1,1.07,1.07,0,0,0,.89.31,1.7,1.7,0,0,0,.78-.19,3.78,3.78,0,0,0,.69-.46v-6.55h2.27v8.89h-2l-.18-1a4,4,0,0,1-1,.78,2.58,2.58,0,0,1-1.34.37,2.54,2.54,0,0,1-1.94-.71,2.91,2.91,0,0,1-.67-2.06Z" transform="translate(-728.37 -693.33)"/><path class="cls-2" d="M862.39,741.79a4,4,0,0,1,1-.81,2.66,2.66,0,0,1,1.35-.34,2.35,2.35,0,0,1,1.92.79,3,3,0,0,1,.66,2v6.32h-2.27v-5.9a2,2,0,0,0-.21-1,.88.88,0,0,0-.84-.36,1.93,1.93,0,0,0-.81.18,3.26,3.26,0,0,0-.76.49v6.57h-2.27v-8.89h2Z" transform="translate(-728.37 -693.33)"/><path class="cls-2" d="M869.21,737.83a1.21,1.21,0,0,1,.4-.94,1.64,1.64,0,0,1,2.05,0,1.2,1.2,0,0,1,.4.94,1.18,1.18,0,0,1-.4.93,1.67,1.67,0,0,1-2.05,0A1.18,1.18,0,0,1,869.21,737.83Zm2.56,11.92H869.5v-8.89h2.27Z" transform="translate(-728.37 -693.33)"/><path class="cls-2" d="M877,740.85h2.29v1.84H877v4.15a1.34,1.34,0,0,0,.27,1,1.17,1.17,0,0,0,.85.26,4.2,4.2,0,0,0,1.4-.23v1.84a7.83,7.83,0,0,1-.92.2,7.35,7.35,0,0,1-1.1.07,2.77,2.77,0,0,1-2.06-.72,2.82,2.82,0,0,1-.71-2.07v-4.46H873v-1.84h1.71v-2.39H877Z" transform="translate(-728.37 -693.33)"/><path class="cls-2" d="M884.21,746.72l1.83-5.87h2.27l-3.19,9a12.45,12.45,0,0,1-.58,1.38,3.55,3.55,0,0,1-.7,1,2.59,2.59,0,0,1-.94.58,3.94,3.94,0,0,1-1.3.19l-.77,0a4.47,4.47,0,0,1-.78-.12V750.9a6.79,6.79,0,0,0,.71.11l.57,0a1.41,1.41,0,0,0,.93-.25,1.78,1.78,0,0,0,.48-.68l.29-.68L880,740.85h2.27Z" transform="translate(-728.37 -693.33)"/><path class="cls-2" d="M891.41,748.45a1.44,1.44,0,0,1-.43,1.06,1.83,1.83,0,0,1-2.33,0,1.55,1.55,0,0,1,0-2.17,1.6,1.6,0,0,1,1.14-.41,1.7,1.7,0,0,1,1.15.41A1.37,1.37,0,0,1,891.41,748.45Z" transform="translate(-728.37 -693.33)"/></svg>