<svg id="icons" xmlns="http://www.w3.org/2000/svg" xmlns:xlink="http://www.w3.org/1999/xlink" viewBox="0 0 190.91 124.28"><defs><style>.cls-1{fill:none;}.cls-2{fill:#0c93d2;}.cls-3{clip-path:url(#clip-path);}.cls-4{fill:#009857;}.cls-5{fill:#009756;}.cls-6{fill:#009655;}.cls-7{fill:#009554;}.cls-8{fill:#019454;}.cls-9{fill:#019353;}.cls-10{fill:#019252;}.cls-11{fill:#019151;}.cls-12{fill:#019050;}.cls-13{fill:#018f4f;}.cls-14{fill:#018e4e;}.cls-15{fill:#018d4d;}.cls-16{fill:#028c4d;}.cls-17{fill:#028b4c;}.cls-18{fill:#028a4b;}.cls-19{fill:#02894a;}.cls-20{fill:#028849;}.cls-21{fill:#028748;}.cls-22{fill:#028647;}.cls-23{fill:#028546;}.cls-24{fill:#038446;}.cls-25{fill:#038345;}.cls-26{fill:#038244;}.cls-27{fill:#038143;}.cls-28{fill:#037f42;}.cls-29{fill:#037e41;}.cls-30{fill:#037d40;}.cls-31{fill:#047c40;}.cls-32{fill:#047b3f;}.cls-33{fill:#047a3e;}.cls-34{fill:#04793d;}.cls-35{fill:#04783c;}.cls-36{fill:#04773b;}.cls-37{fill:#04763a;}.cls-38{fill:#047539;}.cls-39{fill:#057439;}.cls-40{fill:#057338;}.cls-41{fill:#057237;}.cls-42{fill:#057136;}.cls-43{fill:#057035;}.cls-44{fill:#056f34;}.cls-45{fill:#056e33;}.cls-46{fill:#056d32;}.cls-47{fill:#066c32;}.cls-48{fill:#066b31;}.cls-49{fill:#066a30;}.cls-50{fill:#06692f;}.cls-51{clip-path:url(#clip-path-2);}.cls-52{clip-path:url(#clip-path-3);}.cls-53{clip-path:url(#clip-path-4);}.cls-54{clip-path:url(#clip-path-5);}.cls-55{clip-path:url(#clip-path-6);}.cls-56{clip-path:url(#clip-path-7);}.cls-57{fill:#73b9e7;}.cls-58{fill:#009540;}.cls-59{fill:#55379b;}.cls-60{fill:#ffd633;}.cls-61{fill:#eb352c;}.cls-62{fill:#b02821;}.cls-63{fill:#fff;}.cls-64{fill:#fc0;}.cls-65{fill:#402974;}.cls-66{fill:url(#radial-gradient);}</style><clipPath id="clip-path" transform="translate(-107.74 -2730.97)"><path class="cls-1" d="M229.57,2769.57c-.28.27-.8-.16-1.22-.17a1.45,1.45,0,0,0-1.63,1.62c0,.18,0,.39-.14.5s-.33-.07-.48-.15a5.1,5.1,0,0,0-.8-.39,3.2,3.2,0,0,1-1.71-1,2.25,2.25,0,0,0-2-.65c-.7.08-1-.41-1.46-.76-.18-.15,0-.23.08-.32a1.13,1.13,0,0,0,.24-1.33,3,3,0,0,1-.15-.73,1.13,1.13,0,0,0-1.45-1.1,21,21,0,0,1-2.29.24c-.85.18-1.72.24-2.58.36a2,2,0,0,0-1,.49,5.43,5.43,0,0,1-1.72.78,3.3,3.3,0,0,1-1.54-.11v-.19a4.55,4.55,0,0,1,.84-.27,3,3,0,0,0,2.07-1.55c.15-.2.33-.45.24-.69-.36-1,.48-1.35,1.07-1.8.34-.26.92-.35,1-.77.26-1,.74-1.45,1.83-1.09.34.11.64-.3,1-.49,1-.59,1.26-.51,1.93.4a6.49,6.49,0,0,0,2.33,2.08,3.28,3.28,0,0,1,1.12.89c.39.49.29.76-.31.94a2,2,0,0,1-1,0,.6.6,0,0,0-.74.34c-.14.32.06.52.31.68a7.85,7.85,0,0,0,1,.59c.52.22,1,.23,1.15-.48,0-.21.2-.29.37-.37a2,2,0,0,0,.88-1.18c.12-.28-.22-.77.49-.78.27,0,.2-.55-.05-.74a10.71,10.71,0,0,0-2-1.45,1.07,1.07,0,0,1-.56-.37,5.79,5.79,0,0,0-1.17-1.51s0-.16-.07-.37a5.72,5.72,0,0,1,1.12.73,6.6,6.6,0,0,0,2.24,1.44c.44.2.85.47.85,1a3.07,3.07,0,0,0,1.13,2.12,2.05,2.05,0,0,1,.61,1.12,1.39,1.39,0,0,0,.61,1,2.18,2.18,0,0,1,.54.47,54.1,54.1,0,0,0-13.65-20.66,2.09,2.09,0,0,1,.15.75c0,1.59.36,2,1.9,2.41.18.05.38.06.34.33a2.52,2.52,0,0,0,.31,1.46c.19.43.12.7-.4.77-.89.12-1.72.33-2.07,1.32a.41.41,0,0,1-.24.23c-.94.22-1.46,1.2-2.35,1.4-.61.14-1.24,0-1.7.62-.11.14-.53,0-.79.11s-.62.17-.61.55a.69.69,0,0,0,.54.71,3.2,3.2,0,0,1,1.3.87,1.53,1.53,0,0,1,.38,1.7.85.85,0,0,1-1.05.7c-1.09-.11-2.2-.12-3.29-.13a1,1,0,0,0-1,1.23,5,5,0,0,1-.39,2.62,1.32,1.32,0,0,0,0,1.13,1.13,1.13,0,0,1,.13.66c-.1.74.11,1,.86.92.14,0,.27-.05.41-.07a.76.76,0,0,1,.85.29c.21.33.06.59-.13.88a11.18,11.18,0,0,1-1.58,1.82,3.18,3.18,0,0,0-1.16,2.79c.11.65-.72,1.7-1.61,1.9a1.5,1.5,0,0,0-1.23,1.22,6.08,6.08,0,0,1-.93,1.66,39.51,39.51,0,0,0-1.74,3.87,1.14,1.14,0,0,0-.12,1A8.6,8.6,0,0,1,200,2786a2.8,2.8,0,0,1-.71,1.68c-.38.39-.41.74,0,1.1a.86.86,0,0,1,.31,1,1.32,1.32,0,0,0,.3,1.21,11.3,11.3,0,0,1,2.25,4.12,1.34,1.34,0,0,0,.51.8,27.49,27.49,0,0,1,2.68,2.54,1.9,1.9,0,0,0,2.55.34,3.48,3.48,0,0,1,2.65-.32,4,4,0,0,0,3.09-.61,2.74,2.74,0,0,1,1.75-.49.94.94,0,0,1,.9.76,1.38,1.38,0,0,0,1.74,1.14c1.13-.12,1.75.38,1.56,1.47a11.07,11.07,0,0,1-.4,2.64c-.66,1.47,0,2.52.86,3.57a7.26,7.26,0,0,1,1.53,3.12,7.08,7.08,0,0,0,.42,1.16,2.81,2.81,0,0,1,.27,1.73,2.13,2.13,0,0,0,.19,1.41,1.54,1.54,0,0,1,.16.9,54.14,54.14,0,0,0,6.88-45.69Z"/></clipPath><clipPath id="clip-path-2" transform="translate(-107.74 -2730.97)"><path class="cls-1" d="M175.67,2837.1a6.93,6.93,0,0,0,.9-2.76,1.11,1.11,0,0,1,.34-.73,2.54,2.54,0,0,0,.75-2.81c-.13-.5-.33-1,.12-1.49.69-.71,1.23-1.63,2.41-1.65a1.57,1.57,0,0,0,1.74-1.47c0-.18,0-.42.15-.52a3.42,3.42,0,0,0,.92-2.36,13.05,13.05,0,0,0,.22-4.22,1.74,1.74,0,0,1,.4-1.84.49.49,0,0,0,.14-.23c.36-1.43,1.42-2.5,2-3.81a4.62,4.62,0,0,0-.18-4.23.82.82,0,0,0-.83-.49,1.47,1.47,0,0,1-1.18-.45c-.4-.34-.81-.68-1.22-1a1.54,1.54,0,0,0-1.34-.37,2.47,2.47,0,0,1-2.16-1,1.26,1.26,0,0,0-.72-.69c-.65-.23-1.07-.89-1.79-1a.21.21,0,0,1-.14-.14c-.12-.7-.66-.68-1.17-.65s-.69-.16-.35-.64a.64.64,0,0,0,0-.88,2.7,2.7,0,0,1-.69-1.54,4.1,4.1,0,0,0-1.68-2.52,2.53,2.53,0,0,0-1.87-.55,1.75,1.75,0,0,1-2.08-1.23,2,2,0,0,0-1.21-1.31,1.51,1.51,0,0,1-.8-.72,2.23,2.23,0,0,0-.77-.95c-.09-.06-.23-.13-.17-.26s.28-.61-.14-.63-1.21-.45-1.69.12c-.33.4-.59.44-1,.1a.36.36,0,0,0-.25-.1c-1.16.13-1.84-.75-2.65-1.3-.44-.3-.71-.24-.92.22-.09.2-.1.45-.33.57-.15-.06-.07-.15,0-.21.23-.31.33-.63,0-.91a.69.69,0,0,0-1,.15,2.92,2.92,0,0,1-1.56,1.05,1.83,1.83,0,0,0-1.36,1.4,2.54,2.54,0,0,1-.38.73c-.21.35-.46.42-.76.09a1.4,1.4,0,0,0-1.76-.25c-1.19.52-2,.07-2.25-1.21a7.19,7.19,0,0,1,.22-3,6.42,6.42,0,0,0,.21-1.22,1.45,1.45,0,0,0-1.48-1.6,6.9,6.9,0,0,0-1.65,0c-.72.14-.65-.12-.44-.62.55-1.28,1.09-2.57,1.6-3.87.37-.94.05-1.32-1-1.26-.43,0-.87,0-1.31,0a1,1,0,0,0-1.07,1,1.82,1.82,0,0,1-1.5,1.8c-1.62.52-2.11.29-2.56-1.38a6.16,6.16,0,0,1,0-2.59c.21-1.34.76-2.59,1-3.91a2,2,0,0,1,.73-1,18.45,18.45,0,0,1,2.33-1.58.76.76,0,0,1,.72,0,10.83,10.83,0,0,0,1.87.46c.44.06.81.06.73-.55,0-.26.14-.31.32-.36a2.64,2.64,0,0,1,1.29-.12,6.51,6.51,0,0,0,2.11.49c.34,0,.45.37.35.69a4.42,4.42,0,0,0,.47,3.31c.13.28.24.54.63.51a.87.87,0,0,0,.84-.59,5,5,0,0,0,.19-2.57c-.08-.54-.18-1.08-.22-1.63a3,3,0,0,1,1.56-2.69c1.08-.82,2.29-1.44,3.29-2.36a1.82,1.82,0,0,0,.75-1.68c0-.09,0-.23,0-.26.69-.55.88-1.47,1.52-2.06.12-.11.32-.16.38-.28a3.43,3.43,0,0,1,2.76-1.6c.44-.09.79-.24.6-.9-.13-.44.37-.74.78-.91s.85-.34,1.28-.49.91-.64,1,.31a.37.37,0,0,0,.62.2c1.3-.89,2.91-1.11,4.21-2,.36-.25.4-.48.2-.79s-.43-.54-.78-.25-.42.31-.73,0-.57-.14-.85-.23c-.55-.19-.61-.44-.19-.82.22-.2.52-.35.43-.71s-.48-.45-.95-.55c1.71-.86,3.5,0,5.19-.72-.22.7-.75.9-1.11,1.25a5.62,5.62,0,0,0-.57.49.54.54,0,0,0,.39.9,6.82,6.82,0,0,0,.76,0c.42,0,.79-.1,1.22.3s1.06.3,1.62.37a.61.61,0,0,0,.63-.45,3.52,3.52,0,0,0,.15-1.7.73.73,0,0,0-.67-.6c-.54-.11-.6-.41-.37-.85a1.94,1.94,0,0,0,.11-.25c.59-1.62.3-2.46-1.23-3.26a1.32,1.32,0,0,1-.8-1.27,4.61,4.61,0,0,0-1-2.32c-.29-.41-.62-.32-.92,0s-.68.86-1.23,1.05c-.22.08-.41.34-.68.11s-.14-.52,0-.77c.33-.85.34-.85-.51-1.25a.82.82,0,0,1-.38-.28,1.1,1.1,0,0,0-1.25-.48,1.1,1.1,0,0,1-.86-.15,1.56,1.56,0,0,1,1.83,0,10.45,10.45,0,0,0,3.21.85c.52.13,1.14.17,1.27-.63a.18.18,0,0,1,.08-.11c.7-.41.7-.95.19-1.63.22.06.36,0,.42.11.65.67,1.2.5,1.77-.13a2.75,2.75,0,0,1,1.25-.53c.29-.1.6-.21.57-.59a.6.6,0,0,0-.63-.54,2,2,0,0,1-1.66-1.13,2.55,2.55,0,0,0-1.89-1,9.94,9.94,0,0,1-1.85-.72.52.52,0,0,1-.32-.49c0-.3.3-.22.47-.29a12.71,12.71,0,0,1,4.77-.79c.7,0,1,.27,1.14,1a.58.58,0,0,0,.85.44c1.09-.51,2.16-.11,3.24,0,.29,0,.57.19.51.45-.12.54-.06,1.15-.5,1.59s0,.66.3.93a1.84,1.84,0,0,0-.91,2,4.19,4.19,0,0,0,2,3.18c.52.26,1.15.32,1.69.64a.66.66,0,0,0,.77-.13,13.48,13.48,0,0,0,1.13-1.28,5.59,5.59,0,0,1,4.06-2.55,5.07,5.07,0,0,0,2.21-.82,1.79,1.79,0,0,1,.95-.29,12.84,12.84,0,0,0,5.12-1.15c.53-.26,1.18-.52,1-1.36-.06-.27.2-.26.36-.31a1.59,1.59,0,0,0,1.23-1.06,1.12,1.12,0,0,1,1.23-.67q-1.87-1-3.82-1.93a11.11,11.11,0,0,1-3.18-.09,9.67,9.67,0,0,0-2.8,0,15.4,15.4,0,0,1-3,0,5.88,5.88,0,0,0-1.57,0,6.2,6.2,0,0,1-2.25.05,11.51,11.51,0,0,0-2.94.18l-1,.07c-.12,0-.34.05-.31-.15.09-.73-.46-.62-.86-.66-2.61-.25-5.21.09-7.82,0a6.78,6.78,0,0,0-3,.39c-.33.15-.68,0-1,0a4.5,4.5,0,0,0-3.2.9c-.41.37-.48.64.06.92.1.05.18.15.06.45-.29-.63-1.11-.41-1.29-1.2-.12-.51-.72-.63-1.2-.61s-1.13,0-1.45.58c0,.08-.21.18-.28.15-.71-.25-1.34.25-2,.19-.23,0-.48,0-.55.3s.16.4.36.52a.81.81,0,0,1,.17.11c.14.14.42.21.34.46s-.32.1-.5.12-.65-.1-.79.26.2.5.41.7.33.58,0,.83-.36.65-.13,1.09a3.68,3.68,0,0,0-2.28.11.49.49,0,0,1-.56-.18c-.17-.24.08-.37.23-.49.3-.26.25-.45,0-.73-.59-.61-.49-.93.25-1.28.45-.21,1-.37.66-1.08-.09-.17.06-.25.2-.29s.36-.08.53-.13.41-.13.39-.4-.24-.31-.45-.32a2.74,2.74,0,0,0-1.65.38c-.14.08-.26.19-.39.28-1.14.85-1.22.85-2.33-.08a1,1,0,0,0-.81-.31,6.73,6.73,0,0,0-2.11.59c-.16.08-.34.17-.31.4s.18.25.33.32a1.17,1.17,0,0,0,.87.09c.44-.16.68,0,.92.49-1.2-.07-2.3-.39-3.46-.39a54.19,54.19,0,0,0-24.19,30.12l.08,0c.59-.1,1.58.92,1.61,1.54s0,1.1,0,1.65a2.79,2.79,0,0,0,.62,2c.26.31.35.61-.09.84a.53.53,0,0,0-.17.91,3.51,3.51,0,0,1,1.18,2.65c0,.61.62,1.14,1,1.67a.64.64,0,0,0,1.07-.34,1.05,1.05,0,0,0,0-.67c-.6-1.09-.16-2.43-.86-3.48-.08-.11,0-.31,0-.47.39.86,1.23,1.49,1.16,2.52a.82.82,0,0,0,.25.55,6.11,6.11,0,0,1,1.14,2,2.28,2.28,0,0,1,0,2.35.89.89,0,0,0,0,1,5.84,5.84,0,0,0,1.93,1.91c1.07.66,2.09,1.39,3.2,2a2.2,2.2,0,0,0,1.83.29c.84-.28,1.38-.15,1.76.68.65,1.38,1.94,1.57,3.15,1.89.4.11.61.24.7.61a9.91,9.91,0,0,0,1,2.58,5.83,5.83,0,0,0,2,2,9.22,9.22,0,0,1,1.56.89c.45.39.94.14,1-.46a1,1,0,0,1,.18-.64c.25-.27.47-.3.6.09a10.31,10.31,0,0,1,.68,4.67,1,1,0,0,1-.16.51,15.13,15.13,0,0,0-1.64,2.52c-.65,1.14-1.46,2.45-.59,3.9.18.3.11.47-.14.7a1.64,1.64,0,0,0-.44,1.92,6.25,6.25,0,0,0,1.46,2.6,3.29,3.29,0,0,1,.78,1.29,35.82,35.82,0,0,1,1.68,4.77c.26,1.29,1.31,2,2.31,2.77a8.69,8.69,0,0,0,1.21.65,4.5,4.5,0,0,1,2.47,3.61,57.87,57.87,0,0,1,.49,8.6,6.08,6.08,0,0,0,.41,2.49c.05.12.15.26.06.39h0a53.78,53.78,0,0,0,12,2.49l-.13-.16C174.25,2839.05,175,2838.24,175.67,2837.1Zm-11.35-97.39a2.62,2.62,0,0,1,.51-.14,1.1,1.1,0,0,0-.31,1c.1.44.55.43.91.65-.39.28-.65.37-.91,0-.07-.11-.22-.25-.31-.24-.68.08-.63-.42-.65-.82S164.05,2739.86,164.32,2739.71Zm-8,7.07c1.11-.47,2.18-1,3.26-1.57a2,2,0,0,1,2.51.14c.29.24.66,0,1-.12a1.93,1.93,0,0,1,1.94-.2.51.51,0,0,0,.74-.12.62.62,0,0,0-.21-.79l-.9-.81,1.43-.2c.74-.11,1.48-.12,1.8-1.07a1.11,1.11,0,0,1,1.15-.72,1.09,1.09,0,0,0,.58-.19c.45-.25.82-.27,1.09.25.17.33.46.32.77.26.16,0,.35,0,.39.17s-.14.23-.26.27c-1,.34-1.89,1.18-3.13,1a1.13,1.13,0,0,0-1.1,1.71c-.55-.07-.79.27-1,.67-.41.7-.67,1.5-1.53,1.86a.57.57,0,0,0-.14.9c.48.62.15,1.05-.28,1.48a3.2,3.2,0,0,1-1.68.73c-.73.17-.82.32-.63,1a1.33,1.33,0,0,1,.07.4c0,.53-.6,1.19-1,1.13-.6-.08-.56-.64-.64-1.07a1.37,1.37,0,0,1,.09-.74c.31-.83.31-.85-.57-1.08a31,31,0,0,1-3.59-1.54c-.39-.15-.48-.81-.72-1.22C155.58,2747.21,156.07,2746.91,156.35,2746.78Z"/></clipPath><clipPath id="clip-path-3" transform="translate(-107.74 -2730.97)"><path class="cls-1" d="M206,2752.91a.68.68,0,0,0,.58.51,2,2,0,0,0,.95-.1,8.62,8.62,0,0,1,1.25-.34c.36-.07.35.22.49.36s.06.28-.09.4-.52.31-.31.65.53.19.81.14a12.36,12.36,0,0,1,2.36-.41,3,3,0,0,0,.48,0c.45-.07,1-.13,1-.7s.36-1.21-.44-1.68a6.42,6.42,0,0,1-1.61-1.84.37.37,0,0,1-.06-.32c.36-.58,0-.93-.3-1.39s-.78-.5-1.24-.51-.57.39-.71.73a2.64,2.64,0,0,0-.22,1.14c0,.21,0,.49-.27.47a2.84,2.84,0,0,0-1.68.66c-.41.24-.92.39-.72,1S205.81,2752.42,206,2752.91Z"/></clipPath><clipPath id="clip-path-4" transform="translate(-107.74 -2730.97)"><path class="cls-1" d="M158.53,2782.27a1.46,1.46,0,0,1-1.17-.24,38.4,38.4,0,0,0-4.37-2.66,3,3,0,0,0-3.46.36c-.27.28-.59.62-.31,1s.7.16,1,0,.49-.41.81-.3a8.2,8.2,0,0,1,2.25.79c.42.29.84.74.82,1.16,0,.63.31.58.65.61a6.82,6.82,0,0,0,2-.16c.4-.08.54.2.61.49s-.24.3-.44.32-.5.11-.51.44a.52.52,0,0,0,.43.55c.62.1,1.28,0,1.83.41.06,0,.27,0,.38-.11a1.78,1.78,0,0,1,1.52-.37.76.76,0,0,0,.88-.41c.18-.31,0-.51-.22-.72A2.94,2.94,0,0,0,158.53,2782.27Z"/></clipPath><clipPath id="clip-path-5" transform="translate(-107.74 -2730.97)"><path class="cls-1" d="M201,2745.19a7.27,7.27,0,0,0,2.73-.72c.33-.14.78-.22.81-.65s-.38-.76-.75-1a1.36,1.36,0,0,0-1.06-.09,4.77,4.77,0,0,1-2.8.09,1.54,1.54,0,0,0-1.55.87,1.5,1.5,0,0,0,.87,1.31C199.85,2745.09,200.44,2745.13,201,2745.19Z"/></clipPath><clipPath id="clip-path-6" transform="translate(-107.74 -2730.97)"><path class="cls-1" d="M218.65,2760.29a.53.53,0,0,0-.57.5,10.45,10.45,0,0,0,0,2.79.64.64,0,0,0,.66.57.57.57,0,0,0,.62-.58c0-.23.08-.45.12-.7a8.88,8.88,0,0,1-.31-2.07A.49.49,0,0,0,218.65,2760.29Z"/></clipPath><clipPath id="clip-path-7" transform="translate(-107.74 -2730.97)"><circle class="cls-1" cx="168.79" cy="2769.57" r="55.74"/></clipPath><radialGradient id="radial-gradient" cx="177" cy="2779.66" r="65.41" gradientTransform="translate(-107.74 -939.66) scale(1 0.36)" gradientUnits="userSpaceOnUse"><stop offset="0.01" stop-color="#0c93d2" stop-opacity="0.5"/><stop offset="1" stop-color="#0c93d2" stop-opacity="0"/></radialGradient></defs><path class="cls-1" d="M177.81,2839.2c-1.65,0-3.28-.08-4.9-.22.18.22.25.22.61.25a48.7,48.7,0,0,0,7.35,0,52.91,52.91,0,0,0,10.7-1.68,58,58,0,0,0,11.88-4.64,56.52,56.52,0,0,0,10.71-7.54,66.55,66.55,0,0,0,8.13-9.22,1.89,1.89,0,0,0,.4-.9A54,54,0,0,1,177.81,2839.2Z" transform="translate(-107.74 -2730.97)"/><path class="cls-1" d="M200.17,2735.94l.21,0a53.15,53.15,0,0,0-16.63-4.67,58.39,58.39,0,0,0-17.28.88c-6.11,1.21-14.59,4.8-16,6.36h.07a54.12,54.12,0,0,1,49.64-2.55Z" transform="translate(-107.74 -2730.97)"/><path class="cls-1" d="M123.76,2785.15a54,54,0,0,1,2.58-16.55c-.4.14-.39.71-.56,1.08a2.6,2.6,0,0,0-.13.46,66,66,0,0,0-1.85,10,53,53,0,0,0,.12,11.38,53.93,53.93,0,0,0,6.33,19.71,55.2,55.2,0,0,0,16.08,18.09,54.51,54.51,0,0,0,8.86,5.1,56.33,56.33,0,0,0,5.24,2.07c.14,0,.3.16.43,0A54.07,54.07,0,0,1,123.76,2785.15Z" transform="translate(-107.74 -2730.97)"/><path class="cls-1" d="M229.64,2769.5c.17-.27-.22-.88-.36-1.34,0-.09-.06-.17-.09-.26a3.64,3.64,0,0,0-.64-1.39q.56,1.51,1,3.07A.35.35,0,0,0,229.64,2769.5Z" transform="translate(-107.74 -2730.97)"/><path class="cls-1" d="M214.34,2745.06a53.39,53.39,0,0,0-6.66-5.2c-1-.65-2-1.24-3.08-1.81a1.63,1.63,0,0,0-.6-.19,54.21,54.21,0,0,1,10.91,8A2.08,2.08,0,0,0,214.34,2745.06Z" transform="translate(-107.74 -2730.97)"/><path class="cls-2" d="M153.07,2738.38a1.17,1.17,0,0,1-.87-.09c-.15-.06-.3-.13-.33-.32s.15-.32.31-.4a6.73,6.73,0,0,1,2.11-.59,1,1,0,0,1,.81.31c1.12.93,1.19.92,2.33.08.13-.1.25-.2.39-.28a2.74,2.74,0,0,1,1.65-.38c.21,0,.43.05.45.32s-.2.34-.39.4-.36.08-.53.13-.28.11-.2.29c.36.72-.21.88-.66,1.08-.75.34-.84.67-.25,1.28.27.28.32.47,0,.73-.14.12-.4.25-.23.49a.49.49,0,0,0,.56.18,3.68,3.68,0,0,1,2.28-.11c-.23-.44-.26-.76.13-1.09s.25-.57,0-.83-.56-.33-.41-.7.51-.23.79-.26.43.08.5-.12-.2-.32-.34-.46a.81.81,0,0,0-.17-.11c-.2-.11-.42-.23-.36-.52s.31-.32.55-.3c.69.06,1.32-.44,2-.19.07,0,.23-.07.28-.15.32-.61.92-.56,1.45-.58s1.09.1,1.2.61c.18.8,1,.57,1.29,1.2.11-.31,0-.4-.06-.45-.54-.28-.47-.55-.06-.92a4.5,4.5,0,0,1,3.2-.9c.34,0,.68.16,1,0a6.78,6.78,0,0,1,3-.39c2.61.09,5.21-.26,7.82,0,.39,0,.95-.06.86.66,0,.2.19.15.31.15l1-.07a11.51,11.51,0,0,1,2.94-.18,6.2,6.2,0,0,0,2.25-.05,5.88,5.88,0,0,1,1.57,0,15.4,15.4,0,0,0,3,0,9.67,9.67,0,0,1,2.8,0,11.11,11.11,0,0,0,3.18.09,54.12,54.12,0,0,0-49.64,2.55c1.15,0,2.26.32,3.46.39C153.76,2738.43,153.51,2738.22,153.07,2738.38Z" transform="translate(-107.74 -2730.97)"/><path class="cls-2" d="M160.81,2836.09a6.08,6.08,0,0,1-.41-2.49,57.87,57.87,0,0,0-.49-8.6,4.5,4.5,0,0,0-2.47-3.61,8.69,8.69,0,0,1-1.21-.65c-1-.73-2-1.47-2.31-2.77a35.82,35.82,0,0,0-1.68-4.77,3.29,3.29,0,0,0-.78-1.29,6.25,6.25,0,0,1-1.46-2.6,1.64,1.64,0,0,1,.44-1.92c.25-.23.32-.4.14-.7-.87-1.45-.06-2.76.59-3.9a15.13,15.13,0,0,1,1.64-2.52,1,1,0,0,0,.16-.51,10.31,10.31,0,0,0-.68-4.67c-.13-.39-.35-.36-.6-.09a1,1,0,0,0-.18.64c-.08.6-.58.85-1,.46a9.22,9.22,0,0,0-1.56-.89,5.83,5.83,0,0,1-2-2,9.91,9.91,0,0,1-1-2.58c-.09-.37-.31-.51-.7-.61-1.21-.33-2.51-.51-3.15-1.89-.39-.82-.92-1-1.76-.68a2.2,2.2,0,0,1-1.83-.29c-1.11-.6-2.13-1.34-3.2-2a5.84,5.84,0,0,1-1.93-1.91.89.89,0,0,1,0-1,2.28,2.28,0,0,0,0-2.35,6.11,6.11,0,0,0-1.14-2,.82.82,0,0,1-.25-.55c.06-1-.78-1.66-1.16-2.52,0,.16,0,.35,0,.47.7,1.06.26,2.4.86,3.48a1.05,1.05,0,0,1,0,.67.64.64,0,0,1-1.07.34c-.4-.52-1.07-1.05-1-1.67a3.51,3.51,0,0,0-1.18-2.65.53.53,0,0,1,.17-.91c.44-.23.35-.53.09-.84a2.79,2.79,0,0,1-.62-2c0-.55,0-1.1,0-1.65s-1-1.64-1.61-1.54l-.08,0a54.1,54.1,0,0,0,34.52,67.88h0C161,2836.35,160.87,2836.21,160.81,2836.09Z" transform="translate(-107.74 -2730.97)"/><path class="cls-2" d="M164.2,2741c.1,0,.24.13.31.24.25.38.52.28.91,0-.36-.23-.8-.21-.91-.65a1.1,1.1,0,0,1,.31-1,2.62,2.62,0,0,0-.51.14c-.27.15-.79-.06-.76.48S163.52,2741.09,164.2,2741Z" transform="translate(-107.74 -2730.97)"/><path class="cls-2" d="M228,2766a1.39,1.39,0,0,1-.61-1,2.05,2.05,0,0,0-.61-1.12,3.07,3.07,0,0,1-1.13-2.12c0-.52-.41-.79-.85-1a6.6,6.6,0,0,1-2.24-1.44,5.72,5.72,0,0,0-1.12-.73c0,.21,0,.33.07.37a5.79,5.79,0,0,1,1.17,1.51,1.07,1.07,0,0,0,.56.37,10.71,10.71,0,0,1,2,1.45c.26.18.32.73.05.74-.71,0-.37.5-.49.78a2,2,0,0,1-.88,1.18c-.17.08-.32.16-.37.37-.15.71-.63.71-1.15.48a7.85,7.85,0,0,1-1-.59c-.25-.16-.45-.36-.31-.68a.6.6,0,0,1,.74-.34,2,2,0,0,0,1,0c.6-.17.7-.45.31-.94a3.28,3.28,0,0,0-1.12-.89,6.49,6.49,0,0,1-2.33-2.08c-.66-.91-1-1-1.93-.4-.31.19-.61.6-1,.49-1.09-.36-1.57.06-1.83,1.09-.1.41-.68.51-1,.77-.59.44-1.43.76-1.07,1.8.08.24-.1.49-.24.69a3,3,0,0,1-2.07,1.55,4.55,4.55,0,0,0-.84.27v.19a3.3,3.3,0,0,0,1.54.11,5.43,5.43,0,0,0,1.72-.78,2,2,0,0,1,1-.49c.86-.12,1.73-.18,2.58-.36a21,21,0,0,0,2.29-.24,1.13,1.13,0,0,1,1.45,1.1,3,3,0,0,0,.15.73,1.13,1.13,0,0,1-.24,1.33c-.09.09-.26.17-.08.32.43.35.75.84,1.46.76a2.25,2.25,0,0,1,2,.65,3.2,3.2,0,0,0,1.71,1,5.1,5.1,0,0,1,.8.39c.15.08.28.28.48.15s.14-.32.14-.5a1.45,1.45,0,0,1,1.63-1.62c.42,0,.94.43,1.22.17q-.47-1.55-1-3.07A2.18,2.18,0,0,0,228,2766Zm-8.62-2.48a.57.57,0,0,1-.62.58.64.64,0,0,1-.66-.57,10.45,10.45,0,0,1,0-2.79.53.53,0,0,1,.57-.5.49.49,0,0,1,.54.5,8.88,8.88,0,0,0,.31,2.07C219.47,2763.11,219.41,2763.33,219.39,2763.56Z" transform="translate(-107.74 -2730.97)"/><path class="cls-2" d="M156.41,2748.6a31,31,0,0,0,3.59,1.54c.89.23.89.25.57,1.08a1.37,1.37,0,0,0-.09.74c.08.43,0,1,.64,1.07.43.06,1-.6,1-1.13a1.33,1.33,0,0,0-.07-.4c-.19-.72-.1-.87.63-1a3.2,3.2,0,0,0,1.68-.73c.43-.43.77-.86.28-1.48a.57.57,0,0,1,.14-.9c.86-.36,1.12-1.17,1.53-1.86.23-.39.48-.74,1-.67a1.13,1.13,0,0,1,1.1-1.71c1.24.14,2.09-.69,3.13-1,.13,0,.29-.11.26-.27s-.23-.2-.39-.17c-.31.06-.6.07-.77-.26-.27-.52-.64-.5-1.09-.25a1.09,1.09,0,0,1-.58.19,1.11,1.11,0,0,0-1.15.72c-.32.95-1.06,1-1.8,1.07l-1.43.2.9.81a.62.62,0,0,1,.21.79.51.51,0,0,1-.74.12,1.93,1.93,0,0,0-1.94.2c-.31.15-.68.36-1,.12a2,2,0,0,0-2.51-.14c-1.07.53-2.15,1.1-3.26,1.57-.28.12-.77.42-.67.59C155.93,2747.79,156,2748.45,156.41,2748.6Z" transform="translate(-107.74 -2730.97)"/><path class="cls-2" d="M222.53,2814.37a2.13,2.13,0,0,1-.19-1.41,2.81,2.81,0,0,0-.27-1.73,7.08,7.08,0,0,1-.42-1.16,7.26,7.26,0,0,0-1.53-3.12c-.85-1-1.52-2.1-.86-3.57a11.07,11.07,0,0,0,.4-2.64c.19-1.1-.43-1.6-1.56-1.47a1.38,1.38,0,0,1-1.74-1.14.94.94,0,0,0-.9-.76,2.74,2.74,0,0,0-1.75.49,4,4,0,0,1-3.09.61,3.48,3.48,0,0,0-2.65.32,1.9,1.9,0,0,1-2.55-.34,27.49,27.49,0,0,0-2.68-2.54,1.34,1.34,0,0,1-.51-.8A11.3,11.3,0,0,0,200,2791a1.32,1.32,0,0,1-.3-1.21.86.86,0,0,0-.31-1c-.45-.36-.42-.71,0-1.1A2.8,2.8,0,0,0,200,2786a8.6,8.6,0,0,0-.35-4.48,1.14,1.14,0,0,1,.12-1,39.51,39.51,0,0,1,1.74-3.87,6.08,6.08,0,0,0,.93-1.66,1.5,1.5,0,0,1,1.23-1.22c.89-.21,1.72-1.26,1.61-1.9a3.18,3.18,0,0,1,1.16-2.79,11.18,11.18,0,0,0,1.58-1.82c.19-.28.34-.55.13-.88a.76.76,0,0,0-.85-.29c-.14,0-.27.06-.41.07-.75.05-1-.18-.86-.92a1.13,1.13,0,0,0-.13-.66,1.32,1.32,0,0,1,0-1.13,5,5,0,0,0,.39-2.62,1,1,0,0,1,1-1.23c1.1,0,2.2,0,3.29.13a.85.85,0,0,0,1.05-.7,1.53,1.53,0,0,0-.38-1.7,3.2,3.2,0,0,0-1.3-.87.69.69,0,0,1-.54-.71c0-.38.34-.44.61-.55s.68,0,.79-.11c.46-.59,1.09-.48,1.7-.62.89-.2,1.41-1.18,2.35-1.4a.41.41,0,0,0,.24-.23c.35-1,1.19-1.19,2.07-1.32.51-.07.59-.34.4-.77a2.52,2.52,0,0,1-.31-1.46c0-.27-.15-.27-.34-.33-1.54-.44-1.88-.82-1.9-2.41a2.09,2.09,0,0,0-.15-.75,54.21,54.21,0,0,0-10.91-8,1.12,1.12,0,0,0-1.23.67,1.59,1.59,0,0,1-1.23,1.06c-.16,0-.43,0-.36.31.2.84-.44,1.1-1,1.36a12.84,12.84,0,0,1-5.12,1.15,1.79,1.79,0,0,0-.95.29,5.07,5.07,0,0,1-2.21.82,5.59,5.59,0,0,0-4.06,2.55,13.48,13.48,0,0,1-1.13,1.28.66.66,0,0,1-.77.13c-.53-.32-1.17-.39-1.69-.64a4.19,4.19,0,0,1-2-3.18,1.84,1.84,0,0,1,.91-2c-.32-.27-.77-.46-.3-.93s.38-1,.5-1.59c.06-.26-.23-.42-.51-.45-1.08-.11-2.15-.51-3.24,0a.58.58,0,0,1-.85-.44c-.14-.68-.43-1-1.14-1a12.71,12.71,0,0,0-4.77.79c-.17.07-.47,0-.47.29a.52.52,0,0,0,.32.49,9.94,9.94,0,0,0,1.85.72,2.55,2.55,0,0,1,1.89,1,2,2,0,0,0,1.66,1.13.6.6,0,0,1,.63.54c0,.38-.28.49-.57.59a2.75,2.75,0,0,0-1.25.53c-.57.64-1.12.8-1.77.13-.06-.07-.2-.06-.42-.11.51.69.5,1.22-.19,1.63a.18.18,0,0,0-.08.11c-.13.8-.76.76-1.27.63a10.45,10.45,0,0,1-3.21-.85,1.56,1.56,0,0,0-1.83,0,1.1,1.1,0,0,0,.86.15,1.1,1.1,0,0,1,1.25.48.82.82,0,0,0,.38.28c.86.4.85.4.51,1.25-.1.25-.22.53,0,.77s.45,0,.68-.11c.55-.19.85-.67,1.23-1.05s.64-.4.92,0a4.61,4.61,0,0,1,1,2.32,1.32,1.32,0,0,0,.8,1.27c1.52.8,1.82,1.64,1.23,3.26a1.94,1.94,0,0,1-.11.25c-.24.44-.18.74.37.85a.73.73,0,0,1,.67.6,3.52,3.52,0,0,1-.15,1.7.61.61,0,0,1-.63.45c-.56-.07-1.27,0-1.62-.37s-.8-.29-1.22-.3a6.82,6.82,0,0,1-.76,0,.54.54,0,0,1-.39-.9,5.62,5.62,0,0,1,.57-.49c.37-.35.89-.55,1.11-1.25-1.69.76-3.48-.14-5.19.72.47.11.85.14.95.55s-.21.51-.43.71c-.42.38-.36.63.19.82.28.1.65.06.85.23s.48.17.73,0,.6,0,.78.25.16.55-.2.79c-1.3.9-2.91,1.12-4.21,2a.37.37,0,0,1-.62-.2c-.13-.95-.62-.46-1-.31s-.86.31-1.28.49-.91.47-.78.91c.19.66-.16.81-.6.9a3.43,3.43,0,0,0-2.76,1.6c-.07.13-.26.18-.38.28-.64.59-.83,1.51-1.52,2.06,0,0,0,.18,0,.26a1.82,1.82,0,0,1-.75,1.68c-1,.91-2.21,1.54-3.29,2.36a3,3,0,0,0-1.56,2.69c0,.55.14,1.09.22,1.63a5,5,0,0,1-.19,2.57.87.87,0,0,1-.84.59c-.39,0-.5-.24-.63-.51a4.42,4.42,0,0,1-.47-3.31c.1-.32,0-.71-.35-.69a6.51,6.51,0,0,1-2.11-.49,2.64,2.64,0,0,0-1.29.12c-.18,0-.36.1-.32.36.09.61-.28.62-.73.55a10.83,10.83,0,0,1-1.87-.46.76.76,0,0,0-.72,0,18.45,18.45,0,0,0-2.33,1.58,2,2,0,0,0-.73,1c-.29,1.32-.83,2.57-1,3.91a6.16,6.16,0,0,0,0,2.59c.45,1.67.94,1.91,2.56,1.38a1.82,1.82,0,0,0,1.5-1.8,1,1,0,0,1,1.07-1c.43,0,.87,0,1.31,0,1-.07,1.34.31,1,1.26-.51,1.3-1.05,2.58-1.6,3.87-.21.49-.27.75.44.62a6.9,6.9,0,0,1,1.65,0,1.45,1.45,0,0,1,1.48,1.6,6.42,6.42,0,0,1-.21,1.22,7.19,7.19,0,0,0-.22,3c.27,1.28,1.06,1.73,2.25,1.21a1.4,1.4,0,0,1,1.76.25c.3.33.55.26.76-.09a2.54,2.54,0,0,0,.38-.73,1.83,1.83,0,0,1,1.36-1.4,2.92,2.92,0,0,0,1.56-1.05.69.69,0,0,1,1-.15c.35.28.24.6,0,.91,0,.06-.12.15,0,.21.23-.12.23-.37.33-.57.21-.45.48-.52.92-.22.82.56,1.49,1.43,2.65,1.3a.36.36,0,0,1,.25.1c.36.35.62.3,1-.1.48-.57,1.13-.15,1.69-.12s.25.37.14.63.08.21.17.26a2.23,2.23,0,0,1,.77.95,1.51,1.51,0,0,0,.8.72,2,2,0,0,1,1.21,1.31,1.75,1.75,0,0,0,2.08,1.23,2.53,2.53,0,0,1,1.87.55,4.1,4.1,0,0,1,1.68,2.52,2.7,2.7,0,0,0,.69,1.54.64.64,0,0,1,0,.88c-.34.48-.26.68.35.64s1-.05,1.17.65a.21.21,0,0,0,.14.14c.73.1,1.14.75,1.79,1a1.26,1.26,0,0,1,.72.69,2.47,2.47,0,0,0,2.16,1,1.54,1.54,0,0,1,1.34.37c.41.33.82.67,1.22,1a1.47,1.47,0,0,0,1.18.45.82.82,0,0,1,.83.49,4.62,4.62,0,0,1,.18,4.23c-.58,1.31-1.64,2.37-2,3.81a.49.49,0,0,1-.14.23,1.74,1.74,0,0,0-.4,1.84,13.05,13.05,0,0,1-.22,4.22,3.42,3.42,0,0,1-.92,2.36c-.11.1-.12.34-.15.52a1.57,1.57,0,0,1-1.74,1.47c-1.18,0-1.72.93-2.41,1.65-.45.47-.25,1-.12,1.49a2.54,2.54,0,0,1-.75,2.81,1.11,1.11,0,0,0-.34.73,6.93,6.93,0,0,1-.9,2.76c-.68,1.14-1.42,1.95-2.89,1.72l.13.16c1.61.14,3.25.22,4.9.22a54,54,0,0,0,44.88-23.93A1.54,1.54,0,0,0,222.53,2814.37Zm-16.23-62.72c-.2-.58.31-.73.72-1a2.84,2.84,0,0,1,1.68-.66c.26,0,.28-.26.27-.47a2.64,2.64,0,0,1,.22-1.14c.14-.34.26-.74.71-.73s.92,0,1.24.51.65.82.3,1.39a.37.37,0,0,0,.06.32,6.42,6.42,0,0,0,1.61,1.84c.81.47.51,1.09.44,1.68s-.6.62-1,.7a3,3,0,0,1-.48,0,12.36,12.36,0,0,0-2.36.41c-.29.05-.61.19-.81-.14s.1-.48.31-.65.24-.24.09-.4-.13-.43-.49-.36a8.62,8.62,0,0,0-1.25.34,2,2,0,0,1-.95.1.68.68,0,0,1-.58-.51C205.81,2752.42,206.49,2752.19,206.3,2751.64Zm-44.83,32.48a.76.76,0,0,1-.88.41,1.78,1.78,0,0,0-1.52.37c-.1.07-.31.16-.38.11-.55-.43-1.21-.31-1.83-.41a.52.52,0,0,1-.43-.55c0-.32.24-.4.51-.44s.54.08.44-.32-.21-.58-.61-.49a6.82,6.82,0,0,1-2,.16c-.34,0-.69,0-.65-.61,0-.42-.4-.87-.82-1.16a8.2,8.2,0,0,0-2.25-.79c-.32-.1-.55.17-.81.3s-.74.45-1,0,0-.74.31-1a3,3,0,0,1,3.46-.36,38.4,38.4,0,0,1,4.37,2.66,1.46,1.46,0,0,0,1.17.24,2.94,2.94,0,0,1,2.72,1.14C161.43,2783.62,161.65,2783.81,161.47,2784.13Zm36.93-40.43a1.54,1.54,0,0,1,1.55-.87,4.77,4.77,0,0,0,2.8-.09,1.36,1.36,0,0,1,1.06.09c.37.23.78.51.75,1s-.48.51-.81.65a7.27,7.27,0,0,1-2.73.72c-.56-.06-1.16-.1-1.74-.19A1.5,1.5,0,0,1,198.39,2743.69Z" transform="translate(-107.74 -2730.97)"/><g class="cls-3"><rect class="cls-4" x="91.18" y="14.88" width="0.12" height="69.42"/><rect class="cls-4" x="91.3" y="14.88" width="0.7" height="69.42"/><rect class="cls-5" x="92" y="14.88" width="0.7" height="69.42"/><rect class="cls-6" x="92.7" y="14.88" width="0.7" height="69.42"/><rect class="cls-7" x="93.4" y="14.88" width="0.7" height="69.42"/><rect class="cls-8" x="94.09" y="14.88" width="0.7" height="69.42"/><rect class="cls-9" x="94.79" y="14.88" width="0.7" height="69.42"/><rect class="cls-10" x="95.49" y="14.88" width="0.7" height="69.42"/><rect class="cls-11" x="96.19" y="14.88" width="0.7" height="69.42"/><rect class="cls-12" x="96.89" y="14.88" width="0.7" height="69.42"/><rect class="cls-13" x="97.59" y="14.88" width="0.7" height="69.42"/><rect class="cls-14" x="98.28" y="14.88" width="0.7" height="69.42"/><rect class="cls-15" x="98.98" y="14.88" width="0.7" height="69.42"/><rect class="cls-16" x="99.68" y="14.88" width="0.7" height="69.42"/><rect class="cls-17" x="100.38" y="14.88" width="0.7" height="69.42"/><rect class="cls-18" x="101.08" y="14.88" width="0.7" height="69.42"/><rect class="cls-19" x="101.77" y="14.88" width="0.7" height="69.42"/><rect class="cls-20" x="102.47" y="14.88" width="0.7" height="69.42"/><rect class="cls-21" x="103.17" y="14.88" width="0.7" height="69.42"/><rect class="cls-22" x="103.87" y="14.88" width="0.7" height="69.42"/><rect class="cls-23" x="104.57" y="14.88" width="0.7" height="69.42"/><rect class="cls-24" x="105.27" y="14.88" width="0.7" height="69.42"/><rect class="cls-25" x="105.96" y="14.88" width="0.7" height="69.42"/><rect class="cls-26" x="106.66" y="14.88" width="0.7" height="69.42"/><rect class="cls-27" x="107.36" y="14.88" width="0.7" height="69.42"/><rect class="cls-28" x="108.06" y="14.88" width="0.7" height="69.42"/><rect class="cls-29" x="108.76" y="14.88" width="0.7" height="69.42"/><rect class="cls-30" x="109.45" y="14.88" width="0.7" height="69.42"/><rect class="cls-31" x="110.15" y="14.88" width="0.7" height="69.42"/><rect class="cls-32" x="110.85" y="14.88" width="0.7" height="69.42"/><rect class="cls-33" x="111.55" y="14.88" width="0.7" height="69.42"/><rect class="cls-34" x="112.25" y="14.88" width="0.7" height="69.42"/><rect class="cls-35" x="112.95" y="14.88" width="0.7" height="69.42"/><rect class="cls-36" x="113.64" y="14.88" width="0.7" height="69.42"/><rect class="cls-37" x="114.34" y="14.88" width="0.7" height="69.42"/><rect class="cls-38" x="115.04" y="14.88" width="0.7" height="69.42"/><rect class="cls-39" x="115.74" y="14.88" width="0.7" height="69.42"/><rect class="cls-40" x="116.44" y="14.88" width="0.7" height="69.42"/><rect class="cls-41" x="117.13" y="14.88" width="0.7" height="69.42"/><rect class="cls-42" x="117.83" y="14.88" width="0.7" height="69.42"/><rect class="cls-43" x="118.53" y="14.88" width="0.7" height="69.42"/><rect class="cls-44" x="119.23" y="14.88" width="0.7" height="69.42"/><rect class="cls-45" x="119.93" y="14.88" width="0.7" height="69.42"/><rect class="cls-46" x="120.63" y="14.88" width="0.7" height="69.42"/><rect class="cls-47" x="121.32" y="14.88" width="0.7" height="69.42"/><rect class="cls-48" x="122.02" y="14.88" width="0.7" height="69.42"/><rect class="cls-49" x="122.72" y="14.88" width="0.7" height="69.42"/><rect class="cls-50" x="123.42" y="14.88" width="0.7" height="69.42"/><path class="cls-50" d="M231.85,2815.27v0Z" transform="translate(-107.74 -2730.97)"/></g><g class="cls-51"><rect class="cls-21" x="47.84" y="9.89" width="0.51" height="12.23"/><rect class="cls-22" x="48.35" y="9.89" width="1.65" height="12.23"/><rect class="cls-23" x="50" y="9.89" width="1.65" height="12.23"/><rect class="cls-24" x="51.65" y="9.89" width="1.65" height="12.23"/><rect class="cls-25" x="53.3" y="9.89" width="1.65" height="12.23"/><rect class="cls-26" x="54.95" y="9.89" width="1.65" height="12.23"/><rect class="cls-27" x="56.61" y="9.89" width="1.65" height="12.23"/><rect class="cls-28" x="58.26" y="9.89" width="1.65" height="12.23"/><rect class="cls-29" x="59.91" y="9.89" width="1.65" height="12.23"/><rect class="cls-30" x="61.56" y="9.89" width="1.65" height="12.23"/><rect class="cls-31" x="63.21" y="9.89" width="0.94" height="12.23"/><rect class="cls-26" x="55.79" y="8.61" width="0.82" height="2.05"/><rect class="cls-27" x="56.61" y="8.61" width="1.08" height="2.05"/><path class="cls-4" d="M126.35,2735.09v0Z" transform="translate(-107.74 -2730.97)"/><rect class="cls-4" x="18.61" y="4.13" width="1.65" height="103.96"/><rect class="cls-5" x="20.26" y="4.13" width="1.65" height="103.96"/><rect class="cls-6" x="21.91" y="4.13" width="1.65" height="103.96"/><rect class="cls-7" x="23.57" y="4.13" width="1.65" height="103.96"/><rect class="cls-8" x="25.22" y="4.13" width="1.65" height="103.96"/><rect class="cls-9" x="26.87" y="4.13" width="1.65" height="103.96"/><rect class="cls-10" x="28.52" y="4.13" width="1.65" height="103.96"/><rect class="cls-11" x="30.17" y="4.13" width="1.65" height="103.96"/><rect class="cls-12" x="31.83" y="4.13" width="1.65" height="103.96"/><rect class="cls-13" x="33.48" y="4.13" width="1.65" height="103.96"/><rect class="cls-14" x="35.13" y="4.13" width="1.65" height="103.96"/><rect class="cls-15" x="36.78" y="4.13" width="1.65" height="103.96"/><rect class="cls-16" x="38.43" y="4.13" width="1.65" height="103.96"/><rect class="cls-17" x="40.09" y="4.13" width="1.65" height="103.96"/><rect class="cls-18" x="41.74" y="4.13" width="1.65" height="103.96"/><rect class="cls-19" x="43.39" y="4.13" width="1.65" height="103.96"/><rect class="cls-20" x="45.04" y="4.13" width="1.65" height="103.96"/><rect class="cls-21" x="46.69" y="4.13" width="1.65" height="103.96"/><rect class="cls-22" x="48.35" y="4.13" width="1.65" height="103.96"/><rect class="cls-23" x="50" y="4.13" width="1.65" height="103.96"/><rect class="cls-24" x="51.65" y="4.13" width="1.65" height="103.96"/><rect class="cls-25" x="53.3" y="4.13" width="1.65" height="103.96"/><rect class="cls-26" x="54.95" y="4.13" width="1.65" height="103.96"/><rect class="cls-27" x="56.61" y="4.13" width="1.65" height="103.96"/><rect class="cls-28" x="58.26" y="4.13" width="1.65" height="103.96"/><rect class="cls-29" x="59.91" y="4.13" width="1.65" height="103.96"/><rect class="cls-30" x="61.56" y="4.13" width="1.65" height="103.96"/><rect class="cls-31" x="63.21" y="4.13" width="1.65" height="103.96"/><rect class="cls-32" x="64.87" y="4.13" width="1.65" height="103.96"/><rect class="cls-33" x="66.52" y="4.13" width="1.65" height="103.96"/><rect class="cls-34" x="68.17" y="4.13" width="1.65" height="103.96"/><rect class="cls-35" x="69.82" y="4.13" width="1.65" height="103.96"/><rect class="cls-36" x="71.47" y="4.13" width="1.65" height="103.96"/><rect class="cls-37" x="73.13" y="4.13" width="1.65" height="103.96"/><rect class="cls-38" x="74.78" y="4.13" width="1.65" height="103.96"/><rect class="cls-39" x="76.43" y="4.13" width="1.65" height="103.96"/><rect class="cls-40" x="78.08" y="4.13" width="1.65" height="103.96"/><rect class="cls-41" x="79.73" y="4.13" width="1.65" height="103.96"/><rect class="cls-42" x="81.39" y="4.13" width="1.65" height="103.96"/><rect class="cls-43" x="83.04" y="4.13" width="1.65" height="103.96"/><rect class="cls-44" x="84.69" y="4.13" width="1.65" height="103.96"/><rect class="cls-45" x="86.34" y="4.13" width="1.65" height="103.96"/><rect class="cls-46" x="87.99" y="4.13" width="1.65" height="103.96"/><rect class="cls-47" x="89.65" y="4.13" width="1.65" height="103.96"/><rect class="cls-48" x="91.3" y="4.13" width="1.65" height="103.96"/><rect class="cls-49" x="92.95" y="4.13" width="1.65" height="103.96"/><rect class="cls-50" x="94.6" y="4.13" width="1.65" height="103.96"/><path class="cls-50" d="M204,2839.05v0Z" transform="translate(-107.74 -2730.97)"/></g><g class="cls-52"><rect class="cls-4" x="98.07" y="16.68" width="0.13" height="7.07"/><rect class="cls-4" x="98.2" y="16.68" width="0.16" height="7.07"/><rect class="cls-5" x="98.36" y="16.68" width="0.16" height="7.07"/><rect class="cls-6" x="98.53" y="16.68" width="0.16" height="7.07"/><rect class="cls-7" x="98.69" y="16.68" width="0.16" height="7.07"/><rect class="cls-8" x="98.86" y="16.68" width="0.16" height="7.07"/><rect class="cls-9" x="99.02" y="16.68" width="0.16" height="7.07"/><rect class="cls-10" x="99.19" y="16.68" width="0.16" height="7.07"/><rect class="cls-11" x="99.35" y="16.68" width="0.16" height="7.07"/><rect class="cls-12" x="99.51" y="16.68" width="0.16" height="7.07"/><rect class="cls-13" x="99.68" y="16.68" width="0.16" height="7.07"/><rect class="cls-14" x="99.84" y="16.68" width="0.16" height="7.07"/><rect class="cls-15" x="100.01" y="16.68" width="0.16" height="7.07"/><rect class="cls-16" x="100.17" y="16.68" width="0.16" height="7.07"/><rect class="cls-17" x="100.33" y="16.68" width="0.16" height="7.07"/><rect class="cls-18" x="100.5" y="16.68" width="0.16" height="7.07"/><rect class="cls-19" x="100.66" y="16.68" width="0.16" height="7.07"/><rect class="cls-20" x="100.83" y="16.68" width="0.16" height="7.07"/><rect class="cls-21" x="100.99" y="16.68" width="0.16" height="7.07"/><rect class="cls-22" x="101.15" y="16.68" width="0.16" height="7.07"/><rect class="cls-23" x="101.32" y="16.68" width="0.16" height="7.07"/><rect class="cls-24" x="101.48" y="16.68" width="0.16" height="7.07"/><rect class="cls-25" x="101.65" y="16.68" width="0.16" height="7.07"/><rect class="cls-26" x="101.81" y="16.68" width="0.16" height="7.07"/><rect class="cls-27" x="101.97" y="16.68" width="0.16" height="7.07"/><rect class="cls-28" x="102.14" y="16.68" width="0.16" height="7.07"/><rect class="cls-29" x="102.3" y="16.68" width="0.16" height="7.07"/><rect class="cls-30" x="102.47" y="16.68" width="0.16" height="7.07"/><rect class="cls-31" x="102.63" y="16.68" width="0.16" height="7.07"/><rect class="cls-32" x="102.79" y="16.68" width="0.16" height="7.07"/><rect class="cls-33" x="102.96" y="16.68" width="0.16" height="7.07"/><rect class="cls-34" x="103.12" y="16.68" width="0.16" height="7.07"/><rect class="cls-35" x="103.29" y="16.68" width="0.16" height="7.07"/><rect class="cls-36" x="103.45" y="16.68" width="0.16" height="7.07"/><rect class="cls-37" x="103.61" y="16.68" width="0.16" height="7.07"/><rect class="cls-38" x="103.78" y="16.68" width="0.16" height="7.07"/><rect class="cls-39" x="103.94" y="16.68" width="0.16" height="7.07"/><rect class="cls-40" x="104.11" y="16.68" width="0.16" height="7.07"/><rect class="cls-41" x="104.27" y="16.68" width="0.16" height="7.07"/><rect class="cls-42" x="104.43" y="16.68" width="0.16" height="7.07"/><rect class="cls-43" x="104.6" y="16.68" width="0.16" height="7.07"/><rect class="cls-44" x="104.76" y="16.68" width="0.16" height="7.07"/><rect class="cls-45" x="104.93" y="16.68" width="0.16" height="7.07"/><rect class="cls-46" x="105.09" y="16.68" width="0.16" height="7.07"/><rect class="cls-47" x="105.26" y="16.68" width="0.16" height="7.07"/><rect class="cls-48" x="105.42" y="16.68" width="0.16" height="7.07"/><rect class="cls-49" x="105.58" y="16.68" width="0.16" height="7.07"/><rect class="cls-50" x="105.75" y="16.68" width="0.16" height="7.07"/><rect class="cls-50" x="105.91" y="16.68" width="0.25" height="7.07"/></g><g class="cls-53"><rect class="cls-4" x="41.2" y="47.74" width="0.17" height="6.36"/><rect class="cls-4" x="41.37" y="47.74" width="0.26" height="6.36"/><rect class="cls-5" x="41.63" y="47.74" width="0.26" height="6.36"/><rect class="cls-6" x="41.9" y="47.74" width="0.26" height="6.36"/><rect class="cls-7" x="42.16" y="47.74" width="0.26" height="6.36"/><rect class="cls-8" x="42.43" y="47.74" width="0.26" height="6.36"/><rect class="cls-9" x="42.69" y="47.74" width="0.26" height="6.36"/><rect class="cls-10" x="42.96" y="47.74" width="0.26" height="6.36"/><rect class="cls-11" x="43.22" y="47.74" width="0.26" height="6.36"/><rect class="cls-12" x="43.49" y="47.74" width="0.26" height="6.36"/><rect class="cls-13" x="43.75" y="47.74" width="0.26" height="6.36"/><rect class="cls-14" x="44.01" y="47.74" width="0.26" height="6.36"/><rect class="cls-15" x="44.28" y="47.74" width="0.26" height="6.36"/><rect class="cls-16" x="44.54" y="47.74" width="0.26" height="6.36"/><rect class="cls-17" x="44.81" y="47.74" width="0.26" height="6.36"/><rect class="cls-18" x="45.07" y="47.74" width="0.26" height="6.36"/><rect class="cls-19" x="45.34" y="47.74" width="0.26" height="6.36"/><rect class="cls-20" x="45.6" y="47.74" width="0.26" height="6.36"/><rect class="cls-21" x="45.87" y="47.74" width="0.26" height="6.36"/><rect class="cls-22" x="46.13" y="47.74" width="0.26" height="6.36"/><rect class="cls-23" x="46.39" y="47.74" width="0.26" height="6.36"/><rect class="cls-24" x="46.66" y="47.74" width="0.26" height="6.36"/><rect class="cls-25" x="46.92" y="47.74" width="0.26" height="6.36"/><rect class="cls-26" x="47.19" y="47.74" width="0.26" height="6.36"/><rect class="cls-27" x="47.45" y="47.74" width="0.26" height="6.36"/><rect class="cls-28" x="47.72" y="47.74" width="0.26" height="6.36"/><rect class="cls-29" x="47.98" y="47.74" width="0.26" height="6.36"/><rect class="cls-30" x="48.25" y="47.74" width="0.26" height="6.36"/><rect class="cls-31" x="48.51" y="47.74" width="0.26" height="6.36"/><rect class="cls-32" x="48.78" y="47.74" width="0.26" height="6.36"/><rect class="cls-33" x="49.04" y="47.74" width="0.26" height="6.36"/><rect class="cls-34" x="49.3" y="47.74" width="0.26" height="6.36"/><rect class="cls-35" x="49.57" y="47.74" width="0.26" height="6.36"/><rect class="cls-36" x="49.83" y="47.74" width="0.26" height="6.36"/><rect class="cls-37" x="50.1" y="47.74" width="0.26" height="6.36"/><rect class="cls-38" x="50.36" y="47.74" width="0.26" height="6.36"/><rect class="cls-39" x="50.63" y="47.74" width="0.26" height="6.36"/><rect class="cls-40" x="50.89" y="47.74" width="0.26" height="6.36"/><rect class="cls-41" x="51.16" y="47.74" width="0.26" height="6.36"/><rect class="cls-42" x="51.42" y="47.74" width="0.26" height="6.36"/><rect class="cls-43" x="51.68" y="47.74" width="0.26" height="6.36"/><rect class="cls-44" x="51.95" y="47.74" width="0.26" height="6.36"/><rect class="cls-45" x="52.21" y="47.74" width="0.26" height="6.36"/><rect class="cls-46" x="52.48" y="47.74" width="0.26" height="6.36"/><rect class="cls-47" x="52.74" y="47.74" width="0.26" height="6.36"/><rect class="cls-48" x="53.01" y="47.74" width="0.26" height="6.36"/><rect class="cls-49" x="53.27" y="47.74" width="0.26" height="6.36"/><rect class="cls-50" x="53.54" y="47.74" width="0.26" height="6.36"/><rect class="cls-50" x="53.8" y="47.74" width="0.11" height="6.36"/></g><g class="cls-54"><rect class="cls-4" x="90.57" y="11.65" width="0.08" height="2.57"/><rect class="cls-4" x="90.65" y="11.65" width="0.13" height="2.57"/><rect class="cls-5" x="90.78" y="11.65" width="0.13" height="2.57"/><rect class="cls-6" x="90.91" y="11.65" width="0.13" height="2.57"/><rect class="cls-7" x="91.04" y="11.65" width="0.13" height="2.57"/><rect class="cls-8" x="91.17" y="11.65" width="0.13" height="2.57"/><rect class="cls-9" x="91.3" y="11.65" width="0.13" height="2.57"/><rect class="cls-10" x="91.43" y="11.65" width="0.13" height="2.57"/><rect class="cls-11" x="91.57" y="11.65" width="0.13" height="2.57"/><rect class="cls-12" x="91.7" y="11.65" width="0.13" height="2.57"/><rect class="cls-13" x="91.83" y="11.65" width="0.13" height="2.57"/><rect class="cls-14" x="91.96" y="11.65" width="0.13" height="2.57"/><rect class="cls-15" x="92.09" y="11.65" width="0.13" height="2.57"/><rect class="cls-16" x="92.22" y="11.65" width="0.13" height="2.57"/><rect class="cls-17" x="92.35" y="11.65" width="0.13" height="2.57"/><rect class="cls-18" x="92.48" y="11.65" width="0.13" height="2.57"/><rect class="cls-19" x="92.61" y="11.65" width="0.13" height="2.57"/><rect class="cls-20" x="92.75" y="11.65" width="0.13" height="2.57"/><rect class="cls-21" x="92.88" y="11.65" width="0.13" height="2.57"/><rect class="cls-22" x="93.01" y="11.65" width="0.13" height="2.57"/><rect class="cls-23" x="93.14" y="11.65" width="0.13" height="2.57"/><rect class="cls-24" x="93.27" y="11.65" width="0.13" height="2.57"/><rect class="cls-25" x="93.4" y="11.65" width="0.13" height="2.57"/><rect class="cls-26" x="93.53" y="11.65" width="0.13" height="2.57"/><rect class="cls-27" x="93.66" y="11.65" width="0.13" height="2.57"/><rect class="cls-28" x="93.79" y="11.65" width="0.13" height="2.57"/><rect class="cls-29" x="93.93" y="11.65" width="0.13" height="2.57"/><rect class="cls-30" x="94.06" y="11.65" width="0.13" height="2.57"/><rect class="cls-31" x="94.19" y="11.65" width="0.13" height="2.57"/><rect class="cls-32" x="94.32" y="11.65" width="0.13" height="2.57"/><rect class="cls-33" x="94.45" y="11.65" width="0.13" height="2.57"/><rect class="cls-34" x="94.58" y="11.65" width="0.13" height="2.57"/><rect class="cls-35" x="94.71" y="11.65" width="0.13" height="2.57"/><rect class="cls-36" x="94.84" y="11.65" width="0.13" height="2.57"/><rect class="cls-37" x="94.97" y="11.65" width="0.13" height="2.57"/><rect class="cls-38" x="95.11" y="11.65" width="0.13" height="2.57"/><rect class="cls-39" x="95.24" y="11.65" width="0.13" height="2.57"/><rect class="cls-40" x="95.37" y="11.65" width="0.13" height="2.57"/><rect class="cls-41" x="95.5" y="11.65" width="0.13" height="2.57"/><rect class="cls-42" x="95.63" y="11.65" width="0.13" height="2.57"/><rect class="cls-43" x="95.76" y="11.65" width="0.13" height="2.57"/><rect class="cls-44" x="95.89" y="11.65" width="0.13" height="2.57"/><rect class="cls-45" x="96.02" y="11.65" width="0.13" height="2.57"/><rect class="cls-46" x="96.15" y="11.65" width="0.13" height="2.57"/><rect class="cls-47" x="96.29" y="11.65" width="0.13" height="2.57"/><rect class="cls-48" x="96.42" y="11.65" width="0.13" height="2.57"/><rect class="cls-49" x="96.55" y="11.65" width="0.13" height="2.57"/><rect class="cls-50" x="96.68" y="11.65" width="0.13" height="2.57"/><rect class="cls-50" x="96.81" y="11.65" width="0.03" height="2.57"/></g><g class="cls-55"><rect class="cls-4" x="110.12" y="29.31" width="0.13" height="3.87"/><rect class="cls-4" x="110.25" y="29.31" width="0.03" height="3.87"/><rect class="cls-5" x="110.29" y="29.31" width="0.03" height="3.87"/><rect class="cls-6" x="110.32" y="29.31" width="0.03" height="3.87"/><rect class="cls-7" x="110.35" y="29.31" width="0.03" height="3.87"/><rect class="cls-8" x="110.38" y="29.31" width="0.03" height="3.87"/><rect class="cls-9" x="110.42" y="29.31" width="0.03" height="3.87"/><rect class="cls-10" x="110.45" y="29.31" width="0.03" height="3.87"/><rect class="cls-11" x="110.48" y="29.31" width="0.03" height="3.87"/><rect class="cls-12" x="110.51" y="29.31" width="0.03" height="3.87"/><rect class="cls-13" x="110.54" y="29.31" width="0.03" height="3.87"/><rect class="cls-14" x="110.58" y="29.31" width="0.03" height="3.87"/><rect class="cls-15" x="110.61" y="29.31" width="0.03" height="3.87"/><rect class="cls-16" x="110.64" y="29.31" width="0.03" height="3.87"/><rect class="cls-17" x="110.67" y="29.31" width="0.03" height="3.87"/><rect class="cls-18" x="110.71" y="29.31" width="0.03" height="3.87"/><rect class="cls-19" x="110.74" y="29.31" width="0.03" height="3.87"/><rect class="cls-20" x="110.77" y="29.31" width="0.03" height="3.87"/><rect class="cls-21" x="110.8" y="29.31" width="0.03" height="3.87"/><rect class="cls-22" x="110.84" y="29.31" width="0.03" height="3.87"/><rect class="cls-23" x="110.87" y="29.31" width="0.03" height="3.87"/><rect class="cls-24" x="110.9" y="29.31" width="0.03" height="3.87"/><rect class="cls-25" x="110.93" y="29.31" width="0.03" height="3.87"/><rect class="cls-26" x="110.97" y="29.31" width="0.03" height="3.87"/><rect class="cls-27" x="111" y="29.31" width="0.03" height="3.87"/><rect class="cls-28" x="111.03" y="29.31" width="0.03" height="3.87"/><rect class="cls-29" x="111.06" y="29.31" width="0.03" height="3.87"/><rect class="cls-30" x="111.09" y="29.31" width="0.03" height="3.87"/><rect class="cls-31" x="111.13" y="29.31" width="0.03" height="3.87"/><rect class="cls-32" x="111.16" y="29.31" width="0.03" height="3.87"/><rect class="cls-33" x="111.19" y="29.31" width="0.03" height="3.87"/><rect class="cls-34" x="111.22" y="29.31" width="0.03" height="3.87"/><rect class="cls-35" x="111.26" y="29.31" width="0.03" height="3.87"/><rect class="cls-36" x="111.29" y="29.31" width="0.03" height="3.87"/><rect class="cls-37" x="111.32" y="29.31" width="0.03" height="3.87"/><rect class="cls-38" x="111.35" y="29.31" width="0.03" height="3.87"/><rect class="cls-39" x="111.39" y="29.31" width="0.03" height="3.87"/><rect class="cls-40" x="111.42" y="29.31" width="0.03" height="3.87"/><rect class="cls-41" x="111.45" y="29.31" width="0.03" height="3.87"/><rect class="cls-42" x="111.48" y="29.31" width="0.03" height="3.87"/><rect class="cls-43" x="111.51" y="29.31" width="0.03" height="3.87"/><rect class="cls-44" x="111.55" y="29.31" width="0.03" height="3.87"/><rect class="cls-45" x="111.58" y="29.31" width="0.03" height="3.87"/><rect class="cls-46" x="111.61" y="29.31" width="0.03" height="3.87"/><rect class="cls-47" x="111.64" y="29.31" width="0.03" height="3.87"/><rect class="cls-48" x="111.68" y="29.31" width="0.03" height="3.87"/><rect class="cls-49" x="111.71" y="29.31" width="0.03" height="3.87"/><rect class="cls-50" x="111.74" y="29.31" width="0.03" height="3.87"/><path class="cls-50" d="M219.51,2764.14v0Z" transform="translate(-107.74 -2730.97)"/></g><g class="cls-56"><path class="cls-1" d="M177.73,2839.2c-1.65,0-3.28-.08-4.9-.22.18.22.25.22.61.25a48.7,48.7,0,0,0,7.35,0,52.91,52.91,0,0,0,10.7-1.68,58,58,0,0,0,11.88-4.64,56.52,56.52,0,0,0,10.71-7.54,66.55,66.55,0,0,0,8.13-9.22,1.89,1.89,0,0,0,.4-.9A54,54,0,0,1,177.73,2839.2Z" transform="translate(-107.74 -2730.97)"/><path class="cls-1" d="M200.09,2735.94l.21,0a53.15,53.15,0,0,0-16.63-4.67,58.39,58.39,0,0,0-17.28.88c-6.11,1.21-14.59,4.8-16,6.36h.07a54.12,54.12,0,0,1,49.64-2.55Z" transform="translate(-107.74 -2730.97)"/><path class="cls-1" d="M123.68,2785.15a54,54,0,0,1,2.58-16.55c-.4.14-.39.71-.56,1.08a2.6,2.6,0,0,0-.13.46,66,66,0,0,0-1.85,10,53,53,0,0,0,.12,11.38,53.93,53.93,0,0,0,6.33,19.71,55.2,55.2,0,0,0,16.08,18.09,54.51,54.51,0,0,0,8.86,5.1,56.33,56.33,0,0,0,5.24,2.07c.14,0,.3.16.43,0A54.07,54.07,0,0,1,123.68,2785.15Z" transform="translate(-107.74 -2730.97)"/><path class="cls-1" d="M229.56,2769.5c.17-.27-.22-.88-.36-1.34,0-.09-.06-.17-.09-.26a3.64,3.64,0,0,0-.64-1.39q.56,1.51,1,3.07A.35.35,0,0,0,229.56,2769.5Z" transform="translate(-107.74 -2730.97)"/><path class="cls-1" d="M214.25,2745.06a53.39,53.39,0,0,0-6.66-5.2c-1-.65-2-1.24-3.08-1.81a1.63,1.63,0,0,0-.6-.19,54.21,54.21,0,0,1,10.91,8A2.08,2.08,0,0,0,214.25,2745.06Z" transform="translate(-107.74 -2730.97)"/><path class="cls-57" d="M153,2738.38a1.17,1.17,0,0,1-.87-.09c-.15-.06-.3-.13-.33-.32s.15-.32.31-.4a6.73,6.73,0,0,1,2.11-.59,1,1,0,0,1,.81.31c1.12.93,1.19.92,2.33.08.13-.1.25-.2.39-.28a2.74,2.74,0,0,1,1.65-.38c.21,0,.43.05.45.32s-.2.34-.39.4-.36.08-.53.13-.28.11-.2.29c.36.72-.21.88-.66,1.08-.75.34-.84.67-.25,1.28.27.28.32.47,0,.73-.14.12-.4.25-.23.49a.49.49,0,0,0,.56.18,3.68,3.68,0,0,1,2.28-.11c-.23-.44-.26-.76.13-1.09s.25-.57,0-.83-.56-.33-.41-.7.51-.23.79-.26.43.08.5-.12-.2-.32-.34-.46a.81.81,0,0,0-.17-.11c-.2-.11-.42-.23-.36-.52s.31-.32.55-.3c.69.06,1.32-.44,2-.19.07,0,.23-.07.28-.15.32-.61.92-.56,1.45-.58s1.09.1,1.2.61c.18.8,1,.57,1.29,1.2.11-.31,0-.4-.06-.45-.54-.28-.47-.55-.06-.92a4.5,4.5,0,0,1,3.2-.9c.34,0,.68.16,1,0a6.78,6.78,0,0,1,3-.39c2.61.09,5.21-.26,7.82,0,.39,0,.95-.06.86.66,0,.2.19.15.31.15l1-.07a11.51,11.51,0,0,1,2.94-.18,6.2,6.2,0,0,0,2.25-.05,5.88,5.88,0,0,1,1.57,0,15.4,15.4,0,0,0,3,0,9.67,9.67,0,0,1,2.8,0,11.11,11.11,0,0,0,3.18.09,54.12,54.12,0,0,0-49.64,2.55c1.15,0,2.26.32,3.46.39C153.67,2738.43,153.43,2738.22,153,2738.38Z" transform="translate(-107.74 -2730.97)"/><path class="cls-57" d="M160.73,2836.09a6.08,6.08,0,0,1-.41-2.49,57.87,57.87,0,0,0-.49-8.6,4.5,4.5,0,0,0-2.47-3.61,8.69,8.69,0,0,1-1.21-.65c-1-.73-2-1.47-2.31-2.77a35.82,35.82,0,0,0-1.68-4.77,3.29,3.29,0,0,0-.78-1.29,6.25,6.25,0,0,1-1.46-2.6,1.64,1.64,0,0,1,.44-1.92c.25-.23.32-.4.14-.7-.87-1.45-.06-2.76.59-3.9a15.13,15.13,0,0,1,1.64-2.52,1,1,0,0,0,.16-.51,10.31,10.31,0,0,0-.68-4.67c-.13-.39-.35-.36-.6-.09a1,1,0,0,0-.18.64c-.08.6-.58.85-1,.46a9.22,9.22,0,0,0-1.56-.89,5.83,5.83,0,0,1-2-2,9.91,9.91,0,0,1-1-2.58c-.09-.37-.31-.51-.7-.61-1.21-.33-2.51-.51-3.15-1.89-.39-.82-.92-1-1.76-.68a2.2,2.2,0,0,1-1.83-.29c-1.11-.6-2.13-1.34-3.2-2a5.84,5.84,0,0,1-1.93-1.91.89.89,0,0,1,0-1,2.28,2.28,0,0,0,0-2.35,6.11,6.11,0,0,0-1.14-2,.82.82,0,0,1-.25-.55c.06-1-.78-1.66-1.16-2.52,0,.16,0,.35,0,.47.7,1.06.26,2.4.86,3.48a1.05,1.05,0,0,1,0,.67.64.64,0,0,1-1.07.34c-.4-.52-1.07-1.05-1-1.67a3.51,3.51,0,0,0-1.18-2.65.53.53,0,0,1,.17-.91c.44-.23.35-.53.09-.84a2.79,2.79,0,0,1-.62-2c0-.55,0-1.1,0-1.65s-1-1.64-1.61-1.54l-.08,0a54.1,54.1,0,0,0,34.52,67.88h0C160.89,2836.35,160.79,2836.21,160.73,2836.09Z" transform="translate(-107.74 -2730.97)"/><path class="cls-57" d="M164.12,2741c.1,0,.24.13.31.24.25.38.52.28.91,0-.36-.23-.8-.21-.91-.65a1.1,1.1,0,0,1,.31-1,2.62,2.62,0,0,0-.51.14c-.27.15-.79-.06-.76.48S163.44,2741.09,164.12,2741Z" transform="translate(-107.74 -2730.97)"/><path class="cls-57" d="M227.93,2766a1.39,1.39,0,0,1-.61-1,2.05,2.05,0,0,0-.61-1.12,3.07,3.07,0,0,1-1.13-2.12c0-.52-.41-.79-.85-1a6.6,6.6,0,0,1-2.24-1.44,5.72,5.72,0,0,0-1.12-.73c0,.21,0,.33.07.37a5.79,5.79,0,0,1,1.17,1.51,1.07,1.07,0,0,0,.56.37,10.71,10.71,0,0,1,2,1.45c.26.18.32.73.05.74-.71,0-.37.5-.49.78a2,2,0,0,1-.88,1.18c-.17.08-.32.16-.37.37-.15.71-.63.71-1.15.48a7.85,7.85,0,0,1-1-.59c-.25-.16-.45-.36-.31-.68a.6.6,0,0,1,.74-.34,2,2,0,0,0,1,0c.6-.17.7-.45.31-.94a3.28,3.28,0,0,0-1.12-.89,6.49,6.49,0,0,1-2.33-2.08c-.66-.91-1-1-1.93-.4-.31.19-.61.6-1,.49-1.09-.36-1.57.06-1.83,1.09-.1.41-.68.51-1,.77-.59.44-1.43.76-1.07,1.8.08.24-.1.49-.24.69a3,3,0,0,1-2.07,1.55,4.55,4.55,0,0,0-.84.27v.19a3.3,3.3,0,0,0,1.54.11,5.43,5.43,0,0,0,1.72-.78,2,2,0,0,1,1-.49c.86-.12,1.73-.18,2.58-.36a21,21,0,0,0,2.29-.24,1.13,1.13,0,0,1,1.45,1.1,3,3,0,0,0,.15.73,1.13,1.13,0,0,1-.24,1.33c-.09.09-.26.17-.08.32.43.35.75.84,1.46.76a2.25,2.25,0,0,1,2,.65,3.2,3.2,0,0,0,1.71,1,5.1,5.1,0,0,1,.8.39c.15.08.28.28.48.15s.14-.32.14-.5a1.45,1.45,0,0,1,1.63-1.62c.42,0,.94.43,1.22.17q-.47-1.55-1-3.07A2.18,2.18,0,0,0,227.93,2766Zm-8.62-2.48a.57.57,0,0,1-.62.58.64.64,0,0,1-.66-.57,10.45,10.45,0,0,1,0-2.79.53.53,0,0,1,.57-.5.49.49,0,0,1,.54.5,8.88,8.88,0,0,0,.31,2.07C219.38,2763.11,219.33,2763.33,219.31,2763.56Z" transform="translate(-107.74 -2730.97)"/><path class="cls-57" d="M156.32,2748.6a31,31,0,0,0,3.59,1.54c.89.23.89.25.57,1.08a1.37,1.37,0,0,0-.09.74c.08.43,0,1,.64,1.07.43.06,1-.6,1-1.13a1.33,1.33,0,0,0-.07-.4c-.19-.72-.1-.87.63-1a3.2,3.2,0,0,0,1.68-.73c.43-.43.77-.86.28-1.48a.57.57,0,0,1,.14-.9c.86-.36,1.12-1.17,1.53-1.86.23-.39.48-.74,1-.67a1.13,1.13,0,0,1,1.1-1.71c1.24.14,2.09-.69,3.13-1,.13,0,.29-.11.26-.27s-.23-.2-.39-.17c-.31.06-.6.07-.77-.26-.27-.52-.64-.5-1.09-.25a1.09,1.09,0,0,1-.58.19,1.11,1.11,0,0,0-1.15.72c-.32.95-1.06,1-1.8,1.07l-1.43.2.9.81a.62.62,0,0,1,.21.79.51.51,0,0,1-.74.12,1.93,1.93,0,0,0-1.94.2c-.31.15-.68.36-1,.12a2,2,0,0,0-2.51-.14c-1.07.53-2.15,1.1-3.26,1.57-.28.12-.77.42-.67.59C155.85,2747.79,155.94,2748.45,156.32,2748.6Z" transform="translate(-107.74 -2730.97)"/><path class="cls-57" d="M222.45,2814.37a2.13,2.13,0,0,1-.19-1.41,2.81,2.81,0,0,0-.27-1.73,7.08,7.08,0,0,1-.42-1.16A7.26,7.26,0,0,0,220,2807c-.85-1-1.52-2.1-.86-3.57a11.07,11.07,0,0,0,.4-2.64c.19-1.1-.43-1.6-1.56-1.47a1.38,1.38,0,0,1-1.74-1.14.94.94,0,0,0-.9-.76,2.74,2.74,0,0,0-1.75.49,4,4,0,0,1-3.09.61,3.48,3.48,0,0,0-2.65.32,1.9,1.9,0,0,1-2.55-.34,27.49,27.49,0,0,0-2.68-2.54,1.34,1.34,0,0,1-.51-.8,11.3,11.3,0,0,0-2.25-4.12,1.32,1.32,0,0,1-.3-1.21.86.86,0,0,0-.31-1c-.45-.36-.42-.71,0-1.1A2.8,2.8,0,0,0,200,2786a8.6,8.6,0,0,0-.35-4.48,1.14,1.14,0,0,1,.12-1,39.51,39.51,0,0,1,1.74-3.87,6.08,6.08,0,0,0,.93-1.66,1.5,1.5,0,0,1,1.23-1.22c.89-.21,1.72-1.26,1.61-1.9a3.18,3.18,0,0,1,1.16-2.79,11.18,11.18,0,0,0,1.58-1.82c.19-.28.34-.55.13-.88a.76.76,0,0,0-.85-.29c-.14,0-.27.06-.41.07-.75.05-1-.18-.86-.92a1.13,1.13,0,0,0-.13-.66,1.32,1.32,0,0,1,0-1.13,5,5,0,0,0,.39-2.62,1,1,0,0,1,1-1.23c1.1,0,2.2,0,3.29.13a.85.85,0,0,0,1.05-.7,1.53,1.53,0,0,0-.38-1.7,3.2,3.2,0,0,0-1.3-.87.69.69,0,0,1-.54-.71c0-.38.34-.44.61-.55s.68,0,.79-.11c.46-.59,1.09-.48,1.7-.62.89-.2,1.41-1.18,2.35-1.4a.41.41,0,0,0,.24-.23c.35-1,1.19-1.19,2.07-1.32.51-.07.59-.34.4-.77a2.52,2.52,0,0,1-.31-1.46c0-.27-.15-.27-.34-.33-1.54-.44-1.88-.82-1.9-2.41a2.09,2.09,0,0,0-.15-.75,54.21,54.21,0,0,0-10.91-8,1.12,1.12,0,0,0-1.23.67,1.59,1.59,0,0,1-1.23,1.06c-.16,0-.43,0-.36.31.2.84-.44,1.1-1,1.36a12.84,12.84,0,0,1-5.12,1.15,1.79,1.79,0,0,0-.95.29,5.07,5.07,0,0,1-2.21.82,5.59,5.59,0,0,0-4.06,2.55,13.48,13.48,0,0,1-1.13,1.28.66.66,0,0,1-.77.13c-.53-.32-1.17-.39-1.69-.64a4.19,4.19,0,0,1-2-3.18,1.84,1.84,0,0,1,.91-2c-.32-.27-.77-.46-.3-.93s.38-1,.5-1.59c.06-.26-.23-.42-.51-.45-1.08-.11-2.15-.51-3.24,0a.58.58,0,0,1-.85-.44c-.14-.68-.43-1-1.14-1a12.71,12.71,0,0,0-4.77.79c-.17.07-.47,0-.47.29a.52.52,0,0,0,.32.49,9.94,9.94,0,0,0,1.85.72,2.55,2.55,0,0,1,1.89,1,2,2,0,0,0,1.66,1.13.6.6,0,0,1,.63.54c0,.38-.28.49-.57.59a2.75,2.75,0,0,0-1.25.53c-.57.64-1.12.8-1.77.13-.06-.07-.2-.06-.42-.11.51.69.5,1.22-.19,1.63a.18.18,0,0,0-.08.11c-.13.8-.76.76-1.27.63a10.45,10.45,0,0,1-3.21-.85,1.56,1.56,0,0,0-1.83,0,1.1,1.1,0,0,0,.86.15,1.1,1.1,0,0,1,1.25.48.82.82,0,0,0,.38.28c.86.4.85.4.51,1.25-.1.25-.22.53,0,.77s.45,0,.68-.11c.55-.19.85-.67,1.23-1.05s.64-.4.92,0a4.61,4.61,0,0,1,1,2.32,1.32,1.32,0,0,0,.8,1.27c1.52.8,1.82,1.64,1.23,3.26a1.94,1.94,0,0,1-.11.25c-.24.44-.18.74.37.85a.73.73,0,0,1,.67.6,3.52,3.52,0,0,1-.15,1.7.61.61,0,0,1-.63.45c-.56-.07-1.27,0-1.62-.37s-.8-.29-1.22-.3a6.82,6.82,0,0,1-.76,0,.54.54,0,0,1-.39-.9,5.62,5.62,0,0,1,.57-.49c.37-.35.89-.55,1.11-1.25-1.69.76-3.48-.14-5.19.72.47.11.85.14.95.55s-.21.51-.43.71c-.42.38-.36.63.19.82.28.1.65.06.85.23s.48.17.73,0,.6,0,.78.25.16.55-.2.79c-1.3.9-2.91,1.12-4.21,2a.37.37,0,0,1-.62-.2c-.13-.95-.62-.46-1-.31s-.86.31-1.28.49-.91.47-.78.91c.19.66-.16.81-.6.9a3.43,3.43,0,0,0-2.76,1.6c-.07.13-.26.18-.38.28-.64.59-.83,1.51-1.52,2.06,0,0,0,.18,0,.26a1.82,1.82,0,0,1-.75,1.68c-1,.91-2.21,1.54-3.29,2.36a3,3,0,0,0-1.56,2.69c0,.55.14,1.09.22,1.63a5,5,0,0,1-.19,2.57.87.87,0,0,1-.84.59c-.39,0-.5-.24-.63-.51a4.42,4.42,0,0,1-.47-3.31c.1-.32,0-.71-.35-.69a6.51,6.51,0,0,1-2.11-.49,2.64,2.64,0,0,0-1.29.12c-.18,0-.36.1-.32.36.09.61-.28.62-.73.55a10.83,10.83,0,0,1-1.87-.46.76.76,0,0,0-.72,0,18.45,18.45,0,0,0-2.33,1.58,2,2,0,0,0-.73,1c-.29,1.32-.83,2.57-1,3.91a6.16,6.16,0,0,0,0,2.59c.45,1.67.94,1.91,2.56,1.38a1.82,1.82,0,0,0,1.5-1.8,1,1,0,0,1,1.07-1c.43,0,.87,0,1.31,0,1-.07,1.34.31,1,1.26-.51,1.3-1.05,2.58-1.6,3.87-.21.49-.27.75.44.62a6.9,6.9,0,0,1,1.65,0,1.45,1.45,0,0,1,1.48,1.6,6.42,6.42,0,0,1-.21,1.22,7.19,7.19,0,0,0-.22,3c.27,1.28,1.06,1.73,2.25,1.21a1.4,1.4,0,0,1,1.76.25c.3.33.55.26.76-.09a2.54,2.54,0,0,0,.38-.73,1.83,1.83,0,0,1,1.36-1.4,2.92,2.92,0,0,0,1.56-1.05.69.69,0,0,1,1-.15c.35.28.24.6,0,.91,0,.06-.12.15,0,.21.23-.12.23-.37.33-.57.21-.45.48-.52.92-.22.82.56,1.49,1.43,2.65,1.3a.36.36,0,0,1,.25.1c.36.35.62.3,1-.1.48-.57,1.13-.15,1.69-.12s.25.37.14.63.08.21.17.26a2.23,2.23,0,0,1,.77.95,1.51,1.51,0,0,0,.8.72,2,2,0,0,1,1.21,1.31,1.75,1.75,0,0,0,2.08,1.23,2.53,2.53,0,0,1,1.87.55,4.1,4.1,0,0,1,1.68,2.52,2.7,2.7,0,0,0,.69,1.54.64.64,0,0,1,0,.88c-.34.48-.26.68.35.64s1-.05,1.17.65a.21.21,0,0,0,.14.14c.73.1,1.14.75,1.79,1a1.26,1.26,0,0,1,.72.69,2.47,2.47,0,0,0,2.16,1,1.54,1.54,0,0,1,1.34.37c.41.33.82.67,1.22,1a1.47,1.47,0,0,0,1.18.45.82.82,0,0,1,.83.49,4.62,4.62,0,0,1,.18,4.23c-.58,1.31-1.64,2.37-2,3.81a.49.49,0,0,1-.14.23,1.74,1.74,0,0,0-.4,1.84,13.05,13.05,0,0,1-.22,4.22,3.42,3.42,0,0,1-.92,2.36c-.11.1-.12.34-.15.52a1.57,1.57,0,0,1-1.74,1.47c-1.18,0-1.72.93-2.41,1.65-.45.47-.25,1-.12,1.49a2.54,2.54,0,0,1-.75,2.81,1.11,1.11,0,0,0-.34.73,6.93,6.93,0,0,1-.9,2.76c-.68,1.14-1.42,1.95-2.89,1.72l.13.16c1.61.14,3.25.22,4.9.22a54,54,0,0,0,44.88-23.93A1.54,1.54,0,0,0,222.45,2814.37Zm-16.23-62.72c-.2-.58.31-.73.72-1a2.84,2.84,0,0,1,1.68-.66c.26,0,.28-.26.27-.47a2.64,2.64,0,0,1,.22-1.14c.14-.34.26-.74.71-.73s.92,0,1.24.51.65.82.3,1.39a.37.37,0,0,0,.06.32,6.42,6.42,0,0,0,1.61,1.84c.81.47.51,1.09.44,1.68s-.6.62-1,.7a3,3,0,0,1-.48,0,12.36,12.36,0,0,0-2.36.41c-.29.05-.61.19-.81-.14s.1-.48.31-.65.24-.24.09-.4-.13-.43-.49-.36a8.62,8.62,0,0,0-1.25.34,2,2,0,0,1-.95.1.68.68,0,0,1-.58-.51C205.73,2752.42,206.41,2752.19,206.22,2751.64Zm-44.83,32.48a.76.76,0,0,1-.88.41,1.78,1.78,0,0,0-1.52.37c-.1.07-.31.16-.38.11-.55-.43-1.21-.31-1.83-.41a.52.52,0,0,1-.43-.55c0-.32.24-.4.51-.44s.54.08.44-.32-.21-.58-.61-.49a6.82,6.82,0,0,1-2,.16c-.34,0-.69,0-.65-.61,0-.42-.4-.87-.82-1.16a8.2,8.2,0,0,0-2.25-.79c-.32-.1-.55.17-.81.3s-.74.45-1,0,0-.74.31-1a3,3,0,0,1,3.46-.36,38.4,38.4,0,0,1,4.37,2.66,1.46,1.46,0,0,0,1.17.24,2.94,2.94,0,0,1,2.72,1.14C161.35,2783.62,161.57,2783.81,161.39,2784.13Zm36.93-40.43a1.54,1.54,0,0,1,1.55-.87,4.77,4.77,0,0,0,2.8-.09,1.36,1.36,0,0,1,1.06.09c.37.23.78.51.75,1s-.48.51-.81.65a7.27,7.27,0,0,1-2.73.72c-.56-.06-1.16-.1-1.74-.19A1.5,1.5,0,0,1,198.31,2743.69Z" transform="translate(-107.74 -2730.97)"/><path class="cls-58" d="M229.49,2769.57c-.28.27-.8-.16-1.22-.17a1.45,1.45,0,0,0-1.63,1.62c0,.18,0,.39-.14.5s-.33-.07-.48-.15a5.1,5.1,0,0,0-.8-.39,3.2,3.2,0,0,1-1.71-1,2.25,2.25,0,0,0-2-.65c-.7.08-1-.41-1.46-.76-.18-.15,0-.23.08-.32a1.13,1.13,0,0,0,.24-1.33,3,3,0,0,1-.15-.73,1.13,1.13,0,0,0-1.45-1.1,21,21,0,0,1-2.29.24c-.85.18-1.72.24-2.58.36a2,2,0,0,0-1,.49,5.43,5.43,0,0,1-1.72.78,3.3,3.3,0,0,1-1.54-.11v-.19a4.55,4.55,0,0,1,.84-.27,3,3,0,0,0,2.07-1.55c.15-.2.33-.45.24-.69-.36-1,.48-1.35,1.07-1.8.34-.26.92-.35,1-.77.26-1,.74-1.45,1.83-1.09.34.11.64-.3,1-.49,1-.59,1.26-.51,1.93.4a6.49,6.49,0,0,0,2.33,2.08,3.28,3.28,0,0,1,1.12.89c.39.49.29.76-.31.94a2,2,0,0,1-1,0,.6.6,0,0,0-.74.34c-.14.32.06.52.31.68a7.85,7.85,0,0,0,1,.59c.52.22,1,.23,1.15-.48,0-.21.2-.29.37-.37a2,2,0,0,0,.88-1.18c.12-.28-.22-.77.49-.78.27,0,.2-.55-.05-.74a10.71,10.71,0,0,0-2-1.45,1.07,1.07,0,0,1-.56-.37,5.79,5.79,0,0,0-1.17-1.51s0-.16-.07-.37a5.72,5.72,0,0,1,1.12.73,6.6,6.6,0,0,0,2.24,1.44c.44.2.85.47.85,1a3.07,3.07,0,0,0,1.13,2.12,2.05,2.05,0,0,1,.61,1.12,1.39,1.39,0,0,0,.61,1,2.18,2.18,0,0,1,.54.47,54.1,54.1,0,0,0-13.65-20.66,2.09,2.09,0,0,1,.15.75c0,1.59.36,2,1.9,2.41.18.05.38.06.34.33a2.52,2.52,0,0,0,.31,1.46c.19.43.12.7-.4.77-.89.12-1.72.33-2.07,1.32a.41.41,0,0,1-.24.23c-.94.22-1.46,1.2-2.35,1.4-.61.14-1.24,0-1.7.62-.11.14-.53,0-.79.11s-.62.17-.61.55a.69.69,0,0,0,.54.71,3.2,3.2,0,0,1,1.3.87,1.53,1.53,0,0,1,.38,1.7.85.85,0,0,1-1.05.7c-1.09-.11-2.2-.12-3.29-.13a1,1,0,0,0-1,1.23,5,5,0,0,1-.39,2.62,1.32,1.32,0,0,0,0,1.13,1.13,1.13,0,0,1,.13.66c-.1.74.11,1,.86.92.14,0,.27-.05.41-.07a.76.76,0,0,1,.85.29c.21.33.06.59-.13.88a11.18,11.18,0,0,1-1.58,1.82,3.18,3.18,0,0,0-1.16,2.79c.11.65-.72,1.7-1.61,1.9a1.5,1.5,0,0,0-1.23,1.22,6.08,6.08,0,0,1-.93,1.66,39.51,39.51,0,0,0-1.74,3.87,1.14,1.14,0,0,0-.12,1A8.6,8.6,0,0,1,200,2786a2.8,2.8,0,0,1-.71,1.68c-.38.39-.41.74,0,1.1a.86.86,0,0,1,.31,1,1.32,1.32,0,0,0,.3,1.21,11.3,11.3,0,0,1,2.25,4.12,1.34,1.34,0,0,0,.51.8,27.49,27.49,0,0,1,2.68,2.54,1.9,1.9,0,0,0,2.55.34,3.48,3.48,0,0,1,2.65-.32,4,4,0,0,0,3.09-.61,2.74,2.74,0,0,1,1.75-.49.94.94,0,0,1,.9.76,1.38,1.38,0,0,0,1.74,1.14c1.13-.12,1.75.38,1.56,1.47a11.07,11.07,0,0,1-.4,2.64c-.66,1.47,0,2.52.86,3.57a7.26,7.26,0,0,1,1.53,3.12,7.08,7.08,0,0,0,.42,1.16,2.81,2.81,0,0,1,.27,1.73,2.13,2.13,0,0,0,.19,1.41,1.54,1.54,0,0,1,.16.9,54.14,54.14,0,0,0,6.88-45.69Z" transform="translate(-107.74 -2730.97)"/><path class="cls-58" d="M175.59,2837.1a6.93,6.93,0,0,0,.9-2.76,1.11,1.11,0,0,1,.34-.73,2.54,2.54,0,0,0,.75-2.81c-.13-.5-.33-1,.12-1.49.69-.71,1.23-1.63,2.41-1.65a1.57,1.57,0,0,0,1.74-1.47c0-.18,0-.42.15-.52a3.42,3.42,0,0,0,.92-2.36,13.05,13.05,0,0,0,.22-4.22,1.74,1.74,0,0,1,.4-1.84.49.49,0,0,0,.14-.23c.36-1.43,1.42-2.5,2-3.81a4.62,4.62,0,0,0-.18-4.23.82.82,0,0,0-.83-.49,1.47,1.47,0,0,1-1.18-.45c-.4-.34-.81-.68-1.22-1a1.54,1.54,0,0,0-1.34-.37,2.47,2.47,0,0,1-2.16-1,1.26,1.26,0,0,0-.72-.69c-.65-.23-1.07-.89-1.79-1a.21.21,0,0,1-.14-.14c-.12-.7-.66-.68-1.17-.65s-.69-.16-.35-.64a.64.64,0,0,0,0-.88,2.7,2.7,0,0,1-.69-1.54,4.1,4.1,0,0,0-1.68-2.52,2.53,2.53,0,0,0-1.87-.55,1.75,1.75,0,0,1-2.08-1.23,2,2,0,0,0-1.21-1.31,1.51,1.51,0,0,1-.8-.72,2.23,2.23,0,0,0-.77-.95c-.09-.06-.23-.13-.17-.26s.28-.61-.14-.63-1.21-.45-1.69.12c-.33.4-.59.44-1,.1a.36.36,0,0,0-.25-.1c-1.16.13-1.84-.75-2.65-1.3-.44-.3-.71-.24-.92.22-.09.2-.1.45-.33.57-.15-.06-.07-.15,0-.21.23-.31.33-.63,0-.91a.69.69,0,0,0-1,.15,2.92,2.92,0,0,1-1.56,1.05,1.83,1.83,0,0,0-1.36,1.4,2.54,2.54,0,0,1-.38.73c-.21.35-.46.42-.76.09a1.4,1.4,0,0,0-1.76-.25c-1.19.52-2,.07-2.25-1.21a7.19,7.19,0,0,1,.22-3,6.42,6.42,0,0,0,.21-1.22,1.45,1.45,0,0,0-1.48-1.6,6.9,6.9,0,0,0-1.65,0c-.72.14-.65-.12-.44-.62.55-1.28,1.09-2.57,1.6-3.87.37-.94.05-1.32-1-1.26-.43,0-.87,0-1.31,0a1,1,0,0,0-1.07,1,1.82,1.82,0,0,1-1.5,1.8c-1.62.52-2.11.29-2.56-1.38a6.16,6.16,0,0,1,0-2.59c.21-1.34.76-2.59,1-3.91a2,2,0,0,1,.73-1,18.45,18.45,0,0,1,2.33-1.58.76.76,0,0,1,.72,0,10.83,10.83,0,0,0,1.87.46c.44.06.81.06.73-.55,0-.26.14-.31.32-.36a2.64,2.64,0,0,1,1.29-.12,6.51,6.51,0,0,0,2.11.49c.34,0,.45.37.35.69a4.42,4.42,0,0,0,.47,3.31c.13.28.24.54.63.51a.87.87,0,0,0,.84-.59,5,5,0,0,0,.19-2.57c-.08-.54-.18-1.08-.22-1.63a3,3,0,0,1,1.56-2.69c1.08-.82,2.29-1.44,3.29-2.36a1.82,1.82,0,0,0,.75-1.68c0-.09,0-.23,0-.26.69-.55.88-1.47,1.52-2.06.12-.11.32-.16.38-.28a3.43,3.43,0,0,1,2.76-1.6c.44-.09.79-.24.6-.9-.13-.44.37-.74.78-.91s.85-.34,1.28-.49.91-.64,1,.31a.37.37,0,0,0,.62.2c1.3-.89,2.91-1.11,4.21-2,.36-.25.4-.48.2-.79s-.43-.54-.78-.25-.42.31-.73,0-.57-.14-.85-.23c-.55-.19-.61-.44-.19-.82.22-.2.52-.35.43-.71s-.48-.45-.95-.55c1.71-.86,3.5,0,5.19-.72-.22.7-.75.9-1.11,1.25a5.62,5.62,0,0,0-.57.49.54.54,0,0,0,.39.9,6.82,6.82,0,0,0,.76,0c.42,0,.79-.1,1.22.3s1.06.3,1.62.37a.61.61,0,0,0,.63-.45,3.52,3.52,0,0,0,.15-1.7.73.73,0,0,0-.67-.6c-.54-.11-.6-.41-.37-.85a1.94,1.94,0,0,0,.11-.25c.59-1.62.3-2.46-1.23-3.26a1.32,1.32,0,0,1-.8-1.27,4.61,4.61,0,0,0-1-2.32c-.29-.41-.62-.32-.92,0s-.68.86-1.23,1.05c-.22.08-.41.34-.68.11s-.14-.52,0-.77c.33-.85.34-.85-.51-1.25a.82.82,0,0,1-.38-.28,1.1,1.1,0,0,0-1.25-.48,1.1,1.1,0,0,1-.86-.15,1.56,1.56,0,0,1,1.83,0,10.45,10.45,0,0,0,3.21.85c.52.13,1.14.17,1.27-.63a.18.18,0,0,1,.08-.11c.7-.41.7-.95.19-1.63.22.06.36,0,.42.11.65.67,1.2.5,1.77-.13a2.75,2.75,0,0,1,1.25-.53c.29-.1.6-.21.57-.59a.6.6,0,0,0-.63-.54,2,2,0,0,1-1.66-1.13,2.55,2.55,0,0,0-1.89-1,9.94,9.94,0,0,1-1.85-.72.52.52,0,0,1-.32-.49c0-.3.3-.22.47-.29a12.71,12.71,0,0,1,4.77-.79c.7,0,1,.27,1.14,1a.58.58,0,0,0,.85.44c1.09-.51,2.16-.11,3.24,0,.29,0,.57.19.51.45-.12.54-.06,1.15-.5,1.59s0,.66.3.93a1.84,1.84,0,0,0-.91,2,4.19,4.19,0,0,0,2,3.18c.52.26,1.15.32,1.69.64a.66.66,0,0,0,.77-.13,13.48,13.48,0,0,0,1.13-1.28,5.59,5.59,0,0,1,4.06-2.55,5.07,5.07,0,0,0,2.21-.82,1.79,1.79,0,0,1,.95-.29,12.84,12.84,0,0,0,5.12-1.15c.53-.26,1.18-.52,1-1.36-.06-.27.2-.26.36-.31a1.59,1.59,0,0,0,1.23-1.06,1.12,1.12,0,0,1,1.23-.67q-1.87-1-3.82-1.93a11.11,11.11,0,0,1-3.18-.09,9.67,9.67,0,0,0-2.8,0,15.4,15.4,0,0,1-3,0,5.88,5.88,0,0,0-1.57,0,6.2,6.2,0,0,1-2.25.05,11.51,11.51,0,0,0-2.94.18l-1,.07c-.12,0-.34.05-.31-.15.09-.73-.46-.62-.86-.66-2.61-.25-5.21.09-7.82,0a6.78,6.78,0,0,0-3,.39c-.33.15-.68,0-1,0a4.5,4.5,0,0,0-3.2.9c-.41.37-.48.64.06.92.1.05.18.15.06.45-.29-.63-1.11-.41-1.29-1.2-.12-.51-.72-.63-1.2-.61s-1.13,0-1.45.58c0,.08-.21.18-.28.15-.71-.25-1.34.25-2,.19-.23,0-.48,0-.55.3s.16.4.36.52a.81.81,0,0,1,.17.11c.14.14.42.21.34.46s-.32.1-.5.12-.65-.1-.79.26.2.5.41.7.33.58,0,.83-.36.65-.13,1.09a3.68,3.68,0,0,0-2.28.11.49.49,0,0,1-.56-.18c-.17-.24.08-.37.23-.49.3-.26.25-.45,0-.73-.59-.61-.49-.93.25-1.28.45-.21,1-.37.66-1.08-.09-.17.06-.25.2-.29s.36-.08.53-.13.41-.13.39-.4-.24-.31-.45-.32a2.74,2.74,0,0,0-1.65.38c-.14.08-.26.19-.39.28-1.14.85-1.22.85-2.33-.08a1,1,0,0,0-.81-.31,6.73,6.73,0,0,0-2.11.59c-.16.08-.34.17-.31.4s.18.25.33.32a1.17,1.17,0,0,0,.87.09c.44-.16.68,0,.92.49-1.2-.07-2.3-.39-3.46-.39a54.19,54.19,0,0,0-24.19,30.12l.08,0c.59-.1,1.58.92,1.61,1.54s0,1.1,0,1.65a2.79,2.79,0,0,0,.62,2c.26.31.35.61-.09.84a.53.53,0,0,0-.17.91,3.51,3.51,0,0,1,1.18,2.65c0,.61.62,1.14,1,1.67a.64.64,0,0,0,1.07-.34,1.05,1.05,0,0,0,0-.67c-.6-1.09-.16-2.43-.86-3.48-.08-.11,0-.31,0-.47.39.86,1.23,1.49,1.16,2.52a.82.82,0,0,0,.25.55,6.11,6.11,0,0,1,1.14,2,2.28,2.28,0,0,1,0,2.35.89.89,0,0,0,0,1,5.84,5.84,0,0,0,1.93,1.91c1.07.66,2.09,1.39,3.2,2a2.2,2.2,0,0,0,1.83.29c.84-.28,1.38-.15,1.76.68.65,1.38,1.94,1.57,3.15,1.89.4.11.61.24.7.61a9.91,9.91,0,0,0,1,2.58,5.83,5.83,0,0,0,2,2,9.22,9.22,0,0,1,1.56.89c.45.39.94.14,1-.46a1,1,0,0,1,.18-.64c.25-.27.47-.3.6.09a10.31,10.31,0,0,1,.68,4.67,1,1,0,0,1-.16.51,15.13,15.13,0,0,0-1.64,2.52c-.65,1.14-1.46,2.45-.59,3.9.18.3.11.47-.14.7a1.64,1.64,0,0,0-.44,1.92,6.25,6.25,0,0,0,1.46,2.6,3.29,3.29,0,0,1,.78,1.29,35.82,35.82,0,0,1,1.68,4.77c.26,1.29,1.31,2,2.31,2.77a8.69,8.69,0,0,0,1.21.65,4.5,4.5,0,0,1,2.47,3.61,57.87,57.87,0,0,1,.49,8.6,6.08,6.08,0,0,0,.41,2.49c.05.12.15.26.06.39h0a53.78,53.78,0,0,0,12,2.49l-.13-.16C174.17,2839.05,174.91,2838.24,175.59,2837.1Zm-11.35-97.39a2.62,2.62,0,0,1,.51-.14,1.1,1.1,0,0,0-.31,1c.1.44.55.43.91.65-.39.28-.65.37-.91,0-.07-.11-.22-.25-.31-.24-.68.08-.63-.42-.65-.82S164,2739.86,164.23,2739.71Zm-8,7.07c1.11-.47,2.18-1,3.26-1.57a2,2,0,0,1,2.51.14c.29.24.66,0,1-.12a1.93,1.93,0,0,1,1.94-.2.51.51,0,0,0,.74-.12.62.62,0,0,0-.21-.79l-.9-.81,1.43-.2c.74-.11,1.48-.12,1.8-1.07a1.11,1.11,0,0,1,1.15-.72,1.09,1.09,0,0,0,.58-.19c.45-.25.82-.27,1.09.25.17.33.46.32.77.26.16,0,.35,0,.39.17s-.14.23-.26.27c-1,.34-1.89,1.18-3.13,1a1.13,1.13,0,0,0-1.1,1.71c-.55-.07-.79.27-1,.67-.41.7-.67,1.5-1.53,1.86a.57.57,0,0,0-.14.9c.48.62.15,1.05-.28,1.48a3.2,3.2,0,0,1-1.68.73c-.73.17-.82.32-.63,1a1.33,1.33,0,0,1,.07.4c0,.53-.6,1.19-1,1.13-.6-.08-.56-.64-.64-1.07a1.37,1.37,0,0,1,.09-.74c.31-.83.31-.85-.57-1.08a31,31,0,0,1-3.59-1.54c-.39-.15-.48-.81-.72-1.22C155.5,2747.21,156,2746.91,156.27,2746.78Z" transform="translate(-107.74 -2730.97)"/><path class="cls-58" d="M205.88,2752.91a.68.68,0,0,0,.58.51,2,2,0,0,0,.95-.1,8.62,8.62,0,0,1,1.25-.34c.36-.07.35.22.49.36s.06.28-.09.4-.52.31-.31.65.53.19.81.14a12.36,12.36,0,0,1,2.36-.41,3,3,0,0,0,.48,0c.45-.07,1-.13,1-.7s.36-1.21-.44-1.68a6.42,6.42,0,0,1-1.61-1.84.37.37,0,0,1-.06-.32c.36-.58,0-.93-.3-1.39s-.78-.5-1.24-.51-.57.39-.71.73a2.64,2.64,0,0,0-.22,1.14c0,.21,0,.49-.27.47a2.84,2.84,0,0,0-1.68.66c-.41.24-.92.39-.72,1S205.73,2752.42,205.88,2752.91Z" transform="translate(-107.74 -2730.97)"/><path class="cls-58" d="M158.45,2782.27a1.46,1.46,0,0,1-1.17-.24,38.4,38.4,0,0,0-4.37-2.66,3,3,0,0,0-3.46.36c-.27.28-.59.62-.31,1s.7.16,1,0,.49-.41.81-.3a8.2,8.2,0,0,1,2.25.79c.42.29.84.74.82,1.16,0,.63.31.58.65.61a6.82,6.82,0,0,0,2-.16c.4-.08.54.2.61.49s-.24.3-.44.32-.5.11-.51.44a.52.52,0,0,0,.43.55c.62.1,1.28,0,1.83.41.06,0,.27,0,.38-.11a1.78,1.78,0,0,1,1.52-.37.76.76,0,0,0,.88-.41c.18-.31,0-.51-.22-.72A2.94,2.94,0,0,0,158.45,2782.27Z" transform="translate(-107.74 -2730.97)"/><path class="cls-58" d="M200.92,2745.19a7.27,7.27,0,0,0,2.73-.72c.33-.14.78-.22.81-.65s-.38-.76-.75-1a1.36,1.36,0,0,0-1.06-.09,4.77,4.77,0,0,1-2.8.09,1.54,1.54,0,0,0-1.55.87,1.5,1.5,0,0,0,.87,1.31C199.77,2745.09,200.36,2745.13,200.92,2745.19Z" transform="translate(-107.74 -2730.97)"/><path class="cls-58" d="M218.57,2760.29a.53.53,0,0,0-.57.5,10.45,10.45,0,0,0,0,2.79.64.64,0,0,0,.66.57.57.57,0,0,0,.62-.58c0-.23.08-.45.12-.7a8.88,8.88,0,0,1-.31-2.07A.49.49,0,0,0,218.57,2760.29Z" transform="translate(-107.74 -2730.97)"/></g><path class="cls-59" d="M245.65,2788.42c4.11-7.67,6.49-12.58,8.21-16.2-8,1.66-14.67,12.67-14.67,12.67l6,4.75A5.61,5.61,0,0,1,245.65,2788.42Z" transform="translate(-107.74 -2730.97)"/><path class="cls-60" d="M260.66,2804.91c-.88.48-1.74,1-2.64,1.4a43.16,43.16,0,0,1-7.54,2.67c-1.09.28-2.18.54-3.29.75,0-.14,0-.28,0-.42a50.26,50.26,0,0,1,.38-8.11c.17-1.3.44-2.57.73-3.84.18-.79.44-1.56.69-2.32l-.66-.52a14.73,14.73,0,0,0-3,3.65,21.5,21.5,0,0,0-2.54,6.58,26,26,0,0,0-.51,7.61,5.86,5.86,0,0,0,.14,1.07,2.5,2.5,0,0,0,1.92,1.78,3.46,3.46,0,0,0,1.12,0,25.05,25.05,0,0,0,6.69-1.85c3.88-1.65,7.67-4.36,9.63-8.18l-.64-.51Z" transform="translate(-107.74 -2730.97)"/><path class="cls-61" d="M297.42,2745.67h0a2.24,2.24,0,0,0-1.65-.47h0c-7.15,1-24.66,4.34-33,14.81-3.77,4.75-4.9,7.13-7.37,12.34-1.78,3.75-4.22,8.89-8.78,17.39a2.24,2.24,0,0,0,.58,2.81l16,12.7a2.24,2.24,0,0,0,2.87-.07c7.24-6.38,11.69-9.92,14.94-12.51,4.51-3.59,6.57-5.23,10.34-10,8.32-10.48,7.62-28.3,6.93-35.47A2.24,2.24,0,0,0,297.42,2745.67Zm-13.5,29a7.44,7.44,0,1,1-1.2-10.46A7.44,7.44,0,0,1,283.93,2774.66Z" transform="translate(-107.74 -2730.97)"/><path class="cls-62" d="M297.42,2745.67h0c-.47-.37-42,53.43-42,53.43l7.75,6.15a2.24,2.24,0,0,0,2.87-.07c7.24-6.38,11.69-9.92,14.94-12.51,4.51-3.59,6.57-5.23,10.34-10,8.32-10.48,7.62-28.3,6.93-35.47A2.24,2.24,0,0,0,297.42,2745.67Zm-13.5,29a7.44,7.44,0,1,1-1.2-10.46A7.44,7.44,0,0,1,283.93,2774.66Z" transform="translate(-107.74 -2730.97)"/><circle class="cls-63" cx="278.82" cy="2770.53" r="8.32" transform="translate(-2436.56 -937.04) rotate(-63.72)"/><path class="cls-64" d="M260.66,2804.91c-.88.48-1.74,1-2.64,1.4a43.16,43.16,0,0,1-7.54,2.67c-1.09.28-2.18.54-3.29.75,0-.14-4,5-3.9,5a2.51,2.51,0,0,0,1,.44,3.46,3.46,0,0,0,1.12,0,25.05,25.05,0,0,0,6.69-1.85c3.88-1.65,7.67-4.36,9.63-8.18l-.64-.51Z" transform="translate(-107.74 -2730.97)"/><g id="_Group_" data-name="&lt;Group&gt;"><g id="_Group_2" data-name="&lt;Group&gt;"><g id="_Group_3" data-name="&lt;Group&gt;"><g id="_Group_4" data-name="&lt;Group&gt;"><path class="cls-64" d="M232.45,2832.18s-.14.45-.46,1.2c-.16.37-.36.82-.61,1.32s-.54,1.06-.88,1.65a32.46,32.46,0,0,1-2.57,3.89c-1.06,1.34-2.39,2.65-3.58,4s-2.39,2.78-3.54,4.07-2.22,2.49-3.15,3.51c-1.84,2.05-3.11,3.4-3.11,3.4l-.24-.16s1-1.54,2.49-3.81c.75-1.14,1.63-2.47,2.59-3.88s2-2.91,3-4.41,2-3.07,3-4.43a33.62,33.62,0,0,1,3.16-3.5c.49-.49,1-.92,1.41-1.3s.82-.7,1.16-1c.66-.52,1.08-.79,1.08-.79Z" transform="translate(-107.74 -2730.97)"/></g></g></g></g><g id="_Group_5" data-name="&lt;Group&gt;"><g id="_Group_6" data-name="&lt;Group&gt;"><g id="_Group_7" data-name="&lt;Group&gt;"><g id="_Group_8" data-name="&lt;Group&gt;"><path class="cls-60" d="M228.42,2823.67s-.11.31-.35.81c-.12.25-.28.55-.46.88s-.4.71-.66,1.1a22.26,22.26,0,0,1-1.89,2.58c-.77.88-1.73,1.73-2.59,2.65s-1.73,1.82-2.56,2.67-1.6,1.63-2.27,2.3c-1.33,1.35-2.24,2.22-2.24,2.22l-.16-.12s.72-1,1.83-2.53c.55-.76,1.2-1.64,1.9-2.57s1.46-1.93,2.22-2.92,1.45-2,2.2-2.93a23.05,23.05,0,0,1,2.28-2.29c.35-.32.7-.6,1-.85s.59-.45.82-.62c.47-.33.77-.5.77-.5Z" transform="translate(-107.74 -2730.97)"/></g></g></g></g><g id="_Group_9" data-name="&lt;Group&gt;"><g id="_Group_10" data-name="&lt;Group&gt;"><g id="_Group_11" data-name="&lt;Group&gt;"><g id="_Group_12" data-name="&lt;Group&gt;"><path class="cls-64" d="M242.78,2834.19s-.07.32-.26.84c-.09.26-.21.58-.36.93s-.32.75-.53,1.17a22.26,22.26,0,0,1-1.59,2.78c-.67,1-1.52,1.92-2.27,2.93s-1.51,2-2.24,2.94-1.41,1.8-2,2.54c-1.17,1.49-2,2.47-2,2.47l-.17-.1s.6-1.1,1.53-2.72c.46-.81,1-1.76,1.6-2.77s1.24-2.08,1.88-3.15,1.21-2.19,1.85-3.16a23.05,23.05,0,0,1,2-2.54c.32-.36.63-.67.9-1s.53-.52.75-.71c.43-.38.71-.59.71-.59Z" transform="translate(-107.74 -2730.97)"/></g></g></g></g><path class="cls-65" d="M266.08,2806.32l6,4.74s9.22-9,9-17.17c-3.14,2.5-7.37,5.93-13.91,11.68A5.62,5.62,0,0,1,266.08,2806.32Z" transform="translate(-107.74 -2730.97)"/><ellipse class="cls-66" cx="69.27" cy="48.7" rx="69.27" ry="26.86"/><path class="cls-61" d="M225,2768.55l8.82-11.86,0-.15-25.68,3.78,10,7.51-.15.2-.82,1.08-.94,1.13-2.2,2.64-2.79,3c-1,1.09-2.15,2.14-3.32,3.31-.58.59-1.21,1.15-1.87,1.72l-2,1.77c-1.37,1.19-2.87,2.34-4.4,3.57l-2.42,1.75c-.82.6-1.65,1.2-2.53,1.75l-2.65,1.73c-.91.57-1.85,1.09-2.8,1.65-1.87,1.15-3.87,2.15-5.91,3.18-4.07,2.05-7.09,3.89-11.66,5.36s-9.27,3.37-14.1,4.19-8.24,1.62-13.07,1.75c-1,0-1.51.12-3.29.11-3.09,0-7-.08-10.24-.11a92.85,92.85,0,0,1-10.66-1.25c2.19.58,4.48.92,6.79,1.38a113.46,113.46,0,0,0,14.47,1.31,113.92,113.92,0,0,0,15-.79,114.24,114.24,0,0,0,14.79-3,114.34,114.34,0,0,0,13.81-4.92c2.15-1,4.31-1.95,6.32-3.07,1-.54,2-1.06,3-1.61l2.86-1.7c1-.54,1.85-1.14,2.74-1.73l2.62-1.74c1.66-1.23,3.29-2.38,4.79-3.57l2.18-1.78c.71-.58,1.41-1.14,2-1.74,1.28-1.18,2.56-2.26,3.65-3.36l3.09-3.09,2.53-2.79L222,2773l.87-1.05,1.36-1.66,1.13-1.38Z" transform="translate(-107.74 -2730.97)"/><path class="cls-62" d="M237.37,2782.43l-3.8-25.83-11,14.73h0l-.68.82-1.39,1.67c-.27.32-.57.69-.88,1l-1,1.09-2.37,2.55-3,2.92c-1.07,1-2.3,2-3.54,3.17s-2.67,2.16-4.1,3.32-3,2.21-4.65,3.36l-2.54,1.64-1.3.84-1.36.79-2.78,1.61-2.92,1.51-1.49.77-1.54.71-3.13,1.42a114.28,114.28,0,0,1-13.48,4.66,115.62,115.62,0,0,1-14.5,2.84,116.39,116.39,0,0,1-14.8.76,114.06,114.06,0,0,1-14.33-1.29c-1.15-.19-2.29-.42-3.42-.63l-1.69-.32-1.65-.4c-.68-.16,5.7,1.8,11.82,3.38A59.8,59.8,0,0,0,142,2811c5,.27,9.21.7,14.31.31a108,108,0,0,0,29.31-6.61l3.32-1.35,1.64-.67,1.59-.74,3.12-1.46,3-1.57,1.46-.77,1.4-.83,2.74-1.62c1.75-1.13,3.45-2.23,5-3.34s3.09-2.21,4.47-3.33,2.7-2.15,3.88-3.2l3.29-3,2.71-2.69,1.16-1.16c.35-.36.64-.71.93-1l1.46-1.61,1-1.13Z" transform="translate(-107.74 -2730.97)"/><path class="cls-63" d="M146,2783.5h2.85v3H139.7v-3h2.87v-8.78l-2.87.88v-3l3.69-.88H146Z" transform="translate(-107.74 -2730.97)"/><path class="cls-63" d="M160.71,2779.36a13.88,13.88,0,0,1-.24,2.57,7.45,7.45,0,0,1-.84,2.35A5.06,5.06,0,0,1,158,2786a4.47,4.47,0,0,1-2.54.67A4.2,4.2,0,0,1,153,2786a4.92,4.92,0,0,1-1.54-1.72,7.56,7.56,0,0,1-.79-2.34,15,15,0,0,1-.22-2.56,17.3,17.3,0,0,1,.22-2.77,8.09,8.09,0,0,1,.81-2.5,5,5,0,0,1,1.6-1.81,4.45,4.45,0,0,1,2.58-.69,4.07,4.07,0,0,1,2.43.69,5,5,0,0,1,1.55,1.81,8.49,8.49,0,0,1,.81,2.5A16.44,16.44,0,0,1,160.71,2779.36Zm-3.56,0q0-.69,0-1.52a9.15,9.15,0,0,0-.18-1.55,3.61,3.61,0,0,0-.46-1.2,1,1,0,0,0-.88-.48.93.93,0,0,0-.81.48,3.92,3.92,0,0,0-.48,1.2,9,9,0,0,0-.22,1.55q-.05.82-.05,1.52t.05,1.53a7.07,7.07,0,0,0,.22,1.41,3.06,3.06,0,0,0,.48,1,1,1,0,0,0,.81.41,1,1,0,0,0,.88-.41,2.82,2.82,0,0,0,.46-1,7.22,7.22,0,0,0,.18-1.41Q157.15,2780.08,157.15,2779.32Z" transform="translate(-107.74 -2730.97)"/><path class="cls-63" d="M172.42,2779.36a13.88,13.88,0,0,1-.24,2.57,7.45,7.45,0,0,1-.84,2.35,5.06,5.06,0,0,1-1.61,1.72,4.47,4.47,0,0,1-2.54.67,4.2,4.2,0,0,1-2.45-.67,4.92,4.92,0,0,1-1.54-1.72,7.56,7.56,0,0,1-.79-2.34,15,15,0,0,1-.22-2.56,17.3,17.3,0,0,1,.22-2.77,8.09,8.09,0,0,1,.81-2.5,5,5,0,0,1,1.6-1.81,4.45,4.45,0,0,1,2.58-.69,4.07,4.07,0,0,1,2.43.69,5,5,0,0,1,1.55,1.81,8.49,8.49,0,0,1,.81,2.5A16.44,16.44,0,0,1,172.42,2779.36Zm-3.56,0q0-.69,0-1.52a9.15,9.15,0,0,0-.18-1.55,3.61,3.61,0,0,0-.46-1.2,1,1,0,0,0-.88-.48.93.93,0,0,0-.81.48,3.92,3.92,0,0,0-.48,1.2,9,9,0,0,0-.22,1.55q-.05.82-.05,1.52t.05,1.53a7.07,7.07,0,0,0,.22,1.41,3.06,3.06,0,0,0,.48,1,1,1,0,0,0,.81.41,1,1,0,0,0,.88-.41,2.82,2.82,0,0,0,.46-1,7.22,7.22,0,0,0,.18-1.41Q168.86,2780.08,168.86,2779.32Z" transform="translate(-107.74 -2730.97)"/><path class="cls-63" d="M186.81,2771.77v14.68H184l-.21-.83a3.82,3.82,0,0,1-4.4.63,3.32,3.32,0,0,1-1.17-1.16,5.2,5.2,0,0,1-.64-1.7,10.49,10.49,0,0,1-.19-2,7.58,7.58,0,0,1,.25-2,5.27,5.27,0,0,1,.76-1.66,3.57,3.57,0,0,1,3-1.56,2.9,2.9,0,0,1,1.85.59v-5Zm-6,9.59a4.09,4.09,0,0,0,.33,1.81,1.11,1.11,0,0,0,1.07.65,1.83,1.83,0,0,0,1.13-.33v-4.17a1.75,1.75,0,0,0-.47-.25,2.18,2.18,0,0,0-.66-.08,1.13,1.13,0,0,0-.66.19,1.35,1.35,0,0,0-.43.51,2.6,2.6,0,0,0-.24.75A5.59,5.59,0,0,0,180.83,2781.36Z" transform="translate(-107.74 -2730.97)"/><path class="cls-63" d="M197.06,2786.45h-3l-.22-.9a3.56,3.56,0,0,1-.29.29,3,3,0,0,1-.46.35,2.57,2.57,0,0,1-.65.29,3.11,3.11,0,0,1-.89.11,3.47,3.47,0,0,1-1.16-.19,2.58,2.58,0,0,1-1-.59,2.89,2.89,0,0,1-.65-1,3.8,3.8,0,0,1-.24-1.44,3.25,3.25,0,0,1,.34-1.56,2.67,2.67,0,0,1,.93-1,3.92,3.92,0,0,1,1.36-.53,8.64,8.64,0,0,1,1.67-.15h.69v-.35a1,1,0,0,0-.14-.58,1,1,0,0,0-.37-.33,1.47,1.47,0,0,0-.49-.14l-.51,0a7,7,0,0,0-1.14.1,8.38,8.38,0,0,0-1.32.35v-2.69l.74-.16.87-.14.88-.09.79,0a6.85,6.85,0,0,1,1.73.2,3.45,3.45,0,0,1,1.31.64,2.87,2.87,0,0,1,.83,1.15,4.53,4.53,0,0,1,.29,1.73Zm-3.46-4.26H193q-1.12,0-1.12.85a1,1,0,0,0,.2.62.75.75,0,0,0,.63.26,1.47,1.47,0,0,0,.47-.08,1.42,1.42,0,0,0,.41-.2Z" transform="translate(-107.74 -2730.97)"/><path class="cls-63" d="M197.77,2776.29h3.46L203,2782l1.53-5.72H208l-3.56,10a11.74,11.74,0,0,1-.67,1.55,4.31,4.31,0,0,1-.89,1.17,3.72,3.72,0,0,1-1.21.74,4.68,4.68,0,0,1-1.67.26q-.65,0-1.17-.05a8.35,8.35,0,0,1-1-.17V2787a6.13,6.13,0,0,0,1.59.22,2.91,2.91,0,0,0,1.14-.17,1,1,0,0,0,.55-.64l.16-.47Z" transform="translate(-107.74 -2730.97)"/><path class="cls-63" d="M208.93,2783.25a9.26,9.26,0,0,0,1.69.58,6.15,6.15,0,0,0,1.32.17q.88,0,.88-.5a.59.59,0,0,0-.31-.52,4.37,4.37,0,0,0-.76-.37l-1-.39a3.89,3.89,0,0,1-1-.57,3,3,0,0,1-.76-.91,2.9,2.9,0,0,1-.31-1.42A2.82,2.82,0,0,1,209,2778a3.14,3.14,0,0,1,.85-1,3.84,3.84,0,0,1,1.24-.64,5,5,0,0,1,1.51-.22,11.62,11.62,0,0,1,1.69.11,7.08,7.08,0,0,1,1.32.32v2.75a8.08,8.08,0,0,0-1.48-.41,7.1,7.1,0,0,0-1.07-.1q-1,0-1,.45a.48.48,0,0,0,.31.43,7.6,7.6,0,0,0,.76.35l1,.41a4,4,0,0,1,1,.6,3.15,3.15,0,0,1,.76.94,3.17,3.17,0,0,1,0,2.74,3.17,3.17,0,0,1-.88,1,4.34,4.34,0,0,1-1.34.69,5.57,5.57,0,0,1-1.72.25,10.36,10.36,0,0,1-1.54-.11,6.59,6.59,0,0,1-1.5-.42Z" transform="translate(-107.74 -2730.97)"/></svg>