<svg id="text" xmlns="http://www.w3.org/2000/svg" viewBox="0 0 127.79 74.84"><defs><style>.cls-1{fill:#282828;}.cls-2{fill:#004796;}</style></defs><path class="cls-1" d="M788.8,2881.84l-.21-.92a6.57,6.57,0,0,1-1.26.8,3.73,3.73,0,0,1-1.7.37,3.52,3.52,0,0,1-2.59-.93,3.48,3.48,0,0,1-.94-2.59,4.17,4.17,0,0,1,.33-1.73,3.33,3.33,0,0,1,.92-1.22,3.91,3.91,0,0,1,1.4-.72,6.21,6.21,0,0,1,1.78-.24h2v-.61a2.37,2.37,0,0,0-.52-1.74,2.41,2.41,0,0,0-1.71-.49,7.42,7.42,0,0,0-1.55.18,9.61,9.61,0,0,0-1.5.44v-1.75a10.52,10.52,0,0,1,1.53-.33,11.69,11.69,0,0,1,1.8-.15,4,4,0,0,1,2.93.93,3.94,3.94,0,0,1,.93,2.89v7.82Zm-.28-5.57h-1.87a3.17,3.17,0,0,0-1.9.49,1.92,1.92,0,0,0-.67,1.66,2.12,2.12,0,0,0,.51,1.53,2.05,2.05,0,0,0,1.54.53,3.06,3.06,0,0,0,1.33-.29,4.74,4.74,0,0,0,1.06-.68Z" transform="translate(-779.73 -2865.07)"/><path class="cls-1" d="M802,2881.84h-1.91v-7.69a2.94,2.94,0,0,0-.44-1.72,1.76,1.76,0,0,0-1.54-.61,2.75,2.75,0,0,0-1.56.49,6.56,6.56,0,0,0-1.27,1.09v8.44h-1.91v-11.36h1.63l.23,1.4a6.79,6.79,0,0,1,1.59-1.25,3.8,3.8,0,0,1,1.84-.43,3.28,3.28,0,0,1,2.46.9,3.41,3.41,0,0,1,.87,2.48Z" transform="translate(-779.73 -2865.07)"/><path class="cls-1" d="M813.75,2881.84h-1.61l-.23-1a5.31,5.31,0,0,1-1.18.86,3.61,3.61,0,0,1-1.78.4,4.42,4.42,0,0,1-2-.44,3.82,3.82,0,0,1-1.4-1.22,5.3,5.3,0,0,1-.8-1.84,9.81,9.81,0,0,1-.25-2.28,10,10,0,0,1,.27-2.38,5.84,5.84,0,0,1,.85-1.94,4.16,4.16,0,0,1,1.47-1.31,4.42,4.42,0,0,1,2.13-.48,3.67,3.67,0,0,1,1.55.31,5.55,5.55,0,0,1,1.09.63v-5.89h1.93Zm-1.91-9.18a5.51,5.51,0,0,0-1.07-.61,3.2,3.2,0,0,0-1.27-.24,3,3,0,0,0-1.51.35,2.57,2.57,0,0,0-.94.94,4.16,4.16,0,0,0-.48,1.38,9.89,9.89,0,0,0-.14,1.7,8.67,8.67,0,0,0,.15,1.64,4.16,4.16,0,0,0,.5,1.37,2.72,2.72,0,0,0,.93.94,2.68,2.68,0,0,0,1.42.35,3.67,3.67,0,0,0,2.4-.94Z" transform="translate(-779.73 -2865.07)"/><path class="cls-2" d="M831,2869.25a3.76,3.76,0,0,1-.68,2.24,5.53,5.53,0,0,1-1.81,1.6,4.9,4.9,0,0,1,2,1.5,3.69,3.69,0,0,1,.75,2.33,4.8,4.8,0,0,1-1.55,3.83,6.4,6.4,0,0,1-4.34,1.35,10.51,10.51,0,0,1-2.13-.21,11.71,11.71,0,0,1-1.74-.48v-2.64a16,16,0,0,0,2,.59,9.09,9.09,0,0,0,2,.22,3,3,0,0,0,2-.63,2.39,2.39,0,0,0,.77-2,2.24,2.24,0,0,0-.78-1.86,3.25,3.25,0,0,0-2.09-.63h-2.28V2872h2.18a2.91,2.91,0,0,0,1.94-.64,2.23,2.23,0,0,0,.76-1.8,1.76,1.76,0,0,0-.61-1.46,2.75,2.75,0,0,0-1.75-.49,8.26,8.26,0,0,0-1.72.2,15.57,15.57,0,0,0-1.74.47v-2.54a13.33,13.33,0,0,1,1.89-.47,11.69,11.69,0,0,1,2.07-.18,5.22,5.22,0,0,1,3.73,1.15A4,4,0,0,1,831,2869.25Z" transform="translate(-779.73 -2865.07)"/><path class="cls-2" d="M841.83,2879.36h3.4v2.48h-9.75v-2.48h3.4v-11.62l-3.4,1v-2.48l4.19-1h2.16Z" transform="translate(-779.73 -2865.07)"/><path class="cls-2" d="M855.06,2879.36h3.4v2.48h-9.75v-2.48h3.4v-11.62l-3.4,1v-2.48l4.19-1h2.16Z" transform="translate(-779.73 -2865.07)"/><path class="cls-2" d="M860.28,2885a14.31,14.31,0,0,0,1.17-1.48,9.12,9.12,0,0,0,.87-1.58,1.85,1.85,0,0,1-1-.55,1.64,1.64,0,0,1-.41-1.17,1.83,1.83,0,0,1,.55-1.37,2.32,2.32,0,0,1,3,0,2,2,0,0,1,.53,1.38,4.49,4.49,0,0,1-.18,1.24,8.79,8.79,0,0,1-.47,1.26,10.07,10.07,0,0,1-.66,1.2,12,12,0,0,1-.74,1Z" transform="translate(-779.73 -2865.07)"/><path class="cls-2" d="M878.36,2877.15a5.05,5.05,0,0,1-.39,2,4.4,4.4,0,0,1-1.12,1.56,5.2,5.2,0,0,1-1.75,1,6.8,6.8,0,0,1-2.29.36,6.06,6.06,0,0,1-4.12-1.26,4.3,4.3,0,0,1-1.45-3.41,4,4,0,0,1,.82-2.61,6.13,6.13,0,0,1,2-1.63,5.69,5.69,0,0,1-1.64-1.49,3.77,3.77,0,0,1-.68-2.32,4.19,4.19,0,0,1,.37-1.79,3.78,3.78,0,0,1,1-1.35,4.83,4.83,0,0,1,1.63-.86,7,7,0,0,1,2.1-.3,6.88,6.88,0,0,1,1.94.27,4.67,4.67,0,0,1,1.59.8,3.92,3.92,0,0,1,1.08,1.34,4.12,4.12,0,0,1,.4,1.87,3.71,3.71,0,0,1-.21,1.25,4,4,0,0,1-.55,1,5.38,5.38,0,0,1-.77.84,6.32,6.32,0,0,1-.84.63,5,5,0,0,1,2.12,1.7A4.16,4.16,0,0,1,878.36,2877.15Zm-3.06-.07a2.12,2.12,0,0,0-.24-1,2.74,2.74,0,0,0-.63-.79,4.37,4.37,0,0,0-.89-.59,6.33,6.33,0,0,0-1-.41,6.23,6.23,0,0,0-.84.43,3.18,3.18,0,0,0-.71.59,2.58,2.58,0,0,0-.49.82,3.07,3.07,0,0,0-.18,1.09,2.22,2.22,0,0,0,.69,1.71,3,3,0,0,0,3.61,0A2.37,2.37,0,0,0,875.3,2877.08Zm-.41-7.34a2.24,2.24,0,0,0-.54-1.51,1.94,1.94,0,0,0-1.56-.62,1.89,1.89,0,0,0-1.46.54,2,2,0,0,0-.5,1.43,2,2,0,0,0,.22.92,3,3,0,0,0,.56.76,4.58,4.58,0,0,0,.76.61,6,6,0,0,0,.85.46,4,4,0,0,0,.57-.42,3.78,3.78,0,0,0,.53-.58,3.08,3.08,0,0,0,.4-.71A2.33,2.33,0,0,0,874.89,2869.74Z" transform="translate(-779.73 -2865.07)"/><path class="cls-2" d="M891.47,2876.23a7.09,7.09,0,0,1-.34,2.21,5.66,5.66,0,0,1-1,1.88,4.87,4.87,0,0,1-1.7,1.3,5.46,5.46,0,0,1-2.36.48,4.69,4.69,0,0,1-2.45-.6,4.56,4.56,0,0,1-1.61-1.63,7.71,7.71,0,0,1-.89-2.39,14.43,14.43,0,0,1-.28-2.87,17.75,17.75,0,0,1,.36-3.61,8.93,8.93,0,0,1,1.2-3,6.15,6.15,0,0,1,2.27-2.09,7.35,7.35,0,0,1,3.57-.78,8.37,8.37,0,0,1,1.18.08,7.73,7.73,0,0,1,1,.22v2.51a7.38,7.38,0,0,0-1.08-.21,9.43,9.43,0,0,0-1.11-.07,3.74,3.74,0,0,0-3.06,1.22,5.81,5.81,0,0,0-1.17,3.33,6.17,6.17,0,0,1,1.42-.85,4.34,4.34,0,0,1,1.71-.32,4.15,4.15,0,0,1,1.91.41,3.92,3.92,0,0,1,1.35,1.12,4.8,4.8,0,0,1,.8,1.66A7.74,7.74,0,0,1,891.47,2876.23Zm-3.06.11a3.5,3.5,0,0,0-.53-2.15,1.84,1.84,0,0,0-1.54-.68,3.92,3.92,0,0,0-1.39.22,4.51,4.51,0,0,0-1.07.59,2.74,2.74,0,0,0,0,.35v.34q0,.69.08,1.5a6.36,6.36,0,0,0,.32,1.48,3,3,0,0,0,.68,1.13,1.58,1.58,0,0,0,1.18.45,2.39,2.39,0,0,0,.87-.16,1.79,1.79,0,0,0,.73-.54,2.87,2.87,0,0,0,.51-1A5.23,5.23,0,0,0,888.41,2876.34Z" transform="translate(-779.73 -2865.07)"/><path class="cls-2" d="M904.81,2877.15a5.05,5.05,0,0,1-.39,2,4.4,4.4,0,0,1-1.12,1.56,5.2,5.2,0,0,1-1.75,1,6.8,6.8,0,0,1-2.29.36,6.06,6.06,0,0,1-4.12-1.26,4.3,4.3,0,0,1-1.45-3.41,4,4,0,0,1,.82-2.61,6.13,6.13,0,0,1,2-1.63,5.69,5.69,0,0,1-1.64-1.49,3.77,3.77,0,0,1-.68-2.32,4.19,4.19,0,0,1,.37-1.79,3.78,3.78,0,0,1,1-1.35,4.83,4.83,0,0,1,1.63-.86,7,7,0,0,1,2.1-.3,6.88,6.88,0,0,1,1.94.27,4.67,4.67,0,0,1,1.59.8,3.92,3.92,0,0,1,1.08,1.34,4.12,4.12,0,0,1,.4,1.87,3.71,3.71,0,0,1-.21,1.25,4,4,0,0,1-.55,1,5.38,5.38,0,0,1-.77.84,6.32,6.32,0,0,1-.84.63,5,5,0,0,1,2.12,1.7A4.16,4.16,0,0,1,904.81,2877.15Zm-3.06-.07a2.12,2.12,0,0,0-.24-1,2.74,2.74,0,0,0-.63-.79,4.37,4.37,0,0,0-.89-.59,6.33,6.33,0,0,0-1-.41,6.23,6.23,0,0,0-.84.43,3.18,3.18,0,0,0-.71.59,2.58,2.58,0,0,0-.49.82,3.07,3.07,0,0,0-.18,1.09,2.22,2.22,0,0,0,.69,1.71,3,3,0,0,0,3.61,0A2.37,2.37,0,0,0,901.75,2877.08Zm-.41-7.34a2.24,2.24,0,0,0-.54-1.51,1.94,1.94,0,0,0-1.56-.62,1.89,1.89,0,0,0-1.46.54,2,2,0,0,0-.5,1.43,2,2,0,0,0,.22.92,3,3,0,0,0,.56.76,4.58,4.58,0,0,0,.76.61,6,6,0,0,0,.85.46,4,4,0,0,0,.57-.42,3.78,3.78,0,0,0,.53-.58,3.08,3.08,0,0,0,.4-.71A2.33,2.33,0,0,0,901.33,2869.74Z" transform="translate(-779.73 -2865.07)"/><path class="cls-2" d="M789.92,2903.16a8.93,8.93,0,0,1-.29,2.3,5.27,5.27,0,0,1-.91,1.89,4.42,4.42,0,0,1-1.59,1.28,5.25,5.25,0,0,1-2.32.47,5.19,5.19,0,0,1-2.3-.47,4.41,4.41,0,0,1-1.59-1.28,5.27,5.27,0,0,1-.91-1.89,8.93,8.93,0,0,1-.29-2.3,9.19,9.19,0,0,1,.28-2.28,5.36,5.36,0,0,1,.89-1.9,4.36,4.36,0,0,1,1.58-1.3,5.92,5.92,0,0,1,4.69,0,4.46,4.46,0,0,1,1.59,1.3,5.25,5.25,0,0,1,.9,1.9A9.19,9.19,0,0,1,789.92,2903.16Zm-3,0a12,12,0,0,0-.07-1.32,3.45,3.45,0,0,0-.3-1.12,2,2,0,0,0-.64-.78,1.89,1.89,0,0,0-1.13-.3,1.85,1.85,0,0,0-1.1.3,1.93,1.93,0,0,0-.63.78,3.87,3.87,0,0,0-.3,1.12,10.46,10.46,0,0,0-.08,1.32,10.76,10.76,0,0,0,.08,1.33,4.17,4.17,0,0,0,.3,1.15,1.9,1.9,0,0,0,.63.81,1.85,1.85,0,0,0,1.1.3,1.9,1.9,0,0,0,1.12-.3,1.87,1.87,0,0,0,.64-.81,4.2,4.2,0,0,0,.3-1.15A11,11,0,0,0,786.95,2903.11Z" transform="translate(-779.73 -2865.07)"/><path class="cls-2" d="M802,2902.93a11.36,11.36,0,0,1-.22,2.21,6.39,6.39,0,0,1-.74,2,4.1,4.1,0,0,1-1.38,1.43,3.94,3.94,0,0,1-2.13.54,3.8,3.8,0,0,1-1.47-.25,3.12,3.12,0,0,1-1.06-.74v4.65h-2.9v-15.27h2.55l.23,1.06a4.09,4.09,0,0,1,1.26-.94,3.7,3.7,0,0,1,1.68-.39,3.84,3.84,0,0,1,2,.47,3.71,3.71,0,0,1,1.28,1.25,5.48,5.48,0,0,1,.69,1.83A11.19,11.19,0,0,1,802,2902.93Zm-3,.07a8.89,8.89,0,0,0-.08-1.18,3.59,3.59,0,0,0-.32-1.1,2.2,2.2,0,0,0-.66-.81,1.71,1.71,0,0,0-1.06-.31,2.89,2.89,0,0,0-1,.18,3.5,3.5,0,0,0-.9.51v5.66a3.77,3.77,0,0,0,.81.54,2.22,2.22,0,0,0,1,.22,1.75,1.75,0,0,0,1.12-.34,2.4,2.4,0,0,0,.68-.87,4.1,4.1,0,0,0,.34-1.19A9.42,9.42,0,0,0,799,2903Z" transform="translate(-779.73 -2865.07)"/><path class="cls-2" d="M814.11,2902.93a11.36,11.36,0,0,1-.22,2.21,6.39,6.39,0,0,1-.74,2,4.1,4.1,0,0,1-1.38,1.43,3.94,3.94,0,0,1-2.13.54,3.8,3.8,0,0,1-1.47-.25,3.12,3.12,0,0,1-1.06-.74v4.65h-2.9v-15.27h2.55l.23,1.06a4.09,4.09,0,0,1,1.26-.94,3.7,3.7,0,0,1,1.68-.39,3.84,3.84,0,0,1,2,.47,3.71,3.71,0,0,1,1.28,1.25,5.48,5.48,0,0,1,.69,1.83A11.19,11.19,0,0,1,814.11,2902.93Zm-3,.07a8.89,8.89,0,0,0-.08-1.18,3.59,3.59,0,0,0-.32-1.1,2.2,2.2,0,0,0-.66-.81,1.71,1.71,0,0,0-1.06-.31,2.89,2.89,0,0,0-1,.18,3.5,3.5,0,0,0-.9.51v5.66a3.77,3.77,0,0,0,.81.54,2.22,2.22,0,0,0,1,.22,1.75,1.75,0,0,0,1.12-.34,2.4,2.4,0,0,0,.68-.87,4.1,4.1,0,0,0,.34-1.19A9.42,9.42,0,0,0,811.14,2903Z" transform="translate(-779.73 -2865.07)"/><path class="cls-2" d="M825.86,2903.16a8.93,8.93,0,0,1-.29,2.3,5.27,5.27,0,0,1-.91,1.89,4.42,4.42,0,0,1-1.59,1.28,5.25,5.25,0,0,1-2.32.47,5.19,5.19,0,0,1-2.3-.47,4.41,4.41,0,0,1-1.59-1.28,5.27,5.27,0,0,1-.91-1.89,8.93,8.93,0,0,1-.29-2.3,9.19,9.19,0,0,1,.28-2.28,5.36,5.36,0,0,1,.89-1.9,4.36,4.36,0,0,1,1.58-1.3,5.92,5.92,0,0,1,4.69,0,4.46,4.46,0,0,1,1.59,1.3,5.25,5.25,0,0,1,.9,1.9A9.19,9.19,0,0,1,825.86,2903.16Zm-3,0a12,12,0,0,0-.07-1.32,3.45,3.45,0,0,0-.3-1.12,2,2,0,0,0-.64-.78,1.89,1.89,0,0,0-1.13-.3,1.85,1.85,0,0,0-1.1.3,1.93,1.93,0,0,0-.63.78,3.87,3.87,0,0,0-.3,1.12,10.46,10.46,0,0,0-.08,1.32,10.76,10.76,0,0,0,.08,1.33,4.17,4.17,0,0,0,.3,1.15,1.9,1.9,0,0,0,.63.81,1.85,1.85,0,0,0,1.1.3,1.9,1.9,0,0,0,1.12-.3,1.87,1.87,0,0,0,.64-.81,4.2,4.2,0,0,0,.3-1.15A11,11,0,0,0,822.9,2903.11Z" transform="translate(-779.73 -2865.07)"/><path class="cls-2" d="M830.83,2899.32a4.21,4.21,0,0,1,1.24-1.6,2.52,2.52,0,0,1,1.5-.52,5.32,5.32,0,0,1,.62,0,2.13,2.13,0,0,1,.58.15v2.3a5.25,5.25,0,0,0-.64-.08h-.48a3.76,3.76,0,0,0-1.44.29,4.76,4.76,0,0,0-1.23.72v8.23h-2.9v-11.36h2.44Z" transform="translate(-779.73 -2865.07)"/><path class="cls-2" d="M840.68,2897.48h2.92v2.35h-2.92v5.3a1.72,1.72,0,0,0,.34,1.24,1.5,1.5,0,0,0,1.08.34,5.37,5.37,0,0,0,1.79-.3v2.35a10,10,0,0,1-1.17.25,9.32,9.32,0,0,1-1.4.09,3.54,3.54,0,0,1-2.63-.92,3.6,3.6,0,0,1-.91-2.65v-5.7h-2.18v-2.35h2.18v-3.06h2.9Z" transform="translate(-779.73 -2865.07)"/><path class="cls-2" d="M845.37,2897.48h2.9V2905a2.09,2.09,0,0,0,.31,1.28,1.36,1.36,0,0,0,1.14.4,2.16,2.16,0,0,0,1-.24,4.76,4.76,0,0,0,.89-.59v-8.37h2.9v11.36h-2.6l-.23-1.22a5.09,5.09,0,0,1-1.25,1,3.29,3.29,0,0,1-1.71.47,3.24,3.24,0,0,1-2.48-.91,3.71,3.71,0,0,1-.85-2.63Z" transform="translate(-779.73 -2865.07)"/><path class="cls-2" d="M860.18,2898.67a5.09,5.09,0,0,1,1.29-1,3.4,3.4,0,0,1,1.72-.44,3,3,0,0,1,2.45,1,3.87,3.87,0,0,1,.84,2.55v8.07h-2.9v-7.54a2.52,2.52,0,0,0-.26-1.25,1.13,1.13,0,0,0-1.07-.46,2.47,2.47,0,0,0-1,.23,4.09,4.09,0,0,0-1,.62v8.39h-2.9v-11.36H860Z" transform="translate(-779.73 -2865.07)"/><path class="cls-2" d="M868.9,2893.61a1.54,1.54,0,0,1,.51-1.2,2.1,2.1,0,0,1,2.62,0,1.54,1.54,0,0,1,.51,1.2,1.5,1.5,0,0,1-.51,1.19,2.14,2.14,0,0,1-2.62,0A1.5,1.5,0,0,1,868.9,2893.61Zm3.27,15.23h-2.9v-11.36h2.9Z" transform="translate(-779.73 -2865.07)"/><path class="cls-2" d="M878.88,2897.48h2.92v2.35h-2.92v5.3a1.72,1.72,0,0,0,.34,1.24,1.5,1.5,0,0,0,1.08.34,5.37,5.37,0,0,0,1.79-.3v2.35a10,10,0,0,1-1.17.25,9.32,9.32,0,0,1-1.4.09,3.54,3.54,0,0,1-2.63-.92,3.6,3.6,0,0,1-.91-2.65v-5.7H873.8v-2.35H876v-3.06h2.9Z" transform="translate(-779.73 -2865.07)"/><path class="cls-2" d="M883.52,2893.61a1.54,1.54,0,0,1,.51-1.2,2.1,2.1,0,0,1,2.62,0,1.54,1.54,0,0,1,.51,1.2,1.5,1.5,0,0,1-.51,1.19,2.14,2.14,0,0,1-2.62,0A1.5,1.5,0,0,1,883.52,2893.61Zm3.27,15.23h-2.9v-11.36h2.9Z" transform="translate(-779.73 -2865.07)"/><path class="cls-2" d="M892,2904.1a3,3,0,0,0,.83,1.87,2.81,2.81,0,0,0,2.1.73,6.19,6.19,0,0,0,1.6-.2A14,14,0,0,0,898,2906v2.44a6.78,6.78,0,0,1-1.59.49,9.84,9.84,0,0,1-1.86.17,6.94,6.94,0,0,1-2.56-.42,4.34,4.34,0,0,1-1.74-1.21,4.9,4.9,0,0,1-1-1.87,9,9,0,0,1-.31-2.45,8.29,8.29,0,0,1,.3-2.24,5.93,5.93,0,0,1,.9-1.9,4.29,4.29,0,0,1,1.53-1.31,4.76,4.76,0,0,1,2.22-.48,4.45,4.45,0,0,1,2.09.45,3.94,3.94,0,0,1,1.39,1.21,4.93,4.93,0,0,1,.77,1.75,9.18,9.18,0,0,1,.23,2.07q0,.35,0,.78c0,.29,0,.51,0,.64Zm3.45-2a5.74,5.74,0,0,0-.08-1,2.34,2.34,0,0,0-.27-.79,1.43,1.43,0,0,0-.54-.53,1.74,1.74,0,0,0-.86-.19,1.38,1.38,0,0,0-.75.2,1.66,1.66,0,0,0-.52.54,2.69,2.69,0,0,0-.32.79,4.94,4.94,0,0,0-.13.95Z" transform="translate(-779.73 -2865.07)"/><path class="cls-2" d="M902.87,2900.53a.86.86,0,0,0,.35.71,4.36,4.36,0,0,0,.86.51l1.11.5a5.34,5.34,0,0,1,1.11.67,3.41,3.41,0,0,1,.86,1,3,3,0,0,1,.35,1.51,3.35,3.35,0,0,1-1.14,2.67,4.55,4.55,0,0,1-3.09,1,10.7,10.7,0,0,1-1.61-.13,7.24,7.24,0,0,1-1.7-.5v-2.58a7.45,7.45,0,0,0,3.13.8,2.2,2.2,0,0,0,1-.22.83.83,0,0,0,.41-.81,1,1,0,0,0-.34-.8,3.73,3.73,0,0,0-.86-.54q-.51-.24-1.12-.49a5.26,5.26,0,0,1-1.12-.63,3.18,3.18,0,0,1-.86-1,3.06,3.06,0,0,1-.34-1.54,3.22,3.22,0,0,1,1.17-2.55,3.85,3.85,0,0,1,1.3-.7,5.24,5.24,0,0,1,1.62-.24,10.74,10.74,0,0,1,1.46.1,6.64,6.64,0,0,1,1.51.4v2.53a12,12,0,0,0-1.43-.48,4.89,4.89,0,0,0-1.21-.16,2.22,2.22,0,0,0-1.05.22A.75.75,0,0,0,902.87,2900.53Z" transform="translate(-779.73 -2865.07)"/><path class="cls-1" d="M809.23,2935.84h-1.91v-7.69a3.48,3.48,0,0,0-.36-1.7,1.43,1.43,0,0,0-1.37-.64,2.34,2.34,0,0,0-1.39.5,10.72,10.72,0,0,0-1.25,1.07v8.46H801v-11.36h1.63l.23,1.43a8.74,8.74,0,0,1,1.42-1.19,3.16,3.16,0,0,1,1.81-.52,2.72,2.72,0,0,1,2.74,1.72,8.62,8.62,0,0,1,1.66-1.23,3.7,3.7,0,0,1,1.84-.49,2.93,2.93,0,0,1,2.35.93,3.62,3.62,0,0,1,.8,2.45v8.26H813.6v-7.69a5.91,5.91,0,0,0-.07-.94,2,2,0,0,0-.26-.74,1.37,1.37,0,0,0-.53-.49,1.87,1.87,0,0,0-.86-.17,2.81,2.81,0,0,0-1.39.41,6.64,6.64,0,0,0-1.3,1,3.22,3.22,0,0,1,0,.34c0,.13,0,.24,0,.34Z" transform="translate(-779.73 -2865.07)"/><path class="cls-1" d="M818.3,2920.27a1.29,1.29,0,0,1,.38-.92,1.23,1.23,0,0,1,.92-.39,1.31,1.31,0,1,1,0,2.62,1.23,1.23,0,0,1-.92-.39A1.28,1.28,0,0,1,818.3,2920.27Zm2.28,15.57h-1.91v-11.36h1.91Z" transform="translate(-779.73 -2865.07)"/><path class="cls-1" d="M832.35,2935.56a4.07,4.07,0,0,1-1.24,3.34,5.36,5.36,0,0,1-3.47,1,15.78,15.78,0,0,1-1.87-.12,8.49,8.49,0,0,1-1.64-.34v-1.7a16,16,0,0,0,1.66.4,9.3,9.3,0,0,0,1.68.15,4,4,0,0,0,2.14-.52,2,2,0,0,0,.81-1.85v-1.54a6.07,6.07,0,0,1-1.35.76,4.47,4.47,0,0,1-3.57-.15,4,4,0,0,1-1.38-1.2,5.26,5.26,0,0,1-.8-1.73,7.77,7.77,0,0,1-.26-2,9.44,9.44,0,0,1,.26-2.27,5.46,5.46,0,0,1,.83-1.86,4.08,4.08,0,0,1,1.42-1.25,4.29,4.29,0,0,1,2.05-.46,3.46,3.46,0,0,1,1.54.36,5,5,0,0,1,1.31.91l.23-1h1.65Zm-1.91-8.67a5.75,5.75,0,0,0-1.19-.77,3.11,3.11,0,0,0-1.37-.31,2.52,2.52,0,0,0-1.36.34,2.62,2.62,0,0,0-.87.9,3.92,3.92,0,0,0-.47,1.3,8.42,8.42,0,0,0-.14,1.54,8.31,8.31,0,0,0,.13,1.46,3.76,3.76,0,0,0,.46,1.27,2.49,2.49,0,0,0,.92.89,3,3,0,0,0,1.52.34,4,4,0,0,0,1.31-.23,3.11,3.11,0,0,0,1.08-.6Z" transform="translate(-779.73 -2865.07)"/><path class="cls-1" d="M837.46,2926.32a4.58,4.58,0,0,1,1.3-1.48,3,3,0,0,1,1.85-.63,5.39,5.39,0,0,1,.71.05v1.56l-.32,0h-.32a3.68,3.68,0,0,0-1.64.41,5.62,5.62,0,0,0-1.55,1.15v8.49h-1.91v-11.36h1.66Z" transform="translate(-779.73 -2865.07)"/><path class="cls-1" d="M848.59,2935.84l-.21-.92a6.67,6.67,0,0,1-1.26.8,3.75,3.75,0,0,1-1.7.37,3.52,3.52,0,0,1-2.59-.93,3.48,3.48,0,0,1-.94-2.59,4.18,4.18,0,0,1,.33-1.73,3.34,3.34,0,0,1,.92-1.22,3.92,3.92,0,0,1,1.4-.72,6.25,6.25,0,0,1,1.78-.24h2v-.61a2.37,2.37,0,0,0-.52-1.74,2.41,2.41,0,0,0-1.71-.5,7.44,7.44,0,0,0-1.55.19,9.73,9.73,0,0,0-1.5.44v-1.75a10.82,10.82,0,0,1,1.53-.33,11.69,11.69,0,0,1,1.8-.15,4,4,0,0,1,2.93.93,3.94,3.94,0,0,1,.93,2.89v7.82Zm-.28-5.57h-1.87a3.17,3.17,0,0,0-1.9.49,1.92,1.92,0,0,0-.67,1.66,2.12,2.12,0,0,0,.51,1.54,2.06,2.06,0,0,0,1.54.53,3.06,3.06,0,0,0,1.33-.29,4.71,4.71,0,0,0,1.06-.68Z" transform="translate(-779.73 -2865.07)"/><path class="cls-1" d="M855.81,2924.48h3v1.61h-3v6.71a1.91,1.91,0,0,0,.36,1.28,1.61,1.61,0,0,0,1.25.4,4.43,4.43,0,0,0,.94-.09,4.81,4.81,0,0,0,.8-.25v1.61a5,5,0,0,1-1,.26,7.87,7.87,0,0,1-1.09.08,3.4,3.4,0,0,1-2.37-.7,3,3,0,0,1-.76-2.29v-7h-2.14v-1.61h2.14v-3.06h1.91Z" transform="translate(-779.73 -2865.07)"/><path class="cls-1" d="M862.09,2930.71a5.45,5.45,0,0,0,.18,1.43,3.47,3.47,0,0,0,.58,1.21,2.77,2.77,0,0,0,1.05.83,3.75,3.75,0,0,0,1.59.3,7.42,7.42,0,0,0,3.19-.78v1.65a6.53,6.53,0,0,1-1.69.55,9.75,9.75,0,0,1-1.85.18,5.41,5.41,0,0,1-2.27-.44,4.21,4.21,0,0,1-1.58-1.22,5,5,0,0,1-.91-1.87,9.55,9.55,0,0,1-.29-2.43,8.85,8.85,0,0,1,.29-2.28,5.66,5.66,0,0,1,.87-1.88,4.41,4.41,0,0,1,1.47-1.29,4.3,4.3,0,0,1,2.08-.48,4,4,0,0,1,2,.45,3.78,3.78,0,0,1,1.31,1.2,5,5,0,0,1,.72,1.74,9.48,9.48,0,0,1,.22,2v.62a4.55,4.55,0,0,1,0,.46Zm5-1.61a8.28,8.28,0,0,0-.09-1.22,2.91,2.91,0,0,0-.36-1.06,2,2,0,0,0-.75-.73,2.46,2.46,0,0,0-1.24-.28,2.11,2.11,0,0,0-1,.26,2.46,2.46,0,0,0-.78.69,3.41,3.41,0,0,0-.52,1,4.87,4.87,0,0,0-.21,1.3Z" transform="translate(-779.73 -2865.07)"/><path class="cls-1" d="M880.14,2935.84h-1.61l-.23-1a5.27,5.27,0,0,1-1.18.86,3.62,3.62,0,0,1-1.78.4,4.42,4.42,0,0,1-2-.44,3.83,3.83,0,0,1-1.4-1.22,5.27,5.27,0,0,1-.8-1.84,9.8,9.8,0,0,1-.25-2.28,10,10,0,0,1,.27-2.38A5.83,5.83,0,0,1,872,2926a4.17,4.17,0,0,1,1.47-1.31,4.44,4.44,0,0,1,2.13-.48,3.67,3.67,0,0,1,1.55.31,5.55,5.55,0,0,1,1.09.63v-5.89h1.93Zm-1.91-9.18a5.46,5.46,0,0,0-1.07-.61,3.2,3.2,0,0,0-1.27-.24,3,3,0,0,0-1.51.35,2.57,2.57,0,0,0-.94.94,4.16,4.16,0,0,0-.48,1.38,9.91,9.91,0,0,0-.14,1.7,8.68,8.68,0,0,0,.15,1.64,4.13,4.13,0,0,0,.5,1.37,2.7,2.7,0,0,0,.93.94,2.66,2.66,0,0,0,1.42.35,3.67,3.67,0,0,0,2.4-.94Z" transform="translate(-779.73 -2865.07)"/><path class="cls-1" d="M886.35,2934.51a1.51,1.51,0,0,1-.47,1.13,1.57,1.57,0,0,1-1.14.46,1.6,1.6,0,0,1-1.12-.43,1.48,1.48,0,0,1-.47-1.16,1.55,1.55,0,0,1,1.59-1.61,1.63,1.63,0,0,1,1.13.44A1.51,1.51,0,0,1,886.35,2934.51Z" transform="translate(-779.73 -2865.07)"/></svg>