<svg id="text" xmlns="http://www.w3.org/2000/svg" viewBox="0 0 169.9 74.95"><defs><style>.cls-1{fill:#282828;}.cls-2{fill:#004796;}</style></defs><path class="cls-1" d="M120.11,2881.84h-2v-16.58h8.65V2867h-6.65v5.41h6v1.77h-6Z" transform="translate(-118.11 -2864.96)"/><path class="cls-1" d="M130.44,2872.32a4.57,4.57,0,0,1,1.3-1.48,3,3,0,0,1,1.85-.63,5.41,5.41,0,0,1,.71.05v1.56l-.32,0h-.32a3.7,3.7,0,0,0-1.64.41,5.61,5.61,0,0,0-1.55,1.15v8.49h-1.91v-11.36h1.66Z" transform="translate(-118.11 -2864.96)"/><path class="cls-1" d="M144.86,2876.16a9.15,9.15,0,0,1-.28,2.29,5.49,5.49,0,0,1-.87,1.89,4.27,4.27,0,0,1-1.52,1.29,5.48,5.48,0,0,1-4.45,0,4.24,4.24,0,0,1-1.53-1.29,5.46,5.46,0,0,1-.87-1.89,9.47,9.47,0,0,1,0-4.54,5.69,5.69,0,0,1,.86-1.91,4.17,4.17,0,0,1,1.52-1.31,5.43,5.43,0,0,1,4.49,0,4.17,4.17,0,0,1,1.52,1.31,5.71,5.71,0,0,1,.86,1.91A9.11,9.11,0,0,1,144.86,2876.16Zm-2,0a11.85,11.85,0,0,0-.1-1.56,4,4,0,0,0-.43-1.38,2.51,2.51,0,0,0-2.39-1.36,2.65,2.65,0,0,0-1.51.38,2.72,2.72,0,0,0-.89,1,4,4,0,0,0-.43,1.38,11.85,11.85,0,0,0-.1,1.56,11.11,11.11,0,0,0,.12,1.62,4.35,4.35,0,0,0,.44,1.4,2.6,2.6,0,0,0,.88,1,2.67,2.67,0,0,0,1.48.37,2.72,2.72,0,0,0,1.49-.37,2.48,2.48,0,0,0,.89-1,4.54,4.54,0,0,0,.43-1.4A11.24,11.24,0,0,0,142.88,2876.11Z" transform="translate(-118.11 -2864.96)"/><path class="cls-1" d="M155.53,2881.84h-1.91v-7.69a3.47,3.47,0,0,0-.36-1.7,1.43,1.43,0,0,0-1.37-.64,2.33,2.33,0,0,0-1.39.49,10.64,10.64,0,0,0-1.25,1.07v8.46h-1.91v-11.36H149l.23,1.43a8.74,8.74,0,0,1,1.42-1.19,3.17,3.17,0,0,1,1.81-.52,2.72,2.72,0,0,1,2.74,1.73,8.62,8.62,0,0,1,1.66-1.23,3.69,3.69,0,0,1,1.84-.5,2.93,2.93,0,0,1,2.35.93,3.62,3.62,0,0,1,.8,2.45v8.26H159.9v-7.69a5.92,5.92,0,0,0-.07-.94,2,2,0,0,0-.26-.74,1.34,1.34,0,0,0-.53-.49,1.86,1.86,0,0,0-.86-.17,2.79,2.79,0,0,0-1.39.41,6.56,6.56,0,0,0-1.3,1,3.27,3.27,0,0,1,0,.34c0,.13,0,.24,0,.34Z" transform="translate(-118.11 -2864.96)"/><path class="cls-1" d="M178.88,2875.91a10.9,10.9,0,0,1-.26,2.47,5.41,5.41,0,0,1-.86,2,4,4,0,0,1-1.58,1.29,5.63,5.63,0,0,1-2.4.46,8.81,8.81,0,0,1-1.09-.07c-.38,0-.75-.11-1.13-.18a7.39,7.39,0,0,1-1.07-.3,7.21,7.21,0,0,1-.9-.39v-15.89h1.93v6.37a6.34,6.34,0,0,1,1.39-1,4.37,4.37,0,0,1,3.76.07,3.65,3.65,0,0,1,1.28,1.25,5.59,5.59,0,0,1,.71,1.83A10.45,10.45,0,0,1,178.88,2875.91Zm-2,.09a8.52,8.52,0,0,0-.14-1.54,4.47,4.47,0,0,0-.46-1.34,2.72,2.72,0,0,0-.84-.95,2.22,2.22,0,0,0-1.29-.36,3,3,0,0,0-1.42.36,5.1,5.1,0,0,0-1.26.93v6.83a6.07,6.07,0,0,0,1.1.4,4.89,4.89,0,0,0,1.24.15,2.79,2.79,0,0,0,1.48-.36,2.72,2.72,0,0,0,.94-1,4.37,4.37,0,0,0,.5-1.43A9.61,9.61,0,0,0,176.9,2876Z" transform="translate(-118.11 -2864.96)"/><path class="cls-1" d="M181.29,2870.48h1.91v7.67a2.94,2.94,0,0,0,.44,1.71,1.75,1.75,0,0,0,1.54.62,2.75,2.75,0,0,0,1.56-.49,6.59,6.59,0,0,0,1.26-1.09v-8.42h1.91v11.36h-1.63l-.23-1.4q-.3.3-.63.6a4.15,4.15,0,0,1-.75.53,4.58,4.58,0,0,1-.92.38,4,4,0,0,1-1.13.15,3,3,0,0,1-3.33-3.36Z" transform="translate(-118.11 -2864.96)"/><path class="cls-1" d="M199.3,2878.69a3.58,3.58,0,0,1-.3,1.52,2.88,2.88,0,0,1-.82,1.06,3.54,3.54,0,0,1-1.2.62,5,5,0,0,1-1.46.21,8.71,8.71,0,0,1-1.64-.16,7.47,7.47,0,0,1-1.62-.51v-1.75a11.91,11.91,0,0,0,1.47.56,5.41,5.41,0,0,0,1.62.24,2.62,2.62,0,0,0,1.41-.35,1.29,1.29,0,0,0,.56-1.19,1.51,1.51,0,0,0-.36-1,3.87,3.87,0,0,0-.88-.73,12.56,12.56,0,0,0-1.14-.63,6.61,6.61,0,0,1-1.14-.7,3.5,3.5,0,0,1-.88-1,2.92,2.92,0,0,1-.36-1.52,3,3,0,0,1,.28-1.3,2.85,2.85,0,0,1,.76-1,3.48,3.48,0,0,1,1.15-.62,4.66,4.66,0,0,1,1.45-.22,7.44,7.44,0,0,1,2.78.55v1.82a12.15,12.15,0,0,0-1.25-.53,4.15,4.15,0,0,0-1.41-.23,2.18,2.18,0,0,0-1.28.35,1.17,1.17,0,0,0-.5,1,1.39,1.39,0,0,0,.35,1,3.84,3.84,0,0,0,.88.7q.53.31,1.15.61a6.34,6.34,0,0,1,1.15.71,3.54,3.54,0,0,1,.88,1A2.93,2.93,0,0,1,199.3,2878.69Z" transform="translate(-118.11 -2864.96)"/><path class="cls-1" d="M201.35,2866.27a1.28,1.28,0,0,1,.38-.92,1.23,1.23,0,0,1,.92-.39,1.31,1.31,0,1,1,0,2.62,1.23,1.23,0,0,1-.92-.39A1.29,1.29,0,0,1,201.35,2866.27Zm2.28,15.57h-1.91v-11.36h1.91Z" transform="translate(-118.11 -2864.96)"/><path class="cls-1" d="M215.47,2881.84h-1.91v-7.69a2.94,2.94,0,0,0-.44-1.72,1.76,1.76,0,0,0-1.54-.61,2.75,2.75,0,0,0-1.56.49,6.56,6.56,0,0,0-1.27,1.09v8.44h-1.91v-11.36h1.63l.23,1.4a6.79,6.79,0,0,1,1.59-1.25,3.8,3.8,0,0,1,1.84-.43,3.28,3.28,0,0,1,2.46.9,3.41,3.41,0,0,1,.87,2.48Z" transform="translate(-118.11 -2864.96)"/><path class="cls-1" d="M219.86,2876.71a5.47,5.47,0,0,0,.18,1.43,3.47,3.47,0,0,0,.58,1.21,2.77,2.77,0,0,0,1.05.83,3.75,3.75,0,0,0,1.59.3,7.42,7.42,0,0,0,3.19-.78v1.66a6.53,6.53,0,0,1-1.69.55,9.75,9.75,0,0,1-1.85.18,5.41,5.41,0,0,1-2.27-.44,4.21,4.21,0,0,1-1.58-1.22,5,5,0,0,1-.91-1.87,9.55,9.55,0,0,1-.29-2.43,8.83,8.83,0,0,1,.29-2.28A5.65,5.65,0,0,1,219,2872a4.41,4.41,0,0,1,1.47-1.29,4.28,4.28,0,0,1,2.08-.48,4,4,0,0,1,2,.45,3.78,3.78,0,0,1,1.31,1.2,5,5,0,0,1,.72,1.74,9.47,9.47,0,0,1,.22,2v.62a4.53,4.53,0,0,1,0,.46Zm5-1.61a8.28,8.28,0,0,0-.09-1.22,2.9,2.9,0,0,0-.36-1.06,2,2,0,0,0-.75-.73,2.46,2.46,0,0,0-1.24-.28,2.09,2.09,0,0,0-1,.25,2.47,2.47,0,0,0-.78.69,3.43,3.43,0,0,0-.52,1,4.88,4.88,0,0,0-.21,1.3Z" transform="translate(-118.11 -2864.96)"/><path class="cls-1" d="M235.53,2878.69a3.58,3.58,0,0,1-.3,1.52,2.88,2.88,0,0,1-.82,1.06,3.54,3.54,0,0,1-1.2.62,5,5,0,0,1-1.46.21,8.71,8.71,0,0,1-1.64-.16,7.47,7.47,0,0,1-1.62-.51v-1.75a11.91,11.91,0,0,0,1.47.56,5.41,5.41,0,0,0,1.62.24,2.62,2.62,0,0,0,1.41-.35,1.29,1.29,0,0,0,.56-1.19,1.51,1.51,0,0,0-.36-1,3.87,3.87,0,0,0-.88-.73,12.56,12.56,0,0,0-1.14-.63,6.61,6.61,0,0,1-1.14-.7,3.5,3.5,0,0,1-.88-1,2.92,2.92,0,0,1-.36-1.52,3,3,0,0,1,.28-1.3,2.85,2.85,0,0,1,.76-1,3.48,3.48,0,0,1,1.15-.62,4.66,4.66,0,0,1,1.45-.22,7.44,7.44,0,0,1,2.78.55v1.82A12.15,12.15,0,0,0,234,2872a4.15,4.15,0,0,0-1.41-.23,2.18,2.18,0,0,0-1.28.35,1.17,1.17,0,0,0-.5,1,1.39,1.39,0,0,0,.35,1,3.84,3.84,0,0,0,.88.7q.53.31,1.15.61a6.34,6.34,0,0,1,1.15.71,3.54,3.54,0,0,1,.88,1A2.93,2.93,0,0,1,235.53,2878.69Z" transform="translate(-118.11 -2864.96)"/><path class="cls-1" d="M244.1,2878.69a3.58,3.58,0,0,1-.3,1.52,2.88,2.88,0,0,1-.82,1.06,3.54,3.54,0,0,1-1.2.62,5,5,0,0,1-1.46.21,8.71,8.71,0,0,1-1.64-.16,7.47,7.47,0,0,1-1.62-.51v-1.75a11.91,11.91,0,0,0,1.47.56,5.41,5.41,0,0,0,1.62.24,2.62,2.62,0,0,0,1.41-.35,1.29,1.29,0,0,0,.56-1.19,1.51,1.51,0,0,0-.36-1,3.87,3.87,0,0,0-.88-.73,12.56,12.56,0,0,0-1.14-.63,6.61,6.61,0,0,1-1.14-.7,3.5,3.5,0,0,1-.88-1,2.92,2.92,0,0,1-.36-1.52,3,3,0,0,1,.28-1.3,2.85,2.85,0,0,1,.76-1,3.48,3.48,0,0,1,1.15-.62,4.66,4.66,0,0,1,1.45-.22,7.44,7.44,0,0,1,2.78.55v1.82a12.15,12.15,0,0,0-1.25-.53,4.15,4.15,0,0,0-1.41-.23,2.18,2.18,0,0,0-1.28.35,1.17,1.17,0,0,0-.5,1,1.39,1.39,0,0,0,.35,1,3.84,3.84,0,0,0,.88.7q.53.31,1.15.61a6.34,6.34,0,0,1,1.15.71,3.54,3.54,0,0,1,.88,1A2.93,2.93,0,0,1,244.1,2878.69Z" transform="translate(-118.11 -2864.96)"/><path class="cls-1" d="M255.86,2880.48a5.3,5.3,0,0,0,1.38-.17,13.71,13.71,0,0,0,1.31-.43v1.66a6.35,6.35,0,0,1-1.35.4,8,8,0,0,1-1.53.15,6.07,6.07,0,0,1-2.38-.42,4.29,4.29,0,0,1-1.64-1.2,5,5,0,0,1-1-1.88,9.31,9.31,0,0,1-.31-2.5,7.73,7.73,0,0,1,.31-2.19,5.61,5.61,0,0,1,1-1.88,4.72,4.72,0,0,1,1.62-1.32,5.07,5.07,0,0,1,2.31-.5,8.93,8.93,0,0,1,1.4.1,8.47,8.47,0,0,1,1.38.36v1.77a8.25,8.25,0,0,0-1.21-.44,5.29,5.29,0,0,0-1.44-.18,3.12,3.12,0,0,0-1.53.35,3.08,3.08,0,0,0-1,.95,4,4,0,0,0-.6,1.38,7.26,7.26,0,0,0-.18,1.67,7.5,7.5,0,0,0,.17,1.62,4,4,0,0,0,.58,1.38,3,3,0,0,0,1.07,1A3.49,3.49,0,0,0,255.86,2880.48Z" transform="translate(-118.11 -2864.96)"/><path class="cls-1" d="M266.6,2881.84l-.21-.92a6.57,6.57,0,0,1-1.26.8,3.73,3.73,0,0,1-1.7.37,3.52,3.52,0,0,1-2.59-.93,3.48,3.48,0,0,1-.94-2.59,4.17,4.17,0,0,1,.33-1.73,3.33,3.33,0,0,1,.92-1.22,3.91,3.91,0,0,1,1.4-.72,6.21,6.21,0,0,1,1.78-.24h2v-.61a2.37,2.37,0,0,0-.52-1.74,2.41,2.41,0,0,0-1.71-.49,7.42,7.42,0,0,0-1.55.18,9.61,9.61,0,0,0-1.5.44v-1.75a10.52,10.52,0,0,1,1.53-.33,11.69,11.69,0,0,1,1.8-.15,4,4,0,0,1,2.93.93,3.94,3.94,0,0,1,.93,2.89v7.82Zm-.28-5.57h-1.87a3.17,3.17,0,0,0-1.9.49,1.92,1.92,0,0,0-.67,1.66,2.12,2.12,0,0,0,.51,1.53,2.05,2.05,0,0,0,1.54.53,3.06,3.06,0,0,0,1.33-.29,4.74,4.74,0,0,0,1.06-.68Z" transform="translate(-118.11 -2864.96)"/><path class="cls-1" d="M277.38,2878.69a3.58,3.58,0,0,1-.3,1.52,2.88,2.88,0,0,1-.82,1.06,3.54,3.54,0,0,1-1.2.62,5,5,0,0,1-1.46.21,8.71,8.71,0,0,1-1.64-.16,7.47,7.47,0,0,1-1.62-.51v-1.75a11.91,11.91,0,0,0,1.47.56,5.41,5.41,0,0,0,1.62.24,2.62,2.62,0,0,0,1.41-.35,1.29,1.29,0,0,0,.56-1.19,1.51,1.51,0,0,0-.36-1,3.87,3.87,0,0,0-.88-.73,12.56,12.56,0,0,0-1.14-.63,6.61,6.61,0,0,1-1.14-.7,3.5,3.5,0,0,1-.88-1,2.92,2.92,0,0,1-.36-1.52,3,3,0,0,1,.28-1.3,2.85,2.85,0,0,1,.76-1,3.48,3.48,0,0,1,1.15-.62,4.66,4.66,0,0,1,1.45-.22,7.44,7.44,0,0,1,2.78.55v1.82a12.15,12.15,0,0,0-1.25-.53,4.15,4.15,0,0,0-1.41-.23,2.18,2.18,0,0,0-1.28.35,1.17,1.17,0,0,0-.5,1,1.39,1.39,0,0,0,.35,1,3.84,3.84,0,0,0,.88.7q.53.31,1.15.61a6.34,6.34,0,0,1,1.15.71,3.54,3.54,0,0,1,.88,1A2.93,2.93,0,0,1,277.38,2878.69Z" transform="translate(-118.11 -2864.96)"/><path class="cls-1" d="M281,2876.71a5.47,5.47,0,0,0,.18,1.43,3.47,3.47,0,0,0,.58,1.21,2.77,2.77,0,0,0,1.05.83,3.75,3.75,0,0,0,1.59.3,7.42,7.42,0,0,0,3.19-.78v1.66a6.53,6.53,0,0,1-1.69.55,9.75,9.75,0,0,1-1.85.18,5.41,5.41,0,0,1-2.27-.44,4.21,4.21,0,0,1-1.58-1.22,5,5,0,0,1-.91-1.87,9.55,9.55,0,0,1-.29-2.43,8.83,8.83,0,0,1,.29-2.28,5.65,5.65,0,0,1,.87-1.89,4.41,4.41,0,0,1,1.47-1.29,4.28,4.28,0,0,1,2.08-.48,4,4,0,0,1,2,.45,3.78,3.78,0,0,1,1.31,1.2,5,5,0,0,1,.72,1.74,9.47,9.47,0,0,1,.22,2v.62a4.53,4.53,0,0,1,0,.46Zm5-1.61a8.28,8.28,0,0,0-.09-1.22,2.9,2.9,0,0,0-.36-1.06,2,2,0,0,0-.75-.73,2.46,2.46,0,0,0-1.24-.28,2.09,2.09,0,0,0-1,.25,2.47,2.47,0,0,0-.78.69,3.43,3.43,0,0,0-.52,1,4.88,4.88,0,0,0-.21,1.3Z" transform="translate(-118.11 -2864.96)"/><path class="cls-1" d="M123.57,2897.48h3v1.61h-3v6.71a1.91,1.91,0,0,0,.36,1.28,1.61,1.61,0,0,0,1.25.4,4.36,4.36,0,0,0,.94-.09,4.81,4.81,0,0,0,.8-.25v1.61a4.78,4.78,0,0,1-1,.26,7.59,7.59,0,0,1-1.09.08,3.4,3.4,0,0,1-2.37-.7,3,3,0,0,1-.76-2.29v-7h-2.14v-1.61h2.14v-3.06h1.91Z" transform="translate(-118.11 -2864.96)"/><path class="cls-1" d="M137.67,2903.16a9.15,9.15,0,0,1-.28,2.29,5.49,5.49,0,0,1-.87,1.89,4.27,4.27,0,0,1-1.52,1.29,5.48,5.48,0,0,1-4.45,0,4.24,4.24,0,0,1-1.53-1.29,5.46,5.46,0,0,1-.87-1.89,9.47,9.47,0,0,1,0-4.54A5.69,5.69,0,0,1,129,2899a4.17,4.17,0,0,1,1.52-1.31,5.43,5.43,0,0,1,4.49,0,4.17,4.17,0,0,1,1.52,1.31,5.71,5.71,0,0,1,.86,1.91A9.11,9.11,0,0,1,137.67,2903.16Zm-2,0a11.85,11.85,0,0,0-.1-1.56,4,4,0,0,0-.43-1.38,2.51,2.51,0,0,0-2.39-1.36,2.65,2.65,0,0,0-1.51.38,2.72,2.72,0,0,0-.89,1,4,4,0,0,0-.43,1.38,11.85,11.85,0,0,0-.1,1.56,11.11,11.11,0,0,0,.12,1.62,4.35,4.35,0,0,0,.44,1.4,2.6,2.6,0,0,0,.88,1,2.67,2.67,0,0,0,1.48.37,2.72,2.72,0,0,0,1.49-.37,2.48,2.48,0,0,0,.89-1,4.54,4.54,0,0,0,.43-1.4A11.24,11.24,0,0,0,135.7,2903.11Z" transform="translate(-118.11 -2864.96)"/><path class="cls-1" d="M153.31,2908.56a4.06,4.06,0,0,1-1.24,3.33,5.35,5.35,0,0,1-3.47,1,15.57,15.57,0,0,1-1.87-.11,8.56,8.56,0,0,1-1.64-.34v-1.7a16,16,0,0,0,1.66.4,9.3,9.3,0,0,0,1.68.15,4,4,0,0,0,2.14-.52,2,2,0,0,0,.81-1.85v-1.54a6.16,6.16,0,0,1-1.35.76,4.48,4.48,0,0,1-3.57-.15,4,4,0,0,1-1.38-1.2,5.25,5.25,0,0,1-.8-1.73,7.77,7.77,0,0,1-.26-2,9.43,9.43,0,0,1,.26-2.27,5.44,5.44,0,0,1,.83-1.86,4.07,4.07,0,0,1,1.42-1.25,4.29,4.29,0,0,1,2.05-.46,3.46,3.46,0,0,1,1.54.36,5.08,5.08,0,0,1,1.31.91l.23-1h1.65Zm-1.91-8.67a5.7,5.7,0,0,0-1.19-.77,3.11,3.11,0,0,0-1.37-.31,2.52,2.52,0,0,0-1.36.34,2.63,2.63,0,0,0-.87.9,3.92,3.92,0,0,0-.47,1.3,8.44,8.44,0,0,0-.14,1.54,8.29,8.29,0,0,0,.13,1.45,3.75,3.75,0,0,0,.46,1.27,2.51,2.51,0,0,0,.92.9,3,3,0,0,0,1.52.34,4,4,0,0,0,1.31-.23,3.16,3.16,0,0,0,1.08-.6Z" transform="translate(-118.11 -2864.96)"/><path class="cls-1" d="M158.46,2908.84h-1.91v-16.58h1.91Z" transform="translate(-118.11 -2864.96)"/><path class="cls-1" d="M170.77,2903.16a9.15,9.15,0,0,1-.28,2.29,5.49,5.49,0,0,1-.87,1.89,4.27,4.27,0,0,1-1.52,1.29,5.48,5.48,0,0,1-4.45,0,4.24,4.24,0,0,1-1.53-1.29,5.46,5.46,0,0,1-.87-1.89,9.47,9.47,0,0,1,0-4.54,5.69,5.69,0,0,1,.86-1.91,4.17,4.17,0,0,1,1.52-1.31,5.43,5.43,0,0,1,4.49,0,4.17,4.17,0,0,1,1.52,1.31,5.71,5.71,0,0,1,.86,1.91A9.11,9.11,0,0,1,170.77,2903.16Zm-2,0a11.85,11.85,0,0,0-.1-1.56,4,4,0,0,0-.43-1.38,2.51,2.51,0,0,0-2.39-1.36,2.65,2.65,0,0,0-1.51.38,2.72,2.72,0,0,0-.89,1,4,4,0,0,0-.43,1.38,11.85,11.85,0,0,0-.1,1.56,11.11,11.11,0,0,0,.12,1.62,4.35,4.35,0,0,0,.44,1.4,2.6,2.6,0,0,0,.88,1,2.67,2.67,0,0,0,1.48.37,2.72,2.72,0,0,0,1.49-.37,2.48,2.48,0,0,0,.89-1,4.54,4.54,0,0,0,.43-1.4A11.24,11.24,0,0,0,168.79,2903.11Z" transform="translate(-118.11 -2864.96)"/><path class="cls-1" d="M182.57,2902.91a10.9,10.9,0,0,1-.26,2.47,5.41,5.41,0,0,1-.86,2,4,4,0,0,1-1.58,1.29,5.63,5.63,0,0,1-2.4.46,8.81,8.81,0,0,1-1.09-.07c-.38,0-.75-.11-1.13-.18a7.39,7.39,0,0,1-1.07-.3,7.21,7.21,0,0,1-.9-.39v-15.89h1.93v6.37a6.34,6.34,0,0,1,1.39-1,4.37,4.37,0,0,1,3.76.07,3.65,3.65,0,0,1,1.28,1.25,5.59,5.59,0,0,1,.71,1.83A10.45,10.45,0,0,1,182.57,2902.91Zm-2,.09a8.52,8.52,0,0,0-.14-1.54,4.47,4.47,0,0,0-.46-1.34,2.72,2.72,0,0,0-.84-.95,2.22,2.22,0,0,0-1.29-.36,3,3,0,0,0-1.42.36,5.1,5.1,0,0,0-1.26.93v6.83a6.07,6.07,0,0,0,1.1.4,4.89,4.89,0,0,0,1.24.15,2.79,2.79,0,0,0,1.48-.36,2.72,2.72,0,0,0,.94-1,4.37,4.37,0,0,0,.5-1.43A9.61,9.61,0,0,0,180.59,2903Z" transform="translate(-118.11 -2864.96)"/><path class="cls-1" d="M190.94,2908.84l-.21-.92a6.57,6.57,0,0,1-1.26.8,3.73,3.73,0,0,1-1.7.37,3.52,3.52,0,0,1-2.59-.93,3.48,3.48,0,0,1-.94-2.59,4.17,4.17,0,0,1,.33-1.73,3.33,3.33,0,0,1,.92-1.22,3.91,3.91,0,0,1,1.4-.72,6.21,6.21,0,0,1,1.78-.24h2v-.61a2.37,2.37,0,0,0-.52-1.74,2.41,2.41,0,0,0-1.71-.49,7.42,7.42,0,0,0-1.55.18,9.61,9.61,0,0,0-1.5.44v-1.75a10.52,10.52,0,0,1,1.53-.33,11.69,11.69,0,0,1,1.8-.15,4,4,0,0,1,2.93.93,3.94,3.94,0,0,1,.93,2.89v7.82Zm-.28-5.57H188.8a3.17,3.17,0,0,0-1.9.49,1.92,1.92,0,0,0-.67,1.66,2.12,2.12,0,0,0,.51,1.53,2.05,2.05,0,0,0,1.54.53,3.06,3.06,0,0,0,1.33-.29,4.74,4.74,0,0,0,1.06-.68Z" transform="translate(-118.11 -2864.96)"/><path class="cls-1" d="M197.49,2908.84h-1.91v-16.58h1.91Z" transform="translate(-118.11 -2864.96)"/><path class="cls-1" d="M207.27,2908.84h-1.91v-16.58h1.91Z" transform="translate(-118.11 -2864.96)"/><path class="cls-1" d="M216.4,2908.84l-.21-.92a6.57,6.57,0,0,1-1.26.8,3.73,3.73,0,0,1-1.7.37,3.52,3.52,0,0,1-2.59-.93,3.48,3.48,0,0,1-.94-2.59,4.17,4.17,0,0,1,.33-1.73,3.33,3.33,0,0,1,.92-1.22,3.91,3.91,0,0,1,1.4-.72,6.21,6.21,0,0,1,1.78-.24h2v-.61a2.37,2.37,0,0,0-.52-1.74,2.41,2.41,0,0,0-1.71-.49,7.42,7.42,0,0,0-1.55.18,9.61,9.61,0,0,0-1.5.44v-1.75a10.52,10.52,0,0,1,1.53-.33,11.69,11.69,0,0,1,1.8-.15,4,4,0,0,1,2.93.93A3.94,3.94,0,0,1,218,2901v7.82Zm-.28-5.57h-1.87a3.17,3.17,0,0,0-1.9.49,1.92,1.92,0,0,0-.67,1.66,2.12,2.12,0,0,0,.51,1.53,2.05,2.05,0,0,0,1.54.53,3.06,3.06,0,0,0,1.33-.29,4.74,4.74,0,0,0,1.06-.68Z" transform="translate(-118.11 -2864.96)"/><path class="cls-1" d="M221,2897.48h1.91v7.67a2.94,2.94,0,0,0,.44,1.71,1.75,1.75,0,0,0,1.54.62,2.75,2.75,0,0,0,1.56-.49,6.59,6.59,0,0,0,1.26-1.09v-8.42h1.91v11.36h-1.63l-.23-1.4q-.3.3-.63.6a4.15,4.15,0,0,1-.75.53,4.58,4.58,0,0,1-.92.38,4,4,0,0,1-1.13.15,3,3,0,0,1-3.33-3.36Z" transform="translate(-118.11 -2864.96)"/><path class="cls-1" d="M241.42,2908.84h-1.91v-7.69a2.94,2.94,0,0,0-.44-1.72,1.76,1.76,0,0,0-1.54-.61,2.75,2.75,0,0,0-1.56.49,6.56,6.56,0,0,0-1.27,1.09v8.44H232.8v-11.36h1.63l.23,1.4a6.79,6.79,0,0,1,1.59-1.25,3.8,3.8,0,0,1,1.84-.43,3.28,3.28,0,0,1,2.46.9,3.41,3.41,0,0,1,.87,2.48Z" transform="translate(-118.11 -2864.96)"/><path class="cls-1" d="M249.31,2907.48a5.3,5.3,0,0,0,1.38-.17,13.71,13.71,0,0,0,1.31-.43v1.66a6.35,6.35,0,0,1-1.35.4,8,8,0,0,1-1.53.15,6.07,6.07,0,0,1-2.38-.42,4.29,4.29,0,0,1-1.64-1.2,5,5,0,0,1-1-1.88,9.31,9.31,0,0,1-.31-2.5,7.73,7.73,0,0,1,.31-2.19,5.61,5.61,0,0,1,1-1.88,4.72,4.72,0,0,1,1.62-1.32,5.07,5.07,0,0,1,2.31-.5,8.93,8.93,0,0,1,1.4.1,8.47,8.47,0,0,1,1.38.36v1.77a8.25,8.25,0,0,0-1.21-.44,5.29,5.29,0,0,0-1.44-.18,3.12,3.12,0,0,0-1.53.35,3.08,3.08,0,0,0-1,.95,4,4,0,0,0-.6,1.38,7.26,7.26,0,0,0-.18,1.67,7.5,7.5,0,0,0,.17,1.62,4,4,0,0,0,.58,1.38,3,3,0,0,0,1.07,1A3.49,3.49,0,0,0,249.31,2907.48Z" transform="translate(-118.11 -2864.96)"/><path class="cls-1" d="M262.81,2908.84H260.9v-7.74a2.72,2.72,0,0,0-.46-1.71,2,2,0,0,0-1.63-.58,2.55,2.55,0,0,0-1.37.42,6.52,6.52,0,0,0-1.35,1.16v8.44h-1.91v-16.58h1.91v6.58a7.24,7.24,0,0,1,1.41-1.13,3.67,3.67,0,0,1,2-.51,3.28,3.28,0,0,1,2.46.9,3.41,3.41,0,0,1,.87,2.48Z" transform="translate(-118.11 -2864.96)"/><path class="cls-1" d="M270.19,2893.27a1.28,1.28,0,0,1,.38-.92,1.23,1.23,0,0,1,.92-.39,1.31,1.31,0,1,1,0,2.62,1.23,1.23,0,0,1-.92-.39A1.29,1.29,0,0,1,270.19,2893.27Zm2.28,15.57h-1.91v-11.36h1.91Z" transform="translate(-118.11 -2864.96)"/><path class="cls-1" d="M284.32,2908.84h-1.91v-7.69a2.94,2.94,0,0,0-.44-1.72,1.76,1.76,0,0,0-1.54-.61,2.75,2.75,0,0,0-1.56.49,6.56,6.56,0,0,0-1.27,1.09v8.44h-1.91v-11.36h1.63l.23,1.4a6.79,6.79,0,0,1,1.59-1.25,3.8,3.8,0,0,1,1.84-.43,3.28,3.28,0,0,1,2.46.9,3.41,3.41,0,0,1,.87,2.48Z" transform="translate(-118.11 -2864.96)"/><path class="cls-2" d="M164.74,2933.36h3.4v2.48h-9.75v-2.48h3.4v-11.62l-3.4,1v-2.48l4.19-1h2.16Z" transform="translate(-118.11 -2864.96)"/><path class="cls-2" d="M181.58,2927.58a18.78,18.78,0,0,1-.26,3.17,8.82,8.82,0,0,1-.91,2.73,5.18,5.18,0,0,1-1.74,1.9,4.89,4.89,0,0,1-2.73.71,4.79,4.79,0,0,1-2.69-.71,5.3,5.3,0,0,1-1.74-1.9,8.79,8.79,0,0,1-.93-2.73,18.5,18.5,0,0,1,0-6.37,8.63,8.63,0,0,1,.93-2.71,5.33,5.33,0,0,1,1.74-1.89,4.79,4.79,0,0,1,2.69-.71,4.84,4.84,0,0,1,2.71.71,5.35,5.35,0,0,1,1.74,1.89,8.48,8.48,0,0,1,.92,2.71A18.94,18.94,0,0,1,181.58,2927.58Zm-3.06,0c0-.64,0-1.32-.07-2a8.88,8.88,0,0,0-.33-1.94,4,4,0,0,0-.77-1.47,2,2,0,0,0-2.79,0,3.84,3.84,0,0,0-.78,1.47,8.77,8.77,0,0,0-.33,1.94c0,.71-.07,1.38-.07,2s0,1.25.08,1.94a9.25,9.25,0,0,0,.34,1.93,4,4,0,0,0,.77,1.47,1.91,1.91,0,0,0,2.76,0,4.07,4.07,0,0,0,.77-1.48,9.23,9.23,0,0,0,.34-1.92Q178.52,2928.53,178.52,2927.63Z" transform="translate(-118.11 -2864.96)"/><path class="cls-2" d="M194.8,2927.58a18.78,18.78,0,0,1-.26,3.17,8.82,8.82,0,0,1-.91,2.73,5.18,5.18,0,0,1-1.74,1.9,4.89,4.89,0,0,1-2.73.71,4.79,4.79,0,0,1-2.69-.71,5.3,5.3,0,0,1-1.74-1.9,8.79,8.79,0,0,1-.93-2.73,18.5,18.5,0,0,1,0-6.37,8.63,8.63,0,0,1,.93-2.71,5.33,5.33,0,0,1,1.74-1.89,4.79,4.79,0,0,1,2.69-.71,4.84,4.84,0,0,1,2.71.71,5.35,5.35,0,0,1,1.74,1.89,8.48,8.48,0,0,1,.92,2.71A18.94,18.94,0,0,1,194.8,2927.58Zm-3.06,0c0-.64,0-1.32-.07-2a8.88,8.88,0,0,0-.33-1.94,4,4,0,0,0-.77-1.47,2,2,0,0,0-2.79,0,3.84,3.84,0,0,0-.78,1.47,8.77,8.77,0,0,0-.33,1.94c0,.71-.07,1.38-.07,2s0,1.25.08,1.94a9.25,9.25,0,0,0,.34,1.93,4,4,0,0,0,.77,1.47,1.91,1.91,0,0,0,2.76,0,4.07,4.07,0,0,0,.77-1.48,9.23,9.23,0,0,0,.34-1.92Q191.74,2928.53,191.74,2927.63Z" transform="translate(-118.11 -2864.96)"/><path class="cls-2" d="M210.6,2935.84H208.1l-.23-1a4.08,4.08,0,0,1-1.13.86,3.55,3.55,0,0,1-1.66.36,4,4,0,0,1-2-.48,3.91,3.91,0,0,1-1.34-1.3,5.76,5.76,0,0,1-.74-1.9,10.91,10.91,0,0,1-.23-2.28A9.06,9.06,0,0,1,201,2928a5.94,5.94,0,0,1,.83-1.91,4.31,4.31,0,0,1,1.43-1.35,4.1,4.1,0,0,1,2.09-.51,3,3,0,0,1,1.41.3,4,4,0,0,1,1,.69v-5.93h2.92Zm-2.9-8.7a3.38,3.38,0,0,0-.73-.39,2.77,2.77,0,0,0-1-.16,2.06,2.06,0,0,0-1.11.28,2,2,0,0,0-.71.75,3.41,3.41,0,0,0-.37,1.11,8.92,8.92,0,0,0,0,2.7,4.08,4.08,0,0,0,.35,1.16,2.09,2.09,0,0,0,.69.81,1.94,1.94,0,0,0,1.12.3,2.74,2.74,0,0,0,1-.16,3.55,3.55,0,0,0,.8-.41Z" transform="translate(-118.11 -2864.96)"/><path class="cls-2" d="M219.09,2935.84l-.23-1a5.83,5.83,0,0,1-1.09.85,3,3,0,0,1-1.62.39,3.22,3.22,0,0,1-2.49-1,3.79,3.79,0,0,1-.91-2.68,3.87,3.87,0,0,1,.37-1.76,3.06,3.06,0,0,1,1-1.16,4.33,4.33,0,0,1,1.49-.63,7.89,7.89,0,0,1,1.79-.2h1.26V2928a1.29,1.29,0,0,0-.47-1.09,2.06,2.06,0,0,0-1.27-.36,8.41,8.41,0,0,0-1.59.16,11.55,11.55,0,0,0-1.57.41v-2.44l.81-.2c.31-.07.62-.13,1-.17l1-.12q.51,0,.92,0a3.61,3.61,0,0,1,4.14,4.09v7.54Zm-.39-5.13h-1a2.36,2.36,0,0,0-1.4.38,1.33,1.33,0,0,0-.52,1.15,1.65,1.65,0,0,0,.33,1,1.24,1.24,0,0,0,1.05.43,2.13,2.13,0,0,0,.88-.17,5.07,5.07,0,0,0,.7-.38Z" transform="translate(-118.11 -2864.96)"/><path class="cls-2" d="M228.21,2932l2.33-7.5h2.9l-4.07,11.46a16,16,0,0,1-.75,1.76,4.54,4.54,0,0,1-.9,1.24,3.31,3.31,0,0,1-1.21.73,5,5,0,0,1-1.66.24q-.44,0-1,0a5.5,5.5,0,0,1-1-.15v-2.42a8.34,8.34,0,0,0,.91.14l.72,0a1.81,1.81,0,0,0,1.18-.32,2.26,2.26,0,0,0,.61-.87l.37-.87-3.91-10.93h2.9Z" transform="translate(-118.11 -2864.96)"/><path class="cls-2" d="M237.15,2927.53a.86.86,0,0,0,.35.71,4.41,4.41,0,0,0,.86.51l1.11.5a5.33,5.33,0,0,1,1.11.67,3.44,3.44,0,0,1,.86,1,3,3,0,0,1,.35,1.51,3.35,3.35,0,0,1-1.14,2.67,4.55,4.55,0,0,1-3.09,1,10.7,10.7,0,0,1-1.61-.12,7.25,7.25,0,0,1-1.7-.5v-2.58a7.44,7.44,0,0,0,3.13.81,2.2,2.2,0,0,0,1-.22.83.83,0,0,0,.41-.81,1,1,0,0,0-.34-.8,3.77,3.77,0,0,0-.86-.54l-1.12-.49a5.22,5.22,0,0,1-1.12-.63,3.19,3.19,0,0,1-.86-1,3.06,3.06,0,0,1-.34-1.54,3.21,3.21,0,0,1,1.17-2.55,3.83,3.83,0,0,1,1.3-.7,5.21,5.21,0,0,1,1.62-.24,10.74,10.74,0,0,1,1.46.1,6.54,6.54,0,0,1,1.51.4v2.53a12,12,0,0,0-1.43-.48,4.84,4.84,0,0,0-1.21-.16,2.22,2.22,0,0,0-1.05.22A.75.75,0,0,0,237.15,2927.53Z" transform="translate(-118.11 -2864.96)"/><path class="cls-2" d="M247.82,2934.18a1.85,1.85,0,0,1-.55,1.36,2.34,2.34,0,0,1-3,0,2,2,0,0,1,0-2.77,2.05,2.05,0,0,1,1.46-.53,2.18,2.18,0,0,1,1.47.52A1.75,1.75,0,0,1,247.82,2934.18Z" transform="translate(-118.11 -2864.96)"/></svg>