<svg id="text" xmlns="http://www.w3.org/2000/svg" viewBox="0 0 85.33 47.68"><defs><style>.cls-1{fill:#004796;}</style></defs><path class="cls-1" d="M623.71,1276.17a4,4,0,0,1-.64,2.28,4.62,4.62,0,0,1-1.68,1.52,4,4,0,0,1,1.79,1.35,3.84,3.84,0,0,1,.74,2.4,5.26,5.26,0,0,1-.44,2.2,4.64,4.64,0,0,1-1.23,1.64,5.45,5.45,0,0,1-1.93,1,8.53,8.53,0,0,1-2.54.35,13.75,13.75,0,0,1-2.2-.17,8.88,8.88,0,0,1-1.87-.49v-3.36a11.12,11.12,0,0,0,1.87.5,10.38,10.38,0,0,0,1.77.17,5.34,5.34,0,0,0,1-.09,2.11,2.11,0,0,0,.81-.32,1.73,1.73,0,0,0,.55-.59,1.86,1.86,0,0,0,.21-.93,1.59,1.59,0,0,0-.61-1.41,3.23,3.23,0,0,0-1.84-.43h-2.22v-3.33h2.15a3.16,3.16,0,0,0,.89-.12,2.31,2.31,0,0,0,.74-.36,1.76,1.76,0,0,0,.5-.56,1.47,1.47,0,0,0,.18-.73,1.15,1.15,0,0,0-.65-1.14,3.61,3.61,0,0,0-1.58-.31,7.21,7.21,0,0,0-1.34.16,10.17,10.17,0,0,0-1.79.55v-3.47a11.17,11.17,0,0,1,2-.45,15.86,15.86,0,0,1,2.2-.15,8.27,8.27,0,0,1,2,.23,4.91,4.91,0,0,1,1.67.74,3.67,3.67,0,0,1,1.15,1.32A4.19,4.19,0,0,1,623.71,1276.17Z" transform="translate(-585.96 -1271.91)"/><path class="cls-1" d="M633.56,1276.28a4.69,4.69,0,0,1-1,3.16,3.59,3.59,0,0,1-2.88,1.18,3.54,3.54,0,0,1-2.89-1.18,4.8,4.8,0,0,1-1-3.16,4.7,4.7,0,0,1,1-3.2,3.66,3.66,0,0,1,2.91-1.1,3.72,3.72,0,0,1,2.88,1.1A4.56,4.56,0,0,1,633.56,1276.28Zm-.94,12.4H628.8l8.88-16.58h3.77Zm-2.23-12.39q0-.34,0-.67a3.5,3.5,0,0,0-.09-.61,1,1,0,0,0-.21-.43.47.47,0,0,0-.37-.16q-.4,0-.56.57a4.77,4.77,0,0,0-.16,1.3,6.75,6.75,0,0,0,0,.69,2.78,2.78,0,0,0,.13.62,1.27,1.27,0,0,0,.23.43.44.44,0,0,0,.35.16c.26,0,.44-.19.54-.58A5.62,5.62,0,0,0,630.38,1276.29Zm14.1,8.18a4.71,4.71,0,0,1-1,3.16,3.56,3.56,0,0,1-2.87,1.18,3.51,3.51,0,0,1-2.88-1.18,4.82,4.82,0,0,1-1-3.16,4.73,4.73,0,0,1,1-3.2,3.63,3.63,0,0,1,2.89-1.1,3.69,3.69,0,0,1,2.87,1.1A4.58,4.58,0,0,1,644.48,1284.47Zm-3.17,0c0-.23,0-.45,0-.67a3.42,3.42,0,0,0-.09-.61,1,1,0,0,0-.2-.43.45.45,0,0,0-.36-.16q-.39,0-.54.57a4.89,4.89,0,0,0-.16,1.3q0,.34,0,.69a2.85,2.85,0,0,0,.12.62,1.3,1.3,0,0,0,.23.43.43.43,0,0,0,.34.16q.39,0,.52-.58A5.8,5.8,0,0,0,641.31,1284.48Z" transform="translate(-585.96 -1271.91)"/><path class="cls-1" d="M595.85,1309.76a11.36,11.36,0,0,1-.22,2.21,6.38,6.38,0,0,1-.74,2,4.08,4.08,0,0,1-1.38,1.43,3.93,3.93,0,0,1-2.13.54,3.8,3.8,0,0,1-1.47-.25,3.14,3.14,0,0,1-1.06-.74v4.65H586v-15.27h2.55l.23,1.06a4.09,4.09,0,0,1,1.26-.94,3.7,3.7,0,0,1,1.68-.39,3.85,3.85,0,0,1,2,.47,3.7,3.7,0,0,1,1.28,1.25,5.48,5.48,0,0,1,.69,1.83A11.21,11.21,0,0,1,595.85,1309.76Zm-3,.07a8.89,8.89,0,0,0-.08-1.18,3.61,3.61,0,0,0-.32-1.1,2.2,2.2,0,0,0-.66-.81,1.71,1.71,0,0,0-1.06-.31,2.89,2.89,0,0,0-1,.18,3.5,3.5,0,0,0-.9.51v5.66a3.77,3.77,0,0,0,.81.54,2.23,2.23,0,0,0,1,.22,1.75,1.75,0,0,0,1.12-.33,2.4,2.4,0,0,0,.68-.87,4.11,4.11,0,0,0,.34-1.19A9.43,9.43,0,0,0,592.88,1309.83Z" transform="translate(-585.96 -1271.91)"/><path class="cls-1" d="M600.38,1310.94a3,3,0,0,0,.83,1.87,2.81,2.81,0,0,0,2.1.73,6.15,6.15,0,0,0,1.6-.2,13.82,13.82,0,0,0,1.54-.52v2.44a6.78,6.78,0,0,1-1.59.49,9.84,9.84,0,0,1-1.86.17,6.94,6.94,0,0,1-2.56-.43,4.33,4.33,0,0,1-1.74-1.21,4.91,4.91,0,0,1-1-1.87,9,9,0,0,1-.31-2.45,8.29,8.29,0,0,1,.3-2.24,6,6,0,0,1,.9-1.9,4.31,4.31,0,0,1,1.53-1.31,4.76,4.76,0,0,1,2.22-.48,4.45,4.45,0,0,1,2.09.45,3.94,3.94,0,0,1,1.39,1.21,4.92,4.92,0,0,1,.77,1.75,9.17,9.17,0,0,1,.23,2.07c0,.23,0,.49,0,.78s0,.51,0,.64Zm3.45-2a5.74,5.74,0,0,0-.08-1,2.34,2.34,0,0,0-.27-.79,1.42,1.42,0,0,0-.54-.53,1.73,1.73,0,0,0-.86-.19,1.37,1.37,0,0,0-.75.2,1.67,1.67,0,0,0-.52.54,2.71,2.71,0,0,0-.32.79,4.94,4.94,0,0,0-.13.95Z" transform="translate(-585.96 -1271.91)"/><path class="cls-1" d="M611.86,1306.15a4.21,4.21,0,0,1,1.24-1.6,2.51,2.51,0,0,1,1.5-.52,5.32,5.32,0,0,1,.62,0,2.09,2.09,0,0,1,.58.15v2.3a5.25,5.25,0,0,0-.64-.08h-.48a3.76,3.76,0,0,0-1.44.29,4.76,4.76,0,0,0-1.23.72v8.23h-2.9v-11.36h2.44Z" transform="translate(-585.96 -1271.91)"/><path class="cls-1" d="M630.72,1315.67h-2.9v-7.54a2.52,2.52,0,0,0-.26-1.25,1.13,1.13,0,0,0-1.07-.46,2.49,2.49,0,0,0-1,.23,4.15,4.15,0,0,0-1,.62v8.4h-2.9v-16.58h2.9v6.33a5.5,5.5,0,0,1,1.25-1,3.36,3.36,0,0,1,1.69-.41,3,3,0,0,1,2.45,1,3.86,3.86,0,0,1,.84,2.55Z" transform="translate(-585.96 -1271.91)"/><path class="cls-1" d="M635.82,1310.94a3,3,0,0,0,.83,1.87,2.81,2.81,0,0,0,2.1.73,6.15,6.15,0,0,0,1.6-.2,13.82,13.82,0,0,0,1.54-.52v2.44a6.78,6.78,0,0,1-1.59.49,9.84,9.84,0,0,1-1.86.17,6.94,6.94,0,0,1-2.56-.43,4.33,4.33,0,0,1-1.74-1.21,4.91,4.91,0,0,1-1-1.87,9,9,0,0,1-.31-2.45,8.29,8.29,0,0,1,.3-2.24,6,6,0,0,1,.9-1.9,4.31,4.31,0,0,1,1.53-1.31,4.76,4.76,0,0,1,2.22-.48,4.45,4.45,0,0,1,2.09.45,3.94,3.94,0,0,1,1.39,1.21,4.92,4.92,0,0,1,.77,1.75,9.17,9.17,0,0,1,.23,2.07c0,.23,0,.49,0,.78s0,.51,0,.64Zm3.45-2a5.74,5.74,0,0,0-.08-1,2.34,2.34,0,0,0-.27-.79,1.42,1.42,0,0,0-.54-.53,1.73,1.73,0,0,0-.86-.19,1.37,1.37,0,0,0-.75.2,1.67,1.67,0,0,0-.52.54,2.71,2.71,0,0,0-.32.79,4.94,4.94,0,0,0-.13.95Z" transform="translate(-585.96 -1271.91)"/><path class="cls-1" d="M650.15,1315.67l-.23-1a5.9,5.9,0,0,1-1.09.85,3,3,0,0,1-1.62.39,3.22,3.22,0,0,1-2.49-1,3.79,3.79,0,0,1-.91-2.68,3.87,3.87,0,0,1,.37-1.76,3,3,0,0,1,1-1.16,4.37,4.37,0,0,1,1.49-.63,8,8,0,0,1,1.79-.2h1.26v-.64a1.28,1.28,0,0,0-.47-1.09,2.05,2.05,0,0,0-1.27-.36,8.41,8.41,0,0,0-1.59.16,11.41,11.41,0,0,0-1.57.41v-2.44l.81-.2c.31-.07.62-.13,1-.17l1-.11q.51,0,.92,0a3.62,3.62,0,0,1,4.14,4.09v7.54Zm-.39-5.13h-1a2.35,2.35,0,0,0-1.4.38,1.32,1.32,0,0,0-.52,1.15,1.65,1.65,0,0,0,.33,1,1.24,1.24,0,0,0,1.05.43,2.13,2.13,0,0,0,.88-.17,5.18,5.18,0,0,0,.7-.38Z" transform="translate(-585.96 -1271.91)"/><path class="cls-1" d="M664.53,1315.67H662l-.23-1a4.07,4.07,0,0,1-1.13.86,3.54,3.54,0,0,1-1.66.36,4,4,0,0,1-2-.48,3.89,3.89,0,0,1-1.34-1.3,5.75,5.75,0,0,1-.74-1.9,10.93,10.93,0,0,1-.23-2.28,9,9,0,0,1,.26-2.17,6,6,0,0,1,.83-1.91,4.29,4.29,0,0,1,1.43-1.34,4.08,4.08,0,0,1,2.09-.51,3,3,0,0,1,1.41.3,4,4,0,0,1,1,.69v-5.93h2.92Zm-2.9-8.69a3.34,3.34,0,0,0-.73-.39,2.77,2.77,0,0,0-1-.16,2.07,2.07,0,0,0-1.11.28,2,2,0,0,0-.71.75,3.4,3.4,0,0,0-.37,1.11,8.91,8.91,0,0,0,0,2.7,4.07,4.07,0,0,0,.35,1.16,2.09,2.09,0,0,0,.69.81,1.92,1.92,0,0,0,1.12.3,2.74,2.74,0,0,0,1-.16,3.59,3.59,0,0,0,.8-.41Z" transform="translate(-585.96 -1271.91)"/><path class="cls-1" d="M671.29,1314a1.85,1.85,0,0,1-.55,1.36,2.05,2.05,0,0,1-1.52.55,2.08,2.08,0,0,1-1.46-.52,2,2,0,0,1,0-2.77,2,2,0,0,1,1.46-.53,2.17,2.17,0,0,1,1.47.52A1.75,1.75,0,0,1,671.29,1314Z" transform="translate(-585.96 -1271.91)"/></svg>