<svg id="icons" xmlns="http://www.w3.org/2000/svg" xmlns:xlink="http://www.w3.org/1999/xlink" viewBox="0 0 166.85 123.28"><defs><style>.cls-1{fill:none;}.cls-2{fill:#b17f49;}.cls-3{fill:#c99d66;}.cls-4{fill:#fff;}.cls-5{fill:#39b54a;}.cls-6{fill:#009444;}.cls-7{clip-path:url(#clip-path);}</style><clipPath id="clip-path" transform="translate(-546.69 -2730.19)"><path class="cls-1" d="M639.86,2735.65c-7.57,0-14.51,4.63-19.93,12.69a18.72,18.72,0,0,1,11.68-4.46c14.31,0,26.38,19,30.18,44.9H672C672,2760.35,656.26,2735.65,639.86,2735.65Z"/></clipPath></defs><polygon class="cls-2" points="71.83 14.44 3.2 14.44 14.4 23.15 83.03 23.15 71.83 14.44"/><polygon class="cls-2" points="102.23 46.62 90.5 46.62 79.83 19.95 91.56 19.95 102.23 46.62"/><rect class="cls-3" x="22.4" y="19.95" width="68.63" height="68.63"/><rect class="cls-2" x="10.67" y="19.95" width="11.73" height="68.63"/><polygon class="cls-3" points="0 46.62 11.73 46.62 22.4 19.95 10.67 19.95 0 46.62"/><polygon class="cls-3" points="33.6 11.24 102.23 11.24 91.03 19.95 22.4 19.95 33.6 11.24"/><path class="cls-4" d="M585.56,2792.32q.07-.87.24-1.79t.33-1.61a23,23,0,0,1,.78-2.61q.5-1.38,1.1-2.75t1.26-2.62q.66-1.25,1.28-2.22H583.2v-3.42h12.35v2.43a19.43,19.43,0,0,0-1.69,2.29,30.08,30.08,0,0,0-1.61,2.86,31.92,31.92,0,0,0-1.34,3.09,24.22,24.22,0,0,0-.91,3q-.15.64-.29,1.55t-.21,1.81Z" transform="translate(-546.69 -2730.19)"/><path class="cls-4" d="M608.6,2784.11a16.14,16.14,0,0,1-.28,3,8.63,8.63,0,0,1-1,2.73,5.87,5.87,0,0,1-1.86,2,5.19,5.19,0,0,1-2.94.78,4.87,4.87,0,0,1-2.84-.78,5.71,5.71,0,0,1-1.78-2,8.74,8.74,0,0,1-.92-2.71,17.25,17.25,0,0,1-.26-3,20,20,0,0,1,.26-3.21,9.38,9.38,0,0,1,.94-2.9,5.76,5.76,0,0,1,1.85-2.1,5.16,5.16,0,0,1,3-.8,4.72,4.72,0,0,1,2.82.8,5.84,5.84,0,0,1,1.79,2.1,9.87,9.87,0,0,1,.94,2.9A19.12,19.12,0,0,1,608.6,2784.11Zm-4.13,0q0-.8,0-1.76a10.53,10.53,0,0,0-.21-1.79,4.17,4.17,0,0,0-.53-1.39,1.13,1.13,0,0,0-1-.55,1.08,1.08,0,0,0-.94.55,4.56,4.56,0,0,0-.55,1.39,10.43,10.43,0,0,0-.26,1.79q-.06,1-.06,1.76t.06,1.77a8.17,8.17,0,0,0,.26,1.63,3.55,3.55,0,0,0,.55,1.2,1.12,1.12,0,0,0,.94.47,1.19,1.19,0,0,0,1-.47,3.24,3.24,0,0,0,.53-1.2,8.31,8.31,0,0,0,.21-1.63Q604.47,2784.93,604.47,2784.06Z" transform="translate(-546.69 -2730.19)"/><path class="cls-4" d="M622.17,2784.11a16.23,16.23,0,0,1-.28,3,8.63,8.63,0,0,1-1,2.73,5.88,5.88,0,0,1-1.87,2,5.19,5.19,0,0,1-2.94.78,4.87,4.87,0,0,1-2.84-.78,5.71,5.71,0,0,1-1.78-2,8.74,8.74,0,0,1-.92-2.71,17.25,17.25,0,0,1-.26-3,20,20,0,0,1,.26-3.21,9.38,9.38,0,0,1,.94-2.9,5.76,5.76,0,0,1,1.85-2.1,5.16,5.16,0,0,1,3-.8,4.73,4.73,0,0,1,2.82.8A5.84,5.84,0,0,1,621,2778a9.84,9.84,0,0,1,.95,2.9A19.23,19.23,0,0,1,622.17,2784.11Zm-4.13,0q0-.8,0-1.76a10.54,10.54,0,0,0-.21-1.79,4.17,4.17,0,0,0-.53-1.39,1.13,1.13,0,0,0-1-.55,1.08,1.08,0,0,0-.94.55,4.56,4.56,0,0,0-.55,1.39,10.43,10.43,0,0,0-.26,1.79q-.06,1-.06,1.76t.06,1.77a8.17,8.17,0,0,0,.26,1.63,3.55,3.55,0,0,0,.55,1.2,1.12,1.12,0,0,0,.94.47,1.19,1.19,0,0,0,1-.47,3.24,3.24,0,0,0,.53-1.2,8.31,8.31,0,0,0,.21-1.63Q618,2784.93,618,2784.06Z" transform="translate(-546.69 -2730.19)"/><path class="cls-5" d="M644.43,2730.19c-7.57,0-14.51,4.63-19.93,12.69a18.72,18.72,0,0,1,11.68-4.46c15.3,0,28,21.66,30.85,50.35h10.26C675.46,2754.54,661.77,2730.19,644.43,2730.19Z" transform="translate(-546.69 -2730.19)"/><polygon class="cls-5" points="125.33 74.99 125.13 74.79 125.13 75.04 125.23 75.14 142.38 57.95 125.31 57.95 125.33 74.99"/><polygon class="cls-6" points="125.31 57.95 124.74 57.95 108.26 57.95 125.13 74.79 125.33 74.99 125.31 57.95"/><g class="cls-7"><path class="cls-6" d="M644.25,2730.19c-7.57,0-14.51,4.63-19.93,12.69a18.72,18.72,0,0,1,11.68-4.46c15.3,0,28,21.66,30.85,50.35h10.26C675.28,2754.54,661.58,2730.19,644.25,2730.19Z" transform="translate(-546.69 -2730.19)"/></g><polygon class="cls-2" points="144.46 68.66 93.91 68.66 102.16 75.08 152.71 75.08 144.46 68.66"/><polygon class="cls-2" points="166.85 92.37 158.21 92.37 150.35 72.72 159 72.72 166.85 92.37"/><rect class="cls-3" x="108.05" y="72.72" width="50.55" height="50.55"/><rect class="cls-2" x="99.41" y="72.72" width="8.64" height="50.55"/><polygon class="cls-3" points="91.55 92.37 100.19 92.37 108.05 72.72 99.41 72.72 91.55 92.37"/><polygon class="cls-3" points="116.3 66.31 166.85 66.31 158.6 72.72 108.05 72.72 116.3 66.31"/><path class="cls-4" d="M668.93,2828.89h3.3v3.42H661.66v-3.42H665v-10.17l-3.33,1v-3.42l4.28-1h3Z" transform="translate(-546.69 -2730.19)"/><path class="cls-4" d="M685.62,2826.65A5.74,5.74,0,0,1,684,2831a6.8,6.8,0,0,1-4.87,1.57,11.54,11.54,0,0,1-2.05-.19,11.07,11.07,0,0,1-1.87-.5v-3.45a11.78,11.78,0,0,0,1.84.53,8.57,8.57,0,0,0,1.61.15,5.65,5.65,0,0,0,1.14-.11,2.54,2.54,0,0,0,.91-.37,1.71,1.71,0,0,0,.6-.69,2.45,2.45,0,0,0,.21-1.08,1.87,1.87,0,0,0-.89-1.73,4.53,4.53,0,0,0-2.36-.54q-.68,0-1.24,0t-1.24.17v-9.54h9.11v3.42h-5.17v2.46h1a5.14,5.14,0,0,1,2,.39,4.34,4.34,0,0,1,1.54,1.1,4.85,4.85,0,0,1,1,1.72A7.09,7.09,0,0,1,685.62,2826.65Z" transform="translate(-546.69 -2730.19)"/><path class="cls-4" d="M699.59,2824.1a16.14,16.14,0,0,1-.28,3,8.66,8.66,0,0,1-1,2.73,5.88,5.88,0,0,1-1.87,2,5.19,5.19,0,0,1-2.94.78,4.87,4.87,0,0,1-2.84-.78,5.72,5.72,0,0,1-1.78-2,8.76,8.76,0,0,1-.92-2.71,17.35,17.35,0,0,1-.26-3,20.11,20.11,0,0,1,.26-3.21,9.41,9.41,0,0,1,.94-2.9,5.76,5.76,0,0,1,1.85-2.1,5.16,5.16,0,0,1,3-.8,4.73,4.73,0,0,1,2.82.8,5.84,5.84,0,0,1,1.79,2.1,9.87,9.87,0,0,1,.94,2.9A19.12,19.12,0,0,1,699.59,2824.1Zm-4.13,0q0-.8,0-1.76a10.63,10.63,0,0,0-.21-1.79,4.21,4.21,0,0,0-.53-1.39,1.14,1.14,0,0,0-1-.55,1.08,1.08,0,0,0-.94.55,4.56,4.56,0,0,0-.55,1.39,10.43,10.43,0,0,0-.26,1.79q-.06,1-.06,1.76t.06,1.77a8.17,8.17,0,0,0,.26,1.63,3.55,3.55,0,0,0,.55,1.2,1.12,1.12,0,0,0,.94.47,1.19,1.19,0,0,0,1-.47,3.28,3.28,0,0,0,.53-1.2,8.38,8.38,0,0,0,.21-1.63Q695.46,2824.93,695.46,2824.05Z" transform="translate(-546.69 -2730.19)"/></svg>