<svg id="text" xmlns="http://www.w3.org/2000/svg" viewBox="0 0 554.15 31.88"><defs><style>.cls-1{fill:#004796;}</style></defs><path class="cls-1" d="M242.77,814.34l3.36-13.58h4l3.74,14,3.57-18.06h4.69l-5.74,25.23h-4.27l-4-14.84-4,14.84h-4.2l-5.71-25.23h4.69Z" transform="translate(-234.23 -796.21)"/><path class="cls-1" d="M266.92,814.69a4.59,4.59,0,0,0,1.26,2.84,4.28,4.28,0,0,0,3.2,1.11,9.36,9.36,0,0,0,2.44-.3,21,21,0,0,0,2.34-.79v3.71a10.31,10.31,0,0,1-2.42.75,15,15,0,0,1-2.83.26,10.55,10.55,0,0,1-3.9-.65,6.6,6.6,0,0,1-2.64-1.84,7.47,7.47,0,0,1-1.49-2.85,13.63,13.63,0,0,1-.47-3.73,12.6,12.6,0,0,1,.46-3.41,9,9,0,0,1,1.36-2.89,6.55,6.55,0,0,1,2.33-2,7.25,7.25,0,0,1,3.38-.74,6.77,6.77,0,0,1,3.19.68,6,6,0,0,1,2.12,1.84,7.44,7.44,0,0,1,1.17,2.66,13.88,13.88,0,0,1,.35,3.15q0,.53,0,1.19t-.05,1Zm5.25-3.08a8.85,8.85,0,0,0-.12-1.48,3.56,3.56,0,0,0-.42-1.2,2.15,2.15,0,0,0-.81-.81,2.63,2.63,0,0,0-1.31-.29,2.07,2.07,0,0,0-1.15.31,2.52,2.52,0,0,0-.8.82,4.13,4.13,0,0,0-.48,1.2,7.54,7.54,0,0,0-.2,1.44Z" transform="translate(-234.23 -796.21)"/><path class="cls-1" d="M278.19,805.87a17.06,17.06,0,0,0,1.44-1.94,16.1,16.1,0,0,0,1.08-2,2.81,2.81,0,0,1-1.57-.84,2.49,2.49,0,0,1-.63-1.78,2.79,2.79,0,0,1,.84-2.08,3.06,3.06,0,0,1,2.24-.82,3,3,0,0,1,2.35.88,3,3,0,0,1,.81,2.1,8.13,8.13,0,0,1-.79,3.38,18,18,0,0,1-1.8,3.13Z" transform="translate(-234.23 -796.21)"/><path class="cls-1" d="M290.33,807.41a6.4,6.4,0,0,1,1.89-2.43,3.81,3.81,0,0,1,2.28-.79,8.22,8.22,0,0,1,.94.05,3.25,3.25,0,0,1,.88.23V808a8.11,8.11,0,0,0-1-.12l-.73,0a5.71,5.71,0,0,0-2.19.44,7.2,7.2,0,0,0-1.87,1.1V821.9h-4.41V804.61h3.71Z" transform="translate(-234.23 -796.21)"/><path class="cls-1" d="M301.74,814.69a4.59,4.59,0,0,0,1.26,2.84,4.28,4.28,0,0,0,3.2,1.11,9.36,9.36,0,0,0,2.44-.3,21,21,0,0,0,2.34-.79v3.71a10.31,10.31,0,0,1-2.42.75,15,15,0,0,1-2.83.26,10.55,10.55,0,0,1-3.9-.65,6.6,6.6,0,0,1-2.64-1.84,7.47,7.47,0,0,1-1.49-2.85,13.63,13.63,0,0,1-.47-3.73,12.6,12.6,0,0,1,.46-3.41,9,9,0,0,1,1.36-2.89,6.55,6.55,0,0,1,2.33-2,7.25,7.25,0,0,1,3.38-.74,6.77,6.77,0,0,1,3.19.68,6,6,0,0,1,2.12,1.84,7.44,7.44,0,0,1,1.17,2.66,13.88,13.88,0,0,1,.35,3.15q0,.53,0,1.19t-.05,1Zm5.25-3.08a8.85,8.85,0,0,0-.12-1.48,3.56,3.56,0,0,0-.42-1.2,2.15,2.15,0,0,0-.81-.81,2.63,2.63,0,0,0-1.31-.29,2.07,2.07,0,0,0-1.15.31,2.52,2.52,0,0,0-.8.82,4.13,4.13,0,0,0-.48,1.2,7.54,7.54,0,0,0-.2,1.44Z" transform="translate(-234.23 -796.21)"/><path class="cls-1" d="M320.75,798.73a2.35,2.35,0,0,1,.77-1.82,3.2,3.2,0,0,1,4,0,2.35,2.35,0,0,1,.77,1.82,2.29,2.29,0,0,1-.77,1.8,3.26,3.26,0,0,1-4,0A2.29,2.29,0,0,1,320.75,798.73Zm5,23.17h-4.41V804.61h4.41Z" transform="translate(-234.23 -796.21)"/><path class="cls-1" d="M334.36,806.43a7.76,7.76,0,0,1,2-1.58,5.17,5.17,0,0,1,2.63-.67,4.57,4.57,0,0,1,3.73,1.54,5.88,5.88,0,0,1,1.28,3.88V821.9h-4.41V810.43a3.83,3.83,0,0,0-.4-1.9,1.71,1.71,0,0,0-1.63-.7,3.77,3.77,0,0,0-1.58.35,6.29,6.29,0,0,0-1.47.95V821.9h-4.41V804.61h4Z" transform="translate(-234.23 -796.21)"/><path class="cls-1" d="M356.06,818.65a9.38,9.38,0,0,0,2.06-.19,19.54,19.54,0,0,0,2-.58v3.67a10.5,10.5,0,0,1-2.26.56,17.6,17.6,0,0,1-2.47.17,9.22,9.22,0,0,1-3.62-.65,6.74,6.74,0,0,1-2.54-1.84,7.63,7.63,0,0,1-1.5-2.89,13.52,13.52,0,0,1-.49-3.76,11.58,11.58,0,0,1,.52-3.54,8,8,0,0,1,1.58-2.85,7.26,7.26,0,0,1,2.61-1.89,9,9,0,0,1,3.62-.68,15.55,15.55,0,0,1,2.22.14,16.46,16.46,0,0,1,2.08.45v3.78A19.14,19.14,0,0,0,358,808a7.61,7.61,0,0,0-1.73-.19,4.17,4.17,0,0,0-3.4,1.38,5.62,5.62,0,0,0-1.15,3.72,10.72,10.72,0,0,0,.23,2.29,5.22,5.22,0,0,0,.73,1.81,3.49,3.49,0,0,0,1.33,1.19A4.42,4.42,0,0,0,356.06,818.65Z" transform="translate(-234.23 -796.21)"/><path class="cls-1" d="M367.19,807.41a6.4,6.4,0,0,1,1.89-2.43,3.81,3.81,0,0,1,2.28-.79,8.22,8.22,0,0,1,.94.05,3.25,3.25,0,0,1,.88.23V808a8.11,8.11,0,0,0-1-.12l-.73,0a5.71,5.71,0,0,0-2.19.44,7.2,7.2,0,0,0-1.87,1.1V821.9H363V804.61h3.71Z" transform="translate(-234.23 -796.21)"/><path class="cls-1" d="M378.6,814.69a4.59,4.59,0,0,0,1.26,2.84,4.28,4.28,0,0,0,3.2,1.11,9.36,9.36,0,0,0,2.44-.3,21,21,0,0,0,2.34-.79v3.71a10.31,10.31,0,0,1-2.42.75,15,15,0,0,1-2.83.26,10.55,10.55,0,0,1-3.9-.65A6.6,6.6,0,0,1,376,819.8a7.47,7.47,0,0,1-1.49-2.85,13.63,13.63,0,0,1-.47-3.73,12.6,12.6,0,0,1,.46-3.41,9,9,0,0,1,1.36-2.89,6.55,6.55,0,0,1,2.33-2,7.25,7.25,0,0,1,3.38-.74,6.77,6.77,0,0,1,3.19.68,6,6,0,0,1,2.12,1.84,7.44,7.44,0,0,1,1.17,2.66,13.88,13.88,0,0,1,.35,3.15q0,.53,0,1.19t-.05,1Zm5.25-3.08a8.85,8.85,0,0,0-.12-1.48,3.56,3.56,0,0,0-.42-1.2,2.15,2.15,0,0,0-.81-.81,2.63,2.63,0,0,0-1.31-.29,2.07,2.07,0,0,0-1.15.31,2.52,2.52,0,0,0-.8.82,4.13,4.13,0,0,0-.48,1.2,7.54,7.54,0,0,0-.2,1.44Z" transform="translate(-234.23 -796.21)"/><path class="cls-1" d="M400.41,821.9l-.35-1.5a9.07,9.07,0,0,1-1.66,1.29,4.6,4.6,0,0,1-2.46.59,4.9,4.9,0,0,1-3.78-1.49,5.77,5.77,0,0,1-1.38-4.08,5.89,5.89,0,0,1,.56-2.68,4.62,4.62,0,0,1,1.53-1.77,6.65,6.65,0,0,1,2.27-1,12.08,12.08,0,0,1,2.72-.3h1.92v-1a2,2,0,0,0-.71-1.66,3.12,3.12,0,0,0-1.93-.54,12.91,12.91,0,0,0-2.42.24,17.44,17.44,0,0,0-2.39.63V805l1.23-.3q.7-.16,1.45-.26t1.52-.17q.77-.07,1.4-.07a5.5,5.5,0,0,1,6.3,6.23V821.9Zm-.59-7.8h-1.59a3.58,3.58,0,0,0-2.14.57,2,2,0,0,0-.79,1.75,2.51,2.51,0,0,0,.5,1.58,1.9,1.9,0,0,0,1.6.65,3.25,3.25,0,0,0,1.34-.26,7.73,7.73,0,0,0,1.07-.58Z" transform="translate(-234.23 -796.21)"/><path class="cls-1" d="M411.54,809.25a1.3,1.3,0,0,0,.53,1.07,6.61,6.61,0,0,0,1.31.78l1.69.77a8.14,8.14,0,0,1,1.69,1,5.21,5.21,0,0,1,1.32,1.54,4.57,4.57,0,0,1,.53,2.29,5.1,5.1,0,0,1-1.73,4.06,6.93,6.93,0,0,1-4.71,1.5,16.27,16.27,0,0,1-2.45-.19,10.93,10.93,0,0,1-2.59-.75v-3.92a11.32,11.32,0,0,0,4.77,1.22,3.35,3.35,0,0,0,1.57-.33,1.26,1.26,0,0,0,.63-1.23,1.52,1.52,0,0,0-.52-1.21,5.69,5.69,0,0,0-1.3-.82q-.78-.36-1.71-.75a7.94,7.94,0,0,1-1.71-1,4.81,4.81,0,0,1-1.3-1.49,4.65,4.65,0,0,1-.52-2.34,4.89,4.89,0,0,1,1.79-3.88,5.85,5.85,0,0,1,2-1.07,8,8,0,0,1,2.47-.37,16.29,16.29,0,0,1,2.22.16,10,10,0,0,1,2.29.61v3.85a18.37,18.37,0,0,0-2.18-.74,7.44,7.44,0,0,0-1.84-.24,3.37,3.37,0,0,0-1.6.33A1.14,1.14,0,0,0,411.54,809.25Z" transform="translate(-234.23 -796.21)"/><path class="cls-1" d="M421.3,798.73a2.35,2.35,0,0,1,.77-1.82,3.2,3.2,0,0,1,4,0,2.35,2.35,0,0,1,.77,1.82,2.3,2.3,0,0,1-.77,1.8,3.26,3.26,0,0,1-4,0A2.29,2.29,0,0,1,421.3,798.73Zm5,23.17h-4.41V804.61h4.41Z" transform="translate(-234.23 -796.21)"/><path class="cls-1" d="M434.91,806.43a7.77,7.77,0,0,1,2-1.58,5.18,5.18,0,0,1,2.63-.67,4.57,4.57,0,0,1,3.73,1.54,5.88,5.88,0,0,1,1.28,3.88V821.9H440.1V810.43a3.84,3.84,0,0,0-.4-1.9,1.72,1.72,0,0,0-1.63-.7,3.77,3.77,0,0,0-1.58.35,6.29,6.29,0,0,0-1.47.95V821.9h-4.41V804.61h4Z" transform="translate(-234.23 -796.21)"/><path class="cls-1" d="M458.4,819.42a6.35,6.35,0,0,1-1.89,1.28,5.79,5.79,0,0,1-2.42.51,5.46,5.46,0,0,1-2.87-.72,6.12,6.12,0,0,1-2-1.87,8.32,8.32,0,0,1-1.14-2.62,12.21,12.21,0,0,1-.37-3,15,15,0,0,1,.35-3.24,8.52,8.52,0,0,1,1.16-2.83,6.14,6.14,0,0,1,2.1-2,6.24,6.24,0,0,1,3.19-.75,5.35,5.35,0,0,1,2.38.46,5.47,5.47,0,0,1,1.61,1.23l.35-1.26h3.92v16.63q0,3.6-2,5.23a8.67,8.67,0,0,1-5.67,1.63,29.23,29.23,0,0,1-3-.16,16.07,16.07,0,0,1-2.75-.51v-3.71a20.93,20.93,0,0,0,2.5.53,17.88,17.88,0,0,0,2.68.21,5.69,5.69,0,0,0,2.77-.57,2.22,2.22,0,0,0,1-2.13Zm0-10.75a3.81,3.81,0,0,0-1.19-.61,5.07,5.07,0,0,0-1.58-.23,2.88,2.88,0,0,0-1.7.46,3.36,3.36,0,0,0-1,1.18,5.08,5.08,0,0,0-.53,1.64,12,12,0,0,0-.14,1.8,9.65,9.65,0,0,0,.16,1.76,4.62,4.62,0,0,0,.53,1.48,2.77,2.77,0,0,0,2.54,1.41,4.65,4.65,0,0,0,1.58-.26,6.2,6.2,0,0,0,1.37-.68Z" transform="translate(-234.23 -796.21)"/><path class="cls-1" d="M482,821.9l-.35-1.5a9.06,9.06,0,0,1-1.66,1.29,4.6,4.6,0,0,1-2.46.59,4.9,4.9,0,0,1-3.78-1.49,5.77,5.77,0,0,1-1.38-4.08,5.88,5.88,0,0,1,.56-2.68,4.63,4.63,0,0,1,1.53-1.77,6.64,6.64,0,0,1,2.27-1,12.07,12.07,0,0,1,2.72-.3h1.92v-1a2,2,0,0,0-.71-1.66,3.13,3.13,0,0,0-1.93-.54,12.91,12.91,0,0,0-2.42.24,17.41,17.41,0,0,0-2.39.63V805l1.22-.3q.7-.16,1.45-.26t1.52-.17q.77-.07,1.4-.07a5.5,5.5,0,0,1,6.3,6.23V821.9Zm-.59-7.8h-1.59a3.58,3.58,0,0,0-2.14.57,2,2,0,0,0-.79,1.75,2.52,2.52,0,0,0,.5,1.58,1.9,1.9,0,0,0,1.6.65,3.25,3.25,0,0,0,1.34-.26,7.81,7.81,0,0,0,1.07-.58Z" transform="translate(-234.23 -796.21)"/><path class="cls-1" d="M497.67,818.65a9.39,9.39,0,0,0,2.07-.19,19.57,19.57,0,0,0,2-.58v3.67a10.52,10.52,0,0,1-2.26.56,17.6,17.6,0,0,1-2.47.17,9.22,9.22,0,0,1-3.62-.65,6.74,6.74,0,0,1-2.54-1.84,7.65,7.65,0,0,1-1.5-2.89,13.53,13.53,0,0,1-.49-3.76,11.58,11.58,0,0,1,.52-3.54,8,8,0,0,1,1.58-2.85,7.27,7.27,0,0,1,2.61-1.89,9,9,0,0,1,3.62-.68,15.53,15.53,0,0,1,2.22.14,16.45,16.45,0,0,1,2.08.45v3.78a19.14,19.14,0,0,0-1.84-.54,7.6,7.6,0,0,0-1.73-.19,4.17,4.17,0,0,0-3.39,1.38,5.62,5.62,0,0,0-1.16,3.72,10.72,10.72,0,0,0,.23,2.29,5.21,5.21,0,0,0,.74,1.81,3.49,3.49,0,0,0,1.33,1.19A4.42,4.42,0,0,0,497.67,818.65Z" transform="translate(-234.23 -796.21)"/><path class="cls-1" d="M512.26,818.65a9.39,9.39,0,0,0,2.07-.19,19.57,19.57,0,0,0,2-.58v3.67a10.52,10.52,0,0,1-2.26.56,17.61,17.61,0,0,1-2.47.17,9.22,9.22,0,0,1-3.62-.65,6.74,6.74,0,0,1-2.54-1.84,7.65,7.65,0,0,1-1.5-2.89,13.53,13.53,0,0,1-.49-3.76,11.58,11.58,0,0,1,.52-3.54,8,8,0,0,1,1.58-2.85,7.27,7.27,0,0,1,2.61-1.89,9,9,0,0,1,3.62-.68,15.54,15.54,0,0,1,2.22.14,16.45,16.45,0,0,1,2.08.45v3.78a19.14,19.14,0,0,0-1.84-.54,7.6,7.6,0,0,0-1.73-.19,4.17,4.17,0,0,0-3.39,1.38,5.62,5.62,0,0,0-1.16,3.72,10.72,10.72,0,0,0,.23,2.29,5.21,5.21,0,0,0,.74,1.81,3.49,3.49,0,0,0,1.33,1.19A4.42,4.42,0,0,0,512.26,818.65Z" transform="translate(-234.23 -796.21)"/><path class="cls-1" d="M533.51,813.26a13.6,13.6,0,0,1-.44,3.5,8,8,0,0,1-1.38,2.87,6.72,6.72,0,0,1-2.42,1.94,8,8,0,0,1-3.54.72,7.92,7.92,0,0,1-3.5-.72,6.73,6.73,0,0,1-2.42-1.94,8,8,0,0,1-1.38-2.87,13.56,13.56,0,0,1-.44-3.5,14,14,0,0,1,.42-3.46,8.12,8.12,0,0,1,1.35-2.89,6.65,6.65,0,0,1,2.4-2,9,9,0,0,1,7.14,0,6.81,6.81,0,0,1,2.42,2,8,8,0,0,1,1.37,2.89A14,14,0,0,1,533.51,813.26Zm-4.52-.07a18.75,18.75,0,0,0-.1-2,5.28,5.28,0,0,0-.46-1.7,3.07,3.07,0,0,0-1-1.19,2.88,2.88,0,0,0-1.71-.45,2.81,2.81,0,0,0-1.68.45,2.93,2.93,0,0,0-1,1.19,5.93,5.93,0,0,0-.46,1.7,15.89,15.89,0,0,0-.12,2,16.29,16.29,0,0,0,.12,2,6.41,6.41,0,0,0,.46,1.75,2.88,2.88,0,0,0,1,1.22,2.81,2.81,0,0,0,1.68.46,2.89,2.89,0,0,0,1.7-.46,2.83,2.83,0,0,0,1-1.22,6.41,6.41,0,0,0,.46-1.75A16.48,16.48,0,0,0,529,813.19Z" transform="translate(-234.23 -796.21)"/><path class="cls-1" d="M536.76,804.61h4.41v11.45a3.2,3.2,0,0,0,.47,1.94,2.08,2.08,0,0,0,1.73.61,3.29,3.29,0,0,0,1.52-.37,7.31,7.31,0,0,0,1.35-.89V804.61h4.41V821.9h-4l-.35-1.85a7.75,7.75,0,0,1-1.91,1.52,5,5,0,0,1-2.61.72,4.93,4.93,0,0,1-3.78-1.38,5.65,5.65,0,0,1-1.29-4Z" transform="translate(-234.23 -796.21)"/><path class="cls-1" d="M559.3,806.43a7.77,7.77,0,0,1,2-1.58,5.18,5.18,0,0,1,2.63-.67,4.57,4.57,0,0,1,3.73,1.54,5.88,5.88,0,0,1,1.28,3.88V821.9h-4.41V810.43a3.84,3.84,0,0,0-.4-1.9,1.72,1.72,0,0,0-1.63-.7,3.77,3.77,0,0,0-1.58.35,6.29,6.29,0,0,0-1.47.95V821.9H555V804.61h4Z" transform="translate(-234.23 -796.21)"/><path class="cls-1" d="M578.83,804.61h4.45v3.57h-4.45v8.07a2.61,2.61,0,0,0,.53,1.88,2.28,2.28,0,0,0,1.64.51,8.17,8.17,0,0,0,2.73-.46v3.57a15.34,15.34,0,0,1-1.79.38,14.31,14.31,0,0,1-2.13.14,5.39,5.39,0,0,1-4-1.4,5.49,5.49,0,0,1-1.38-4v-8.68H571.1v-3.57h3.32V800h4.41Z" transform="translate(-234.23 -796.21)"/><path class="cls-1" d="M607.81,812.91a17.27,17.27,0,0,1-.33,3.36,9.68,9.68,0,0,1-1.12,3,6.23,6.23,0,0,1-2.1,2.17,6,6,0,0,1-3.24.82,5.75,5.75,0,0,1-2.24-.38,4.75,4.75,0,0,1-1.61-1.12v7.07h-4.41V804.61h3.88l.35,1.61a6.19,6.19,0,0,1,1.92-1.44,5.63,5.63,0,0,1,2.55-.59,5.84,5.84,0,0,1,3,.72,5.63,5.63,0,0,1,1.94,1.91,8.35,8.35,0,0,1,1,2.78A17,17,0,0,1,607.81,812.91Zm-4.51.1a13.47,13.47,0,0,0-.12-1.8,5.48,5.48,0,0,0-.49-1.67,3.35,3.35,0,0,0-1-1.23,2.6,2.6,0,0,0-1.61-.48,4.39,4.39,0,0,0-1.58.28,5.27,5.27,0,0,0-1.37.77v8.61a5.75,5.75,0,0,0,1.22.82,3.4,3.4,0,0,0,1.54.33,2.66,2.66,0,0,0,1.7-.51,3.63,3.63,0,0,0,1-1.32,6.22,6.22,0,0,0,.53-1.81A14.5,14.5,0,0,0,603.3,813Z" transform="translate(-234.23 -796.21)"/><path class="cls-1" d="M614.71,814.69a4.58,4.58,0,0,0,1.26,2.84,4.28,4.28,0,0,0,3.2,1.11,9.36,9.36,0,0,0,2.44-.3,21,21,0,0,0,2.34-.79v3.71a10.32,10.32,0,0,1-2.42.75,15,15,0,0,1-2.83.26,10.55,10.55,0,0,1-3.9-.65,6.59,6.59,0,0,1-2.64-1.84,7.47,7.47,0,0,1-1.49-2.85,13.65,13.65,0,0,1-.47-3.73,12.63,12.63,0,0,1,.45-3.41,9,9,0,0,1,1.37-2.89,6.54,6.54,0,0,1,2.33-2,7.24,7.24,0,0,1,3.38-.74,6.77,6.77,0,0,1,3.19.68,6,6,0,0,1,2.12,1.84,7.45,7.45,0,0,1,1.17,2.66,13.91,13.91,0,0,1,.35,3.15q0,.53,0,1.19t-.05,1Zm5.25-3.08a8.91,8.91,0,0,0-.12-1.48,3.59,3.59,0,0,0-.42-1.2,2.16,2.16,0,0,0-.82-.81,2.63,2.63,0,0,0-1.31-.29,2.07,2.07,0,0,0-1.15.31,2.53,2.53,0,0,0-.8.82,4.16,4.16,0,0,0-.48,1.2,7.54,7.54,0,0,0-.2,1.44Z" transform="translate(-234.23 -796.21)"/><path class="cls-1" d="M632.28,806.43a7.77,7.77,0,0,1,2-1.58,5.18,5.18,0,0,1,2.63-.67,4.57,4.57,0,0,1,3.73,1.54,5.88,5.88,0,0,1,1.28,3.88V821.9h-4.41V810.43a3.84,3.84,0,0,0-.4-1.9,1.72,1.72,0,0,0-1.63-.7,3.77,3.77,0,0,0-1.58.35,6.29,6.29,0,0,0-1.47.95V821.9H628V804.61h4Z" transform="translate(-234.23 -796.21)"/><path class="cls-1" d="M649.64,814.69a4.58,4.58,0,0,0,1.26,2.84,4.28,4.28,0,0,0,3.2,1.11,9.36,9.36,0,0,0,2.44-.3,21,21,0,0,0,2.34-.79v3.71a10.32,10.32,0,0,1-2.42.75,15,15,0,0,1-2.83.26,10.55,10.55,0,0,1-3.9-.65,6.59,6.59,0,0,1-2.64-1.84,7.47,7.47,0,0,1-1.49-2.85,13.65,13.65,0,0,1-.47-3.73,12.63,12.63,0,0,1,.45-3.41,9,9,0,0,1,1.37-2.89,6.54,6.54,0,0,1,2.33-2,7.24,7.24,0,0,1,3.38-.74,6.77,6.77,0,0,1,3.19.68,6,6,0,0,1,2.12,1.84,7.45,7.45,0,0,1,1.17,2.66,13.91,13.91,0,0,1,.35,3.15q0,.53,0,1.19t-.05,1Zm5.25-3.08a8.91,8.91,0,0,0-.12-1.48,3.59,3.59,0,0,0-.42-1.2,2.16,2.16,0,0,0-.82-.81,2.63,2.63,0,0,0-1.31-.29,2.07,2.07,0,0,0-1.15.31,2.53,2.53,0,0,0-.8.82,4.16,4.16,0,0,0-.48,1.2,7.54,7.54,0,0,0-.2,1.44Z" transform="translate(-234.23 -796.21)"/><path class="cls-1" d="M668.61,804.61h4.45v3.57h-4.45v8.07a2.61,2.61,0,0,0,.53,1.88,2.28,2.28,0,0,0,1.64.51,8.17,8.17,0,0,0,2.73-.46v3.57a15.34,15.34,0,0,1-1.79.38,14.31,14.31,0,0,1-2.13.14,5.39,5.39,0,0,1-4-1.4,5.49,5.49,0,0,1-1.38-4v-8.68h-3.32v-3.57h3.32V800h4.41Z" transform="translate(-234.23 -796.21)"/><path class="cls-1" d="M680.44,807.41a6.39,6.39,0,0,1,1.89-2.43,3.81,3.81,0,0,1,2.28-.79,8.22,8.22,0,0,1,.95.05,3.26,3.26,0,0,1,.88.23V808a8.11,8.11,0,0,0-1-.12l-.74,0a5.71,5.71,0,0,0-2.19.44,7.2,7.2,0,0,0-1.87,1.1V821.9h-4.41V804.61h3.71Z" transform="translate(-234.23 -796.21)"/><path class="cls-1" d="M696.68,821.9l-.35-1.5a9.06,9.06,0,0,1-1.66,1.29,4.6,4.6,0,0,1-2.46.59,4.9,4.9,0,0,1-3.78-1.49,5.77,5.77,0,0,1-1.38-4.08,5.88,5.88,0,0,1,.56-2.68,4.63,4.63,0,0,1,1.53-1.77,6.64,6.64,0,0,1,2.27-1,12.07,12.07,0,0,1,2.72-.3H696v-1a2,2,0,0,0-.71-1.66,3.13,3.13,0,0,0-1.93-.54,12.91,12.91,0,0,0-2.42.24,17.41,17.41,0,0,0-2.39.63V805l1.22-.3q.7-.16,1.45-.26t1.52-.17q.77-.07,1.4-.07a5.5,5.5,0,0,1,6.3,6.23V821.9Zm-.59-7.8H694.5a3.58,3.58,0,0,0-2.14.57,2,2,0,0,0-.79,1.75,2.52,2.52,0,0,0,.5,1.58,1.9,1.9,0,0,0,1.6.65,3.25,3.25,0,0,0,1.34-.26,7.81,7.81,0,0,0,1.07-.58Z" transform="translate(-234.23 -796.21)"/><path class="cls-1" d="M710.19,804.61h4.45v3.57h-4.45v8.07a2.61,2.61,0,0,0,.53,1.88,2.28,2.28,0,0,0,1.64.51,8.17,8.17,0,0,0,2.73-.46v3.57a15.34,15.34,0,0,1-1.79.38,14.31,14.31,0,0,1-2.13.14,5.39,5.39,0,0,1-4-1.4,5.49,5.49,0,0,1-1.38-4v-8.68h-3.32v-3.57h3.32V800h4.41Z" transform="translate(-234.23 -796.21)"/><path class="cls-1" d="M717.26,798.73a2.35,2.35,0,0,1,.77-1.82,3.2,3.2,0,0,1,4,0,2.35,2.35,0,0,1,.77,1.82,2.29,2.29,0,0,1-.77,1.8,3.26,3.26,0,0,1-4,0A2.29,2.29,0,0,1,717.26,798.73Zm5,23.17h-4.41V804.61h4.41Z" transform="translate(-234.23 -796.21)"/><path class="cls-1" d="M741.09,813.26a13.6,13.6,0,0,1-.44,3.5,8,8,0,0,1-1.38,2.87,6.72,6.72,0,0,1-2.42,1.94,8,8,0,0,1-3.54.72,7.92,7.92,0,0,1-3.5-.72,6.73,6.73,0,0,1-2.42-1.94,8,8,0,0,1-1.38-2.87,13.56,13.56,0,0,1-.44-3.5,14,14,0,0,1,.42-3.46,8.12,8.12,0,0,1,1.35-2.89,6.65,6.65,0,0,1,2.4-2,9,9,0,0,1,7.14,0,6.81,6.81,0,0,1,2.42,2,8,8,0,0,1,1.37,2.89A14,14,0,0,1,741.09,813.26Zm-4.52-.07a18.75,18.75,0,0,0-.1-2,5.28,5.28,0,0,0-.46-1.7,3.07,3.07,0,0,0-1-1.19,2.88,2.88,0,0,0-1.71-.45,2.81,2.81,0,0,0-1.68.45,2.93,2.93,0,0,0-1,1.19,5.93,5.93,0,0,0-.46,1.7,15.89,15.89,0,0,0-.12,2,16.29,16.29,0,0,0,.12,2,6.41,6.41,0,0,0,.46,1.75,2.88,2.88,0,0,0,1,1.22,2.81,2.81,0,0,0,1.68.46,2.89,2.89,0,0,0,1.7-.46,2.83,2.83,0,0,0,1-1.22,6.41,6.41,0,0,0,.46-1.75A16.48,16.48,0,0,0,736.58,813.19Z" transform="translate(-234.23 -796.21)"/><path class="cls-1" d="M748.76,806.43a7.77,7.77,0,0,1,2-1.58,5.18,5.18,0,0,1,2.63-.67,4.57,4.57,0,0,1,3.73,1.54,5.88,5.88,0,0,1,1.28,3.88V821.9h-4.41V810.43a3.84,3.84,0,0,0-.4-1.9,1.72,1.72,0,0,0-1.63-.7,3.77,3.77,0,0,0-1.58.35,6.29,6.29,0,0,0-1.47.95V821.9h-4.41V804.61h4Z" transform="translate(-234.23 -796.21)"/><path class="cls-1" d="M768.5,819.38a2.81,2.81,0,0,1-.84,2.06,3.12,3.12,0,0,1-2.31.84,3.15,3.15,0,0,1-2.22-.79,3,3,0,0,1,0-4.22,3.12,3.12,0,0,1,2.22-.8,3.31,3.31,0,0,1,2.24.79A2.66,2.66,0,0,1,768.5,819.38Z" transform="translate(-234.23 -796.21)"/><path class="cls-1" d="M778.44,819.38a2.81,2.81,0,0,1-.84,2.06,3.12,3.12,0,0,1-2.31.84,3.15,3.15,0,0,1-2.22-.79,3,3,0,0,1,0-4.22,3.12,3.12,0,0,1,2.22-.8,3.31,3.31,0,0,1,2.24.79A2.66,2.66,0,0,1,778.44,819.38Z" transform="translate(-234.23 -796.21)"/><path class="cls-1" d="M788.38,819.38a2.81,2.81,0,0,1-.84,2.06,3.12,3.12,0,0,1-2.31.84,3.15,3.15,0,0,1-2.22-.79,3,3,0,0,1,0-4.22,3.12,3.12,0,0,1,2.22-.8,3.31,3.31,0,0,1,2.24.79A2.66,2.66,0,0,1,788.38,819.38Z" transform="translate(-234.23 -796.21)"/></svg>