<svg id="text" xmlns="http://www.w3.org/2000/svg" viewBox="0 0 374.21 165.86"><defs><style>.cls-1{fill:#004796;}</style></defs><path class="cls-1" d="M601.87,2464.67h11.57v2.69h-4.18V2482H606v-14.62h-4.18Z" transform="translate(-544.06 -2464.36)"/><path class="cls-1" d="M624.62,2482h-3v-7.86a2.63,2.63,0,0,0-.28-1.3,1.18,1.18,0,0,0-1.12-.48,2.58,2.58,0,0,0-1.08.24,4.31,4.31,0,0,0-1,.65V2482h-3v-17.3h3v6.6a5.75,5.75,0,0,1,1.31-1,3.49,3.49,0,0,1,1.76-.43,3.13,3.13,0,0,1,2.56,1.06,4,4,0,0,1,.88,2.66Z" transform="translate(-544.06 -2464.36)"/><path class="cls-1" d="M630,2477a3.15,3.15,0,0,0,.87,1.95,2.94,2.94,0,0,0,2.19.76,6.45,6.45,0,0,0,1.67-.2,14.63,14.63,0,0,0,1.6-.54v2.54a7.05,7.05,0,0,1-1.66.52,10.26,10.26,0,0,1-1.94.18,7.26,7.26,0,0,1-2.68-.44,4.55,4.55,0,0,1-1.81-1.26,5.14,5.14,0,0,1-1-2,9.35,9.35,0,0,1-.32-2.56,8.65,8.65,0,0,1,.31-2.34,6.18,6.18,0,0,1,.94-2,4.47,4.47,0,0,1,1.6-1.37,5,5,0,0,1,2.32-.5,4.64,4.64,0,0,1,2.18.47,4.11,4.11,0,0,1,1.45,1.26,5.12,5.12,0,0,1,.8,1.82,9.5,9.5,0,0,1,.24,2.16q0,.36,0,.82t0,.67Zm3.6-2.11a6,6,0,0,0-.08-1,2.44,2.44,0,0,0-.28-.83,1.48,1.48,0,0,0-.56-.55,1.8,1.8,0,0,0-.9-.2,1.42,1.42,0,0,0-.79.21,1.72,1.72,0,0,0-.55.57,2.85,2.85,0,0,0-.33.83,5.25,5.25,0,0,0-.14,1Z" transform="translate(-544.06 -2464.36)"/><path class="cls-1" d="M653.62,2477.75l1.73-7.63h3L654.93,2482h-2.64l-2-8.21-1.87,8.21h-2.74l-3.58-11.86h3l2,7.66,1.8-7.66h2.86Z" transform="translate(-544.06 -2464.36)"/><path class="cls-1" d="M670,2476.05a9.34,9.34,0,0,1-.3,2.4,5.51,5.51,0,0,1-.95,2,4.6,4.6,0,0,1-1.66,1.33,5.48,5.48,0,0,1-2.42.49,5.42,5.42,0,0,1-2.4-.49,4.59,4.59,0,0,1-1.66-1.33,5.46,5.46,0,0,1-.95-2,9.3,9.3,0,0,1-.3-2.4,9.61,9.61,0,0,1,.29-2.38,5.58,5.58,0,0,1,.92-2,4.56,4.56,0,0,1,1.64-1.36,6.2,6.2,0,0,1,4.9,0,4.67,4.67,0,0,1,1.66,1.36,5.47,5.47,0,0,1,.94,2A9.61,9.61,0,0,1,670,2476.05Zm-3.1,0a12.75,12.75,0,0,0-.07-1.38,3.59,3.59,0,0,0-.31-1.16,2.1,2.1,0,0,0-.67-.82,2,2,0,0,0-1.18-.31,1.93,1.93,0,0,0-1.15.31,2,2,0,0,0-.66.82,4,4,0,0,0-.31,1.16,10.79,10.79,0,0,0-.08,1.38,11.09,11.09,0,0,0,.08,1.39,4.37,4.37,0,0,0,.31,1.2,2,2,0,0,0,.66.84,1.93,1.93,0,0,0,1.15.31,2,2,0,0,0,1.16-.31,1.94,1.94,0,0,0,.67-.84,4.41,4.41,0,0,0,.31-1.2A11.09,11.09,0,0,0,666.91,2476Z" transform="translate(-544.06 -2464.36)"/><path class="cls-1" d="M675.19,2472a4.39,4.39,0,0,1,1.3-1.67,2.61,2.61,0,0,1,1.56-.54,5.56,5.56,0,0,1,.65,0,2.21,2.21,0,0,1,.6.16v2.4a5.65,5.65,0,0,0-.67-.08h-.5a3.92,3.92,0,0,0-1.5.3,4.93,4.93,0,0,0-1.28.76V2482h-3v-11.86h2.54Z" transform="translate(-544.06 -2464.36)"/><path class="cls-1" d="M684,2482h-3v-17.3h3Z" transform="translate(-544.06 -2464.36)"/><path class="cls-1" d="M696.69,2482h-2.62l-.24-1a4.27,4.27,0,0,1-1.18.9,3.7,3.7,0,0,1-1.73.37,4.16,4.16,0,0,1-2.13-.5,4,4,0,0,1-1.4-1.36,6,6,0,0,1-.78-2,11.38,11.38,0,0,1-.24-2.38,9.43,9.43,0,0,1,.27-2.27,6.24,6.24,0,0,1,.86-2,4.5,4.5,0,0,1,1.5-1.4,4.27,4.27,0,0,1,2.18-.53,3.12,3.12,0,0,1,1.47.31,4.12,4.12,0,0,1,1,.72v-6.19h3Zm-3-9.07a3.5,3.5,0,0,0-.76-.41,2.9,2.9,0,0,0-1-.17,2.15,2.15,0,0,0-1.16.29,2.11,2.11,0,0,0-.74.79,3.52,3.52,0,0,0-.38,1.16,9.27,9.27,0,0,0,0,2.81,4.17,4.17,0,0,0,.37,1.21,2.17,2.17,0,0,0,.72.85,2,2,0,0,0,1.17.31,2.86,2.86,0,0,0,1-.17,3.75,3.75,0,0,0,.83-.43Z" transform="translate(-544.06 -2464.36)"/><path class="cls-1" d="M709.87,2482l-.24-1a6.17,6.17,0,0,1-1.14.89,3.15,3.15,0,0,1-1.69.41,3.36,3.36,0,0,1-2.59-1,4,4,0,0,1-.94-2.8,4,4,0,0,1,.38-1.84,3.16,3.16,0,0,1,1.05-1.21,4.52,4.52,0,0,1,1.55-.66,8.29,8.29,0,0,1,1.87-.2h1.31v-.67a1.34,1.34,0,0,0-.49-1.14,2.14,2.14,0,0,0-1.33-.37,8.84,8.84,0,0,0-1.66.17,12.12,12.12,0,0,0-1.64.43v-2.54l.84-.2q.48-.11,1-.18l1-.12c.35,0,.67,0,1,0a3.77,3.77,0,0,1,4.32,4.27V2482Zm-.41-5.35h-1.09a2.45,2.45,0,0,0-1.46.39,1.38,1.38,0,0,0-.54,1.2,1.72,1.72,0,0,0,.34,1.08,1.3,1.3,0,0,0,1.1.45,2.23,2.23,0,0,0,.92-.18,5.23,5.23,0,0,0,.73-.4Z" transform="translate(-544.06 -2464.36)"/><path class="cls-1" d="M718.1,2472a4.39,4.39,0,0,1,1.3-1.67,2.61,2.61,0,0,1,1.56-.54,5.56,5.56,0,0,1,.65,0,2.21,2.21,0,0,1,.6.16v2.4a5.65,5.65,0,0,0-.67-.08H721a3.92,3.92,0,0,0-1.5.3,4.93,4.93,0,0,0-1.28.76V2482h-3v-11.86h2.54Z" transform="translate(-544.06 -2464.36)"/><path class="cls-1" d="M733.46,2476.05a9.34,9.34,0,0,1-.3,2.4,5.51,5.51,0,0,1-.95,2,4.6,4.6,0,0,1-1.66,1.33,5.48,5.48,0,0,1-2.42.49,5.42,5.42,0,0,1-2.4-.49,4.59,4.59,0,0,1-1.66-1.33,5.46,5.46,0,0,1-.95-2,9.3,9.3,0,0,1-.3-2.4,9.61,9.61,0,0,1,.29-2.38,5.58,5.58,0,0,1,.92-2,4.56,4.56,0,0,1,1.64-1.36,6.2,6.2,0,0,1,4.9,0,4.67,4.67,0,0,1,1.66,1.36,5.47,5.47,0,0,1,.94,2A9.61,9.61,0,0,1,733.46,2476.05Zm-3.1,0a12.75,12.75,0,0,0-.07-1.38,3.59,3.59,0,0,0-.31-1.16,2.1,2.1,0,0,0-.67-.82,2,2,0,0,0-1.18-.31,1.93,1.93,0,0,0-1.15.31,2,2,0,0,0-.66.82,4,4,0,0,0-.31,1.16,10.79,10.79,0,0,0-.08,1.38,11.09,11.09,0,0,0,.08,1.39,4.37,4.37,0,0,0,.31,1.2,2,2,0,0,0,.66.84,1.93,1.93,0,0,0,1.15.31,2,2,0,0,0,1.16-.31,1.94,1.94,0,0,0,.67-.84,4.41,4.41,0,0,0,.31-1.2A11.09,11.09,0,0,0,730.37,2476Z" transform="translate(-544.06 -2464.36)"/><path class="cls-1" d="M735.69,2470.12h3V2478a2.19,2.19,0,0,0,.32,1.33,1.43,1.43,0,0,0,1.19.42,2.26,2.26,0,0,0,1-.25,5,5,0,0,0,.92-.61v-8.74h3V2482h-2.71l-.24-1.27a5.31,5.31,0,0,1-1.31,1,3.44,3.44,0,0,1-1.79.49,3.38,3.38,0,0,1-2.59-.95,3.88,3.88,0,0,1-.89-2.75Z" transform="translate(-544.06 -2464.36)"/><path class="cls-1" d="M751.15,2471.37a5.29,5.29,0,0,1,1.34-1.08,3.53,3.53,0,0,1,1.8-.46,3.13,3.13,0,0,1,2.56,1.06,4,4,0,0,1,.88,2.66V2482h-3v-7.86a2.63,2.63,0,0,0-.28-1.3,1.17,1.17,0,0,0-1.12-.48,2.58,2.58,0,0,0-1.08.24,4.35,4.35,0,0,0-1,.65V2482h-3v-11.86h2.71Z" transform="translate(-544.06 -2464.36)"/><path class="cls-1" d="M770.28,2482h-2.62l-.24-1a4.27,4.27,0,0,1-1.18.9,3.7,3.7,0,0,1-1.73.37,4.16,4.16,0,0,1-2.13-.5,4,4,0,0,1-1.4-1.36,6,6,0,0,1-.78-2A11.38,11.38,0,0,1,760,2476a9.43,9.43,0,0,1,.27-2.27,6.24,6.24,0,0,1,.86-2,4.5,4.5,0,0,1,1.5-1.4,4.27,4.27,0,0,1,2.18-.53,3.12,3.12,0,0,1,1.47.31,4.12,4.12,0,0,1,1,.72v-6.19h3Zm-3-9.07a3.5,3.5,0,0,0-.76-.41,2.9,2.9,0,0,0-1-.17,2.15,2.15,0,0,0-1.16.29,2.11,2.11,0,0,0-.74.79,3.52,3.52,0,0,0-.38,1.16,9.27,9.27,0,0,0,0,2.81,4.17,4.17,0,0,0,.37,1.21,2.17,2.17,0,0,0,.72.85,2,2,0,0,0,1.17.31,2.86,2.86,0,0,0,1-.17,3.75,3.75,0,0,0,.83-.43Z" transform="translate(-544.06 -2464.36)"/><path class="cls-1" d="M777.52,2470.12h3V2478a2.19,2.19,0,0,0,.32,1.33,1.43,1.43,0,0,0,1.19.42,2.26,2.26,0,0,0,1-.25,5,5,0,0,0,.92-.61v-8.74h3V2482h-2.71l-.24-1.27a5.31,5.31,0,0,1-1.31,1,3.44,3.44,0,0,1-1.79.49,3.38,3.38,0,0,1-2.59-.95,3.88,3.88,0,0,1-.89-2.75Z" transform="translate(-544.06 -2464.36)"/><path class="cls-1" d="M792.31,2473.3a.9.9,0,0,0,.36.74,4.58,4.58,0,0,0,.9.54l1.16.53a5.58,5.58,0,0,1,1.16.7,3.56,3.56,0,0,1,.9,1.06,3.13,3.13,0,0,1,.36,1.57,3.5,3.5,0,0,1-1.19,2.78,4.76,4.76,0,0,1-3.23,1,11.14,11.14,0,0,1-1.68-.13,7.5,7.5,0,0,1-1.78-.52v-2.69a7.75,7.75,0,0,0,3.27.84,2.3,2.3,0,0,0,1.08-.22.87.87,0,0,0,.43-.85,1,1,0,0,0-.36-.83,3.9,3.9,0,0,0-.89-.56c-.36-.17-.75-.34-1.17-.51a5.42,5.42,0,0,1-1.17-.66,3.3,3.3,0,0,1-.89-1,3.19,3.19,0,0,1-.36-1.61,3.36,3.36,0,0,1,1.22-2.66,4,4,0,0,1,1.36-.73,5.47,5.47,0,0,1,1.69-.25,11.22,11.22,0,0,1,1.52.11,6.87,6.87,0,0,1,1.57.42V2473a13,13,0,0,0-1.49-.5,5.09,5.09,0,0,0-1.26-.17,2.31,2.31,0,0,0-1.1.23A.78.78,0,0,0,792.31,2473.3Z" transform="translate(-544.06 -2464.36)"/><path class="cls-1" d="M803.32,2466.09a1.61,1.61,0,0,1,.53-1.25,2.19,2.19,0,0,1,2.74,0,1.61,1.61,0,0,1,.53,1.25,1.57,1.57,0,0,1-.53,1.24,2.23,2.23,0,0,1-2.74,0A1.57,1.57,0,0,1,803.32,2466.09Zm3.41,15.89h-3v-11.86h3Z" transform="translate(-544.06 -2464.36)"/><path class="cls-1" d="M812,2473.3a.9.9,0,0,0,.36.74,4.58,4.58,0,0,0,.9.54l1.16.53a5.58,5.58,0,0,1,1.16.7,3.56,3.56,0,0,1,.9,1.06,3.13,3.13,0,0,1,.36,1.57,3.5,3.5,0,0,1-1.19,2.78,4.76,4.76,0,0,1-3.23,1,11.14,11.14,0,0,1-1.68-.13,7.5,7.5,0,0,1-1.78-.52v-2.69a7.75,7.75,0,0,0,3.27.84,2.3,2.3,0,0,0,1.08-.22.87.87,0,0,0,.43-.85,1,1,0,0,0-.36-.83,3.9,3.9,0,0,0-.89-.56c-.36-.17-.75-.34-1.17-.51a5.42,5.42,0,0,1-1.17-.66,3.3,3.3,0,0,1-.89-1,3.19,3.19,0,0,1-.36-1.61,3.36,3.36,0,0,1,1.22-2.66,4,4,0,0,1,1.36-.73,5.47,5.47,0,0,1,1.69-.25,11.22,11.22,0,0,1,1.52.11,6.87,6.87,0,0,1,1.57.42V2473a13,13,0,0,0-1.49-.5,5.09,5.09,0,0,0-1.26-.17,2.31,2.31,0,0,0-1.1.23A.78.78,0,0,0,812,2473.3Z" transform="translate(-544.06 -2464.36)"/><path class="cls-1" d="M828.79,2479.75a6.46,6.46,0,0,0,1.42-.13,13.54,13.54,0,0,0,1.34-.4v2.52a7.22,7.22,0,0,1-1.55.38,12.24,12.24,0,0,1-1.69.12,6.35,6.35,0,0,1-2.48-.44,4.65,4.65,0,0,1-1.74-1.26,5.25,5.25,0,0,1-1-2,9.26,9.26,0,0,1-.34-2.58,7.92,7.92,0,0,1,.36-2.42,5.49,5.49,0,0,1,1.08-2,5,5,0,0,1,1.79-1.3,6.13,6.13,0,0,1,2.48-.47,10.77,10.77,0,0,1,1.52.1,11.33,11.33,0,0,1,1.43.31v2.59q-.7-.24-1.26-.37a5.2,5.2,0,0,0-1.19-.13,2.86,2.86,0,0,0-2.33.95,3.85,3.85,0,0,0-.79,2.55,7.35,7.35,0,0,0,.16,1.57,3.58,3.58,0,0,0,.5,1.24,2.39,2.39,0,0,0,.91.81A3,3,0,0,0,828.79,2479.75Z" transform="translate(-544.06 -2464.36)"/><path class="cls-1" d="M843.09,2482h-3v-7.86a2.63,2.63,0,0,0-.28-1.3,1.18,1.18,0,0,0-1.12-.48,2.58,2.58,0,0,0-1.08.24,4.31,4.31,0,0,0-1,.65V2482h-3v-17.3h3v6.6a5.75,5.75,0,0,1,1.31-1,3.49,3.49,0,0,1,1.76-.43,3.13,3.13,0,0,1,2.56,1.06,4,4,0,0,1,.88,2.66Z" transform="translate(-544.06 -2464.36)"/><path class="cls-1" d="M851.85,2482l-.24-1a6.17,6.17,0,0,1-1.14.89,3.15,3.15,0,0,1-1.69.41,3.36,3.36,0,0,1-2.59-1,4,4,0,0,1-.94-2.8,4,4,0,0,1,.38-1.84,3.16,3.16,0,0,1,1.05-1.21,4.52,4.52,0,0,1,1.55-.66,8.29,8.29,0,0,1,1.87-.2h1.31v-.67a1.34,1.34,0,0,0-.49-1.14,2.14,2.14,0,0,0-1.33-.37,8.84,8.84,0,0,0-1.66.17,12.12,12.12,0,0,0-1.64.43v-2.54l.84-.2q.48-.11,1-.18l1-.12c.35,0,.67,0,1,0a3.77,3.77,0,0,1,4.32,4.27V2482Zm-.41-5.35h-1.09a2.45,2.45,0,0,0-1.46.39,1.38,1.38,0,0,0-.54,1.2,1.72,1.72,0,0,0,.34,1.08,1.3,1.3,0,0,0,1.1.45,2.23,2.23,0,0,0,.92-.18,5.23,5.23,0,0,0,.73-.4Z" transform="translate(-544.06 -2464.36)"/><path class="cls-1" d="M860.16,2471.37a5.29,5.29,0,0,1,1.34-1.08,3.53,3.53,0,0,1,1.8-.46,3.13,3.13,0,0,1,2.56,1.06,4,4,0,0,1,.88,2.66V2482h-3v-7.86a2.63,2.63,0,0,0-.28-1.3,1.17,1.17,0,0,0-1.12-.48,2.58,2.58,0,0,0-1.08.24,4.35,4.35,0,0,0-1,.65V2482h-3v-11.86h2.71Z" transform="translate(-544.06 -2464.36)"/><path class="cls-1" d="M876.26,2480.27a4.34,4.34,0,0,1-1.3.88,4,4,0,0,1-1.66.35,3.74,3.74,0,0,1-2-.49,4.2,4.2,0,0,1-1.34-1.28,5.72,5.72,0,0,1-.78-1.8,8.38,8.38,0,0,1-.25-2,10.31,10.31,0,0,1,.24-2.22,5.85,5.85,0,0,1,.79-1.94,4.22,4.22,0,0,1,1.44-1.37,4.29,4.29,0,0,1,2.18-.52,3.67,3.67,0,0,1,1.63.31,3.76,3.76,0,0,1,1.1.84l.24-.86h2.69v11.4a4.41,4.41,0,0,1-1.34,3.59,5.94,5.94,0,0,1-3.89,1.12,20.16,20.16,0,0,1-2.05-.11,11.12,11.12,0,0,1-1.88-.35v-2.54a14.13,14.13,0,0,0,1.72.36,12.14,12.14,0,0,0,1.84.14,3.91,3.91,0,0,0,1.9-.39,1.53,1.53,0,0,0,.7-1.46Zm0-7.37a2.63,2.63,0,0,0-.82-.42,3.5,3.5,0,0,0-1.08-.16,2,2,0,0,0-1.16.31,2.3,2.3,0,0,0-.71.81,3.46,3.46,0,0,0-.36,1.12,8.24,8.24,0,0,0-.1,1.23,6.66,6.66,0,0,0,.11,1.21,3.16,3.16,0,0,0,.36,1,1.9,1.9,0,0,0,1.74,1,3.19,3.19,0,0,0,1.08-.18,4.21,4.21,0,0,0,.94-.47Z" transform="translate(-544.06 -2464.36)"/><path class="cls-1" d="M881.87,2466.09a1.61,1.61,0,0,1,.53-1.25,2.19,2.19,0,0,1,2.74,0,1.61,1.61,0,0,1,.53,1.25,1.57,1.57,0,0,1-.53,1.24,2.23,2.23,0,0,1-2.74,0A1.57,1.57,0,0,1,881.87,2466.09Zm3.41,15.89h-3v-11.86h3Z" transform="translate(-544.06 -2464.36)"/><path class="cls-1" d="M891.21,2471.37a5.29,5.29,0,0,1,1.34-1.08,3.53,3.53,0,0,1,1.8-.46,3.13,3.13,0,0,1,2.56,1.06,4,4,0,0,1,.88,2.66V2482h-3v-7.86a2.63,2.63,0,0,0-.28-1.3,1.17,1.17,0,0,0-1.12-.48,2.58,2.58,0,0,0-1.08.24,4.35,4.35,0,0,0-1,.65V2482h-3v-11.86H891Z" transform="translate(-544.06 -2464.36)"/><path class="cls-1" d="M907.31,2480.27a4.34,4.34,0,0,1-1.3.88,4,4,0,0,1-1.66.35,3.74,3.74,0,0,1-2-.49,4.2,4.2,0,0,1-1.34-1.28,5.72,5.72,0,0,1-.78-1.8,8.38,8.38,0,0,1-.25-2,10.31,10.31,0,0,1,.24-2.22,5.85,5.85,0,0,1,.79-1.94,4.22,4.22,0,0,1,1.44-1.37,4.29,4.29,0,0,1,2.18-.52,3.67,3.67,0,0,1,1.63.31,3.76,3.76,0,0,1,1.1.84l.24-.86h2.69v11.4a4.41,4.41,0,0,1-1.34,3.59,5.94,5.94,0,0,1-3.89,1.12,20.16,20.16,0,0,1-2.05-.11,11.12,11.12,0,0,1-1.88-.35v-2.54a14.13,14.13,0,0,0,1.72.36,12.14,12.14,0,0,0,1.84.14,3.91,3.91,0,0,0,1.9-.39,1.53,1.53,0,0,0,.7-1.46Zm0-7.37a2.63,2.63,0,0,0-.82-.42,3.5,3.5,0,0,0-1.08-.16,2,2,0,0,0-1.16.31,2.3,2.3,0,0,0-.71.81,3.46,3.46,0,0,0-.36,1.12,8.24,8.24,0,0,0-.1,1.23,6.66,6.66,0,0,0,.11,1.21,3.16,3.16,0,0,0,.36,1,1.9,1.9,0,0,0,1.74,1,3.19,3.19,0,0,0,1.08-.18,4.21,4.21,0,0,0,.94-.47Z" transform="translate(-544.06 -2464.36)"/><path class="cls-1" d="M917.37,2480.25a1.92,1.92,0,0,1-.58,1.42,2.14,2.14,0,0,1-1.58.58,2.16,2.16,0,0,1-1.52-.54,2.07,2.07,0,0,1,0-2.89,2.14,2.14,0,0,1,1.52-.55,2.26,2.26,0,0,1,1.54.54A1.82,1.82,0,0,1,917.37,2480.25Z" transform="translate(-544.06 -2464.36)"/><path class="cls-1" d="M552.24,2493.47h11.57v2.69h-4.18v14.62h-3.22v-14.62h-4.18Z" transform="translate(-544.06 -2464.36)"/><path class="cls-1" d="M566.14,2505.83a3.15,3.15,0,0,0,.87,1.95,2.93,2.93,0,0,0,2.19.76,6.45,6.45,0,0,0,1.67-.2,14.41,14.41,0,0,0,1.6-.54v2.54a7.1,7.1,0,0,1-1.66.52,10.34,10.34,0,0,1-1.94.18,7.24,7.24,0,0,1-2.68-.44,4.53,4.53,0,0,1-1.81-1.26,5.13,5.13,0,0,1-1-2,9.35,9.35,0,0,1-.32-2.56,8.65,8.65,0,0,1,.31-2.34,6.18,6.18,0,0,1,.94-2,4.47,4.47,0,0,1,1.6-1.37,5,5,0,0,1,2.32-.5,4.64,4.64,0,0,1,2.18.47,4.09,4.09,0,0,1,1.45,1.26,5.11,5.11,0,0,1,.8,1.82,9.49,9.49,0,0,1,.24,2.16c0,.24,0,.51,0,.82s0,.53,0,.67Zm3.6-2.11a6,6,0,0,0-.08-1,2.44,2.44,0,0,0-.28-.82,1.48,1.48,0,0,0-.56-.55,1.8,1.8,0,0,0-.9-.2,1.41,1.41,0,0,0-.79.21,1.72,1.72,0,0,0-.55.56,2.86,2.86,0,0,0-.33.83,5.25,5.25,0,0,0-.14,1Z" transform="translate(-544.06 -2464.36)"/><path class="cls-1" d="M580.63,2508.55a6.46,6.46,0,0,0,1.42-.13,13.51,13.51,0,0,0,1.34-.4v2.52a7.22,7.22,0,0,1-1.55.38,12.25,12.25,0,0,1-1.69.12,6.33,6.33,0,0,1-2.48-.44,4.62,4.62,0,0,1-1.74-1.26,5.24,5.24,0,0,1-1-2,9.27,9.27,0,0,1-.34-2.58,7.92,7.92,0,0,1,.36-2.42,5.5,5.5,0,0,1,1.08-2,5,5,0,0,1,1.79-1.29,6.13,6.13,0,0,1,2.48-.47,10.79,10.79,0,0,1,1.52.1,11.34,11.34,0,0,1,1.43.31v2.59c-.46-.16-.88-.28-1.26-.37a5.26,5.26,0,0,0-1.19-.13,2.86,2.86,0,0,0-2.33.95,3.86,3.86,0,0,0-.79,2.55,7.34,7.34,0,0,0,.16,1.57,3.58,3.58,0,0,0,.5,1.24,2.39,2.39,0,0,0,.91.81A3,3,0,0,0,580.63,2508.55Z" transform="translate(-544.06 -2464.36)"/><path class="cls-1" d="M594.94,2510.78h-3v-7.86a2.63,2.63,0,0,0-.28-1.3,1.18,1.18,0,0,0-1.12-.48,2.58,2.58,0,0,0-1.08.24,4.28,4.28,0,0,0-1,.65v8.76h-3v-17.3h3v6.6a5.81,5.81,0,0,1,1.31-1,3.5,3.5,0,0,1,1.76-.43,3.13,3.13,0,0,1,2.56,1.06,4,4,0,0,1,.88,2.66Z" transform="translate(-544.06 -2464.36)"/><path class="cls-1" d="M600.79,2500.17a5.29,5.29,0,0,1,1.34-1.08,3.54,3.54,0,0,1,1.8-.46,3.13,3.13,0,0,1,2.56,1.06,4,4,0,0,1,.88,2.66v8.42h-3v-7.86a2.63,2.63,0,0,0-.28-1.3,1.17,1.17,0,0,0-1.12-.48,2.58,2.58,0,0,0-1.08.24,4.32,4.32,0,0,0-1,.65v8.76h-3v-11.86h2.71Z" transform="translate(-544.06 -2464.36)"/><path class="cls-1" d="M620.23,2504.85a9.34,9.34,0,0,1-.3,2.4,5.52,5.52,0,0,1-.95,2,4.61,4.61,0,0,1-1.66,1.33,5.48,5.48,0,0,1-2.42.49,5.42,5.42,0,0,1-2.4-.49,4.6,4.6,0,0,1-1.66-1.33,5.47,5.47,0,0,1-.95-2,9.3,9.3,0,0,1-.3-2.4,9.6,9.6,0,0,1,.29-2.38,5.58,5.58,0,0,1,.92-2,4.57,4.57,0,0,1,1.64-1.36,6.2,6.2,0,0,1,4.9,0,4.68,4.68,0,0,1,1.66,1.36,5.46,5.46,0,0,1,.94,2A9.6,9.6,0,0,1,620.23,2504.85Zm-3.1,0a12.77,12.77,0,0,0-.07-1.38,3.59,3.59,0,0,0-.31-1.16,2.09,2.09,0,0,0-.67-.82,2,2,0,0,0-1.18-.31,1.92,1.92,0,0,0-1.15.31,2,2,0,0,0-.66.82,4,4,0,0,0-.31,1.16,10.81,10.81,0,0,0-.08,1.38,11.1,11.1,0,0,0,.08,1.39,4.36,4.36,0,0,0,.31,1.2,2,2,0,0,0,.66.84,1.92,1.92,0,0,0,1.15.31,2,2,0,0,0,1.16-.31,1.94,1.94,0,0,0,.67-.84,4.4,4.4,0,0,0,.31-1.2A11.1,11.1,0,0,0,617.14,2504.8Z" transform="translate(-544.06 -2464.36)"/><path class="cls-1" d="M625.58,2510.78h-3v-17.3h3Z" transform="translate(-544.06 -2464.36)"/><path class="cls-1" d="M638.54,2504.85a9.34,9.34,0,0,1-.3,2.4,5.52,5.52,0,0,1-.95,2,4.61,4.61,0,0,1-1.66,1.33,5.48,5.48,0,0,1-2.42.49,5.42,5.42,0,0,1-2.4-.49,4.6,4.6,0,0,1-1.66-1.33,5.47,5.47,0,0,1-.95-2,9.3,9.3,0,0,1-.3-2.4,9.6,9.6,0,0,1,.29-2.38,5.58,5.58,0,0,1,.92-2,4.57,4.57,0,0,1,1.64-1.36,6.2,6.2,0,0,1,4.9,0,4.68,4.68,0,0,1,1.66,1.36,5.46,5.46,0,0,1,.94,2A9.6,9.6,0,0,1,638.54,2504.85Zm-3.1,0a12.77,12.77,0,0,0-.07-1.38,3.59,3.59,0,0,0-.31-1.16,2.09,2.09,0,0,0-.67-.82,2,2,0,0,0-1.18-.31,1.92,1.92,0,0,0-1.15.31,2,2,0,0,0-.66.82,4,4,0,0,0-.31,1.16,10.81,10.81,0,0,0-.08,1.38,11.1,11.1,0,0,0,.08,1.39,4.36,4.36,0,0,0,.31,1.2,2,2,0,0,0,.66.84,1.92,1.92,0,0,0,1.15.31,2,2,0,0,0,1.16-.31,1.94,1.94,0,0,0,.67-.84,4.4,4.4,0,0,0,.31-1.2A11.1,11.1,0,0,0,635.45,2504.8Z" transform="translate(-544.06 -2464.36)"/><path class="cls-1" d="M647.47,2509.07a4.36,4.36,0,0,1-1.3.88,4,4,0,0,1-1.66.35,3.74,3.74,0,0,1-2-.49,4.21,4.21,0,0,1-1.34-1.28,5.74,5.74,0,0,1-.78-1.8,8.38,8.38,0,0,1-.25-2,10.31,10.31,0,0,1,.24-2.22,5.84,5.84,0,0,1,.79-1.94,4.22,4.22,0,0,1,1.44-1.37,4.29,4.29,0,0,1,2.18-.52,3.66,3.66,0,0,1,1.63.31,3.74,3.74,0,0,1,1.1.84l.24-.86h2.69v11.4a4.41,4.41,0,0,1-1.34,3.59,5.94,5.94,0,0,1-3.89,1.12,20.16,20.16,0,0,1-2.05-.11,11,11,0,0,1-1.88-.35V2512a14.32,14.32,0,0,0,1.72.36,12.27,12.27,0,0,0,1.84.14,3.91,3.91,0,0,0,1.9-.39,1.52,1.52,0,0,0,.7-1.46Zm0-7.37a2.61,2.61,0,0,0-.82-.42,3.5,3.5,0,0,0-1.08-.16,2,2,0,0,0-1.16.31,2.29,2.29,0,0,0-.71.81,3.47,3.47,0,0,0-.36,1.12,8.24,8.24,0,0,0-.1,1.23,6.65,6.65,0,0,0,.11,1.21,3.18,3.18,0,0,0,.36,1,1.9,1.9,0,0,0,1.74,1,3.21,3.21,0,0,0,1.08-.18,4.26,4.26,0,0,0,.94-.47Z" transform="translate(-544.06 -2464.36)"/><path class="cls-1" d="M657.83,2506.75l2.44-7.82h3l-4.25,12a16.75,16.75,0,0,1-.78,1.84,4.76,4.76,0,0,1-.94,1.3,3.45,3.45,0,0,1-1.26.77,5.25,5.25,0,0,1-1.73.25q-.46,0-1,0a5.86,5.86,0,0,1-1-.16v-2.52a8.87,8.87,0,0,0,.95.14l.76,0a1.88,1.88,0,0,0,1.24-.34,2.35,2.35,0,0,0,.64-.91l.38-.91-4.08-11.4h3Z" transform="translate(-544.06 -2464.36)"/><path class="cls-1" d="M668.88,2494.89a1.61,1.61,0,0,1,.53-1.25,2.19,2.19,0,0,1,2.74,0,1.61,1.61,0,0,1,.53,1.25,1.57,1.57,0,0,1-.53,1.24,2.23,2.23,0,0,1-2.74,0A1.57,1.57,0,0,1,668.88,2494.89Zm3.41,15.89h-3v-11.86h3Z" transform="translate(-544.06 -2464.36)"/><path class="cls-1" d="M677.54,2502.11a.89.89,0,0,0,.36.74,4.48,4.48,0,0,0,.9.54l1.16.53a5.58,5.58,0,0,1,1.16.7,3.57,3.57,0,0,1,.9,1.06,3.13,3.13,0,0,1,.36,1.57,3.5,3.5,0,0,1-1.19,2.78,4.75,4.75,0,0,1-3.23,1,11.15,11.15,0,0,1-1.68-.13,7.5,7.5,0,0,1-1.78-.52v-2.69a7.75,7.75,0,0,0,3.27.84,2.3,2.3,0,0,0,1.08-.23.87.87,0,0,0,.43-.84,1,1,0,0,0-.36-.83,3.93,3.93,0,0,0-.89-.56q-.53-.25-1.17-.51a5.42,5.42,0,0,1-1.17-.66,3.31,3.31,0,0,1-.89-1,3.2,3.2,0,0,1-.36-1.61,3.36,3.36,0,0,1,1.22-2.66,4,4,0,0,1,1.36-.73,5.47,5.47,0,0,1,1.69-.25,11.21,11.21,0,0,1,1.52.11,6.92,6.92,0,0,1,1.57.42v2.64a12.59,12.59,0,0,0-1.49-.5,5.09,5.09,0,0,0-1.26-.17,2.31,2.31,0,0,0-1.1.23A.79.79,0,0,0,677.54,2502.11Z" transform="translate(-544.06 -2464.36)"/><path class="cls-1" d="M691.37,2505.83a3.15,3.15,0,0,0,.87,1.95,2.93,2.93,0,0,0,2.19.76,6.45,6.45,0,0,0,1.67-.2,14.41,14.41,0,0,0,1.6-.54v2.54a7.1,7.1,0,0,1-1.66.52,10.34,10.34,0,0,1-1.94.18,7.24,7.24,0,0,1-2.68-.44,4.53,4.53,0,0,1-1.81-1.26,5.13,5.13,0,0,1-1-2,9.35,9.35,0,0,1-.32-2.56,8.65,8.65,0,0,1,.31-2.34,6.18,6.18,0,0,1,.94-2,4.47,4.47,0,0,1,1.6-1.37,5,5,0,0,1,2.32-.5,4.64,4.64,0,0,1,2.18.47,4.09,4.09,0,0,1,1.45,1.26,5.11,5.11,0,0,1,.8,1.82,9.49,9.49,0,0,1,.24,2.16c0,.24,0,.51,0,.82s0,.53,0,.67Zm3.6-2.11a6,6,0,0,0-.08-1,2.44,2.44,0,0,0-.28-.82,1.48,1.48,0,0,0-.56-.55,1.8,1.8,0,0,0-.9-.2,1.41,1.41,0,0,0-.79.21,1.72,1.72,0,0,0-.55.56,2.86,2.86,0,0,0-.33.83,5.25,5.25,0,0,0-.14,1Z" transform="translate(-544.06 -2464.36)"/><path class="cls-1" d="M704.79,2507.49l2.56-8.57h3l-4.07,11.86h-3.17l-4-11.86h3Z" transform="translate(-544.06 -2464.36)"/><path class="cls-1" d="M721.82,2504.85a9.34,9.34,0,0,1-.3,2.4,5.52,5.52,0,0,1-.95,2,4.61,4.61,0,0,1-1.66,1.33,5.48,5.48,0,0,1-2.42.49,5.42,5.42,0,0,1-2.4-.49,4.6,4.6,0,0,1-1.66-1.33,5.47,5.47,0,0,1-.95-2,9.3,9.3,0,0,1-.3-2.4,9.6,9.6,0,0,1,.29-2.38,5.58,5.58,0,0,1,.92-2,4.57,4.57,0,0,1,1.64-1.36,6.2,6.2,0,0,1,4.9,0,4.68,4.68,0,0,1,1.66,1.36,5.46,5.46,0,0,1,.94,2A9.6,9.6,0,0,1,721.82,2504.85Zm-3.1,0a12.77,12.77,0,0,0-.07-1.38,3.59,3.59,0,0,0-.31-1.16,2.09,2.09,0,0,0-.67-.82,2,2,0,0,0-1.18-.31,1.92,1.92,0,0,0-1.15.31,2,2,0,0,0-.66.82,4,4,0,0,0-.31,1.16,10.81,10.81,0,0,0-.08,1.38,11.1,11.1,0,0,0,.08,1.39,4.36,4.36,0,0,0,.31,1.2,2,2,0,0,0,.66.84,1.92,1.92,0,0,0,1.15.31,2,2,0,0,0,1.16-.31,1.94,1.94,0,0,0,.67-.84,4.4,4.4,0,0,0,.31-1.2A11.1,11.1,0,0,0,718.72,2504.8Z" transform="translate(-544.06 -2464.36)"/><path class="cls-1" d="M727.17,2510.78h-3v-17.3h3Z" transform="translate(-544.06 -2464.36)"/><path class="cls-1" d="M734.5,2507.49l2.56-8.57h3L736,2510.78h-3.17l-4-11.86h3Z" transform="translate(-544.06 -2464.36)"/><path class="cls-1" d="M741.33,2494.89a1.61,1.61,0,0,1,.53-1.25,2.19,2.19,0,0,1,2.74,0,1.61,1.61,0,0,1,.53,1.25,1.57,1.57,0,0,1-.53,1.24,2.23,2.23,0,0,1-2.74,0A1.57,1.57,0,0,1,741.33,2494.89Zm3.41,15.89h-3v-11.86h3Z" transform="translate(-544.06 -2464.36)"/><path class="cls-1" d="M750.67,2500.17a5.29,5.29,0,0,1,1.34-1.08,3.54,3.54,0,0,1,1.8-.46,3.13,3.13,0,0,1,2.56,1.06,4,4,0,0,1,.88,2.66v8.42h-3v-7.86a2.63,2.63,0,0,0-.28-1.3,1.17,1.17,0,0,0-1.12-.48,2.58,2.58,0,0,0-1.08.24,4.32,4.32,0,0,0-1,.65v8.76h-3v-11.86h2.71Z" transform="translate(-544.06 -2464.36)"/><path class="cls-1" d="M766.77,2509.07a4.36,4.36,0,0,1-1.3.88,4,4,0,0,1-1.66.35,3.74,3.74,0,0,1-2-.49,4.21,4.21,0,0,1-1.34-1.28,5.74,5.74,0,0,1-.78-1.8,8.38,8.38,0,0,1-.25-2,10.31,10.31,0,0,1,.24-2.22,5.84,5.84,0,0,1,.79-1.94,4.22,4.22,0,0,1,1.44-1.37,4.29,4.29,0,0,1,2.18-.52,3.66,3.66,0,0,1,1.63.31,3.74,3.74,0,0,1,1.1.84l.24-.86h2.69v11.4a4.41,4.41,0,0,1-1.34,3.59,5.94,5.94,0,0,1-3.89,1.12,20.16,20.16,0,0,1-2.05-.11,11,11,0,0,1-1.88-.35V2512a14.32,14.32,0,0,0,1.72.36,12.27,12.27,0,0,0,1.84.14,3.91,3.91,0,0,0,1.9-.39,1.52,1.52,0,0,0,.7-1.46Zm0-7.37a2.61,2.61,0,0,0-.82-.42,3.5,3.5,0,0,0-1.08-.16,2,2,0,0,0-1.16.31,2.29,2.29,0,0,0-.71.81,3.47,3.47,0,0,0-.36,1.12,8.24,8.24,0,0,0-.1,1.23,6.65,6.65,0,0,0,.11,1.21,3.18,3.18,0,0,0,.36,1,1.9,1.9,0,0,0,1.74,1,3.21,3.21,0,0,0,1.08-.18,4.26,4.26,0,0,0,.94-.47Z" transform="translate(-544.06 -2464.36)"/><path class="cls-1" d="M783.72,2509.77a4.5,4.5,0,0,1-1.25.91,3.49,3.49,0,0,1-1.58.36,4,4,0,0,1-2.1-.52,4.07,4.07,0,0,1-1.38-1.38,6.13,6.13,0,0,1-.76-2,11.4,11.4,0,0,1-.23-2.29,7.66,7.66,0,0,1,.38-2.46,5.59,5.59,0,0,1,1.14-2,5.25,5.25,0,0,1,1.9-1.32,6.85,6.85,0,0,1,2.68-.48,12.55,12.55,0,0,1,2.23.2,9.63,9.63,0,0,1,2,.56v15.46h-3Zm0-8.42a3.52,3.52,0,0,0-.67-.17,5.44,5.44,0,0,0-.77,0,2.59,2.59,0,0,0-1.31.31,2.4,2.4,0,0,0-.86.83,3.71,3.71,0,0,0-.47,1.21,6.93,6.93,0,0,0-.14,1.42,8.63,8.63,0,0,0,.11,1.37,3.91,3.91,0,0,0,.37,1.17,2.12,2.12,0,0,0,.71.8,2,2,0,0,0,1.14.3,2.33,2.33,0,0,0,1.06-.23,4,4,0,0,0,.84-.56Z" transform="translate(-544.06 -2464.36)"/><path class="cls-1" d="M789.64,2498.92h3v7.85a2.19,2.19,0,0,0,.32,1.33,1.43,1.43,0,0,0,1.19.42,2.26,2.26,0,0,0,1-.25,5,5,0,0,0,.92-.61v-8.74h3v11.86h-2.71l-.24-1.27a5.31,5.31,0,0,1-1.31,1,3.44,3.44,0,0,1-1.79.49,3.38,3.38,0,0,1-2.59-.95,3.88,3.88,0,0,1-.89-2.75Z" transform="translate(-544.06 -2464.36)"/><path class="cls-1" d="M801.76,2494.89a1.61,1.61,0,0,1,.53-1.25,2.19,2.19,0,0,1,2.74,0,1.61,1.61,0,0,1,.53,1.25,1.57,1.57,0,0,1-.53,1.24,2.23,2.23,0,0,1-2.74,0A1.57,1.57,0,0,1,801.76,2494.89Zm3.41,15.89h-3v-11.86h3Z" transform="translate(-544.06 -2464.36)"/><path class="cls-1" d="M813.55,2508.55a6.46,6.46,0,0,0,1.42-.13,13.51,13.51,0,0,0,1.34-.4v2.52a7.22,7.22,0,0,1-1.55.38,12.25,12.25,0,0,1-1.69.12,6.33,6.33,0,0,1-2.48-.44,4.62,4.62,0,0,1-1.74-1.26,5.24,5.24,0,0,1-1-2,9.27,9.27,0,0,1-.34-2.58,7.92,7.92,0,0,1,.36-2.42,5.5,5.5,0,0,1,1.08-2,5,5,0,0,1,1.79-1.29,6.13,6.13,0,0,1,2.48-.47,10.79,10.79,0,0,1,1.52.1,11.34,11.34,0,0,1,1.43.31v2.59c-.46-.16-.88-.28-1.26-.37a5.26,5.26,0,0,0-1.19-.13,2.86,2.86,0,0,0-2.33.95,3.86,3.86,0,0,0-.79,2.55,7.34,7.34,0,0,0,.16,1.57,3.58,3.58,0,0,0,.5,1.24,2.39,2.39,0,0,0,.91.81A3,3,0,0,0,813.55,2508.55Z" transform="translate(-544.06 -2464.36)"/><path class="cls-1" d="M824.3,2503.93l4.1,6.85h-3.65l-3.29-6h-.12v6h-3v-17.3h3v9.95h.1l3.14-4.5h3.6Z" transform="translate(-544.06 -2464.36)"/><path class="cls-1" d="M833.11,2510.78h-3v-17.3h3Z" transform="translate(-544.06 -2464.36)"/><path class="cls-1" d="M840.46,2506.75l2.44-7.82h3l-4.25,12a16.75,16.75,0,0,1-.78,1.84,4.76,4.76,0,0,1-.94,1.3,3.45,3.45,0,0,1-1.26.77,5.25,5.25,0,0,1-1.73.25q-.46,0-1,0a5.86,5.86,0,0,1-1-.16v-2.52a8.87,8.87,0,0,0,.95.14l.76,0a1.88,1.88,0,0,0,1.24-.34,2.35,2.35,0,0,0,.64-.91l.38-.91-4.08-11.4h3Z" transform="translate(-544.06 -2464.36)"/><path class="cls-1" d="M850.05,2509.05a1.92,1.92,0,0,1-.58,1.42,2.44,2.44,0,0,1-3.11,0,2.07,2.07,0,0,1,0-2.89,2.13,2.13,0,0,1,1.52-.55,2.26,2.26,0,0,1,1.54.54A1.82,1.82,0,0,1,850.05,2509.05Z" transform="translate(-544.06 -2464.36)"/><path class="cls-1" d="M861.81,2505.59l2.3-9.31h2.74l2.57,9.58,2.45-12.38h3.22l-3.94,17.3h-2.93l-2.76-10.18-2.71,10.18h-2.88l-3.91-17.3h3.22Z" transform="translate(-544.06 -2464.36)"/><path class="cls-1" d="M876.5,2494.89a1.61,1.61,0,0,1,.53-1.25,2.19,2.19,0,0,1,2.74,0,1.61,1.61,0,0,1,.53,1.25,1.57,1.57,0,0,1-.53,1.24,2.23,2.23,0,0,1-2.74,0A1.57,1.57,0,0,1,876.5,2494.89Zm3.41,15.89h-3v-11.86h3Z" transform="translate(-544.06 -2464.36)"/><path class="cls-1" d="M886.92,2498.92h3v2.45h-3v5.53a1.79,1.79,0,0,0,.36,1.29,1.57,1.57,0,0,0,1.13.35,5.58,5.58,0,0,0,1.87-.31v2.45a10.44,10.44,0,0,1-1.22.26,9.83,9.83,0,0,1-1.46.1,3.69,3.69,0,0,1-2.75-1,3.76,3.76,0,0,1-.95-2.76v-6h-2.28v-2.45h2.28v-3.19h3Z" transform="translate(-544.06 -2464.36)"/><path class="cls-1" d="M901.7,2510.78h-3v-7.86a2.63,2.63,0,0,0-.28-1.3,1.18,1.18,0,0,0-1.12-.48,2.58,2.58,0,0,0-1.08.24,4.28,4.28,0,0,0-1,.65v8.76h-3v-17.3h3v6.6a5.81,5.81,0,0,1,1.31-1,3.5,3.5,0,0,1,1.76-.43,3.13,3.13,0,0,1,2.56,1.06,4,4,0,0,1,.88,2.66Z" transform="translate(-544.06 -2464.36)"/><path class="cls-1" d="M914.78,2510.78l-.24-1a6.18,6.18,0,0,1-1.14.89,3.16,3.16,0,0,1-1.69.41,3.36,3.36,0,0,1-2.59-1,4,4,0,0,1-.94-2.8,4,4,0,0,1,.38-1.84,3.16,3.16,0,0,1,1.05-1.21,4.52,4.52,0,0,1,1.55-.66,8.23,8.23,0,0,1,1.87-.21h1.31v-.67a1.34,1.34,0,0,0-.49-1.14,2.14,2.14,0,0,0-1.33-.37,8.84,8.84,0,0,0-1.66.17,12,12,0,0,0-1.64.43v-2.54l.84-.21q.48-.11,1-.18l1-.12c.35,0,.67,0,1,0a3.77,3.77,0,0,1,4.32,4.27v7.87Zm-.41-5.35h-1.09a2.45,2.45,0,0,0-1.46.39,1.38,1.38,0,0,0-.54,1.2,1.72,1.72,0,0,0,.34,1.08,1.3,1.3,0,0,0,1.1.45,2.25,2.25,0,0,0,.92-.18,5.33,5.33,0,0,0,.73-.4Z" transform="translate(-544.06 -2464.36)"/><path class="cls-1" d="M570.53,2530.91a.9.9,0,0,0,.36.74,4.62,4.62,0,0,0,.9.54l1.16.53a5.57,5.57,0,0,1,1.16.7,3.57,3.57,0,0,1,.9,1.06,3.13,3.13,0,0,1,.36,1.57,3.5,3.5,0,0,1-1.19,2.78,4.76,4.76,0,0,1-3.23,1,11.14,11.14,0,0,1-1.68-.13,7.5,7.5,0,0,1-1.78-.52v-2.69a7.77,7.77,0,0,0,3.27.84,2.3,2.3,0,0,0,1.08-.23.87.87,0,0,0,.43-.85,1,1,0,0,0-.36-.83,3.89,3.89,0,0,0-.89-.56q-.53-.25-1.17-.51a5.47,5.47,0,0,1-1.17-.66,3.3,3.3,0,0,1-.89-1,3.2,3.2,0,0,1-.36-1.61,3.36,3.36,0,0,1,1.22-2.66,4,4,0,0,1,1.36-.73,5.47,5.47,0,0,1,1.69-.25,11.06,11.06,0,0,1,1.52.11,6.87,6.87,0,0,1,1.57.42v2.64a12.59,12.59,0,0,0-1.49-.5,5,5,0,0,0-1.26-.17,2.31,2.31,0,0,0-1.1.23A.78.78,0,0,0,570.53,2530.91Z" transform="translate(-544.06 -2464.36)"/><path class="cls-1" d="M577.23,2523.69a1.61,1.61,0,0,1,.53-1.25,2.19,2.19,0,0,1,2.74,0,1.61,1.61,0,0,1,.53,1.25,1.57,1.57,0,0,1-.53,1.24,2.23,2.23,0,0,1-2.74,0A1.57,1.57,0,0,1,577.23,2523.69Zm3.41,15.89h-3v-11.86h3Z" transform="translate(-544.06 -2464.36)"/><path class="cls-1" d="M586.56,2529a5.31,5.31,0,0,1,1.34-1.08,3.54,3.54,0,0,1,1.8-.46,3.13,3.13,0,0,1,2.56,1.06,4,4,0,0,1,.88,2.66v8.42h-3v-7.86a2.63,2.63,0,0,0-.28-1.3,1.17,1.17,0,0,0-1.12-.48,2.6,2.6,0,0,0-1.08.24,4.35,4.35,0,0,0-1,.65v8.76h-3v-11.86h2.71Z" transform="translate(-544.06 -2464.36)"/><path class="cls-1" d="M602.67,2537.88a4.33,4.33,0,0,1-1.3.88,4,4,0,0,1-1.66.35,3.74,3.74,0,0,1-2-.49,4.19,4.19,0,0,1-1.34-1.28,5.71,5.71,0,0,1-.78-1.8,8.38,8.38,0,0,1-.25-2,10.3,10.3,0,0,1,.24-2.22,5.86,5.86,0,0,1,.79-1.94,4.22,4.22,0,0,1,1.44-1.37,4.29,4.29,0,0,1,2.18-.52,3.67,3.67,0,0,1,1.63.31,3.78,3.78,0,0,1,1.1.84l.24-.86h2.69v11.4a4.41,4.41,0,0,1-1.34,3.59,5.94,5.94,0,0,1-3.89,1.12,19.88,19.88,0,0,1-2.05-.11,11.12,11.12,0,0,1-1.88-.35v-2.54a14.12,14.12,0,0,0,1.72.36,12.13,12.13,0,0,0,1.84.14,3.9,3.9,0,0,0,1.9-.39,1.52,1.52,0,0,0,.7-1.46Zm0-7.37a2.63,2.63,0,0,0-.82-.42,3.5,3.5,0,0,0-1.08-.16,2,2,0,0,0-1.16.31,2.31,2.31,0,0,0-.71.81,3.46,3.46,0,0,0-.36,1.12,8.23,8.23,0,0,0-.1,1.23,6.66,6.66,0,0,0,.11,1.21,3.17,3.17,0,0,0,.36,1,1.9,1.9,0,0,0,1.74,1,3.19,3.19,0,0,0,1.08-.18,4.3,4.3,0,0,0,.94-.47Z" transform="translate(-544.06 -2464.36)"/><path class="cls-1" d="M611.71,2539.58h-3v-17.3h3Z" transform="translate(-544.06 -2464.36)"/><path class="cls-1" d="M617.14,2534.63a3.15,3.15,0,0,0,.87,1.95,2.94,2.94,0,0,0,2.19.76,6.41,6.41,0,0,0,1.67-.2,14.61,14.61,0,0,0,1.6-.54v2.54a7,7,0,0,1-1.66.52,10.18,10.18,0,0,1-1.94.18,7.24,7.24,0,0,1-2.68-.44,4.53,4.53,0,0,1-1.81-1.26,5.12,5.12,0,0,1-1-2,9.35,9.35,0,0,1-.32-2.56,8.65,8.65,0,0,1,.31-2.34,6.18,6.18,0,0,1,.94-2,4.47,4.47,0,0,1,1.6-1.37,5,5,0,0,1,2.32-.5,4.65,4.65,0,0,1,2.18.47,4.11,4.11,0,0,1,1.45,1.26,5.13,5.13,0,0,1,.8,1.82,9.5,9.5,0,0,1,.24,2.16c0,.24,0,.51,0,.82s0,.53,0,.67Zm3.6-2.11a6,6,0,0,0-.08-1,2.43,2.43,0,0,0-.28-.83,1.48,1.48,0,0,0-.56-.55,1.82,1.82,0,0,0-.9-.2,1.43,1.43,0,0,0-.79.21,1.73,1.73,0,0,0-.55.57,2.83,2.83,0,0,0-.33.82,5.27,5.27,0,0,0-.14,1Z" transform="translate(-544.06 -2464.36)"/><path class="cls-1" d="M625.39,2542.84a15.06,15.06,0,0,0,1.22-1.55,9.59,9.59,0,0,0,.91-1.64,1.93,1.93,0,0,1-1.08-.58,1.7,1.7,0,0,1-.43-1.22,1.91,1.91,0,0,1,.58-1.43,2.1,2.1,0,0,1,1.54-.56,2.08,2.08,0,0,1,1.61.6,2.05,2.05,0,0,1,.55,1.44,4.72,4.72,0,0,1-.19,1.3,9.2,9.2,0,0,1-.49,1.32,10.52,10.52,0,0,1-.68,1.25,12.76,12.76,0,0,1-.77,1.08Z" transform="translate(-544.06 -2464.36)"/><path class="cls-1" d="M640.63,2540.2a3.26,3.26,0,0,1-3.74,3.62,10.27,10.27,0,0,1-2.09-.21v-2.42a6.48,6.48,0,0,0,.7.11q.36,0,.67,0a1.62,1.62,0,0,0,1.16-.3,1.83,1.83,0,0,0,.28-1.19v-12.12h3Zm-3.41-16.51a1.61,1.61,0,0,1,.53-1.25,2.19,2.19,0,0,1,2.74,0,1.61,1.61,0,0,1,.53,1.25,1.57,1.57,0,0,1-.53,1.24,2.23,2.23,0,0,1-2.74,0A1.57,1.57,0,0,1,637.22,2523.69Z" transform="translate(-544.06 -2464.36)"/><path class="cls-1" d="M653.57,2533.65a9.34,9.34,0,0,1-.3,2.4,5.51,5.51,0,0,1-.95,2,4.6,4.6,0,0,1-1.66,1.33,5.49,5.49,0,0,1-2.42.49,5.43,5.43,0,0,1-2.4-.49,4.59,4.59,0,0,1-1.66-1.33,5.47,5.47,0,0,1-.95-2,9.3,9.3,0,0,1-.3-2.4,9.6,9.6,0,0,1,.29-2.38,5.58,5.58,0,0,1,.92-2,4.55,4.55,0,0,1,1.64-1.36,6.2,6.2,0,0,1,4.9,0,4.66,4.66,0,0,1,1.66,1.36,5.47,5.47,0,0,1,.94,2A9.6,9.6,0,0,1,653.57,2533.65Zm-3.1,0a12.78,12.78,0,0,0-.07-1.38,3.6,3.6,0,0,0-.31-1.16,2.11,2.11,0,0,0-.67-.82,2,2,0,0,0-1.18-.31,1.93,1.93,0,0,0-1.15.31,2,2,0,0,0-.66.82,4,4,0,0,0-.31,1.16,10.82,10.82,0,0,0-.08,1.38,11.09,11.09,0,0,0,.08,1.39,4.37,4.37,0,0,0,.31,1.2,2,2,0,0,0,.66.84,1.93,1.93,0,0,0,1.15.31,2,2,0,0,0,1.16-.31,2,2,0,0,0,.67-.84,4.4,4.4,0,0,0,.31-1.2A11.09,11.09,0,0,0,650.47,2533.6Z" transform="translate(-544.06 -2464.36)"/><path class="cls-1" d="M655.49,2523.69a1.61,1.61,0,0,1,.53-1.25,2.19,2.19,0,0,1,2.74,0,1.61,1.61,0,0,1,.53,1.25,1.57,1.57,0,0,1-.53,1.24,2.23,2.23,0,0,1-2.74,0A1.57,1.57,0,0,1,655.49,2523.69Zm3.41,15.89h-3v-11.86h3Z" transform="translate(-544.06 -2464.36)"/><path class="cls-1" d="M664.83,2529a5.31,5.31,0,0,1,1.34-1.08,3.54,3.54,0,0,1,1.8-.46,3.13,3.13,0,0,1,2.56,1.06,4,4,0,0,1,.88,2.66v8.42h-3v-7.86a2.63,2.63,0,0,0-.28-1.3,1.17,1.17,0,0,0-1.12-.48,2.6,2.6,0,0,0-1.08.24,4.35,4.35,0,0,0-1,.65v8.76h-3v-11.86h2.71Z" transform="translate(-544.06 -2464.36)"/><path class="cls-1" d="M676.73,2534.63a3.15,3.15,0,0,0,.87,1.95,2.94,2.94,0,0,0,2.19.76,6.41,6.41,0,0,0,1.67-.2,14.61,14.61,0,0,0,1.6-.54v2.54a7,7,0,0,1-1.66.52,10.18,10.18,0,0,1-1.94.18,7.24,7.24,0,0,1-2.68-.44,4.53,4.53,0,0,1-1.81-1.26,5.12,5.12,0,0,1-1-2,9.35,9.35,0,0,1-.32-2.56,8.65,8.65,0,0,1,.31-2.34,6.18,6.18,0,0,1,.94-2,4.47,4.47,0,0,1,1.6-1.37,5,5,0,0,1,2.32-.5,4.65,4.65,0,0,1,2.18.47,4.11,4.11,0,0,1,1.45,1.26,5.13,5.13,0,0,1,.8,1.82,9.5,9.5,0,0,1,.24,2.16c0,.24,0,.51,0,.82s0,.53,0,.67Zm3.6-2.11a6,6,0,0,0-.08-1,2.43,2.43,0,0,0-.28-.83,1.48,1.48,0,0,0-.56-.55,1.82,1.82,0,0,0-.9-.2,1.43,1.43,0,0,0-.79.21,1.73,1.73,0,0,0-.55.57,2.83,2.83,0,0,0-.33.82,5.27,5.27,0,0,0-.14,1Z" transform="translate(-544.06 -2464.36)"/><path class="cls-1" d="M695.47,2539.58h-2.62l-.24-1a4.25,4.25,0,0,1-1.18.9,3.69,3.69,0,0,1-1.73.37,4.15,4.15,0,0,1-2.13-.5,4,4,0,0,1-1.4-1.36,6,6,0,0,1-.78-2,11.37,11.37,0,0,1-.24-2.37,9.43,9.43,0,0,1,.27-2.27,6.24,6.24,0,0,1,.86-2,4.49,4.49,0,0,1,1.5-1.4,4.27,4.27,0,0,1,2.18-.53,3.12,3.12,0,0,1,1.47.31,4.17,4.17,0,0,1,1,.72v-6.19h3Zm-3-9.07a3.46,3.46,0,0,0-.76-.41,2.88,2.88,0,0,0-1-.17,2.15,2.15,0,0,0-1.16.29,2.11,2.11,0,0,0-.74.79,3.52,3.52,0,0,0-.38,1.16,9.26,9.26,0,0,0,0,2.81,4.17,4.17,0,0,0,.37,1.21,2.18,2.18,0,0,0,.72.85,2,2,0,0,0,1.17.31,2.86,2.86,0,0,0,1-.17,3.76,3.76,0,0,0,.83-.43Z" transform="translate(-544.06 -2464.36)"/><path class="cls-1" d="M698.28,2534v-2.69h8.23V2534Z" transform="translate(-544.06 -2464.36)"/><path class="cls-1" d="M709.22,2527.72h3v7.85a2.19,2.19,0,0,0,.32,1.33,1.42,1.42,0,0,0,1.19.42,2.26,2.26,0,0,0,1-.25,5,5,0,0,0,.92-.61v-8.74h3v11.86H716l-.24-1.27a5.28,5.28,0,0,1-1.31,1,3.44,3.44,0,0,1-1.79.49,3.38,3.38,0,0,1-2.59-.95,3.88,3.88,0,0,1-.89-2.75Z" transform="translate(-544.06 -2464.36)"/><path class="cls-1" d="M732,2533.41a11.89,11.89,0,0,1-.23,2.3,6.64,6.64,0,0,1-.77,2.08,4.29,4.29,0,0,1-1.44,1.49,4.11,4.11,0,0,1-2.22.56,4,4,0,0,1-1.54-.26,3.27,3.27,0,0,1-1.1-.77v4.85h-3v-15.94h2.66l.24,1.1a4.26,4.26,0,0,1,1.32-1,3.86,3.86,0,0,1,1.75-.41,4,4,0,0,1,2.08.49,3.87,3.87,0,0,1,1.33,1.31,5.7,5.7,0,0,1,.72,1.91A11.63,11.63,0,0,1,732,2533.41Zm-3.1.07a9.33,9.33,0,0,0-.08-1.23,3.78,3.78,0,0,0-.34-1.15,2.3,2.3,0,0,0-.68-.84,1.78,1.78,0,0,0-1.1-.33,3,3,0,0,0-1.08.19,3.62,3.62,0,0,0-.94.53v5.9a3.93,3.93,0,0,0,.84.56,2.32,2.32,0,0,0,1.06.23,1.82,1.82,0,0,0,1.16-.35,2.49,2.49,0,0,0,.71-.91,4.27,4.27,0,0,0,.36-1.24A10,10,0,0,0,729,2533.48Z" transform="translate(-544.06 -2464.36)"/><path class="cls-1" d="M744.53,2539.58l-.24-1a6.22,6.22,0,0,1-1.14.89,3.15,3.15,0,0,1-1.69.41,3.36,3.36,0,0,1-2.59-1,4,4,0,0,1-.94-2.79,4,4,0,0,1,.38-1.84,3.17,3.17,0,0,1,1.05-1.21,4.56,4.56,0,0,1,1.55-.66,8.35,8.35,0,0,1,1.87-.2h1.31v-.67a1.34,1.34,0,0,0-.49-1.14,2.14,2.14,0,0,0-1.33-.37,8.76,8.76,0,0,0-1.66.17,12,12,0,0,0-1.64.43V2528l.84-.2q.48-.11,1-.18l1-.12c.35,0,.67,0,1,0a3.77,3.77,0,0,1,4.32,4.27v7.87Zm-.41-5.35H743a2.45,2.45,0,0,0-1.46.39,1.38,1.38,0,0,0-.54,1.2,1.72,1.72,0,0,0,.34,1.08,1.3,1.3,0,0,0,1.1.45,2.22,2.22,0,0,0,.92-.18,5.23,5.23,0,0,0,.73-.4Z" transform="translate(-544.06 -2464.36)"/><path class="cls-1" d="M760.2,2533.41a11.89,11.89,0,0,1-.23,2.3,6.64,6.64,0,0,1-.77,2.08,4.29,4.29,0,0,1-1.44,1.49,4.11,4.11,0,0,1-2.22.56,4,4,0,0,1-1.54-.26,3.27,3.27,0,0,1-1.1-.77v4.85h-3v-15.94h2.66l.24,1.1a4.26,4.26,0,0,1,1.32-1,3.86,3.86,0,0,1,1.75-.41,4,4,0,0,1,2.08.49,3.87,3.87,0,0,1,1.33,1.31,5.7,5.7,0,0,1,.72,1.91A11.63,11.63,0,0,1,760.2,2533.41Zm-3.1.07a9.33,9.33,0,0,0-.08-1.23,3.78,3.78,0,0,0-.34-1.15,2.3,2.3,0,0,0-.68-.84,1.78,1.78,0,0,0-1.1-.33,3,3,0,0,0-1.08.19,3.62,3.62,0,0,0-.94.53v5.9a3.93,3.93,0,0,0,.84.56,2.32,2.32,0,0,0,1.06.23,1.82,1.82,0,0,0,1.16-.35,2.49,2.49,0,0,0,.71-.91,4.27,4.27,0,0,0,.36-1.24A10,10,0,0,0,757.1,2533.48Z" transform="translate(-544.06 -2464.36)"/><path class="cls-1" d="M772.82,2533.41a11.89,11.89,0,0,1-.23,2.3,6.64,6.64,0,0,1-.77,2.08,4.29,4.29,0,0,1-1.44,1.49,4.11,4.11,0,0,1-2.22.56,4,4,0,0,1-1.54-.26,3.27,3.27,0,0,1-1.1-.77v4.85h-3v-15.94h2.66l.24,1.1a4.26,4.26,0,0,1,1.32-1,3.86,3.86,0,0,1,1.75-.41,4,4,0,0,1,2.08.49,3.87,3.87,0,0,1,1.33,1.31,5.7,5.7,0,0,1,.72,1.91A11.63,11.63,0,0,1,772.82,2533.41Zm-3.1.07a9.33,9.33,0,0,0-.08-1.23,3.78,3.78,0,0,0-.34-1.15,2.3,2.3,0,0,0-.68-.84,1.78,1.78,0,0,0-1.1-.33,3,3,0,0,0-1.08.19,3.62,3.62,0,0,0-.94.53v5.9a3.93,3.93,0,0,0,.84.56,2.32,2.32,0,0,0,1.06.23,1.82,1.82,0,0,0,1.16-.35,2.49,2.49,0,0,0,.71-.91,4.27,4.27,0,0,0,.36-1.24A10,10,0,0,0,769.73,2533.48Z" transform="translate(-544.06 -2464.36)"/><path class="cls-1" d="M778,2529.64a4.39,4.39,0,0,1,1.3-1.67,2.62,2.62,0,0,1,1.56-.54,5.78,5.78,0,0,1,.65,0,2.18,2.18,0,0,1,.6.16v2.4a5.45,5.45,0,0,0-.67-.08h-.5a3.94,3.94,0,0,0-1.5.3,5,5,0,0,0-1.28.76v8.59h-3v-11.86h2.54Z" transform="translate(-544.06 -2464.36)"/><path class="cls-1" d="M793.37,2533.65a9.34,9.34,0,0,1-.3,2.4,5.51,5.51,0,0,1-.95,2,4.6,4.6,0,0,1-1.66,1.33,5.49,5.49,0,0,1-2.42.49,5.43,5.43,0,0,1-2.4-.49A4.59,4.59,0,0,1,784,2538a5.47,5.47,0,0,1-.95-2,9.3,9.3,0,0,1-.3-2.4,9.6,9.6,0,0,1,.29-2.38,5.58,5.58,0,0,1,.92-2,4.55,4.55,0,0,1,1.64-1.36,6.2,6.2,0,0,1,4.9,0,4.66,4.66,0,0,1,1.66,1.36,5.47,5.47,0,0,1,.94,2A9.6,9.6,0,0,1,793.37,2533.65Zm-3.1,0a12.78,12.78,0,0,0-.07-1.38,3.6,3.6,0,0,0-.31-1.16,2.11,2.11,0,0,0-.67-.82,2,2,0,0,0-1.18-.31,1.93,1.93,0,0,0-1.15.31,2,2,0,0,0-.66.82,4,4,0,0,0-.31,1.16,10.82,10.82,0,0,0-.08,1.38,11.09,11.09,0,0,0,.08,1.39,4.37,4.37,0,0,0,.31,1.2,2,2,0,0,0,.66.84,1.93,1.93,0,0,0,1.15.31,2,2,0,0,0,1.16-.31,2,2,0,0,0,.67-.84,4.4,4.4,0,0,0,.31-1.2A11.09,11.09,0,0,0,790.27,2533.6Z" transform="translate(-544.06 -2464.36)"/><path class="cls-1" d="M801.53,2539.58l-.24-1a6.22,6.22,0,0,1-1.14.89,3.15,3.15,0,0,1-1.69.41,3.36,3.36,0,0,1-2.59-1,4,4,0,0,1-.94-2.79,4,4,0,0,1,.38-1.84,3.17,3.17,0,0,1,1.05-1.21,4.56,4.56,0,0,1,1.55-.66,8.35,8.35,0,0,1,1.87-.2h1.31v-.67a1.34,1.34,0,0,0-.49-1.14,2.14,2.14,0,0,0-1.33-.37,8.76,8.76,0,0,0-1.66.17,12,12,0,0,0-1.64.43V2528l.84-.2q.48-.11,1-.18l1-.12c.35,0,.67,0,1,0a3.77,3.77,0,0,1,4.32,4.27v7.87Zm-.41-5.35H800a2.45,2.45,0,0,0-1.46.39,1.38,1.38,0,0,0-.54,1.2,1.72,1.72,0,0,0,.34,1.08,1.3,1.3,0,0,0,1.1.45,2.22,2.22,0,0,0,.92-.18,5.23,5.23,0,0,0,.73-.4Z" transform="translate(-544.06 -2464.36)"/><path class="cls-1" d="M812.28,2537.35a6.46,6.46,0,0,0,1.42-.13,13.54,13.54,0,0,0,1.34-.4v2.52a7.16,7.16,0,0,1-1.55.38,12.1,12.1,0,0,1-1.69.12,6.33,6.33,0,0,1-2.48-.44,4.62,4.62,0,0,1-1.74-1.26,5.23,5.23,0,0,1-1-2,9.25,9.25,0,0,1-.34-2.58,7.92,7.92,0,0,1,.36-2.42,5.48,5.48,0,0,1,1.08-2,5,5,0,0,1,1.79-1.3,6.15,6.15,0,0,1,2.48-.47,10.63,10.63,0,0,1,1.52.1,11.33,11.33,0,0,1,1.43.31v2.59c-.46-.16-.88-.28-1.26-.37a5.2,5.2,0,0,0-1.19-.13,2.86,2.86,0,0,0-2.33.95,3.86,3.86,0,0,0-.79,2.55,7.35,7.35,0,0,0,.16,1.57,3.57,3.57,0,0,0,.5,1.24,2.37,2.37,0,0,0,.91.81A3,3,0,0,0,812.28,2537.35Z" transform="translate(-544.06 -2464.36)"/><path class="cls-1" d="M826.58,2539.58h-3v-7.86a2.63,2.63,0,0,0-.28-1.3,1.18,1.18,0,0,0-1.12-.48,2.6,2.6,0,0,0-1.08.24,4.31,4.31,0,0,0-1,.65v8.76h-3v-17.3h3v6.6a5.7,5.7,0,0,1,1.31-1,3.48,3.48,0,0,1,1.76-.43,3.13,3.13,0,0,1,2.56,1.06,4,4,0,0,1,.88,2.66Z" transform="translate(-544.06 -2464.36)"/><path class="cls-1" d="M837.84,2527.72h3v2.45h-3v5.53a1.79,1.79,0,0,0,.36,1.29,1.56,1.56,0,0,0,1.13.35,5.63,5.63,0,0,0,1.87-.31v2.45a10.44,10.44,0,0,1-1.22.26,9.69,9.69,0,0,1-1.46.1,3.69,3.69,0,0,1-2.75-1,3.76,3.76,0,0,1-.95-2.76v-6h-2.28v-2.45h2.28v-3.19h3Z" transform="translate(-544.06 -2464.36)"/><path class="cls-1" d="M852.67,2533.65a9.34,9.34,0,0,1-.3,2.4,5.51,5.51,0,0,1-.95,2,4.6,4.6,0,0,1-1.66,1.33,5.49,5.49,0,0,1-2.42.49,5.43,5.43,0,0,1-2.4-.49,4.59,4.59,0,0,1-1.66-1.33,5.47,5.47,0,0,1-.95-2,9.3,9.3,0,0,1-.3-2.4,9.6,9.6,0,0,1,.29-2.38,5.58,5.58,0,0,1,.92-2,4.55,4.55,0,0,1,1.64-1.36,6.2,6.2,0,0,1,4.9,0,4.66,4.66,0,0,1,1.66,1.36,5.47,5.47,0,0,1,.94,2A9.6,9.6,0,0,1,852.67,2533.65Zm-3.1,0a12.78,12.78,0,0,0-.07-1.38,3.6,3.6,0,0,0-.31-1.16,2.11,2.11,0,0,0-.67-.82,2,2,0,0,0-1.18-.31,1.93,1.93,0,0,0-1.15.31,2,2,0,0,0-.66.82,4,4,0,0,0-.31,1.16,10.82,10.82,0,0,0-.08,1.38,11.09,11.09,0,0,0,.08,1.39,4.37,4.37,0,0,0,.31,1.2,2,2,0,0,0,.66.84,1.93,1.93,0,0,0,1.15.31,2,2,0,0,0,1.16-.31,2,2,0,0,0,.67-.84,4.4,4.4,0,0,0,.31-1.2A11.09,11.09,0,0,0,849.57,2533.6Z" transform="translate(-544.06 -2464.36)"/><path class="cls-1" d="M865.92,2537.88a4.33,4.33,0,0,1-1.3.88,4,4,0,0,1-1.66.35,3.74,3.74,0,0,1-2-.49,4.19,4.19,0,0,1-1.34-1.28,5.71,5.71,0,0,1-.78-1.8,8.38,8.38,0,0,1-.25-2,10.3,10.3,0,0,1,.24-2.22,5.86,5.86,0,0,1,.79-1.94,4.22,4.22,0,0,1,1.44-1.37,4.29,4.29,0,0,1,2.18-.52,3.67,3.67,0,0,1,1.63.31,3.78,3.78,0,0,1,1.1.84l.24-.86h2.69v11.4a4.41,4.41,0,0,1-1.34,3.59,5.94,5.94,0,0,1-3.89,1.12,19.88,19.88,0,0,1-2.05-.11,11.12,11.12,0,0,1-1.88-.35v-2.54a14.12,14.12,0,0,0,1.72.36,12.13,12.13,0,0,0,1.84.14,3.9,3.9,0,0,0,1.9-.39,1.52,1.52,0,0,0,.7-1.46Zm0-7.37a2.63,2.63,0,0,0-.82-.42,3.5,3.5,0,0,0-1.08-.16,2,2,0,0,0-1.16.31,2.31,2.31,0,0,0-.71.81,3.46,3.46,0,0,0-.36,1.12,8.23,8.23,0,0,0-.1,1.23,6.66,6.66,0,0,0,.11,1.21,3.17,3.17,0,0,0,.36,1,1.9,1.9,0,0,0,1.74,1,3.19,3.19,0,0,0,1.08-.18,4.3,4.3,0,0,0,.94-.47Z" transform="translate(-544.06 -2464.36)"/><path class="cls-1" d="M875,2539.58h-3v-17.3h3Z" transform="translate(-544.06 -2464.36)"/><path class="cls-1" d="M887.92,2533.65a9.34,9.34,0,0,1-.3,2.4,5.51,5.51,0,0,1-.95,2,4.6,4.6,0,0,1-1.66,1.33,5.49,5.49,0,0,1-2.42.49,5.43,5.43,0,0,1-2.4-.49,4.59,4.59,0,0,1-1.66-1.33,5.47,5.47,0,0,1-.95-2,9.3,9.3,0,0,1-.3-2.4,9.6,9.6,0,0,1,.29-2.38,5.58,5.58,0,0,1,.92-2,4.55,4.55,0,0,1,1.64-1.36,6.2,6.2,0,0,1,4.9,0,4.66,4.66,0,0,1,1.66,1.36,5.47,5.47,0,0,1,.94,2A9.6,9.6,0,0,1,887.92,2533.65Zm-3.1,0a12.78,12.78,0,0,0-.07-1.38,3.6,3.6,0,0,0-.31-1.16,2.11,2.11,0,0,0-.67-.82,2,2,0,0,0-1.18-.31,1.93,1.93,0,0,0-1.15.31,2,2,0,0,0-.66.82,4,4,0,0,0-.31,1.16,10.82,10.82,0,0,0-.08,1.38,11.09,11.09,0,0,0,.08,1.39,4.37,4.37,0,0,0,.31,1.2,2,2,0,0,0,.66.84,1.93,1.93,0,0,0,1.15.31,2,2,0,0,0,1.16-.31,2,2,0,0,0,.67-.84,4.4,4.4,0,0,0,.31-1.2A11.09,11.09,0,0,0,884.83,2533.6Z" transform="translate(-544.06 -2464.36)"/><path class="cls-1" d="M900.57,2533.27a9.29,9.29,0,0,1-.35,2.59,5.87,5.87,0,0,1-1.07,2.09,5,5,0,0,1-1.82,1.39,6.18,6.18,0,0,1-2.59.5,14.24,14.24,0,0,1-2.27-.19,9.77,9.77,0,0,1-2.22-.62v-16.75h3v6.43a5.45,5.45,0,0,1,1.27-.9,3.7,3.7,0,0,1,1.72-.37,3.93,3.93,0,0,1,2,.49,3.89,3.89,0,0,1,1.33,1.3,5.41,5.41,0,0,1,.71,1.86A11.61,11.61,0,0,1,900.57,2533.27Zm-3.1.15a9.25,9.25,0,0,0-.08-1.22,3.72,3.72,0,0,0-.32-1.12,2.18,2.18,0,0,0-.67-.82,1.79,1.79,0,0,0-1.1-.32,2.76,2.76,0,0,0-1.09.22,4.11,4.11,0,0,0-.94.55v6.36a2.78,2.78,0,0,0,.69.23,4.45,4.45,0,0,0,.76.06,2.53,2.53,0,0,0,1.35-.33,2.43,2.43,0,0,0,.85-.88,3.79,3.79,0,0,0,.43-1.26A8.92,8.92,0,0,0,897.48,2533.41Z" transform="translate(-544.06 -2464.36)"/><path class="cls-1" d="M908.73,2539.58l-.24-1a6.22,6.22,0,0,1-1.14.89,3.15,3.15,0,0,1-1.69.41,3.36,3.36,0,0,1-2.59-1,4,4,0,0,1-.94-2.79,4,4,0,0,1,.38-1.84,3.17,3.17,0,0,1,1.05-1.21,4.56,4.56,0,0,1,1.55-.66,8.35,8.35,0,0,1,1.87-.2h1.31v-.67a1.34,1.34,0,0,0-.49-1.14,2.14,2.14,0,0,0-1.33-.37,8.76,8.76,0,0,0-1.66.17,12,12,0,0,0-1.64.43V2528l.84-.2q.48-.11,1-.18l1-.12c.35,0,.67,0,1,0a3.77,3.77,0,0,1,4.32,4.27v7.87Zm-.41-5.35h-1.09a2.45,2.45,0,0,0-1.46.39,1.38,1.38,0,0,0-.54,1.2,1.72,1.72,0,0,0,.34,1.08,1.3,1.3,0,0,0,1.1.45,2.22,2.22,0,0,0,.92-.18,5.23,5.23,0,0,0,.73-.4Z" transform="translate(-544.06 -2464.36)"/><path class="cls-1" d="M917.13,2539.58h-3v-17.3h3Z" transform="translate(-544.06 -2464.36)"/><path class="cls-1" d="M604.37,2564.15l1.73-7.63h3l-3.43,11.86H603l-2-8.21-1.87,8.21h-2.74l-3.58-11.86h3l2,7.66,1.8-7.66h2.86Z" transform="translate(-544.06 -2464.36)"/><path class="cls-1" d="M620.76,2562.45a9.34,9.34,0,0,1-.3,2.4,5.52,5.52,0,0,1-.95,2,4.61,4.61,0,0,1-1.66,1.33,5.48,5.48,0,0,1-2.42.49,5.42,5.42,0,0,1-2.4-.49,4.6,4.6,0,0,1-1.66-1.33,5.47,5.47,0,0,1-.95-2,9.3,9.3,0,0,1-.3-2.4,9.6,9.6,0,0,1,.29-2.38,5.58,5.58,0,0,1,.92-2,4.57,4.57,0,0,1,1.64-1.36,6.2,6.2,0,0,1,4.9,0,4.68,4.68,0,0,1,1.66,1.36,5.46,5.46,0,0,1,.94,2A9.6,9.6,0,0,1,620.76,2562.45Zm-3.1,0a12.77,12.77,0,0,0-.07-1.38,3.59,3.59,0,0,0-.31-1.16,2.09,2.09,0,0,0-.67-.82,2,2,0,0,0-1.18-.31,1.92,1.92,0,0,0-1.15.31,2,2,0,0,0-.66.82,4,4,0,0,0-.31,1.16,10.81,10.81,0,0,0-.08,1.38,11.1,11.1,0,0,0,.08,1.39,4.36,4.36,0,0,0,.31,1.2,2,2,0,0,0,.66.84,1.92,1.92,0,0,0,1.15.31,2,2,0,0,0,1.16-.31,1.94,1.94,0,0,0,.67-.84,4.4,4.4,0,0,0,.31-1.2A11.1,11.1,0,0,0,617.67,2562.4Z" transform="translate(-544.06 -2464.36)"/><path class="cls-1" d="M625.95,2558.44a4.39,4.39,0,0,1,1.3-1.67,2.61,2.61,0,0,1,1.56-.54,5.56,5.56,0,0,1,.65,0,2.25,2.25,0,0,1,.6.16v2.4a5.42,5.42,0,0,0-.67-.08h-.5a3.92,3.92,0,0,0-1.5.3,4.93,4.93,0,0,0-1.28.76v8.59h-3v-11.86h2.54Z" transform="translate(-544.06 -2464.36)"/><path class="cls-1" d="M637.75,2561.53l4.1,6.85h-3.65l-3.29-6h-.12v6h-3v-17.3h3V2561h.1l3.14-4.5h3.6Z" transform="translate(-544.06 -2464.36)"/><path class="cls-1" d="M643.13,2552.49a1.61,1.61,0,0,1,.53-1.25,2.19,2.19,0,0,1,2.74,0,1.61,1.61,0,0,1,.53,1.25,1.57,1.57,0,0,1-.53,1.24,2.23,2.23,0,0,1-2.74,0A1.57,1.57,0,0,1,643.13,2552.49Zm3.41,15.89h-3v-11.86h3Z" transform="translate(-544.06 -2464.36)"/><path class="cls-1" d="M652.47,2557.77a5.29,5.29,0,0,1,1.34-1.08,3.54,3.54,0,0,1,1.8-.46,3.13,3.13,0,0,1,2.56,1.06A4,4,0,0,1,659,2560v8.42h-3v-7.86a2.63,2.63,0,0,0-.28-1.3,1.17,1.17,0,0,0-1.12-.48,2.58,2.58,0,0,0-1.08.24,4.32,4.32,0,0,0-1,.65v8.76h-3v-11.86h2.71Z" transform="translate(-544.06 -2464.36)"/><path class="cls-1" d="M668.57,2566.67a4.36,4.36,0,0,1-1.3.88,4,4,0,0,1-1.66.35,3.74,3.74,0,0,1-2-.49,4.21,4.21,0,0,1-1.34-1.28,5.74,5.74,0,0,1-.78-1.8,8.38,8.38,0,0,1-.25-2,10.31,10.31,0,0,1,.24-2.22,5.84,5.84,0,0,1,.79-1.94,4.22,4.22,0,0,1,1.44-1.37,4.29,4.29,0,0,1,2.18-.52,3.66,3.66,0,0,1,1.63.31,3.74,3.74,0,0,1,1.1.84l.24-.86h2.69v11.4a4.41,4.41,0,0,1-1.34,3.59,5.94,5.94,0,0,1-3.89,1.12,20.16,20.16,0,0,1-2.05-.11,11,11,0,0,1-1.88-.35v-2.54a14.32,14.32,0,0,0,1.72.36,12.27,12.27,0,0,0,1.84.14,3.91,3.91,0,0,0,1.9-.39,1.52,1.52,0,0,0,.7-1.46Zm0-7.37a2.61,2.61,0,0,0-.82-.42,3.5,3.5,0,0,0-1.08-.16,2,2,0,0,0-1.16.31,2.29,2.29,0,0,0-.71.81,3.47,3.47,0,0,0-.36,1.12,8.24,8.24,0,0,0-.1,1.23,6.65,6.65,0,0,0,.11,1.21,3.18,3.18,0,0,0,.36,1,1.9,1.9,0,0,0,1.74,1,3.21,3.21,0,0,0,1.08-.18,4.26,4.26,0,0,0,.94-.47Z" transform="translate(-544.06 -2464.36)"/><path class="cls-1" d="M673.73,2571.64a14.86,14.86,0,0,0,1.22-1.55,9.54,9.54,0,0,0,.91-1.64,1.92,1.92,0,0,1-1.08-.58,1.71,1.71,0,0,1-.43-1.22,1.91,1.91,0,0,1,.58-1.43,2.42,2.42,0,0,1,3.14,0,2.05,2.05,0,0,1,.55,1.44,4.71,4.71,0,0,1-.19,1.3,9.12,9.12,0,0,1-.49,1.32,10.59,10.59,0,0,1-.68,1.25,12.61,12.61,0,0,1-.77,1.08Z" transform="translate(-544.06 -2464.36)"/><path class="cls-1" d="M691.56,2568.38l-.24-1a6.18,6.18,0,0,1-1.14.89,3.16,3.16,0,0,1-1.69.41,3.36,3.36,0,0,1-2.59-1,4,4,0,0,1-.94-2.8,4,4,0,0,1,.38-1.84,3.16,3.16,0,0,1,1.05-1.21,4.52,4.52,0,0,1,1.55-.66,8.23,8.23,0,0,1,1.87-.21h1.31v-.67a1.34,1.34,0,0,0-.49-1.14,2.14,2.14,0,0,0-1.33-.37,8.84,8.84,0,0,0-1.66.17,12,12,0,0,0-1.64.43v-2.54l.84-.21q.48-.11,1-.18l1-.12c.35,0,.67,0,1,0a3.77,3.77,0,0,1,4.32,4.27v7.87Zm-.41-5.35h-1.09a2.45,2.45,0,0,0-1.46.39,1.38,1.38,0,0,0-.54,1.2,1.72,1.72,0,0,0,.34,1.08,1.3,1.3,0,0,0,1.1.45,2.25,2.25,0,0,0,.92-.18,5.33,5.33,0,0,0,.73-.4Z" transform="translate(-544.06 -2464.36)"/><path class="cls-1" d="M699.87,2557.77a5.29,5.29,0,0,1,1.34-1.08,3.54,3.54,0,0,1,1.8-.46,3.13,3.13,0,0,1,2.56,1.06,4,4,0,0,1,.88,2.66v8.42h-3v-7.86a2.63,2.63,0,0,0-.28-1.3,1.17,1.17,0,0,0-1.12-.48,2.58,2.58,0,0,0-1.08.24,4.32,4.32,0,0,0-1,.65v8.76h-3v-11.86h2.71Z" transform="translate(-544.06 -2464.36)"/><path class="cls-1" d="M719,2568.38h-2.62l-.24-1a4.27,4.27,0,0,1-1.18.9,3.7,3.7,0,0,1-1.73.37,4.16,4.16,0,0,1-2.13-.5,4.05,4.05,0,0,1-1.4-1.36,6,6,0,0,1-.78-2,11.39,11.39,0,0,1-.24-2.38,9.43,9.43,0,0,1,.27-2.27,6.24,6.24,0,0,1,.86-2,4.51,4.51,0,0,1,1.5-1.4,4.27,4.27,0,0,1,2.18-.53,3.11,3.11,0,0,1,1.47.31,4.09,4.09,0,0,1,1,.72v-6.19h3Zm-3-9.07a3.46,3.46,0,0,0-.76-.41,2.9,2.9,0,0,0-1-.17,2.15,2.15,0,0,0-1.16.29,2.11,2.11,0,0,0-.74.79,3.51,3.51,0,0,0-.38,1.16,9.27,9.27,0,0,0,0,2.81,4.15,4.15,0,0,0,.37,1.21,2.16,2.16,0,0,0,.72.85,2,2,0,0,0,1.17.31,2.89,2.89,0,0,0,1-.17,3.75,3.75,0,0,0,.83-.43Z" transform="translate(-544.06 -2464.36)"/><path class="cls-1" d="M730.34,2556.52h3V2559h-3v5.53a1.79,1.79,0,0,0,.36,1.29,1.57,1.57,0,0,0,1.13.35,5.58,5.58,0,0,0,1.87-.31v2.45a10.44,10.44,0,0,1-1.22.26,9.83,9.83,0,0,1-1.46.1,3.69,3.69,0,0,1-2.75-1,3.76,3.76,0,0,1-.95-2.76v-6H725v-2.45h2.28v-3.19h3Z" transform="translate(-544.06 -2464.36)"/><path class="cls-1" d="M745.13,2568.38h-3v-7.86a2.63,2.63,0,0,0-.28-1.3,1.18,1.18,0,0,0-1.12-.48,2.58,2.58,0,0,0-1.08.24,4.28,4.28,0,0,0-1,.65v8.76h-3v-17.3h3v6.6a5.81,5.81,0,0,1,1.31-1,3.5,3.5,0,0,1,1.76-.43,3.13,3.13,0,0,1,2.56,1.06,4,4,0,0,1,.88,2.66Z" transform="translate(-544.06 -2464.36)"/><path class="cls-1" d="M750.46,2563.43a3.15,3.15,0,0,0,.87,1.95,2.93,2.93,0,0,0,2.19.76,6.45,6.45,0,0,0,1.67-.2,14.41,14.41,0,0,0,1.6-.54v2.54a7.1,7.1,0,0,1-1.66.52,10.34,10.34,0,0,1-1.94.18,7.24,7.24,0,0,1-2.68-.44,4.53,4.53,0,0,1-1.81-1.26,5.13,5.13,0,0,1-1-2,9.35,9.35,0,0,1-.32-2.56,8.65,8.65,0,0,1,.31-2.34,6.18,6.18,0,0,1,.94-2,4.47,4.47,0,0,1,1.6-1.37,5,5,0,0,1,2.32-.5,4.64,4.64,0,0,1,2.18.47,4.09,4.09,0,0,1,1.45,1.26,5.11,5.11,0,0,1,.8,1.82,9.49,9.49,0,0,1,.24,2.16c0,.24,0,.51,0,.82s0,.53,0,.67Zm3.6-2.11a6,6,0,0,0-.08-1,2.44,2.44,0,0,0-.28-.82,1.48,1.48,0,0,0-.56-.55,1.8,1.8,0,0,0-.9-.2,1.41,1.41,0,0,0-.79.21,1.72,1.72,0,0,0-.55.56,2.86,2.86,0,0,0-.33.83,5.25,5.25,0,0,0-.14,1Z" transform="translate(-544.06 -2464.36)"/><path class="cls-1" d="M767.9,2556.52h3V2559h-3v5.53a1.79,1.79,0,0,0,.36,1.29,1.57,1.57,0,0,0,1.13.35,5.58,5.58,0,0,0,1.87-.31v2.45a10.44,10.44,0,0,1-1.22.26,9.83,9.83,0,0,1-1.46.1,3.69,3.69,0,0,1-2.75-1,3.76,3.76,0,0,1-.95-2.76v-6H762.6v-2.45h2.28v-3.19h3Z" transform="translate(-544.06 -2464.36)"/><path class="cls-1" d="M782.74,2562.45a9.34,9.34,0,0,1-.3,2.4,5.52,5.52,0,0,1-.95,2,4.61,4.61,0,0,1-1.66,1.33,5.48,5.48,0,0,1-2.42.49,5.42,5.42,0,0,1-2.4-.49,4.6,4.6,0,0,1-1.66-1.33,5.47,5.47,0,0,1-.95-2,9.3,9.3,0,0,1-.3-2.4,9.6,9.6,0,0,1,.29-2.38,5.58,5.58,0,0,1,.92-2,4.57,4.57,0,0,1,1.64-1.36,6.2,6.2,0,0,1,4.9,0,4.68,4.68,0,0,1,1.66,1.36,5.46,5.46,0,0,1,.94,2A9.6,9.6,0,0,1,782.74,2562.45Zm-3.1,0a12.77,12.77,0,0,0-.07-1.38,3.59,3.59,0,0,0-.31-1.16,2.09,2.09,0,0,0-.67-.82,2,2,0,0,0-1.18-.31,1.92,1.92,0,0,0-1.15.31,2,2,0,0,0-.66.82,4,4,0,0,0-.31,1.16,10.81,10.81,0,0,0-.08,1.38,11.1,11.1,0,0,0,.08,1.39,4.36,4.36,0,0,0,.31,1.2,2,2,0,0,0,.66.84,1.92,1.92,0,0,0,1.15.31,2,2,0,0,0,1.16-.31,1.94,1.94,0,0,0,.67-.84,4.4,4.4,0,0,0,.31-1.2A11.1,11.1,0,0,0,779.64,2562.4Z" transform="translate(-544.06 -2464.36)"/><path class="cls-1" d="M795,2562.45a9.34,9.34,0,0,1-.3,2.4,5.52,5.52,0,0,1-.95,2,4.61,4.61,0,0,1-1.66,1.33,5.48,5.48,0,0,1-2.42.49,5.42,5.42,0,0,1-2.4-.49,4.6,4.6,0,0,1-1.66-1.33,5.47,5.47,0,0,1-.95-2,9.3,9.3,0,0,1-.3-2.4,9.6,9.6,0,0,1,.29-2.38,5.58,5.58,0,0,1,.92-2,4.57,4.57,0,0,1,1.64-1.36,6.2,6.2,0,0,1,4.9,0,4.68,4.68,0,0,1,1.66,1.36,5.46,5.46,0,0,1,.94,2A9.6,9.6,0,0,1,795,2562.45Zm-3.1,0a12.77,12.77,0,0,0-.07-1.38,3.59,3.59,0,0,0-.31-1.16,2.09,2.09,0,0,0-.67-.82,2,2,0,0,0-1.18-.31,1.92,1.92,0,0,0-1.15.31,2,2,0,0,0-.66.82,4,4,0,0,0-.31,1.16,10.81,10.81,0,0,0-.08,1.38,11.1,11.1,0,0,0,.08,1.39,4.36,4.36,0,0,0,.31,1.2,2,2,0,0,0,.66.84,1.92,1.92,0,0,0,1.15.31,2,2,0,0,0,1.16-.31,1.94,1.94,0,0,0,.67-.84,4.4,4.4,0,0,0,.31-1.2A11.1,11.1,0,0,0,791.9,2562.4Z" transform="translate(-544.06 -2464.36)"/><path class="cls-1" d="M800.35,2568.38h-3v-17.3h3Z" transform="translate(-544.06 -2464.36)"/><path class="cls-1" d="M805.63,2559.71a.89.89,0,0,0,.36.74,4.48,4.48,0,0,0,.9.54l1.16.53a5.58,5.58,0,0,1,1.16.7,3.57,3.57,0,0,1,.9,1.06,3.13,3.13,0,0,1,.36,1.57,3.5,3.5,0,0,1-1.19,2.78,4.75,4.75,0,0,1-3.23,1,11.15,11.15,0,0,1-1.68-.13,7.5,7.5,0,0,1-1.78-.52v-2.69a7.75,7.75,0,0,0,3.27.84,2.3,2.3,0,0,0,1.08-.23.87.87,0,0,0,.43-.84,1,1,0,0,0-.36-.83,3.93,3.93,0,0,0-.89-.56q-.53-.25-1.17-.51a5.42,5.42,0,0,1-1.17-.66,3.31,3.31,0,0,1-.89-1,3.2,3.2,0,0,1-.36-1.61,3.36,3.36,0,0,1,1.22-2.66,4,4,0,0,1,1.36-.73,5.47,5.47,0,0,1,1.69-.25,11.21,11.21,0,0,1,1.52.11,6.92,6.92,0,0,1,1.57.42v2.64a12.59,12.59,0,0,0-1.49-.5,5.09,5.09,0,0,0-1.26-.17,2.31,2.31,0,0,0-1.1.23A.79.79,0,0,0,805.63,2559.71Z" transform="translate(-544.06 -2464.36)"/><path class="cls-1" d="M821.06,2556.52h3V2559h-3v5.53a1.79,1.79,0,0,0,.36,1.29,1.57,1.57,0,0,0,1.13.35,5.58,5.58,0,0,0,1.87-.31v2.45a10.44,10.44,0,0,1-1.22.26,9.83,9.83,0,0,1-1.46.1,3.69,3.69,0,0,1-2.75-1,3.76,3.76,0,0,1-.95-2.76v-6h-2.28v-2.45H818v-3.19h3Z" transform="translate(-544.06 -2464.36)"/><path class="cls-1" d="M835.89,2562.45a9.34,9.34,0,0,1-.3,2.4,5.52,5.52,0,0,1-.95,2,4.61,4.61,0,0,1-1.66,1.33,5.48,5.48,0,0,1-2.42.49,5.42,5.42,0,0,1-2.4-.49,4.6,4.6,0,0,1-1.66-1.33,5.47,5.47,0,0,1-.95-2,9.3,9.3,0,0,1-.3-2.4,9.6,9.6,0,0,1,.29-2.38,5.58,5.58,0,0,1,.92-2,4.57,4.57,0,0,1,1.64-1.36,6.2,6.2,0,0,1,4.9,0,4.68,4.68,0,0,1,1.66,1.36,5.46,5.46,0,0,1,.94,2A9.6,9.6,0,0,1,835.89,2562.45Zm-3.1,0a12.77,12.77,0,0,0-.07-1.38,3.59,3.59,0,0,0-.31-1.16,2.09,2.09,0,0,0-.67-.82,2,2,0,0,0-1.18-.31,1.92,1.92,0,0,0-1.15.31,2,2,0,0,0-.66.82,4,4,0,0,0-.31,1.16,10.81,10.81,0,0,0-.08,1.38,11.1,11.1,0,0,0,.08,1.39,4.36,4.36,0,0,0,.31,1.2,2,2,0,0,0,.66.84,1.92,1.92,0,0,0,1.15.31,2,2,0,0,0,1.16-.31,1.94,1.94,0,0,0,.67-.84,4.4,4.4,0,0,0,.31-1.2A11.1,11.1,0,0,0,832.8,2562.4Z" transform="translate(-544.06 -2464.36)"/><path class="cls-1" d="M844.8,2559.71a.89.89,0,0,0,.36.74,4.48,4.48,0,0,0,.9.54l1.16.53a5.58,5.58,0,0,1,1.16.7,3.57,3.57,0,0,1,.9,1.06,3.13,3.13,0,0,1,.36,1.57,3.5,3.5,0,0,1-1.19,2.78,4.75,4.75,0,0,1-3.23,1,11.15,11.15,0,0,1-1.68-.13,7.5,7.5,0,0,1-1.78-.52v-2.69a7.75,7.75,0,0,0,3.27.84,2.3,2.3,0,0,0,1.08-.23.87.87,0,0,0,.43-.84,1,1,0,0,0-.36-.83,3.93,3.93,0,0,0-.89-.56q-.53-.25-1.17-.51a5.42,5.42,0,0,1-1.17-.66,3.31,3.31,0,0,1-.89-1,3.2,3.2,0,0,1-.36-1.61,3.36,3.36,0,0,1,1.22-2.66,4,4,0,0,1,1.36-.73,5.47,5.47,0,0,1,1.69-.25,11.21,11.21,0,0,1,1.52.11,6.92,6.92,0,0,1,1.57.42v2.64a12.59,12.59,0,0,0-1.49-.5,5.09,5.09,0,0,0-1.26-.17,2.31,2.31,0,0,0-1.1.23A.79.79,0,0,0,844.8,2559.71Z" transform="translate(-544.06 -2464.36)"/><path class="cls-1" d="M851.74,2556.52h3v7.85a2.19,2.19,0,0,0,.32,1.33,1.43,1.43,0,0,0,1.19.42,2.26,2.26,0,0,0,1-.25,5,5,0,0,0,.92-.61v-8.74h3v11.86h-2.71l-.24-1.27a5.31,5.31,0,0,1-1.31,1,3.44,3.44,0,0,1-1.79.49,3.38,3.38,0,0,1-2.59-.95,3.88,3.88,0,0,1-.89-2.75Z" transform="translate(-544.06 -2464.36)"/><path class="cls-1" d="M874.56,2562.21a11.89,11.89,0,0,1-.23,2.3,6.63,6.63,0,0,1-.77,2.08,4.25,4.25,0,0,1-1.44,1.49,4.1,4.1,0,0,1-2.22.56,4,4,0,0,1-1.54-.26,3.28,3.28,0,0,1-1.1-.77v4.85h-3v-15.94h2.66l.24,1.1a4.23,4.23,0,0,1,1.32-1,3.87,3.87,0,0,1,1.75-.41,4,4,0,0,1,2.08.49,3.86,3.86,0,0,1,1.33,1.31,5.7,5.7,0,0,1,.72,1.91A11.63,11.63,0,0,1,874.56,2562.21Zm-3.1.07a9.37,9.37,0,0,0-.08-1.23,3.76,3.76,0,0,0-.34-1.15,2.28,2.28,0,0,0-.68-.85,1.79,1.79,0,0,0-1.1-.33,3,3,0,0,0-1.08.19,3.65,3.65,0,0,0-.94.53v5.9a3.93,3.93,0,0,0,.84.56,2.32,2.32,0,0,0,1.06.23,1.83,1.83,0,0,0,1.16-.35,2.5,2.5,0,0,0,.71-.91,4.28,4.28,0,0,0,.36-1.24A10,10,0,0,0,871.46,2562.28Z" transform="translate(-544.06 -2464.36)"/><path class="cls-1" d="M887.18,2562.21a11.89,11.89,0,0,1-.23,2.3,6.63,6.63,0,0,1-.77,2.08,4.25,4.25,0,0,1-1.44,1.49,4.1,4.1,0,0,1-2.22.56,4,4,0,0,1-1.54-.26,3.28,3.28,0,0,1-1.1-.77v4.85h-3v-15.94h2.66l.24,1.1a4.23,4.23,0,0,1,1.32-1,3.87,3.87,0,0,1,1.75-.41,4,4,0,0,1,2.08.49,3.86,3.86,0,0,1,1.33,1.31,5.7,5.7,0,0,1,.72,1.91A11.63,11.63,0,0,1,887.18,2562.21Zm-3.1.07A9.37,9.37,0,0,0,884,2561a3.76,3.76,0,0,0-.34-1.15,2.28,2.28,0,0,0-.68-.85,1.79,1.79,0,0,0-1.1-.33,3,3,0,0,0-1.08.19,3.65,3.65,0,0,0-.94.53v5.9a3.93,3.93,0,0,0,.84.56,2.32,2.32,0,0,0,1.06.23,1.83,1.83,0,0,0,1.16-.35,2.5,2.5,0,0,0,.71-.91,4.28,4.28,0,0,0,.36-1.24A10,10,0,0,0,884.09,2562.28Z" transform="translate(-544.06 -2464.36)"/><path class="cls-1" d="M899.45,2562.45a9.34,9.34,0,0,1-.3,2.4,5.52,5.52,0,0,1-.95,2,4.61,4.61,0,0,1-1.66,1.33,5.48,5.48,0,0,1-2.42.49,5.42,5.42,0,0,1-2.4-.49,4.6,4.6,0,0,1-1.66-1.33,5.47,5.47,0,0,1-.95-2,9.3,9.3,0,0,1-.3-2.4,9.6,9.6,0,0,1,.29-2.38,5.58,5.58,0,0,1,.92-2,4.57,4.57,0,0,1,1.64-1.36,6.2,6.2,0,0,1,4.9,0,4.68,4.68,0,0,1,1.66,1.36,5.46,5.46,0,0,1,.94,2A9.6,9.6,0,0,1,899.45,2562.45Zm-3.1,0a12.77,12.77,0,0,0-.07-1.38,3.59,3.59,0,0,0-.31-1.16,2.09,2.09,0,0,0-.67-.82,2,2,0,0,0-1.18-.31,1.92,1.92,0,0,0-1.15.31,2,2,0,0,0-.66.82A4,4,0,0,0,892,2561a10.81,10.81,0,0,0-.08,1.38,11.1,11.1,0,0,0,.08,1.39,4.36,4.36,0,0,0,.31,1.2,2,2,0,0,0,.66.84,1.92,1.92,0,0,0,1.15.31,2,2,0,0,0,1.16-.31,1.94,1.94,0,0,0,.67-.84,4.4,4.4,0,0,0,.31-1.2A11.1,11.1,0,0,0,896.35,2562.4Z" transform="translate(-544.06 -2464.36)"/><path class="cls-1" d="M904.63,2558.44a4.39,4.39,0,0,1,1.3-1.67,2.61,2.61,0,0,1,1.56-.54,5.56,5.56,0,0,1,.65,0,2.25,2.25,0,0,1,.6.16v2.4a5.42,5.42,0,0,0-.67-.08h-.5a3.92,3.92,0,0,0-1.5.3,4.93,4.93,0,0,0-1.28.76v8.59h-3v-11.86h2.54Z" transform="translate(-544.06 -2464.36)"/><path class="cls-1" d="M914.9,2556.52h3V2559h-3v5.53a1.79,1.79,0,0,0,.36,1.29,1.57,1.57,0,0,0,1.13.35,5.58,5.58,0,0,0,1.87-.31v2.45a10.44,10.44,0,0,1-1.22.26,9.83,9.83,0,0,1-1.46.1,3.69,3.69,0,0,1-2.75-1,3.76,3.76,0,0,1-.95-2.76v-6H909.6v-2.45h2.28v-3.19h3Z" transform="translate(-544.06 -2464.36)"/><path class="cls-1" d="M549.36,2585.32h3v2.45h-3v5.53a1.79,1.79,0,0,0,.36,1.29,1.57,1.57,0,0,0,1.13.35,5.6,5.6,0,0,0,1.87-.31v2.45a10.25,10.25,0,0,1-1.22.26,9.82,9.82,0,0,1-1.46.1,3.69,3.69,0,0,1-2.75-1,3.76,3.76,0,0,1-.95-2.76v-6h-2.28v-2.45h2.28v-3.19h3Z" transform="translate(-544.06 -2464.36)"/><path class="cls-1" d="M556.66,2592.23a3.14,3.14,0,0,0,.87,1.95,2.93,2.93,0,0,0,2.19.76,6.41,6.41,0,0,0,1.67-.21,14.39,14.39,0,0,0,1.6-.54v2.54a7.05,7.05,0,0,1-1.66.52,10.26,10.26,0,0,1-1.94.18,7.22,7.22,0,0,1-2.68-.45,4.51,4.51,0,0,1-1.81-1.26,5.12,5.12,0,0,1-1-2,9.36,9.36,0,0,1-.32-2.56,8.65,8.65,0,0,1,.31-2.34,6.18,6.18,0,0,1,.94-2,4.47,4.47,0,0,1,1.6-1.37,5,5,0,0,1,2.32-.5,4.65,4.65,0,0,1,2.18.47,4.09,4.09,0,0,1,1.45,1.26,5.12,5.12,0,0,1,.8,1.82,9.5,9.5,0,0,1,.24,2.16q0,.36,0,.82t0,.67Zm3.6-2.11a6,6,0,0,0-.08-1,2.42,2.42,0,0,0-.28-.82,1.48,1.48,0,0,0-.56-.55,1.82,1.82,0,0,0-.9-.2,1.42,1.42,0,0,0-.79.21,1.72,1.72,0,0,0-.55.57,2.84,2.84,0,0,0-.33.82,5.27,5.27,0,0,0-.14,1Z" transform="translate(-544.06 -2464.36)"/><path class="cls-1" d="M571.61,2597.18l-.24-1a6.22,6.22,0,0,1-1.14.89,3.16,3.16,0,0,1-1.69.41,3.36,3.36,0,0,1-2.59-1,4,4,0,0,1-.94-2.8,4,4,0,0,1,.38-1.84,3.17,3.17,0,0,1,1.05-1.21,4.56,4.56,0,0,1,1.55-.66,8.29,8.29,0,0,1,1.87-.2h1.31V2589a1.34,1.34,0,0,0-.49-1.14,2.14,2.14,0,0,0-1.33-.37,8.76,8.76,0,0,0-1.66.17,11.84,11.84,0,0,0-1.64.43v-2.54l.84-.2q.48-.11,1-.18l1-.12c.35,0,.67,0,1,0a3.77,3.77,0,0,1,4.32,4.27v7.87Zm-.41-5.35h-1.09a2.45,2.45,0,0,0-1.46.39,1.38,1.38,0,0,0-.54,1.2,1.72,1.72,0,0,0,.34,1.08,1.3,1.3,0,0,0,1.1.45,2.23,2.23,0,0,0,.92-.18,5.33,5.33,0,0,0,.73-.4Z" transform="translate(-544.06 -2464.36)"/><path class="cls-1" d="M586.37,2597.18h-3v-7.86a2.62,2.62,0,0,0-.28-1.32q-.28-.47-1.19-.47a2,2,0,0,0-1,.26,5.48,5.48,0,0,0-.92.62v8.76h-3v-11.86h2.69l.24,1.27a5.6,5.6,0,0,1,1.33-1.09A3.41,3.41,0,0,1,583,2585a3.14,3.14,0,0,1,1.67.43,3.42,3.42,0,0,1,1.14,1.13,6.78,6.78,0,0,1,1.45-1.1,3.77,3.77,0,0,1,1.88-.46,3.43,3.43,0,0,1,2.7,1,3.92,3.92,0,0,1,.9,2.71v8.42h-3v-7.86a2.52,2.52,0,0,0-.29-1.32,1.22,1.22,0,0,0-1.13-.47,2.55,2.55,0,0,0-1,.23,4.41,4.41,0,0,0-1,.56,1.83,1.83,0,0,1,0,.29v8.57Z" transform="translate(-544.06 -2464.36)"/><path class="cls-1" d="M595.46,2591.63v-2.69h8.23v2.69Z" transform="translate(-544.06 -2464.36)"/><path class="cls-1" d="M608.76,2588.51a.89.89,0,0,0,.36.74,4.53,4.53,0,0,0,.9.54l1.16.53a5.57,5.57,0,0,1,1.16.7,3.59,3.59,0,0,1,.9,1.06,3.13,3.13,0,0,1,.36,1.57,3.5,3.5,0,0,1-1.19,2.78,4.75,4.75,0,0,1-3.23,1,11.15,11.15,0,0,1-1.68-.13,7.5,7.5,0,0,1-1.78-.52v-2.69a7.77,7.77,0,0,0,3.27.84,2.3,2.3,0,0,0,1.08-.23.87.87,0,0,0,.43-.84,1,1,0,0,0-.36-.83,3.93,3.93,0,0,0-.89-.56q-.53-.25-1.17-.51a5.47,5.47,0,0,1-1.17-.66,3.31,3.31,0,0,1-.89-1,3.2,3.2,0,0,1-.36-1.61,3.44,3.44,0,0,1,.32-1.51,3.4,3.4,0,0,1,.9-1.15,4,4,0,0,1,1.36-.73,5.47,5.47,0,0,1,1.69-.25,11.06,11.06,0,0,1,1.52.11,6.92,6.92,0,0,1,1.57.42v2.64a12.24,12.24,0,0,0-1.49-.5,5,5,0,0,0-1.26-.17,2.31,2.31,0,0,0-1.1.22A.79.79,0,0,0,608.76,2588.51Z" transform="translate(-544.06 -2464.36)"/><path class="cls-1" d="M618.19,2592.23a3.14,3.14,0,0,0,.87,1.95,2.93,2.93,0,0,0,2.19.76,6.41,6.41,0,0,0,1.67-.21,14.39,14.39,0,0,0,1.6-.54v2.54a7.05,7.05,0,0,1-1.66.52,10.26,10.26,0,0,1-1.94.18,7.22,7.22,0,0,1-2.68-.45,4.51,4.51,0,0,1-1.81-1.26,5.12,5.12,0,0,1-1-2,9.36,9.36,0,0,1-.32-2.56,8.65,8.65,0,0,1,.31-2.34,6.18,6.18,0,0,1,.94-2,4.47,4.47,0,0,1,1.6-1.37,5,5,0,0,1,2.32-.5,4.65,4.65,0,0,1,2.18.47,4.09,4.09,0,0,1,1.45,1.26,5.12,5.12,0,0,1,.8,1.82,9.5,9.5,0,0,1,.24,2.16q0,.36,0,.82t0,.67Zm3.6-2.11a6,6,0,0,0-.08-1,2.42,2.42,0,0,0-.28-.82,1.48,1.48,0,0,0-.56-.55,1.82,1.82,0,0,0-.9-.2,1.42,1.42,0,0,0-.79.21,1.72,1.72,0,0,0-.55.57,2.84,2.84,0,0,0-.33.82,5.27,5.27,0,0,0-.14,1Z" transform="translate(-544.06 -2464.36)"/><path class="cls-1" d="M630.34,2597.18h-3v-17.3h3Z" transform="translate(-544.06 -2464.36)"/><path class="cls-1" d="M636.38,2597.18h-3v-17.3h3Z" transform="translate(-544.06 -2464.36)"/><path class="cls-1" d="M639,2581.29a1.61,1.61,0,0,1,.53-1.25,2.19,2.19,0,0,1,2.74,0,1.61,1.61,0,0,1,.53,1.25,1.57,1.57,0,0,1-.53,1.24,2.24,2.24,0,0,1-2.74,0A1.57,1.57,0,0,1,639,2581.29Zm3.41,15.89h-3v-11.86h3Z" transform="translate(-544.06 -2464.36)"/><path class="cls-1" d="M648.34,2586.57a5.31,5.31,0,0,1,1.34-1.08,3.55,3.55,0,0,1,1.8-.46,3.13,3.13,0,0,1,2.56,1.06,4,4,0,0,1,.88,2.66v8.42h-3v-7.86a2.63,2.63,0,0,0-.28-1.3,1.17,1.17,0,0,0-1.12-.48,2.6,2.6,0,0,0-1.08.24,4.32,4.32,0,0,0-1,.65v8.76h-3v-11.86h2.71Z" transform="translate(-544.06 -2464.36)"/><path class="cls-1" d="M664.44,2595.47a4.35,4.35,0,0,1-1.3.88,4,4,0,0,1-1.66.35,3.74,3.74,0,0,1-2-.49,4.2,4.2,0,0,1-1.34-1.28,5.73,5.73,0,0,1-.78-1.8,8.38,8.38,0,0,1-.25-2,10.29,10.29,0,0,1,.24-2.22,5.84,5.84,0,0,1,.79-1.94,4.22,4.22,0,0,1,1.44-1.37,4.29,4.29,0,0,1,2.18-.52,3.66,3.66,0,0,1,1.63.31,3.76,3.76,0,0,1,1.1.84l.24-.86h2.69v11.4a4.41,4.41,0,0,1-1.34,3.59,5.94,5.94,0,0,1-3.89,1.12,19.88,19.88,0,0,1-2.05-.11,11,11,0,0,1-1.88-.35v-2.54a14.31,14.31,0,0,0,1.72.36,12.26,12.26,0,0,0,1.84.14,3.89,3.89,0,0,0,1.9-.39,1.52,1.52,0,0,0,.7-1.46Zm0-7.37a2.61,2.61,0,0,0-.82-.42,3.5,3.5,0,0,0-1.08-.16,2,2,0,0,0-1.16.31,2.3,2.3,0,0,0-.71.81,3.47,3.47,0,0,0-.36,1.13,8.23,8.23,0,0,0-.1,1.23,6.65,6.65,0,0,0,.11,1.21,3.19,3.19,0,0,0,.36,1,1.9,1.9,0,0,0,1.74,1,3.21,3.21,0,0,0,1.08-.18,4.35,4.35,0,0,0,.94-.47Z" transform="translate(-544.06 -2464.36)"/><path class="cls-1" d="M669.6,2600.44a15,15,0,0,0,1.22-1.55,9.55,9.55,0,0,0,.91-1.64,1.92,1.92,0,0,1-1.08-.58,1.71,1.71,0,0,1-.43-1.22,1.91,1.91,0,0,1,.58-1.43,2.42,2.42,0,0,1,3.14,0,2.05,2.05,0,0,1,.55,1.44,4.71,4.71,0,0,1-.19,1.3,9.21,9.21,0,0,1-.49,1.32,10.59,10.59,0,0,1-.68,1.25,12.76,12.76,0,0,1-.77,1.08Z" transform="translate(-544.06 -2464.36)"/><path class="cls-1" d="M691.54,2591.25a9.33,9.33,0,0,1-.3,2.4,5.53,5.53,0,0,1-.95,2,4.61,4.61,0,0,1-1.66,1.33,5.49,5.49,0,0,1-2.42.49,5.43,5.43,0,0,1-2.4-.49,4.6,4.6,0,0,1-1.66-1.33,5.48,5.48,0,0,1-.95-2,9.29,9.29,0,0,1-.3-2.4,9.6,9.6,0,0,1,.29-2.37,5.58,5.58,0,0,1,.92-2,4.56,4.56,0,0,1,1.64-1.36,6.2,6.2,0,0,1,4.9,0,4.67,4.67,0,0,1,1.66,1.36,5.46,5.46,0,0,1,.94,2A9.6,9.6,0,0,1,691.54,2591.25Zm-3.1,0a12.8,12.8,0,0,0-.07-1.38,3.6,3.6,0,0,0-.31-1.16,2.1,2.1,0,0,0-.67-.82,2,2,0,0,0-1.18-.31,1.93,1.93,0,0,0-1.15.31,2,2,0,0,0-.66.82,4,4,0,0,0-.31,1.16,10.84,10.84,0,0,0-.08,1.38,11.1,11.1,0,0,0,.08,1.39,4.36,4.36,0,0,0,.31,1.2,2,2,0,0,0,.66.84,1.93,1.93,0,0,0,1.15.31,2,2,0,0,0,1.16-.31,2,2,0,0,0,.67-.84,4.4,4.4,0,0,0,.31-1.2A11.1,11.1,0,0,0,688.44,2591.2Z" transform="translate(-544.06 -2464.36)"/><path class="cls-1" d="M693.77,2585.32h3v7.85a2.19,2.19,0,0,0,.32,1.33,1.42,1.42,0,0,0,1.19.42,2.26,2.26,0,0,0,1-.25,5,5,0,0,0,.92-.61v-8.74h3v11.86h-2.71l-.24-1.27a5.29,5.29,0,0,1-1.31,1,3.44,3.44,0,0,1-1.79.49,3.38,3.38,0,0,1-2.59-.95,3.87,3.87,0,0,1-.89-2.75Z" transform="translate(-544.06 -2464.36)"/><path class="cls-1" d="M709.15,2587.24a4.39,4.39,0,0,1,1.3-1.67A2.62,2.62,0,0,1,712,2585a5.79,5.79,0,0,1,.65,0,2.22,2.22,0,0,1,.6.16v2.4a5.24,5.24,0,0,0-.67-.08h-.5a3.94,3.94,0,0,0-1.5.3,5,5,0,0,0-1.28.76v8.59h-3v-11.86h2.54Z" transform="translate(-544.06 -2464.36)"/><path class="cls-1" d="M721.56,2588.51a.89.89,0,0,0,.36.74,4.53,4.53,0,0,0,.9.54l1.16.53a5.57,5.57,0,0,1,1.16.7,3.59,3.59,0,0,1,.9,1.06,3.13,3.13,0,0,1,.36,1.57,3.5,3.5,0,0,1-1.19,2.78,4.75,4.75,0,0,1-3.23,1,11.15,11.15,0,0,1-1.68-.13,7.5,7.5,0,0,1-1.78-.52v-2.69a7.77,7.77,0,0,0,3.27.84,2.3,2.3,0,0,0,1.08-.23.87.87,0,0,0,.43-.84,1,1,0,0,0-.36-.83,3.93,3.93,0,0,0-.89-.56q-.53-.25-1.17-.51a5.47,5.47,0,0,1-1.17-.66,3.31,3.31,0,0,1-.89-1,3.2,3.2,0,0,1-.36-1.61,3.44,3.44,0,0,1,.32-1.51,3.4,3.4,0,0,1,.9-1.15,4,4,0,0,1,1.36-.73,5.47,5.47,0,0,1,1.69-.25,11.06,11.06,0,0,1,1.52.11,6.92,6.92,0,0,1,1.57.42v2.64a12.24,12.24,0,0,0-1.49-.5,5,5,0,0,0-1.26-.17,2.31,2.31,0,0,0-1.1.22A.79.79,0,0,0,721.56,2588.51Z" transform="translate(-544.06 -2464.36)"/><path class="cls-1" d="M734.5,2597.18l-.24-1a6.22,6.22,0,0,1-1.14.89,3.16,3.16,0,0,1-1.69.41,3.36,3.36,0,0,1-2.59-1,4,4,0,0,1-.94-2.8,4,4,0,0,1,.38-1.84,3.17,3.17,0,0,1,1.05-1.21,4.56,4.56,0,0,1,1.55-.66,8.29,8.29,0,0,1,1.87-.2h1.31V2589a1.34,1.34,0,0,0-.49-1.14,2.14,2.14,0,0,0-1.33-.37,8.76,8.76,0,0,0-1.66.17,11.84,11.84,0,0,0-1.64.43v-2.54l.84-.2q.48-.11,1-.18l1-.12c.35,0,.67,0,1,0a3.77,3.77,0,0,1,4.32,4.27v7.87Zm-.41-5.35H733a2.45,2.45,0,0,0-1.46.39,1.38,1.38,0,0,0-.54,1.2,1.72,1.72,0,0,0,.34,1.08,1.3,1.3,0,0,0,1.1.45,2.23,2.23,0,0,0,.92-.18,5.33,5.33,0,0,0,.73-.4Z" transform="translate(-544.06 -2464.36)"/><path class="cls-1" d="M742.9,2597.18h-3v-17.3h3Z" transform="translate(-544.06 -2464.36)"/><path class="cls-1" d="M748.32,2592.23a3.14,3.14,0,0,0,.87,1.95,2.93,2.93,0,0,0,2.19.76,6.41,6.41,0,0,0,1.67-.21,14.39,14.39,0,0,0,1.6-.54v2.54a7.05,7.05,0,0,1-1.66.52,10.26,10.26,0,0,1-1.94.18,7.22,7.22,0,0,1-2.68-.45,4.51,4.51,0,0,1-1.81-1.26,5.12,5.12,0,0,1-1-2,9.36,9.36,0,0,1-.32-2.56,8.65,8.65,0,0,1,.31-2.34,6.18,6.18,0,0,1,.94-2,4.47,4.47,0,0,1,1.6-1.37,5,5,0,0,1,2.32-.5,4.65,4.65,0,0,1,2.18.47,4.09,4.09,0,0,1,1.45,1.26,5.12,5.12,0,0,1,.8,1.82,9.5,9.5,0,0,1,.24,2.16q0,.36,0,.82t0,.67Zm3.6-2.11a6,6,0,0,0-.08-1,2.42,2.42,0,0,0-.28-.82,1.48,1.48,0,0,0-.56-.55,1.82,1.82,0,0,0-.9-.2,1.42,1.42,0,0,0-.79.21,1.72,1.72,0,0,0-.55.57,2.84,2.84,0,0,0-.33.82,5.27,5.27,0,0,0-.14,1Z" transform="translate(-544.06 -2464.36)"/><path class="cls-1" d="M759.69,2588.51a.89.89,0,0,0,.36.74,4.53,4.53,0,0,0,.9.54l1.16.53a5.57,5.57,0,0,1,1.16.7,3.59,3.59,0,0,1,.9,1.06,3.13,3.13,0,0,1,.36,1.57,3.5,3.5,0,0,1-1.19,2.78,4.75,4.75,0,0,1-3.23,1,11.15,11.15,0,0,1-1.68-.13,7.5,7.5,0,0,1-1.78-.52v-2.69a7.77,7.77,0,0,0,3.27.84,2.3,2.3,0,0,0,1.08-.23.87.87,0,0,0,.43-.84,1,1,0,0,0-.36-.83,3.93,3.93,0,0,0-.89-.56q-.53-.25-1.17-.51a5.47,5.47,0,0,1-1.17-.66,3.31,3.31,0,0,1-.89-1,3.2,3.2,0,0,1-.36-1.61,3.44,3.44,0,0,1,.32-1.51,3.4,3.4,0,0,1,.9-1.15,4,4,0,0,1,1.36-.73,5.47,5.47,0,0,1,1.69-.25,11.06,11.06,0,0,1,1.52.11,6.92,6.92,0,0,1,1.57.42v2.64a12.24,12.24,0,0,0-1.49-.5,5,5,0,0,0-1.26-.17,2.31,2.31,0,0,0-1.1.22A.79.79,0,0,0,759.69,2588.51Z" transform="translate(-544.06 -2464.36)"/><path class="cls-1" d="M775.13,2585.32h3v2.45h-3v5.53a1.79,1.79,0,0,0,.36,1.29,1.57,1.57,0,0,0,1.13.35,5.6,5.6,0,0,0,1.87-.31v2.45a10.25,10.25,0,0,1-1.22.26,9.82,9.82,0,0,1-1.46.1,3.69,3.69,0,0,1-2.75-1,3.76,3.76,0,0,1-.95-2.76v-6h-2.28v-2.45h2.28v-3.19h3Z" transform="translate(-544.06 -2464.36)"/><path class="cls-1" d="M783.24,2587.24a4.39,4.39,0,0,1,1.3-1.67,2.62,2.62,0,0,1,1.56-.54,5.79,5.79,0,0,1,.65,0,2.22,2.22,0,0,1,.6.16v2.4a5.24,5.24,0,0,0-.67-.08h-.5a3.94,3.94,0,0,0-1.5.3,5,5,0,0,0-1.28.76v8.59h-3v-11.86h2.54Z" transform="translate(-544.06 -2464.36)"/><path class="cls-1" d="M794.38,2597.18l-.24-1a6.22,6.22,0,0,1-1.14.89,3.16,3.16,0,0,1-1.69.41,3.36,3.36,0,0,1-2.59-1,4,4,0,0,1-.94-2.8,4,4,0,0,1,.38-1.84,3.17,3.17,0,0,1,1.05-1.21,4.56,4.56,0,0,1,1.55-.66,8.29,8.29,0,0,1,1.87-.2h1.31V2589a1.34,1.34,0,0,0-.49-1.14,2.14,2.14,0,0,0-1.33-.37,8.76,8.76,0,0,0-1.66.17,11.84,11.84,0,0,0-1.64.43v-2.54l.84-.2q.48-.11,1-.18l1-.12c.35,0,.67,0,1,0a3.77,3.77,0,0,1,4.32,4.27v7.87Zm-.41-5.35h-1.09a2.45,2.45,0,0,0-1.46.39,1.38,1.38,0,0,0-.54,1.2,1.72,1.72,0,0,0,.34,1.08,1.3,1.3,0,0,0,1.1.45,2.23,2.23,0,0,0,.92-.18,5.33,5.33,0,0,0,.73-.4Z" transform="translate(-544.06 -2464.36)"/><path class="cls-1" d="M802.68,2586.57a5.31,5.31,0,0,1,1.34-1.08,3.55,3.55,0,0,1,1.8-.46,3.13,3.13,0,0,1,2.56,1.06,4,4,0,0,1,.88,2.66v8.42h-3v-7.86a2.63,2.63,0,0,0-.28-1.3,1.17,1.17,0,0,0-1.12-.48,2.6,2.6,0,0,0-1.08.24,4.32,4.32,0,0,0-1,.65v8.76h-3v-11.86h2.71Z" transform="translate(-544.06 -2464.36)"/><path class="cls-1" d="M814.44,2588.51a.89.89,0,0,0,.36.74,4.53,4.53,0,0,0,.9.54l1.16.53a5.57,5.57,0,0,1,1.16.7,3.59,3.59,0,0,1,.9,1.06,3.13,3.13,0,0,1,.36,1.57,3.5,3.5,0,0,1-1.19,2.78,4.75,4.75,0,0,1-3.23,1,11.15,11.15,0,0,1-1.68-.13,7.5,7.5,0,0,1-1.78-.52v-2.69a7.77,7.77,0,0,0,3.27.84,2.3,2.3,0,0,0,1.08-.23.87.87,0,0,0,.43-.84,1,1,0,0,0-.36-.83,3.93,3.93,0,0,0-.89-.56q-.53-.25-1.17-.51a5.47,5.47,0,0,1-1.17-.66,3.31,3.31,0,0,1-.89-1,3.2,3.2,0,0,1-.36-1.61,3.44,3.44,0,0,1,.32-1.51,3.4,3.4,0,0,1,.9-1.15,4,4,0,0,1,1.36-.73,5.47,5.47,0,0,1,1.69-.25,11.06,11.06,0,0,1,1.52.11,6.92,6.92,0,0,1,1.57.42v2.64a12.24,12.24,0,0,0-1.49-.5,5,5,0,0,0-1.26-.17,2.31,2.31,0,0,0-1.1.22A.79.79,0,0,0,814.44,2588.51Z" transform="translate(-544.06 -2464.36)"/><path class="cls-1" d="M826.32,2579.68a10.62,10.62,0,0,1,1.19.07,8.64,8.64,0,0,1,1.12.19v2.52q-.46-.12-.92-.2a5.38,5.38,0,0,0-.95-.08,1.31,1.31,0,0,0-1.51,1.46v1.68h3.12v2.45h-3.12v9.41h-3v-9.41h-2v-2.45h2v-1.61a4,4,0,0,1,1.06-3A4.16,4.16,0,0,1,826.32,2579.68Z" transform="translate(-544.06 -2464.36)"/><path class="cls-1" d="M839.4,2591.25a9.33,9.33,0,0,1-.3,2.4,5.53,5.53,0,0,1-.95,2,4.61,4.61,0,0,1-1.66,1.33,5.49,5.49,0,0,1-2.42.49,5.43,5.43,0,0,1-2.4-.49,4.6,4.6,0,0,1-1.66-1.33,5.48,5.48,0,0,1-.95-2,9.29,9.29,0,0,1-.3-2.4,9.6,9.6,0,0,1,.29-2.37,5.58,5.58,0,0,1,.92-2,4.56,4.56,0,0,1,1.64-1.36,6.2,6.2,0,0,1,4.9,0,4.67,4.67,0,0,1,1.66,1.36,5.46,5.46,0,0,1,.94,2A9.6,9.6,0,0,1,839.4,2591.25Zm-3.1,0a12.8,12.8,0,0,0-.07-1.38,3.6,3.6,0,0,0-.31-1.16,2.1,2.1,0,0,0-.67-.82,2,2,0,0,0-1.18-.31,1.93,1.93,0,0,0-1.15.31,2,2,0,0,0-.66.82,4,4,0,0,0-.31,1.16,10.84,10.84,0,0,0-.08,1.38,11.1,11.1,0,0,0,.08,1.39,4.36,4.36,0,0,0,.31,1.2,2,2,0,0,0,.66.84,1.93,1.93,0,0,0,1.15.31,2,2,0,0,0,1.16-.31,2,2,0,0,0,.67-.84,4.4,4.4,0,0,0,.31-1.2A11.1,11.1,0,0,0,836.3,2591.2Z" transform="translate(-544.06 -2464.36)"/><path class="cls-1" d="M844.58,2587.24a4.39,4.39,0,0,1,1.3-1.67,2.62,2.62,0,0,1,1.56-.54,5.79,5.79,0,0,1,.65,0,2.22,2.22,0,0,1,.6.16v2.4a5.24,5.24,0,0,0-.67-.08h-.5a3.94,3.94,0,0,0-1.5.3,5,5,0,0,0-1.28.76v8.59h-3v-11.86h2.54Z" transform="translate(-544.06 -2464.36)"/><path class="cls-1" d="M859.8,2597.18h-3v-7.86a2.62,2.62,0,0,0-.28-1.32q-.28-.47-1.19-.47a2,2,0,0,0-1,.26,5.48,5.48,0,0,0-.92.62v8.76h-3v-11.86h2.69l.24,1.27a5.6,5.6,0,0,1,1.33-1.09,3.41,3.41,0,0,1,1.79-.47,3.14,3.14,0,0,1,1.67.43,3.42,3.42,0,0,1,1.14,1.13,6.78,6.78,0,0,1,1.45-1.1,3.77,3.77,0,0,1,1.88-.46,3.43,3.43,0,0,1,2.7,1,3.92,3.92,0,0,1,.9,2.71v8.42h-3v-7.86a2.52,2.52,0,0,0-.29-1.32,1.22,1.22,0,0,0-1.13-.47,2.55,2.55,0,0,0-1,.23,4.41,4.41,0,0,0-1,.56,1.83,1.83,0,0,1,0,.29v8.57Z" transform="translate(-544.06 -2464.36)"/><path class="cls-1" d="M874.94,2597.18l-.24-1a6.22,6.22,0,0,1-1.14.89,3.16,3.16,0,0,1-1.69.41,3.36,3.36,0,0,1-2.59-1,4,4,0,0,1-.94-2.8,4,4,0,0,1,.38-1.84,3.17,3.17,0,0,1,1.05-1.21,4.56,4.56,0,0,1,1.55-.66,8.29,8.29,0,0,1,1.87-.2h1.31V2589a1.34,1.34,0,0,0-.49-1.14,2.14,2.14,0,0,0-1.33-.37,8.76,8.76,0,0,0-1.66.17,11.84,11.84,0,0,0-1.64.43v-2.54l.84-.2q.48-.11,1-.18l1-.12c.35,0,.67,0,1,0a3.77,3.77,0,0,1,4.32,4.27v7.87Zm-.41-5.35h-1.09a2.45,2.45,0,0,0-1.46.39,1.38,1.38,0,0,0-.54,1.2,1.72,1.72,0,0,0,.34,1.08,1.3,1.3,0,0,0,1.1.45,2.23,2.23,0,0,0,.92-.18,5.33,5.33,0,0,0,.73-.4Z" transform="translate(-544.06 -2464.36)"/><path class="cls-1" d="M884.21,2585.32h3v2.45h-3v5.53a1.79,1.79,0,0,0,.36,1.29,1.57,1.57,0,0,0,1.13.35,5.6,5.6,0,0,0,1.87-.31v2.45a10.25,10.25,0,0,1-1.22.26,9.82,9.82,0,0,1-1.46.1,3.69,3.69,0,0,1-2.75-1,3.76,3.76,0,0,1-.95-2.76v-6H878.9v-2.45h2.28v-3.19h3Z" transform="translate(-544.06 -2464.36)"/><path class="cls-1" d="M889.05,2581.29a1.61,1.61,0,0,1,.53-1.25,2.19,2.19,0,0,1,2.74,0,1.61,1.61,0,0,1,.53,1.25,1.57,1.57,0,0,1-.53,1.24,2.24,2.24,0,0,1-2.74,0A1.57,1.57,0,0,1,889.05,2581.29Zm3.41,15.89h-3v-11.86h3Z" transform="translate(-544.06 -2464.36)"/><path class="cls-1" d="M905.4,2591.25a9.33,9.33,0,0,1-.3,2.4,5.53,5.53,0,0,1-.95,2,4.61,4.61,0,0,1-1.66,1.33,5.49,5.49,0,0,1-2.42.49,5.43,5.43,0,0,1-2.4-.49,4.6,4.6,0,0,1-1.66-1.33,5.48,5.48,0,0,1-.95-2,9.29,9.29,0,0,1-.3-2.4,9.6,9.6,0,0,1,.29-2.37,5.58,5.58,0,0,1,.92-2,4.56,4.56,0,0,1,1.64-1.36,6.2,6.2,0,0,1,4.9,0,4.67,4.67,0,0,1,1.66,1.36,5.46,5.46,0,0,1,.94,2A9.6,9.6,0,0,1,905.4,2591.25Zm-3.1,0a12.8,12.8,0,0,0-.07-1.38,3.6,3.6,0,0,0-.31-1.16,2.1,2.1,0,0,0-.67-.82,2,2,0,0,0-1.18-.31,1.93,1.93,0,0,0-1.15.31,2,2,0,0,0-.66.82,4,4,0,0,0-.31,1.16,10.84,10.84,0,0,0-.08,1.38,11.1,11.1,0,0,0,.08,1.39,4.36,4.36,0,0,0,.31,1.2,2,2,0,0,0,.66.84,1.93,1.93,0,0,0,1.15.31,2,2,0,0,0,1.16-.31,2,2,0,0,0,.67-.84,4.4,4.4,0,0,0,.31-1.2A11.1,11.1,0,0,0,902.3,2591.2Z" transform="translate(-544.06 -2464.36)"/><path class="cls-1" d="M910.65,2586.57a5.31,5.31,0,0,1,1.34-1.08,3.55,3.55,0,0,1,1.8-.46,3.13,3.13,0,0,1,2.56,1.06,4,4,0,0,1,.88,2.66v8.42h-3v-7.86a2.63,2.63,0,0,0-.28-1.3,1.17,1.17,0,0,0-1.12-.48,2.6,2.6,0,0,0-1.08.24,4.32,4.32,0,0,0-1,.65v8.76h-3v-11.86h2.71Z" transform="translate(-544.06 -2464.36)"/><path class="cls-1" d="M639.7,2626.6a3.26,3.26,0,0,1-3.74,3.62,10.2,10.2,0,0,1-2.09-.22v-2.42a6.24,6.24,0,0,0,.7.11,6.66,6.66,0,0,0,.67,0,1.61,1.61,0,0,0,1.16-.3,1.83,1.83,0,0,0,.28-1.19v-12.12h3Zm-3.41-16.51a1.61,1.61,0,0,1,.53-1.25,2.19,2.19,0,0,1,2.74,0,1.61,1.61,0,0,1,.53,1.25,1.57,1.57,0,0,1-.53,1.24,2.23,2.23,0,0,1-2.74,0A1.57,1.57,0,0,1,636.29,2610.09Z" transform="translate(-544.06 -2464.36)"/><path class="cls-1" d="M652.63,2620.05a9.34,9.34,0,0,1-.3,2.4,5.51,5.51,0,0,1-.95,2,4.6,4.6,0,0,1-1.66,1.33,5.48,5.48,0,0,1-2.42.49,5.42,5.42,0,0,1-2.4-.49,4.59,4.59,0,0,1-1.66-1.33,5.46,5.46,0,0,1-.95-2,9.3,9.3,0,0,1-.3-2.4,9.61,9.61,0,0,1,.29-2.38,5.58,5.58,0,0,1,.92-2,4.56,4.56,0,0,1,1.64-1.36,6.2,6.2,0,0,1,4.9,0,4.67,4.67,0,0,1,1.66,1.36,5.47,5.47,0,0,1,.94,2A9.61,9.61,0,0,1,652.63,2620.05Zm-3.1,0a12.75,12.75,0,0,0-.07-1.38,3.59,3.59,0,0,0-.31-1.16,2.1,2.1,0,0,0-.67-.82,2,2,0,0,0-1.18-.31,1.93,1.93,0,0,0-1.15.31,2,2,0,0,0-.66.82,4,4,0,0,0-.31,1.16,10.79,10.79,0,0,0-.08,1.38,11.09,11.09,0,0,0,.08,1.39,4.37,4.37,0,0,0,.31,1.2,2,2,0,0,0,.66.84,1.93,1.93,0,0,0,1.15.31,2,2,0,0,0,1.16-.31,1.94,1.94,0,0,0,.67-.84,4.41,4.41,0,0,0,.31-1.2A11.09,11.09,0,0,0,649.54,2620Z" transform="translate(-544.06 -2464.36)"/><path class="cls-1" d="M654.86,2614.12h3V2622a2.19,2.19,0,0,0,.32,1.33,1.43,1.43,0,0,0,1.19.42,2.26,2.26,0,0,0,1-.25,5,5,0,0,0,.92-.61v-8.74h3V2626h-2.71l-.24-1.27a5.31,5.31,0,0,1-1.31,1,3.44,3.44,0,0,1-1.79.49,3.38,3.38,0,0,1-2.59-.95,3.88,3.88,0,0,1-.89-2.75Z" transform="translate(-544.06 -2464.36)"/><path class="cls-1" d="M670.25,2616a4.39,4.39,0,0,1,1.3-1.67,2.61,2.61,0,0,1,1.56-.54,5.56,5.56,0,0,1,.65,0,2.21,2.21,0,0,1,.6.16v2.4a5.65,5.65,0,0,0-.67-.08h-.5a3.92,3.92,0,0,0-1.5.3,4.93,4.93,0,0,0-1.28.76V2626h-3v-11.86h2.54Z" transform="translate(-544.06 -2464.36)"/><path class="cls-1" d="M679,2615.37a5.29,5.29,0,0,1,1.34-1.08,3.53,3.53,0,0,1,1.8-.46,3.13,3.13,0,0,1,2.56,1.06,4,4,0,0,1,.88,2.66V2626h-3v-7.86a2.63,2.63,0,0,0-.28-1.3,1.17,1.17,0,0,0-1.12-.48,2.58,2.58,0,0,0-1.08.24,4.35,4.35,0,0,0-1,.65V2626h-3v-11.86h2.71Z" transform="translate(-544.06 -2464.36)"/><path class="cls-1" d="M690.91,2621a3.15,3.15,0,0,0,.87,1.95,2.94,2.94,0,0,0,2.19.76,6.45,6.45,0,0,0,1.67-.2,14.63,14.63,0,0,0,1.6-.54v2.54a7.05,7.05,0,0,1-1.66.52,10.26,10.26,0,0,1-1.94.18,7.26,7.26,0,0,1-2.68-.44,4.55,4.55,0,0,1-1.81-1.26,5.14,5.14,0,0,1-1-2,9.35,9.35,0,0,1-.32-2.56,8.65,8.65,0,0,1,.31-2.34,6.18,6.18,0,0,1,.94-2,4.47,4.47,0,0,1,1.6-1.37,5,5,0,0,1,2.32-.5,4.64,4.64,0,0,1,2.18.47,4.11,4.11,0,0,1,1.45,1.26,5.12,5.12,0,0,1,.8,1.82,9.5,9.5,0,0,1,.24,2.16q0,.36,0,.82t0,.67Zm3.6-2.11a6,6,0,0,0-.08-1,2.44,2.44,0,0,0-.28-.83,1.48,1.48,0,0,0-.56-.55,1.8,1.8,0,0,0-.9-.2,1.42,1.42,0,0,0-.79.21,1.72,1.72,0,0,0-.55.57,2.85,2.85,0,0,0-.33.83,5.25,5.25,0,0,0-.14,1Z" transform="translate(-544.06 -2464.36)"/><path class="cls-1" d="M704.36,2621.95l2.44-7.82h3l-4.25,12a16.67,16.67,0,0,1-.78,1.84,4.77,4.77,0,0,1-.94,1.3,3.45,3.45,0,0,1-1.26.77,5.25,5.25,0,0,1-1.73.25q-.46,0-1,0a6,6,0,0,1-1-.16v-2.52a9.07,9.07,0,0,0,.95.14l.76,0a1.89,1.89,0,0,0,1.24-.34,2.36,2.36,0,0,0,.64-.91l.38-.91-4.08-11.4h3Z" transform="translate(-544.06 -2464.36)"/><path class="cls-1" d="M725.35,2626h-3v-7.86a2.63,2.63,0,0,0-.28-1.3,1.18,1.18,0,0,0-1.12-.48,2.58,2.58,0,0,0-1.08.24,4.31,4.31,0,0,0-1,.65V2626h-3v-17.3h3v6.6a5.75,5.75,0,0,1,1.31-1,3.49,3.49,0,0,1,1.76-.43,3.13,3.13,0,0,1,2.56,1.06,4,4,0,0,1,.88,2.66Z" transform="translate(-544.06 -2464.36)"/><path class="cls-1" d="M734.11,2626l-.24-1a6.17,6.17,0,0,1-1.14.89,3.15,3.15,0,0,1-1.69.41,3.36,3.36,0,0,1-2.59-1,4,4,0,0,1-.94-2.8,4,4,0,0,1,.38-1.84,3.16,3.16,0,0,1,1.05-1.21,4.52,4.52,0,0,1,1.55-.66,8.29,8.29,0,0,1,1.87-.2h1.31v-.67a1.34,1.34,0,0,0-.49-1.14,2.14,2.14,0,0,0-1.33-.37,8.84,8.84,0,0,0-1.66.17,12.12,12.12,0,0,0-1.64.43v-2.54l.84-.2q.48-.11,1-.18l1-.12c.35,0,.67,0,1,0a3.77,3.77,0,0,1,4.32,4.27V2626Zm-.41-5.35h-1.09a2.45,2.45,0,0,0-1.46.39,1.38,1.38,0,0,0-.54,1.2,1.72,1.72,0,0,0,.34,1.08,1.3,1.3,0,0,0,1.1.45,2.23,2.23,0,0,0,.92-.18,5.23,5.23,0,0,0,.73-.4Z" transform="translate(-544.06 -2464.36)"/><path class="cls-1" d="M741.74,2617.3a.9.9,0,0,0,.36.74,4.58,4.58,0,0,0,.9.54l1.16.53a5.58,5.58,0,0,1,1.16.7,3.56,3.56,0,0,1,.9,1.06,3.13,3.13,0,0,1,.36,1.57,3.5,3.5,0,0,1-1.19,2.78,4.76,4.76,0,0,1-3.23,1,11.14,11.14,0,0,1-1.68-.13,7.5,7.5,0,0,1-1.78-.52v-2.69a7.75,7.75,0,0,0,3.27.84,2.3,2.3,0,0,0,1.08-.22.87.87,0,0,0,.43-.85,1,1,0,0,0-.36-.83,3.9,3.9,0,0,0-.89-.56c-.36-.17-.75-.34-1.17-.51a5.42,5.42,0,0,1-1.17-.66,3.3,3.3,0,0,1-.89-1,3.19,3.19,0,0,1-.36-1.61,3.36,3.36,0,0,1,1.22-2.66,4,4,0,0,1,1.36-.73,5.47,5.47,0,0,1,1.69-.25,11.22,11.22,0,0,1,1.52.11,6.87,6.87,0,0,1,1.57.42V2617a13,13,0,0,0-1.49-.5,5.09,5.09,0,0,0-1.26-.17,2.31,2.31,0,0,0-1.1.23A.78.78,0,0,0,741.74,2617.3Z" transform="translate(-544.06 -2464.36)"/><path class="cls-1" d="M763.1,2620.05a9.34,9.34,0,0,1-.3,2.4,5.51,5.51,0,0,1-.95,2,4.6,4.6,0,0,1-1.66,1.33,5.48,5.48,0,0,1-2.42.49,5.42,5.42,0,0,1-2.4-.49,4.59,4.59,0,0,1-1.66-1.33,5.46,5.46,0,0,1-.95-2,9.3,9.3,0,0,1-.3-2.4,9.61,9.61,0,0,1,.29-2.38,5.58,5.58,0,0,1,.92-2,4.56,4.56,0,0,1,1.64-1.36,6.2,6.2,0,0,1,4.9,0,4.67,4.67,0,0,1,1.66,1.36,5.47,5.47,0,0,1,.94,2A9.61,9.61,0,0,1,763.1,2620.05Zm-3.1,0a12.75,12.75,0,0,0-.07-1.38,3.59,3.59,0,0,0-.31-1.16,2.1,2.1,0,0,0-.67-.82,2,2,0,0,0-1.18-.31,1.93,1.93,0,0,0-1.15.31,2,2,0,0,0-.66.82,4,4,0,0,0-.31,1.16,10.79,10.79,0,0,0-.08,1.38,11.09,11.09,0,0,0,.08,1.39,4.37,4.37,0,0,0,.31,1.2,2,2,0,0,0,.66.84,1.93,1.93,0,0,0,1.15.31,2,2,0,0,0,1.16-.31,1.94,1.94,0,0,0,.67-.84,4.41,4.41,0,0,0,.31-1.2A11.09,11.09,0,0,0,760,2620Z" transform="translate(-544.06 -2464.36)"/><path class="cls-1" d="M768.36,2615.37a5.29,5.29,0,0,1,1.34-1.08,3.53,3.53,0,0,1,1.8-.46,3.13,3.13,0,0,1,2.56,1.06,4,4,0,0,1,.88,2.66V2626h-3v-7.86a2.63,2.63,0,0,0-.28-1.3,1.17,1.17,0,0,0-1.12-.48,2.58,2.58,0,0,0-1.08.24,4.35,4.35,0,0,0-1,.65V2626h-3v-11.86h2.71Z" transform="translate(-544.06 -2464.36)"/><path class="cls-1" d="M780.89,2626h-3v-17.3h3Z" transform="translate(-544.06 -2464.36)"/><path class="cls-1" d="M788.24,2621.95l2.44-7.82h3l-4.25,12a16.67,16.67,0,0,1-.78,1.84,4.77,4.77,0,0,1-.94,1.3,3.45,3.45,0,0,1-1.26.77,5.25,5.25,0,0,1-1.73.25q-.46,0-1,0a6,6,0,0,1-1-.16v-2.52a9.07,9.07,0,0,0,.95.14l.76,0a1.89,1.89,0,0,0,1.24-.34,2.36,2.36,0,0,0,.64-.91l.38-.91-4.08-11.4h3Z" transform="translate(-544.06 -2464.36)"/><path class="cls-1" d="M802.94,2626.6a3.26,3.26,0,0,1-3.74,3.62,10.2,10.2,0,0,1-2.09-.22v-2.42a6.24,6.24,0,0,0,.7.11,6.66,6.66,0,0,0,.67,0,1.61,1.61,0,0,0,1.16-.3,1.83,1.83,0,0,0,.28-1.19v-12.12h3Zm-3.41-16.51a1.61,1.61,0,0,1,.53-1.25,2.19,2.19,0,0,1,2.74,0,1.61,1.61,0,0,1,.53,1.25,1.57,1.57,0,0,1-.53,1.24,2.23,2.23,0,0,1-2.74,0A1.57,1.57,0,0,1,799.53,2610.09Z" transform="translate(-544.06 -2464.36)"/><path class="cls-1" d="M805.85,2614.12h3V2622a2.19,2.19,0,0,0,.32,1.33,1.43,1.43,0,0,0,1.19.42,2.26,2.26,0,0,0,1-.25,5,5,0,0,0,.92-.61v-8.74h3V2626h-2.71l-.24-1.27a5.31,5.31,0,0,1-1.31,1,3.44,3.44,0,0,1-1.79.49,3.38,3.38,0,0,1-2.59-.95,3.88,3.88,0,0,1-.89-2.75Z" transform="translate(-544.06 -2464.36)"/><path class="cls-1" d="M820.63,2617.3a.9.9,0,0,0,.36.74,4.58,4.58,0,0,0,.9.54l1.16.53a5.58,5.58,0,0,1,1.16.7,3.56,3.56,0,0,1,.9,1.06,3.13,3.13,0,0,1,.36,1.57,3.5,3.5,0,0,1-1.19,2.78,4.76,4.76,0,0,1-3.23,1,11.14,11.14,0,0,1-1.68-.13,7.5,7.5,0,0,1-1.78-.52v-2.69a7.75,7.75,0,0,0,3.27.84,2.3,2.3,0,0,0,1.08-.22.87.87,0,0,0,.43-.85,1,1,0,0,0-.36-.83,3.9,3.9,0,0,0-.89-.56c-.36-.17-.75-.34-1.17-.51a5.42,5.42,0,0,1-1.17-.66,3.3,3.3,0,0,1-.89-1,3.19,3.19,0,0,1-.36-1.61,3.36,3.36,0,0,1,1.22-2.66,4,4,0,0,1,1.36-.73,5.47,5.47,0,0,1,1.69-.25,11.22,11.22,0,0,1,1.52.11,6.87,6.87,0,0,1,1.57.42V2617a13,13,0,0,0-1.49-.5,5.09,5.09,0,0,0-1.26-.17,2.31,2.31,0,0,0-1.1.23A.78.78,0,0,0,820.63,2617.3Z" transform="translate(-544.06 -2464.36)"/><path class="cls-1" d="M831.74,2614.12h3v2.45h-3v5.53a1.79,1.79,0,0,0,.36,1.29,1.57,1.57,0,0,0,1.13.35,5.6,5.6,0,0,0,1.87-.31v2.45a10.64,10.64,0,0,1-1.22.26,9.7,9.7,0,0,1-1.46.1,3.69,3.69,0,0,1-2.75-1,3.76,3.76,0,0,1-.95-2.76v-6h-2.28v-2.45h2.28v-3.19h3Z" transform="translate(-544.06 -2464.36)"/><path class="cls-1" d="M843.57,2617.3a.9.9,0,0,0,.36.74,4.58,4.58,0,0,0,.9.54l1.16.53a5.58,5.58,0,0,1,1.16.7,3.56,3.56,0,0,1,.9,1.06,3.13,3.13,0,0,1,.36,1.57,3.5,3.5,0,0,1-1.19,2.78,4.76,4.76,0,0,1-3.23,1,11.14,11.14,0,0,1-1.68-.13,7.5,7.5,0,0,1-1.78-.52v-2.69a7.75,7.75,0,0,0,3.27.84,2.3,2.3,0,0,0,1.08-.22.87.87,0,0,0,.43-.85,1,1,0,0,0-.36-.83,3.9,3.9,0,0,0-.89-.56c-.36-.17-.75-.34-1.17-.51a5.42,5.42,0,0,1-1.17-.66,3.3,3.3,0,0,1-.89-1,3.19,3.19,0,0,1-.36-1.61,3.36,3.36,0,0,1,1.22-2.66,4,4,0,0,1,1.36-.73,5.47,5.47,0,0,1,1.69-.25,11.22,11.22,0,0,1,1.52.11,6.87,6.87,0,0,1,1.57.42V2617a13,13,0,0,0-1.49-.5,5.09,5.09,0,0,0-1.26-.17,2.31,2.31,0,0,0-1.1.23A.78.78,0,0,0,843.57,2617.3Z" transform="translate(-544.06 -2464.36)"/><path class="cls-1" d="M854.68,2614.12h3v2.45h-3v5.53a1.79,1.79,0,0,0,.36,1.29,1.57,1.57,0,0,0,1.13.35,5.6,5.6,0,0,0,1.87-.31v2.45a10.64,10.64,0,0,1-1.22.26,9.7,9.7,0,0,1-1.46.1,3.69,3.69,0,0,1-2.75-1,3.76,3.76,0,0,1-.95-2.76v-6h-2.28v-2.45h2.28v-3.19h3Z" transform="translate(-544.06 -2464.36)"/><path class="cls-1" d="M865.77,2626l-.24-1a6.17,6.17,0,0,1-1.14.89,3.15,3.15,0,0,1-1.69.41,3.36,3.36,0,0,1-2.59-1,4,4,0,0,1-.94-2.8,4,4,0,0,1,.38-1.84,3.16,3.16,0,0,1,1.05-1.21,4.52,4.52,0,0,1,1.55-.66,8.29,8.29,0,0,1,1.87-.2h1.31v-.67a1.34,1.34,0,0,0-.49-1.14,2.14,2.14,0,0,0-1.33-.37,8.84,8.84,0,0,0-1.66.17,12.12,12.12,0,0,0-1.64.43v-2.54l.84-.2q.48-.11,1-.18l1-.12c.35,0,.67,0,1,0a3.77,3.77,0,0,1,4.32,4.27V2626Zm-.41-5.35h-1.09a2.45,2.45,0,0,0-1.46.39,1.38,1.38,0,0,0-.54,1.2,1.72,1.72,0,0,0,.34,1.08,1.3,1.3,0,0,0,1.1.45,2.23,2.23,0,0,0,.92-.18,5.23,5.23,0,0,0,.73-.4Z" transform="translate(-544.06 -2464.36)"/><path class="cls-1" d="M874,2616a4.39,4.39,0,0,1,1.3-1.67,2.61,2.61,0,0,1,1.56-.54,5.56,5.56,0,0,1,.65,0,2.21,2.21,0,0,1,.6.16v2.4a5.65,5.65,0,0,0-.67-.08h-.5a3.92,3.92,0,0,0-1.5.3,4.93,4.93,0,0,0-1.28.76V2626h-3v-11.86h2.54Z" transform="translate(-544.06 -2464.36)"/><path class="cls-1" d="M884.28,2614.12h3v2.45h-3v5.53a1.79,1.79,0,0,0,.36,1.29,1.57,1.57,0,0,0,1.13.35,5.6,5.6,0,0,0,1.87-.31v2.45a10.64,10.64,0,0,1-1.22.26,9.7,9.7,0,0,1-1.46.1,3.69,3.69,0,0,1-2.75-1,3.76,3.76,0,0,1-.95-2.76v-6H879v-2.45h2.28v-3.19h3Z" transform="translate(-544.06 -2464.36)"/><path class="cls-1" d="M891.57,2621a3.15,3.15,0,0,0,.87,1.95,2.94,2.94,0,0,0,2.19.76,6.45,6.45,0,0,0,1.67-.2,14.63,14.63,0,0,0,1.6-.54v2.54a7.05,7.05,0,0,1-1.66.52,10.26,10.26,0,0,1-1.94.18,7.26,7.26,0,0,1-2.68-.44,4.55,4.55,0,0,1-1.81-1.26,5.14,5.14,0,0,1-1-2,9.35,9.35,0,0,1-.32-2.56,8.65,8.65,0,0,1,.31-2.34,6.18,6.18,0,0,1,.94-2,4.47,4.47,0,0,1,1.6-1.37,5,5,0,0,1,2.32-.5,4.64,4.64,0,0,1,2.18.47,4.11,4.11,0,0,1,1.45,1.26,5.12,5.12,0,0,1,.8,1.82,9.5,9.5,0,0,1,.24,2.16q0,.36,0,.82t0,.67Zm3.6-2.11a6,6,0,0,0-.08-1,2.44,2.44,0,0,0-.28-.83,1.48,1.48,0,0,0-.56-.55,1.8,1.8,0,0,0-.9-.2,1.42,1.42,0,0,0-.79.21,1.72,1.72,0,0,0-.55.57,2.85,2.85,0,0,0-.33.83,5.25,5.25,0,0,0-.14,1Z" transform="translate(-544.06 -2464.36)"/><path class="cls-1" d="M910.32,2626H907.7l-.24-1a4.27,4.27,0,0,1-1.18.9,3.7,3.7,0,0,1-1.73.37,4.16,4.16,0,0,1-2.13-.5,4,4,0,0,1-1.4-1.36,6,6,0,0,1-.78-2A11.38,11.38,0,0,1,900,2620a9.43,9.43,0,0,1,.27-2.27,6.24,6.24,0,0,1,.86-2,4.5,4.5,0,0,1,1.5-1.4,4.27,4.27,0,0,1,2.18-.53,3.12,3.12,0,0,1,1.47.31,4.12,4.12,0,0,1,1,.72v-6.19h3Zm-3-9.07a3.5,3.5,0,0,0-.76-.41,2.9,2.9,0,0,0-1-.17,2.15,2.15,0,0,0-1.16.29,2.11,2.11,0,0,0-.74.79,3.52,3.52,0,0,0-.38,1.16,9.27,9.27,0,0,0,0,2.81,4.17,4.17,0,0,0,.37,1.21,2.17,2.17,0,0,0,.72.85,2,2,0,0,0,1.17.31,2.86,2.86,0,0,0,1-.17,3.75,3.75,0,0,0,.83-.43Z" transform="translate(-544.06 -2464.36)"/><path class="cls-1" d="M917.37,2624.25a1.92,1.92,0,0,1-.58,1.42,2.14,2.14,0,0,1-1.58.58,2.16,2.16,0,0,1-1.52-.54,2.07,2.07,0,0,1,0-2.89,2.14,2.14,0,0,1,1.52-.55,2.26,2.26,0,0,1,1.54.54A1.82,1.82,0,0,1,917.37,2624.25Z" transform="translate(-544.06 -2464.36)"/></svg>