<svg id="text" xmlns="http://www.w3.org/2000/svg" viewBox="0 0 357.64 48.55"><defs><style>.cls-1{fill:#282828;}.cls-2{fill:#004796;}</style></defs><path class="cls-1" d="M591.42,2224.14a3.57,3.57,0,0,1-.3,1.52,2.88,2.88,0,0,1-.82,1.06,3.54,3.54,0,0,1-1.2.62,5,5,0,0,1-1.46.21,8.71,8.71,0,0,1-1.64-.16,7.47,7.47,0,0,1-1.62-.51v-1.75a11.76,11.76,0,0,0,1.47.56,5.41,5.41,0,0,0,1.62.24,2.63,2.63,0,0,0,1.41-.35,1.29,1.29,0,0,0,.56-1.19,1.51,1.51,0,0,0-.36-1,3.92,3.92,0,0,0-.88-.73,12.8,12.8,0,0,0-1.14-.62,6.73,6.73,0,0,1-1.14-.7,3.51,3.51,0,0,1-.88-1,2.92,2.92,0,0,1-.36-1.52,3,3,0,0,1,.28-1.3,2.85,2.85,0,0,1,.76-1,3.44,3.44,0,0,1,1.15-.62,4.61,4.61,0,0,1,1.45-.22,7.44,7.44,0,0,1,2.78.55V2218a12.15,12.15,0,0,0-1.25-.53,4.15,4.15,0,0,0-1.41-.23,2.18,2.18,0,0,0-1.28.35,1.17,1.17,0,0,0-.5,1,1.39,1.39,0,0,0,.35,1,3.77,3.77,0,0,0,.88.7q.53.32,1.15.61a6.34,6.34,0,0,1,1.15.71,3.55,3.55,0,0,1,.88,1A2.93,2.93,0,0,1,591.42,2224.14Z" transform="translate(-560.32 -2210.41)"/><path class="cls-1" d="M602.9,2221.62a9.15,9.15,0,0,1-.28,2.29,5.48,5.48,0,0,1-.87,1.89,4.27,4.27,0,0,1-1.52,1.29,5.49,5.49,0,0,1-4.45,0,4.23,4.23,0,0,1-1.53-1.29,5.44,5.44,0,0,1-.87-1.89,9.47,9.47,0,0,1,0-4.54,5.7,5.7,0,0,1,.86-1.91,4.2,4.2,0,0,1,1.52-1.31,5.45,5.45,0,0,1,4.49,0,4.2,4.2,0,0,1,1.52,1.31,5.73,5.73,0,0,1,.86,1.91A9.09,9.09,0,0,1,602.9,2221.62Zm-2,0a11.89,11.89,0,0,0-.1-1.56,4,4,0,0,0-.43-1.37,2.69,2.69,0,0,0-.9-1,3.14,3.14,0,0,0-3,0,2.72,2.72,0,0,0-.89,1,4,4,0,0,0-.43,1.38,11.89,11.89,0,0,0-.1,1.56,11.11,11.11,0,0,0,.12,1.62,4.34,4.34,0,0,0,.44,1.4,2.61,2.61,0,0,0,.88,1,2.67,2.67,0,0,0,1.48.37,2.72,2.72,0,0,0,1.49-.37,2.49,2.49,0,0,0,.89-1,4.54,4.54,0,0,0,.43-1.4A11.24,11.24,0,0,0,600.92,2221.57Z" transform="translate(-560.32 -2210.41)"/><path class="cls-1" d="M612.65,2215.93h3v1.61h-3v6.71a1.91,1.91,0,0,0,.36,1.28,1.61,1.61,0,0,0,1.25.41,4.36,4.36,0,0,0,.94-.09,4.9,4.9,0,0,0,.8-.25v1.61a5,5,0,0,1-1,.26,7.87,7.87,0,0,1-1.09.08,3.41,3.41,0,0,1-2.37-.7,3,3,0,0,1-.76-2.29v-7H608.6v-1.61h2.14v-3.06h1.91Z" transform="translate(-560.32 -2210.41)"/><path class="cls-1" d="M626.68,2227.3h-1.91v-7.74a2.72,2.72,0,0,0-.46-1.71,2,2,0,0,0-1.63-.58,2.56,2.56,0,0,0-1.37.43,6.5,6.5,0,0,0-1.35,1.16v8.44h-1.91v-16.58H620v6.58a7.28,7.28,0,0,1,1.41-1.13,3.66,3.66,0,0,1,2-.51,3.28,3.28,0,0,1,2.46.9,3.41,3.41,0,0,1,.87,2.48Z" transform="translate(-560.32 -2210.41)"/><path class="cls-1" d="M635.72,2227.3l-.21-.92a6.57,6.57,0,0,1-1.26.8,3.73,3.73,0,0,1-1.7.37,3.52,3.52,0,0,1-2.59-.93A3.48,3.48,0,0,1,629,2224a4.18,4.18,0,0,1,.33-1.72,3.34,3.34,0,0,1,.92-1.22,3.91,3.91,0,0,1,1.4-.72,6.21,6.21,0,0,1,1.78-.24h2v-.61a2.37,2.37,0,0,0-.52-1.74,2.41,2.41,0,0,0-1.71-.5,7.56,7.56,0,0,0-1.55.18,9.72,9.72,0,0,0-1.5.44v-1.75a10.66,10.66,0,0,1,1.53-.33,11.68,11.68,0,0,1,1.8-.15,4,4,0,0,1,2.93.93,3.93,3.93,0,0,1,.93,2.89v7.82Zm-.28-5.57h-1.87a3.17,3.17,0,0,0-1.9.49,1.92,1.92,0,0,0-.67,1.66,2.11,2.11,0,0,0,.51,1.53,2.05,2.05,0,0,0,1.54.53,3,3,0,0,0,1.33-.29,4.71,4.71,0,0,0,1.06-.68Z" transform="translate(-560.32 -2210.41)"/><path class="cls-1" d="M642.94,2215.93h3v1.61h-3v6.71a1.91,1.91,0,0,0,.36,1.28,1.61,1.61,0,0,0,1.25.41,4.36,4.36,0,0,0,.94-.09,4.9,4.9,0,0,0,.8-.25v1.61a5,5,0,0,1-1,.26,7.87,7.87,0,0,1-1.09.08,3.41,3.41,0,0,1-2.37-.7,3,3,0,0,1-.76-2.29v-7h-2.14v-1.61H641v-3.06h1.91Z" transform="translate(-560.32 -2210.41)"/><path class="cls-1" d="M662.23,2221.36a10.88,10.88,0,0,1-.26,2.47,5.4,5.4,0,0,1-.86,2,4,4,0,0,1-1.58,1.29,5.63,5.63,0,0,1-2.4.46,9.19,9.19,0,0,1-1.09-.07c-.38,0-.75-.11-1.13-.18a7.65,7.65,0,0,1-1.07-.3,6.93,6.93,0,0,1-.9-.39v-15.89h1.93v6.37a6.31,6.31,0,0,1,1.39-1,4.38,4.38,0,0,1,3.76.07,3.66,3.66,0,0,1,1.28,1.25,5.61,5.61,0,0,1,.71,1.83A10.47,10.47,0,0,1,662.23,2221.36Zm-2,.09a8.51,8.51,0,0,0-.14-1.54,4.47,4.47,0,0,0-.46-1.34,2.7,2.7,0,0,0-.84-.95,2.21,2.21,0,0,0-1.29-.36,3,3,0,0,0-1.42.36,5.07,5.07,0,0,0-1.26.93v6.83a6.07,6.07,0,0,0,1.1.4,4.88,4.88,0,0,0,1.24.15,2.77,2.77,0,0,0,1.48-.36,2.71,2.71,0,0,0,.94-1,4.38,4.38,0,0,0,.5-1.43A9.6,9.6,0,0,0,660.26,2221.45Z" transform="translate(-560.32 -2210.41)"/><path class="cls-1" d="M666,2222.17a5.46,5.46,0,0,0,.18,1.43,3.47,3.47,0,0,0,.58,1.21,2.77,2.77,0,0,0,1.05.83,3.75,3.75,0,0,0,1.59.3,7.43,7.43,0,0,0,3.19-.78v1.66a6.53,6.53,0,0,1-1.69.55,9.83,9.83,0,0,1-1.85.18,5.41,5.41,0,0,1-2.27-.44,4.21,4.21,0,0,1-1.58-1.22,5,5,0,0,1-.91-1.87,9.54,9.54,0,0,1-.29-2.43,8.84,8.84,0,0,1,.29-2.28,5.64,5.64,0,0,1,.87-1.89,4.42,4.42,0,0,1,1.47-1.29,4.28,4.28,0,0,1,2.08-.48,4,4,0,0,1,2,.45,3.78,3.78,0,0,1,1.31,1.2,5,5,0,0,1,.72,1.74,9.47,9.47,0,0,1,.22,2v.62a4.53,4.53,0,0,1,0,.46Zm5-1.61a8.3,8.3,0,0,0-.09-1.22,2.9,2.9,0,0,0-.36-1.05,2,2,0,0,0-.75-.73,2.47,2.47,0,0,0-1.24-.28,2.11,2.11,0,0,0-1,.26,2.46,2.46,0,0,0-.78.69,3.42,3.42,0,0,0-.52,1,4.87,4.87,0,0,0-.21,1.3Z" transform="translate(-560.32 -2210.41)"/><path class="cls-1" d="M681.62,2224.14a3.57,3.57,0,0,1-.3,1.52,2.88,2.88,0,0,1-.82,1.06,3.54,3.54,0,0,1-1.2.62,5,5,0,0,1-1.46.21,8.71,8.71,0,0,1-1.64-.16,7.47,7.47,0,0,1-1.62-.51v-1.75a11.76,11.76,0,0,0,1.47.56,5.41,5.41,0,0,0,1.62.24,2.63,2.63,0,0,0,1.41-.35,1.29,1.29,0,0,0,.56-1.19,1.51,1.51,0,0,0-.36-1,3.92,3.92,0,0,0-.88-.73,12.8,12.8,0,0,0-1.14-.62,6.73,6.73,0,0,1-1.14-.7,3.51,3.51,0,0,1-.88-1,2.92,2.92,0,0,1-.36-1.52,3,3,0,0,1,.28-1.3,2.85,2.85,0,0,1,.76-1,3.44,3.44,0,0,1,1.15-.62,4.61,4.61,0,0,1,1.45-.22,7.44,7.44,0,0,1,2.78.55V2218a12.15,12.15,0,0,0-1.25-.53,4.15,4.15,0,0,0-1.41-.23,2.18,2.18,0,0,0-1.28.35,1.17,1.17,0,0,0-.5,1,1.39,1.39,0,0,0,.35,1,3.77,3.77,0,0,0,.88.7q.53.32,1.15.61a6.34,6.34,0,0,1,1.15.71,3.55,3.55,0,0,1,.88,1A2.93,2.93,0,0,1,681.62,2224.14Z" transform="translate(-560.32 -2210.41)"/><path class="cls-1" d="M686.71,2215.93h3v1.61h-3v6.71a1.91,1.91,0,0,0,.36,1.28,1.61,1.61,0,0,0,1.25.41,4.36,4.36,0,0,0,.94-.09,4.9,4.9,0,0,0,.8-.25v1.61a5,5,0,0,1-1,.26,7.87,7.87,0,0,1-1.09.08,3.41,3.41,0,0,1-2.37-.7,3,3,0,0,1-.76-2.29v-7h-2.14v-1.61h2.14v-3.06h1.91Z" transform="translate(-560.32 -2210.41)"/><path class="cls-1" d="M706,2221.43a10.38,10.38,0,0,1-.26,2.38,5.68,5.68,0,0,1-.84,1.94,4.16,4.16,0,0,1-1.48,1.31,4.55,4.55,0,0,1-2.17.48,3.53,3.53,0,0,1-2.61-1v4.65h-1.93v-15.27h1.61l.28,1.2a6.36,6.36,0,0,1,1.36-1,3.58,3.58,0,0,1,1.8-.44,4,4,0,0,1,2,.46,3.75,3.75,0,0,1,1.32,1.24,5.36,5.36,0,0,1,.72,1.83A11,11,0,0,1,706,2221.43Zm-2,.09a9.75,9.75,0,0,0-.13-1.58,4.29,4.29,0,0,0-.45-1.36,2.62,2.62,0,0,0-.86-1,2.35,2.35,0,0,0-1.34-.36,2.84,2.84,0,0,0-1.42.39,6.16,6.16,0,0,0-1.21.9V2225a3.58,3.58,0,0,0,1.1.67,3.63,3.63,0,0,0,1.35.25,2.65,2.65,0,0,0,1.47-.37,2.69,2.69,0,0,0,.9-1,4.26,4.26,0,0,0,.46-1.41A10.69,10.69,0,0,0,704,2221.52Z" transform="translate(-560.32 -2210.41)"/><path class="cls-1" d="M710.35,2217.77a4.58,4.58,0,0,1,1.3-1.48,3,3,0,0,1,1.85-.63,5.39,5.39,0,0,1,.71.05v1.56l-.32,0h-.32a3.71,3.71,0,0,0-1.64.41,5.67,5.67,0,0,0-1.55,1.15v8.49h-1.91v-11.36h1.66Z" transform="translate(-560.32 -2210.41)"/><path class="cls-1" d="M721.48,2227.3l-.21-.92a6.57,6.57,0,0,1-1.26.8,3.73,3.73,0,0,1-1.7.37,3.52,3.52,0,0,1-2.59-.93,3.48,3.48,0,0,1-.94-2.59,4.18,4.18,0,0,1,.33-1.72,3.34,3.34,0,0,1,.92-1.22,3.91,3.91,0,0,1,1.4-.72,6.21,6.21,0,0,1,1.78-.24h2v-.61a2.37,2.37,0,0,0-.52-1.74,2.41,2.41,0,0,0-1.71-.5,7.56,7.56,0,0,0-1.55.18,9.72,9.72,0,0,0-1.5.44v-1.75a10.66,10.66,0,0,1,1.53-.33,11.68,11.68,0,0,1,1.8-.15,4,4,0,0,1,2.93.93,3.93,3.93,0,0,1,.93,2.89v7.82Zm-.28-5.57h-1.87a3.17,3.17,0,0,0-1.9.49,1.92,1.92,0,0,0-.67,1.66,2.11,2.11,0,0,0,.51,1.53,2.05,2.05,0,0,0,1.54.53,3,3,0,0,0,1.33-.29,4.71,4.71,0,0,0,1.06-.68Z" transform="translate(-560.32 -2210.41)"/><path class="cls-1" d="M730.84,2225.94a5.34,5.34,0,0,0,1.38-.17,13.7,13.7,0,0,0,1.31-.43V2227a6.4,6.4,0,0,1-1.35.4,8,8,0,0,1-1.53.15,6.07,6.07,0,0,1-2.38-.43,4.29,4.29,0,0,1-1.64-1.2,5,5,0,0,1-1-1.89,9.3,9.3,0,0,1-.31-2.5,7.72,7.72,0,0,1,.31-2.18,5.64,5.64,0,0,1,1-1.89,4.73,4.73,0,0,1,1.62-1.32,5.06,5.06,0,0,1,2.31-.49,8.81,8.81,0,0,1,1.4.1,8.35,8.35,0,0,1,1.38.36v1.77a8.36,8.36,0,0,0-1.21-.44,5.37,5.37,0,0,0-1.44-.18,3.1,3.1,0,0,0-1.53.35,3.06,3.06,0,0,0-1,.95,4,4,0,0,0-.6,1.38,7.26,7.26,0,0,0-.18,1.67,7.53,7.53,0,0,0,.17,1.63,4,4,0,0,0,.58,1.38,3,3,0,0,0,1.07,1A3.48,3.48,0,0,0,730.84,2225.94Z" transform="translate(-560.32 -2210.41)"/><path class="cls-1" d="M738.43,2215.93h3v1.61h-3v6.71a1.91,1.91,0,0,0,.36,1.28,1.61,1.61,0,0,0,1.25.41,4.36,4.36,0,0,0,.94-.09,4.9,4.9,0,0,0,.8-.25v1.61a5,5,0,0,1-1,.26,7.87,7.87,0,0,1-1.09.08,3.41,3.41,0,0,1-2.37-.7,3,3,0,0,1-.76-2.29v-7h-2.14v-1.61h2.14v-3.06h1.91Z" transform="translate(-560.32 -2210.41)"/><path class="cls-1" d="M743.45,2211.72a1.29,1.29,0,0,1,.38-.92,1.23,1.23,0,0,1,.92-.39,1.31,1.31,0,1,1,0,2.62,1.23,1.23,0,0,1-.92-.39A1.28,1.28,0,0,1,743.45,2211.72Zm2.28,15.57h-1.91v-11.36h1.91Z" transform="translate(-560.32 -2210.41)"/><path class="cls-1" d="M753.68,2225.94a5.34,5.34,0,0,0,1.38-.17,13.7,13.7,0,0,0,1.31-.43V2227a6.4,6.4,0,0,1-1.35.4,8,8,0,0,1-1.53.15,6.07,6.07,0,0,1-2.38-.43,4.29,4.29,0,0,1-1.64-1.2,5,5,0,0,1-1-1.89,9.3,9.3,0,0,1-.31-2.5,7.72,7.72,0,0,1,.31-2.18,5.64,5.64,0,0,1,1-1.89,4.73,4.73,0,0,1,1.62-1.32,5.06,5.06,0,0,1,2.31-.49,8.81,8.81,0,0,1,1.4.1,8.35,8.35,0,0,1,1.38.36v1.77a8.36,8.36,0,0,0-1.21-.44,5.37,5.37,0,0,0-1.44-.18,3.1,3.1,0,0,0-1.53.35,3.06,3.06,0,0,0-1,.95,4,4,0,0,0-.6,1.38,7.26,7.26,0,0,0-.18,1.67,7.53,7.53,0,0,0,.17,1.63,4,4,0,0,0,.58,1.38,3,3,0,0,0,1.07,1A3.48,3.48,0,0,0,753.68,2225.94Z" transform="translate(-560.32 -2210.41)"/><path class="cls-1" d="M759.66,2222.17a5.46,5.46,0,0,0,.18,1.43,3.47,3.47,0,0,0,.58,1.21,2.77,2.77,0,0,0,1.05.83,3.75,3.75,0,0,0,1.59.3,7.43,7.43,0,0,0,3.19-.78v1.66a6.53,6.53,0,0,1-1.69.55,9.83,9.83,0,0,1-1.85.18,5.41,5.41,0,0,1-2.27-.44,4.21,4.21,0,0,1-1.58-1.22A5,5,0,0,1,758,2224a9.54,9.54,0,0,1-.29-2.43,8.84,8.84,0,0,1,.29-2.28,5.64,5.64,0,0,1,.87-1.89,4.42,4.42,0,0,1,1.47-1.29,4.28,4.28,0,0,1,2.08-.48,4,4,0,0,1,2,.45,3.78,3.78,0,0,1,1.31,1.2,5,5,0,0,1,.72,1.74,9.47,9.47,0,0,1,.22,2v.62a4.53,4.53,0,0,1,0,.46Zm5-1.61a8.3,8.3,0,0,0-.09-1.22,2.9,2.9,0,0,0-.36-1.05,2,2,0,0,0-.75-.73,2.47,2.47,0,0,0-1.24-.28,2.11,2.11,0,0,0-1,.26,2.46,2.46,0,0,0-.78.69,3.42,3.42,0,0,0-.52,1,4.87,4.87,0,0,0-.21,1.3Z" transform="translate(-560.32 -2210.41)"/><path class="cls-1" d="M768.47,2230.19a10.26,10.26,0,0,0,1-1.37,6.56,6.56,0,0,0,.67-1.46,1.67,1.67,0,0,1-.83-.47,1.28,1.28,0,0,1-.34-.93,1.61,1.61,0,0,1,.44-1.14,1.5,1.5,0,0,1,1.15-.47,1.48,1.48,0,0,1,1.2.49,1.82,1.82,0,0,1,.41,1.21,4.6,4.6,0,0,1-.14,1.09,7.35,7.35,0,0,1-.37,1.1,9.39,9.39,0,0,1-.52,1q-.29.5-.56.91Z" transform="translate(-560.32 -2210.41)"/><path class="cls-1" d="M784.45,2225.94a5.34,5.34,0,0,0,1.38-.17,13.7,13.7,0,0,0,1.31-.43V2227a6.4,6.4,0,0,1-1.35.4,8,8,0,0,1-1.53.15,6.07,6.07,0,0,1-2.38-.43,4.29,4.29,0,0,1-1.64-1.2,5,5,0,0,1-1-1.89,9.3,9.3,0,0,1-.31-2.5,7.72,7.72,0,0,1,.31-2.18,5.64,5.64,0,0,1,1-1.89,4.73,4.73,0,0,1,1.62-1.32,5.06,5.06,0,0,1,2.31-.49,8.81,8.81,0,0,1,1.4.1,8.35,8.35,0,0,1,1.38.36v1.77a8.36,8.36,0,0,0-1.21-.44,5.37,5.37,0,0,0-1.44-.18,3.1,3.1,0,0,0-1.53.35,3.06,3.06,0,0,0-1,.95,4,4,0,0,0-.6,1.38,7.26,7.26,0,0,0-.18,1.67,7.53,7.53,0,0,0,.17,1.63,4,4,0,0,0,.58,1.38,3,3,0,0,0,1.07,1A3.48,3.48,0,0,0,784.45,2225.94Z" transform="translate(-560.32 -2210.41)"/><path class="cls-1" d="M798.25,2221.62a9.15,9.15,0,0,1-.28,2.29,5.48,5.48,0,0,1-.87,1.89,4.27,4.27,0,0,1-1.52,1.29,5.49,5.49,0,0,1-4.45,0,4.23,4.23,0,0,1-1.53-1.29,5.44,5.44,0,0,1-.87-1.89,9.47,9.47,0,0,1,0-4.54,5.7,5.7,0,0,1,.86-1.91,4.2,4.2,0,0,1,1.52-1.31,5.45,5.45,0,0,1,4.49,0,4.2,4.2,0,0,1,1.52,1.31,5.73,5.73,0,0,1,.86,1.91A9.09,9.09,0,0,1,798.25,2221.62Zm-2,0a11.89,11.89,0,0,0-.1-1.56,4,4,0,0,0-.43-1.37,2.69,2.69,0,0,0-.9-1,3.14,3.14,0,0,0-3,0,2.72,2.72,0,0,0-.89,1,4,4,0,0,0-.43,1.38,11.89,11.89,0,0,0-.1,1.56,11.11,11.11,0,0,0,.12,1.62,4.34,4.34,0,0,0,.44,1.4,2.61,2.61,0,0,0,.88,1,2.67,2.67,0,0,0,1.48.37,2.72,2.72,0,0,0,1.49-.37,2.49,2.49,0,0,0,.89-1,4.54,4.54,0,0,0,.43-1.4A11.24,11.24,0,0,0,796.28,2221.57Z" transform="translate(-560.32 -2210.41)"/><path class="cls-1" d="M809.36,2227.3h-1.91v-7.69a2.94,2.94,0,0,0-.44-1.73,1.76,1.76,0,0,0-1.54-.61,2.76,2.76,0,0,0-1.56.49,6.57,6.57,0,0,0-1.27,1.09v8.44h-1.91v-11.36h1.63l.23,1.4a6.78,6.78,0,0,1,1.59-1.25,3.79,3.79,0,0,1,1.84-.43,3.28,3.28,0,0,1,2.46.9,3.41,3.41,0,0,1,.87,2.48Z" transform="translate(-560.32 -2210.41)"/><path class="cls-1" d="M815.11,2215.93h3v1.61h-3v6.71a1.91,1.91,0,0,0,.36,1.28,1.61,1.61,0,0,0,1.25.41,4.36,4.36,0,0,0,.94-.09,4.9,4.9,0,0,0,.8-.25v1.61a5,5,0,0,1-1,.26,7.87,7.87,0,0,1-1.09.08,3.41,3.41,0,0,1-2.37-.7,3,3,0,0,1-.76-2.29v-7h-2.14v-1.61h2.14v-3.06h1.91Z" transform="translate(-560.32 -2210.41)"/><path class="cls-1" d="M826.39,2227.3l-.21-.92a6.57,6.57,0,0,1-1.26.8,3.73,3.73,0,0,1-1.7.37,3.52,3.52,0,0,1-2.59-.93,3.48,3.48,0,0,1-.94-2.59,4.18,4.18,0,0,1,.33-1.72,3.34,3.34,0,0,1,.92-1.22,3.91,3.91,0,0,1,1.4-.72,6.21,6.21,0,0,1,1.78-.24h2v-.61a2.37,2.37,0,0,0-.52-1.74,2.41,2.41,0,0,0-1.71-.5,7.56,7.56,0,0,0-1.55.18,9.72,9.72,0,0,0-1.5.44v-1.75a10.66,10.66,0,0,1,1.53-.33,11.68,11.68,0,0,1,1.8-.15,4,4,0,0,1,2.93.93,3.93,3.93,0,0,1,.93,2.89v7.82Zm-.28-5.57h-1.87a3.17,3.17,0,0,0-1.9.49,1.92,1.92,0,0,0-.67,1.66,2.11,2.11,0,0,0,.51,1.53,2.05,2.05,0,0,0,1.54.53,3,3,0,0,0,1.33-.29,4.71,4.71,0,0,0,1.06-.68Z" transform="translate(-560.32 -2210.41)"/><path class="cls-1" d="M835.74,2225.94a5.34,5.34,0,0,0,1.38-.17,13.7,13.7,0,0,0,1.31-.43V2227a6.4,6.4,0,0,1-1.35.4,8,8,0,0,1-1.53.15,6.07,6.07,0,0,1-2.38-.43,4.29,4.29,0,0,1-1.64-1.2,5,5,0,0,1-1-1.89,9.3,9.3,0,0,1-.31-2.5,7.72,7.72,0,0,1,.31-2.18,5.64,5.64,0,0,1,1-1.89,4.73,4.73,0,0,1,1.62-1.32,5.06,5.06,0,0,1,2.31-.49,8.81,8.81,0,0,1,1.4.1,8.35,8.35,0,0,1,1.38.36v1.77a8.36,8.36,0,0,0-1.21-.44,5.37,5.37,0,0,0-1.44-.18,3.1,3.1,0,0,0-1.53.35,3.06,3.06,0,0,0-1,.95,4,4,0,0,0-.6,1.38,7.26,7.26,0,0,0-.18,1.67,7.53,7.53,0,0,0,.17,1.63,4,4,0,0,0,.58,1.38,3,3,0,0,0,1.07,1A3.48,3.48,0,0,0,835.74,2225.94Z" transform="translate(-560.32 -2210.41)"/><path class="cls-1" d="M843.33,2215.93h3v1.61h-3v6.71a1.91,1.91,0,0,0,.36,1.28,1.61,1.61,0,0,0,1.25.41,4.36,4.36,0,0,0,.94-.09,4.9,4.9,0,0,0,.8-.25v1.61a5,5,0,0,1-1,.26,7.87,7.87,0,0,1-1.09.08,3.41,3.41,0,0,1-2.37-.7,3,3,0,0,1-.76-2.29v-7h-2.14v-1.61h2.14v-3.06h1.91Z" transform="translate(-560.32 -2210.41)"/><path class="cls-1" d="M854.88,2224.14a3.57,3.57,0,0,1-.3,1.52,2.88,2.88,0,0,1-.82,1.06,3.54,3.54,0,0,1-1.2.62,5,5,0,0,1-1.46.21,8.71,8.71,0,0,1-1.64-.16,7.47,7.47,0,0,1-1.62-.51v-1.75a11.76,11.76,0,0,0,1.47.56,5.41,5.41,0,0,0,1.62.24,2.63,2.63,0,0,0,1.41-.35,1.29,1.29,0,0,0,.56-1.19,1.51,1.51,0,0,0-.36-1,3.92,3.92,0,0,0-.88-.73,12.8,12.8,0,0,0-1.14-.62,6.73,6.73,0,0,1-1.14-.7,3.51,3.51,0,0,1-.88-1,2.92,2.92,0,0,1-.36-1.52,3,3,0,0,1,.28-1.3,2.85,2.85,0,0,1,.76-1,3.44,3.44,0,0,1,1.15-.62,4.61,4.61,0,0,1,1.45-.22,7.44,7.44,0,0,1,2.78.55V2218a12.15,12.15,0,0,0-1.25-.53,4.15,4.15,0,0,0-1.41-.23,2.18,2.18,0,0,0-1.28.35,1.17,1.17,0,0,0-.5,1,1.39,1.39,0,0,0,.35,1,3.77,3.77,0,0,0,.88.7q.53.32,1.15.61a6.34,6.34,0,0,1,1.15.71,3.55,3.55,0,0,1,.88,1A2.93,2.93,0,0,1,854.88,2224.14Z" transform="translate(-560.32 -2210.41)"/><path class="cls-1" d="M867.78,2227.3l-.21-.92a6.57,6.57,0,0,1-1.26.8,3.73,3.73,0,0,1-1.7.37,3.52,3.52,0,0,1-2.59-.93,3.48,3.48,0,0,1-.94-2.59,4.18,4.18,0,0,1,.33-1.72,3.34,3.34,0,0,1,.92-1.22,3.91,3.91,0,0,1,1.4-.72,6.21,6.21,0,0,1,1.78-.24h2v-.61a2.37,2.37,0,0,0-.52-1.74,2.41,2.41,0,0,0-1.71-.5,7.56,7.56,0,0,0-1.55.18,9.72,9.72,0,0,0-1.5.44v-1.75a10.66,10.66,0,0,1,1.53-.33,11.68,11.68,0,0,1,1.8-.15,4,4,0,0,1,2.93.93,3.93,3.93,0,0,1,.93,2.89v7.82Zm-.28-5.57h-1.87a3.17,3.17,0,0,0-1.9.49,1.92,1.92,0,0,0-.67,1.66,2.11,2.11,0,0,0,.51,1.53,2.05,2.05,0,0,0,1.54.53,3,3,0,0,0,1.33-.29,4.71,4.71,0,0,0,1.06-.68Z" transform="translate(-560.32 -2210.41)"/><path class="cls-1" d="M881,2227.3h-1.91v-7.69a2.94,2.94,0,0,0-.44-1.73,1.76,1.76,0,0,0-1.54-.61,2.76,2.76,0,0,0-1.56.49,6.57,6.57,0,0,0-1.27,1.09v8.44H872.4v-11.36H874l.23,1.4a6.78,6.78,0,0,1,1.59-1.25,3.79,3.79,0,0,1,1.84-.43,3.28,3.28,0,0,1,2.46.9A3.41,3.41,0,0,1,881,2219Z" transform="translate(-560.32 -2210.41)"/><path class="cls-1" d="M892.74,2227.3h-1.61l-.23-1a5.25,5.25,0,0,1-1.18.86,3.62,3.62,0,0,1-1.78.4,4.42,4.42,0,0,1-2-.44,3.82,3.82,0,0,1-1.4-1.22,5.31,5.31,0,0,1-.8-1.84,9.81,9.81,0,0,1-.25-2.28,10,10,0,0,1,.27-2.38,5.86,5.86,0,0,1,.85-1.94,4.18,4.18,0,0,1,1.47-1.31,4.42,4.42,0,0,1,2.13-.48,3.67,3.67,0,0,1,1.55.31,5.55,5.55,0,0,1,1.09.63v-5.89h1.93Zm-1.91-9.18a5.41,5.41,0,0,0-1.07-.61,3.18,3.18,0,0,0-1.27-.24,3,3,0,0,0-1.51.35,2.56,2.56,0,0,0-.94.94,4.14,4.14,0,0,0-.48,1.38,9.89,9.89,0,0,0-.14,1.7,8.69,8.69,0,0,0,.15,1.64,4.13,4.13,0,0,0,.5,1.37,2.71,2.71,0,0,0,.93.94,2.68,2.68,0,0,0,1.42.35,3.67,3.67,0,0,0,2.4-.94Z" transform="translate(-560.32 -2210.41)"/><path class="cls-1" d="M560.32,2243.53h1.91v7.67a2.94,2.94,0,0,0,.44,1.71,1.75,1.75,0,0,0,1.54.63,2.75,2.75,0,0,0,1.56-.5A6.52,6.52,0,0,0,567,2252v-8.42h1.91v11.36h-1.63l-.23-1.4c-.2.2-.41.4-.63.6a4,4,0,0,1-.75.53,4.53,4.53,0,0,1-.92.38,4,4,0,0,1-1.13.15,3.33,3.33,0,0,1-2.46-.87,3.36,3.36,0,0,1-.87-2.48Z" transform="translate(-560.32 -2210.41)"/><path class="cls-1" d="M578.33,2251.74a3.57,3.57,0,0,1-.3,1.52,2.88,2.88,0,0,1-.82,1.06,3.54,3.54,0,0,1-1.2.62,5,5,0,0,1-1.46.21,8.71,8.71,0,0,1-1.64-.16,7.47,7.47,0,0,1-1.62-.51v-1.75a11.76,11.76,0,0,0,1.47.56,5.41,5.41,0,0,0,1.62.24,2.63,2.63,0,0,0,1.41-.35,1.29,1.29,0,0,0,.56-1.19,1.51,1.51,0,0,0-.36-1,3.92,3.92,0,0,0-.88-.73,12.8,12.8,0,0,0-1.14-.62,6.73,6.73,0,0,1-1.14-.7,3.51,3.51,0,0,1-.88-1,2.92,2.92,0,0,1-.36-1.52,3,3,0,0,1,.28-1.3,2.85,2.85,0,0,1,.76-1,3.44,3.44,0,0,1,1.15-.62,4.61,4.61,0,0,1,1.45-.22,7.44,7.44,0,0,1,2.78.55v1.82a12.15,12.15,0,0,0-1.25-.53,4.15,4.15,0,0,0-1.41-.23,2.18,2.18,0,0,0-1.28.35,1.17,1.17,0,0,0-.5,1,1.39,1.39,0,0,0,.35,1,3.77,3.77,0,0,0,.88.7q.53.32,1.15.61a6.34,6.34,0,0,1,1.15.71,3.55,3.55,0,0,1,.88,1A2.93,2.93,0,0,1,578.33,2251.74Z" transform="translate(-560.32 -2210.41)"/><path class="cls-1" d="M582,2249.77a5.46,5.46,0,0,0,.18,1.43,3.47,3.47,0,0,0,.58,1.21,2.77,2.77,0,0,0,1.05.83,3.75,3.75,0,0,0,1.59.3,7.43,7.43,0,0,0,3.19-.78v1.66a6.53,6.53,0,0,1-1.69.55,9.83,9.83,0,0,1-1.85.18,5.41,5.41,0,0,1-2.27-.44,4.21,4.21,0,0,1-1.58-1.22,5,5,0,0,1-.91-1.87,9.54,9.54,0,0,1-.29-2.43,8.84,8.84,0,0,1,.29-2.28,5.64,5.64,0,0,1,.87-1.89,4.42,4.42,0,0,1,1.47-1.29,4.28,4.28,0,0,1,2.08-.48,4,4,0,0,1,2,.45,3.78,3.78,0,0,1,1.31,1.2,5,5,0,0,1,.72,1.74,9.47,9.47,0,0,1,.22,2v.62a4.53,4.53,0,0,1,0,.46Zm5-1.61a8.3,8.3,0,0,0-.09-1.22,2.9,2.9,0,0,0-.36-1.05,2,2,0,0,0-.75-.73,2.47,2.47,0,0,0-1.24-.28,2.11,2.11,0,0,0-1,.26,2.46,2.46,0,0,0-.78.69,3.42,3.42,0,0,0-.52,1,4.87,4.87,0,0,0-.21,1.3Z" transform="translate(-560.32 -2210.41)"/><path class="cls-1" d="M595.79,2238.13a8.54,8.54,0,0,1,1,.06,7.75,7.75,0,0,1,.79.13v1.61a4.6,4.6,0,0,0-.79-.14q-.47,0-.93,0a1.66,1.66,0,0,0-1.4.49,2.5,2.5,0,0,0-.37,1.5v1.8h3.24v1.61H594v9.75h-1.91v-9.75h-2v-1.61h2v-1.72a3.18,3.18,0,0,1,3.66-3.68Z" transform="translate(-560.32 -2210.41)"/><path class="cls-1" d="M599,2243.53h1.91v7.67a2.94,2.94,0,0,0,.44,1.71,1.75,1.75,0,0,0,1.54.63,2.75,2.75,0,0,0,1.56-.5,6.52,6.52,0,0,0,1.26-1.09v-8.42h1.91v11.36H606l-.23-1.4c-.2.2-.41.4-.63.6a4,4,0,0,1-.75.53,4.53,4.53,0,0,1-.92.38,4,4,0,0,1-1.13.15,3.33,3.33,0,0,1-2.46-.87,3.36,3.36,0,0,1-.87-2.48Z" transform="translate(-560.32 -2210.41)"/><path class="cls-1" d="M612.74,2254.9h-1.91v-16.58h1.91Z" transform="translate(-560.32 -2210.41)"/><path class="cls-1" d="M624.67,2248.21l4.58,6.68h-2.37l-4.21-6.15h-.16v6.15H620.6v-16.58h1.91v9.63h.14l3.91-4.4h2.53Z" transform="translate(-560.32 -2210.41)"/><path class="cls-1" d="M639.67,2254.9h-1.91v-7.69a2.94,2.94,0,0,0-.44-1.73,1.76,1.76,0,0,0-1.54-.61,2.76,2.76,0,0,0-1.56.49,6.57,6.57,0,0,0-1.27,1.09v8.44H631v-11.36h1.63l.23,1.4a6.78,6.78,0,0,1,1.59-1.25,3.79,3.79,0,0,1,1.84-.43,3.28,3.28,0,0,1,2.46.9,3.41,3.41,0,0,1,.87,2.48Z" transform="translate(-560.32 -2210.41)"/><path class="cls-1" d="M651.88,2249.21a9.15,9.15,0,0,1-.28,2.29,5.48,5.48,0,0,1-.87,1.89,4.27,4.27,0,0,1-1.52,1.29,5.49,5.49,0,0,1-4.45,0,4.23,4.23,0,0,1-1.53-1.29,5.44,5.44,0,0,1-.87-1.89,9.47,9.47,0,0,1,0-4.54,5.7,5.7,0,0,1,.86-1.91,4.2,4.2,0,0,1,1.52-1.31,5.45,5.45,0,0,1,4.49,0,4.2,4.2,0,0,1,1.52,1.31,5.73,5.73,0,0,1,.86,1.91A9.09,9.09,0,0,1,651.88,2249.21Zm-2,0a11.89,11.89,0,0,0-.1-1.56,4,4,0,0,0-.43-1.37,2.69,2.69,0,0,0-.9-1,3.14,3.14,0,0,0-3,0,2.72,2.72,0,0,0-.89,1,4,4,0,0,0-.43,1.38,11.89,11.89,0,0,0-.1,1.56,11.11,11.11,0,0,0,.12,1.62,4.34,4.34,0,0,0,.44,1.4,2.61,2.61,0,0,0,.88,1,2.67,2.67,0,0,0,1.48.37,2.72,2.72,0,0,0,1.49-.37,2.49,2.49,0,0,0,.89-1,4.54,4.54,0,0,0,.43-1.4A11.24,11.24,0,0,0,649.91,2249.17Z" transform="translate(-560.32 -2210.41)"/><path class="cls-1" d="M664.11,2252.37l2.38-8.83h1.82L665,2254.9h-1.91l-2.35-9-2.37,9h-1.91L653,2243.53h2l2.52,8.79,2.36-8.79h1.93Z" transform="translate(-560.32 -2210.41)"/><path class="cls-1" d="M672.12,2254.9h-1.91v-16.58h1.91Z" transform="translate(-560.32 -2210.41)"/><path class="cls-1" d="M676.61,2249.77a5.46,5.46,0,0,0,.18,1.43,3.47,3.47,0,0,0,.58,1.21,2.77,2.77,0,0,0,1.05.83,3.75,3.75,0,0,0,1.59.3,7.43,7.43,0,0,0,3.19-.78v1.66a6.53,6.53,0,0,1-1.69.55,9.83,9.83,0,0,1-1.85.18,5.41,5.41,0,0,1-2.27-.44,4.21,4.21,0,0,1-1.58-1.22,5,5,0,0,1-.91-1.87,9.54,9.54,0,0,1-.29-2.43,8.84,8.84,0,0,1,.29-2.28,5.64,5.64,0,0,1,.87-1.89,4.42,4.42,0,0,1,1.47-1.29,4.28,4.28,0,0,1,2.08-.48,4,4,0,0,1,2,.45,3.78,3.78,0,0,1,1.31,1.2,5,5,0,0,1,.72,1.74,9.47,9.47,0,0,1,.22,2v.62a4.53,4.53,0,0,1,0,.46Zm5-1.61a8.3,8.3,0,0,0-.09-1.22,2.9,2.9,0,0,0-.36-1.05,2,2,0,0,0-.75-.73,2.47,2.47,0,0,0-1.24-.28,2.11,2.11,0,0,0-1,.26,2.46,2.46,0,0,0-.78.69,3.42,3.42,0,0,0-.52,1,4.87,4.87,0,0,0-.21,1.3Z" transform="translate(-560.32 -2210.41)"/><path class="cls-1" d="M694.66,2254.9h-1.61l-.23-1a5.25,5.25,0,0,1-1.18.86,3.62,3.62,0,0,1-1.78.4,4.42,4.42,0,0,1-2-.44,3.82,3.82,0,0,1-1.4-1.22,5.31,5.31,0,0,1-.8-1.84,9.81,9.81,0,0,1-.25-2.28,10,10,0,0,1,.27-2.38,5.86,5.86,0,0,1,.85-1.94,4.18,4.18,0,0,1,1.47-1.31,4.42,4.42,0,0,1,2.13-.48,3.67,3.67,0,0,1,1.55.31,5.55,5.55,0,0,1,1.09.63v-5.89h1.93Zm-1.91-9.18a5.41,5.41,0,0,0-1.07-.61,3.18,3.18,0,0,0-1.27-.24,3,3,0,0,0-1.51.35,2.56,2.56,0,0,0-.94.94,4.14,4.14,0,0,0-.48,1.38,9.89,9.89,0,0,0-.14,1.7,8.69,8.69,0,0,0,.15,1.64,4.13,4.13,0,0,0,.5,1.37,2.71,2.71,0,0,0,.93.94,2.68,2.68,0,0,0,1.42.35,3.67,3.67,0,0,0,2.4-.94Z" transform="translate(-560.32 -2210.41)"/><path class="cls-1" d="M706.46,2254.62a4.07,4.07,0,0,1-1.24,3.34,5.36,5.36,0,0,1-3.47,1,15.78,15.78,0,0,1-1.87-.12,8.41,8.41,0,0,1-1.64-.35v-1.7a16,16,0,0,0,1.66.4,9.3,9.3,0,0,0,1.68.15,4,4,0,0,0,2.14-.51,2,2,0,0,0,.81-1.85v-1.55a6.11,6.11,0,0,1-1.35.76,4.49,4.49,0,0,1-3.57-.15,4,4,0,0,1-1.38-1.2,5.25,5.25,0,0,1-.8-1.72,7.78,7.78,0,0,1-.26-2,9.44,9.44,0,0,1,.26-2.27,5.46,5.46,0,0,1,.83-1.86,4.08,4.08,0,0,1,1.42-1.25,4.3,4.3,0,0,1,2.05-.46,3.49,3.49,0,0,1,1.54.36,5.08,5.08,0,0,1,1.31.91l.23-1h1.65Zm-1.91-8.67a5.75,5.75,0,0,0-1.19-.77,3.11,3.11,0,0,0-1.37-.31,2.52,2.52,0,0,0-1.36.34,2.62,2.62,0,0,0-.87.9,3.9,3.9,0,0,0-.47,1.3,8.42,8.42,0,0,0-.14,1.54,8.3,8.3,0,0,0,.13,1.45,3.75,3.75,0,0,0,.46,1.27,2.51,2.51,0,0,0,.92.89,3,3,0,0,0,1.52.34,4,4,0,0,0,1.31-.23,3.11,3.11,0,0,0,1.08-.6Z" transform="translate(-560.32 -2210.41)"/><path class="cls-1" d="M710.92,2249.77a5.46,5.46,0,0,0,.18,1.43,3.47,3.47,0,0,0,.58,1.21,2.77,2.77,0,0,0,1.05.83,3.75,3.75,0,0,0,1.59.3,7.43,7.43,0,0,0,3.19-.78v1.66a6.53,6.53,0,0,1-1.69.55,9.83,9.83,0,0,1-1.85.18,5.41,5.41,0,0,1-2.27-.44,4.21,4.21,0,0,1-1.58-1.22,5,5,0,0,1-.91-1.87,9.54,9.54,0,0,1-.29-2.43,8.84,8.84,0,0,1,.29-2.28,5.64,5.64,0,0,1,.87-1.89,4.42,4.42,0,0,1,1.47-1.29,4.28,4.28,0,0,1,2.08-.48,4,4,0,0,1,2,.45,3.78,3.78,0,0,1,1.31,1.2,5,5,0,0,1,.72,1.74,9.47,9.47,0,0,1,.22,2v.62a4.53,4.53,0,0,1,0,.46Zm5-1.61a8.3,8.3,0,0,0-.09-1.22,2.9,2.9,0,0,0-.36-1.05,2,2,0,0,0-.75-.73,2.47,2.47,0,0,0-1.24-.28,2.11,2.11,0,0,0-1,.26,2.46,2.46,0,0,0-.78.69,3.42,3.42,0,0,0-.52,1,4.87,4.87,0,0,0-.21,1.3Z" transform="translate(-560.32 -2210.41)"/><path class="cls-1" d="M729.76,2253.54a5.34,5.34,0,0,0,1.38-.17,13.7,13.7,0,0,0,1.31-.43v1.66a6.4,6.4,0,0,1-1.35.4,8,8,0,0,1-1.53.15,6.07,6.07,0,0,1-2.38-.43,4.29,4.29,0,0,1-1.64-1.2,5,5,0,0,1-1-1.89,9.3,9.3,0,0,1-.31-2.5,7.72,7.72,0,0,1,.31-2.18,5.64,5.64,0,0,1,1-1.89,4.73,4.73,0,0,1,1.62-1.32,5.06,5.06,0,0,1,2.31-.49,8.81,8.81,0,0,1,1.4.1,8.35,8.35,0,0,1,1.38.36v1.77a8.36,8.36,0,0,0-1.21-.44,5.37,5.37,0,0,0-1.44-.18,3.1,3.1,0,0,0-1.53.35,3.06,3.06,0,0,0-1,.95,4,4,0,0,0-.6,1.38,7.26,7.26,0,0,0-.18,1.67,7.53,7.53,0,0,0,.17,1.63,4,4,0,0,0,.58,1.38,3,3,0,0,0,1.07,1A3.48,3.48,0,0,0,729.76,2253.54Z" transform="translate(-560.32 -2210.41)"/><path class="cls-1" d="M740.5,2254.9l-.21-.92a6.57,6.57,0,0,1-1.26.8,3.73,3.73,0,0,1-1.7.37,3.52,3.52,0,0,1-2.59-.93,3.48,3.48,0,0,1-.94-2.59,4.18,4.18,0,0,1,.33-1.72,3.34,3.34,0,0,1,.92-1.22,3.91,3.91,0,0,1,1.4-.72,6.21,6.21,0,0,1,1.78-.24h2v-.61a2.37,2.37,0,0,0-.52-1.74,2.41,2.41,0,0,0-1.71-.5,7.56,7.56,0,0,0-1.55.18,9.72,9.72,0,0,0-1.5.44v-1.75a10.66,10.66,0,0,1,1.53-.33,11.68,11.68,0,0,1,1.8-.15,4,4,0,0,1,2.93.93,3.93,3.93,0,0,1,.93,2.89v7.82Zm-.28-5.57h-1.87a3.17,3.17,0,0,0-1.9.49,1.92,1.92,0,0,0-.67,1.66,2.11,2.11,0,0,0,.51,1.53,2.05,2.05,0,0,0,1.54.53,3,3,0,0,0,1.33-.29,4.71,4.71,0,0,0,1.06-.68Z" transform="translate(-560.32 -2210.41)"/><path class="cls-1" d="M753.75,2254.9h-1.91v-7.69a2.94,2.94,0,0,0-.44-1.73,1.76,1.76,0,0,0-1.54-.61,2.76,2.76,0,0,0-1.56.49,6.57,6.57,0,0,0-1.27,1.09v8.44h-1.91v-11.36h1.63l.23,1.4a6.78,6.78,0,0,1,1.59-1.25,3.79,3.79,0,0,1,1.84-.43,3.28,3.28,0,0,1,2.46.9,3.41,3.41,0,0,1,.87,2.48Z" transform="translate(-560.32 -2210.41)"/><path class="cls-1" d="M770.81,2249a10.88,10.88,0,0,1-.26,2.47,5.4,5.4,0,0,1-.86,2,4,4,0,0,1-1.58,1.29,5.63,5.63,0,0,1-2.4.46,9.19,9.19,0,0,1-1.09-.07c-.38,0-.75-.11-1.13-.18a7.65,7.65,0,0,1-1.07-.3,6.93,6.93,0,0,1-.9-.39v-15.89h1.93v6.37a6.31,6.31,0,0,1,1.39-1,4.38,4.38,0,0,1,3.76.07,3.66,3.66,0,0,1,1.28,1.25,5.61,5.61,0,0,1,.71,1.83A10.47,10.47,0,0,1,770.81,2249Zm-2,.09a8.51,8.51,0,0,0-.14-1.54,4.47,4.47,0,0,0-.46-1.34,2.7,2.7,0,0,0-.84-.95,2.21,2.21,0,0,0-1.29-.36,3,3,0,0,0-1.42.36,5.07,5.07,0,0,0-1.26.93V2253a6.07,6.07,0,0,0,1.1.4,4.88,4.88,0,0,0,1.24.15,2.77,2.77,0,0,0,1.48-.36,2.71,2.71,0,0,0,.94-1,4.38,4.38,0,0,0,.5-1.43A9.6,9.6,0,0,0,768.83,2249.05Z" transform="translate(-560.32 -2210.41)"/><path class="cls-1" d="M774.54,2249.77a5.46,5.46,0,0,0,.18,1.43,3.47,3.47,0,0,0,.58,1.21,2.77,2.77,0,0,0,1.05.83,3.75,3.75,0,0,0,1.59.3,7.43,7.43,0,0,0,3.19-.78v1.66a6.53,6.53,0,0,1-1.69.55,9.83,9.83,0,0,1-1.85.18,5.41,5.41,0,0,1-2.27-.44,4.21,4.21,0,0,1-1.58-1.22,5,5,0,0,1-.91-1.87,9.54,9.54,0,0,1-.29-2.43,8.84,8.84,0,0,1,.29-2.28,5.64,5.64,0,0,1,.87-1.89,4.42,4.42,0,0,1,1.47-1.29,4.28,4.28,0,0,1,2.08-.48,4,4,0,0,1,2,.45,3.78,3.78,0,0,1,1.31,1.2,5,5,0,0,1,.72,1.74,9.47,9.47,0,0,1,.22,2v.62a4.53,4.53,0,0,1,0,.46Zm5-1.61a8.3,8.3,0,0,0-.09-1.22,2.9,2.9,0,0,0-.36-1.05,2,2,0,0,0-.75-.73,2.47,2.47,0,0,0-1.24-.28,2.11,2.11,0,0,0-1,.26,2.46,2.46,0,0,0-.78.69,3.42,3.42,0,0,0-.52,1,4.87,4.87,0,0,0-.21,1.3Z" transform="translate(-560.32 -2210.41)"/><path class="cls-2" d="M788.2,2251.29a10.35,10.35,0,0,0,1.91.65,6.91,6.91,0,0,0,1.49.2q1,0,1-.57a.67.67,0,0,0-.35-.59,5,5,0,0,0-.85-.42l-1.12-.44a4.36,4.36,0,0,1-1.12-.64,3.39,3.39,0,0,1-.86-1,3.28,3.28,0,0,1-.35-1.61,3.19,3.19,0,0,1,.36-1.51,3.54,3.54,0,0,1,1-1.15,4.32,4.32,0,0,1,1.4-.72,5.64,5.64,0,0,1,1.7-.25,13.11,13.11,0,0,1,1.91.13,7.92,7.92,0,0,1,1.5.36v3.1a9.1,9.1,0,0,0-1.67-.46,8,8,0,0,0-1.21-.12q-1.1,0-1.1.51a.55.55,0,0,0,.35.48,8.55,8.55,0,0,0,.86.39l1.12.46a4.52,4.52,0,0,1,1.12.68,3.54,3.54,0,0,1,.86,1.06,3.58,3.58,0,0,1,0,3.09,3.57,3.57,0,0,1-1,1.18,4.9,4.9,0,0,1-1.52.78,6.28,6.28,0,0,1-1.94.29,11.69,11.69,0,0,1-1.74-.13,7.46,7.46,0,0,1-1.69-.47Z" transform="translate(-560.32 -2210.41)"/><path class="cls-2" d="M807.68,2254.9h-3.91v-7.57a1,1,0,0,0-.24-.73.93.93,0,0,0-.71-.26,3.24,3.24,0,0,0-.48,0,2.51,2.51,0,0,0-.52.14v8.37h-3.91v-16.58h3.86v6a3.79,3.79,0,0,1,1.24-.85,3.74,3.74,0,0,1,1.52-.32,2.89,2.89,0,0,1,1.37.31,2.93,2.93,0,0,1,1,.83,3.83,3.83,0,0,1,.6,1.2,4.76,4.76,0,0,1,.21,1.39Z" transform="translate(-560.32 -2210.41)"/><path class="cls-2" d="M818.88,2254.9h-3.33l-.25-1a3.83,3.83,0,0,1-.32.33,3.22,3.22,0,0,1-.52.39,2.94,2.94,0,0,1-.74.32,3.54,3.54,0,0,1-1,.13,3.92,3.92,0,0,1-1.31-.22,2.9,2.9,0,0,1-1.08-.67,3.28,3.28,0,0,1-.74-1.13,4.31,4.31,0,0,1-.28-1.62,3.67,3.67,0,0,1,.38-1.76,3,3,0,0,1,1-1.13,4.42,4.42,0,0,1,1.54-.6,9.79,9.79,0,0,1,1.89-.17h.78v-.39a1.17,1.17,0,0,0-.16-.66,1.06,1.06,0,0,0-.41-.37,1.67,1.67,0,0,0-.55-.16,5.15,5.15,0,0,0-.58,0,7.81,7.81,0,0,0-1.29.12,9.43,9.43,0,0,0-1.5.39v-3l.84-.18,1-.16q.51-.07,1-.1c.32,0,.62,0,.9,0a7.64,7.64,0,0,1,2,.23,3.87,3.87,0,0,1,1.48.72,3.22,3.22,0,0,1,.94,1.3,5.12,5.12,0,0,1,.33,2Zm-3.91-4.81h-.67q-1.26,0-1.26,1a1.1,1.1,0,0,0,.23.7.84.84,0,0,0,.71.29,1.64,1.64,0,0,0,.53-.09,1.58,1.58,0,0,0,.46-.23Z" transform="translate(-560.32 -2210.41)"/><path class="cls-2" d="M824.58,2245.56a5.81,5.81,0,0,1,.5-.9,4,4,0,0,1,.7-.78,3.36,3.36,0,0,1,.89-.55,2.78,2.78,0,0,1,1.09-.21,3,3,0,0,1,.78.09v3.66l-.56-.07-.47,0a4.35,4.35,0,0,0-1.51.29,3.35,3.35,0,0,0-1.23.75v7.08h-3.91v-11.48h3.33Z" transform="translate(-560.32 -2210.41)"/><path class="cls-2" d="M832.93,2250.41a1.43,1.43,0,0,0,.68,1.31,3.74,3.74,0,0,0,1.94.41,7.82,7.82,0,0,0,1.62-.16,10.73,10.73,0,0,0,1.6-.48v3a7.15,7.15,0,0,1-1.59.46,10.27,10.27,0,0,1-1.82.16,6.81,6.81,0,0,1-4.69-1.43,5.81,5.81,0,0,1-1.59-4.53,8,8,0,0,1,.33-2.31,5.75,5.75,0,0,1,1-2,5,5,0,0,1,1.69-1.36,5.23,5.23,0,0,1,2.37-.51,4.79,4.79,0,0,1,2.16.45,4,4,0,0,1,1.46,1.23,5.18,5.18,0,0,1,.82,1.83,9.56,9.56,0,0,1,.25,2.24q0,.34,0,.78c0,.29,0,.57-.06.83Zm2.74-2.32a3,3,0,0,0-.31-1.49,1,1,0,0,0-1-.53,1.21,1.21,0,0,0-.68.18,1.63,1.63,0,0,0-.46.47,2,2,0,0,0-.27.65,3.25,3.25,0,0,0-.08.72Z" transform="translate(-560.32 -2210.41)"/><path class="cls-2" d="M851.24,2238.31v16.58H848.1l-.23-.94a4.32,4.32,0,0,1-5,.71,3.75,3.75,0,0,1-1.32-1.31,5.89,5.89,0,0,1-.72-1.92,11.85,11.85,0,0,1-.22-2.31,8.57,8.57,0,0,1,.28-2.23,5.93,5.93,0,0,1,.85-1.87,4,4,0,0,1,3.44-1.76,3.28,3.28,0,0,1,2.09.67v-5.61Zm-6.76,10.83a4.61,4.61,0,0,0,.37,2,1.25,1.25,0,0,0,1.21.74,2.06,2.06,0,0,0,1.28-.37v-4.71a2,2,0,0,0-.53-.28,2.43,2.43,0,0,0-.74-.09,1.26,1.26,0,0,0-.74.21,1.54,1.54,0,0,0-.49.57,2.91,2.91,0,0,0-.27.85A6.22,6.22,0,0,0,844.48,2249.15Z" transform="translate(-560.32 -2210.41)"/><path class="cls-2" d="M861.09,2250.41a1.43,1.43,0,0,0,.68,1.31,3.74,3.74,0,0,0,1.94.41,7.82,7.82,0,0,0,1.62-.16,10.73,10.73,0,0,0,1.6-.48v3a7.15,7.15,0,0,1-1.59.46,10.27,10.27,0,0,1-1.82.16,6.81,6.81,0,0,1-4.69-1.43,5.81,5.81,0,0,1-1.59-4.53,8,8,0,0,1,.33-2.31,5.75,5.75,0,0,1,1-2,5,5,0,0,1,1.69-1.36,5.23,5.23,0,0,1,2.37-.51,4.79,4.79,0,0,1,2.16.45,4,4,0,0,1,1.46,1.23,5.18,5.18,0,0,1,.82,1.83,9.56,9.56,0,0,1,.25,2.24q0,.34,0,.78c0,.29,0,.57-.06.83Zm2.74-2.32a3,3,0,0,0-.31-1.49,1,1,0,0,0-1-.53,1.21,1.21,0,0,0-.68.18,1.63,1.63,0,0,0-.46.47,2,2,0,0,0-.27.65,3.25,3.25,0,0,0-.08.72Z" transform="translate(-560.32 -2210.41)"/><path class="cls-2" d="M878.4,2254.9h-3.33l-.25-1a3.83,3.83,0,0,1-.32.33,3.22,3.22,0,0,1-.52.39,2.94,2.94,0,0,1-.74.32,3.54,3.54,0,0,1-1,.13,3.92,3.92,0,0,1-1.31-.22,2.9,2.9,0,0,1-1.08-.67,3.28,3.28,0,0,1-.74-1.13,4.31,4.31,0,0,1-.28-1.62,3.67,3.67,0,0,1,.38-1.76,3,3,0,0,1,1-1.13,4.42,4.42,0,0,1,1.54-.6,9.79,9.79,0,0,1,1.89-.17h.78v-.39a1.17,1.17,0,0,0-.16-.66,1.06,1.06,0,0,0-.41-.37,1.67,1.67,0,0,0-.55-.16,5.15,5.15,0,0,0-.58,0,7.81,7.81,0,0,0-1.29.12,9.43,9.43,0,0,0-1.5.39v-3l.84-.18,1-.16q.51-.07,1-.1c.32,0,.62,0,.9,0a7.64,7.64,0,0,1,2,.23,3.87,3.87,0,0,1,1.48.72,3.22,3.22,0,0,1,.94,1.3,5.12,5.12,0,0,1,.33,2Zm-3.91-4.81h-.67q-1.26,0-1.26,1a1.1,1.1,0,0,0,.23.7.84.84,0,0,0,.71.29,1.64,1.64,0,0,0,.53-.09,1.58,1.58,0,0,0,.46-.23Z" transform="translate(-560.32 -2210.41)"/><path class="cls-2" d="M880.5,2251.29a10.35,10.35,0,0,0,1.91.65,6.91,6.91,0,0,0,1.49.2q1,0,1-.57a.67.67,0,0,0-.35-.59,5,5,0,0,0-.85-.42l-1.12-.44a4.36,4.36,0,0,1-1.12-.64,3.39,3.39,0,0,1-.86-1,3.28,3.28,0,0,1-.35-1.61,3.19,3.19,0,0,1,.36-1.51,3.54,3.54,0,0,1,1-1.15,4.32,4.32,0,0,1,1.4-.72,5.64,5.64,0,0,1,1.7-.25,13.11,13.11,0,0,1,1.91.13,7.92,7.92,0,0,1,1.5.36v3.1a9.1,9.1,0,0,0-1.67-.46,8,8,0,0,0-1.21-.12q-1.1,0-1.1.51a.55.55,0,0,0,.35.48,8.55,8.55,0,0,0,.86.39l1.12.46a4.52,4.52,0,0,1,1.12.68,3.54,3.54,0,0,1,.86,1.06,3.58,3.58,0,0,1,0,3.09,3.57,3.57,0,0,1-1,1.18,4.9,4.9,0,0,1-1.52.78,6.28,6.28,0,0,1-1.94.29,11.69,11.69,0,0,1-1.74-.13,7.46,7.46,0,0,1-1.69-.47Z" transform="translate(-560.32 -2210.41)"/><path class="cls-2" d="M890.27,2239.53a1.89,1.89,0,0,1,.58-1.43,2.08,2.08,0,0,1,1.5-.55,2.13,2.13,0,0,1,1.52.55,2,2,0,0,1,0,2.85,2.12,2.12,0,0,1-1.52.55,2.08,2.08,0,0,1-1.5-.55A1.88,1.88,0,0,1,890.27,2239.53Zm4,15.36h-3.91v-11.48h3.91Z" transform="translate(-560.32 -2210.41)"/><path class="cls-2" d="M900.67,2254.9h-3.91v-16.58h3.91Z" transform="translate(-560.32 -2210.41)"/><path class="cls-2" d="M902,2243.42h3.91l2,6.46,1.72-6.46h3.91l-4,11.34a13.21,13.21,0,0,1-.76,1.75,4.91,4.91,0,0,1-1,1.32,4.24,4.24,0,0,1-1.37.84,5.29,5.29,0,0,1-1.89.3q-.74,0-1.32-.06a9.11,9.11,0,0,1-1.18-.2v-3.22a7,7,0,0,0,1.79.25,3.28,3.28,0,0,0,1.29-.2,1.16,1.16,0,0,0,.62-.72l.18-.53Z" transform="translate(-560.32 -2210.41)"/><path class="cls-2" d="M913.25,2252.94a2.1,2.1,0,0,1,.68-1.59,2.33,2.33,0,0,1,1.67-.64,2.5,2.5,0,0,1,.92.17,2.41,2.41,0,0,1,.76.47,2.16,2.16,0,0,1,.51.71,2.12,2.12,0,0,1,.18.87,2,2,0,0,1-.69,1.58,2.39,2.39,0,0,1-1.68.63,2.35,2.35,0,0,1-1.67-.63A2.07,2.07,0,0,1,913.25,2252.94Z" transform="translate(-560.32 -2210.41)"/></svg>