<svg id="text" xmlns="http://www.w3.org/2000/svg" viewBox="0 0 402.88 31.88"><defs><style>.cls-1{fill:#004796;}</style></defs><path class="cls-1" d="M318.4,1594.3l3.36-13.58h4l3.74,14,3.57-18.06h4.69L332,1601.86h-4.27l-4-14.84-4,14.84h-4.2l-5.71-25.24h4.69Z" transform="translate(-309.86 -1576.17)"/><path class="cls-1" d="M342.55,1594.65a4.59,4.59,0,0,0,1.26,2.84,4.28,4.28,0,0,0,3.2,1.11,9.4,9.4,0,0,0,2.44-.3,21.17,21.17,0,0,0,2.34-.79v3.71a10.27,10.27,0,0,1-2.42.75,14.92,14.92,0,0,1-2.83.26,10.55,10.55,0,0,1-3.9-.65,6.6,6.6,0,0,1-2.64-1.84,7.47,7.47,0,0,1-1.49-2.85,13.63,13.63,0,0,1-.47-3.73,12.61,12.61,0,0,1,.46-3.41,9,9,0,0,1,1.36-2.89,6.55,6.55,0,0,1,2.33-2,7.26,7.26,0,0,1,3.38-.73,6.77,6.77,0,0,1,3.19.68,6,6,0,0,1,2.12,1.84,7.45,7.45,0,0,1,1.17,2.66,13.9,13.9,0,0,1,.35,3.15c0,.35,0,.75,0,1.19s0,.77-.05,1Zm5.25-3.08a8.85,8.85,0,0,0-.12-1.48,3.56,3.56,0,0,0-.42-1.2,2.16,2.16,0,0,0-.81-.81,2.64,2.64,0,0,0-1.31-.29,2.08,2.08,0,0,0-1.15.31,2.53,2.53,0,0,0-.8.83,4.12,4.12,0,0,0-.48,1.2,7.53,7.53,0,0,0-.2,1.44Z" transform="translate(-309.86 -1576.17)"/><path class="cls-1" d="M353.82,1585.83a17,17,0,0,0,1.44-1.94,16,16,0,0,0,1.08-2,2.81,2.81,0,0,1-1.57-.84,2.49,2.49,0,0,1-.63-1.79,2.79,2.79,0,0,1,.84-2.08,3.06,3.06,0,0,1,2.24-.82,3,3,0,0,1,2.35.88,3,3,0,0,1,.81,2.1,8.13,8.13,0,0,1-.79,3.38,17.94,17.94,0,0,1-1.8,3.13Z" transform="translate(-309.86 -1576.17)"/><path class="cls-1" d="M366,1587.37a6.4,6.4,0,0,1,1.89-2.43,3.82,3.82,0,0,1,2.28-.79,8.22,8.22,0,0,1,.94.05,3.28,3.28,0,0,1,.88.23v3.5a8.28,8.28,0,0,0-1-.12l-.73,0a5.71,5.71,0,0,0-2.19.44,7.17,7.17,0,0,0-1.87,1.1v12.53h-4.41v-17.29h3.71Z" transform="translate(-309.86 -1576.17)"/><path class="cls-1" d="M377.38,1594.65a4.59,4.59,0,0,0,1.26,2.84,4.28,4.28,0,0,0,3.2,1.11,9.4,9.4,0,0,0,2.44-.3,21.17,21.17,0,0,0,2.34-.79v3.71a10.27,10.27,0,0,1-2.42.75,14.92,14.92,0,0,1-2.83.26,10.55,10.55,0,0,1-3.9-.65,6.6,6.6,0,0,1-2.64-1.84,7.47,7.47,0,0,1-1.49-2.85,13.63,13.63,0,0,1-.47-3.73,12.61,12.61,0,0,1,.46-3.41,9,9,0,0,1,1.36-2.89,6.55,6.55,0,0,1,2.33-2,7.26,7.26,0,0,1,3.38-.73,6.77,6.77,0,0,1,3.19.68,6,6,0,0,1,2.12,1.84,7.45,7.45,0,0,1,1.17,2.66,13.9,13.9,0,0,1,.35,3.15c0,.35,0,.75,0,1.19s0,.77-.05,1Zm5.25-3.08a8.85,8.85,0,0,0-.12-1.48,3.56,3.56,0,0,0-.42-1.2,2.16,2.16,0,0,0-.81-.81,2.64,2.64,0,0,0-1.31-.29,2.08,2.08,0,0,0-1.15.31,2.53,2.53,0,0,0-.8.83,4.12,4.12,0,0,0-.48,1.2,7.53,7.53,0,0,0-.2,1.44Z" transform="translate(-309.86 -1576.17)"/><path class="cls-1" d="M396.38,1578.69a2.35,2.35,0,0,1,.77-1.82,3.19,3.19,0,0,1,4,0,2.35,2.35,0,0,1,.77,1.82,2.29,2.29,0,0,1-.77,1.8,3.25,3.25,0,0,1-4,0A2.29,2.29,0,0,1,396.38,1578.69Zm5,23.17h-4.41v-17.29h4.41Z" transform="translate(-309.86 -1576.17)"/><path class="cls-1" d="M419.41,1601.86H415V1590.4a3.81,3.81,0,0,0-.4-1.92q-.4-.69-1.73-.69a3,3,0,0,0-1.42.38,8,8,0,0,0-1.35.91v12.77h-4.41v-17.29h3.92l.35,1.86a8.19,8.19,0,0,1,1.94-1.59,5,5,0,0,1,2.61-.68,4.58,4.58,0,0,1,2.43.63,5,5,0,0,1,1.66,1.65,9.83,9.83,0,0,1,2.12-1.61,5.49,5.49,0,0,1,2.75-.67,5,5,0,0,1,3.94,1.47,5.72,5.72,0,0,1,1.31,4v12.29h-4.41V1590.4a3.66,3.66,0,0,0-.42-1.92,1.77,1.77,0,0,0-1.64-.69,3.71,3.71,0,0,0-1.47.33,6.43,6.43,0,0,0-1.4.82,2.62,2.62,0,0,1,0,.42v12.49Z" transform="translate(-309.86 -1576.17)"/><path class="cls-1" d="M448,1592.87a17.27,17.27,0,0,1-.33,3.36,9.68,9.68,0,0,1-1.12,3,6.23,6.23,0,0,1-2.1,2.17,6,6,0,0,1-3.24.82,5.75,5.75,0,0,1-2.24-.38,4.77,4.77,0,0,1-1.61-1.12v7.07H433v-23.24h3.88l.35,1.61a6.2,6.2,0,0,1,1.92-1.43,5.63,5.63,0,0,1,2.55-.59,5.85,5.85,0,0,1,3,.72,5.64,5.64,0,0,1,1.94,1.91,8.33,8.33,0,0,1,1,2.78A17,17,0,0,1,448,1592.87Zm-4.51.1a13.5,13.5,0,0,0-.12-1.8,5.48,5.48,0,0,0-.49-1.67,3.36,3.36,0,0,0-1-1.23,2.6,2.6,0,0,0-1.61-.47,4.39,4.39,0,0,0-1.58.28,5.3,5.3,0,0,0-1.37.77v8.61a5.79,5.79,0,0,0,1.22.82,3.4,3.4,0,0,0,1.54.33,2.66,2.66,0,0,0,1.7-.51,3.64,3.64,0,0,0,1-1.32,6.2,6.2,0,0,0,.53-1.81A14.47,14.47,0,0,0,443.49,1593Z" transform="translate(-309.86 -1576.17)"/><path class="cls-1" d="M455.56,1587.37a6.4,6.4,0,0,1,1.89-2.43,3.82,3.82,0,0,1,2.28-.79,8.22,8.22,0,0,1,.95.05,3.29,3.29,0,0,1,.88.23v3.5a8.28,8.28,0,0,0-1-.12l-.74,0a5.71,5.71,0,0,0-2.19.44,7.17,7.17,0,0,0-1.87,1.1v12.53h-4.41v-17.29h3.71Z" transform="translate(-309.86 -1576.17)"/><path class="cls-1" d="M478,1593.22a13.59,13.59,0,0,1-.44,3.5,8,8,0,0,1-1.38,2.87,6.71,6.71,0,0,1-2.42,1.94,8,8,0,0,1-3.54.72,7.9,7.9,0,0,1-3.5-.72,6.71,6.71,0,0,1-2.42-1.94,8,8,0,0,1-1.38-2.87,13.55,13.55,0,0,1-.44-3.5,14,14,0,0,1,.42-3.46,8.12,8.12,0,0,1,1.35-2.89,6.65,6.65,0,0,1,2.4-2,9,9,0,0,1,7.14,0,6.82,6.82,0,0,1,2.42,2,8,8,0,0,1,1.37,2.89A14,14,0,0,1,478,1593.22Zm-4.52-.07a18.75,18.75,0,0,0-.1-2,5.28,5.28,0,0,0-.46-1.7,3.07,3.07,0,0,0-1-1.19,2.88,2.88,0,0,0-1.71-.45,2.81,2.81,0,0,0-1.68.45,2.93,2.93,0,0,0-1,1.19,5.93,5.93,0,0,0-.46,1.7,15.89,15.89,0,0,0-.12,2,16.29,16.29,0,0,0,.12,2,6.42,6.42,0,0,0,.46,1.75,2.88,2.88,0,0,0,1,1.22,2.81,2.81,0,0,0,1.68.46,2.89,2.89,0,0,0,1.7-.46,2.83,2.83,0,0,0,1-1.22,6.42,6.42,0,0,0,.46-1.75A16.48,16.48,0,0,0,473.45,1593.15Z" transform="translate(-309.86 -1576.17)"/><path class="cls-1" d="M487.43,1597.07l3.73-12.5h4.41l-5.93,17.29H485l-5.83-17.29h4.41Z" transform="translate(-309.86 -1576.17)"/><path class="cls-1" d="M497.39,1578.69a2.35,2.35,0,0,1,.77-1.82,3.19,3.19,0,0,1,4,0,2.35,2.35,0,0,1,.77,1.82,2.29,2.29,0,0,1-.77,1.8,3.25,3.25,0,0,1-4,0A2.29,2.29,0,0,1,497.39,1578.69Zm5,23.17h-4.41v-17.29h4.41Z" transform="translate(-309.86 -1576.17)"/><path class="cls-1" d="M511,1586.39a7.75,7.75,0,0,1,2-1.58,5.18,5.18,0,0,1,2.63-.67,4.57,4.57,0,0,1,3.73,1.54,5.88,5.88,0,0,1,1.28,3.88v12.29h-4.41V1590.4a3.83,3.83,0,0,0-.4-1.9,1.72,1.72,0,0,0-1.63-.7,3.77,3.77,0,0,0-1.58.35,6.29,6.29,0,0,0-1.47.95v12.77H506.7v-17.29h4Z" transform="translate(-309.86 -1576.17)"/><path class="cls-1" d="M534.49,1599.38a6.33,6.33,0,0,1-1.89,1.28,5.78,5.78,0,0,1-2.42.51,5.46,5.46,0,0,1-2.87-.72,6.13,6.13,0,0,1-2-1.87,8.32,8.32,0,0,1-1.14-2.62,12.22,12.22,0,0,1-.37-3,15,15,0,0,1,.35-3.24,8.53,8.53,0,0,1,1.16-2.83,6.14,6.14,0,0,1,2.1-2,6.25,6.25,0,0,1,3.19-.75,5.35,5.35,0,0,1,2.38.46,5.46,5.46,0,0,1,1.61,1.22l.35-1.26h3.92v16.63q0,3.6-2,5.23a8.67,8.67,0,0,1-5.67,1.63,29.23,29.23,0,0,1-3-.16,16.17,16.17,0,0,1-2.75-.51v-3.71a20.55,20.55,0,0,0,2.5.53,17.76,17.76,0,0,0,2.68.21,5.69,5.69,0,0,0,2.77-.57,2.22,2.22,0,0,0,1-2.13Zm0-10.74a3.83,3.83,0,0,0-1.19-.61,5.1,5.1,0,0,0-1.58-.23,2.88,2.88,0,0,0-1.7.46,3.37,3.37,0,0,0-1,1.18,5.09,5.09,0,0,0-.53,1.64,12,12,0,0,0-.14,1.8,9.64,9.64,0,0,0,.16,1.76,4.63,4.63,0,0,0,.53,1.48,2.77,2.77,0,0,0,2.54,1.41,4.65,4.65,0,0,0,1.58-.26,6.2,6.2,0,0,0,1.37-.68Z" transform="translate(-309.86 -1576.17)"/><path class="cls-1" d="M564.59,1592.87a17.27,17.27,0,0,1-.33,3.36,9.68,9.68,0,0,1-1.12,3,6.23,6.23,0,0,1-2.1,2.17,6,6,0,0,1-3.24.82,5.75,5.75,0,0,1-2.24-.38,4.77,4.77,0,0,1-1.61-1.12v7.07h-4.41v-23.24h3.88l.35,1.61a6.2,6.2,0,0,1,1.92-1.43,5.63,5.63,0,0,1,2.55-.59,5.85,5.85,0,0,1,3,.72,5.64,5.64,0,0,1,1.94,1.91,8.33,8.33,0,0,1,1,2.78A17,17,0,0,1,564.59,1592.87Zm-4.51.1a13.5,13.5,0,0,0-.12-1.8,5.48,5.48,0,0,0-.49-1.67,3.36,3.36,0,0,0-1-1.23,2.6,2.6,0,0,0-1.61-.47,4.39,4.39,0,0,0-1.58.28,5.3,5.3,0,0,0-1.37.77v8.61a5.79,5.79,0,0,0,1.22.82,3.4,3.4,0,0,0,1.54.33,2.66,2.66,0,0,0,1.7-.51,3.64,3.64,0,0,0,1-1.32,6.2,6.2,0,0,0,.53-1.81A14.47,14.47,0,0,0,560.07,1593Z" transform="translate(-309.86 -1576.17)"/><path class="cls-1" d="M572.15,1587.37a6.4,6.4,0,0,1,1.89-2.43,3.82,3.82,0,0,1,2.28-.79,8.22,8.22,0,0,1,.95.05,3.29,3.29,0,0,1,.88.23v3.5a8.28,8.28,0,0,0-1-.12l-.74,0a5.71,5.71,0,0,0-2.19.44,7.17,7.17,0,0,0-1.87,1.1v12.53h-4.41v-17.29h3.71Z" transform="translate(-309.86 -1576.17)"/><path class="cls-1" d="M594.55,1593.22a13.59,13.59,0,0,1-.44,3.5,8,8,0,0,1-1.38,2.87,6.71,6.71,0,0,1-2.42,1.94,8,8,0,0,1-3.54.72,7.9,7.9,0,0,1-3.5-.72,6.71,6.71,0,0,1-2.42-1.94,8,8,0,0,1-1.38-2.87,13.55,13.55,0,0,1-.44-3.5,14,14,0,0,1,.42-3.46,8.12,8.12,0,0,1,1.35-2.89,6.65,6.65,0,0,1,2.4-2,9,9,0,0,1,7.14,0,6.82,6.82,0,0,1,2.42,2,8,8,0,0,1,1.37,2.89A14,14,0,0,1,594.55,1593.22Zm-4.52-.07a18.75,18.75,0,0,0-.1-2,5.28,5.28,0,0,0-.46-1.7,3.07,3.07,0,0,0-1-1.19,2.88,2.88,0,0,0-1.71-.45,2.81,2.81,0,0,0-1.68.45,2.93,2.93,0,0,0-1,1.19,5.93,5.93,0,0,0-.46,1.7,15.89,15.89,0,0,0-.12,2,16.29,16.29,0,0,0,.12,2,6.42,6.42,0,0,0,.46,1.75,2.88,2.88,0,0,0,1,1.22,2.81,2.81,0,0,0,1.68.46,2.89,2.89,0,0,0,1.7-.46,2.83,2.83,0,0,0,1-1.22,6.42,6.42,0,0,0,.46-1.75A16.48,16.48,0,0,0,590,1593.15Z" transform="translate(-309.86 -1576.17)"/><path class="cls-1" d="M605.78,1598.61a9.45,9.45,0,0,0,2.07-.19,19.84,19.84,0,0,0,2-.58v3.67a10.46,10.46,0,0,1-2.26.56,17.6,17.6,0,0,1-2.47.17,9.22,9.22,0,0,1-3.62-.65,6.74,6.74,0,0,1-2.54-1.84,7.65,7.65,0,0,1-1.5-2.89,13.53,13.53,0,0,1-.49-3.76,11.58,11.58,0,0,1,.52-3.54,8,8,0,0,1,1.58-2.85,7.27,7.27,0,0,1,2.61-1.89,9,9,0,0,1,3.62-.68,15.53,15.53,0,0,1,2.22.14,16.45,16.45,0,0,1,2.08.45v3.78q-1-.35-1.84-.54a7.66,7.66,0,0,0-1.73-.19,4.17,4.17,0,0,0-3.39,1.38,5.62,5.62,0,0,0-1.16,3.72,10.72,10.72,0,0,0,.23,2.29,5.22,5.22,0,0,0,.74,1.81,3.5,3.5,0,0,0,1.33,1.19A4.42,4.42,0,0,0,605.78,1598.61Z" transform="translate(-309.86 -1576.17)"/><path class="cls-1" d="M616,1594.65a4.58,4.58,0,0,0,1.26,2.84,4.28,4.28,0,0,0,3.2,1.11,9.4,9.4,0,0,0,2.44-.3,21.18,21.18,0,0,0,2.34-.79v3.71a10.28,10.28,0,0,1-2.42.75,14.92,14.92,0,0,1-2.83.26,10.55,10.55,0,0,1-3.9-.65,6.59,6.59,0,0,1-2.64-1.84,7.47,7.47,0,0,1-1.49-2.85,13.65,13.65,0,0,1-.47-3.73,12.64,12.64,0,0,1,.45-3.41,9,9,0,0,1,1.37-2.89,6.54,6.54,0,0,1,2.33-2,7.26,7.26,0,0,1,3.38-.73,6.77,6.77,0,0,1,3.19.68,6,6,0,0,1,2.12,1.84,7.47,7.47,0,0,1,1.17,2.66,13.92,13.92,0,0,1,.35,3.15c0,.35,0,.75,0,1.19s0,.77-.05,1Zm5.25-3.08a8.91,8.91,0,0,0-.12-1.48,3.59,3.59,0,0,0-.42-1.2,2.17,2.17,0,0,0-.82-.81,2.64,2.64,0,0,0-1.31-.29,2.08,2.08,0,0,0-1.15.31,2.54,2.54,0,0,0-.8.83,4.15,4.15,0,0,0-.48,1.2,7.53,7.53,0,0,0-.2,1.44Z" transform="translate(-309.86 -1576.17)"/><path class="cls-1" d="M632.63,1589.21a1.3,1.3,0,0,0,.53,1.07,6.58,6.58,0,0,0,1.31.78l1.69.77a8.13,8.13,0,0,1,1.69,1,5.18,5.18,0,0,1,1.31,1.54,4.56,4.56,0,0,1,.53,2.29,5.1,5.1,0,0,1-1.73,4.06,6.93,6.93,0,0,1-4.71,1.5,16.26,16.26,0,0,1-2.45-.19,11,11,0,0,1-2.59-.75v-3.92a11.32,11.32,0,0,0,4.77,1.22,3.35,3.35,0,0,0,1.57-.33,1.27,1.27,0,0,0,.63-1.23,1.52,1.52,0,0,0-.52-1.21,5.69,5.69,0,0,0-1.3-.82q-.78-.36-1.71-.75a8,8,0,0,1-1.71-1,4.8,4.8,0,0,1-1.3-1.49,4.64,4.64,0,0,1-.52-2.34,4.89,4.89,0,0,1,1.78-3.88,5.88,5.88,0,0,1,2-1.07,8,8,0,0,1,2.47-.37,16.29,16.29,0,0,1,2.22.16,10,10,0,0,1,2.29.61v3.85a18.14,18.14,0,0,0-2.18-.74,7.43,7.43,0,0,0-1.84-.24,3.38,3.38,0,0,0-1.6.33A1.14,1.14,0,0,0,632.63,1589.21Z" transform="translate(-309.86 -1576.17)"/><path class="cls-1" d="M646.28,1589.21a1.3,1.3,0,0,0,.53,1.07,6.58,6.58,0,0,0,1.31.78l1.69.77a8.13,8.13,0,0,1,1.69,1,5.18,5.18,0,0,1,1.31,1.54,4.56,4.56,0,0,1,.53,2.29,5.1,5.1,0,0,1-1.73,4.06,6.93,6.93,0,0,1-4.71,1.5,16.26,16.26,0,0,1-2.45-.19,11,11,0,0,1-2.59-.75v-3.92a11.32,11.32,0,0,0,4.77,1.22,3.35,3.35,0,0,0,1.57-.33,1.27,1.27,0,0,0,.63-1.23,1.52,1.52,0,0,0-.52-1.21,5.69,5.69,0,0,0-1.3-.82q-.78-.36-1.71-.75a8,8,0,0,1-1.71-1,4.8,4.8,0,0,1-1.3-1.49,4.64,4.64,0,0,1-.52-2.34,4.89,4.89,0,0,1,1.78-3.88,5.88,5.88,0,0,1,2-1.07,8,8,0,0,1,2.47-.37,16.29,16.29,0,0,1,2.22.16,10,10,0,0,1,2.29.61v3.85a18.14,18.14,0,0,0-2.18-.74,7.43,7.43,0,0,0-1.84-.24,3.38,3.38,0,0,0-1.6.33A1.14,1.14,0,0,0,646.28,1589.21Z" transform="translate(-309.86 -1576.17)"/><path class="cls-1" d="M660,1594.65a4.58,4.58,0,0,0,1.26,2.84,4.28,4.28,0,0,0,3.2,1.11,9.4,9.4,0,0,0,2.44-.3,21.18,21.18,0,0,0,2.34-.79v3.71a10.28,10.28,0,0,1-2.42.75,14.92,14.92,0,0,1-2.83.26,10.55,10.55,0,0,1-3.9-.65,6.59,6.59,0,0,1-2.64-1.84,7.47,7.47,0,0,1-1.49-2.85,13.65,13.65,0,0,1-.47-3.73,12.64,12.64,0,0,1,.45-3.41,9,9,0,0,1,1.37-2.89,6.54,6.54,0,0,1,2.33-2,7.26,7.26,0,0,1,3.38-.73,6.77,6.77,0,0,1,3.19.68,6,6,0,0,1,2.12,1.84,7.47,7.47,0,0,1,1.17,2.66,13.92,13.92,0,0,1,.35,3.15c0,.35,0,.75,0,1.19s0,.77-.05,1Zm5.25-3.08a8.91,8.91,0,0,0-.12-1.48,3.59,3.59,0,0,0-.42-1.2,2.17,2.17,0,0,0-.82-.81,2.64,2.64,0,0,0-1.31-.29,2.08,2.08,0,0,0-1.15.31,2.54,2.54,0,0,0-.8.83,4.15,4.15,0,0,0-.48,1.2,7.53,7.53,0,0,0-.2,1.44Z" transform="translate(-309.86 -1576.17)"/><path class="cls-1" d="M676.62,1589.21a1.3,1.3,0,0,0,.53,1.07,6.58,6.58,0,0,0,1.31.78l1.69.77a8.13,8.13,0,0,1,1.69,1,5.18,5.18,0,0,1,1.31,1.54,4.56,4.56,0,0,1,.53,2.29,5.1,5.1,0,0,1-1.73,4.06,6.93,6.93,0,0,1-4.71,1.5,16.26,16.26,0,0,1-2.45-.19,11,11,0,0,1-2.59-.75v-3.92a11.32,11.32,0,0,0,4.77,1.22,3.35,3.35,0,0,0,1.57-.33,1.27,1.27,0,0,0,.63-1.23,1.52,1.52,0,0,0-.52-1.21,5.69,5.69,0,0,0-1.3-.82q-.78-.36-1.71-.75a8,8,0,0,1-1.71-1,4.8,4.8,0,0,1-1.3-1.49,4.64,4.64,0,0,1-.52-2.34,4.89,4.89,0,0,1,1.78-3.88,5.88,5.88,0,0,1,2-1.07,8,8,0,0,1,2.47-.37,16.29,16.29,0,0,1,2.22.16,10,10,0,0,1,2.29.61v3.85a18.14,18.14,0,0,0-2.18-.74,7.43,7.43,0,0,0-1.84-.24,3.38,3.38,0,0,0-1.6.33A1.14,1.14,0,0,0,676.62,1589.21Z" transform="translate(-309.86 -1576.17)"/><path class="cls-1" d="M692.86,1599.34a2.81,2.81,0,0,1-.84,2.07,3.12,3.12,0,0,1-2.31.84,3.16,3.16,0,0,1-2.22-.79,3,3,0,0,1,0-4.22,3.12,3.12,0,0,1,2.22-.8,3.3,3.3,0,0,1,2.24.79A2.66,2.66,0,0,1,692.86,1599.34Z" transform="translate(-309.86 -1576.17)"/><path class="cls-1" d="M702.8,1599.34a2.81,2.81,0,0,1-.84,2.07,3.12,3.12,0,0,1-2.31.84,3.16,3.16,0,0,1-2.22-.79,3,3,0,0,1,0-4.22,3.12,3.12,0,0,1,2.22-.8,3.3,3.3,0,0,1,2.24.79A2.66,2.66,0,0,1,702.8,1599.34Z" transform="translate(-309.86 -1576.17)"/><path class="cls-1" d="M712.74,1599.34a2.81,2.81,0,0,1-.84,2.07,3.12,3.12,0,0,1-2.31.84,3.16,3.16,0,0,1-2.22-.79,3,3,0,0,1,0-4.22,3.12,3.12,0,0,1,2.22-.8,3.3,3.3,0,0,1,2.24.79A2.66,2.66,0,0,1,712.74,1599.34Z" transform="translate(-309.86 -1576.17)"/></svg>