<svg id="text" xmlns="http://www.w3.org/2000/svg" viewBox="0 0 250.27 89.3"><defs><style>.cls-1{fill:#3c3c3c;}.cls-2{fill:#004796;}</style></defs><path class="cls-1" d="M243.78,1097.74a1.51,1.51,0,0,1-.47,1.13,1.57,1.57,0,0,1-1.14.46,1.61,1.61,0,0,1-1.12-.43,1.48,1.48,0,0,1-.47-1.16,1.55,1.55,0,0,1,1.59-1.61,1.63,1.63,0,0,1,1.13.44A1.5,1.5,0,0,1,243.78,1097.74Z" transform="translate(-184.78 -1082.19)"/><path class="cls-1" d="M249.74,1097.74a1.51,1.51,0,0,1-.47,1.13,1.57,1.57,0,0,1-1.14.46,1.61,1.61,0,0,1-1.12-.43,1.48,1.48,0,0,1-.47-1.16,1.55,1.55,0,0,1,1.59-1.61,1.63,1.63,0,0,1,1.13.44A1.5,1.5,0,0,1,249.74,1097.74Z" transform="translate(-184.78 -1082.19)"/><path class="cls-1" d="M255.7,1097.74a1.51,1.51,0,0,1-.47,1.13,1.57,1.57,0,0,1-1.14.46,1.61,1.61,0,0,1-1.12-.43,1.48,1.48,0,0,1-.47-1.16,1.55,1.55,0,0,1,1.59-1.61,1.63,1.63,0,0,1,1.13.44A1.5,1.5,0,0,1,255.7,1097.74Z" transform="translate(-184.78 -1082.19)"/><path class="cls-1" d="M258.32,1083.5a1.28,1.28,0,0,1,.38-.92,1.23,1.23,0,0,1,.92-.39,1.31,1.31,0,0,1,0,2.62,1.23,1.23,0,0,1-.92-.39A1.28,1.28,0,0,1,258.32,1083.5Zm2.28,15.57h-1.91v-11.36h1.91Z" transform="translate(-184.78 -1082.19)"/><path class="cls-1" d="M272.44,1099.07h-1.91v-7.69a2.94,2.94,0,0,0-.44-1.73,1.77,1.77,0,0,0-1.54-.61,2.75,2.75,0,0,0-1.56.5,6.56,6.56,0,0,0-1.27,1.09v8.44h-1.91v-11.36h1.63l.23,1.4a6.81,6.81,0,0,1,1.59-1.25,3.8,3.8,0,0,1,1.84-.42,3.28,3.28,0,0,1,2.46.9,3.41,3.41,0,0,1,.87,2.48Z" transform="translate(-184.78 -1082.19)"/><path class="cls-1" d="M281.43,1093.94a5.46,5.46,0,0,0,.18,1.43,3.45,3.45,0,0,0,.58,1.21,2.77,2.77,0,0,0,1.05.83,3.75,3.75,0,0,0,1.59.3,7.43,7.43,0,0,0,3.19-.78v1.66a6.53,6.53,0,0,1-1.69.55,9.83,9.83,0,0,1-1.85.18,5.41,5.41,0,0,1-2.27-.44,4.22,4.22,0,0,1-1.58-1.22,5,5,0,0,1-.91-1.87,9.52,9.52,0,0,1-.29-2.43,8.83,8.83,0,0,1,.29-2.28,5.63,5.63,0,0,1,.87-1.89,4.41,4.41,0,0,1,1.47-1.29,4.29,4.29,0,0,1,2.08-.48,4,4,0,0,1,2,.45,3.78,3.78,0,0,1,1.31,1.2,5,5,0,0,1,.72,1.74,9.47,9.47,0,0,1,.22,2v.62q0,.23,0,.46Zm5-1.61a8.29,8.29,0,0,0-.09-1.22,2.89,2.89,0,0,0-.36-1.06,2,2,0,0,0-.75-.73A2.46,2.46,0,0,0,284,1089a2.11,2.11,0,0,0-1,.26,2.49,2.49,0,0,0-.78.69,3.44,3.44,0,0,0-.51,1,4.88,4.88,0,0,0-.21,1.3Z" transform="translate(-184.78 -1082.19)"/><path class="cls-1" d="M296.82,1099.07l-.21-.92a6.64,6.64,0,0,1-1.26.8,3.74,3.74,0,0,1-1.7.37,3.52,3.52,0,0,1-2.59-.93,3.48,3.48,0,0,1-.94-2.59,4.16,4.16,0,0,1,.33-1.73,3.33,3.33,0,0,1,.92-1.22,3.91,3.91,0,0,1,1.4-.72,6.22,6.22,0,0,1,1.78-.24h2v-.61a2.37,2.37,0,0,0-.52-1.74,2.42,2.42,0,0,0-1.71-.5,7.43,7.43,0,0,0-1.55.18,9.7,9.7,0,0,0-1.5.44v-1.75a10.63,10.63,0,0,1,1.53-.33,11.7,11.7,0,0,1,1.81-.15,4,4,0,0,1,2.93.93,3.93,3.93,0,0,1,.93,2.89v7.82Zm-.28-5.57h-1.87a3.17,3.17,0,0,0-1.9.49,1.92,1.92,0,0,0-.67,1.66,2.11,2.11,0,0,0,.51,1.53,2.05,2.05,0,0,0,1.54.53,3,3,0,0,0,1.33-.29,4.74,4.74,0,0,0,1.06-.68Z" transform="translate(-184.78 -1082.19)"/><path class="cls-1" d="M306.18,1097.71a5.31,5.31,0,0,0,1.38-.17,13.7,13.7,0,0,0,1.31-.43v1.66a6.34,6.34,0,0,1-1.35.4,8,8,0,0,1-1.53.15,6,6,0,0,1-2.38-.43,4.28,4.28,0,0,1-1.64-1.2,5,5,0,0,1-1-1.89,9.3,9.3,0,0,1-.31-2.5,7.72,7.72,0,0,1,.31-2.18,5.62,5.62,0,0,1,1-1.89,4.72,4.72,0,0,1,1.62-1.32,5.07,5.07,0,0,1,2.31-.49,8.83,8.83,0,0,1,1.4.1,8.26,8.26,0,0,1,1.38.36v1.77a8.38,8.38,0,0,0-1.21-.44A5.29,5.29,0,0,0,306,1089a3.11,3.11,0,0,0-1.53.35,3.08,3.08,0,0,0-1,.95,4,4,0,0,0-.6,1.38,7.27,7.27,0,0,0-.18,1.67,7.54,7.54,0,0,0,.17,1.62,4,4,0,0,0,.58,1.38,3,3,0,0,0,1.07,1A3.48,3.48,0,0,0,306.18,1097.71Z" transform="translate(-184.78 -1082.19)"/><path class="cls-1" d="M319.68,1099.07h-1.91v-7.74a2.72,2.72,0,0,0-.46-1.71,2,2,0,0,0-1.63-.58,2.56,2.56,0,0,0-1.37.43,6.53,6.53,0,0,0-1.35,1.16v8.44h-1.91v-16.58H313v6.58a7.23,7.23,0,0,1,1.41-1.13,3.66,3.66,0,0,1,2-.51,3.28,3.28,0,0,1,2.46.9,3.41,3.41,0,0,1,.87,2.48Z" transform="translate(-184.78 -1082.19)"/><path class="cls-1" d="M336.49,1093.39a9.13,9.13,0,0,1-.28,2.29,5.47,5.47,0,0,1-.87,1.89,4.25,4.25,0,0,1-1.52,1.29,5.48,5.48,0,0,1-4.45,0,4.22,4.22,0,0,1-1.53-1.29,5.46,5.46,0,0,1-.87-1.89,9.48,9.48,0,0,1,0-4.54,5.71,5.71,0,0,1,.86-1.91,4.19,4.19,0,0,1,1.52-1.31,5.45,5.45,0,0,1,4.49,0,4.19,4.19,0,0,1,1.52,1.31,5.72,5.72,0,0,1,.86,1.91A9.07,9.07,0,0,1,336.49,1093.39Zm-2,0a11.72,11.72,0,0,0-.1-1.56,4,4,0,0,0-.43-1.38,2.7,2.7,0,0,0-.9-1,3.14,3.14,0,0,0-3,0,2.73,2.73,0,0,0-.89,1,4,4,0,0,0-.43,1.38,11.8,11.8,0,0,0-.1,1.56,11.18,11.18,0,0,0,.11,1.62,4.32,4.32,0,0,0,.44,1.4,2.6,2.6,0,0,0,.89,1,2.67,2.67,0,0,0,1.48.37,2.73,2.73,0,0,0,1.5-.37,2.49,2.49,0,0,0,.89-1,4.53,4.53,0,0,0,.43-1.4A11.18,11.18,0,0,0,334.52,1093.34Z" transform="translate(-184.78 -1082.19)"/><path class="cls-1" d="M343.28,1082.31a8.32,8.32,0,0,1,1,.06,7.81,7.81,0,0,1,.79.13v1.61a4.59,4.59,0,0,0-.79-.14q-.47,0-.93,0a1.66,1.66,0,0,0-1.4.49,2.5,2.5,0,0,0-.37,1.5v1.8h3.24v1.61h-3.24v9.75h-1.91v-9.75h-2v-1.61h2V1086a3.18,3.18,0,0,1,3.66-3.68Z" transform="translate(-184.78 -1082.19)"/><path class="cls-1" d="M360.18,1093.39a9.13,9.13,0,0,1-.28,2.29,5.47,5.47,0,0,1-.87,1.89,4.25,4.25,0,0,1-1.52,1.29,5.48,5.48,0,0,1-4.45,0,4.22,4.22,0,0,1-1.53-1.29,5.46,5.46,0,0,1-.87-1.89,9.48,9.48,0,0,1,0-4.54,5.71,5.71,0,0,1,.86-1.91,4.19,4.19,0,0,1,1.52-1.31,5.45,5.45,0,0,1,4.49,0,4.19,4.19,0,0,1,1.52,1.31,5.72,5.72,0,0,1,.86,1.91A9.07,9.07,0,0,1,360.18,1093.39Zm-2,0a11.72,11.72,0,0,0-.1-1.56,4,4,0,0,0-.43-1.38,2.7,2.7,0,0,0-.9-1,3.14,3.14,0,0,0-3,0,2.73,2.73,0,0,0-.89,1,4,4,0,0,0-.43,1.38,11.8,11.8,0,0,0-.1,1.56,11.18,11.18,0,0,0,.11,1.62,4.32,4.32,0,0,0,.44,1.4,2.6,2.6,0,0,0,.89,1,2.67,2.67,0,0,0,1.48.37,2.73,2.73,0,0,0,1.5-.37,2.49,2.49,0,0,0,.89-1,4.53,4.53,0,0,0,.43-1.4A11.18,11.18,0,0,0,358.21,1093.34Z" transform="translate(-184.78 -1082.19)"/><path class="cls-1" d="M362.6,1087.71h1.91v7.67a2.94,2.94,0,0,0,.44,1.71,1.75,1.75,0,0,0,1.54.62,2.75,2.75,0,0,0,1.56-.49,6.52,6.52,0,0,0,1.26-1.09v-8.42h1.91v11.36h-1.63l-.23-1.4q-.3.3-.63.6a4,4,0,0,1-.75.53,4.47,4.47,0,0,1-.92.38,4,4,0,0,1-1.13.15,3,3,0,0,1-3.33-3.36Z" transform="translate(-184.78 -1082.19)"/><path class="cls-1" d="M376.33,1089.55a4.59,4.59,0,0,1,1.3-1.48,3,3,0,0,1,1.85-.63,5.38,5.38,0,0,1,.71.05V1089l-.32,0h-.32a3.7,3.7,0,0,0-1.64.41,5.62,5.62,0,0,0-1.55,1.15v8.49h-1.91v-11.36h1.66Z" transform="translate(-184.78 -1082.19)"/><path class="cls-2" d="M260.56,1131.29h4.62v4.79H250.4v-4.79h4.65v-14.22l-4.65,1.42v-4.79l6-1.42h4.18Z" transform="translate(-184.78 -1082.19)"/><path class="cls-2" d="M282.84,1119a11.27,11.27,0,0,1-.89,4.49,19.8,19.8,0,0,1-2.28,4,32.07,32.07,0,0,1-3.46,3.86h7.09v4.79H268.12v-3.43q1.32-1.12,2.9-2.68t3.16-3.47a15,15,0,0,0,2.19-3.41,7.78,7.78,0,0,0,.7-3.14,3.28,3.28,0,0,0-.75-2.28,3.34,3.34,0,0,0-2.57-.83,8.71,8.71,0,0,0-2.49.36,14.73,14.73,0,0,0-2.52,1v-5a15.18,15.18,0,0,1,2.85-.87,17,17,0,0,1,3.51-.35,10,10,0,0,1,3.05.45,7.07,7.07,0,0,1,2.44,1.32,6.11,6.11,0,0,1,1.63,2.18A7.22,7.22,0,0,1,282.84,1119Z" transform="translate(-184.78 -1082.19)"/><path class="cls-2" d="M303.43,1124.59a22.55,22.55,0,0,1-.4,4.16,12.1,12.1,0,0,1-1.37,3.81,8.22,8.22,0,0,1-2.61,2.79,7.26,7.26,0,0,1-4.11,1.09,6.81,6.81,0,0,1-4-1.09,8,8,0,0,1-2.49-2.79,12.26,12.26,0,0,1-1.29-3.79,24.2,24.2,0,0,1-.36-4.14,28.05,28.05,0,0,1,.36-4.49,13.13,13.13,0,0,1,1.32-4.06,8.06,8.06,0,0,1,2.59-2.94,7.22,7.22,0,0,1,4.17-1.12,6.61,6.61,0,0,1,3.94,1.12,8.16,8.16,0,0,1,2.51,2.94,13.77,13.77,0,0,1,1.32,4.06A26.75,26.75,0,0,1,303.43,1124.59Zm-5.77-.07q0-1.12,0-2.46a14.75,14.75,0,0,0-.3-2.51,5.86,5.86,0,0,0-.74-1.95,1.59,1.59,0,0,0-1.42-.78,1.51,1.51,0,0,0-1.32.78,6.37,6.37,0,0,0-.78,1.95,14.57,14.57,0,0,0-.36,2.51q-.08,1.34-.08,2.46t.08,2.47a11.4,11.4,0,0,0,.36,2.28,5,5,0,0,0,.78,1.68,1.57,1.57,0,0,0,1.32.66,1.67,1.67,0,0,0,1.42-.66,4.56,4.56,0,0,0,.74-1.68,11.63,11.63,0,0,0,.3-2.28Q297.66,1125.74,297.66,1124.52Z" transform="translate(-184.78 -1082.19)"/><path class="cls-2" d="M306,1140.56a11.84,11.84,0,0,0,1.58-2.1,14.91,14.91,0,0,0,1.06-2.19,2.78,2.78,0,0,1-2.31-2.94,3.13,3.13,0,0,1,.92-2.31,3.47,3.47,0,0,1,6,2.38,7.06,7.06,0,0,1-.26,1.88,11.66,11.66,0,0,1-.71,1.9,18.18,18.18,0,0,1-1,1.82q-.54.87-1.07,1.57Z" transform="translate(-184.78 -1082.19)"/><path class="cls-2" d="M332.8,1124.59a22.55,22.55,0,0,1-.4,4.16,12.1,12.1,0,0,1-1.37,3.81,8.22,8.22,0,0,1-2.61,2.79,7.26,7.26,0,0,1-4.11,1.09,6.81,6.81,0,0,1-4-1.09,8,8,0,0,1-2.49-2.79,12.26,12.26,0,0,1-1.29-3.79,24.2,24.2,0,0,1-.36-4.14,28.05,28.05,0,0,1,.36-4.49,13.13,13.13,0,0,1,1.32-4.06,8.06,8.06,0,0,1,2.59-2.94,7.22,7.22,0,0,1,4.17-1.12,6.61,6.61,0,0,1,3.94,1.12,8.16,8.16,0,0,1,2.51,2.94,13.77,13.77,0,0,1,1.32,4.06A26.75,26.75,0,0,1,332.8,1124.59Zm-5.77-.07q0-1.12,0-2.46a14.75,14.75,0,0,0-.3-2.51,5.86,5.86,0,0,0-.74-1.95,1.59,1.59,0,0,0-1.42-.78,1.51,1.51,0,0,0-1.32.78,6.37,6.37,0,0,0-.78,1.95,14.57,14.57,0,0,0-.36,2.51q-.08,1.34-.08,2.46t.08,2.47a11.4,11.4,0,0,0,.36,2.28,5,5,0,0,0,.78,1.68,1.57,1.57,0,0,0,1.32.66,1.67,1.67,0,0,0,1.42-.66,4.56,4.56,0,0,0,.74-1.68,11.63,11.63,0,0,0,.3-2.28Q327,1125.74,327,1124.52Z" transform="translate(-184.78 -1082.19)"/><path class="cls-2" d="M351.77,1124.59a22.55,22.55,0,0,1-.4,4.16,12.1,12.1,0,0,1-1.37,3.81,8.22,8.22,0,0,1-2.61,2.79,7.26,7.26,0,0,1-4.11,1.09,6.81,6.81,0,0,1-4-1.09,8,8,0,0,1-2.49-2.79,12.26,12.26,0,0,1-1.29-3.79,24.2,24.2,0,0,1-.36-4.14,28.05,28.05,0,0,1,.36-4.49,13.13,13.13,0,0,1,1.32-4.06,8.06,8.06,0,0,1,2.59-2.94,7.22,7.22,0,0,1,4.17-1.12,6.61,6.61,0,0,1,3.94,1.12,8.16,8.16,0,0,1,2.51,2.94,13.77,13.77,0,0,1,1.32,4.06A26.75,26.75,0,0,1,351.77,1124.59Zm-5.77-.07q0-1.12,0-2.46a14.75,14.75,0,0,0-.3-2.51,5.86,5.86,0,0,0-.74-1.95,1.59,1.59,0,0,0-1.42-.78,1.51,1.51,0,0,0-1.32.78,6.37,6.37,0,0,0-.78,1.95,14.57,14.57,0,0,0-.36,2.51q-.08,1.34-.08,2.46T341,1127a11.4,11.4,0,0,0,.36,2.28,5,5,0,0,0,.78,1.68,1.57,1.57,0,0,0,1.32.66,1.67,1.67,0,0,0,1.42-.66,4.56,4.56,0,0,0,.74-1.68,11.63,11.63,0,0,0,.3-2.28Q346,1125.74,346,1124.52Z" transform="translate(-184.78 -1082.19)"/><path class="cls-2" d="M370.75,1124.59a22.55,22.55,0,0,1-.4,4.16,12.1,12.1,0,0,1-1.37,3.81,8.22,8.22,0,0,1-2.61,2.79,7.26,7.26,0,0,1-4.11,1.09,6.81,6.81,0,0,1-4-1.09,8,8,0,0,1-2.49-2.79,12.26,12.26,0,0,1-1.29-3.79,24.2,24.2,0,0,1-.36-4.14,28.05,28.05,0,0,1,.36-4.49,13.13,13.13,0,0,1,1.32-4.06,8.06,8.06,0,0,1,2.59-2.94,7.22,7.22,0,0,1,4.17-1.12,6.61,6.61,0,0,1,3.94,1.12,8.16,8.16,0,0,1,2.51,2.94,13.77,13.77,0,0,1,1.32,4.06A26.75,26.75,0,0,1,370.75,1124.59Zm-5.77-.07q0-1.12,0-2.46a14.75,14.75,0,0,0-.3-2.51,5.86,5.86,0,0,0-.74-1.95,1.59,1.59,0,0,0-1.42-.78,1.51,1.51,0,0,0-1.32.78,6.37,6.37,0,0,0-.78,1.95,14.57,14.57,0,0,0-.36,2.51q-.08,1.34-.08,2.46T360,1127a11.4,11.4,0,0,0,.36,2.28,5,5,0,0,0,.78,1.68,1.57,1.57,0,0,0,1.32.66,1.67,1.67,0,0,0,1.42-.66,4.56,4.56,0,0,0,.74-1.68,11.63,11.63,0,0,0,.3-2.28Q365,1125.74,365,1124.52Z" transform="translate(-184.78 -1082.19)"/><path class="cls-2" d="M191.78,1163.72a10,10,0,0,0,1.42-.09,8,8,0,0,0,1.57-.43v3.67a7.72,7.72,0,0,1-1.65.39,13.52,13.52,0,0,1-1.65.1,6.76,6.76,0,0,1-5-1.69,7,7,0,0,1-1.68-5.1,8.55,8.55,0,0,1,.38-2.51,6.33,6.33,0,0,1,1.18-2.21,6,6,0,0,1,2-1.57,6.72,6.72,0,0,1,3-.6,13.09,13.09,0,0,1,1.65.1,11.24,11.24,0,0,1,1.57.31v3.69a6.84,6.84,0,0,0-1.26-.36,6.94,6.94,0,0,0-1.19-.1,3,3,0,0,0-2.21.8,3.35,3.35,0,0,0-.77,2.42,3.8,3.8,0,0,0,.64,2.31A2.33,2.33,0,0,0,191.78,1163.72Z" transform="translate(-184.78 -1082.19)"/><path class="cls-2" d="M196.64,1154.1h4.42v8.55a1,1,0,0,0,.32.87,1.38,1.38,0,0,0,.87.25,3.55,3.55,0,0,0,.48,0,1.88,1.88,0,0,0,.51-.14v-9.49h4.42v13h-3.51l-.34-1.43a4.35,4.35,0,0,1-1.63,1.34,4.43,4.43,0,0,1-1.87.43,3.58,3.58,0,0,1-1.44-.29,3.43,3.43,0,0,1-1.17-.83,3.88,3.88,0,0,1-.79-1.33,5.11,5.11,0,0,1-.29-1.77Z" transform="translate(-184.78 -1082.19)"/><path class="cls-2" d="M210.19,1163a11.85,11.85,0,0,0,2.16.74,7.83,7.83,0,0,0,1.69.22q1.12,0,1.12-.64a.76.76,0,0,0-.39-.67,5.64,5.64,0,0,0-1-.47l-1.27-.5a5,5,0,0,1-1.27-.73,3.82,3.82,0,0,1-1-1.16,3.71,3.71,0,0,1-.39-1.82,3.6,3.6,0,0,1,.4-1.7,4,4,0,0,1,1.08-1.3,4.9,4.9,0,0,1,1.59-.82,6.39,6.39,0,0,1,1.92-.29,14.86,14.86,0,0,1,2.16.14,9,9,0,0,1,1.69.4v3.51a10.34,10.34,0,0,0-1.88-.52,9,9,0,0,0-1.37-.13q-1.25,0-1.25.57a.62.62,0,0,0,.39.55,10.1,10.1,0,0,0,1,.44l1.26.52a5.12,5.12,0,0,1,1.26.77,4,4,0,0,1,1,1.2,4.05,4.05,0,0,1,0,3.5,4.05,4.05,0,0,1-1.12,1.34,5.53,5.53,0,0,1-1.72.88,7.08,7.08,0,0,1-2.2.33,13.12,13.12,0,0,1-2-.14,8.39,8.39,0,0,1-1.91-.53Z" transform="translate(-184.78 -1082.19)"/><path class="cls-2" d="M226.85,1154.1H230v3.41h-3.2V1162a2.18,2.18,0,0,0,.3,1.3,1.35,1.35,0,0,0,1.13.39,6,6,0,0,0,1.09-.09,6.54,6.54,0,0,0,.88-.22v3.54a7,7,0,0,1-1.53.33,15,15,0,0,1-1.58.09,6.85,6.85,0,0,1-1.88-.25,4.17,4.17,0,0,1-1.49-.75,3.46,3.46,0,0,1-1-1.29,4.44,4.44,0,0,1-.35-1.85v-5.72h-2.57v-3.41h2.57v-3.33h4.42Z" transform="translate(-184.78 -1082.19)"/><path class="cls-2" d="M243.07,1160.55a9.87,9.87,0,0,1-.34,2.61,6.12,6.12,0,0,1-1.07,2.17,5.15,5.15,0,0,1-1.86,1.48,6.21,6.21,0,0,1-2.72.55,6.28,6.28,0,0,1-2.74-.55,5,5,0,0,1-1.85-1.48,6.24,6.24,0,0,1-1.05-2.17,9.85,9.85,0,0,1-.34-2.61,10.27,10.27,0,0,1,.33-2.6,6.2,6.2,0,0,1,1-2.2,5.1,5.1,0,0,1,1.85-1.51,6.21,6.21,0,0,1,2.77-.56,6.15,6.15,0,0,1,2.74.56,5.23,5.23,0,0,1,1.86,1.51,6.09,6.09,0,0,1,1.05,2.2A10.29,10.29,0,0,1,243.07,1160.55Zm-4.34-.05q0-.58-.06-1.16a3.64,3.64,0,0,0-.23-1,1.88,1.88,0,0,0-.5-.72,1.4,1.4,0,0,0-1.68,0,1.87,1.87,0,0,0-.5.72,4,4,0,0,0-.25,1,9.64,9.64,0,0,0-.07,1.16,10.16,10.16,0,0,0,.07,1.19,4.18,4.18,0,0,0,.25,1,1.76,1.76,0,0,0,.5.72,1.46,1.46,0,0,0,1.68,0,1.77,1.77,0,0,0,.5-.72,3.84,3.84,0,0,0,.23-1Q238.73,1161.1,238.73,1160.5Z" transform="translate(-184.78 -1082.19)"/><path class="cls-2" d="M262,1167.07h-4.42v-8.55a1.45,1.45,0,0,0-.21-.77.88.88,0,0,0-.82-.35,3.12,3.12,0,0,0-.49,0,1.58,1.58,0,0,0-.46.15v9.49h-4.45v-8.55a1.49,1.49,0,0,0-.21-.77.85.85,0,0,0-.8-.35,3,3,0,0,0-.47,0,1.5,1.5,0,0,0-.45.15v9.49h-4.42v-13h3.51l.37,1.56a4.69,4.69,0,0,1,1.66-1.42,4.19,4.19,0,0,1,1.89-.48,3.05,3.05,0,0,1,1.63.48,3.26,3.26,0,0,1,1.22,1.39,4.6,4.6,0,0,1,1.65-1.4,4.22,4.22,0,0,1,1.88-.47,3,3,0,0,1,1.26.29,3.22,3.22,0,0,1,1.08.83,4.29,4.29,0,0,1,.75,1.33A5.12,5.12,0,0,1,262,1158Z" transform="translate(-184.78 -1082.19)"/><path class="cls-2" d="M268.06,1162a1.61,1.61,0,0,0,.77,1.48,4.24,4.24,0,0,0,2.19.47,8.86,8.86,0,0,0,1.84-.18,12.15,12.15,0,0,0,1.81-.55v3.43a8,8,0,0,1-1.79.52,11.63,11.63,0,0,1-2.05.18,7.7,7.7,0,0,1-5.3-1.61q-1.79-1.61-1.79-5.12a9.07,9.07,0,0,1,.38-2.61,6.52,6.52,0,0,1,1.14-2.22,5.64,5.64,0,0,1,1.91-1.53,5.92,5.92,0,0,1,2.68-.57,5.42,5.42,0,0,1,2.44.51,4.46,4.46,0,0,1,1.65,1.39,5.85,5.85,0,0,1,.92,2.07,10.78,10.78,0,0,1,.29,2.54q0,.39,0,.88c0,.33,0,.64-.07.94Zm3.09-2.63a3.37,3.37,0,0,0-.35-1.69,1.18,1.18,0,0,0-1.1-.6,1.36,1.36,0,0,0-.77.21,1.83,1.83,0,0,0-.52.53,2.23,2.23,0,0,0-.31.74,3.61,3.61,0,0,0-.09.82Z" transform="translate(-184.78 -1082.19)"/><path class="cls-2" d="M281.4,1156.52a6.58,6.58,0,0,1,.57-1,4.53,4.53,0,0,1,.79-.88,3.8,3.8,0,0,1,1-.62,3.13,3.13,0,0,1,1.23-.23,3.4,3.4,0,0,1,.88.1V1158l-.63-.08-.53,0a4.9,4.9,0,0,0-1.71.33,3.79,3.79,0,0,0-1.4.84v8h-4.42v-13H281Z" transform="translate(-184.78 -1082.19)"/><path class="cls-2" d="M296.35,1156.52a6.58,6.58,0,0,1,.57-1,4.53,4.53,0,0,1,.79-.88,3.8,3.8,0,0,1,1-.62,3.13,3.13,0,0,1,1.23-.23,3.4,3.4,0,0,1,.88.1V1158l-.63-.08-.53,0a4.9,4.9,0,0,0-1.71.33,3.79,3.79,0,0,0-1.4.84v8h-4.42v-13h3.77Z" transform="translate(-184.78 -1082.19)"/><path class="cls-2" d="M305.78,1162a1.61,1.61,0,0,0,.77,1.48,4.24,4.24,0,0,0,2.19.47,8.86,8.86,0,0,0,1.84-.18,12.15,12.15,0,0,0,1.81-.55v3.43a8,8,0,0,1-1.79.52,11.63,11.63,0,0,1-2.05.18,7.7,7.7,0,0,1-5.3-1.61q-1.79-1.61-1.79-5.12a9.07,9.07,0,0,1,.38-2.61,6.52,6.52,0,0,1,1.14-2.22,5.64,5.64,0,0,1,1.91-1.53,5.92,5.92,0,0,1,2.68-.57,5.42,5.42,0,0,1,2.44.51,4.46,4.46,0,0,1,1.65,1.39,5.85,5.85,0,0,1,.92,2.07,10.78,10.78,0,0,1,.29,2.54q0,.39,0,.88c0,.33,0,.64-.07.94Zm3.09-2.63a3.37,3.37,0,0,0-.35-1.69,1.18,1.18,0,0,0-1.1-.6,1.36,1.36,0,0,0-.77.21,1.83,1.83,0,0,0-.52.53,2.23,2.23,0,0,0-.31.74,3.61,3.61,0,0,0-.09.82Z" transform="translate(-184.78 -1082.19)"/><path class="cls-2" d="M319.54,1167.07h-4.42v-18.75h4.42Z" transform="translate(-184.78 -1082.19)"/><path class="cls-2" d="M332.62,1167.07h-3.77l-.29-1.14a4.75,4.75,0,0,1-.36.38,3.76,3.76,0,0,1-.58.44,3.32,3.32,0,0,1-.83.36,4,4,0,0,1-1.13.14,4.42,4.42,0,0,1-1.48-.25,3.29,3.29,0,0,1-1.22-.75,3.68,3.68,0,0,1-.83-1.27,4.86,4.86,0,0,1-.31-1.83,4.15,4.15,0,0,1,.43-2,3.41,3.41,0,0,1,1.18-1.27,5,5,0,0,1,1.74-.68,11,11,0,0,1,2.13-.19h.88v-.44a1.32,1.32,0,0,0-.18-.74,1.21,1.21,0,0,0-.47-.42,1.86,1.86,0,0,0-.62-.18,5.6,5.6,0,0,0-.65,0,8.86,8.86,0,0,0-1.46.13,10.68,10.68,0,0,0-1.69.44v-3.43l.95-.21c.35-.07.72-.13,1.1-.18s.75-.09,1.12-.12.7,0,1,0a8.71,8.71,0,0,1,2.21.26,4.42,4.42,0,0,1,1.68.82,3.65,3.65,0,0,1,1.07,1.47,5.78,5.78,0,0,1,.38,2.21Zm-4.42-5.43h-.75q-1.43,0-1.43,1.08a1.25,1.25,0,0,0,.26.79,1,1,0,0,0,.81.33,1.89,1.89,0,0,0,.6-.1,1.84,1.84,0,0,0,.52-.26Z" transform="translate(-184.78 -1082.19)"/><path class="cls-2" d="M340.94,1154.1h3.2v3.41h-3.2V1162a2.18,2.18,0,0,0,.3,1.3,1.35,1.35,0,0,0,1.13.39,6,6,0,0,0,1.09-.09,6.54,6.54,0,0,0,.88-.22v3.54a7,7,0,0,1-1.53.33,15,15,0,0,1-1.58.09,6.85,6.85,0,0,1-1.88-.25,4.17,4.17,0,0,1-1.49-.75,3.46,3.46,0,0,1-1-1.29,4.44,4.44,0,0,1-.35-1.85v-5.72h-2.57v-3.41h2.57v-3.33h4.42Z" transform="translate(-184.78 -1082.19)"/><path class="cls-2" d="M346.34,1149.7a2.13,2.13,0,0,1,.65-1.61,2.36,2.36,0,0,1,1.7-.62,2.4,2.4,0,0,1,1.71.62,2.29,2.29,0,0,1,0,3.22,2.4,2.4,0,0,1-1.71.62,2.36,2.36,0,0,1-1.7-.62A2.13,2.13,0,0,1,346.34,1149.7Zm4.58,17.37H346.5v-13h4.42Z" transform="translate(-184.78 -1082.19)"/><path class="cls-2" d="M364.8,1160.55a9.87,9.87,0,0,1-.34,2.61,6.12,6.12,0,0,1-1.07,2.17,5.15,5.15,0,0,1-1.86,1.48,6.21,6.21,0,0,1-2.72.55,6.28,6.28,0,0,1-2.74-.55,5,5,0,0,1-1.85-1.48,6.24,6.24,0,0,1-1.05-2.17,9.85,9.85,0,0,1-.34-2.61,10.27,10.27,0,0,1,.33-2.6,6.2,6.2,0,0,1,1-2.2,5.1,5.1,0,0,1,1.85-1.51,6.21,6.21,0,0,1,2.77-.56,6.15,6.15,0,0,1,2.74.56,5.23,5.23,0,0,1,1.86,1.51,6.09,6.09,0,0,1,1.05,2.2A10.29,10.29,0,0,1,364.8,1160.55Zm-4.34-.05q0-.58-.06-1.16a3.64,3.64,0,0,0-.23-1,1.88,1.88,0,0,0-.5-.72,1.4,1.4,0,0,0-1.68,0,1.87,1.87,0,0,0-.5.72,4,4,0,0,0-.25,1,9.64,9.64,0,0,0-.07,1.16,10.16,10.16,0,0,0,.07,1.19,4.18,4.18,0,0,0,.25,1,1.76,1.76,0,0,0,.5.72,1.46,1.46,0,0,0,1.68,0,1.77,1.77,0,0,0,.5-.72,3.84,3.84,0,0,0,.23-1Q360.46,1161.1,360.46,1160.5Z" transform="translate(-184.78 -1082.19)"/><path class="cls-2" d="M377.73,1167.07h-4.42v-8.42q0-1.25-1.2-1.25a3.32,3.32,0,0,0-.56.05,2,2,0,0,0-.56.18v9.44h-4.42v-13h3.51l.36,1.56a4.6,4.6,0,0,1,1.7-1.42,4.39,4.39,0,0,1,1.9-.48,3.5,3.5,0,0,1,1.57.34,3.41,3.41,0,0,1,1.15.91,4.07,4.07,0,0,1,.71,1.34,5.28,5.28,0,0,1,.25,1.63Z" transform="translate(-184.78 -1082.19)"/><path class="cls-2" d="M380.07,1163a11.85,11.85,0,0,0,2.16.74,7.83,7.83,0,0,0,1.69.22q1.12,0,1.12-.64a.76.76,0,0,0-.39-.67,5.64,5.64,0,0,0-1-.47l-1.27-.5a5,5,0,0,1-1.27-.73,3.82,3.82,0,0,1-1-1.16,3.71,3.71,0,0,1-.39-1.82,3.6,3.6,0,0,1,.4-1.7,4,4,0,0,1,1.08-1.3,4.9,4.9,0,0,1,1.59-.82,6.39,6.39,0,0,1,1.92-.29,14.86,14.86,0,0,1,2.16.14,9,9,0,0,1,1.69.4v3.51a10.34,10.34,0,0,0-1.88-.52,9,9,0,0,0-1.37-.13q-1.25,0-1.25.57a.62.62,0,0,0,.39.55,10.1,10.1,0,0,0,1,.44l1.26.52a5.12,5.12,0,0,1,1.26.77,4,4,0,0,1,1,1.2,4.05,4.05,0,0,1,0,3.5,4.05,4.05,0,0,1-1.12,1.34,5.53,5.53,0,0,1-1.72.88,7.08,7.08,0,0,1-2.2.33,13.12,13.12,0,0,1-2-.14,8.39,8.39,0,0,1-1.91-.53Z" transform="translate(-184.78 -1082.19)"/><path class="cls-2" d="M402.09,1167.07h-4.42v-8.55a1.16,1.16,0,0,0-.28-.83,1.05,1.05,0,0,0-.8-.29,3.65,3.65,0,0,0-.54.05,2.82,2.82,0,0,0-.59.16v9.46H391v-18.75h4.37v6.76a4.3,4.3,0,0,1,1.4-1,4.25,4.25,0,0,1,1.72-.36,3.26,3.26,0,0,1,1.55.35,3.31,3.31,0,0,1,1.1.94,4.33,4.33,0,0,1,.68,1.35,5.37,5.37,0,0,1,.23,1.57Z" transform="translate(-184.78 -1082.19)"/><path class="cls-2" d="M404.38,1149.7a2.13,2.13,0,0,1,.65-1.61,2.36,2.36,0,0,1,1.7-.62,2.4,2.4,0,0,1,1.71.62,2.29,2.29,0,0,1,0,3.22,2.4,2.4,0,0,1-1.71.62,2.36,2.36,0,0,1-1.7-.62A2.13,2.13,0,0,1,404.38,1149.7Zm4.58,17.37h-4.42v-13H409Z" transform="translate(-184.78 -1082.19)"/><path class="cls-2" d="M411.73,1171.49V1154.1h3.41l.31,1.33a4.34,4.34,0,0,1,3.44-1.66,4.18,4.18,0,0,1,2.39.64,4.61,4.61,0,0,1,1.49,1.63,7,7,0,0,1,.75,2.24,14.91,14.91,0,0,1,.21,2.44,10,10,0,0,1-.25,2.08,7.11,7.11,0,0,1-.84,2.15,5.18,5.18,0,0,1-1.58,1.66,4.78,4.78,0,0,1-3.82.46,4.47,4.47,0,0,1-1.08-.52v5Zm7.64-10.95a5.28,5.28,0,0,0-.41-2.31,1.44,1.44,0,0,0-1.4-.83,1.92,1.92,0,0,0-.8.16,3,3,0,0,0-.64.39v5.43a4.15,4.15,0,0,0,1.44.23,1.48,1.48,0,0,0,.87-.25,1.68,1.68,0,0,0,.56-.68,3.8,3.8,0,0,0,.29-1A7,7,0,0,0,419.38,1160.54Z" transform="translate(-184.78 -1082.19)"/><path class="cls-2" d="M425.75,1163a11.85,11.85,0,0,0,2.16.74,7.83,7.83,0,0,0,1.69.22q1.12,0,1.12-.64a.76.76,0,0,0-.39-.67,5.64,5.64,0,0,0-1-.47l-1.27-.5a5,5,0,0,1-1.27-.73,3.82,3.82,0,0,1-1-1.16,3.71,3.71,0,0,1-.39-1.82,3.6,3.6,0,0,1,.4-1.7,4,4,0,0,1,1.08-1.3,4.9,4.9,0,0,1,1.59-.82,6.39,6.39,0,0,1,1.92-.29,14.86,14.86,0,0,1,2.16.14,9,9,0,0,1,1.69.4v3.51a10.34,10.34,0,0,0-1.88-.52,9,9,0,0,0-1.37-.13q-1.25,0-1.25.57a.62.62,0,0,0,.39.55,10.1,10.1,0,0,0,1,.44l1.26.52a5.12,5.12,0,0,1,1.26.77,4,4,0,0,1,1,1.2,4.05,4.05,0,0,1,0,3.5,4.05,4.05,0,0,1-1.12,1.34,5.53,5.53,0,0,1-1.72.88,7.08,7.08,0,0,1-2.2.33,13.12,13.12,0,0,1-2-.14,8.39,8.39,0,0,1-1.91-.53Z" transform="translate(-184.78 -1082.19)"/></svg>