<svg id="icons" xmlns="http://www.w3.org/2000/svg" viewBox="0 0 194.48 185.38"><defs><style>.cls-1{fill:#f2d664;}.cls-2{fill:none;stroke:#f7da7f;stroke-width:0.74px;}.cls-10,.cls-2{stroke-miterlimit:10;}.cls-3{fill:#292728;}.cls-4{fill:#f9ac85;}.cls-5{fill:#fbba94;}.cls-6{fill:#fbc5a1;}.cls-10,.cls-7{fill:#fff;}.cls-8{fill:#d3a00f;}.cls-9{fill:#9e780b;}.cls-10{stroke:#009957;stroke-width:4px;}.cls-11{font-size:39.34px;fill:#009957;font-family:BTFont-ExtraBold, BT Font;font-weight:700;}</style></defs><g id="_Group_" data-name="&lt;Group&gt;"><g id="_Group_2" data-name="&lt;Group&gt;"><path id="_Path_" data-name="&lt;Path&gt;" class="cls-1" d="M1652.49,1432.39c-14.51-.62-59.67,7-64.36-.31s13.74-16.21,14.09-23.11-8.11-13.13-8.38-15.61.37-3,1.45-5.2-1.88-2.6-.87-4.92,19.67-15.83,25.11-34.81,27.26-19,33.84-19,31.46,3.11,38.46,27.68c3.48,12.23,18.19,23.48,20.37,25.5s1.94,5.15.19,6.38-.12,1.69,0,4.34-7.27,8.16-7.23,13.88,15,15.12,15,20.53-5.78,17.79-5.78,17.79S1667,1433,1652.49,1432.39Z" transform="translate(-1573.82 -1329.45)"/><path id="_Path_2" data-name="&lt;Path&gt;" class="cls-2" d="M1666,1457.3s-12.43,7.78-24.92,1" transform="translate(-1573.82 -1329.45)"/><path id="_Path_3" data-name="&lt;Path&gt;" class="cls-3" d="M1666.17,1445.55c-.59,2.94-11.33,56.1-11.33,55.13,0-.74-8-31-12.08-46.34l-2.3-8.65v-.13c-28.36,3.56-61.85,32.86-61.85,63.37,0,0,45.6.25,74.75.25h79.55C1732.91,1462.6,1694.56,1449.09,1666.17,1445.55Z" transform="translate(-1573.82 -1329.45)"/><path id="_Path_4" data-name="&lt;Path&gt;" class="cls-3" d="M1640.56,1445.55c.59,2.94,11.33,56.1,11.33,55.13,0-.74,8-31,12.08-46.34l2.3-8.65v-.13c28.36,3.56,61.85,32.86,61.85,63.37,0,0-45.6.25-74.75.25h-79.55C1573.82,1462.6,1612.17,1449.09,1640.56,1445.55Z" transform="translate(-1573.82 -1329.45)"/><path id="_Path_5" data-name="&lt;Path&gt;" class="cls-1" d="M1587.36,1430.21a32.21,32.21,0,0,1,5.26,13.68c1.09,8.09-5.75,8.37-4,16.1s6.53,6.76,8.24,14.53-6.58,10-10.36,8.21c2.41,4.63,4.92,6.41,8,5.78s4.66-.62,8.71-4.66c-4,10.49.47,14.56,3.27,16.84s10,8.19,15,4.92c-6.87-2-8.89-3.89-7.8-7.77s8.71-6.06,11.82-9,.16-9,0-13.53c2.49,3.42,4.26,1.75,5,.31-8.09-3.27-12-10.8-10.11-14.56,3.11,7.34,11.82,10.27,16.17,8.8s4-24.29,4-24.29L1651,1445l15,.57s-.58,21.35,2.06,23.68,11.19,4.43,19.28-6.84c1.55,4.35-1.48,10.73-10.73,13.85.31,1.13,2.8,1.13,5.6,0,4.51-1.57-3.58,3.1-2,9.32s13.84,8.55,14.46,13.84c.47,2.49-8.09,6.22-8.09,6.22S1706.79,1509,1704,1484c2.64,3.42,13.06,10.42,16.33-1.27-8.24,2.67-14-6.37-8.36-11.32s9.92-17.42,3.39-24.41a16.21,16.21,0,0,1-3.58-15.55Z" transform="translate(-1573.82 -1329.45)"/><path id="_Path_6" data-name="&lt;Path&gt;" class="cls-4" d="M1640.82,1434.73l-.36,11,2.3,8.65c4.06,15.3,12.08,45.6,12.08,46.34,0,1,11.36-55.27,11.36-55.27l-.73-9.08Z" transform="translate(-1573.82 -1329.45)"/><path id="_Path_7" data-name="&lt;Path&gt;" class="cls-5" d="M1653.18,1440c4,.1,17-2.2,24.83-14.88s7.82-20,7.82-25.41-.35-6.43-6.41-13.32-18.22,1.73-26.24-5.47Z" transform="translate(-1573.82 -1329.45)"/><path id="_Path_8" data-name="&lt;Path&gt;" class="cls-6" d="M1653.47,1440c-4,.1-13.93-2.23-19.4-9.33s-11.16-14.59-11.16-20c0-2.81-3.34-11.87,0-20.83s17.58-11.89,19.7-23.87c2.13,14.91,8.64,13.08,10.58,14.91C1653.18,1383.28,1653.47,1435.67,1653.47,1440Z" transform="translate(-1573.82 -1329.45)"/></g></g><polygon class="cls-7" points="158.63 180.97 147.7 184.15 136.77 180.97 136.77 167.17 158.63 167.17 158.63 180.97"/><path class="cls-8" d="M1721.47,1492.5c-6.11,0-11.06,2.25-11.06,5v1.09c0,2.77,5,5,11.06,5s11.06-2.25,11.06-5v-1.09C1732.53,1494.75,1727.58,1492.5,1721.47,1492.5Z" transform="translate(-1573.82 -1329.45)"/><path class="cls-9" d="M1721.47,1506.09c-5.33,0-9.78-1.71-10.83-4a2.45,2.45,0,0,0-.23,1v1.09c0,2.77,5,5,11.06,5s11.06-2.25,11.06-5v-1.09a2.45,2.45,0,0,0-.23-1C1731.26,1504.38,1726.8,1506.09,1721.47,1506.09Z" transform="translate(-1573.82 -1329.45)"/><path class="cls-9" d="M1721.47,1511.69c-5.33,0-9.78-1.71-10.83-4a2.45,2.45,0,0,0-.23,1v1.09c0,2.77,5,5,11.06,5s11.06-2.25,11.06-5v-1.09a2.45,2.45,0,0,0-.23-1C1731.26,1510,1726.8,1511.69,1721.47,1511.69Z" transform="translate(-1573.82 -1329.45)"/><polygon class="cls-7" points="158.68 168.24 147.75 171.42 136.82 168.24 136.82 154.43 158.68 154.43 158.68 168.24"/><path class="cls-8" d="M1721.52,1479.77c-6.11,0-11.06,2.25-11.06,5v1.09c0,2.77,5,5,11.06,5s11.06-2.25,11.06-5v-1.09C1732.58,1482,1727.63,1479.77,1721.52,1479.77Z" transform="translate(-1573.82 -1329.45)"/><path class="cls-9" d="M1721.52,1493.35c-5.33,0-9.78-1.71-10.83-4a2.45,2.45,0,0,0-.23,1v1.09c0,2.77,5,5,11.06,5s11.06-2.25,11.06-5v-1.09a2.45,2.45,0,0,0-.23-1C1731.3,1491.64,1726.85,1493.35,1721.52,1493.35Z" transform="translate(-1573.82 -1329.45)"/><path class="cls-9" d="M1721.52,1499c-5.33,0-9.78-1.71-10.83-4a2.45,2.45,0,0,0-.23,1v1.09c0,2.77,5,5,11.06,5s11.06-2.25,11.06-5V1496a2.45,2.45,0,0,0-.23-1C1731.3,1497.24,1726.85,1499,1721.52,1499Z" transform="translate(-1573.82 -1329.45)"/><polygon class="cls-7" points="176.13 180.94 165.2 184.11 154.27 180.94 154.27 167.13 176.13 167.13 176.13 180.94"/><path class="cls-8" d="M1739,1492.46c-6.11,0-11.06,2.25-11.06,5v1.09c0,2.77,5,5,11.06,5s11.06-2.25,11.06-5v-1.09C1750,1494.71,1745.08,1492.46,1739,1492.46Z" transform="translate(-1573.82 -1329.45)"/><path class="cls-9" d="M1739,1506c-5.33,0-9.78-1.71-10.83-4a2.45,2.45,0,0,0-.23,1v1.09c0,2.77,5,5,11.06,5s11.06-2.25,11.06-5v-1.09a2.45,2.45,0,0,0-.23-1C1748.76,1504.33,1744.31,1506,1739,1506Z" transform="translate(-1573.82 -1329.45)"/><path class="cls-9" d="M1739,1511.65c-5.33,0-9.78-1.71-10.83-4a2.45,2.45,0,0,0-.23,1v1.09c0,2.77,5,5,11.06,5s11.06-2.25,11.06-5v-1.09a2.45,2.45,0,0,0-.23-1C1748.76,1509.94,1744.31,1511.65,1739,1511.65Z" transform="translate(-1573.82 -1329.45)"/><circle class="cls-10" cx="1725.46" cy="1377.02" r="40.85" transform="translate(-1355.14 1660.95) rotate(-85.55)"/><text class="cls-11" transform="translate(123.69 60.18)">3%</text></svg>