<svg id="icons" xmlns="http://www.w3.org/2000/svg" xmlns:xlink="http://www.w3.org/1999/xlink" viewBox="0 0 226.95 132.2"><defs><style>.cls-1{fill:none;}.cls-2{fill:#dedbd6;}.cls-3{clip-path:url(#clip-path);}.cls-4{fill:#b5b3b0;}.cls-5{fill:#004796;}.cls-6{fill:#009957;}.cls-7{fill:#556a6d;}</style><clipPath id="clip-path" transform="translate(-512.86 -267.09)"><rect id="_Rectangle_" data-name="&lt;Rectangle&gt;" class="cls-1" x="626.21" y="221.39" width="155.89" height="185.23"/></clipPath></defs><g id="_Group_" data-name="&lt;Group&gt;"><rect id="_Rectangle_2" data-name="&lt;Rectangle&gt;" class="cls-2" x="30.85" width="163.28" height="16.95"/></g><g id="_Group_2" data-name="&lt;Group&gt;"><rect id="_Path_" data-name="&lt;Path&gt;" class="cls-2" x="186.53" y="78.12" width="40.41" height="53.88"/></g><g id="_Group_3" data-name="&lt;Group&gt;"><polygon id="_Path_2" data-name="&lt;Path&gt;" class="cls-2" points="186.53 12.07 40.47 12.07 40.47 73.68 0.24 73.68 0.24 132 186.53 132 186.53 12.07"/></g><g id="_Clip_Group_" data-name="&lt;Clip Group&gt;"><g class="cls-3"><g id="_Group_4" data-name="&lt;Group&gt;"><g id="_Group_5" data-name="&lt;Group&gt;"><g id="_Group_6" data-name="&lt;Group&gt;"><polygon id="_Path_3" data-name="&lt;Path&gt;" class="cls-4" points="186.29 12.27 40.23 12.27 40.23 73.89 0 73.89 0 132.2 186.29 132.2 186.29 12.27"/></g><g id="_Group_7" data-name="&lt;Group&gt;"><rect id="_Path_4" data-name="&lt;Path&gt;" class="cls-4" x="186.29" y="78.32" width="40.41" height="53.88"/></g></g><g id="_Group_8" data-name="&lt;Group&gt;"><rect id="_Rectangle_3" data-name="&lt;Rectangle&gt;" class="cls-4" x="30.6" y="0.2" width="163.28" height="16.95"/></g></g></g></g><g id="_Group_9" data-name="&lt;Group&gt;"><rect id="_Path_5" data-name="&lt;Path&gt;" class="cls-5" x="68.34" y="38.77" width="30.11" height="30.1"/></g><g id="_Group_10" data-name="&lt;Group&gt;"><rect id="_Path_6" data-name="&lt;Path&gt;" class="cls-5" x="128.57" y="38.77" width="30.09" height="30.1"/></g><g id="_Group_11" data-name="&lt;Group&gt;"><rect id="_Path_7" data-name="&lt;Path&gt;" class="cls-5" x="92.89" y="86.82" width="40.93" height="44.78"/></g><g id="_Group_12" data-name="&lt;Group&gt;"><g id="_Group_13" data-name="&lt;Group&gt;"><g id="_Group_14" data-name="&lt;Group&gt;"><path id="_Path_8" data-name="&lt;Path&gt;" class="cls-6" d="M552.55,324.43a65.68,65.68,0,0,0-11.11,17.71c-6.08,15-8.2,33,10.17,33,19.49,0,20.27-14.52,13.21-31.3C561.86,336.87,558.51,332.78,552.55,324.43Z" transform="translate(-512.86 -267.09)"/></g></g><g id="_Group_15" data-name="&lt;Group&gt;"><rect id="_Path_9" data-name="&lt;Path&gt;" class="cls-7" x="38.6" y="108.49" width="2.24" height="23.43"/></g></g><g id="_Group_16" data-name="&lt;Group&gt;"><g id="_Group_17" data-name="&lt;Group&gt;"><g id="_Group_18" data-name="&lt;Group&gt;"><path id="_Path_10" data-name="&lt;Path&gt;" class="cls-6" d="M698.85,324.43a65.61,65.61,0,0,0-11.11,17.71c-6.08,15-8.2,33,10.17,33,19.49,0,20.27-14.52,13.21-31.3C708.16,336.87,704.8,332.78,698.85,324.43Z" transform="translate(-512.86 -267.09)"/></g></g><g id="_Group_19" data-name="&lt;Group&gt;"><rect id="_Path_11" data-name="&lt;Path&gt;" class="cls-7" x="184.9" y="108.49" width="2.24" height="23.43"/></g></g></svg>