<svg id="icons" xmlns="http://www.w3.org/2000/svg" xmlns:xlink="http://www.w3.org/1999/xlink" viewBox="0 0 335.43 169.18"><defs><style>.cls-1{fill:none;}.cls-2{fill:#edc590;}.cls-3{fill:#f90;}.cls-4{fill:#0295d4;}.cls-5{fill:#ff379b;}.cls-6{fill:#3c3c3b;}.cls-7{fill:#dedbd6;}.cls-8{clip-path:url(#clip-path);}.cls-9{fill:#b5b3b0;}.cls-10{fill:#004796;}.cls-11{fill:#009957;}.cls-12{fill:#556a6d;}.cls-13{clip-path:url(#clip-path-2);}.cls-14{opacity:0.1;}.cls-15{clip-path:url(#clip-path-3);}.cls-16{clip-path:url(#clip-path-4);}.cls-17{fill:#015f7f;}.cls-18{clip-path:url(#clip-path-5);}.cls-19{clip-path:url(#clip-path-6);}.cls-20{clip-path:url(#clip-path-7);}.cls-21{fill:#bf1070;}.cls-22{clip-path:url(#clip-path-8);}.cls-23{fill:#fff;}.cls-24{fill:#55379b;}.cls-25{clip-path:url(#clip-path-9);}.cls-26{clip-path:url(#clip-path-10);}.cls-27{clip-path:url(#clip-path-11);}.cls-28{fill:#2e1775;}.cls-29{fill:#003571;}</style><clipPath id="clip-path" transform="translate(-404.38 -230.81)"><rect id="_Rectangle_" data-name="&lt;Rectangle&gt;" class="cls-1" x="626.21" y="221.39" width="155.89" height="185.23"/></clipPath><clipPath id="clip-path-2" transform="translate(-404.38 -230.81)"><polygon id="_Clipping_Path_" data-name="&lt;Clipping Path&gt;" class="cls-2" points="517.35 399.06 507.17 399.06 504.82 362.82 519.7 362.82 517.35 399.06"/></clipPath><clipPath id="clip-path-3" transform="translate(-404.38 -230.81)"><ellipse id="_Clipping_Path_2" data-name="&lt;Clipping Path&gt;" class="cls-2" cx="512.19" cy="324.98" rx="10.25" ry="10.18"/></clipPath><clipPath id="clip-path-4" transform="translate(-404.38 -230.81)"><path id="_Clipping_Path_3" data-name="&lt;Clipping Path&gt;" class="cls-4" d="M524.2,342.38a4.75,4.75,0,0,0-4.75-4.72h-1.15c-.8,1.45-3.15,2.49-5.93,2.49s-5.13-1-5.93-2.49h-1.15a4.75,4.75,0,0,0-4.75,4.72L493.71,378a4.75,4.75,0,0,0,4.75,4.72h27.79A4.75,4.75,0,0,0,531,378Z"/></clipPath><clipPath id="clip-path-5" transform="translate(-404.38 -230.81)"><polygon id="_Clipping_Path_4" data-name="&lt;Clipping Path&gt;" class="cls-2" points="428.62 399.06 418.44 399.06 416.09 362.82 430.97 362.82 428.62 399.06"/></clipPath><clipPath id="clip-path-6" transform="translate(-404.38 -230.81)"><ellipse id="_Clipping_Path_5" data-name="&lt;Clipping Path&gt;" class="cls-2" cx="423.46" cy="324.98" rx="10.25" ry="10.18"/></clipPath><clipPath id="clip-path-7" transform="translate(-404.38 -230.81)"><path id="_Clipping_Path_6" data-name="&lt;Clipping Path&gt;" class="cls-5" d="M435.46,342.38a4.75,4.75,0,0,0-4.75-4.72h-1.15c-.8,1.45-3.15,2.49-5.93,2.49s-5.13-1-5.93-2.49h-1.15a4.75,4.75,0,0,0-4.75,4.72L405,378a4.75,4.75,0,0,0,4.75,4.72h27.79a4.75,4.75,0,0,0,4.75-4.72Z"/></clipPath><clipPath id="clip-path-8" transform="translate(-404.38 -230.81)"><polygon id="_Clipping_Path_7" data-name="&lt;Clipping Path&gt;" class="cls-6" points="477.07 399.06 460.28 399.06 457.93 362.82 479.42 362.82 477.07 399.06"/></clipPath><clipPath id="clip-path-9" transform="translate(-404.38 -230.81)"><path id="_Clipping_Path_8" data-name="&lt;Clipping Path&gt;" class="cls-1" d="M477.54,336H473.4c-1.8,4.12-4.66,10.71-4.66,11s-3.65-7.4-5.36-11h-3.57a7.57,7.57,0,0,0-7.57,7.52v18.88a7.57,7.57,0,0,0,7.57,7.52h17.73a7.57,7.57,0,0,0,7.57-7.52V343.53A7.57,7.57,0,0,0,477.54,336Z"/></clipPath><clipPath id="clip-path-10" transform="translate(-404.38 -230.81)"><ellipse id="_Clipping_Path_9" data-name="&lt;Clipping Path&gt;" class="cls-2" cx="468.67" cy="324.98" rx="10.25" ry="10.18"/></clipPath><clipPath id="clip-path-11" transform="translate(-404.38 -230.81)"><path id="_Clipping_Path_10" data-name="&lt;Clipping Path&gt;" class="cls-3" d="M471.38,338.31l-2.32-2.3a.55.55,0,0,0-.77,0l-2.32,2.3a.54.54,0,0,0,0,.77l1.16,1.15-1.06,1,2.6,10.92,2.6-10.92-1.06-1,1.16-1.15A.54.54,0,0,0,471.38,338.31Z"/></clipPath></defs><g id="_Group_" data-name="&lt;Group&gt;"><rect id="_Rectangle_2" data-name="&lt;Rectangle&gt;" class="cls-7" x="139.32" y="36.28" width="163.28" height="16.95"/></g><g id="_Group_2" data-name="&lt;Group&gt;"><rect id="_Path_" data-name="&lt;Path&gt;" class="cls-7" x="295.01" y="114.4" width="40.41" height="53.88"/></g><g id="_Group_3" data-name="&lt;Group&gt;"><polygon id="_Path_2" data-name="&lt;Path&gt;" class="cls-7" points="295.01 48.34 148.95 48.34 148.95 109.96 108.72 109.96 108.72 168.28 295.01 168.28 295.01 48.34"/></g><g id="_Clip_Group_" data-name="&lt;Clip Group&gt;"><g class="cls-8"><g id="_Group_4" data-name="&lt;Group&gt;"><g id="_Group_5" data-name="&lt;Group&gt;"><g id="_Group_6" data-name="&lt;Group&gt;"><polygon id="_Path_3" data-name="&lt;Path&gt;" class="cls-9" points="294.77 48.55 148.71 48.55 148.71 110.17 108.48 110.17 108.48 168.48 294.77 168.48 294.77 48.55"/></g><g id="_Group_7" data-name="&lt;Group&gt;"><rect id="_Path_4" data-name="&lt;Path&gt;" class="cls-9" x="294.77" y="114.6" width="40.41" height="53.88"/></g></g><g id="_Group_8" data-name="&lt;Group&gt;"><rect id="_Rectangle_3" data-name="&lt;Rectangle&gt;" class="cls-9" x="139.08" y="36.48" width="163.28" height="16.95"/></g></g></g></g><g id="_Group_9" data-name="&lt;Group&gt;"><rect id="_Path_5" data-name="&lt;Path&gt;" class="cls-10" x="176.82" y="75.05" width="30.11" height="30.1"/></g><g id="_Group_10" data-name="&lt;Group&gt;"><rect id="_Path_6" data-name="&lt;Path&gt;" class="cls-10" x="237.05" y="75.05" width="30.09" height="30.1"/></g><g id="_Group_11" data-name="&lt;Group&gt;"><rect id="_Path_7" data-name="&lt;Path&gt;" class="cls-10" x="201.37" y="123.09" width="40.93" height="44.78"/></g><g id="_Group_12" data-name="&lt;Group&gt;"><g id="_Group_13" data-name="&lt;Group&gt;"><g id="_Group_14" data-name="&lt;Group&gt;"><path id="_Path_8" data-name="&lt;Path&gt;" class="cls-11" d="M552.55,324.43a65.68,65.68,0,0,0-11.11,17.71c-6.08,15-8.2,33,10.17,33,19.49,0,20.27-14.52,13.21-31.3C561.86,336.87,558.51,332.78,552.55,324.43Z" transform="translate(-404.38 -230.81)"/></g></g><g id="_Group_15" data-name="&lt;Group&gt;"><rect id="_Path_9" data-name="&lt;Path&gt;" class="cls-12" x="147.08" y="144.77" width="2.24" height="23.43"/></g></g><g id="_Group_16" data-name="&lt;Group&gt;"><g id="_Group_17" data-name="&lt;Group&gt;"><g id="_Group_18" data-name="&lt;Group&gt;"><path id="_Path_10" data-name="&lt;Path&gt;" class="cls-11" d="M698.85,324.43a65.61,65.61,0,0,0-11.11,17.71c-6.08,15-8.2,33,10.17,33,19.49,0,20.27-14.52,13.21-31.3C708.16,336.87,704.8,332.78,698.85,324.43Z" transform="translate(-404.38 -230.81)"/></g></g><g id="_Group_19" data-name="&lt;Group&gt;"><rect id="_Path_11" data-name="&lt;Path&gt;" class="cls-12" x="293.37" y="144.77" width="2.24" height="23.43"/></g></g><g id="_Group_20" data-name="&lt;Group&gt;"><g id="_Clip_Group_2" data-name="&lt;Clip Group&gt;"><polygon id="_Clipping_Path_11" data-name="&lt;Clipping Path&gt;" class="cls-2" points="112.97 168.25 102.79 168.25 100.44 132.01 115.32 132.01 112.97 168.25"/><g class="cls-13"><rect id="_Rectangle_4" data-name="&lt;Rectangle&gt;" class="cls-14" x="88.73" y="81.08" width="19.08" height="88.1"/></g></g><g id="_Clip_Group_3" data-name="&lt;Clip Group&gt;"><ellipse id="_Clipping_Path_12" data-name="&lt;Clipping Path&gt;" class="cls-2" cx="107.81" cy="94.17" rx="10.25" ry="10.18"/><g class="cls-15"><rect id="_Rectangle_5" data-name="&lt;Rectangle&gt;" class="cls-14" x="88.73" y="81.08" width="19.08" height="88.1"/></g></g><g id="_Clip_Group_4" data-name="&lt;Clip Group&gt;"><path id="_Clipping_Path_13" data-name="&lt;Clipping Path&gt;" class="cls-4" d="M524.2,342.38a4.75,4.75,0,0,0-4.75-4.72h-1.15c-.8,1.45-3.15,2.49-5.93,2.49s-5.13-1-5.93-2.49h-1.15a4.75,4.75,0,0,0-4.75,4.72L493.71,378a4.75,4.75,0,0,0,4.75,4.72h27.79A4.75,4.75,0,0,0,531,378Z" transform="translate(-404.38 -230.81)"/><g class="cls-16"><rect id="_Rectangle_6" data-name="&lt;Rectangle&gt;" class="cls-14" x="88.73" y="81.08" width="19.08" height="88.1"/></g></g><g id="_Group_21" data-name="&lt;Group&gt;"><rect id="_Path_12" data-name="&lt;Path&gt;" class="cls-17" x="501.98" y="366.24" width="3" height="7.61" transform="translate(-417.57 490.64) rotate(-70.54)"/><rect id="_Path_13" data-name="&lt;Path&gt;" class="cls-17" x="516.36" y="368.55" width="7.61" height="3" transform="translate(-497.95 -36.36) rotate(-19.46)"/></g></g><g id="_Group_22" data-name="&lt;Group&gt;"><g id="_Clip_Group_5" data-name="&lt;Clip Group&gt;"><polygon id="_Clipping_Path_14" data-name="&lt;Clipping Path&gt;" class="cls-2" points="24.24 168.25 14.06 168.25 11.71 132.01 26.59 132.01 24.24 168.25"/><g class="cls-18"><rect id="_Rectangle_7" data-name="&lt;Rectangle&gt;" class="cls-14" y="81.08" width="19.08" height="88.1"/></g></g><g id="_Clip_Group_6" data-name="&lt;Clip Group&gt;"><ellipse id="_Clipping_Path_15" data-name="&lt;Clipping Path&gt;" class="cls-2" cx="19.08" cy="94.17" rx="10.25" ry="10.18"/><g class="cls-19"><rect id="_Rectangle_8" data-name="&lt;Rectangle&gt;" class="cls-14" y="81.08" width="19.08" height="88.1"/></g></g><g id="_Clip_Group_7" data-name="&lt;Clip Group&gt;"><path id="_Clipping_Path_16" data-name="&lt;Clipping Path&gt;" class="cls-5" d="M435.46,342.38a4.75,4.75,0,0,0-4.75-4.72h-1.15c-.8,1.45-3.15,2.49-5.93,2.49s-5.13-1-5.93-2.49h-1.15a4.75,4.75,0,0,0-4.75,4.72L405,378a4.75,4.75,0,0,0,4.75,4.72h27.79a4.75,4.75,0,0,0,4.75-4.72Z" transform="translate(-404.38 -230.81)"/><g class="cls-20"><rect id="_Rectangle_9" data-name="&lt;Rectangle&gt;" class="cls-14" y="81.08" width="19.08" height="88.1"/></g></g><g id="_Group_23" data-name="&lt;Group&gt;"><rect id="_Path_14" data-name="&lt;Path&gt;" class="cls-21" x="413.25" y="366.24" width="3" height="7.61" transform="translate(-476.67 407.1) rotate(-70.55)"/><rect id="_Path_15" data-name="&lt;Path&gt;" class="cls-21" x="427.63" y="368.55" width="7.61" height="3" transform="translate(-502.95 -66.09) rotate(-19.44)"/></g></g><g id="_Group_24" data-name="&lt;Group&gt;"><g id="_Clip_Group_8" data-name="&lt;Clip Group&gt;"><polygon id="_Clipping_Path_17" data-name="&lt;Clipping Path&gt;" class="cls-6" points="72.69 168.25 55.9 168.25 53.55 132.01 75.04 132.01 72.69 168.25"/><g class="cls-22"><rect id="_Rectangle_10" data-name="&lt;Rectangle&gt;" class="cls-14" x="45.22" y="81.08" width="19.08" height="88.1"/></g></g><g id="_Group_25" data-name="&lt;Group&gt;"><rect id="_Rectangle_11" data-name="&lt;Rectangle&gt;" class="cls-23" x="57.07" y="105.21" width="14.68" height="14.92"/><path id="_Path_16" data-name="&lt;Path&gt;" class="cls-24" d="M477.54,336H473.4c-1.8,4.12-4.66,10.71-4.66,11s-3.65-7.4-5.36-11h-3.57a7.57,7.57,0,0,0-7.57,7.52v18.88a7.57,7.57,0,0,0,7.57,7.52h17.73a7.57,7.57,0,0,0,7.57-7.52V343.53A7.57,7.57,0,0,0,477.54,336Z" transform="translate(-404.38 -230.81)"/></g><g id="_Clip_Group_9" data-name="&lt;Clip Group&gt;"><g class="cls-25"><rect id="_Rectangle_12" data-name="&lt;Rectangle&gt;" class="cls-14" x="45.22" y="81.08" width="19.08" height="88.1"/></g></g><g id="_Clip_Group_10" data-name="&lt;Clip Group&gt;"><ellipse id="_Clipping_Path_18" data-name="&lt;Clipping Path&gt;" class="cls-2" cx="64.29" cy="94.17" rx="10.25" ry="10.18"/><g class="cls-26"><rect id="_Rectangle_13" data-name="&lt;Rectangle&gt;" class="cls-14" x="45.22" y="81.08" width="19.08" height="88.1"/></g></g><g id="_Clip_Group_11" data-name="&lt;Clip Group&gt;"><path id="_Clipping_Path_19" data-name="&lt;Clipping Path&gt;" class="cls-3" d="M471.38,338.31l-2.32-2.3a.55.55,0,0,0-.77,0l-2.32,2.3a.54.54,0,0,0,0,.77l1.16,1.15-1.06,1,2.6,10.92,2.6-10.92-1.06-1,1.16-1.15A.54.54,0,0,0,471.38,338.31Z" transform="translate(-404.38 -230.81)"/><g class="cls-27"><rect id="_Rectangle_14" data-name="&lt;Rectangle&gt;" class="cls-14" x="45.22" y="80.15" width="19.08" height="88.1"/></g></g><rect id="_Path_17" data-name="&lt;Path&gt;" class="cls-28" x="70.65" y="112.6" width="6.65" height="3"/></g><path class="cls-10" d="M461.05,230.81h0c20,0,36.22,13.12,36.22,29.31s-16.22,29.31-36.22,29.31a44.92,44.92,0,0,1-5.65-.36c-7.78,7.75-16.77,9.14-25.75,9.34v-1.9c4.85-2.37,8.75-6.68,8.75-11.6a13.56,13.56,0,0,0-.15-2c-8.19-5.37-13.43-13.58-13.43-22.78C424.83,243.93,441,230.81,461.05,230.81ZM500,296.52c0,4.22,2.74,7.92,6.94,9.94v1.63c-7.78-.17-14.93-1.37-21.67-8a39.37,39.37,0,0,1-4.89.31,36.54,36.54,0,0,1-19.14-5.21,46.4,46.4,0,0,0,29-9.86,35.44,35.44,0,0,0,9.24-11.12,30.1,30.1,0,0,0,3.5-14.07c0-.79,0-1.57-.09-2.35,5.48,4.52,8.85,10.69,8.85,17.48,0,7.89-4.54,14.92-11.64,19.53A11.47,11.47,0,0,0,500,296.52Z" transform="translate(-404.38 -230.81)"/><path class="cls-29" d="M500.7,296.52c0,4.22,2.74,7.92,6.94,9.94v1.63c-7.78-.17-14.93-1.37-21.67-8a39.37,39.37,0,0,1-4.89.31,36.54,36.54,0,0,1-19.14-5.21,46.4,46.4,0,0,0,29-9.86,35.44,35.44,0,0,0,9.24-11.12,30.1,30.1,0,0,0,3.5-14.07c0-.79,0-1.57-.09-2.35,5.48,4.52,8.85,10.69,8.85,17.48,0,7.89-4.54,14.92-11.64,19.53A11.47,11.47,0,0,0,500.7,296.52Z" transform="translate(-404.38 -230.81)"/></svg>