<svg id="icons" xmlns="http://www.w3.org/2000/svg" xmlns:xlink="http://www.w3.org/1999/xlink" viewBox="0 0 35.51 89.03"><defs><style>.cls-1{fill:#3c3c3b;}.cls-2{fill:none;}.cls-3{fill:#edc590;}.cls-4{fill:#f90;}.cls-5{clip-path:url(#clip-path);}.cls-6{opacity:0.1;}.cls-7{fill:#fff;}.cls-8{fill:#55379b;}.cls-9{clip-path:url(#clip-path-2);}.cls-10{clip-path:url(#clip-path-3);}.cls-11{clip-path:url(#clip-path-4);}.cls-12{fill:#2e1775;}</style><clipPath id="clip-path" transform="translate(-449.59 -310.96)"><polygon id="_Clipping_Path_" data-name="&lt;Clipping Path&gt;" class="cls-1" points="477.07 399.06 460.28 399.06 457.93 362.82 479.42 362.82 477.07 399.06"/></clipPath><clipPath id="clip-path-2" transform="translate(-449.59 -310.96)"><path id="_Clipping_Path_2" data-name="&lt;Clipping Path&gt;" class="cls-2" d="M477.54,336H473.4c-1.8,4.12-4.66,10.71-4.66,11s-3.65-7.4-5.36-11h-3.57a7.57,7.57,0,0,0-7.57,7.52v18.88a7.57,7.57,0,0,0,7.57,7.52h17.73a7.57,7.57,0,0,0,7.57-7.52V343.53A7.57,7.57,0,0,0,477.54,336Z"/></clipPath><clipPath id="clip-path-3" transform="translate(-449.59 -310.96)"><ellipse id="_Clipping_Path_3" data-name="&lt;Clipping Path&gt;" class="cls-3" cx="468.67" cy="324.98" rx="10.25" ry="10.18"/></clipPath><clipPath id="clip-path-4" transform="translate(-449.59 -310.96)"><path id="_Clipping_Path_4" data-name="&lt;Clipping Path&gt;" class="cls-4" d="M471.38,338.31l-2.32-2.3a.55.55,0,0,0-.77,0l-2.32,2.3a.54.54,0,0,0,0,.77l1.16,1.15-1.06,1,2.6,10.92,2.6-10.92-1.06-1,1.16-1.15A.54.54,0,0,0,471.38,338.31Z"/></clipPath></defs><g id="_Group_" data-name="&lt;Group&gt;"><g id="_Clip_Group_" data-name="&lt;Clip Group&gt;"><polygon id="_Clipping_Path_5" data-name="&lt;Clipping Path&gt;" class="cls-1" points="27.47 88.1 10.68 88.1 8.34 51.86 29.82 51.86 27.47 88.1"/><g class="cls-5"><rect id="_Rectangle_" data-name="&lt;Rectangle&gt;" class="cls-6" y="0.93" width="19.08" height="88.1"/></g></g><g id="_Group_2" data-name="&lt;Group&gt;"><rect id="_Rectangle_2" data-name="&lt;Rectangle&gt;" class="cls-7" x="11.86" y="25.05" width="14.68" height="14.92"/><path id="_Path_" data-name="&lt;Path&gt;" class="cls-8" d="M477.54,336H473.4c-1.8,4.12-4.66,10.71-4.66,11s-3.65-7.4-5.36-11h-3.57a7.57,7.57,0,0,0-7.57,7.52v18.88a7.57,7.57,0,0,0,7.57,7.52h17.73a7.57,7.57,0,0,0,7.57-7.52V343.53A7.57,7.57,0,0,0,477.54,336Z" transform="translate(-449.59 -310.96)"/></g><g id="_Clip_Group_2" data-name="&lt;Clip Group&gt;"><g class="cls-9"><rect id="_Rectangle_3" data-name="&lt;Rectangle&gt;" class="cls-6" y="0.93" width="19.08" height="88.1"/></g></g><g id="_Clip_Group_3" data-name="&lt;Clip Group&gt;"><ellipse id="_Clipping_Path_6" data-name="&lt;Clipping Path&gt;" class="cls-3" cx="19.08" cy="14.02" rx="10.25" ry="10.18"/><g class="cls-10"><rect id="_Rectangle_4" data-name="&lt;Rectangle&gt;" class="cls-6" y="0.93" width="19.08" height="88.1"/></g></g><g id="_Clip_Group_4" data-name="&lt;Clip Group&gt;"><path id="_Clipping_Path_7" data-name="&lt;Clipping Path&gt;" class="cls-4" d="M471.38,338.31l-2.32-2.3a.55.55,0,0,0-.77,0l-2.32,2.3a.54.54,0,0,0,0,.77l1.16,1.15-1.06,1,2.6,10.92,2.6-10.92-1.06-1,1.16-1.15A.54.54,0,0,0,471.38,338.31Z" transform="translate(-449.59 -310.96)"/><g class="cls-11"><rect id="_Rectangle_5" data-name="&lt;Rectangle&gt;" class="cls-6" width="19.08" height="88.1"/></g></g><rect id="_Path_2" data-name="&lt;Path&gt;" class="cls-12" x="25.44" y="32.45" width="6.65" height="3"/></g></svg>