<svg id="icons" xmlns="http://www.w3.org/2000/svg" xmlns:xlink="http://www.w3.org/1999/xlink" viewBox="0 0 37.9 88.1"><defs><style>.cls-1{fill:#edc590;}.cls-2{fill:#0295d4;}.cls-3{clip-path:url(#clip-path);}.cls-4{opacity:0.1;}.cls-5{clip-path:url(#clip-path-2);}.cls-6{clip-path:url(#clip-path-3);}.cls-7{fill:#015f7f;}</style><clipPath id="clip-path" transform="translate(-493.11 -311.89)"><polygon id="_Clipping_Path_" data-name="&lt;Clipping Path&gt;" class="cls-1" points="517.35 399.06 507.17 399.06 504.82 362.82 519.7 362.82 517.35 399.06"/></clipPath><clipPath id="clip-path-2" transform="translate(-493.11 -311.89)"><ellipse id="_Clipping_Path_2" data-name="&lt;Clipping Path&gt;" class="cls-1" cx="512.19" cy="324.98" rx="10.25" ry="10.18"/></clipPath><clipPath id="clip-path-3" transform="translate(-493.11 -311.89)"><path id="_Clipping_Path_3" data-name="&lt;Clipping Path&gt;" class="cls-2" d="M524.2,342.38a4.75,4.75,0,0,0-4.75-4.72h-1.15c-.8,1.45-3.15,2.49-5.93,2.49s-5.13-1-5.93-2.49h-1.15a4.75,4.75,0,0,0-4.75,4.72L493.71,378a4.75,4.75,0,0,0,4.75,4.72h27.79A4.75,4.75,0,0,0,531,378Z"/></clipPath></defs><g id="_Group_" data-name="&lt;Group&gt;"><g id="_Clip_Group_" data-name="&lt;Clip Group&gt;"><polygon id="_Clipping_Path_4" data-name="&lt;Clipping Path&gt;" class="cls-1" points="24.24 87.17 14.06 87.17 11.71 50.92 26.59 50.92 24.24 87.17"/><g class="cls-3"><rect id="_Rectangle_" data-name="&lt;Rectangle&gt;" class="cls-4" width="19.08" height="88.1"/></g></g><g id="_Clip_Group_2" data-name="&lt;Clip Group&gt;"><ellipse id="_Clipping_Path_5" data-name="&lt;Clipping Path&gt;" class="cls-1" cx="19.08" cy="13.09" rx="10.25" ry="10.18"/><g class="cls-5"><rect id="_Rectangle_2" data-name="&lt;Rectangle&gt;" class="cls-4" width="19.08" height="88.1"/></g></g><g id="_Clip_Group_3" data-name="&lt;Clip Group&gt;"><path id="_Clipping_Path_6" data-name="&lt;Clipping Path&gt;" class="cls-2" d="M524.2,342.38a4.75,4.75,0,0,0-4.75-4.72h-1.15c-.8,1.45-3.15,2.49-5.93,2.49s-5.13-1-5.93-2.49h-1.15a4.75,4.75,0,0,0-4.75,4.72L493.71,378a4.75,4.75,0,0,0,4.75,4.72h27.79A4.75,4.75,0,0,0,531,378Z" transform="translate(-493.11 -311.89)"/><g class="cls-6"><rect id="_Rectangle_3" data-name="&lt;Rectangle&gt;" class="cls-4" width="19.08" height="88.1"/></g></g><g id="_Group_2" data-name="&lt;Group&gt;"><rect id="_Path_" data-name="&lt;Path&gt;" class="cls-7" x="501.98" y="366.24" width="3" height="7.61" transform="translate(-506.3 409.56) rotate(-70.54)"/><rect id="_Path_2" data-name="&lt;Path&gt;" class="cls-7" x="516.36" y="368.55" width="7.61" height="3" transform="translate(-586.68 -117.44) rotate(-19.46)"/></g></g></svg>