<svg id="icons" xmlns="http://www.w3.org/2000/svg" xmlns:xlink="http://www.w3.org/1999/xlink" viewBox="0 0 90.5 97.48"><defs><style>.cls-1{fill:#46c4db;}.cls-2{fill:#edc590;}.cls-3{fill:#efefef;}.cls-4{fill:none;stroke:#46c4db;stroke-miterlimit:10;stroke-width:2.82px;}.cls-5,.cls-9{fill:#fff;}.cls-6{clip-path:url(#clip-path);}.cls-7{fill:#a6e3ee;}.cls-8{clip-path:url(#clip-path-2);}.cls-11,.cls-9{opacity:0.1;}.cls-10{clip-path:url(#clip-path-3);}</style><clipPath id="clip-path" transform="translate(-1270.18 -1347.26)"><path id="_Clipping_Path_" data-name="&lt;Clipping Path&gt;" class="cls-1" d="M1310.39,1378.49l-4.23.26c-1.59,4.18-4.11,10.85-4.09,11.09s-4.19-7.06-6.16-10.45l-3.65.23a7.62,7.62,0,0,0-7.28,7.89l.46,7.42a7.62,7.62,0,0,0,8.21,6.92l18.13-1.13a7.62,7.62,0,0,0,7.28-7.89l-.46-7.42A7.62,7.62,0,0,0,1310.39,1378.49Z"/></clipPath><clipPath id="clip-path-2" transform="translate(-1270.18 -1347.26)"><ellipse id="_Clipping_Path_2" data-name="&lt;Clipping Path&gt;" class="cls-2" cx="1300.36" cy="1369.16" rx="9.31" ry="9.24" transform="translate(-83 83.92) rotate(-3.58)"/></clipPath><clipPath id="clip-path-3" transform="translate(-1270.18 -1347.26)"><path id="_Clipping_Path_3" data-name="&lt;Clipping Path&gt;" class="cls-1" d="M1304.24,1381.24l-2.52-2.2a.57.57,0,0,0-.79,0l-2.22,2.5a.56.56,0,0,0,0,.79l1.26,1.1-1,1.14,3.36,11,2-11.33-1.15-1,1.11-1.25A.56.56,0,0,0,1304.24,1381.24Z"/></clipPath></defs><rect class="cls-3" x="1329.21" y="1353.97" width="28.63" height="56.57" rx="4.01" ry="4.01" transform="translate(-1353.92 -1260.62) rotate(-3.58)"/><rect class="cls-4" x="1301.3" y="1354.84" width="56.57" height="56.57" rx="5.01" ry="5.01" transform="translate(-1354 -1261.49) rotate(-3.58)"/><rect class="cls-3" x="1325.27" y="1353.36" width="28.63" height="56.57" rx="4.01" ry="4.01" transform="translate(-1353.89 -1260.87) rotate(-3.58)"/><rect class="cls-4" x="1297.36" y="1354.23" width="56.57" height="56.57" rx="5.01" ry="5.01" transform="translate(-1353.97 -1261.73) rotate(-3.58)"/><rect class="cls-3" x="1321.07" y="1352.24" width="28.63" height="56.57" rx="4.01" ry="4.01" transform="translate(-1353.83 -1261.13) rotate(-3.58)"/><rect class="cls-4" x="1293.16" y="1353.12" width="56.57" height="56.57" rx="5.01" ry="5.01" transform="translate(-1353.91 -1262) rotate(-3.58)"/><rect class="cls-3" x="1316.15" y="1350.81" width="28.63" height="56.57" rx="4.01" ry="4.01" transform="translate(-1353.75 -1261.44) rotate(-3.58)"/><rect class="cls-4" x="1288.24" y="1351.68" width="56.57" height="56.57" rx="5.01" ry="5.01" transform="translate(-1353.83 -1262.31) rotate(-3.58)"/><rect class="cls-3" x="1310.97" y="1350.41" width="28.63" height="56.57" rx="4.01" ry="4.01" transform="translate(-1353.73 -1261.76) rotate(-3.58)"/><rect class="cls-4" x="1283.06" y="1351.29" width="56.57" height="56.57" rx="5.01" ry="5.01" transform="translate(-1353.81 -1262.63) rotate(-3.58)"/><rect class="cls-3" x="1306.05" y="1349.83" width="28.63" height="56.57" rx="4.01" ry="4.01" transform="translate(-1353.71 -1262.07) rotate(-3.58)"/><rect class="cls-4" x="1278.14" y="1350.7" width="56.57" height="56.57" rx="5.01" ry="5.01" transform="translate(-1353.79 -1262.94) rotate(-3.58)"/><rect class="cls-5" x="1274.1" y="1350.65" width="31.4" height="56.57" rx="4.01" ry="4.01" transform="translate(-1353.82 -1263.98) rotate(-3.58)"/><rect class="cls-3" x="1300.91" y="1349.2" width="28.63" height="56.57" rx="4.01" ry="4.01" transform="translate(-1353.68 -1262.4) rotate(-3.58)"/><rect class="cls-4" x="1273" y="1350.08" width="56.57" height="56.57" rx="5.01" ry="5.01" transform="translate(-1353.76 -1263.26) rotate(-3.58)"/><g id="_Clip_Group_" data-name="&lt;Clip Group&gt;"><path id="_Clipping_Path_4" data-name="&lt;Clipping Path&gt;" class="cls-1" d="M1310.39,1378.49l-4.23.26c-1.59,4.18-4.11,10.85-4.09,11.09s-4.19-7.06-6.16-10.45l-3.65.23a7.62,7.62,0,0,0-7.28,7.89l.46,7.42a7.62,7.62,0,0,0,8.21,6.92l18.13-1.13a7.62,7.62,0,0,0,7.28-7.89l-.46-7.42A7.62,7.62,0,0,0,1310.39,1378.49Z" transform="translate(-1270.18 -1347.26)"/><g class="cls-6"><rect id="_Rectangle_" data-name="&lt;Rectangle&gt;" class="cls-7" x="1283.03" y="1355.82" width="19.54" height="86.96" transform="translate(-1355.08 -1263.75) rotate(-3.58)"/></g></g><g id="_Clip_Group_2" data-name="&lt;Clip Group&gt;"><ellipse id="_Clipping_Path_5" data-name="&lt;Clipping Path&gt;" class="cls-2" cx="1300.36" cy="1369.16" rx="9.31" ry="9.24" transform="translate(-1353.19 -1263.34) rotate(-3.58)"/><g class="cls-8"><rect id="_Rectangle_2" data-name="&lt;Rectangle&gt;" class="cls-9" x="1284.81" y="1357.76" width="17.32" height="80" transform="translate(-1354.99 -1263.71) rotate(-3.58)"/></g></g><g id="_Clip_Group_3" data-name="&lt;Clip Group&gt;"><path id="_Clipping_Path_6" data-name="&lt;Clipping Path&gt;" class="cls-1" d="M1304.24,1381.24l-2.52-2.2a.57.57,0,0,0-.79,0l-2.22,2.5a.56.56,0,0,0,0,.79l1.26,1.1-1,1.14,3.36,11,2-11.33-1.15-1,1.11-1.25A.56.56,0,0,0,1304.24,1381.24Z" transform="translate(-1270.18 -1347.26)"/><g class="cls-10"><rect id="_Rectangle_3" data-name="&lt;Rectangle&gt;" class="cls-11" x="1283.02" y="1353.97" width="19.54" height="90.25" transform="translate(-1355.07 -1263.75) rotate(-3.58)"/></g></g></svg>