<svg id="icons" xmlns="http://www.w3.org/2000/svg" xmlns:xlink="http://www.w3.org/1999/xlink" viewBox="0 0 62.2 97.48"><defs><style>.cls-1{fill:#46c4db;}.cls-2{fill:#edc590;}.cls-3,.cls-9{fill:#fff;}.cls-4{fill:#efefef;}.cls-5{fill:none;stroke:#46c4db;stroke-miterlimit:10;stroke-width:2.82px;}.cls-6{clip-path:url(#clip-path);}.cls-7{fill:#a6e3ee;}.cls-8{clip-path:url(#clip-path-2);}.cls-11,.cls-9{opacity:0.1;}.cls-10{clip-path:url(#clip-path-3);}</style><clipPath id="clip-path" transform="translate(765.81 -347.55)"><path id="_Clipping_Path_" data-name="&lt;Clipping Path&gt;" class="cls-1" d="M-725.61,378.79l-4.23.26c-1.59,4.18-4.11,10.85-4.09,11.09s-4.19-7.06-6.16-10.45l-3.65.23a7.62,7.62,0,0,0-7.28,7.89l.46,7.42a7.62,7.62,0,0,0,8.21,6.92l18.13-1.13a7.62,7.62,0,0,0,7.28-7.89l-.46-7.42A7.62,7.62,0,0,0-725.61,378.79Z"/></clipPath><clipPath id="clip-path-2" transform="translate(765.81 -347.55)"><ellipse id="_Clipping_Path_2" data-name="&lt;Clipping Path&gt;" class="cls-2" cx="-735.63" cy="369.45" rx="9.31" ry="9.24" transform="translate(-24.52 -45.24) rotate(-3.58)"/></clipPath><clipPath id="clip-path-3" transform="translate(765.81 -347.55)"><path id="_Clipping_Path_3" data-name="&lt;Clipping Path&gt;" class="cls-1" d="M-731.75,381.53l-2.52-2.2a.57.57,0,0,0-.79,0l-2.22,2.5a.56.56,0,0,0,0,.79l1.26,1.1-1,1.14,3.36,11,2-11.33-1.15-1,1.11-1.25A.56.56,0,0,0-731.75,381.53Z"/></clipPath></defs><rect class="cls-3" x="-761.9" y="350.95" width="31.4" height="56.57" rx="4.01" ry="4.01" transform="translate(740.66 -393.43) rotate(-3.58)"/><rect class="cls-4" x="-735.09" y="349.5" width="28.63" height="56.57" rx="4.01" ry="4.01" transform="translate(740.8 -391.85) rotate(-3.58)"/><rect class="cls-5" x="-762.99" y="350.37" width="56.57" height="56.57" rx="5.01" ry="5.01" transform="translate(740.72 -392.72) rotate(-3.58)"/><g id="_Clip_Group_" data-name="&lt;Clip Group&gt;"><path id="_Clipping_Path_4" data-name="&lt;Clipping Path&gt;" class="cls-1" d="M-725.61,378.79l-4.23.26c-1.59,4.18-4.11,10.85-4.09,11.09s-4.19-7.06-6.16-10.45l-3.65.23a7.62,7.62,0,0,0-7.28,7.89l.46,7.42a7.62,7.62,0,0,0,8.21,6.92l18.13-1.13a7.62,7.62,0,0,0,7.28-7.89l-.46-7.42A7.62,7.62,0,0,0-725.61,378.79Z" transform="translate(765.81 -347.55)"/><g class="cls-6"><rect id="_Rectangle_" data-name="&lt;Rectangle&gt;" class="cls-7" x="-752.96" y="356.12" width="19.54" height="86.96" transform="translate(739.4 -393.21) rotate(-3.58)"/></g></g><g id="_Clip_Group_2" data-name="&lt;Clip Group&gt;"><ellipse id="_Clipping_Path_5" data-name="&lt;Clipping Path&gt;" class="cls-2" cx="-735.63" cy="369.45" rx="9.31" ry="9.24" transform="translate(741.29 -392.79) rotate(-3.58)"/><g class="cls-8"><rect id="_Rectangle_2" data-name="&lt;Rectangle&gt;" class="cls-9" x="-751.18" y="358.05" width="17.32" height="80" transform="translate(739.49 -393.17) rotate(-3.58)"/></g></g><g id="_Clip_Group_3" data-name="&lt;Clip Group&gt;"><path id="_Clipping_Path_6" data-name="&lt;Clipping Path&gt;" class="cls-1" d="M-731.75,381.53l-2.52-2.2a.57.57,0,0,0-.79,0l-2.22,2.5a.56.56,0,0,0,0,.79l1.26,1.1-1,1.14,3.36,11,2-11.33-1.15-1,1.11-1.25A.56.56,0,0,0-731.75,381.53Z" transform="translate(765.81 -347.55)"/><g class="cls-10"><rect id="_Rectangle_3" data-name="&lt;Rectangle&gt;" class="cls-11" x="-752.98" y="354.26" width="19.54" height="90.25" transform="translate(739.41 -393.21) rotate(-3.58)"/></g></g></svg>